<?xml version="1.0" encoding="UTF-8" standalone="no"?>
<!DOCTYPE svg PUBLIC "-//W3C//DTD SVG 1.1//EN"
 "http://www.w3.org/Graphics/SVG/1.1/DTD/svg11.dtd">
<!-- Generated by graphviz version 2.43.0 (0)
 -->
<!-- Title: include/pessoas/admin.hpp Pages: 1 -->
<svg width="506pt" height="196pt"
 viewBox="0.00 0.00 506.00 196.00" xmlns="http://www.w3.org/2000/svg" xmlns:xlink="http://www.w3.org/1999/xlink">
<g id="graph0" class="graph" transform="scale(1 1) rotate(0) translate(4 192)">
<title>include/pessoas/admin.hpp</title>
<polygon fill="white" stroke="transparent" points="-4,4 -4,-192 502,-192 502,4 -4,4"/>
<!-- Node1 -->
<g id="node1" class="node">
<title>Node1</title>
<g id="a_node1"><a xlink:title="Classe do administrador.">
<polygon fill="#bfbfbf" stroke="black" points="232.5,-168.5 232.5,-187.5 381.5,-187.5 381.5,-168.5 232.5,-168.5"/>
<text text-anchor="middle" x="307" y="-175.5" font-family="Helvetica,sans-Serif" font-size="10.00">include/pessoas/admin.hpp</text>
</a>
</g>
</g>
<!-- Node2 -->
<g id="node2" class="node">
<title>Node2</title>
<g id="a_node2"><a xlink:href="pessoa_8hpp.html" target="_top" xlink:title="Classe mãe de usuario e admin.">
<polygon fill="white" stroke="black" points="72,-112.5 72,-131.5 144,-131.5 144,-112.5 72,-112.5"/>
<text text-anchor="middle" x="108" y="-119.5" font-family="Helvetica,sans-Serif" font-size="10.00">pessoa.hpp</text>
</a>
</g>
</g>
<!-- Node1&#45;&gt;Node2 -->
<g id="edge1" class="edge">
<title>Node1&#45;&gt;Node2</title>
<path fill="none" stroke="midnightblue" d="M275.47,-168.44C241.41,-159.2 186.99,-144.44 149.48,-134.26"/>
<polygon fill="midnightblue" stroke="midnightblue" points="149.95,-130.76 139.38,-131.52 148.12,-137.51 149.95,-130.76"/>
</g>
<!-- Node7 -->
<g id="node7" class="node">
<title>Node7</title>
<g id="a_node7"><a xlink:href="livro_8hpp.html" target="_top" xlink:title="Classe do objeto Livro.">
<polygon fill="white" stroke="black" points="162.5,-112.5 162.5,-131.5 255.5,-131.5 255.5,-112.5 162.5,-112.5"/>
<text text-anchor="middle" x="209" y="-119.5" font-family="Helvetica,sans-Serif" font-size="10.00">../livro/livro.hpp</text>
</a>
</g>
</g>
<!-- Node1&#45;&gt;Node7 -->
<g id="edge8" class="edge">
<title>Node1&#45;&gt;Node7</title>
<path fill="none" stroke="midnightblue" d="M291.25,-168.32C275.68,-159.74 251.62,-146.49 233.54,-136.52"/>
<polygon fill="midnightblue" stroke="midnightblue" points="235.15,-133.42 224.71,-131.65 231.78,-139.55 235.15,-133.42"/>
</g>
<!-- Node8 -->
<g id="node8" class="node">
<title>Node8</title>
<g id="a_node8"><a xlink:title=" ">
<polygon fill="white" stroke="#bfbfbf" points="256.5,-56.5 256.5,-75.5 303.5,-75.5 303.5,-56.5 256.5,-56.5"/>
<text text-anchor="middle" x="280" y="-63.5" font-family="Helvetica,sans-Serif" font-size="10.00">vector</text>
</a>
</g>
</g>
<!-- Node1&#45;&gt;Node8 -->
<g id="edge14" class="edge">
<title>Node1&#45;&gt;Node8</title>
<path fill="none" stroke="midnightblue" d="M304.88,-168.37C300.52,-150.62 290.47,-109.67 284.56,-85.6"/>
<polygon fill="midnightblue" stroke="midnightblue" points="287.89,-84.47 282.11,-75.59 281.09,-86.14 287.89,-84.47"/>
</g>
<!-- Node9 -->
<g id="node9" class="node">
<title>Node9</title>
<g id="a_node9"><a xlink:title=" ">
<polygon fill="white" stroke="#bfbfbf" points="312,-112.5 312,-131.5 350,-131.5 350,-112.5 312,-112.5"/>
<text text-anchor="middle" x="331" y="-119.5" font-family="Helvetica,sans-Serif" font-size="10.00">map</text>
</a>
</g>
</g>
<!-- Node1&#45;&gt;Node9 -->
<g id="edge12" class="edge">
<title>Node1&#45;&gt;Node9</title>
<path fill="none" stroke="midnightblue" d="M310.96,-168.08C314.21,-160.77 318.92,-150.18 322.95,-141.1"/>
<polygon fill="midnightblue" stroke="midnightblue" points="326.25,-142.31 327.11,-131.75 319.85,-139.47 326.25,-142.31"/>
</g>
<!-- Node10 -->
<g id="node10" class="node">
<title>Node10</title>
<g id="a_node10"><a xlink:title=" ">
<polygon fill="white" stroke="#bfbfbf" points="368.5,-112.5 368.5,-131.5 423.5,-131.5 423.5,-112.5 368.5,-112.5"/>
<text text-anchor="middle" x="396" y="-119.5" font-family="Helvetica,sans-Serif" font-size="10.00">fstream</text>
</a>
</g>
</g>
<!-- Node1&#45;&gt;Node10 -->
<g id="edge13" class="edge">
<title>Node1&#45;&gt;Node10</title>
<path fill="none" stroke="midnightblue" d="M321.3,-168.32C335.18,-159.9 356.49,-146.97 372.8,-137.07"/>
<polygon fill="midnightblue" stroke="midnightblue" points="375,-139.83 381.74,-131.65 371.37,-133.85 375,-139.83"/>
</g>
<!-- Node11 -->
<g id="node11" class="node">
<title>Node11</title>
<g id="a_node11"><a xlink:title=" ">
<polygon fill="white" stroke="#bfbfbf" points="442,-112.5 442,-131.5 498,-131.5 498,-112.5 442,-112.5"/>
<text text-anchor="middle" x="470" y="-119.5" font-family="Helvetica,sans-Serif" font-size="10.00">sstream</text>
</a>
</g>
</g>
<!-- Node1&#45;&gt;Node11 -->
<g id="edge15" class="edge">
<title>Node1&#45;&gt;Node11</title>
<path fill="none" stroke="midnightblue" d="M332.83,-168.44C360.25,-159.36 403.78,-144.94 434.43,-134.78"/>
<polygon fill="midnightblue" stroke="midnightblue" points="435.9,-137.98 444.29,-131.52 433.7,-131.34 435.9,-137.98"/>
</g>
<!-- Node3 -->
<g id="node3" class="node">
<title>Node3</title>
<g id="a_node3"><a xlink:title=" ">
<polygon fill="white" stroke="#bfbfbf" points="0,-0.5 0,-19.5 60,-19.5 60,-0.5 0,-0.5"/>
<text text-anchor="middle" x="30" y="-7.5" font-family="Helvetica,sans-Serif" font-size="10.00">iostream</text>
</a>
</g>
</g>
<!-- Node2&#45;&gt;Node3 -->
<g id="edge2" class="edge">
<title>Node2&#45;&gt;Node3</title>
<path fill="none" stroke="midnightblue" d="M71.97,-113.28C51.77,-106.91 28.24,-95.61 16,-76 7.05,-61.66 12.92,-42.45 19.59,-28.64"/>
<polygon fill="midnightblue" stroke="midnightblue" points="22.75,-30.15 24.38,-19.69 16.57,-26.85 22.75,-30.15"/>
</g>
<!-- Node4 -->
<g id="node4" class="node">
<title>Node4</title>
<g id="a_node4"><a xlink:title=" ">
<polygon fill="white" stroke="#bfbfbf" points="164,-0.5 164,-19.5 208,-19.5 208,-0.5 164,-0.5"/>
<text text-anchor="middle" x="186" y="-7.5" font-family="Helvetica,sans-Serif" font-size="10.00">string</text>
</a>
</g>
</g>
<!-- Node2&#45;&gt;Node4 -->
<g id="edge3" class="edge">
<title>Node2&#45;&gt;Node4</title>
<path fill="none" stroke="midnightblue" d="M124.34,-112.44C137.68,-104.64 156.06,-91.93 167,-76 176.46,-62.22 181.28,-43.7 183.68,-29.95"/>
<polygon fill="midnightblue" stroke="midnightblue" points="187.19,-30.14 185.19,-19.73 180.27,-29.11 187.19,-30.14"/>
</g>
<!-- Node5 -->
<g id="node5" class="node">
<title>Node5</title>
<g id="a_node5"><a xlink:href="erros_8hpp.html" target="_top" xlink:title="Classes de tratamento de exceções.">
<polygon fill="white" stroke="black" points="58.5,-56.5 58.5,-75.5 157.5,-75.5 157.5,-56.5 58.5,-56.5"/>
<text text-anchor="middle" x="108" y="-63.5" font-family="Helvetica,sans-Serif" font-size="10.00">../erros/erros.hpp</text>
</a>
</g>
</g>
<!-- Node2&#45;&gt;Node5 -->
<g id="edge4" class="edge">
<title>Node2&#45;&gt;Node5</title>
<path fill="none" stroke="midnightblue" d="M108,-112.08C108,-105.01 108,-94.86 108,-85.99"/>
<polygon fill="midnightblue" stroke="midnightblue" points="111.5,-85.75 108,-75.75 104.5,-85.75 111.5,-85.75"/>
</g>
<!-- Node5&#45;&gt;Node3 -->
<g id="edge5" class="edge">
<title>Node5&#45;&gt;Node3</title>
<path fill="none" stroke="midnightblue" d="M95.47,-56.32C83.41,-47.98 64.97,-35.21 50.73,-25.35"/>
<polygon fill="midnightblue" stroke="midnightblue" points="52.72,-22.47 42.5,-19.65 48.73,-28.22 52.72,-22.47"/>
</g>
<!-- Node5&#45;&gt;Node4 -->
<g id="edge6" class="edge">
<title>Node5&#45;&gt;Node4</title>
<path fill="none" stroke="midnightblue" d="M120.53,-56.32C132.59,-47.98 151.03,-35.21 165.27,-25.35"/>
<polygon fill="midnightblue" stroke="midnightblue" points="167.27,-28.22 173.5,-19.65 163.28,-22.47 167.27,-28.22"/>
</g>
<!-- Node6 -->
<g id="node6" class="node">
<title>Node6</title>
<g id="a_node6"><a xlink:title=" ">
<polygon fill="white" stroke="#bfbfbf" points="83,-0.5 83,-19.5 133,-19.5 133,-0.5 83,-0.5"/>
<text text-anchor="middle" x="108" y="-7.5" font-family="Helvetica,sans-Serif" font-size="10.00">cstring</text>
</a>
</g>
</g>
<!-- Node5&#45;&gt;Node6 -->
<g id="edge7" class="edge">
<title>Node5&#45;&gt;Node6</title>
<path fill="none" stroke="midnightblue" d="M108,-56.08C108,-49.01 108,-38.86 108,-29.99"/>
<polygon fill="midnightblue" stroke="midnightblue" points="111.5,-29.75 108,-19.75 104.5,-29.75 111.5,-29.75"/>
</g>
<!-- Node7&#45;&gt;Node3 -->
<g id="edge9" class="edge">
<title>Node7&#45;&gt;Node3</title>
<path fill="none" stroke="midnightblue" d="M162.15,-113.01C120.91,-105.08 65,-91.83 49,-76 36.87,-63.99 32.39,-44.7 30.78,-30.24"/>
<polygon fill="midnightblue" stroke="midnightblue" points="34.24,-29.64 30.01,-19.92 27.26,-30.15 34.24,-29.64"/>
</g>
<!-- Node7&#45;&gt;Node4 -->
<g id="edge11" class="edge">
<title>Node7&#45;&gt;Node4</title>
<path fill="none" stroke="midnightblue" d="M208.23,-112.09C207.04,-99.49 204.42,-75.79 200,-56 197.99,-47.01 195.04,-37.21 192.37,-29.07"/>
<polygon fill="midnightblue" stroke="midnightblue" points="195.65,-27.85 189.11,-19.51 189.02,-30.11 195.65,-27.85"/>
</g>
<!-- Node7&#45;&gt;Node8 -->
<g id="edge10" class="edge">
<title>Node7&#45;&gt;Node8</title>
<path fill="none" stroke="midnightblue" d="M220.41,-112.32C231.11,-104.18 247.34,-91.84 260.16,-82.09"/>
<polygon fill="midnightblue" stroke="midnightblue" points="262.54,-84.67 268.39,-75.83 258.31,-79.1 262.54,-84.67"/>
</g>
</g>
</svg>
