<?xml version="1.0" encoding="UTF-8" standalone="no"?>
<!DOCTYPE svg PUBLIC "-//W3C//DTD SVG 1.1//EN"
 "http://www.w3.org/Graphics/SVG/1.1/DTD/svg11.dtd">
<!-- Generated by graphviz version 2.43.0 (0)
 -->
<!-- Title: include/pessoas/admin.hpp Pages: 1 -->
<svg width="824pt" height="207pt"
 viewBox="0.00 0.00 824.00 207.00" xmlns="http://www.w3.org/2000/svg" xmlns:xlink="http://www.w3.org/1999/xlink">
<g id="graph0" class="graph" transform="scale(1 1) rotate(0) translate(4 203)">
<title>include/pessoas/admin.hpp</title>
<polygon fill="white" stroke="transparent" points="-4,4 -4,-203 820,-203 820,4 -4,4"/>
<!-- Node1 -->
<g id="node1" class="node">
<title>Node1</title>
<g id="a_node1"><a xlink:title="Classe do administrador.">
<polygon fill="#bfbfbf" stroke="black" points="467,-179.5 467,-198.5 616,-198.5 616,-179.5 467,-179.5"/>
<text text-anchor="middle" x="541.5" y="-186.5" font-family="Helvetica,sans-Serif" font-size="10.00">include/pessoas/admin.hpp</text>
</a>
</g>
</g>
<!-- Node2 -->
<g id="node2" class="node">
<title>Node2</title>
<g id="a_node2"><a xlink:href="biblioteca_8hpp.html" target="_top" xlink:title="Classe responsável por armazenar os livros existentes, adicionar e remover livros,...">
<polygon fill="white" stroke="black" points="247,-112.5 247,-142.5 350,-142.5 350,-112.5 247,-112.5"/>
<text text-anchor="start" x="255" y="-130.5" font-family="Helvetica,sans-Serif" font-size="10.00">include/biblioteca</text>
<text text-anchor="middle" x="298.5" y="-119.5" font-family="Helvetica,sans-Serif" font-size="10.00">/biblioteca.hpp</text>
</a>
</g>
</g>
<!-- Node1&#45;&gt;Node2 -->
<g id="edge1" class="edge">
<title>Node1&#45;&gt;Node2</title>
<path fill="none" stroke="midnightblue" d="M496.87,-177.07C455.45,-166.93 393.8,-151.83 350.24,-141.17"/>
<polygon fill="midnightblue" stroke="midnightblue" points="496.14,-180.5 506.68,-179.48 497.8,-173.7 496.14,-180.5"/>
</g>
<!-- Node7 -->
<g id="node7" class="node">
<title>Node7</title>
<g id="a_node7"><a xlink:href="sistema_8hpp.html" target="_top" xlink:title="Classe responsável por armazenar o histórico de livros.">
<polygon fill="white" stroke="black" points="423,-112.5 423,-142.5 526,-142.5 526,-112.5 423,-112.5"/>
<text text-anchor="start" x="431" y="-130.5" font-family="Helvetica,sans-Serif" font-size="10.00">include/biblioteca</text>
<text text-anchor="middle" x="474.5" y="-119.5" font-family="Helvetica,sans-Serif" font-size="10.00">/sistema.hpp</text>
</a>
</g>
</g>
<!-- Node1&#45;&gt;Node7 -->
<g id="edge6" class="edge">
<title>Node1&#45;&gt;Node7</title>
<path fill="none" stroke="midnightblue" d="M524.21,-172.65C513.74,-163.35 500.48,-151.57 490.29,-142.52"/>
<polygon fill="midnightblue" stroke="midnightblue" points="522.1,-175.45 531.9,-179.48 526.75,-170.22 522.1,-175.45"/>
</g>
<!-- Node10 -->
<g id="node10" class="node">
<title>Node10</title>
<g id="a_node10"><a xlink:href="admin_8cpp.html" target="_top" xlink:title=" ">
<polygon fill="white" stroke="black" points="544.5,-118 544.5,-137 672.5,-137 672.5,-118 544.5,-118"/>
<text text-anchor="middle" x="608.5" y="-125" font-family="Helvetica,sans-Serif" font-size="10.00">src/pessoas/admin.cpp</text>
</a>
</g>
</g>
<!-- Node1&#45;&gt;Node10 -->
<g id="edge11" class="edge">
<title>Node1&#45;&gt;Node10</title>
<path fill="none" stroke="midnightblue" d="M558.79,-172.65C571.56,-161.31 588.48,-146.28 598.92,-137.01"/>
<polygon fill="midnightblue" stroke="midnightblue" points="556.25,-170.22 551.1,-179.48 560.9,-175.45 556.25,-170.22"/>
</g>
<!-- Node11 -->
<g id="node11" class="node">
<title>Node11</title>
<g id="a_node11"><a xlink:href="teste__admin_8hpp.html" target="_top" xlink:title=" ">
<polygon fill="white" stroke="black" points="691,-118 691,-137 816,-137 816,-118 691,-118"/>
<text text-anchor="middle" x="753.5" y="-125" font-family="Helvetica,sans-Serif" font-size="10.00">tests/teste_admin.hpp</text>
</a>
</g>
</g>
<!-- Node1&#45;&gt;Node11 -->
<g id="edge12" class="edge">
<title>Node1&#45;&gt;Node11</title>
<path fill="none" stroke="midnightblue" d="M581.59,-176.75C622.77,-165.19 685.98,-147.45 723.18,-137.01"/>
<polygon fill="midnightblue" stroke="midnightblue" points="580.56,-173.4 571.87,-179.48 582.45,-180.14 580.56,-173.4"/>
</g>
<!-- Node3 -->
<g id="node3" class="node">
<title>Node3</title>
<g id="a_node3"><a xlink:href="biblioteca_8cpp.html" target="_top" xlink:title=" ">
<polygon fill="white" stroke="black" points="0,-56.5 0,-75.5 153,-75.5 153,-56.5 0,-56.5"/>
<text text-anchor="middle" x="76.5" y="-63.5" font-family="Helvetica,sans-Serif" font-size="10.00">src/biblioteca/biblioteca.cpp</text>
</a>
</g>
</g>
<!-- Node2&#45;&gt;Node3 -->
<g id="edge2" class="edge">
<title>Node2&#45;&gt;Node3</title>
<path fill="none" stroke="midnightblue" d="M236.94,-110C195.25,-98.83 141.85,-84.52 108.4,-75.55"/>
<polygon fill="midnightblue" stroke="midnightblue" points="236.17,-113.42 246.73,-112.62 237.98,-106.66 236.17,-113.42"/>
</g>
<!-- Node4 -->
<g id="node4" class="node">
<title>Node4</title>
<g id="a_node4"><a xlink:href="main_8cpp.html" target="_top" xlink:title=" ">
<polygon fill="white" stroke="black" points="332,-56.5 332,-75.5 411,-75.5 411,-56.5 332,-56.5"/>
<text text-anchor="middle" x="371.5" y="-63.5" font-family="Helvetica,sans-Serif" font-size="10.00">src/main.cpp</text>
</a>
</g>
</g>
<!-- Node2&#45;&gt;Node4 -->
<g id="edge3" class="edge">
<title>Node2&#45;&gt;Node4</title>
<path fill="none" stroke="midnightblue" d="M323.78,-105.89C336.48,-95.54 351.19,-83.56 360.88,-75.66"/>
<polygon fill="midnightblue" stroke="midnightblue" points="321.34,-103.37 315.8,-112.4 325.76,-108.79 321.34,-103.37"/>
</g>
<!-- Node5 -->
<g id="node5" class="node">
<title>Node5</title>
<g id="a_node5"><a xlink:href="teste__biblioteca_8hpp.html" target="_top" xlink:title=" ">
<polygon fill="white" stroke="black" points="171,-56.5 171,-75.5 314,-75.5 314,-56.5 171,-56.5"/>
<text text-anchor="middle" x="242.5" y="-63.5" font-family="Helvetica,sans-Serif" font-size="10.00">tests/teste_biblioteca.hpp</text>
</a>
</g>
</g>
<!-- Node2&#45;&gt;Node5 -->
<g id="edge4" class="edge">
<title>Node2&#45;&gt;Node5</title>
<path fill="none" stroke="midnightblue" d="M278.27,-105C268.72,-94.86 257.87,-83.33 250.65,-75.66"/>
<polygon fill="midnightblue" stroke="midnightblue" points="275.83,-107.52 285.23,-112.4 280.92,-102.72 275.83,-107.52"/>
</g>
<!-- Node6 -->
<g id="node6" class="node">
<title>Node6</title>
<g id="a_node6"><a xlink:href="teste_8cpp.html" target="_top" xlink:title=" ">
<polygon fill="white" stroke="black" points="614,-0.5 614,-19.5 703,-19.5 703,-0.5 614,-0.5"/>
<text text-anchor="middle" x="658.5" y="-7.5" font-family="Helvetica,sans-Serif" font-size="10.00">tests/teste.cpp</text>
</a>
</g>
</g>
<!-- Node5&#45;&gt;Node6 -->
<g id="edge5" class="edge">
<title>Node5&#45;&gt;Node6</title>
<path fill="none" stroke="midnightblue" d="M318.44,-55.14C404.94,-43.91 543.41,-25.94 614,-16.78"/>
<polygon fill="midnightblue" stroke="midnightblue" points="317.88,-51.69 308.42,-56.44 318.78,-58.63 317.88,-51.69"/>
</g>
<!-- Node7&#45;&gt;Node4 -->
<g id="edge8" class="edge">
<title>Node7&#45;&gt;Node4</title>
<path fill="none" stroke="midnightblue" d="M441.37,-107.36C422.9,-96.69 400.81,-83.93 386.49,-75.66"/>
<polygon fill="midnightblue" stroke="midnightblue" points="439.68,-110.43 450.09,-112.4 443.18,-104.37 439.68,-110.43"/>
</g>
<!-- Node8 -->
<g id="node8" class="node">
<title>Node8</title>
<g id="a_node8"><a xlink:href="sistema_8cpp.html" target="_top" xlink:title=" ">
<polygon fill="white" stroke="black" points="429.5,-56.5 429.5,-75.5 573.5,-75.5 573.5,-56.5 429.5,-56.5"/>
<text text-anchor="middle" x="501.5" y="-63.5" font-family="Helvetica,sans-Serif" font-size="10.00">src/biblioteca/sistema.cpp</text>
</a>
</g>
</g>
<!-- Node7&#45;&gt;Node8 -->
<g id="edge7" class="edge">
<title>Node7&#45;&gt;Node8</title>
<path fill="none" stroke="midnightblue" d="M485.07,-103.2C489.47,-93.52 494.29,-82.88 497.57,-75.66"/>
<polygon fill="midnightblue" stroke="midnightblue" points="481.84,-101.85 480.9,-112.4 488.22,-104.74 481.84,-101.85"/>
</g>
<!-- Node9 -->
<g id="node9" class="node">
<title>Node9</title>
<g id="a_node9"><a xlink:href="teste__sistema_8hpp.html" target="_top" xlink:title=" ">
<polygon fill="white" stroke="black" points="591.5,-56.5 591.5,-75.5 725.5,-75.5 725.5,-56.5 591.5,-56.5"/>
<text text-anchor="middle" x="658.5" y="-63.5" font-family="Helvetica,sans-Serif" font-size="10.00">tests/teste_sistema.hpp</text>
</a>
</g>
</g>
<!-- Node7&#45;&gt;Node9 -->
<g id="edge9" class="edge">
<title>Node7&#45;&gt;Node9</title>
<path fill="none" stroke="midnightblue" d="M527.94,-109.22C562.1,-98.17 604.91,-84.33 631.99,-75.57"/>
<polygon fill="midnightblue" stroke="midnightblue" points="526.54,-105.99 518.11,-112.4 528.7,-112.65 526.54,-105.99"/>
</g>
<!-- Node9&#45;&gt;Node6 -->
<g id="edge10" class="edge">
<title>Node9&#45;&gt;Node6</title>
<path fill="none" stroke="midnightblue" d="M658.5,-45.8C658.5,-36.91 658.5,-26.78 658.5,-19.75"/>
<polygon fill="midnightblue" stroke="midnightblue" points="655,-46.08 658.5,-56.08 662,-46.08 655,-46.08"/>
</g>
<!-- Node11&#45;&gt;Node6 -->
<g id="edge13" class="edge">
<title>Node11&#45;&gt;Node6</title>
<path fill="none" stroke="midnightblue" d="M752.28,-107.49C750.44,-92.23 745.87,-70.96 734.5,-56 721.33,-38.66 699.38,-26.71 682.45,-19.51"/>
<polygon fill="midnightblue" stroke="midnightblue" points="748.82,-108.14 753.21,-117.78 755.79,-107.5 748.82,-108.14"/>
</g>
</g>
</svg>
