<?xml version="1.0" encoding="UTF-8" standalone="no"?>
<!DOCTYPE svg PUBLIC "-//W3C//DTD SVG 1.1//EN"
 "http://www.w3.org/Graphics/SVG/1.1/DTD/svg11.dtd">
<!-- Generated by graphviz version 2.43.0 (0)
 -->
<!-- Title: include/biblioteca/arquivos.hpp Pages: 1 -->
<svg width="856pt" height="274pt"
 viewBox="0.00 0.00 856.00 274.00" xmlns="http://www.w3.org/2000/svg" xmlns:xlink="http://www.w3.org/1999/xlink">
<g id="graph0" class="graph" transform="scale(1 1) rotate(0) translate(4 270)">
<title>include/biblioteca/arquivos.hpp</title>
<polygon fill="white" stroke="transparent" points="-4,4 -4,-270 852,-270 852,4 -4,4"/>
<!-- Node1 -->
<g id="node1" class="node">
<title>Node1</title>
<g id="a_node1"><a xlink:title="Classe assistente para facilitar a manipulação de arquivos.">
<polygon fill="#bfbfbf" stroke="black" points="473,-235.5 473,-265.5 576,-265.5 576,-235.5 473,-235.5"/>
<text text-anchor="start" x="481" y="-253.5" font-family="Helvetica,sans-Serif" font-size="10.00">include/biblioteca</text>
<text text-anchor="middle" x="524.5" y="-242.5" font-family="Helvetica,sans-Serif" font-size="10.00">/arquivos.hpp</text>
</a>
</g>
</g>
<!-- Node2 -->
<g id="node2" class="node">
<title>Node2</title>
<g id="a_node2"><a xlink:href="usuario_8hpp.html" target="_top" xlink:title="Classe do usuario.">
<polygon fill="white" stroke="black" points="500,-179.5 500,-198.5 655,-198.5 655,-179.5 500,-179.5"/>
<text text-anchor="middle" x="577.5" y="-186.5" font-family="Helvetica,sans-Serif" font-size="10.00">include/pessoas/usuario.hpp</text>
</a>
</g>
</g>
<!-- Node1&#45;&gt;Node2 -->
<g id="edge1" class="edge">
<title>Node1&#45;&gt;Node2</title>
<path fill="none" stroke="midnightblue" d="M543.92,-227.7C552.88,-217.64 563.02,-206.26 569.79,-198.66"/>
<polygon fill="midnightblue" stroke="midnightblue" points="541.1,-225.6 537.06,-235.4 546.33,-230.26 541.1,-225.6"/>
</g>
<!-- Node3 -->
<g id="node3" class="node">
<title>Node3</title>
<g id="a_node3"><a xlink:href="biblioteca_8hpp.html" target="_top" xlink:title="Classe responsável por armazenar os livros existentes, adicionar e remover livros,...">
<polygon fill="white" stroke="black" points="320,-112.5 320,-142.5 423,-142.5 423,-112.5 320,-112.5"/>
<text text-anchor="start" x="328" y="-130.5" font-family="Helvetica,sans-Serif" font-size="10.00">include/biblioteca</text>
<text text-anchor="middle" x="371.5" y="-119.5" font-family="Helvetica,sans-Serif" font-size="10.00">/biblioteca.hpp</text>
</a>
</g>
</g>
<!-- Node1&#45;&gt;Node3 -->
<g id="edge15" class="edge">
<title>Node1&#45;&gt;Node3</title>
<path fill="none" stroke="midnightblue" d="M498.44,-228.89C467.32,-204.28 416.12,-163.78 389.24,-142.53"/>
<polygon fill="midnightblue" stroke="midnightblue" points="496.63,-231.93 506.65,-235.38 500.98,-226.43 496.63,-231.93"/>
</g>
<!-- Node8 -->
<g id="node8" class="node">
<title>Node8</title>
<g id="a_node8"><a xlink:href="sistema_8hpp.html" target="_top" xlink:title="Classe responsável por armazenar o histórico de livros.">
<polygon fill="white" stroke="black" points="445,-112.5 445,-142.5 548,-142.5 548,-112.5 445,-112.5"/>
<text text-anchor="start" x="453" y="-130.5" font-family="Helvetica,sans-Serif" font-size="10.00">include/biblioteca</text>
<text text-anchor="middle" x="496.5" y="-119.5" font-family="Helvetica,sans-Serif" font-size="10.00">/sistema.hpp</text>
</a>
</g>
</g>
<!-- Node1&#45;&gt;Node8 -->
<g id="edge16" class="edge">
<title>Node1&#45;&gt;Node8</title>
<path fill="none" stroke="midnightblue" d="M505.35,-227.22C499.38,-218.92 493.57,-209.05 490.5,-199 484.73,-180.08 488.59,-157.08 492.25,-142.61"/>
<polygon fill="midnightblue" stroke="midnightblue" points="502.65,-229.45 511.51,-235.25 508.2,-225.19 502.65,-229.45"/>
</g>
<!-- Node13 -->
<g id="node13" class="node">
<title>Node13</title>
<g id="a_node13"><a xlink:href="arquivos_8cpp.html" target="_top" xlink:title=" ">
<polygon fill="white" stroke="black" points="673,-179.5 673,-198.5 820,-198.5 820,-179.5 673,-179.5"/>
<text text-anchor="middle" x="746.5" y="-186.5" font-family="Helvetica,sans-Serif" font-size="10.00">src/biblioteca/arquivos.cpp</text>
</a>
</g>
</g>
<!-- Node1&#45;&gt;Node13 -->
<g id="edge17" class="edge">
<title>Node1&#45;&gt;Node13</title>
<path fill="none" stroke="midnightblue" d="M586.06,-233C627.75,-221.83 681.15,-207.52 714.6,-198.55"/>
<polygon fill="midnightblue" stroke="midnightblue" points="585.02,-229.66 576.27,-235.62 586.83,-236.42 585.02,-229.66"/>
</g>
<!-- Node2&#45;&gt;Node3 -->
<g id="edge2" class="edge">
<title>Node2&#45;&gt;Node3</title>
<path fill="none" stroke="midnightblue" d="M538.06,-176.61C504.46,-166.9 456.03,-152.92 420.05,-142.52"/>
<polygon fill="midnightblue" stroke="midnightblue" points="537.41,-180.06 547.99,-179.48 539.35,-173.34 537.41,-180.06"/>
</g>
<!-- Node2&#45;&gt;Node8 -->
<g id="edge7" class="edge">
<title>Node2&#45;&gt;Node8</title>
<path fill="none" stroke="midnightblue" d="M557.72,-173.47C544.89,-164.05 528.27,-151.84 515.59,-142.52"/>
<polygon fill="midnightblue" stroke="midnightblue" points="555.76,-176.38 565.89,-179.48 559.91,-170.73 555.76,-176.38"/>
</g>
<!-- Node11 -->
<g id="node11" class="node">
<title>Node11</title>
<g id="a_node11"><a xlink:href="usuario_8cpp.html" target="_top" xlink:title=" ">
<polygon fill="white" stroke="black" points="715,-118 715,-137 848,-137 848,-118 715,-118"/>
<text text-anchor="middle" x="781.5" y="-125" font-family="Helvetica,sans-Serif" font-size="10.00">src/pessoas/usuario.cpp</text>
</a>
</g>
</g>
<!-- Node2&#45;&gt;Node11 -->
<g id="edge12" class="edge">
<title>Node2&#45;&gt;Node11</title>
<path fill="none" stroke="midnightblue" d="M616.58,-176.6C656.22,-165.04 716.68,-147.41 752.33,-137.01"/>
<polygon fill="midnightblue" stroke="midnightblue" points="615.35,-173.32 606.73,-179.48 617.31,-180.04 615.35,-173.32"/>
</g>
<!-- Node12 -->
<g id="node12" class="node">
<title>Node12</title>
<g id="a_node12"><a xlink:href="teste__usuario_8hpp.html" target="_top" xlink:title=" ">
<polygon fill="white" stroke="black" points="566,-118 566,-137 697,-137 697,-118 566,-118"/>
<text text-anchor="middle" x="631.5" y="-125" font-family="Helvetica,sans-Serif" font-size="10.00">tests/teste_usuario.hpp</text>
</a>
</g>
</g>
<!-- Node2&#45;&gt;Node12 -->
<g id="edge13" class="edge">
<title>Node2&#45;&gt;Node12</title>
<path fill="none" stroke="midnightblue" d="M592.02,-172C602.24,-160.74 615.52,-146.1 623.78,-137.01"/>
<polygon fill="midnightblue" stroke="midnightblue" points="589.37,-169.72 585.24,-179.48 594.55,-174.42 589.37,-169.72"/>
</g>
<!-- Node4 -->
<g id="node4" class="node">
<title>Node4</title>
<g id="a_node4"><a xlink:href="biblioteca_8cpp.html" target="_top" xlink:title=" ">
<polygon fill="white" stroke="black" points="0,-56.5 0,-75.5 153,-75.5 153,-56.5 0,-56.5"/>
<text text-anchor="middle" x="76.5" y="-63.5" font-family="Helvetica,sans-Serif" font-size="10.00">src/biblioteca/biblioteca.cpp</text>
</a>
</g>
</g>
<!-- Node3&#45;&gt;Node4 -->
<g id="edge3" class="edge">
<title>Node3&#45;&gt;Node4</title>
<path fill="none" stroke="midnightblue" d="M309.78,-114.05C252.62,-102.52 169.12,-85.68 119.07,-75.59"/>
<polygon fill="midnightblue" stroke="midnightblue" points="309.28,-117.52 319.78,-116.07 310.67,-110.66 309.28,-117.52"/>
</g>
<!-- Node5 -->
<g id="node5" class="node">
<title>Node5</title>
<g id="a_node5"><a xlink:href="main_8cpp.html" target="_top" xlink:title=" ">
<polygon fill="white" stroke="black" points="332,-56.5 332,-75.5 411,-75.5 411,-56.5 332,-56.5"/>
<text text-anchor="middle" x="371.5" y="-63.5" font-family="Helvetica,sans-Serif" font-size="10.00">src/main.cpp</text>
</a>
</g>
</g>
<!-- Node3&#45;&gt;Node5 -->
<g id="edge4" class="edge">
<title>Node3&#45;&gt;Node5</title>
<path fill="none" stroke="midnightblue" d="M371.5,-102.29C371.5,-92.86 371.5,-82.65 371.5,-75.66"/>
<polygon fill="midnightblue" stroke="midnightblue" points="368,-102.4 371.5,-112.4 375,-102.4 368,-102.4"/>
</g>
<!-- Node6 -->
<g id="node6" class="node">
<title>Node6</title>
<g id="a_node6"><a xlink:href="teste__biblioteca_8hpp.html" target="_top" xlink:title=" ">
<polygon fill="white" stroke="black" points="171,-56.5 171,-75.5 314,-75.5 314,-56.5 171,-56.5"/>
<text text-anchor="middle" x="242.5" y="-63.5" font-family="Helvetica,sans-Serif" font-size="10.00">tests/teste_biblioteca.hpp</text>
</a>
</g>
</g>
<!-- Node3&#45;&gt;Node6 -->
<g id="edge5" class="edge">
<title>Node3&#45;&gt;Node6</title>
<path fill="none" stroke="midnightblue" d="M331.57,-108.08C308.14,-97.28 279.62,-84.12 261.27,-75.66"/>
<polygon fill="midnightblue" stroke="midnightblue" points="330.38,-111.39 340.93,-112.4 333.31,-105.03 330.38,-111.39"/>
</g>
<!-- Node7 -->
<g id="node7" class="node">
<title>Node7</title>
<g id="a_node7"><a xlink:href="teste_8cpp.html" target="_top" xlink:title=" ">
<polygon fill="white" stroke="black" points="614,-0.5 614,-19.5 703,-19.5 703,-0.5 614,-0.5"/>
<text text-anchor="middle" x="658.5" y="-7.5" font-family="Helvetica,sans-Serif" font-size="10.00">tests/teste.cpp</text>
</a>
</g>
</g>
<!-- Node6&#45;&gt;Node7 -->
<g id="edge6" class="edge">
<title>Node6&#45;&gt;Node7</title>
<path fill="none" stroke="midnightblue" d="M318.44,-55.14C404.94,-43.91 543.41,-25.94 614,-16.78"/>
<polygon fill="midnightblue" stroke="midnightblue" points="317.88,-51.69 308.42,-56.44 318.78,-58.63 317.88,-51.69"/>
</g>
<!-- Node8&#45;&gt;Node5 -->
<g id="edge9" class="edge">
<title>Node8&#45;&gt;Node5</title>
<path fill="none" stroke="midnightblue" d="M457.81,-108.08C435.11,-97.28 407.47,-84.12 389.69,-75.66"/>
<polygon fill="midnightblue" stroke="midnightblue" points="456.34,-111.26 466.88,-112.4 459.35,-104.94 456.34,-111.26"/>
</g>
<!-- Node9 -->
<g id="node9" class="node">
<title>Node9</title>
<g id="a_node9"><a xlink:href="sistema_8cpp.html" target="_top" xlink:title=" ">
<polygon fill="white" stroke="black" points="429.5,-56.5 429.5,-75.5 573.5,-75.5 573.5,-56.5 429.5,-56.5"/>
<text text-anchor="middle" x="501.5" y="-63.5" font-family="Helvetica,sans-Serif" font-size="10.00">src/biblioteca/sistema.cpp</text>
</a>
</g>
</g>
<!-- Node8&#45;&gt;Node9 -->
<g id="edge8" class="edge">
<title>Node8&#45;&gt;Node9</title>
<path fill="none" stroke="midnightblue" d="M498.53,-102.29C499.33,-92.86 500.18,-82.65 500.77,-75.66"/>
<polygon fill="midnightblue" stroke="midnightblue" points="495.03,-102.14 497.68,-112.4 502.01,-102.73 495.03,-102.14"/>
</g>
<!-- Node10 -->
<g id="node10" class="node">
<title>Node10</title>
<g id="a_node10"><a xlink:href="teste__sistema_8hpp.html" target="_top" xlink:title=" ">
<polygon fill="white" stroke="black" points="591.5,-56.5 591.5,-75.5 725.5,-75.5 725.5,-56.5 591.5,-56.5"/>
<text text-anchor="middle" x="658.5" y="-63.5" font-family="Helvetica,sans-Serif" font-size="10.00">tests/teste_sistema.hpp</text>
</a>
</g>
</g>
<!-- Node8&#45;&gt;Node10 -->
<g id="edge10" class="edge">
<title>Node8&#45;&gt;Node10</title>
<path fill="none" stroke="midnightblue" d="M544.3,-108.94C574.15,-97.98 611.27,-84.35 634.93,-75.66"/>
<polygon fill="midnightblue" stroke="midnightblue" points="543.07,-105.67 534.89,-112.4 545.49,-112.24 543.07,-105.67"/>
</g>
<!-- Node10&#45;&gt;Node7 -->
<g id="edge11" class="edge">
<title>Node10&#45;&gt;Node7</title>
<path fill="none" stroke="midnightblue" d="M658.5,-45.8C658.5,-36.91 658.5,-26.78 658.5,-19.75"/>
<polygon fill="midnightblue" stroke="midnightblue" points="655,-46.08 658.5,-56.08 662,-46.08 655,-46.08"/>
</g>
<!-- Node12&#45;&gt;Node7 -->
<g id="edge14" class="edge">
<title>Node12&#45;&gt;Node7</title>
<path fill="none" stroke="midnightblue" d="M680.82,-114.73C701.1,-107.19 722.58,-95.11 734.5,-76 750.11,-50.95 711.48,-30.51 683.75,-19.6"/>
<polygon fill="midnightblue" stroke="midnightblue" points="679.65,-111.43 671.32,-117.97 681.91,-118.05 679.65,-111.43"/>
</g>
</g>
</svg>
