<?xml version="1.0" encoding="UTF-8" standalone="no"?>
<!DOCTYPE svg PUBLIC "-//W3C//DTD SVG 1.1//EN"
 "http://www.w3.org/Graphics/SVG/1.1/DTD/svg11.dtd">
<!-- Generated by graphviz version 2.43.0 (0)
 -->
<!-- Title: src/biblioteca/arquivos.cpp Pages: 1 -->
<svg width="521pt" height="207pt"
 viewBox="0.00 0.00 521.00 207.00" xmlns="http://www.w3.org/2000/svg" xmlns:xlink="http://www.w3.org/1999/xlink">
<g id="graph0" class="graph" transform="scale(1 1) rotate(0) translate(4 203)">
<title>src/biblioteca/arquivos.cpp</title>
<polygon fill="white" stroke="transparent" points="-4,4 -4,-203 517,-203 517,4 -4,4"/>
<!-- Node1 -->
<g id="node1" class="node">
<title>Node1</title>
<g id="a_node1"><a xlink:title=" ">
<polygon fill="#bfbfbf" stroke="black" points="190.5,-179.5 190.5,-198.5 337.5,-198.5 337.5,-179.5 190.5,-179.5"/>
<text text-anchor="middle" x="264" y="-186.5" font-family="Helvetica,sans-Serif" font-size="10.00">src/biblioteca/arquivos.cpp</text>
</a>
</g>
</g>
<!-- Node2 -->
<g id="node2" class="node">
<title>Node2</title>
<g id="a_node2"><a xlink:href="arquivos_8hpp.html" target="_top" xlink:title="Classe assistente para facilitar a manipulação de arquivos.">
<polygon fill="white" stroke="black" points="203.5,-112.5 203.5,-142.5 324.5,-142.5 324.5,-112.5 203.5,-112.5"/>
<text text-anchor="start" x="211.5" y="-130.5" font-family="Helvetica,sans-Serif" font-size="10.00">../../include/biblioteca</text>
<text text-anchor="middle" x="264" y="-119.5" font-family="Helvetica,sans-Serif" font-size="10.00">/arquivos.hpp</text>
</a>
</g>
</g>
<!-- Node1&#45;&gt;Node2 -->
<g id="edge1" class="edge">
<title>Node1&#45;&gt;Node2</title>
<path fill="none" stroke="midnightblue" d="M264,-179.48C264,-172.47 264,-162.19 264,-152.7"/>
<polygon fill="midnightblue" stroke="midnightblue" points="267.5,-152.52 264,-142.52 260.5,-152.52 267.5,-152.52"/>
</g>
<!-- Node3 -->
<g id="node3" class="node">
<title>Node3</title>
<g id="a_node3"><a xlink:title=" ">
<polygon fill="white" stroke="#bfbfbf" points="0,-0.5 0,-19.5 60,-19.5 60,-0.5 0,-0.5"/>
<text text-anchor="middle" x="30" y="-7.5" font-family="Helvetica,sans-Serif" font-size="10.00">iostream</text>
</a>
</g>
</g>
<!-- Node2&#45;&gt;Node3 -->
<g id="edge2" class="edge">
<title>Node2&#45;&gt;Node3</title>
<path fill="none" stroke="midnightblue" d="M203.29,-119.59C146.76,-111.92 67.99,-97.69 46,-76 33.86,-64.02 30.38,-44.41 29.62,-29.86"/>
<polygon fill="midnightblue" stroke="midnightblue" points="33.12,-29.47 29.48,-19.52 26.12,-29.56 33.12,-29.47"/>
</g>
<!-- Node4 -->
<g id="node4" class="node">
<title>Node4</title>
<g id="a_node4"><a xlink:title=" ">
<polygon fill="white" stroke="#bfbfbf" points="154,-0.5 154,-19.5 198,-19.5 198,-0.5 154,-0.5"/>
<text text-anchor="middle" x="176" y="-7.5" font-family="Helvetica,sans-Serif" font-size="10.00">string</text>
</a>
</g>
</g>
<!-- Node2&#45;&gt;Node4 -->
<g id="edge3" class="edge">
<title>Node2&#45;&gt;Node4</title>
<path fill="none" stroke="midnightblue" d="M242.23,-112.5C229.43,-103.37 213.71,-90.48 203,-76 192.57,-61.89 185.34,-43.15 181.01,-29.42"/>
<polygon fill="midnightblue" stroke="midnightblue" points="184.32,-28.28 178.15,-19.67 177.61,-30.25 184.32,-28.28"/>
</g>
<!-- Node5 -->
<g id="node5" class="node">
<title>Node5</title>
<g id="a_node5"><a xlink:title=" ">
<polygon fill="white" stroke="#bfbfbf" points="211.5,-56.5 211.5,-75.5 258.5,-75.5 258.5,-56.5 211.5,-56.5"/>
<text text-anchor="middle" x="235" y="-63.5" font-family="Helvetica,sans-Serif" font-size="10.00">vector</text>
</a>
</g>
</g>
<!-- Node2&#45;&gt;Node5 -->
<g id="edge4" class="edge">
<title>Node2&#45;&gt;Node5</title>
<path fill="none" stroke="midnightblue" d="M257.13,-112.4C253.09,-104.11 247.94,-93.55 243.63,-84.71"/>
<polygon fill="midnightblue" stroke="midnightblue" points="246.75,-83.11 239.22,-75.66 240.45,-86.18 246.75,-83.11"/>
</g>
<!-- Node6 -->
<g id="node6" class="node">
<title>Node6</title>
<g id="a_node6"><a xlink:title=" ">
<polygon fill="white" stroke="#bfbfbf" points="277,-56.5 277,-75.5 309,-75.5 309,-56.5 277,-56.5"/>
<text text-anchor="middle" x="293" y="-63.5" font-family="Helvetica,sans-Serif" font-size="10.00">set</text>
</a>
</g>
</g>
<!-- Node2&#45;&gt;Node6 -->
<g id="edge5" class="edge">
<title>Node2&#45;&gt;Node6</title>
<path fill="none" stroke="midnightblue" d="M270.87,-112.4C274.91,-104.11 280.06,-93.55 284.37,-84.71"/>
<polygon fill="midnightblue" stroke="midnightblue" points="287.55,-86.18 288.78,-75.66 281.25,-83.11 287.55,-86.18"/>
</g>
<!-- Node7 -->
<g id="node7" class="node">
<title>Node7</title>
<g id="a_node7"><a xlink:title=" ">
<polygon fill="white" stroke="#bfbfbf" points="327,-56.5 327,-75.5 365,-75.5 365,-56.5 327,-56.5"/>
<text text-anchor="middle" x="346" y="-63.5" font-family="Helvetica,sans-Serif" font-size="10.00">map</text>
</a>
</g>
</g>
<!-- Node2&#45;&gt;Node7 -->
<g id="edge6" class="edge">
<title>Node2&#45;&gt;Node7</title>
<path fill="none" stroke="midnightblue" d="M283.43,-112.4C296.21,-103.13 312.89,-91.03 325.81,-81.65"/>
<polygon fill="midnightblue" stroke="midnightblue" points="328.03,-84.36 334.07,-75.66 323.92,-78.7 328.03,-84.36"/>
</g>
<!-- Node8 -->
<g id="node8" class="node">
<title>Node8</title>
<g id="a_node8"><a xlink:title=" ">
<polygon fill="white" stroke="#bfbfbf" points="383.5,-56.5 383.5,-75.5 438.5,-75.5 438.5,-56.5 383.5,-56.5"/>
<text text-anchor="middle" x="411" y="-63.5" font-family="Helvetica,sans-Serif" font-size="10.00">fstream</text>
</a>
</g>
</g>
<!-- Node2&#45;&gt;Node8 -->
<g id="edge7" class="edge">
<title>Node2&#45;&gt;Node8</title>
<path fill="none" stroke="midnightblue" d="M298.84,-112.4C323.5,-102.42 356.29,-89.15 380.03,-79.53"/>
<polygon fill="midnightblue" stroke="midnightblue" points="381.65,-82.65 389.61,-75.66 379.03,-76.17 381.65,-82.65"/>
</g>
<!-- Node9 -->
<g id="node9" class="node">
<title>Node9</title>
<g id="a_node9"><a xlink:title=" ">
<polygon fill="white" stroke="#bfbfbf" points="457,-56.5 457,-75.5 513,-75.5 513,-56.5 457,-56.5"/>
<text text-anchor="middle" x="485" y="-63.5" font-family="Helvetica,sans-Serif" font-size="10.00">sstream</text>
</a>
</g>
</g>
<!-- Node2&#45;&gt;Node9 -->
<g id="edge8" class="edge">
<title>Node2&#45;&gt;Node9</title>
<path fill="none" stroke="midnightblue" d="M316.09,-112.47C356.34,-101.64 411.08,-86.9 447.2,-77.18"/>
<polygon fill="midnightblue" stroke="midnightblue" points="448.12,-80.55 456.87,-74.57 446.3,-73.79 448.12,-80.55"/>
</g>
<!-- Node10 -->
<g id="node10" class="node">
<title>Node10</title>
<g id="a_node10"><a xlink:href="erros_8hpp.html" target="_top" xlink:title="Classes de tratamento de exceções.">
<polygon fill="white" stroke="black" points="55.5,-56.5 55.5,-75.5 154.5,-75.5 154.5,-56.5 55.5,-56.5"/>
<text text-anchor="middle" x="105" y="-63.5" font-family="Helvetica,sans-Serif" font-size="10.00">../erros/erros.hpp</text>
</a>
</g>
</g>
<!-- Node2&#45;&gt;Node10 -->
<g id="edge9" class="edge">
<title>Node2&#45;&gt;Node10</title>
<path fill="none" stroke="midnightblue" d="M226.32,-112.4C199.4,-102.33 163.55,-88.91 137.81,-79.28"/>
<polygon fill="midnightblue" stroke="midnightblue" points="138.73,-75.88 128.14,-75.66 136.27,-82.44 138.73,-75.88"/>
</g>
<!-- Node10&#45;&gt;Node3 -->
<g id="edge10" class="edge">
<title>Node10&#45;&gt;Node3</title>
<path fill="none" stroke="midnightblue" d="M92.95,-56.32C81.54,-48.11 64.17,-35.6 50.57,-25.81"/>
<polygon fill="midnightblue" stroke="midnightblue" points="52.43,-22.84 42.27,-19.83 48.34,-28.52 52.43,-22.84"/>
</g>
<!-- Node10&#45;&gt;Node4 -->
<g id="edge11" class="edge">
<title>Node10&#45;&gt;Node4</title>
<path fill="none" stroke="midnightblue" d="M116.41,-56.32C127.11,-48.18 143.34,-35.84 156.16,-26.09"/>
<polygon fill="midnightblue" stroke="midnightblue" points="158.54,-28.67 164.39,-19.83 154.31,-23.1 158.54,-28.67"/>
</g>
<!-- Node11 -->
<g id="node11" class="node">
<title>Node11</title>
<g id="a_node11"><a xlink:title=" ">
<polygon fill="white" stroke="#bfbfbf" points="80,-0.5 80,-19.5 130,-19.5 130,-0.5 80,-0.5"/>
<text text-anchor="middle" x="105" y="-7.5" font-family="Helvetica,sans-Serif" font-size="10.00">cstring</text>
</a>
</g>
</g>
<!-- Node10&#45;&gt;Node11 -->
<g id="edge12" class="edge">
<title>Node10&#45;&gt;Node11</title>
<path fill="none" stroke="midnightblue" d="M105,-56.08C105,-49.01 105,-38.86 105,-29.99"/>
<polygon fill="midnightblue" stroke="midnightblue" points="108.5,-29.75 105,-19.75 101.5,-29.75 108.5,-29.75"/>
</g>
</g>
</svg>
