<?xml version="1.0" encoding="UTF-8" standalone="no"?>
<!DOCTYPE svg PUBLIC "-//W3C//DTD SVG 1.1//EN"
 "http://www.w3.org/Graphics/SVG/1.1/DTD/svg11.dtd">
<!-- Generated by graphviz version 2.43.0 (0)
 -->
<!-- Title: src/biblioteca/biblioteca.cpp Pages: 1 -->
<svg width="820pt" height="319pt"
 viewBox="0.00 0.00 820.25 319.00" xmlns="http://www.w3.org/2000/svg" xmlns:xlink="http://www.w3.org/1999/xlink">
<g id="graph0" class="graph" transform="scale(1 1) rotate(0) translate(4 315)">
<title>src/biblioteca/biblioteca.cpp</title>
<polygon fill="white" stroke="transparent" points="-4,4 -4,-315 816.25,-315 816.25,4 -4,4"/>
<!-- Node1 -->
<g id="node1" class="node">
<title>Node1</title>
<g id="a_node1"><a xlink:title=" ">
<polygon fill="#bfbfbf" stroke="black" points="424.85,-291.5 424.85,-310.5 577.85,-310.5 577.85,-291.5 424.85,-291.5"/>
<text text-anchor="middle" x="501.35" y="-298.5" font-family="Helvetica,sans-Serif" font-size="10.00">src/biblioteca/biblioteca.cpp</text>
</a>
</g>
</g>
<!-- Node2 -->
<g id="node2" class="node">
<title>Node2</title>
<g id="a_node2"><a xlink:href="biblioteca_8hpp.html" target="_top" xlink:title="Classe responsável por armazenar os livros existentes, adicionar e remover livros,...">
<polygon fill="white" stroke="black" points="440.85,-224.5 440.85,-254.5 561.85,-254.5 561.85,-224.5 440.85,-224.5"/>
<text text-anchor="start" x="448.85" y="-242.5" font-family="Helvetica,sans-Serif" font-size="10.00">../../include/biblioteca</text>
<text text-anchor="middle" x="501.35" y="-231.5" font-family="Helvetica,sans-Serif" font-size="10.00">/biblioteca.hpp</text>
</a>
</g>
</g>
<!-- Node1&#45;&gt;Node2 -->
<g id="edge1" class="edge">
<title>Node1&#45;&gt;Node2</title>
<path fill="none" stroke="midnightblue" d="M501.35,-291.48C501.35,-284.47 501.35,-274.19 501.35,-264.7"/>
<polygon fill="midnightblue" stroke="midnightblue" points="504.85,-264.52 501.35,-254.52 497.85,-264.52 504.85,-264.52"/>
</g>
<!-- Node3 -->
<g id="node3" class="node">
<title>Node3</title>
<g id="a_node3"><a xlink:href="livro_8hpp.html" target="_top" xlink:title="Classe do objeto Livro.">
<polygon fill="white" stroke="black" points="74.85,-112.5 74.85,-131.5 167.85,-131.5 167.85,-112.5 74.85,-112.5"/>
<text text-anchor="middle" x="121.35" y="-119.5" font-family="Helvetica,sans-Serif" font-size="10.00">../livro/livro.hpp</text>
</a>
</g>
</g>
<!-- Node2&#45;&gt;Node3 -->
<g id="edge2" class="edge">
<title>Node2&#45;&gt;Node3</title>
<path fill="none" stroke="midnightblue" d="M440.82,-233.61C361.15,-226.39 226.08,-211.16 182.35,-188 161.29,-176.84 143.49,-155.58 132.65,-140.41"/>
<polygon fill="midnightblue" stroke="midnightblue" points="135.37,-138.18 126.84,-131.9 129.59,-142.13 135.37,-138.18"/>
</g>
<!-- Node4 -->
<g id="node4" class="node">
<title>Node4</title>
<g id="a_node4"><a xlink:title=" ">
<polygon fill="white" stroke="#bfbfbf" points="106.35,-0.5 106.35,-19.5 166.35,-19.5 166.35,-0.5 106.35,-0.5"/>
<text text-anchor="middle" x="136.35" y="-7.5" font-family="Helvetica,sans-Serif" font-size="10.00">iostream</text>
</a>
</g>
</g>
<!-- Node2&#45;&gt;Node4 -->
<g id="edge37" class="edge">
<title>Node2&#45;&gt;Node4</title>
<path fill="none" stroke="midnightblue" d="M440.6,-236.72C340.03,-232.86 144.11,-221.21 84.35,-188 26.13,-155.64 -24.81,-110.6 13.35,-56 31.92,-29.44 67.93,-18.51 96.21,-14.03"/>
<polygon fill="midnightblue" stroke="midnightblue" points="96.8,-17.48 106.23,-12.66 95.85,-10.55 96.8,-17.48"/>
</g>
<!-- Node5 -->
<g id="node5" class="node">
<title>Node5</title>
<g id="a_node5"><a xlink:title=" ">
<polygon fill="white" stroke="#bfbfbf" points="22.85,-56.5 22.85,-75.5 69.85,-75.5 69.85,-56.5 22.85,-56.5"/>
<text text-anchor="middle" x="46.35" y="-63.5" font-family="Helvetica,sans-Serif" font-size="10.00">vector</text>
</a>
</g>
</g>
<!-- Node2&#45;&gt;Node5 -->
<g id="edge38" class="edge">
<title>Node2&#45;&gt;Node5</title>
<path fill="none" stroke="midnightblue" d="M440.78,-236.1C370.18,-231.86 250.74,-220.17 153.35,-188 103.51,-171.53 77.31,-176.44 49.35,-132 40.8,-118.4 40.82,-99.86 42.53,-86.06"/>
<polygon fill="midnightblue" stroke="midnightblue" points="46.05,-86.23 44.22,-75.79 39.15,-85.09 46.05,-86.23"/>
</g>
<!-- Node6 -->
<g id="node6" class="node">
<title>Node6</title>
<g id="a_node6"><a xlink:title=" ">
<polygon fill="white" stroke="#bfbfbf" points="346.35,-0.5 346.35,-19.5 390.35,-19.5 390.35,-0.5 346.35,-0.5"/>
<text text-anchor="middle" x="368.35" y="-7.5" font-family="Helvetica,sans-Serif" font-size="10.00">string</text>
</a>
</g>
</g>
<!-- Node2&#45;&gt;Node6 -->
<g id="edge42" class="edge">
<title>Node2&#45;&gt;Node6</title>
<path fill="none" stroke="midnightblue" d="M562.12,-231.56C623.37,-223.54 712.71,-208.74 740.35,-188 791.19,-149.86 837.87,-103.24 795.35,-56 769.03,-26.76 495.73,-15.14 400.7,-11.97"/>
<polygon fill="midnightblue" stroke="midnightblue" points="400.64,-8.46 390.54,-11.64 400.42,-15.46 400.64,-8.46"/>
</g>
<!-- Node7 -->
<g id="node7" class="node">
<title>Node7</title>
<g id="a_node7"><a xlink:href="usuario_8hpp.html" target="_top" xlink:title="Classe do usuario.">
<polygon fill="white" stroke="black" points="548.85,-168.5 548.85,-187.5 673.85,-187.5 673.85,-168.5 548.85,-168.5"/>
<text text-anchor="middle" x="611.35" y="-175.5" font-family="Helvetica,sans-Serif" font-size="10.00">../pessoas/usuario.hpp</text>
</a>
</g>
</g>
<!-- Node2&#45;&gt;Node7 -->
<g id="edge6" class="edge">
<title>Node2&#45;&gt;Node7</title>
<path fill="none" stroke="midnightblue" d="M527.42,-224.4C545.22,-214.77 568.67,-202.09 586.25,-192.58"/>
<polygon fill="midnightblue" stroke="midnightblue" points="588.22,-195.49 595.35,-187.66 584.89,-189.34 588.22,-195.49"/>
</g>
<!-- Node9 -->
<g id="node9" class="node">
<title>Node9</title>
<g id="a_node9"><a xlink:href="erros_8hpp.html" target="_top" xlink:title="Classes de tratamento de exceções.">
<polygon fill="white" stroke="black" points="240.85,-56.5 240.85,-75.5 339.85,-75.5 339.85,-56.5 240.85,-56.5"/>
<text text-anchor="middle" x="290.35" y="-63.5" font-family="Helvetica,sans-Serif" font-size="10.00">../erros/erros.hpp</text>
</a>
</g>
</g>
<!-- Node2&#45;&gt;Node9 -->
<g id="edge35" class="edge">
<title>Node2&#45;&gt;Node9</title>
<path fill="none" stroke="midnightblue" d="M440.62,-236.38C371.48,-230.24 262.08,-208.23 215.35,-132 201.72,-109.76 230.45,-91.09 256.2,-79.55"/>
<polygon fill="midnightblue" stroke="midnightblue" points="257.62,-82.74 265.47,-75.62 254.89,-76.3 257.62,-82.74"/>
</g>
<!-- Node11 -->
<g id="node11" class="node">
<title>Node11</title>
<g id="a_node11"><a xlink:href="arquivos_8hpp.html" target="_top" xlink:title="Classe assistente para facilitar a manipulação de arquivos.">
<polygon fill="white" stroke="black" points="314.35,-112.5 314.35,-131.5 454.35,-131.5 454.35,-112.5 314.35,-112.5"/>
<text text-anchor="middle" x="384.35" y="-119.5" font-family="Helvetica,sans-Serif" font-size="10.00">../biblioteca/arquivos.hpp</text>
</a>
</g>
</g>
<!-- Node2&#45;&gt;Node11 -->
<g id="edge36" class="edge">
<title>Node2&#45;&gt;Node11</title>
<path fill="none" stroke="midnightblue" d="M496.44,-224.33C490.54,-208.95 479.39,-184.41 463.35,-168 450.02,-154.35 431.66,-143.55 415.99,-135.96"/>
<polygon fill="midnightblue" stroke="midnightblue" points="417.2,-132.67 406.66,-131.65 414.27,-139.02 417.2,-132.67"/>
</g>
<!-- Node12 -->
<g id="node12" class="node">
<title>Node12</title>
<g id="a_node12"><a xlink:title=" ">
<polygon fill="white" stroke="#bfbfbf" points="504.35,-56.5 504.35,-75.5 536.35,-75.5 536.35,-56.5 504.35,-56.5"/>
<text text-anchor="middle" x="520.35" y="-63.5" font-family="Helvetica,sans-Serif" font-size="10.00">set</text>
</a>
</g>
</g>
<!-- Node2&#45;&gt;Node12 -->
<g id="edge39" class="edge">
<title>Node2&#45;&gt;Node12</title>
<path fill="none" stroke="midnightblue" d="M502.91,-224.47C506.32,-193.7 514.45,-120.33 518.28,-85.7"/>
<polygon fill="midnightblue" stroke="midnightblue" points="521.78,-85.88 519.41,-75.56 514.83,-85.11 521.78,-85.88"/>
</g>
<!-- Node13 -->
<g id="node13" class="node">
<title>Node13</title>
<g id="a_node13"><a xlink:title=" ">
<polygon fill="white" stroke="#bfbfbf" points="748.35,-56.5 748.35,-75.5 786.35,-75.5 786.35,-56.5 748.35,-56.5"/>
<text text-anchor="middle" x="767.35" y="-63.5" font-family="Helvetica,sans-Serif" font-size="10.00">map</text>
</a>
</g>
</g>
<!-- Node2&#45;&gt;Node13 -->
<g id="edge40" class="edge">
<title>Node2&#45;&gt;Node13</title>
<path fill="none" stroke="midnightblue" d="M561.93,-230.73C617.67,-222.49 695.09,-207.89 718.35,-188 749.41,-161.45 761.02,-112.3 765.18,-85.54"/>
<polygon fill="midnightblue" stroke="midnightblue" points="768.65,-85.95 766.54,-75.57 761.72,-85.01 768.65,-85.95"/>
</g>
<!-- Node14 -->
<g id="node14" class="node">
<title>Node14</title>
<g id="a_node14"><a xlink:title=" ">
<polygon fill="white" stroke="#bfbfbf" points="580.85,-56.5 580.85,-75.5 635.85,-75.5 635.85,-56.5 580.85,-56.5"/>
<text text-anchor="middle" x="608.35" y="-63.5" font-family="Helvetica,sans-Serif" font-size="10.00">fstream</text>
</a>
</g>
</g>
<!-- Node2&#45;&gt;Node14 -->
<g id="edge41" class="edge">
<title>Node2&#45;&gt;Node14</title>
<path fill="none" stroke="midnightblue" d="M561.94,-229.68C608.94,-221.46 668.52,-207.51 683.35,-188 710.86,-151.83 660.17,-105.2 629.42,-81.8"/>
<polygon fill="midnightblue" stroke="midnightblue" points="631.12,-78.7 620.99,-75.58 626.96,-84.33 631.12,-78.7"/>
</g>
<!-- Node15 -->
<g id="node15" class="node">
<title>Node15</title>
<g id="a_node15"><a xlink:title=" ">
<polygon fill="white" stroke="#bfbfbf" points="664.35,-56.5 664.35,-75.5 720.35,-75.5 720.35,-56.5 664.35,-56.5"/>
<text text-anchor="middle" x="692.35" y="-63.5" font-family="Helvetica,sans-Serif" font-size="10.00">sstream</text>
</a>
</g>
</g>
<!-- Node2&#45;&gt;Node15 -->
<g id="edge43" class="edge">
<title>Node2&#45;&gt;Node15</title>
<path fill="none" stroke="midnightblue" d="M561.92,-231.3C614.02,-223.72 683.39,-209.8 700.35,-188 723.53,-158.21 710.32,-110.79 700.32,-85.05"/>
<polygon fill="midnightblue" stroke="midnightblue" points="703.53,-83.66 696.47,-75.75 697.06,-86.33 703.53,-83.66"/>
</g>
<!-- Node16 -->
<g id="node16" class="node">
<title>Node16</title>
<g id="a_node16"><a xlink:href="admin_8hpp.html" target="_top" xlink:title="Classe do administrador.">
<polygon fill="white" stroke="black" points="334.35,-168.5 334.35,-187.5 454.35,-187.5 454.35,-168.5 334.35,-168.5"/>
<text text-anchor="middle" x="394.35" y="-175.5" font-family="Helvetica,sans-Serif" font-size="10.00">../pessoas/admin.hpp</text>
</a>
</g>
</g>
<!-- Node2&#45;&gt;Node16 -->
<g id="edge28" class="edge">
<title>Node2&#45;&gt;Node16</title>
<path fill="none" stroke="midnightblue" d="M476,-224.4C458.68,-214.77 435.88,-202.09 418.77,-192.58"/>
<polygon fill="midnightblue" stroke="midnightblue" points="420.36,-189.46 409.92,-187.66 416.96,-195.58 420.36,-189.46"/>
</g>
<!-- Node3&#45;&gt;Node4 -->
<g id="edge3" class="edge">
<title>Node3&#45;&gt;Node4</title>
<path fill="none" stroke="midnightblue" d="M120.69,-112.1C119.94,-99.51 119.18,-75.84 122.35,-56 123.79,-47.01 126.62,-37.34 129.37,-29.27"/>
<polygon fill="midnightblue" stroke="midnightblue" points="132.69,-30.38 132.8,-19.78 126.1,-28 132.69,-30.38"/>
</g>
<!-- Node3&#45;&gt;Node5 -->
<g id="edge4" class="edge">
<title>Node3&#45;&gt;Node5</title>
<path fill="none" stroke="midnightblue" d="M109.3,-112.32C97.89,-104.11 80.52,-91.6 66.92,-81.81"/>
<polygon fill="midnightblue" stroke="midnightblue" points="68.78,-78.84 58.62,-75.83 64.69,-84.52 68.78,-78.84"/>
</g>
<!-- Node3&#45;&gt;Node6 -->
<g id="edge5" class="edge">
<title>Node3&#45;&gt;Node6</title>
<path fill="none" stroke="midnightblue" d="M133.87,-112.48C153.95,-99.1 194.91,-72.93 232.35,-56 266.87,-40.39 308.45,-27.43 336.47,-19.49"/>
<polygon fill="midnightblue" stroke="midnightblue" points="337.45,-22.85 346.15,-16.79 335.57,-16.11 337.45,-22.85"/>
</g>
<!-- Node7&#45;&gt;Node3 -->
<g id="edge14" class="edge">
<title>Node7&#45;&gt;Node3</title>
<path fill="none" stroke="midnightblue" d="M548.8,-170.11C452.81,-159.53 270.61,-139.45 178.19,-129.26"/>
<polygon fill="midnightblue" stroke="midnightblue" points="178.5,-125.78 168.18,-128.16 177.74,-132.73 178.5,-125.78"/>
</g>
<!-- Node8 -->
<g id="node8" class="node">
<title>Node8</title>
<g id="a_node8"><a xlink:href="pessoa_8hpp.html" target="_top" xlink:title="Classe mãe de usuario e admin.">
<polygon fill="white" stroke="black" points="224.35,-112.5 224.35,-131.5 296.35,-131.5 296.35,-112.5 224.35,-112.5"/>
<text text-anchor="middle" x="260.35" y="-119.5" font-family="Helvetica,sans-Serif" font-size="10.00">pessoa.hpp</text>
</a>
</g>
</g>
<!-- Node7&#45;&gt;Node8 -->
<g id="edge7" class="edge">
<title>Node7&#45;&gt;Node8</title>
<path fill="none" stroke="midnightblue" d="M548.79,-168.76C489.08,-160.67 396.34,-147.56 306.74,-132.17"/>
<polygon fill="midnightblue" stroke="midnightblue" points="307.12,-128.69 296.67,-130.43 305.93,-135.58 307.12,-128.69"/>
</g>
<!-- Node7&#45;&gt;Node11 -->
<g id="edge15" class="edge">
<title>Node7&#45;&gt;Node11</title>
<path fill="none" stroke="midnightblue" d="M575.39,-168.44C536.03,-159.08 472.87,-144.06 430.04,-133.87"/>
<polygon fill="midnightblue" stroke="midnightblue" points="430.69,-130.43 420.15,-131.52 429.07,-137.24 430.69,-130.43"/>
</g>
<!-- Node7&#45;&gt;Node12 -->
<g id="edge24" class="edge">
<title>Node7&#45;&gt;Node12</title>
<path fill="none" stroke="midnightblue" d="M604.21,-168.37C589.06,-150.05 553.49,-107.05 533.89,-83.36"/>
<polygon fill="midnightblue" stroke="midnightblue" points="536.53,-81.07 527.46,-75.59 531.14,-85.53 536.53,-81.07"/>
</g>
<!-- Node7&#45;&gt;Node13 -->
<g id="edge26" class="edge">
<title>Node7&#45;&gt;Node13</title>
<path fill="none" stroke="midnightblue" d="M623.59,-168.37C650.25,-149.57 713.79,-104.77 746.74,-81.53"/>
<polygon fill="midnightblue" stroke="midnightblue" points="749.01,-84.21 755.17,-75.59 744.98,-78.49 749.01,-84.21"/>
</g>
<!-- Node7&#45;&gt;Node14 -->
<g id="edge25" class="edge">
<title>Node7&#45;&gt;Node14</title>
<path fill="none" stroke="midnightblue" d="M611.3,-168.17C611.2,-155.66 610.95,-132.08 610.35,-112 610.1,-103.39 609.69,-93.87 609.31,-85.8"/>
<polygon fill="midnightblue" stroke="midnightblue" points="612.8,-85.44 608.81,-75.62 605.81,-85.78 612.8,-85.44"/>
</g>
<!-- Node7&#45;&gt;Node15 -->
<g id="edge27" class="edge">
<title>Node7&#45;&gt;Node15</title>
<path fill="none" stroke="midnightblue" d="M617.71,-168.37C631.14,-150.14 662.59,-107.43 680.07,-83.68"/>
<polygon fill="midnightblue" stroke="midnightblue" points="682.92,-85.72 686.03,-75.59 677.28,-81.57 682.92,-85.72"/>
</g>
<!-- Node8&#45;&gt;Node4 -->
<g id="edge8" class="edge">
<title>Node8&#45;&gt;Node4</title>
<path fill="none" stroke="midnightblue" d="M247.01,-112.35C234.08,-103.73 214.17,-89.83 198.35,-76 180.85,-60.7 162.71,-41.18 150.61,-27.54"/>
<polygon fill="midnightblue" stroke="midnightblue" points="153.14,-25.11 143.91,-19.9 147.87,-29.73 153.14,-25.11"/>
</g>
<!-- Node8&#45;&gt;Node6 -->
<g id="edge9" class="edge">
<title>Node8&#45;&gt;Node6</title>
<path fill="none" stroke="midnightblue" d="M291.19,-112.39C310.48,-105.51 334.41,-93.97 349.35,-76 360.27,-62.87 364.91,-43.73 366.89,-29.61"/>
<polygon fill="midnightblue" stroke="midnightblue" points="370.38,-29.9 367.97,-19.58 363.42,-29.15 370.38,-29.9"/>
</g>
<!-- Node8&#45;&gt;Node9 -->
<g id="edge10" class="edge">
<title>Node8&#45;&gt;Node9</title>
<path fill="none" stroke="midnightblue" d="M265.31,-112.08C269.46,-104.61 275.51,-93.72 280.62,-84.52"/>
<polygon fill="midnightblue" stroke="midnightblue" points="283.7,-86.19 285.49,-75.75 277.58,-82.79 283.7,-86.19"/>
</g>
<!-- Node9&#45;&gt;Node4 -->
<g id="edge11" class="edge">
<title>Node9&#45;&gt;Node4</title>
<path fill="none" stroke="midnightblue" d="M265.95,-56.44C240.16,-47.4 199.28,-33.06 170.34,-22.92"/>
<polygon fill="midnightblue" stroke="midnightblue" points="171.24,-19.52 160.64,-19.52 168.92,-26.13 171.24,-19.52"/>
</g>
<!-- Node9&#45;&gt;Node6 -->
<g id="edge12" class="edge">
<title>Node9&#45;&gt;Node6</title>
<path fill="none" stroke="midnightblue" d="M302.89,-56.32C314.94,-47.98 333.38,-35.21 347.62,-25.35"/>
<polygon fill="midnightblue" stroke="midnightblue" points="349.62,-28.22 355.85,-19.65 345.64,-22.47 349.62,-28.22"/>
</g>
<!-- Node10 -->
<g id="node10" class="node">
<title>Node10</title>
<g id="a_node10"><a xlink:title=" ">
<polygon fill="white" stroke="#bfbfbf" points="265.35,-0.5 265.35,-19.5 315.35,-19.5 315.35,-0.5 265.35,-0.5"/>
<text text-anchor="middle" x="290.35" y="-7.5" font-family="Helvetica,sans-Serif" font-size="10.00">cstring</text>
</a>
</g>
</g>
<!-- Node9&#45;&gt;Node10 -->
<g id="edge13" class="edge">
<title>Node9&#45;&gt;Node10</title>
<path fill="none" stroke="midnightblue" d="M290.35,-56.08C290.35,-49.01 290.35,-38.86 290.35,-29.99"/>
<polygon fill="midnightblue" stroke="midnightblue" points="293.85,-29.75 290.35,-19.75 286.85,-29.75 293.85,-29.75"/>
</g>
<!-- Node11&#45;&gt;Node4 -->
<g id="edge16" class="edge">
<title>Node11&#45;&gt;Node4</title>
<path fill="none" stroke="midnightblue" d="M343.43,-112.5C312.1,-105.14 268.31,-92.99 232.35,-76 216.86,-68.68 179.52,-42.35 156.24,-25.53"/>
<polygon fill="midnightblue" stroke="midnightblue" points="158.23,-22.65 148.08,-19.61 154.12,-28.31 158.23,-22.65"/>
</g>
<!-- Node11&#45;&gt;Node5 -->
<g id="edge18" class="edge">
<title>Node11&#45;&gt;Node5</title>
<path fill="none" stroke="midnightblue" d="M330.8,-112.44C260.53,-101.22 139.25,-81.84 80.38,-72.44"/>
<polygon fill="midnightblue" stroke="midnightblue" points="80.57,-68.92 70.14,-70.8 79.46,-75.83 80.57,-68.92"/>
</g>
<!-- Node11&#45;&gt;Node6 -->
<g id="edge17" class="edge">
<title>Node11&#45;&gt;Node6</title>
<path fill="none" stroke="midnightblue" d="M384.84,-112.09C385.35,-99.5 385.68,-75.82 382.35,-56 380.85,-47.02 378.01,-37.35 375.28,-29.28"/>
<polygon fill="midnightblue" stroke="midnightblue" points="378.54,-28.02 371.87,-19.79 371.95,-30.39 378.54,-28.02"/>
</g>
<!-- Node11&#45;&gt;Node9 -->
<g id="edge23" class="edge">
<title>Node11&#45;&gt;Node9</title>
<path fill="none" stroke="midnightblue" d="M369.25,-112.32C354.45,-103.82 331.66,-90.73 314.37,-80.8"/>
<polygon fill="midnightblue" stroke="midnightblue" points="315.83,-77.6 305.42,-75.65 312.35,-83.67 315.83,-77.6"/>
</g>
<!-- Node11&#45;&gt;Node12 -->
<g id="edge19" class="edge">
<title>Node11&#45;&gt;Node12</title>
<path fill="none" stroke="midnightblue" d="M405.9,-112.44C429.97,-102.89 468.91,-87.43 494.58,-77.24"/>
<polygon fill="midnightblue" stroke="midnightblue" points="496.02,-80.43 504.03,-73.48 493.44,-73.92 496.02,-80.43"/>
</g>
<!-- Node11&#45;&gt;Node13 -->
<g id="edge20" class="edge">
<title>Node11&#45;&gt;Node13</title>
<path fill="none" stroke="midnightblue" d="M454.39,-114C524.33,-106.51 634.74,-93.33 729.35,-76 732.23,-75.47 735.22,-74.87 738.19,-74.23"/>
<polygon fill="midnightblue" stroke="midnightblue" points="739.13,-77.6 748.1,-71.97 737.58,-70.78 739.13,-77.6"/>
</g>
<!-- Node11&#45;&gt;Node14 -->
<g id="edge21" class="edge">
<title>Node11&#45;&gt;Node14</title>
<path fill="none" stroke="midnightblue" d="M419.85,-112.44C461.1,-102.5 528.89,-86.16 570.95,-76.02"/>
<polygon fill="midnightblue" stroke="midnightblue" points="571.89,-79.39 580.79,-73.64 570.25,-72.58 571.89,-79.39"/>
</g>
<!-- Node11&#45;&gt;Node15 -->
<g id="edge22" class="edge">
<title>Node11&#45;&gt;Node15</title>
<path fill="none" stroke="midnightblue" d="M435.42,-112.48C488.07,-103.63 572.52,-89.25 645.35,-76 648.19,-75.48 651.12,-74.94 654.07,-74.39"/>
<polygon fill="midnightblue" stroke="midnightblue" points="654.86,-77.8 664.04,-72.51 653.56,-70.93 654.86,-77.8"/>
</g>
<!-- Node16&#45;&gt;Node3 -->
<g id="edge30" class="edge">
<title>Node16&#45;&gt;Node3</title>
<path fill="none" stroke="midnightblue" d="M351.1,-168.44C303.17,-158.96 225.88,-143.67 174.35,-133.48"/>
<polygon fill="midnightblue" stroke="midnightblue" points="174.9,-130.02 164.41,-131.52 173.54,-136.89 174.9,-130.02"/>
</g>
<!-- Node16&#45;&gt;Node5 -->
<g id="edge33" class="edge">
<title>Node16&#45;&gt;Node5</title>
<path fill="none" stroke="midnightblue" d="M334.28,-176.39C250.53,-174.31 104.55,-165.77 65.35,-132 52.15,-120.63 47.87,-100.63 46.6,-85.81"/>
<polygon fill="midnightblue" stroke="midnightblue" points="50.09,-85.54 46.12,-75.72 43.1,-85.87 50.09,-85.54"/>
</g>
<!-- Node16&#45;&gt;Node8 -->
<g id="edge29" class="edge">
<title>Node16&#45;&gt;Node8</title>
<path fill="none" stroke="midnightblue" d="M373.12,-168.44C350.97,-159.52 316.04,-145.44 290.92,-135.32"/>
<polygon fill="midnightblue" stroke="midnightblue" points="292.07,-132.01 281.49,-131.52 289.45,-138.5 292.07,-132.01"/>
</g>
<!-- Node16&#45;&gt;Node13 -->
<g id="edge31" class="edge">
<title>Node16&#45;&gt;Node13</title>
<path fill="none" stroke="midnightblue" d="M426.29,-168.49C459.22,-159.65 511.99,-145.28 557.35,-132 622.38,-112.96 698.22,-89.07 738.6,-76.21"/>
<polygon fill="midnightblue" stroke="midnightblue" points="739.84,-79.49 748.3,-73.11 737.71,-72.82 739.84,-79.49"/>
</g>
<!-- Node16&#45;&gt;Node14 -->
<g id="edge32" class="edge">
<title>Node16&#45;&gt;Node14</title>
<path fill="none" stroke="midnightblue" d="M411.15,-168.37C448.42,-149.21 538.25,-103.04 582.64,-80.22"/>
<polygon fill="midnightblue" stroke="midnightblue" points="584.35,-83.28 591.64,-75.59 581.15,-77.05 584.35,-83.28"/>
</g>
<!-- Node16&#45;&gt;Node15 -->
<g id="edge34" class="edge">
<title>Node16&#45;&gt;Node15</title>
<path fill="none" stroke="midnightblue" d="M417.74,-168.37C470.51,-148.89 598.95,-101.48 659.6,-79.09"/>
<polygon fill="midnightblue" stroke="midnightblue" points="660.91,-82.34 669.08,-75.59 658.49,-75.77 660.91,-82.34"/>
</g>
</g>
</svg>
