<?xml version="1.0" encoding="UTF-8" standalone="no"?>
<!DOCTYPE svg PUBLIC "-//W3C//DTD SVG 1.1//EN"
 "http://www.w3.org/Graphics/SVG/1.1/DTD/svg11.dtd">
<!-- Generated by graphviz version 2.43.0 (0)
 -->
<!-- Title: doctest::detail::ContextScope&lt; L &gt; Pages: 1 -->
<svg width="250pt" height="431pt"
 viewBox="0.00 0.00 249.50 431.00" xmlns="http://www.w3.org/2000/svg" xmlns:xlink="http://www.w3.org/1999/xlink">
<g id="graph0" class="graph" transform="scale(1 1) rotate(0) translate(4 427)">
<title>doctest::detail::ContextScope&lt; L &gt;</title>
<polygon fill="white" stroke="transparent" points="-4,4 -4,-427 245.5,-427 245.5,4 -4,4"/>
<!-- Node1 -->
<g id="node1" class="node">
<title>Node1</title>
<g id="a_node1"><a xlink:title=" ">
<polygon fill="#bfbfbf" stroke="black" points="50,-0.5 50,-145.5 181,-145.5 181,-0.5 50,-0.5"/>
<text text-anchor="start" x="58" y="-133.5" font-family="Helvetica,sans-Serif" font-size="10.00">doctest::detail::Context</text>
<text text-anchor="middle" x="115.5" y="-122.5" font-family="Helvetica,sans-Serif" font-size="10.00">Scope&lt; L &gt;</text>
<polyline fill="none" stroke="black" points="50,-115.5 181,-115.5 "/>
<text text-anchor="middle" x="115.5" y="-103.5" font-family="Helvetica,sans-Serif" font-size="10.00"> </text>
<polyline fill="none" stroke="black" points="50,-96.5 181,-96.5 "/>
<text text-anchor="start" x="58" y="-84.5" font-family="Helvetica,sans-Serif" font-size="10.00">+ ContextScope()</text>
<text text-anchor="start" x="58" y="-73.5" font-family="Helvetica,sans-Serif" font-size="10.00">+ ContextScope()</text>
<text text-anchor="start" x="58" y="-62.5" font-family="Helvetica,sans-Serif" font-size="10.00">+ ContextScope()</text>
<text text-anchor="start" x="58" y="-51.5" font-family="Helvetica,sans-Serif" font-size="10.00">+ ContextScope()</text>
<text text-anchor="start" x="58" y="-40.5" font-family="Helvetica,sans-Serif" font-size="10.00">+ operator=()</text>
<text text-anchor="start" x="58" y="-29.5" font-family="Helvetica,sans-Serif" font-size="10.00">+ operator=()</text>
<text text-anchor="start" x="58" y="-18.5" font-family="Helvetica,sans-Serif" font-size="10.00">+ stringify()</text>
<text text-anchor="start" x="58" y="-7.5" font-family="Helvetica,sans-Serif" font-size="10.00">+ ~ContextScope()</text>
</a>
</g>
</g>
<!-- Node2 -->
<g id="node2" class="node">
<title>Node2</title>
<g id="a_node2"><a xlink:href="structdoctest_1_1detail_1_1ContextScopeBase.html" target="_top" xlink:title=" ">
<polygon fill="white" stroke="black" points="48,-183.5 48,-317.5 183,-317.5 183,-183.5 48,-183.5"/>
<text text-anchor="start" x="56" y="-305.5" font-family="Helvetica,sans-Serif" font-size="10.00">doctest::detail::Context</text>
<text text-anchor="middle" x="115.5" y="-294.5" font-family="Helvetica,sans-Serif" font-size="10.00">ScopeBase</text>
<polyline fill="none" stroke="black" points="48,-287.5 183,-287.5 "/>
<text text-anchor="middle" x="115.5" y="-275.5" font-family="Helvetica,sans-Serif" font-size="10.00"> </text>
<polyline fill="none" stroke="black" points="48,-268.5 183,-268.5 "/>
<text text-anchor="start" x="56" y="-256.5" font-family="Helvetica,sans-Serif" font-size="10.00">+ ContextScopeBase()</text>
<text text-anchor="start" x="56" y="-245.5" font-family="Helvetica,sans-Serif" font-size="10.00">+ operator=()</text>
<text text-anchor="start" x="56" y="-234.5" font-family="Helvetica,sans-Serif" font-size="10.00">+ operator=()</text>
<text text-anchor="start" x="56" y="-223.5" font-family="Helvetica,sans-Serif" font-size="10.00">+ ~ContextScopeBase()</text>
<text text-anchor="start" x="56" y="-212.5" font-family="Helvetica,sans-Serif" font-size="10.00"># ContextScopeBase()</text>
<text text-anchor="start" x="56" y="-201.5" font-family="Helvetica,sans-Serif" font-size="10.00"># ContextScopeBase()</text>
<text text-anchor="start" x="56" y="-190.5" font-family="Helvetica,sans-Serif" font-size="10.00"># destroy()</text>
</a>
</g>
</g>
<!-- Node2&#45;&gt;Node1 -->
<g id="edge1" class="edge">
<title>Node2&#45;&gt;Node1</title>
<path fill="none" stroke="midnightblue" d="M115.5,-173.01C115.5,-163.94 115.5,-154.71 115.5,-145.72"/>
<polygon fill="none" stroke="midnightblue" points="112,-173.15 115.5,-183.15 119,-173.15 112,-173.15"/>
</g>
<!-- Node3 -->
<g id="node3" class="node">
<title>Node3</title>
<g id="a_node3"><a xlink:href="structdoctest_1_1IContextScope.html" target="_top" xlink:title=" ">
<polygon fill="white" stroke="black" points="0,-365.5 0,-422.5 129,-422.5 129,-365.5 0,-365.5"/>
<text text-anchor="middle" x="64.5" y="-410.5" font-family="Helvetica,sans-Serif" font-size="10.00">doctest::IContextScope</text>
<polyline fill="none" stroke="black" points="0,-403.5 129,-403.5 "/>
<text text-anchor="middle" x="64.5" y="-391.5" font-family="Helvetica,sans-Serif" font-size="10.00"> </text>
<polyline fill="none" stroke="black" points="0,-384.5 129,-384.5 "/>
<text text-anchor="start" x="8" y="-372.5" font-family="Helvetica,sans-Serif" font-size="10.00">+ stringify()</text>
</a>
</g>
</g>
<!-- Node3&#45;&gt;Node2 -->
<g id="edge2" class="edge">
<title>Node3&#45;&gt;Node2</title>
<path fill="none" stroke="midnightblue" d="M77.85,-355.95C82.08,-344.22 86.89,-330.88 91.62,-317.75"/>
<polygon fill="none" stroke="midnightblue" points="74.55,-354.79 74.45,-365.38 81.14,-357.16 74.55,-354.79"/>
</g>
<!-- Node4 -->
<g id="node4" class="node">
<title>Node4</title>
<g id="a_node4"><a xlink:title=" ">
<polygon fill="white" stroke="#bfbfbf" points="147.5,-365.5 147.5,-422.5 185.5,-422.5 185.5,-365.5 147.5,-365.5"/>
<text text-anchor="middle" x="166.5" y="-410.5" font-family="Helvetica,sans-Serif" font-size="10.00">bool</text>
<polyline fill="none" stroke="#bfbfbf" points="147.5,-403.5 185.5,-403.5 "/>
<text text-anchor="middle" x="166.5" y="-391.5" font-family="Helvetica,sans-Serif" font-size="10.00"> </text>
<polyline fill="none" stroke="#bfbfbf" points="147.5,-384.5 185.5,-384.5 "/>
<text text-anchor="middle" x="166.5" y="-372.5" font-family="Helvetica,sans-Serif" font-size="10.00"> </text>
</a>
</g>
</g>
<!-- Node4&#45;&gt;Node2 -->
<g id="edge3" class="edge">
<title>Node4&#45;&gt;Node2</title>
<path fill="none" stroke="#404040" d="M156.55,-365.38C152.73,-354.81 148.17,-342.15 143.5,-329.18"/>
<polygon fill="none" stroke="#404040" points="143.45,-329.04 137.65,-324.75 139.38,-317.75 145.18,-322.04 143.45,-329.04"/>
<text text-anchor="middle" x="195" y="-339" font-family="Helvetica,sans-Serif" font-size="10.00"> #need_to_destroy</text>
</g>
</g>
</svg>
