<?xml version="1.0" encoding="UTF-8" standalone="no"?>
<!DOCTYPE svg PUBLIC "-//W3C//DTD SVG 1.1//EN"
 "http://www.w3.org/Graphics/SVG/1.1/DTD/svg11.dtd">
<!-- Generated by graphviz version 2.43.0 (0)
 -->
<!-- Title: doctest::detail::ContextScope&lt; L &gt; Pages: 1 -->
<svg width="143pt" height="419pt"
 viewBox="0.00 0.00 143.00 419.00" xmlns="http://www.w3.org/2000/svg" xmlns:xlink="http://www.w3.org/1999/xlink">
<g id="graph0" class="graph" transform="scale(1 1) rotate(0) translate(4 415)">
<title>doctest::detail::ContextScope&lt; L &gt;</title>
<polygon fill="white" stroke="transparent" points="-4,4 -4,-415 139,-415 139,4 -4,4"/>
<!-- Node1 -->
<g id="node1" class="node">
<title>Node1</title>
<g id="a_node1"><a xlink:title=" ">
<polygon fill="#bfbfbf" stroke="black" points="2,-0.5 2,-145.5 133,-145.5 133,-0.5 2,-0.5"/>
<text text-anchor="start" x="10" y="-133.5" font-family="Helvetica,sans-Serif" font-size="10.00">doctest::detail::Context</text>
<text text-anchor="middle" x="67.5" y="-122.5" font-family="Helvetica,sans-Serif" font-size="10.00">Scope&lt; L &gt;</text>
<polyline fill="none" stroke="black" points="2,-115.5 133,-115.5 "/>
<text text-anchor="middle" x="67.5" y="-103.5" font-family="Helvetica,sans-Serif" font-size="10.00"> </text>
<polyline fill="none" stroke="black" points="2,-96.5 133,-96.5 "/>
<text text-anchor="start" x="10" y="-84.5" font-family="Helvetica,sans-Serif" font-size="10.00">+ ContextScope()</text>
<text text-anchor="start" x="10" y="-73.5" font-family="Helvetica,sans-Serif" font-size="10.00">+ ContextScope()</text>
<text text-anchor="start" x="10" y="-62.5" font-family="Helvetica,sans-Serif" font-size="10.00">+ ContextScope()</text>
<text text-anchor="start" x="10" y="-51.5" font-family="Helvetica,sans-Serif" font-size="10.00">+ ContextScope()</text>
<text text-anchor="start" x="10" y="-40.5" font-family="Helvetica,sans-Serif" font-size="10.00">+ operator=()</text>
<text text-anchor="start" x="10" y="-29.5" font-family="Helvetica,sans-Serif" font-size="10.00">+ operator=()</text>
<text text-anchor="start" x="10" y="-18.5" font-family="Helvetica,sans-Serif" font-size="10.00">+ stringify()</text>
<text text-anchor="start" x="10" y="-7.5" font-family="Helvetica,sans-Serif" font-size="10.00">+ ~ContextScope()</text>
</a>
</g>
</g>
<!-- Node2 -->
<g id="node2" class="node">
<title>Node2</title>
<g id="a_node2"><a xlink:href="structdoctest_1_1detail_1_1ContextScopeBase.html" target="_top" xlink:title=" ">
<polygon fill="white" stroke="black" points="0,-182.5 0,-316.5 135,-316.5 135,-182.5 0,-182.5"/>
<text text-anchor="start" x="8" y="-304.5" font-family="Helvetica,sans-Serif" font-size="10.00">doctest::detail::Context</text>
<text text-anchor="middle" x="67.5" y="-293.5" font-family="Helvetica,sans-Serif" font-size="10.00">ScopeBase</text>
<polyline fill="none" stroke="black" points="0,-286.5 135,-286.5 "/>
<text text-anchor="start" x="8" y="-274.5" font-family="Helvetica,sans-Serif" font-size="10.00"># need_to_destroy</text>
<polyline fill="none" stroke="black" points="0,-267.5 135,-267.5 "/>
<text text-anchor="start" x="8" y="-255.5" font-family="Helvetica,sans-Serif" font-size="10.00">+ ContextScopeBase()</text>
<text text-anchor="start" x="8" y="-244.5" font-family="Helvetica,sans-Serif" font-size="10.00">+ operator=()</text>
<text text-anchor="start" x="8" y="-233.5" font-family="Helvetica,sans-Serif" font-size="10.00">+ operator=()</text>
<text text-anchor="start" x="8" y="-222.5" font-family="Helvetica,sans-Serif" font-size="10.00">+ ~ContextScopeBase()</text>
<text text-anchor="start" x="8" y="-211.5" font-family="Helvetica,sans-Serif" font-size="10.00"># ContextScopeBase()</text>
<text text-anchor="start" x="8" y="-200.5" font-family="Helvetica,sans-Serif" font-size="10.00"># ContextScopeBase()</text>
<text text-anchor="start" x="8" y="-189.5" font-family="Helvetica,sans-Serif" font-size="10.00"># destroy()</text>
</a>
</g>
</g>
<!-- Node2&#45;&gt;Node1 -->
<g id="edge1" class="edge">
<title>Node2&#45;&gt;Node1</title>
<path fill="none" stroke="midnightblue" d="M67.5,-171.84C67.5,-163.09 67.5,-154.2 67.5,-145.51"/>
<polygon fill="none" stroke="midnightblue" points="64,-172.03 67.5,-182.03 71,-172.03 64,-172.03"/>
</g>
<!-- Node3 -->
<g id="node3" class="node">
<title>Node3</title>
<g id="a_node3"><a xlink:href="structdoctest_1_1IContextScope.html" target="_top" xlink:title=" ">
<polygon fill="white" stroke="black" points="3,-353.5 3,-410.5 132,-410.5 132,-353.5 3,-353.5"/>
<text text-anchor="middle" x="67.5" y="-398.5" font-family="Helvetica,sans-Serif" font-size="10.00">doctest::IContextScope</text>
<polyline fill="none" stroke="black" points="3,-391.5 132,-391.5 "/>
<text text-anchor="middle" x="67.5" y="-379.5" font-family="Helvetica,sans-Serif" font-size="10.00"> </text>
<polyline fill="none" stroke="black" points="3,-372.5 132,-372.5 "/>
<text text-anchor="start" x="11" y="-360.5" font-family="Helvetica,sans-Serif" font-size="10.00">+ stringify()</text>
</a>
</g>
</g>
<!-- Node3&#45;&gt;Node2 -->
<g id="edge2" class="edge">
<title>Node3&#45;&gt;Node2</title>
<path fill="none" stroke="midnightblue" d="M67.5,-343.16C67.5,-334.78 67.5,-325.67 67.5,-316.53"/>
<polygon fill="none" stroke="midnightblue" points="64,-343.32 67.5,-353.32 71,-343.32 64,-343.32"/>
</g>
</g>
</svg>
