<?xml version="1.0" encoding="UTF-8" standalone="no"?>
<!DOCTYPE svg PUBLIC "-//W3C//DTD SVG 1.1//EN"
 "http://www.w3.org/Graphics/SVG/1.1/DTD/svg11.dtd">
<!-- Generated by graphviz version 2.43.0 (0)
 -->
<!-- Title: doctest::Contains Pages: 1 -->
<svg width="387pt" height="656pt"
 viewBox="0.00 0.00 386.50 656.00" xmlns="http://www.w3.org/2000/svg" xmlns:xlink="http://www.w3.org/1999/xlink">
<g id="graph0" class="graph" transform="scale(1 1) rotate(0) translate(4 652)">
<title>doctest::Contains</title>
<polygon fill="white" stroke="transparent" points="-4,4 -4,-652 382.5,-652 382.5,4 -4,4"/>
<!-- Node1 -->
<g id="node1" class="node">
<title>Node1</title>
<g id="a_node1"><a xlink:title=" ">
<polygon fill="#bfbfbf" stroke="black" points="143,-0.5 143,-68.5 244,-68.5 244,-0.5 143,-0.5"/>
<text text-anchor="middle" x="193.5" y="-56.5" font-family="Helvetica,sans-Serif" font-size="10.00">doctest::Contains</text>
<polyline fill="none" stroke="black" points="143,-49.5 244,-49.5 "/>
<text text-anchor="middle" x="193.5" y="-37.5" font-family="Helvetica,sans-Serif" font-size="10.00"> </text>
<polyline fill="none" stroke="black" points="143,-30.5 244,-30.5 "/>
<text text-anchor="start" x="151" y="-18.5" font-family="Helvetica,sans-Serif" font-size="10.00">+ Contains()</text>
<text text-anchor="start" x="151" y="-7.5" font-family="Helvetica,sans-Serif" font-size="10.00">+ checkWith()</text>
</a>
</g>
</g>
<!-- Node2 -->
<g id="node2" class="node">
<title>Node2</title>
<g id="a_node2"><a xlink:href="classdoctest_1_1String.html" target="_top" xlink:title=" ">
<polygon fill="white" stroke="black" points="147,-116.5 147,-404.5 240,-404.5 240,-116.5 147,-116.5"/>
<text text-anchor="middle" x="193.5" y="-392.5" font-family="Helvetica,sans-Serif" font-size="10.00">doctest::String</text>
<polyline fill="none" stroke="black" points="147,-385.5 240,-385.5 "/>
<text text-anchor="middle" x="193.5" y="-373.5" font-family="Helvetica,sans-Serif" font-size="10.00"> </text>
<polyline fill="none" stroke="black" points="147,-366.5 240,-366.5 "/>
<text text-anchor="start" x="155" y="-354.5" font-family="Helvetica,sans-Serif" font-size="10.00">+ String()</text>
<text text-anchor="start" x="155" y="-343.5" font-family="Helvetica,sans-Serif" font-size="10.00">+ ~String()</text>
<text text-anchor="start" x="155" y="-332.5" font-family="Helvetica,sans-Serif" font-size="10.00">+ String()</text>
<text text-anchor="start" x="155" y="-321.5" font-family="Helvetica,sans-Serif" font-size="10.00">+ String()</text>
<text text-anchor="start" x="155" y="-310.5" font-family="Helvetica,sans-Serif" font-size="10.00">+ String()</text>
<text text-anchor="start" x="155" y="-299.5" font-family="Helvetica,sans-Serif" font-size="10.00">+ String()</text>
<text text-anchor="start" x="155" y="-288.5" font-family="Helvetica,sans-Serif" font-size="10.00">+ operator=()</text>
<text text-anchor="start" x="155" y="-277.5" font-family="Helvetica,sans-Serif" font-size="10.00">+ operator+=()</text>
<text text-anchor="start" x="155" y="-266.5" font-family="Helvetica,sans-Serif" font-size="10.00">+ String()</text>
<text text-anchor="start" x="155" y="-255.5" font-family="Helvetica,sans-Serif" font-size="10.00">+ operator=()</text>
<text text-anchor="start" x="155" y="-244.5" font-family="Helvetica,sans-Serif" font-size="10.00">+ operator[]()</text>
<text text-anchor="start" x="155" y="-233.5" font-family="Helvetica,sans-Serif" font-size="10.00">+ operator[]()</text>
<text text-anchor="start" x="155" y="-222.5" font-family="Helvetica,sans-Serif" font-size="10.00">+ c_str()</text>
<text text-anchor="start" x="155" y="-211.5" font-family="Helvetica,sans-Serif" font-size="10.00">+ c_str()</text>
<text text-anchor="start" x="155" y="-200.5" font-family="Helvetica,sans-Serif" font-size="10.00">+ size()</text>
<text text-anchor="start" x="155" y="-189.5" font-family="Helvetica,sans-Serif" font-size="10.00">+ capacity()</text>
<text text-anchor="start" x="155" y="-178.5" font-family="Helvetica,sans-Serif" font-size="10.00">+ substr()</text>
<text text-anchor="start" x="155" y="-167.5" font-family="Helvetica,sans-Serif" font-size="10.00">+ substr()</text>
<text text-anchor="start" x="155" y="-156.5" font-family="Helvetica,sans-Serif" font-size="10.00">+ find()</text>
<text text-anchor="start" x="155" y="-145.5" font-family="Helvetica,sans-Serif" font-size="10.00">+ rfind()</text>
<text text-anchor="start" x="155" y="-134.5" font-family="Helvetica,sans-Serif" font-size="10.00">+ compare()</text>
<text text-anchor="start" x="155" y="-123.5" font-family="Helvetica,sans-Serif" font-size="10.00">+ compare()</text>
</a>
</g>
</g>
<!-- Node2&#45;&gt;Node1 -->
<g id="edge1" class="edge">
<title>Node2&#45;&gt;Node1</title>
<path fill="none" stroke="#404040" d="M193.5,-116.37C193.5,-103.67 193.5,-91.56 193.5,-80.75"/>
<polygon fill="none" stroke="#404040" points="193.5,-80.7 189.5,-74.7 193.5,-68.7 197.5,-74.7 193.5,-80.7"/>
<text text-anchor="middle" x="213.5" y="-90" font-family="Helvetica,sans-Serif" font-size="10.00"> +string</text>
</g>
<!-- Node3 -->
<g id="node3" class="node">
<title>Node3</title>
<g id="a_node3"><a xlink:title=" ">
<polygon fill="white" stroke="#bfbfbf" points="0,-452.5 0,-520.5 157,-520.5 157,-452.5 0,-452.5"/>
<text text-anchor="start" x="8" y="-508.5" font-family="Helvetica,sans-Serif" font-size="10.00">static DOCTEST_CONSTEXPR</text>
<text text-anchor="middle" x="78.5" y="-497.5" font-family="Helvetica,sans-Serif" font-size="10.00"> size_type</text>
<polyline fill="none" stroke="#bfbfbf" points="0,-490.5 157,-490.5 "/>
<text text-anchor="middle" x="78.5" y="-478.5" font-family="Helvetica,sans-Serif" font-size="10.00"> </text>
<polyline fill="none" stroke="#bfbfbf" points="0,-471.5 157,-471.5 "/>
<text text-anchor="middle" x="78.5" y="-459.5" font-family="Helvetica,sans-Serif" font-size="10.00"> </text>
</a>
</g>
</g>
<!-- Node3&#45;&gt;Node2 -->
<g id="edge2" class="edge">
<title>Node3&#45;&gt;Node2</title>
<path fill="none" stroke="#404040" d="M95.47,-452.45C107.65,-428.72 124.77,-395.38 141.3,-363.18"/>
<polygon fill="none" stroke="#404040" points="141.39,-363 140.57,-355.83 146.87,-352.32 147.69,-359.49 141.39,-363"/>
<text text-anchor="middle" x="127" y="-426" font-family="Helvetica,sans-Serif" font-size="10.00"> +npos</text>
</g>
<!-- Node4 -->
<g id="node4" class="node">
<title>Node4</title>
<g id="a_node4"><a xlink:title="OCLINT avoid private static members.">
<polygon fill="white" stroke="#bfbfbf" points="239.5,-458 239.5,-515 355.5,-515 355.5,-458 239.5,-458"/>
<text text-anchor="middle" x="297.5" y="-503" font-family="Helvetica,sans-Serif" font-size="10.00">doctest::String::view</text>
<polyline fill="none" stroke="#bfbfbf" points="239.5,-496 355.5,-496 "/>
<text text-anchor="middle" x="297.5" y="-484" font-family="Helvetica,sans-Serif" font-size="10.00"> </text>
<polyline fill="none" stroke="#bfbfbf" points="239.5,-477 355.5,-477 "/>
<text text-anchor="middle" x="297.5" y="-465" font-family="Helvetica,sans-Serif" font-size="10.00"> </text>
</a>
</g>
</g>
<!-- Node4&#45;&gt;Node2 -->
<g id="edge3" class="edge">
<title>Node4&#45;&gt;Node2</title>
<path fill="none" stroke="#404040" d="M284.54,-457.58C274.48,-435.92 259.83,-404.36 245.21,-372.88"/>
<polygon fill="none" stroke="#404040" points="245.1,-372.64 238.95,-368.88 240.05,-361.76 246.2,-365.51 245.1,-372.64"/>
<text text-anchor="middle" x="289.5" y="-426" font-family="Helvetica,sans-Serif" font-size="10.00"> +data</text>
</g>
<!-- Node5 -->
<g id="node5" class="node">
<title>Node5</title>
<g id="a_node5"><a xlink:title=" ">
<polygon fill="white" stroke="#bfbfbf" points="174.5,-585 174.5,-642 212.5,-642 212.5,-585 174.5,-585"/>
<text text-anchor="middle" x="193.5" y="-630" font-family="Helvetica,sans-Serif" font-size="10.00">char</text>
<polyline fill="none" stroke="#bfbfbf" points="174.5,-623 212.5,-623 "/>
<text text-anchor="middle" x="193.5" y="-611" font-family="Helvetica,sans-Serif" font-size="10.00"> </text>
<polyline fill="none" stroke="#bfbfbf" points="174.5,-604 212.5,-604 "/>
<text text-anchor="middle" x="193.5" y="-592" font-family="Helvetica,sans-Serif" font-size="10.00"> </text>
</a>
</g>
</g>
<!-- Node5&#45;&gt;Node2 -->
<g id="edge6" class="edge">
<title>Node5&#45;&gt;Node2</title>
<path fill="none" stroke="#404040" d="M193.5,-584.96C193.5,-548.37 193.5,-480.89 193.5,-416.99"/>
<polygon fill="none" stroke="#404040" points="193.5,-416.69 189.5,-410.69 193.5,-404.69 197.5,-410.69 193.5,-416.69"/>
<text text-anchor="middle" x="207.5" y="-484" font-family="Helvetica,sans-Serif" font-size="10.00"> +buf</text>
</g>
<!-- Node5&#45;&gt;Node4 -->
<g id="edge4" class="edge">
<title>Node5&#45;&gt;Node4</title>
<path fill="none" stroke="#404040" d="M212.58,-589.57C227.73,-571.36 249.22,-545.53 266.79,-524.41"/>
<polygon fill="none" stroke="#404040" points="266.88,-524.31 267.64,-517.14 274.55,-515.08 273.79,-522.25 266.88,-524.31"/>
<text text-anchor="middle" x="265" y="-547.5" font-family="Helvetica,sans-Serif" font-size="10.00"> +ptr</text>
</g>
<!-- Node6 -->
<g id="node6" class="node">
<title>Node6</title>
<g id="a_node6"><a xlink:title=" ">
<polygon fill="white" stroke="#bfbfbf" points="230.5,-579.5 230.5,-647.5 378.5,-647.5 378.5,-579.5 230.5,-579.5"/>
<text text-anchor="start" x="238.5" y="-635.5" font-family="Helvetica,sans-Serif" font-size="10.00">DOCTEST_CONFIG_STRING</text>
<text text-anchor="middle" x="304.5" y="-624.5" font-family="Helvetica,sans-Serif" font-size="10.00">_SIZE_TYPE</text>
<polyline fill="none" stroke="#bfbfbf" points="230.5,-617.5 378.5,-617.5 "/>
<text text-anchor="middle" x="304.5" y="-605.5" font-family="Helvetica,sans-Serif" font-size="10.00"> </text>
<polyline fill="none" stroke="#bfbfbf" points="230.5,-598.5 378.5,-598.5 "/>
<text text-anchor="middle" x="304.5" y="-586.5" font-family="Helvetica,sans-Serif" font-size="10.00"> </text>
</a>
</g>
</g>
<!-- Node6&#45;&gt;Node4 -->
<g id="edge5" class="edge">
<title>Node6&#45;&gt;Node4</title>
<path fill="none" stroke="#404040" d="M302.64,-579.33C301.75,-563.42 300.68,-544.24 299.74,-527.52"/>
<polygon fill="none" stroke="#404040" points="299.73,-527.3 295.4,-521.54 299.06,-515.32 303.39,-521.09 299.73,-527.3"/>
<text text-anchor="middle" x="328" y="-553" font-family="Helvetica,sans-Serif" font-size="10.00"> +capacity</text>
<text text-anchor="middle" x="328" y="-542" font-family="Helvetica,sans-Serif" font-size="10.00">+size</text>
</g>
</g>
</svg>
