<?xml version="1.0" encoding="UTF-8" standalone="no"?>
<!DOCTYPE svg PUBLIC "-//W3C//DTD SVG 1.1//EN"
 "http://www.w3.org/Graphics/SVG/1.1/DTD/svg11.dtd">
<!-- Generated by graphviz version 2.43.0 (0)
 -->
<!-- Title: Pessoa Pages: 1 -->
<svg width="234pt" height="336pt"
 viewBox="0.00 0.00 233.50 336.00" xmlns="http://www.w3.org/2000/svg" xmlns:xlink="http://www.w3.org/1999/xlink">
<g id="graph0" class="graph" transform="scale(1 1) rotate(0) translate(4 332)">
<title>Pessoa</title>
<polygon fill="white" stroke="transparent" points="-4,4 -4,-332 229.5,-332 229.5,4 -4,4"/>
<!-- Node1 -->
<g id="node1" class="node">
<title>Node1</title>
<g id="a_node1"><a xlink:title="Classe mãe de usuario e admin.">
<polygon fill="#bfbfbf" stroke="black" points="61,-182.5 61,-327.5 154,-327.5 154,-182.5 61,-182.5"/>
<text text-anchor="middle" x="107.5" y="-315.5" font-family="Helvetica,sans-Serif" font-size="10.00">Pessoa</text>
<polyline fill="none" stroke="black" points="61,-308.5 154,-308.5 "/>
<text text-anchor="middle" x="107.5" y="-296.5" font-family="Helvetica,sans-Serif" font-size="10.00"> </text>
<polyline fill="none" stroke="black" points="61,-289.5 154,-289.5 "/>
<text text-anchor="start" x="69" y="-277.5" font-family="Helvetica,sans-Serif" font-size="10.00">+ Pessoa()</text>
<text text-anchor="start" x="69" y="-266.5" font-family="Helvetica,sans-Serif" font-size="10.00">+ Pessoa()</text>
<text text-anchor="start" x="69" y="-255.5" font-family="Helvetica,sans-Serif" font-size="10.00">+ Pessoa()</text>
<text text-anchor="start" x="69" y="-244.5" font-family="Helvetica,sans-Serif" font-size="10.00">+ ~Pessoa()</text>
<text text-anchor="start" x="69" y="-233.5" font-family="Helvetica,sans-Serif" font-size="10.00">+ get_classe()</text>
<text text-anchor="start" x="69" y="-222.5" font-family="Helvetica,sans-Serif" font-size="10.00">+ get_senha()</text>
<text text-anchor="start" x="69" y="-211.5" font-family="Helvetica,sans-Serif" font-size="10.00">+ get_email()</text>
<text text-anchor="start" x="69" y="-200.5" font-family="Helvetica,sans-Serif" font-size="10.00">+ get_nome()</text>
<text text-anchor="start" x="69" y="-189.5" font-family="Helvetica,sans-Serif" font-size="10.00">+ view_dados()</text>
</a>
</g>
</g>
<!-- Node2 -->
<g id="node2" class="node">
<title>Node2</title>
<g id="a_node2"><a xlink:href="classAdmin.html" target="_top" xlink:title="Classe do administrador.">
<polygon fill="white" stroke="black" points="0,-28 0,-118 93,-118 93,-28 0,-28"/>
<text text-anchor="middle" x="46.5" y="-106" font-family="Helvetica,sans-Serif" font-size="10.00">Admin</text>
<polyline fill="none" stroke="black" points="0,-99 93,-99 "/>
<text text-anchor="middle" x="46.5" y="-87" font-family="Helvetica,sans-Serif" font-size="10.00"> </text>
<polyline fill="none" stroke="black" points="0,-80 93,-80 "/>
<text text-anchor="start" x="8" y="-68" font-family="Helvetica,sans-Serif" font-size="10.00">+ Admin()</text>
<text text-anchor="start" x="8" y="-57" font-family="Helvetica,sans-Serif" font-size="10.00">+ ~Admin()</text>
<text text-anchor="start" x="8" y="-46" font-family="Helvetica,sans-Serif" font-size="10.00">+ get_classe()</text>
<text text-anchor="start" x="8" y="-35" font-family="Helvetica,sans-Serif" font-size="10.00">+ view_dados()</text>
</a>
</g>
</g>
<!-- Node1&#45;&gt;Node2 -->
<g id="edge1" class="edge">
<title>Node1&#45;&gt;Node2</title>
<path fill="none" stroke="midnightblue" d="M80.01,-172.87C73.63,-154.06 67.08,-134.74 61.48,-118.21"/>
<polygon fill="none" stroke="midnightblue" points="76.69,-173.99 83.22,-182.34 83.32,-171.75 76.69,-173.99"/>
</g>
<!-- Node3 -->
<g id="node3" class="node">
<title>Node3</title>
<g id="a_node3"><a xlink:href="classUsuario.html" target="_top" xlink:title="Classe do usuario.">
<polygon fill="white" stroke="black" points="111.5,-0.5 111.5,-145.5 225.5,-145.5 225.5,-0.5 111.5,-0.5"/>
<text text-anchor="middle" x="168.5" y="-133.5" font-family="Helvetica,sans-Serif" font-size="10.00">Usuario</text>
<polyline fill="none" stroke="black" points="111.5,-126.5 225.5,-126.5 "/>
<text text-anchor="middle" x="168.5" y="-114.5" font-family="Helvetica,sans-Serif" font-size="10.00"> </text>
<polyline fill="none" stroke="black" points="111.5,-107.5 225.5,-107.5 "/>
<text text-anchor="start" x="119.5" y="-95.5" font-family="Helvetica,sans-Serif" font-size="10.00">+ Usuario()</text>
<text text-anchor="start" x="119.5" y="-84.5" font-family="Helvetica,sans-Serif" font-size="10.00">+ ~Usuario()</text>
<text text-anchor="start" x="119.5" y="-73.5" font-family="Helvetica,sans-Serif" font-size="10.00">+ inicia_set_livros()</text>
<text text-anchor="start" x="119.5" y="-62.5" font-family="Helvetica,sans-Serif" font-size="10.00">+ get_livros()</text>
<text text-anchor="start" x="119.5" y="-51.5" font-family="Helvetica,sans-Serif" font-size="10.00">+ get_classe()</text>
<text text-anchor="start" x="119.5" y="-40.5" font-family="Helvetica,sans-Serif" font-size="10.00">+ pega_livro()</text>
<text text-anchor="start" x="119.5" y="-29.5" font-family="Helvetica,sans-Serif" font-size="10.00">+ devolve_livro()</text>
<text text-anchor="start" x="119.5" y="-18.5" font-family="Helvetica,sans-Serif" font-size="10.00">+ view_livros()</text>
<text text-anchor="start" x="119.5" y="-7.5" font-family="Helvetica,sans-Serif" font-size="10.00">+ view_dados()</text>
</a>
</g>
</g>
<!-- Node1&#45;&gt;Node3 -->
<g id="edge2" class="edge">
<title>Node1&#45;&gt;Node3</title>
<path fill="none" stroke="midnightblue" d="M135.07,-172.65C138.11,-163.67 141.2,-154.56 144.2,-145.71"/>
<polygon fill="none" stroke="midnightblue" points="131.68,-171.75 131.78,-182.34 138.31,-173.99 131.68,-171.75"/>
</g>
</g>
</svg>
