<?xml version="1.0" encoding="UTF-8" standalone="no"?>
<!DOCTYPE svg PUBLIC "-//W3C//DTD SVG 1.1//EN"
 "http://www.w3.org/Graphics/SVG/1.1/DTD/svg11.dtd">
<!-- Generated by graphviz version 2.43.0 (0)
 -->
<!-- Title: doctest::String Pages: 1 -->
<svg width="387pt" height="540pt"
 viewBox="0.00 0.00 386.50 540.00" xmlns="http://www.w3.org/2000/svg" xmlns:xlink="http://www.w3.org/1999/xlink">
<g id="graph0" class="graph" transform="scale(1 1) rotate(0) translate(4 536)">
<title>doctest::String</title>
<polygon fill="white" stroke="transparent" points="-4,4 -4,-536 382.5,-536 382.5,4 -4,4"/>
<!-- Node1 -->
<g id="node1" class="node">
<title>Node1</title>
<g id="a_node1"><a xlink:title=" ">
<polygon fill="#bfbfbf" stroke="black" points="147,-0.5 147,-288.5 240,-288.5 240,-0.5 147,-0.5"/>
<text text-anchor="middle" x="193.5" y="-276.5" font-family="Helvetica,sans-Serif" font-size="10.00">doctest::String</text>
<polyline fill="none" stroke="black" points="147,-269.5 240,-269.5 "/>
<text text-anchor="middle" x="193.5" y="-257.5" font-family="Helvetica,sans-Serif" font-size="10.00"> </text>
<polyline fill="none" stroke="black" points="147,-250.5 240,-250.5 "/>
<text text-anchor="start" x="155" y="-238.5" font-family="Helvetica,sans-Serif" font-size="10.00">+ String()</text>
<text text-anchor="start" x="155" y="-227.5" font-family="Helvetica,sans-Serif" font-size="10.00">+ ~String()</text>
<text text-anchor="start" x="155" y="-216.5" font-family="Helvetica,sans-Serif" font-size="10.00">+ String()</text>
<text text-anchor="start" x="155" y="-205.5" font-family="Helvetica,sans-Serif" font-size="10.00">+ String()</text>
<text text-anchor="start" x="155" y="-194.5" font-family="Helvetica,sans-Serif" font-size="10.00">+ String()</text>
<text text-anchor="start" x="155" y="-183.5" font-family="Helvetica,sans-Serif" font-size="10.00">+ String()</text>
<text text-anchor="start" x="155" y="-172.5" font-family="Helvetica,sans-Serif" font-size="10.00">+ operator=()</text>
<text text-anchor="start" x="155" y="-161.5" font-family="Helvetica,sans-Serif" font-size="10.00">+ operator+=()</text>
<text text-anchor="start" x="155" y="-150.5" font-family="Helvetica,sans-Serif" font-size="10.00">+ String()</text>
<text text-anchor="start" x="155" y="-139.5" font-family="Helvetica,sans-Serif" font-size="10.00">+ operator=()</text>
<text text-anchor="start" x="155" y="-128.5" font-family="Helvetica,sans-Serif" font-size="10.00">+ operator[]()</text>
<text text-anchor="start" x="155" y="-117.5" font-family="Helvetica,sans-Serif" font-size="10.00">+ operator[]()</text>
<text text-anchor="start" x="155" y="-106.5" font-family="Helvetica,sans-Serif" font-size="10.00">+ c_str()</text>
<text text-anchor="start" x="155" y="-95.5" font-family="Helvetica,sans-Serif" font-size="10.00">+ c_str()</text>
<text text-anchor="start" x="155" y="-84.5" font-family="Helvetica,sans-Serif" font-size="10.00">+ size()</text>
<text text-anchor="start" x="155" y="-73.5" font-family="Helvetica,sans-Serif" font-size="10.00">+ capacity()</text>
<text text-anchor="start" x="155" y="-62.5" font-family="Helvetica,sans-Serif" font-size="10.00">+ substr()</text>
<text text-anchor="start" x="155" y="-51.5" font-family="Helvetica,sans-Serif" font-size="10.00">+ substr()</text>
<text text-anchor="start" x="155" y="-40.5" font-family="Helvetica,sans-Serif" font-size="10.00">+ find()</text>
<text text-anchor="start" x="155" y="-29.5" font-family="Helvetica,sans-Serif" font-size="10.00">+ rfind()</text>
<text text-anchor="start" x="155" y="-18.5" font-family="Helvetica,sans-Serif" font-size="10.00">+ compare()</text>
<text text-anchor="start" x="155" y="-7.5" font-family="Helvetica,sans-Serif" font-size="10.00">+ compare()</text>
</a>
</g>
</g>
<!-- Node2 -->
<g id="node2" class="node">
<title>Node2</title>
<g id="a_node2"><a xlink:title=" ">
<polygon fill="white" stroke="#bfbfbf" points="0,-336.5 0,-404.5 157,-404.5 157,-336.5 0,-336.5"/>
<text text-anchor="start" x="8" y="-392.5" font-family="Helvetica,sans-Serif" font-size="10.00">static DOCTEST_CONSTEXPR</text>
<text text-anchor="middle" x="78.5" y="-381.5" font-family="Helvetica,sans-Serif" font-size="10.00"> size_type</text>
<polyline fill="none" stroke="#bfbfbf" points="0,-374.5 157,-374.5 "/>
<text text-anchor="middle" x="78.5" y="-362.5" font-family="Helvetica,sans-Serif" font-size="10.00"> </text>
<polyline fill="none" stroke="#bfbfbf" points="0,-355.5 157,-355.5 "/>
<text text-anchor="middle" x="78.5" y="-343.5" font-family="Helvetica,sans-Serif" font-size="10.00"> </text>
</a>
</g>
</g>
<!-- Node2&#45;&gt;Node1 -->
<g id="edge1" class="edge">
<title>Node2&#45;&gt;Node1</title>
<path fill="none" stroke="#404040" d="M95.47,-336.45C107.65,-312.72 124.77,-279.38 141.3,-247.18"/>
<polygon fill="none" stroke="#404040" points="141.39,-247 140.57,-239.83 146.87,-236.32 147.69,-243.49 141.39,-247"/>
<text text-anchor="middle" x="127" y="-310" font-family="Helvetica,sans-Serif" font-size="10.00"> +npos</text>
</g>
<!-- Node3 -->
<g id="node3" class="node">
<title>Node3</title>
<g id="a_node3"><a xlink:title="OCLINT avoid private static members.">
<polygon fill="white" stroke="#bfbfbf" points="239.5,-342 239.5,-399 355.5,-399 355.5,-342 239.5,-342"/>
<text text-anchor="middle" x="297.5" y="-387" font-family="Helvetica,sans-Serif" font-size="10.00">doctest::String::view</text>
<polyline fill="none" stroke="#bfbfbf" points="239.5,-380 355.5,-380 "/>
<text text-anchor="middle" x="297.5" y="-368" font-family="Helvetica,sans-Serif" font-size="10.00"> </text>
<polyline fill="none" stroke="#bfbfbf" points="239.5,-361 355.5,-361 "/>
<text text-anchor="middle" x="297.5" y="-349" font-family="Helvetica,sans-Serif" font-size="10.00"> </text>
</a>
</g>
</g>
<!-- Node3&#45;&gt;Node1 -->
<g id="edge2" class="edge">
<title>Node3&#45;&gt;Node1</title>
<path fill="none" stroke="#404040" d="M284.54,-341.58C274.48,-319.92 259.83,-288.36 245.21,-256.88"/>
<polygon fill="none" stroke="#404040" points="245.1,-256.64 238.95,-252.88 240.05,-245.76 246.2,-249.51 245.1,-256.64"/>
<text text-anchor="middle" x="289.5" y="-310" font-family="Helvetica,sans-Serif" font-size="10.00"> +data</text>
</g>
<!-- Node4 -->
<g id="node4" class="node">
<title>Node4</title>
<g id="a_node4"><a xlink:title=" ">
<polygon fill="white" stroke="#bfbfbf" points="174.5,-469 174.5,-526 212.5,-526 212.5,-469 174.5,-469"/>
<text text-anchor="middle" x="193.5" y="-514" font-family="Helvetica,sans-Serif" font-size="10.00">char</text>
<polyline fill="none" stroke="#bfbfbf" points="174.5,-507 212.5,-507 "/>
<text text-anchor="middle" x="193.5" y="-495" font-family="Helvetica,sans-Serif" font-size="10.00"> </text>
<polyline fill="none" stroke="#bfbfbf" points="174.5,-488 212.5,-488 "/>
<text text-anchor="middle" x="193.5" y="-476" font-family="Helvetica,sans-Serif" font-size="10.00"> </text>
</a>
</g>
</g>
<!-- Node4&#45;&gt;Node1 -->
<g id="edge5" class="edge">
<title>Node4&#45;&gt;Node1</title>
<path fill="none" stroke="#404040" d="M193.5,-468.96C193.5,-432.37 193.5,-364.89 193.5,-300.99"/>
<polygon fill="none" stroke="#404040" points="193.5,-300.69 189.5,-294.69 193.5,-288.69 197.5,-294.69 193.5,-300.69"/>
<text text-anchor="middle" x="207.5" y="-368" font-family="Helvetica,sans-Serif" font-size="10.00"> +buf</text>
</g>
<!-- Node4&#45;&gt;Node3 -->
<g id="edge3" class="edge">
<title>Node4&#45;&gt;Node3</title>
<path fill="none" stroke="#404040" d="M212.58,-473.57C227.73,-455.36 249.22,-429.53 266.79,-408.41"/>
<polygon fill="none" stroke="#404040" points="266.88,-408.31 267.64,-401.14 274.55,-399.08 273.79,-406.25 266.88,-408.31"/>
<text text-anchor="middle" x="265" y="-431.5" font-family="Helvetica,sans-Serif" font-size="10.00"> +ptr</text>
</g>
<!-- Node5 -->
<g id="node5" class="node">
<title>Node5</title>
<g id="a_node5"><a xlink:title=" ">
<polygon fill="white" stroke="#bfbfbf" points="230.5,-463.5 230.5,-531.5 378.5,-531.5 378.5,-463.5 230.5,-463.5"/>
<text text-anchor="start" x="238.5" y="-519.5" font-family="Helvetica,sans-Serif" font-size="10.00">DOCTEST_CONFIG_STRING</text>
<text text-anchor="middle" x="304.5" y="-508.5" font-family="Helvetica,sans-Serif" font-size="10.00">_SIZE_TYPE</text>
<polyline fill="none" stroke="#bfbfbf" points="230.5,-501.5 378.5,-501.5 "/>
<text text-anchor="middle" x="304.5" y="-489.5" font-family="Helvetica,sans-Serif" font-size="10.00"> </text>
<polyline fill="none" stroke="#bfbfbf" points="230.5,-482.5 378.5,-482.5 "/>
<text text-anchor="middle" x="304.5" y="-470.5" font-family="Helvetica,sans-Serif" font-size="10.00"> </text>
</a>
</g>
</g>
<!-- Node5&#45;&gt;Node3 -->
<g id="edge4" class="edge">
<title>Node5&#45;&gt;Node3</title>
<path fill="none" stroke="#404040" d="M302.64,-463.33C301.75,-447.42 300.68,-428.24 299.74,-411.52"/>
<polygon fill="none" stroke="#404040" points="299.73,-411.3 295.4,-405.54 299.06,-399.32 303.39,-405.09 299.73,-411.3"/>
<text text-anchor="middle" x="328" y="-437" font-family="Helvetica,sans-Serif" font-size="10.00"> +capacity</text>
<text text-anchor="middle" x="328" y="-426" font-family="Helvetica,sans-Serif" font-size="10.00">+size</text>
</g>
</g>
</svg>
