<?xml version="1.0" encoding="UTF-8" standalone="no"?>
<!DOCTYPE svg PUBLIC "-//W3C//DTD SVG 1.1//EN"
 "http://www.w3.org/Graphics/SVG/1.1/DTD/svg11.dtd">
<!-- Generated by graphviz version 2.43.0 (0)
 -->
<!-- Title: include/biblioteca Pages: 1 -->
<svg width="164pt" height="151pt"
 viewBox="0.00 0.00 164.00 151.00" xmlns="http://www.w3.org/2000/svg" xmlns:xlink="http://www.w3.org/1999/xlink">
<g id="graph0" class="graph" transform="scale(1 1) rotate(0) translate(4 147)">
<title>include/biblioteca</title>
<polygon fill="white" stroke="transparent" points="-4,4 -4,-147 160,-147 160,4 -4,4"/>
<g id="clust1" class="cluster">
<title>clusterdir_d44c64559bbebec7f509842c48db8b23</title>
<g id="a_clust1"><a xlink:href="dir_d44c64559bbebec7f509842c48db8b23.html" target="_top" xlink:title="include">
<polygon fill="#ddddee" stroke="black" points="8,-64 8,-135 90,-135 90,-64 8,-64"/>
<text text-anchor="middle" x="49" y="-123" font-family="Helvetica,sans-Serif" font-size="10.00">include</text>
</a>
</g>
</g>
<!-- dir_0bc804708b4d922430ac5ae352774b39 -->
<g id="node1" class="node">
<title>dir_0bc804708b4d922430ac5ae352774b39</title>
<g id="a_node1"><a xlink:href="dir_0bc804708b4d922430ac5ae352774b39.html" target="_top" xlink:title="biblioteca">
<polygon fill="#eeeeff" stroke="black" points="81.5,-108 16.5,-108 16.5,-72 81.5,-72 81.5,-108"/>
<text text-anchor="middle" x="49" y="-87.5" font-family="Helvetica,sans-Serif" font-size="10.00">biblioteca</text>
</a>
</g>
</g>
<!-- dir_e1a043ec24964d47ad10b643005319ac -->
<g id="node2" class="node">
<title>dir_e1a043ec24964d47ad10b643005319ac</title>
<g id="a_node2"><a xlink:href="dir_e1a043ec24964d47ad10b643005319ac.html" target="_top" xlink:title="pessoas">
<polygon fill="none" stroke="black" points="156,-108 100,-108 100,-72 156,-72 156,-108"/>
<text text-anchor="middle" x="128" y="-87.5" font-family="Helvetica,sans-Serif" font-size="10.00">pessoas</text>
</a>
</g>
</g>
<!-- dir_0bc804708b4d922430ac5ae352774b39&#45;&gt;dir_e1a043ec24964d47ad10b643005319ac -->
<g id="edge4" class="edge">
<title>dir_0bc804708b4d922430ac5ae352774b39&#45;&gt;dir_e1a043ec24964d47ad10b643005319ac</title>
<path fill="none" stroke="black" d="M81.71,-90C84.35,-90 86.98,-90 89.62,-90"/>
<polygon fill="black" stroke="black" points="89.79,-93.5 99.79,-90 89.79,-86.5 89.79,-93.5"/>
<g id="a_edge4&#45;headlabel"><a xlink:href="dir_000001_000004.html" target="_top" xlink:title="4">
<text text-anchor="middle" x="86.2" y="-93.84" font-family="Helvetica,sans-Serif" font-size="10.00">4</text>
</a>
</g>
</g>
<!-- dir_16862e911883a5d8b4e363a8a47bcec0 -->
<g id="node3" class="node">
<title>dir_16862e911883a5d8b4e363a8a47bcec0</title>
<g id="a_node3"><a xlink:href="dir_16862e911883a5d8b4e363a8a47bcec0.html" target="_top" xlink:title="erros">
<polygon fill="none" stroke="black" points="79,-36 25,-36 25,0 79,0 79,-36"/>
<text text-anchor="middle" x="52" y="-15.5" font-family="Helvetica,sans-Serif" font-size="10.00">erros</text>
</a>
</g>
</g>
<!-- dir_0bc804708b4d922430ac5ae352774b39&#45;&gt;dir_16862e911883a5d8b4e363a8a47bcec0 -->
<g id="edge5" class="edge">
<title>dir_0bc804708b4d922430ac5ae352774b39&#45;&gt;dir_16862e911883a5d8b4e363a8a47bcec0</title>
<path fill="none" stroke="black" d="M49.74,-71.7C50.07,-63.98 50.47,-54.71 50.84,-46.11"/>
<polygon fill="black" stroke="black" points="54.34,-46.25 51.27,-36.1 47.34,-45.95 54.34,-46.25"/>
<g id="a_edge5&#45;headlabel"><a xlink:href="dir_000001_000002.html" target="_top" xlink:title="3">
<text text-anchor="middle" x="57.02" y="-47.46" font-family="Helvetica,sans-Serif" font-size="10.00">3</text>
</a>
</g>
</g>
<!-- dir_e1ae423cbeb3bec2df28885c098c862e -->
<g id="node4" class="node">
<title>dir_e1ae423cbeb3bec2df28885c098c862e</title>
<g id="a_node4"><a xlink:href="dir_e1ae423cbeb3bec2df28885c098c862e.html" target="_top" xlink:title="livro">
<polygon fill="none" stroke="black" points="153,-36 99,-36 99,0 153,0 153,-36"/>
<text text-anchor="middle" x="126" y="-15.5" font-family="Helvetica,sans-Serif" font-size="10.00">livro</text>
</a>
</g>
</g>
<!-- dir_0bc804708b4d922430ac5ae352774b39&#45;&gt;dir_e1ae423cbeb3bec2df28885c098c862e -->
<g id="edge6" class="edge">
<title>dir_0bc804708b4d922430ac5ae352774b39&#45;&gt;dir_e1ae423cbeb3bec2df28885c098c862e</title>
<path fill="none" stroke="black" d="M68.03,-71.7C77.54,-63.05 89.21,-52.45 99.57,-43.03"/>
<polygon fill="black" stroke="black" points="102.14,-45.42 107.19,-36.1 97.43,-40.24 102.14,-45.42"/>
<g id="a_edge6&#45;headlabel"><a xlink:href="dir_000001_000003.html" target="_top" xlink:title="2">
<text text-anchor="middle" x="101.39" y="-47.44" font-family="Helvetica,sans-Serif" font-size="10.00">2</text>
</a>
</g>
</g>
<!-- dir_e1a043ec24964d47ad10b643005319ac&#45;&gt;dir_0bc804708b4d922430ac5ae352774b39 -->
<g id="edge2" class="edge">
<title>dir_e1a043ec24964d47ad10b643005319ac&#45;&gt;dir_0bc804708b4d922430ac5ae352774b39</title>
<path fill="none" stroke="black" d="M99.79,-90C97.16,-90 94.52,-90 91.88,-90"/>
<polygon fill="black" stroke="black" points="91.71,-86.5 81.71,-90 91.71,-93.5 91.71,-86.5"/>
<g id="a_edge2&#45;headlabel"><a xlink:href="dir_000004_000001.html" target="_top" xlink:title="1">
<text text-anchor="middle" x="95.31" y="-81.16" font-family="Helvetica,sans-Serif" font-size="10.00">1</text>
</a>
</g>
</g>
<!-- dir_e1a043ec24964d47ad10b643005319ac&#45;&gt;dir_16862e911883a5d8b4e363a8a47bcec0 -->
<g id="edge1" class="edge">
<title>dir_e1a043ec24964d47ad10b643005319ac&#45;&gt;dir_16862e911883a5d8b4e363a8a47bcec0</title>
<path fill="none" stroke="black" d="M109.21,-71.7C99.83,-63.05 88.32,-52.45 78.09,-43.03"/>
<polygon fill="black" stroke="black" points="80.3,-40.3 70.57,-36.1 75.55,-45.45 80.3,-40.3"/>
<g id="a_edge1&#45;headlabel"><a xlink:href="dir_000004_000002.html" target="_top" xlink:title="1">
<text text-anchor="middle" x="84.86" y="-38.15" font-family="Helvetica,sans-Serif" font-size="10.00">1</text>
</a>
</g>
</g>
<!-- dir_e1a043ec24964d47ad10b643005319ac&#45;&gt;dir_e1ae423cbeb3bec2df28885c098c862e -->
<g id="edge3" class="edge">
<title>dir_e1a043ec24964d47ad10b643005319ac&#45;&gt;dir_e1ae423cbeb3bec2df28885c098c862e</title>
<path fill="none" stroke="black" d="M127.51,-71.7C127.29,-63.98 127.02,-54.71 126.77,-46.11"/>
<polygon fill="black" stroke="black" points="130.27,-46 126.49,-36.1 123.28,-46.2 130.27,-46"/>
<g id="a_edge3&#45;headlabel"><a xlink:href="dir_000004_000003.html" target="_top" xlink:title="2">
<text text-anchor="middle" x="133.21" y="-47.01" font-family="Helvetica,sans-Serif" font-size="10.00">2</text>
</a>
</g>
</g>
</g>
</svg>
