<?xml version="1.0" encoding="UTF-8" standalone="no"?>
<!DOCTYPE svg PUBLIC "-//W3C//DTD SVG 1.1//EN"
 "http://www.w3.org/Graphics/SVG/1.1/DTD/svg11.dtd">
<!-- Generated by graphviz version 2.43.0 (0)
 -->
<!-- Title: include/pessoas Pages: 1 -->
<svg width="164pt" height="151pt"
 viewBox="0.00 0.00 163.50 151.00" xmlns="http://www.w3.org/2000/svg" xmlns:xlink="http://www.w3.org/1999/xlink">
<g id="graph0" class="graph" transform="scale(1 1) rotate(0) translate(4 147)">
<title>include/pessoas</title>
<polygon fill="white" stroke="transparent" points="-4,4 -4,-147 159.5,-147 159.5,4 -4,4"/>
<g id="clust1" class="cluster">
<title>clusterdir_d44c64559bbebec7f509842c48db8b23</title>
<g id="a_clust1"><a xlink:href="dir_d44c64559bbebec7f509842c48db8b23.html" target="_top" xlink:title="include">
<polygon fill="#ddddee" stroke="black" points="8,-64 8,-135 80,-135 80,-64 8,-64"/>
<text text-anchor="middle" x="44" y="-123" font-family="Helvetica,sans-Serif" font-size="10.00">include</text>
</a>
</g>
</g>
<!-- dir_e1a043ec24964d47ad10b643005319ac -->
<g id="node1" class="node">
<title>dir_e1a043ec24964d47ad10b643005319ac</title>
<g id="a_node1"><a xlink:href="dir_e1a043ec24964d47ad10b643005319ac.html" target="_top" xlink:title="pessoas">
<polygon fill="#eeeeff" stroke="black" points="72,-108 16,-108 16,-72 72,-72 72,-108"/>
<text text-anchor="middle" x="44" y="-87.5" font-family="Helvetica,sans-Serif" font-size="10.00">pessoas</text>
</a>
</g>
</g>
<!-- dir_16862e911883a5d8b4e363a8a47bcec0 -->
<g id="node2" class="node">
<title>dir_16862e911883a5d8b4e363a8a47bcec0</title>
<g id="a_node2"><a xlink:href="dir_16862e911883a5d8b4e363a8a47bcec0.html" target="_top" xlink:title="erros">
<polygon fill="none" stroke="black" points="74,-36 20,-36 20,0 74,0 74,-36"/>
<text text-anchor="middle" x="47" y="-15.5" font-family="Helvetica,sans-Serif" font-size="10.00">erros</text>
</a>
</g>
</g>
<!-- dir_e1a043ec24964d47ad10b643005319ac&#45;&gt;dir_16862e911883a5d8b4e363a8a47bcec0 -->
<g id="edge1" class="edge">
<title>dir_e1a043ec24964d47ad10b643005319ac&#45;&gt;dir_16862e911883a5d8b4e363a8a47bcec0</title>
<path fill="none" stroke="black" d="M44.74,-71.7C45.07,-63.98 45.47,-54.71 45.84,-46.11"/>
<polygon fill="black" stroke="black" points="49.34,-46.25 46.27,-36.1 42.34,-45.95 49.34,-46.25"/>
<g id="a_edge1&#45;headlabel"><a xlink:href="dir_000004_000002.html" target="_top" xlink:title="1">
<text text-anchor="middle" x="52.02" y="-47.46" font-family="Helvetica,sans-Serif" font-size="10.00">1</text>
</a>
</g>
</g>
<!-- dir_0bc804708b4d922430ac5ae352774b39 -->
<g id="node3" class="node">
<title>dir_0bc804708b4d922430ac5ae352774b39</title>
<g id="a_node3"><a xlink:href="dir_0bc804708b4d922430ac5ae352774b39.html" target="_top" xlink:title="biblioteca">
<polygon fill="none" stroke="black" points="155.5,-108 90.5,-108 90.5,-72 155.5,-72 155.5,-108"/>
<text text-anchor="middle" x="123" y="-87.5" font-family="Helvetica,sans-Serif" font-size="10.00">biblioteca</text>
</a>
</g>
</g>
<!-- dir_e1a043ec24964d47ad10b643005319ac&#45;&gt;dir_0bc804708b4d922430ac5ae352774b39 -->
<g id="edge2" class="edge">
<title>dir_e1a043ec24964d47ad10b643005319ac&#45;&gt;dir_0bc804708b4d922430ac5ae352774b39</title>
<path fill="none" stroke="black" d="M72.08,-90C74.85,-90 77.61,-90 80.37,-90"/>
<polygon fill="black" stroke="black" points="80.38,-93.5 90.38,-90 80.38,-86.5 80.38,-93.5"/>
<g id="a_edge2&#45;headlabel"><a xlink:href="dir_000004_000001.html" target="_top" xlink:title="1">
<text text-anchor="middle" x="76.79" y="-93.84" font-family="Helvetica,sans-Serif" font-size="10.00">1</text>
</a>
</g>
</g>
<!-- dir_e1ae423cbeb3bec2df28885c098c862e -->
<g id="node4" class="node">
<title>dir_e1ae423cbeb3bec2df28885c098c862e</title>
<g id="a_node4"><a xlink:href="dir_e1ae423cbeb3bec2df28885c098c862e.html" target="_top" xlink:title="livro">
<polygon fill="none" stroke="black" points="148,-36 94,-36 94,0 148,0 148,-36"/>
<text text-anchor="middle" x="121" y="-15.5" font-family="Helvetica,sans-Serif" font-size="10.00">livro</text>
</a>
</g>
</g>
<!-- dir_e1a043ec24964d47ad10b643005319ac&#45;&gt;dir_e1ae423cbeb3bec2df28885c098c862e -->
<g id="edge3" class="edge">
<title>dir_e1a043ec24964d47ad10b643005319ac&#45;&gt;dir_e1ae423cbeb3bec2df28885c098c862e</title>
<path fill="none" stroke="black" d="M63.03,-71.7C72.54,-63.05 84.21,-52.45 94.57,-43.03"/>
<polygon fill="black" stroke="black" points="97.14,-45.42 102.19,-36.1 92.43,-40.24 97.14,-45.42"/>
<g id="a_edge3&#45;headlabel"><a xlink:href="dir_000004_000003.html" target="_top" xlink:title="2">
<text text-anchor="middle" x="96.39" y="-47.44" font-family="Helvetica,sans-Serif" font-size="10.00">2</text>
</a>
</g>
</g>
<!-- dir_0bc804708b4d922430ac5ae352774b39&#45;&gt;dir_e1a043ec24964d47ad10b643005319ac -->
<g id="edge4" class="edge">
<title>dir_0bc804708b4d922430ac5ae352774b39&#45;&gt;dir_e1a043ec24964d47ad10b643005319ac</title>
<path fill="none" stroke="black" d="M90.38,-90C87.62,-90 84.85,-90 82.09,-90"/>
<polygon fill="black" stroke="black" points="82.08,-86.5 72.08,-90 82.08,-93.5 82.08,-86.5"/>
<g id="a_edge4&#45;headlabel"><a xlink:href="dir_000001_000004.html" target="_top" xlink:title="4">
<text text-anchor="middle" x="85.68" y="-81.16" font-family="Helvetica,sans-Serif" font-size="10.00">4</text>
</a>
</g>
</g>
<!-- dir_0bc804708b4d922430ac5ae352774b39&#45;&gt;dir_16862e911883a5d8b4e363a8a47bcec0 -->
<g id="edge5" class="edge">
<title>dir_0bc804708b4d922430ac5ae352774b39&#45;&gt;dir_16862e911883a5d8b4e363a8a47bcec0</title>
<path fill="none" stroke="black" d="M104.21,-71.7C94.83,-63.05 83.32,-52.45 73.09,-43.03"/>
<polygon fill="black" stroke="black" points="75.3,-40.3 65.57,-36.1 70.55,-45.45 75.3,-40.3"/>
<g id="a_edge5&#45;headlabel"><a xlink:href="dir_000001_000002.html" target="_top" xlink:title="3">
<text text-anchor="middle" x="79.86" y="-38.15" font-family="Helvetica,sans-Serif" font-size="10.00">3</text>
</a>
</g>
</g>
<!-- dir_0bc804708b4d922430ac5ae352774b39&#45;&gt;dir_e1ae423cbeb3bec2df28885c098c862e -->
<g id="edge6" class="edge">
<title>dir_0bc804708b4d922430ac5ae352774b39&#45;&gt;dir_e1ae423cbeb3bec2df28885c098c862e</title>
<path fill="none" stroke="black" d="M122.51,-71.7C122.29,-63.98 122.02,-54.71 121.77,-46.11"/>
<polygon fill="black" stroke="black" points="125.27,-46 121.49,-36.1 118.28,-46.2 125.27,-46"/>
<g id="a_edge6&#45;headlabel"><a xlink:href="dir_000001_000003.html" target="_top" xlink:title="2">
<text text-anchor="middle" x="128.21" y="-47.01" font-family="Helvetica,sans-Serif" font-size="10.00">2</text>
</a>
</g>
</g>
</g>
</svg>
