<?xml version="1.0" encoding="UTF-8" standalone="no"?>
<!DOCTYPE svg PUBLIC "-//W3C//DTD SVG 1.1//EN"
 "http://www.w3.org/Graphics/SVG/1.1/DTD/svg11.dtd">
<!-- Generated by graphviz version 2.43.0 (0)
 -->
<!-- Title: tests Pages: 1 -->
<svg width="150pt" height="116pt"
 viewBox="0.00 0.00 150.00 116.00" xmlns="http://www.w3.org/2000/svg" xmlns:xlink="http://www.w3.org/1999/xlink">
<g id="graph0" class="graph" transform="scale(1 1) rotate(0) translate(4 112)">
<title>tests</title>
<polygon fill="white" stroke="transparent" points="-4,4 -4,-112 146,-112 146,4 -4,4"/>
<!-- dir_59425e443f801f1f2fd8bbe4959a3ccf -->
<g id="node1" class="node">
<title>dir_59425e443f801f1f2fd8bbe4959a3ccf</title>
<g id="a_node1"><a xlink:href="dir_59425e443f801f1f2fd8bbe4959a3ccf.html" target="_top" xlink:title="tests">
<polygon fill="#eeeeff" stroke="black" points="102,-108 48,-108 48,-72 102,-72 102,-108"/>
<text text-anchor="middle" x="75" y="-87.5" font-family="Helvetica,sans-Serif" font-size="10.00">tests</text>
</a>
</g>
</g>
<!-- dir_44f42edf5dd23d4deca0321224e9ce90 -->
<g id="node2" class="node">
<title>dir_44f42edf5dd23d4deca0321224e9ce90</title>
<g id="a_node2"><a xlink:href="dir_44f42edf5dd23d4deca0321224e9ce90.html" target="_top" xlink:title="third_party">
<polygon fill="none" stroke="black" points="70,-36 0,-36 0,0 70,0 70,-36"/>
<text text-anchor="middle" x="35" y="-15.5" font-family="Helvetica,sans-Serif" font-size="10.00">third_party</text>
</a>
</g>
</g>
<!-- dir_59425e443f801f1f2fd8bbe4959a3ccf&#45;&gt;dir_44f42edf5dd23d4deca0321224e9ce90 -->
<g id="edge1" class="edge">
<title>dir_59425e443f801f1f2fd8bbe4959a3ccf&#45;&gt;dir_44f42edf5dd23d4deca0321224e9ce90</title>
<path fill="none" stroke="black" d="M65.11,-71.7C60.51,-63.64 54.94,-53.89 49.85,-44.98"/>
<polygon fill="black" stroke="black" points="52.77,-43.05 44.77,-36.1 46.7,-46.52 52.77,-43.05"/>
<g id="a_edge1&#45;headlabel"><a xlink:href="dir_000012_000013.html" target="_top" xlink:title="6">
<text text-anchor="middle" x="57.02" y="-42.26" font-family="Helvetica,sans-Serif" font-size="10.00">6</text>
</a>
</g>
</g>
<!-- dir_d44c64559bbebec7f509842c48db8b23 -->
<g id="node3" class="node">
<title>dir_d44c64559bbebec7f509842c48db8b23</title>
<g id="a_node3"><a xlink:href="dir_d44c64559bbebec7f509842c48db8b23.html" target="_top" xlink:title="include">
<polygon fill="white" stroke="red" points="142,-36 88,-36 88,0 142,0 142,-36"/>
<text text-anchor="middle" x="115" y="-15.5" font-family="Helvetica,sans-Serif" font-size="10.00">include</text>
</a>
</g>
</g>
<!-- dir_59425e443f801f1f2fd8bbe4959a3ccf&#45;&gt;dir_d44c64559bbebec7f509842c48db8b23 -->
<g id="edge2" class="edge">
<title>dir_59425e443f801f1f2fd8bbe4959a3ccf&#45;&gt;dir_d44c64559bbebec7f509842c48db8b23</title>
<path fill="none" stroke="black" d="M84.89,-71.7C89.49,-63.64 95.06,-53.89 100.15,-44.98"/>
<polygon fill="black" stroke="black" points="103.3,-46.52 105.23,-36.1 97.23,-43.05 103.3,-46.52"/>
<g id="a_edge2&#45;headlabel"><a xlink:href="dir_000012_000000.html" target="_top" xlink:title="6">
<text text-anchor="middle" x="103.99" y="-48.55" font-family="Helvetica,sans-Serif" font-size="10.00">6</text>
</a>
</g>
</g>
</g>
</svg>
