<?xml version="1.0" encoding="UTF-8" standalone="no"?>
<!DOCTYPE svg PUBLIC "-//W3C//DTD SVG 1.1//EN"
 "http://www.w3.org/Graphics/SVG/1.1/DTD/svg11.dtd">
<!-- Generated by graphviz version 2.43.0 (0)
 -->
<!-- Title: src Pages: 1 -->
<svg width="324pt" height="132pt"
 viewBox="0.00 0.00 324.00 132.00" xmlns="http://www.w3.org/2000/svg" xmlns:xlink="http://www.w3.org/1999/xlink">
<g id="graph0" class="graph" transform="scale(1 1) rotate(0) translate(4 128)">
<title>src</title>
<polygon fill="white" stroke="transparent" points="-4,4 -4,-128 320,-128 320,4 -4,4"/>
<g id="clust1" class="cluster">
<title>clusterdir_68267d1309a1af8e8297ef4c3efbcdba</title>
<g id="a_clust1"><a xlink:href="dir_68267d1309a1af8e8297ef4c3efbcdba.html" target="_top">
<polygon fill="#eeeeff" stroke="black" points="8,-64 8,-116 308,-116 308,-64 8,-64"/>
</a>
</g>
</g>
<!-- dir_68267d1309a1af8e8297ef4c3efbcdba -->
<g id="node1" class="node">
<title>dir_68267d1309a1af8e8297ef4c3efbcdba</title>
<text text-anchor="middle" x="273" y="-87.5" font-family="Helvetica,sans-Serif" font-size="10.00">src</text>
</g>
<!-- dir_83ddd60d10418e8186d45ae622b56e24 -->
<g id="node2" class="node">
<title>dir_83ddd60d10418e8186d45ae622b56e24</title>
<g id="a_node2"><a xlink:href="dir_83ddd60d10418e8186d45ae622b56e24.html" target="_top" xlink:title="biblioteca">
<polygon fill="white" stroke="black" points="227.5,-108 162.5,-108 162.5,-72 227.5,-72 227.5,-108"/>
<text text-anchor="middle" x="195" y="-87.5" font-family="Helvetica,sans-Serif" font-size="10.00">biblioteca</text>
</a>
</g>
</g>
<!-- dir_d44c64559bbebec7f509842c48db8b23 -->
<g id="node5" class="node">
<title>dir_d44c64559bbebec7f509842c48db8b23</title>
<g id="a_node5"><a xlink:href="dir_d44c64559bbebec7f509842c48db8b23.html" target="_top" xlink:title="include">
<polygon fill="white" stroke="red" points="144,-36 90,-36 90,0 144,0 144,-36"/>
<text text-anchor="middle" x="117" y="-15.5" font-family="Helvetica,sans-Serif" font-size="10.00">include</text>
</a>
</g>
</g>
<!-- dir_83ddd60d10418e8186d45ae622b56e24&#45;&gt;dir_d44c64559bbebec7f509842c48db8b23 -->
<g id="edge3" class="edge">
<title>dir_83ddd60d10418e8186d45ae622b56e24&#45;&gt;dir_d44c64559bbebec7f509842c48db8b23</title>
<path fill="none" stroke="black" d="M175.72,-71.7C166.08,-63.05 154.27,-52.45 143.77,-43.03"/>
<polygon fill="black" stroke="black" points="145.84,-40.18 136.06,-36.1 141.16,-45.39 145.84,-40.18"/>
<g id="a_edge3&#45;headlabel"><a xlink:href="dir_000009_000000.html" target="_top" xlink:title="3">
<text text-anchor="middle" x="150.41" y="-37.97" font-family="Helvetica,sans-Serif" font-size="10.00">3</text>
</a>
</g>
</g>
<!-- dir_8113687c0d7e57f9e5c069971be2cb0e -->
<g id="node3" class="node">
<title>dir_8113687c0d7e57f9e5c069971be2cb0e</title>
<g id="a_node3"><a xlink:href="dir_8113687c0d7e57f9e5c069971be2cb0e.html" target="_top" xlink:title="livro">
<polygon fill="white" stroke="black" points="144,-108 90,-108 90,-72 144,-72 144,-108"/>
<text text-anchor="middle" x="117" y="-87.5" font-family="Helvetica,sans-Serif" font-size="10.00">livro</text>
</a>
</g>
</g>
<!-- dir_8113687c0d7e57f9e5c069971be2cb0e&#45;&gt;dir_d44c64559bbebec7f509842c48db8b23 -->
<g id="edge2" class="edge">
<title>dir_8113687c0d7e57f9e5c069971be2cb0e&#45;&gt;dir_d44c64559bbebec7f509842c48db8b23</title>
<path fill="none" stroke="black" d="M117,-71.7C117,-63.98 117,-54.71 117,-46.11"/>
<polygon fill="black" stroke="black" points="120.5,-46.1 117,-36.1 113.5,-46.1 120.5,-46.1"/>
<g id="a_edge2&#45;headlabel"><a xlink:href="dir_000010_000000.html" target="_top" xlink:title="1">
<text text-anchor="middle" x="123.34" y="-47.2" font-family="Helvetica,sans-Serif" font-size="10.00">1</text>
</a>
</g>
</g>
<!-- dir_e240d41e74d156da942fc93f749dbb9c -->
<g id="node4" class="node">
<title>dir_e240d41e74d156da942fc93f749dbb9c</title>
<g id="a_node4"><a xlink:href="dir_e240d41e74d156da942fc93f749dbb9c.html" target="_top" xlink:title="pessoas">
<polygon fill="white" stroke="black" points="72,-108 16,-108 16,-72 72,-72 72,-108"/>
<text text-anchor="middle" x="44" y="-87.5" font-family="Helvetica,sans-Serif" font-size="10.00">pessoas</text>
</a>
</g>
</g>
<!-- dir_e240d41e74d156da942fc93f749dbb9c&#45;&gt;dir_d44c64559bbebec7f509842c48db8b23 -->
<g id="edge1" class="edge">
<title>dir_e240d41e74d156da942fc93f749dbb9c&#45;&gt;dir_d44c64559bbebec7f509842c48db8b23</title>
<path fill="none" stroke="black" d="M62.04,-71.7C71.06,-63.05 82.12,-52.45 91.94,-43.03"/>
<polygon fill="black" stroke="black" points="94.37,-45.55 99.16,-36.1 89.52,-40.5 94.37,-45.55"/>
<g id="a_edge1&#45;headlabel"><a xlink:href="dir_000011_000000.html" target="_top" xlink:title="3">
<text text-anchor="middle" x="93.74" y="-47.59" font-family="Helvetica,sans-Serif" font-size="10.00">3</text>
</a>
</g>
</g>
</g>
</svg>
