<?xml version="1.0" encoding="UTF-8" standalone="no"?>
<!DOCTYPE svg PUBLIC "-//W3C//DTD SVG 1.1//EN"
 "http://www.w3.org/Graphics/SVG/1.1/DTD/svg11.dtd">
<!-- Generated by graphviz version 2.43.0 (0)
 -->
<!-- Title: include Pages: 1 -->
<svg width="178pt" height="220pt"
 viewBox="0.00 0.00 178.00 220.00" xmlns="http://www.w3.org/2000/svg" xmlns:xlink="http://www.w3.org/1999/xlink">
<g id="graph0" class="graph" transform="scale(1 1) rotate(0) translate(4 216)">
<title>include</title>
<polygon fill="white" stroke="transparent" points="-4,4 -4,-216 174,-216 174,4 -4,4"/>
<g id="clust1" class="cluster">
<title>clusterdir_d44c64559bbebec7f509842c48db8b23</title>
<g id="a_clust1"><a xlink:href="dir_d44c64559bbebec7f509842c48db8b23.html" target="_top">
<polygon fill="#eeeeff" stroke="black" points="8,-8 8,-204 162,-204 162,-8 8,-8"/>
</a>
</g>
</g>
<!-- dir_d44c64559bbebec7f509842c48db8b23 -->
<g id="node1" class="node">
<title>dir_d44c64559bbebec7f509842c48db8b23</title>
<text text-anchor="middle" x="127" y="-175.5" font-family="Helvetica,sans-Serif" font-size="10.00">include</text>
</g>
<!-- dir_0bc804708b4d922430ac5ae352774b39 -->
<g id="node2" class="node">
<title>dir_0bc804708b4d922430ac5ae352774b39</title>
<g id="a_node2"><a xlink:href="dir_0bc804708b4d922430ac5ae352774b39.html" target="_top" xlink:title="biblioteca">
<polygon fill="white" stroke="black" points="81.5,-196 16.5,-196 16.5,-160 81.5,-160 81.5,-196"/>
<text text-anchor="middle" x="49" y="-175.5" font-family="Helvetica,sans-Serif" font-size="10.00">biblioteca</text>
</a>
</g>
</g>
<!-- dir_16862e911883a5d8b4e363a8a47bcec0 -->
<g id="node3" class="node">
<title>dir_16862e911883a5d8b4e363a8a47bcec0</title>
<g id="a_node3"><a xlink:href="dir_16862e911883a5d8b4e363a8a47bcec0.html" target="_top" xlink:title="erros">
<polygon fill="white" stroke="black" points="70,-52 16,-52 16,-16 70,-16 70,-52"/>
<text text-anchor="middle" x="43" y="-31.5" font-family="Helvetica,sans-Serif" font-size="10.00">erros</text>
</a>
</g>
</g>
<!-- dir_0bc804708b4d922430ac5ae352774b39&#45;&gt;dir_16862e911883a5d8b4e363a8a47bcec0 -->
<g id="edge5" class="edge">
<title>dir_0bc804708b4d922430ac5ae352774b39&#45;&gt;dir_16862e911883a5d8b4e363a8a47bcec0</title>
<path fill="none" stroke="black" d="M40.69,-159.79C36.26,-149.63 31.26,-136.38 29,-124 25.2,-103.16 29.34,-79.47 34.08,-61.77"/>
<polygon fill="black" stroke="black" points="37.46,-62.68 36.88,-52.1 30.73,-60.73 37.46,-62.68"/>
<g id="a_edge5&#45;headlabel"><a xlink:href="dir_000001_000002.html" target="_top" xlink:title="3">
<text text-anchor="middle" x="39.18" y="-64.43" font-family="Helvetica,sans-Serif" font-size="10.00">3</text>
</a>
</g>
</g>
<!-- dir_e1ae423cbeb3bec2df28885c098c862e -->
<g id="node4" class="node">
<title>dir_e1ae423cbeb3bec2df28885c098c862e</title>
<g id="a_node4"><a xlink:href="dir_e1ae423cbeb3bec2df28885c098c862e.html" target="_top" xlink:title="livro">
<polygon fill="white" stroke="black" points="142,-52 88,-52 88,-16 142,-16 142,-52"/>
<text text-anchor="middle" x="115" y="-31.5" font-family="Helvetica,sans-Serif" font-size="10.00">livro</text>
</a>
</g>
</g>
<!-- dir_0bc804708b4d922430ac5ae352774b39&#45;&gt;dir_e1ae423cbeb3bec2df28885c098c862e -->
<g id="edge6" class="edge">
<title>dir_0bc804708b4d922430ac5ae352774b39&#45;&gt;dir_e1ae423cbeb3bec2df28885c098c862e</title>
<path fill="none" stroke="black" d="M72.55,-159.95C83.63,-150.62 95.94,-138.09 103,-124 112.63,-104.77 115.37,-80.43 115.84,-62.06"/>
<polygon fill="black" stroke="black" points="119.34,-62.04 115.9,-52.02 112.34,-62 119.34,-62.04"/>
<g id="a_edge6&#45;headlabel"><a xlink:href="dir_000001_000003.html" target="_top" xlink:title="2">
<text text-anchor="middle" x="122.16" y="-63.15" font-family="Helvetica,sans-Serif" font-size="10.00">2</text>
</a>
</g>
</g>
<!-- dir_e1a043ec24964d47ad10b643005319ac -->
<g id="node5" class="node">
<title>dir_e1a043ec24964d47ad10b643005319ac</title>
<g id="a_node5"><a xlink:href="dir_e1a043ec24964d47ad10b643005319ac.html" target="_top" xlink:title="pessoas">
<polygon fill="white" stroke="black" points="94,-124 38,-124 38,-88 94,-88 94,-124"/>
<text text-anchor="middle" x="66" y="-103.5" font-family="Helvetica,sans-Serif" font-size="10.00">pessoas</text>
</a>
</g>
</g>
<!-- dir_0bc804708b4d922430ac5ae352774b39&#45;&gt;dir_e1a043ec24964d47ad10b643005319ac -->
<g id="edge4" class="edge">
<title>dir_0bc804708b4d922430ac5ae352774b39&#45;&gt;dir_e1a043ec24964d47ad10b643005319ac</title>
<path fill="none" stroke="black" d="M47.29,-159.7C48.38,-151.9 50.43,-142.51 52.9,-133.83"/>
<polygon fill="black" stroke="black" points="56.3,-134.69 55.95,-124.1 49.62,-132.6 56.3,-134.69"/>
<g id="a_edge4&#45;headlabel"><a xlink:href="dir_000001_000004.html" target="_top" xlink:title="4">
<text text-anchor="middle" x="57.93" y="-136.47" font-family="Helvetica,sans-Serif" font-size="10.00">4</text>
</a>
</g>
</g>
<!-- dir_e1a043ec24964d47ad10b643005319ac&#45;&gt;dir_0bc804708b4d922430ac5ae352774b39 -->
<g id="edge2" class="edge">
<title>dir_e1a043ec24964d47ad10b643005319ac&#45;&gt;dir_0bc804708b4d922430ac5ae352774b39</title>
<path fill="none" stroke="black" d="M67.74,-124.1C66.67,-131.88 64.62,-141.26 62.16,-149.95"/>
<polygon fill="black" stroke="black" points="58.76,-149.11 59.12,-159.7 65.44,-151.19 58.76,-149.11"/>
<g id="a_edge2&#45;headlabel"><a xlink:href="dir_000004_000001.html" target="_top" xlink:title="1">
<text text-anchor="middle" x="57.12" y="-142.33" font-family="Helvetica,sans-Serif" font-size="10.00">1</text>
</a>
</g>
</g>
<!-- dir_e1a043ec24964d47ad10b643005319ac&#45;&gt;dir_16862e911883a5d8b4e363a8a47bcec0 -->
<g id="edge1" class="edge">
<title>dir_e1a043ec24964d47ad10b643005319ac&#45;&gt;dir_16862e911883a5d8b4e363a8a47bcec0</title>
<path fill="none" stroke="black" d="M60.31,-87.7C57.75,-79.9 54.67,-70.51 51.82,-61.83"/>
<polygon fill="black" stroke="black" points="55.07,-60.51 48.62,-52.1 48.42,-62.7 55.07,-60.51"/>
<g id="a_edge1&#45;headlabel"><a xlink:href="dir_000004_000002.html" target="_top" xlink:title="1">
<text text-anchor="middle" x="58.89" y="-60.54" font-family="Helvetica,sans-Serif" font-size="10.00">1</text>
</a>
</g>
</g>
<!-- dir_e1a043ec24964d47ad10b643005319ac&#45;&gt;dir_e1ae423cbeb3bec2df28885c098c862e -->
<g id="edge3" class="edge">
<title>dir_e1a043ec24964d47ad10b643005319ac&#45;&gt;dir_e1ae423cbeb3bec2df28885c098c862e</title>
<path fill="none" stroke="black" d="M78.11,-87.7C83.87,-79.47 90.86,-69.48 97.21,-60.42"/>
<polygon fill="black" stroke="black" points="100.16,-62.3 103.03,-52.1 94.42,-58.29 100.16,-62.3"/>
<g id="a_edge3&#45;headlabel"><a xlink:href="dir_000004_000003.html" target="_top" xlink:title="2">
<text text-anchor="middle" x="100.42" y="-64.38" font-family="Helvetica,sans-Serif" font-size="10.00">2</text>
</a>
</g>
</g>
</g>
</svg>
