<?xml version="1.0" encoding="UTF-8" standalone="no"?>
<!DOCTYPE svg PUBLIC "-//W3C//DTD SVG 1.1//EN"
 "http://www.w3.org/Graphics/SVG/1.1/DTD/svg11.dtd">
<!-- Generated by graphviz version 2.43.0 (0)
 -->
<!-- Title: third_party/doctest.h Pages: 1 -->
<svg width="878pt" height="140pt"
 viewBox="0.00 0.00 878.00 140.00" xmlns="http://www.w3.org/2000/svg" xmlns:xlink="http://www.w3.org/1999/xlink">
<g id="graph0" class="graph" transform="scale(1 1) rotate(0) translate(4 136)">
<title>third_party/doctest.h</title>
<polygon fill="white" stroke="transparent" points="-4,4 -4,-136 874,-136 874,4 -4,4"/>
<!-- Node1 -->
<g id="node1" class="node">
<title>Node1</title>
<g id="a_node1"><a xlink:title=" ">
<polygon fill="#bfbfbf" stroke="black" points="373.5,-112.5 373.5,-131.5 491.5,-131.5 491.5,-112.5 373.5,-112.5"/>
<text text-anchor="middle" x="432.5" y="-119.5" font-family="Helvetica,sans-Serif" font-size="10.00">third_party/doctest.h</text>
</a>
</g>
</g>
<!-- Node2 -->
<g id="node2" class="node">
<title>Node2</title>
<g id="a_node2"><a xlink:href="teste__admin_8hpp.html" target="_top" xlink:title=" ">
<polygon fill="white" stroke="black" points="0,-56.5 0,-75.5 125,-75.5 125,-56.5 0,-56.5"/>
<text text-anchor="middle" x="62.5" y="-63.5" font-family="Helvetica,sans-Serif" font-size="10.00">tests/teste_admin.hpp</text>
</a>
</g>
</g>
<!-- Node1&#45;&gt;Node2 -->
<g id="edge1" class="edge">
<title>Node1&#45;&gt;Node2</title>
<path fill="none" stroke="midnightblue" d="M363.84,-110.98C293.95,-100.78 186.77,-85.14 120.85,-75.52"/>
<polygon fill="midnightblue" stroke="midnightblue" points="363.47,-114.46 373.87,-112.44 364.48,-107.54 363.47,-114.46"/>
</g>
<!-- Node4 -->
<g id="node4" class="node">
<title>Node4</title>
<g id="a_node4"><a xlink:href="teste__biblioteca_8hpp.html" target="_top" xlink:title=" ">
<polygon fill="white" stroke="black" points="143,-56.5 143,-75.5 286,-75.5 286,-56.5 143,-56.5"/>
<text text-anchor="middle" x="214.5" y="-63.5" font-family="Helvetica,sans-Serif" font-size="10.00">tests/teste_biblioteca.hpp</text>
</a>
</g>
</g>
<!-- Node1&#45;&gt;Node4 -->
<g id="edge3" class="edge">
<title>Node1&#45;&gt;Node4</title>
<path fill="none" stroke="midnightblue" d="M388.19,-110.02C347.01,-99.82 286.53,-84.84 248.88,-75.52"/>
<polygon fill="midnightblue" stroke="midnightblue" points="387.41,-113.44 397.96,-112.44 389.09,-106.64 387.41,-113.44"/>
</g>
<!-- Node5 -->
<g id="node5" class="node">
<title>Node5</title>
<g id="a_node5"><a xlink:href="teste__livro_8hpp.html" target="_top" xlink:title=" ">
<polygon fill="white" stroke="black" points="304.5,-56.5 304.5,-75.5 420.5,-75.5 420.5,-56.5 304.5,-56.5"/>
<text text-anchor="middle" x="362.5" y="-63.5" font-family="Helvetica,sans-Serif" font-size="10.00">tests/teste_livro.hpp</text>
</a>
</g>
</g>
<!-- Node1&#45;&gt;Node5 -->
<g id="edge5" class="edge">
<title>Node1&#45;&gt;Node5</title>
<path fill="none" stroke="midnightblue" d="M413.19,-106.1C400.59,-96.38 384.57,-84.03 373.95,-75.83"/>
<polygon fill="midnightblue" stroke="midnightblue" points="411.2,-108.99 421.25,-112.32 415.47,-103.44 411.2,-108.99"/>
</g>
<!-- Node6 -->
<g id="node6" class="node">
<title>Node6</title>
<g id="a_node6"><a xlink:href="teste__pessoa_8hpp.html" target="_top" xlink:title=" ">
<polygon fill="white" stroke="black" points="439,-56.5 439,-75.5 568,-75.5 568,-56.5 439,-56.5"/>
<text text-anchor="middle" x="503.5" y="-63.5" font-family="Helvetica,sans-Serif" font-size="10.00">tests/teste_pessoa.hpp</text>
</a>
</g>
</g>
<!-- Node1&#45;&gt;Node6 -->
<g id="edge7" class="edge">
<title>Node1&#45;&gt;Node6</title>
<path fill="none" stroke="midnightblue" d="M452.09,-106.1C464.87,-96.38 481.11,-84.03 491.89,-75.83"/>
<polygon fill="midnightblue" stroke="midnightblue" points="449.75,-103.48 443.91,-112.32 453.99,-109.06 449.75,-103.48"/>
</g>
<!-- Node7 -->
<g id="node7" class="node">
<title>Node7</title>
<g id="a_node7"><a xlink:href="teste__sistema_8hpp.html" target="_top" xlink:title=" ">
<polygon fill="white" stroke="black" points="586.5,-56.5 586.5,-75.5 720.5,-75.5 720.5,-56.5 586.5,-56.5"/>
<text text-anchor="middle" x="653.5" y="-63.5" font-family="Helvetica,sans-Serif" font-size="10.00">tests/teste_sistema.hpp</text>
</a>
</g>
</g>
<!-- Node1&#45;&gt;Node7 -->
<g id="edge9" class="edge">
<title>Node1&#45;&gt;Node7</title>
<path fill="none" stroke="midnightblue" d="M477.42,-110.02C519.17,-99.82 580.48,-84.84 618.65,-75.52"/>
<polygon fill="midnightblue" stroke="midnightblue" points="476.4,-106.67 467.52,-112.44 478.06,-113.47 476.4,-106.67"/>
</g>
<!-- Node8 -->
<g id="node8" class="node">
<title>Node8</title>
<g id="a_node8"><a xlink:href="teste__usuario_8hpp.html" target="_top" xlink:title=" ">
<polygon fill="white" stroke="black" points="739,-56.5 739,-75.5 870,-75.5 870,-56.5 739,-56.5"/>
<text text-anchor="middle" x="804.5" y="-63.5" font-family="Helvetica,sans-Serif" font-size="10.00">tests/teste_usuario.hpp</text>
</a>
</g>
</g>
<!-- Node1&#45;&gt;Node8 -->
<g id="edge11" class="edge">
<title>Node1&#45;&gt;Node8</title>
<path fill="none" stroke="midnightblue" d="M501.53,-110.98C571.8,-100.78 679.56,-85.14 745.83,-75.52"/>
<polygon fill="midnightblue" stroke="midnightblue" points="500.84,-107.54 491.44,-112.44 501.84,-114.47 500.84,-107.54"/>
</g>
<!-- Node3 -->
<g id="node3" class="node">
<title>Node3</title>
<g id="a_node3"><a xlink:href="teste_8cpp.html" target="_top" xlink:title=" ">
<polygon fill="white" stroke="black" points="388,-0.5 388,-19.5 477,-19.5 477,-0.5 388,-0.5"/>
<text text-anchor="middle" x="432.5" y="-7.5" font-family="Helvetica,sans-Serif" font-size="10.00">tests/teste.cpp</text>
</a>
</g>
</g>
<!-- Node2&#45;&gt;Node3 -->
<g id="edge2" class="edge">
<title>Node2&#45;&gt;Node3</title>
<path fill="none" stroke="midnightblue" d="M131.41,-54.94C206.38,-44 324.04,-26.83 387.81,-17.52"/>
<polygon fill="midnightblue" stroke="midnightblue" points="130.52,-51.54 121.13,-56.44 131.53,-58.46 130.52,-51.54"/>
</g>
<!-- Node4&#45;&gt;Node3 -->
<g id="edge4" class="edge">
<title>Node4&#45;&gt;Node3</title>
<path fill="none" stroke="midnightblue" d="M258.81,-54.02C299.99,-43.82 360.47,-28.84 398.12,-19.52"/>
<polygon fill="midnightblue" stroke="midnightblue" points="257.91,-50.64 249.04,-56.44 259.59,-57.44 257.91,-50.64"/>
</g>
<!-- Node5&#45;&gt;Node3 -->
<g id="edge6" class="edge">
<title>Node5&#45;&gt;Node3</title>
<path fill="none" stroke="midnightblue" d="M381.81,-50.1C394.41,-40.38 410.43,-28.03 421.05,-19.83"/>
<polygon fill="midnightblue" stroke="midnightblue" points="379.53,-47.44 373.75,-56.32 383.8,-52.99 379.53,-47.44"/>
</g>
<!-- Node6&#45;&gt;Node3 -->
<g id="edge8" class="edge">
<title>Node6&#45;&gt;Node3</title>
<path fill="none" stroke="midnightblue" d="M483.91,-50.1C471.13,-40.38 454.89,-28.03 444.11,-19.83"/>
<polygon fill="midnightblue" stroke="midnightblue" points="482.01,-53.06 492.09,-56.32 486.25,-47.48 482.01,-53.06"/>
</g>
<!-- Node7&#45;&gt;Node3 -->
<g id="edge10" class="edge">
<title>Node7&#45;&gt;Node3</title>
<path fill="none" stroke="midnightblue" d="M608.58,-54.02C566.83,-43.82 505.52,-28.84 467.35,-19.52"/>
<polygon fill="midnightblue" stroke="midnightblue" points="607.94,-57.47 618.48,-56.44 609.6,-50.67 607.94,-57.47"/>
</g>
<!-- Node8&#45;&gt;Node3 -->
<g id="edge12" class="edge">
<title>Node8&#45;&gt;Node3</title>
<path fill="none" stroke="midnightblue" d="M735.2,-54.94C659.71,-43.98 541.2,-26.78 477.16,-17.48"/>
<polygon fill="midnightblue" stroke="midnightblue" points="735.16,-58.47 745.56,-56.44 736.16,-51.54 735.16,-58.47"/>
</g>
</g>
</svg>
