<?xml version="1.0" encoding="UTF-8" standalone="no"?>
<!DOCTYPE svg PUBLIC "-//W3C//DTD SVG 1.1//EN"
 "http://www.w3.org/Graphics/SVG/1.1/DTD/svg11.dtd">
<!-- Generated by graphviz version 2.43.0 (0)
 -->
<!-- Title: third_party/doctest.h Pages: 1 -->
<svg width="2089pt" height="84pt"
 viewBox="0.00 0.00 2088.50 84.00" xmlns="http://www.w3.org/2000/svg" xmlns:xlink="http://www.w3.org/1999/xlink">
<g id="graph0" class="graph" transform="scale(1 1) rotate(0) translate(4 80)">
<title>third_party/doctest.h</title>
<polygon fill="white" stroke="transparent" points="-4,4 -4,-80 2084.5,-80 2084.5,4 -4,4"/>
<!-- Node1 -->
<g id="node1" class="node">
<title>Node1</title>
<g id="a_node1"><a xlink:title=" ">
<polygon fill="#bfbfbf" stroke="black" points="962.5,-56.5 962.5,-75.5 1080.5,-75.5 1080.5,-56.5 962.5,-56.5"/>
<text text-anchor="middle" x="1021.5" y="-63.5" font-family="Helvetica,sans-Serif" font-size="10.00">third_party/doctest.h</text>
</a>
</g>
</g>
<!-- Node2 -->
<g id="node2" class="node">
<title>Node2</title>
<g id="a_node2"><a xlink:title=" ">
<polygon fill="white" stroke="#bfbfbf" points="0,-0.5 0,-19.5 55,-19.5 55,-0.5 0,-0.5"/>
<text text-anchor="middle" x="27.5" y="-7.5" font-family="Helvetica,sans-Serif" font-size="10.00">signal.h</text>
</a>
</g>
</g>
<!-- Node1&#45;&gt;Node2 -->
<g id="edge1" class="edge">
<title>Node1&#45;&gt;Node2</title>
<path fill="none" stroke="midnightblue" d="M962.19,-63.7C784.61,-59.58 258.07,-45.61 65.29,-19.76"/>
<polygon fill="midnightblue" stroke="midnightblue" points="65.66,-16.28 55.27,-18.36 64.69,-23.21 65.66,-16.28"/>
</g>
<!-- Node3 -->
<g id="node3" class="node">
<title>Node3</title>
<g id="a_node3"><a xlink:title=" ">
<polygon fill="white" stroke="#bfbfbf" points="73.5,-0.5 73.5,-19.5 117.5,-19.5 117.5,-0.5 73.5,-0.5"/>
<text text-anchor="middle" x="95.5" y="-7.5" font-family="Helvetica,sans-Serif" font-size="10.00">ctime</text>
</a>
</g>
</g>
<!-- Node1&#45;&gt;Node3 -->
<g id="edge2" class="edge">
<title>Node1&#45;&gt;Node3</title>
<path fill="none" stroke="midnightblue" d="M962.34,-63.82C792.91,-60.15 307.06,-47.63 127.8,-19.76"/>
<polygon fill="midnightblue" stroke="midnightblue" points="128.14,-16.27 117.71,-18.12 127.02,-23.18 128.14,-16.27"/>
</g>
<!-- Node4 -->
<g id="node4" class="node">
<title>Node4</title>
<g id="a_node4"><a xlink:title=" ">
<polygon fill="white" stroke="#bfbfbf" points="136,-0.5 136,-19.5 183,-19.5 183,-0.5 136,-0.5"/>
<text text-anchor="middle" x="159.5" y="-7.5" font-family="Helvetica,sans-Serif" font-size="10.00">cmath</text>
</a>
</g>
</g>
<!-- Node1&#45;&gt;Node4 -->
<g id="edge3" class="edge">
<title>Node1&#45;&gt;Node4</title>
<path fill="none" stroke="midnightblue" d="M962.38,-63.42C801.91,-58.88 359.66,-44.61 193.25,-19.68"/>
<polygon fill="midnightblue" stroke="midnightblue" points="193.58,-16.19 183.16,-18.1 192.5,-23.1 193.58,-16.19"/>
</g>
<!-- Node5 -->
<g id="node5" class="node">
<title>Node5</title>
<g id="a_node5"><a xlink:title=" ">
<polygon fill="white" stroke="#bfbfbf" points="201.5,-0.5 201.5,-19.5 251.5,-19.5 251.5,-0.5 201.5,-0.5"/>
<text text-anchor="middle" x="226.5" y="-7.5" font-family="Helvetica,sans-Serif" font-size="10.00">climits</text>
</a>
</g>
</g>
<!-- Node1&#45;&gt;Node5 -->
<g id="edge4" class="edge">
<title>Node1&#45;&gt;Node5</title>
<path fill="none" stroke="midnightblue" d="M962.34,-65.5C835.4,-65.72 527.52,-61.63 261.86,-19.88"/>
<polygon fill="midnightblue" stroke="midnightblue" points="262.06,-16.37 251.63,-18.25 260.96,-23.28 262.06,-16.37"/>
</g>
<!-- Node6 -->
<g id="node6" class="node">
<title>Node6</title>
<g id="a_node6"><a xlink:title=" ">
<polygon fill="white" stroke="#bfbfbf" points="270,-0.5 270,-19.5 307,-19.5 307,-0.5 270,-0.5"/>
<text text-anchor="middle" x="288.5" y="-7.5" font-family="Helvetica,sans-Serif" font-size="10.00">new</text>
</a>
</g>
</g>
<!-- Node1&#45;&gt;Node6 -->
<g id="edge5" class="edge">
<title>Node1&#45;&gt;Node6</title>
<path fill="none" stroke="midnightblue" d="M962.34,-63.11C819.53,-58.24 457.94,-44.07 317.16,-19.52"/>
<polygon fill="midnightblue" stroke="midnightblue" points="317.48,-16.02 307.01,-17.66 316.21,-22.9 317.48,-16.02"/>
</g>
<!-- Node7 -->
<g id="node7" class="node">
<title>Node7</title>
<g id="a_node7"><a xlink:title=" ">
<polygon fill="white" stroke="#bfbfbf" points="325.5,-0.5 325.5,-19.5 371.5,-19.5 371.5,-0.5 325.5,-0.5"/>
<text text-anchor="middle" x="348.5" y="-7.5" font-family="Helvetica,sans-Serif" font-size="10.00">cstdio</text>
</a>
</g>
</g>
<!-- Node1&#45;&gt;Node7 -->
<g id="edge6" class="edge">
<title>Node1&#45;&gt;Node7</title>
<path fill="none" stroke="midnightblue" d="M962.24,-64.86C850.29,-63.73 600.08,-57.04 381.83,-19.88"/>
<polygon fill="midnightblue" stroke="midnightblue" points="382.24,-16.4 371.79,-18.14 381.05,-23.3 382.24,-16.4"/>
</g>
<!-- Node8 -->
<g id="node8" class="node">
<title>Node8</title>
<g id="a_node8"><a xlink:title=" ">
<polygon fill="white" stroke="#bfbfbf" points="390,-0.5 390,-19.5 439,-19.5 439,-0.5 390,-0.5"/>
<text text-anchor="middle" x="414.5" y="-7.5" font-family="Helvetica,sans-Serif" font-size="10.00">cstdlib</text>
</a>
</g>
</g>
<!-- Node1&#45;&gt;Node8 -->
<g id="edge7" class="edge">
<title>Node1&#45;&gt;Node8</title>
<path fill="none" stroke="midnightblue" d="M962.09,-63.86C859.33,-61.11 641.78,-51.92 449.29,-19.81"/>
<polygon fill="midnightblue" stroke="midnightblue" points="449.71,-16.33 439.27,-18.11 448.54,-23.23 449.71,-16.33"/>
</g>
<!-- Node9 -->
<g id="node9" class="node">
<title>Node9</title>
<g id="a_node9"><a xlink:title=" ">
<polygon fill="white" stroke="#bfbfbf" points="457.5,-0.5 457.5,-19.5 507.5,-19.5 507.5,-0.5 457.5,-0.5"/>
<text text-anchor="middle" x="482.5" y="-7.5" font-family="Helvetica,sans-Serif" font-size="10.00">cstring</text>
</a>
</g>
</g>
<!-- Node1&#45;&gt;Node9 -->
<g id="edge8" class="edge">
<title>Node1&#45;&gt;Node9</title>
<path fill="none" stroke="midnightblue" d="M962.37,-62.99C869.48,-59.11 683.67,-48.47 517.55,-19.89"/>
<polygon fill="midnightblue" stroke="midnightblue" points="518.1,-16.44 507.65,-18.17 516.89,-23.33 518.1,-16.44"/>
</g>
<!-- Node10 -->
<g id="node10" class="node">
<title>Node10</title>
<g id="a_node10"><a xlink:title=" ">
<polygon fill="white" stroke="#bfbfbf" points="525.5,-0.5 525.5,-19.5 569.5,-19.5 569.5,-0.5 525.5,-0.5"/>
<text text-anchor="middle" x="547.5" y="-7.5" font-family="Helvetica,sans-Serif" font-size="10.00">limits</text>
</a>
</g>
</g>
<!-- Node1&#45;&gt;Node10 -->
<g id="edge9" class="edge">
<title>Node1&#45;&gt;Node10</title>
<path fill="none" stroke="midnightblue" d="M962.24,-62.4C878.8,-57.98 721.91,-46.93 579.93,-19.95"/>
<polygon fill="midnightblue" stroke="midnightblue" points="580.22,-16.44 569.73,-17.98 578.89,-23.31 580.22,-16.44"/>
</g>
<!-- Node11 -->
<g id="node11" class="node">
<title>Node11</title>
<g id="a_node11"><a xlink:title=" ">
<polygon fill="white" stroke="#bfbfbf" points="588,-0.5 588,-19.5 633,-19.5 633,-0.5 588,-0.5"/>
<text text-anchor="middle" x="610.5" y="-7.5" font-family="Helvetica,sans-Serif" font-size="10.00">utility</text>
</a>
</g>
</g>
<!-- Node1&#45;&gt;Node11 -->
<g id="edge10" class="edge">
<title>Node1&#45;&gt;Node11</title>
<path fill="none" stroke="midnightblue" d="M962.43,-61.03C889.35,-55.46 761.06,-43.47 643.01,-20.03"/>
<polygon fill="midnightblue" stroke="midnightblue" points="643.57,-16.57 633.08,-18.02 642.19,-23.43 643.57,-16.57"/>
</g>
<!-- Node12 -->
<g id="node12" class="node">
<title>Node12</title>
<g id="a_node12"><a xlink:title=" ">
<polygon fill="white" stroke="#bfbfbf" points="651,-0.5 651,-19.5 706,-19.5 706,-0.5 651,-0.5"/>
<text text-anchor="middle" x="678.5" y="-7.5" font-family="Helvetica,sans-Serif" font-size="10.00">fstream</text>
</a>
</g>
</g>
<!-- Node1&#45;&gt;Node12 -->
<g id="edge11" class="edge">
<title>Node1&#45;&gt;Node12</title>
<path fill="none" stroke="midnightblue" d="M962.28,-57.94C902.61,-50.46 807.71,-37.55 716.3,-20"/>
<polygon fill="midnightblue" stroke="midnightblue" points="716.8,-16.53 706.32,-18.06 715.47,-23.4 716.8,-16.53"/>
</g>
<!-- Node13 -->
<g id="node13" class="node">
<title>Node13</title>
<g id="a_node13"><a xlink:title=" ">
<polygon fill="white" stroke="#bfbfbf" points="724.5,-0.5 724.5,-19.5 780.5,-19.5 780.5,-0.5 724.5,-0.5"/>
<text text-anchor="middle" x="752.5" y="-7.5" font-family="Helvetica,sans-Serif" font-size="10.00">sstream</text>
</a>
</g>
</g>
<!-- Node1&#45;&gt;Node13 -->
<g id="edge12" class="edge">
<title>Node1&#45;&gt;Node13</title>
<path fill="none" stroke="midnightblue" d="M973.82,-56.43C929.03,-48.23 859.89,-35.18 790.92,-20.23"/>
<polygon fill="midnightblue" stroke="midnightblue" points="791.27,-16.73 780.75,-18.02 789.77,-23.57 791.27,-16.73"/>
</g>
<!-- Node14 -->
<g id="node14" class="node">
<title>Node14</title>
<g id="a_node14"><a xlink:title=" ">
<polygon fill="white" stroke="#bfbfbf" points="798.5,-0.5 798.5,-19.5 858.5,-19.5 858.5,-0.5 798.5,-0.5"/>
<text text-anchor="middle" x="828.5" y="-7.5" font-family="Helvetica,sans-Serif" font-size="10.00">iostream</text>
</a>
</g>
</g>
<!-- Node1&#45;&gt;Node14 -->
<g id="edge13" class="edge">
<title>Node1&#45;&gt;Node14</title>
<path fill="none" stroke="midnightblue" d="M990.92,-56.44C957.79,-47.17 904.8,-32.35 868.41,-22.17"/>
<polygon fill="midnightblue" stroke="midnightblue" points="869.19,-18.75 858.62,-19.43 867.31,-25.49 869.19,-18.75"/>
</g>
<!-- Node15 -->
<g id="node15" class="node">
<title>Node15</title>
<g id="a_node15"><a xlink:title=" ">
<polygon fill="white" stroke="#bfbfbf" points="876.5,-0.5 876.5,-19.5 940.5,-19.5 940.5,-0.5 876.5,-0.5"/>
<text text-anchor="middle" x="908.5" y="-7.5" font-family="Helvetica,sans-Serif" font-size="10.00">algorithm</text>
</a>
</g>
</g>
<!-- Node1&#45;&gt;Node15 -->
<g id="edge14" class="edge">
<title>Node1&#45;&gt;Node15</title>
<path fill="none" stroke="midnightblue" d="M1003.59,-56.44C985.25,-47.68 956.49,-33.94 935.41,-23.86"/>
<polygon fill="midnightblue" stroke="midnightblue" points="936.85,-20.67 926.32,-19.52 933.83,-26.99 936.85,-20.67"/>
</g>
<!-- Node16 -->
<g id="node16" class="node">
<title>Node16</title>
<g id="a_node16"><a xlink:title=" ">
<polygon fill="white" stroke="#bfbfbf" points="958.5,-0.5 958.5,-19.5 1014.5,-19.5 1014.5,-0.5 958.5,-0.5"/>
<text text-anchor="middle" x="986.5" y="-7.5" font-family="Helvetica,sans-Serif" font-size="10.00">iomanip</text>
</a>
</g>
</g>
<!-- Node1&#45;&gt;Node16 -->
<g id="edge15" class="edge">
<title>Node1&#45;&gt;Node16</title>
<path fill="none" stroke="midnightblue" d="M1015.72,-56.08C1010.83,-48.53 1003.67,-37.49 997.67,-28.23"/>
<polygon fill="midnightblue" stroke="midnightblue" points="1000.55,-26.24 992.17,-19.75 994.67,-30.05 1000.55,-26.24"/>
</g>
<!-- Node17 -->
<g id="node17" class="node">
<title>Node17</title>
<g id="a_node17"><a xlink:title=" ">
<polygon fill="white" stroke="#bfbfbf" points="1033,-0.5 1033,-19.5 1080,-19.5 1080,-0.5 1033,-0.5"/>
<text text-anchor="middle" x="1056.5" y="-7.5" font-family="Helvetica,sans-Serif" font-size="10.00">vector</text>
</a>
</g>
</g>
<!-- Node1&#45;&gt;Node17 -->
<g id="edge16" class="edge">
<title>Node1&#45;&gt;Node17</title>
<path fill="none" stroke="midnightblue" d="M1027.28,-56.08C1032.17,-48.53 1039.33,-37.49 1045.33,-28.23"/>
<polygon fill="midnightblue" stroke="midnightblue" points="1048.33,-30.05 1050.83,-19.75 1042.45,-26.24 1048.33,-30.05"/>
</g>
<!-- Node18 -->
<g id="node18" class="node">
<title>Node18</title>
<g id="a_node18"><a xlink:title=" ">
<polygon fill="white" stroke="#bfbfbf" points="1098.5,-0.5 1098.5,-19.5 1148.5,-19.5 1148.5,-0.5 1098.5,-0.5"/>
<text text-anchor="middle" x="1123.5" y="-7.5" font-family="Helvetica,sans-Serif" font-size="10.00">atomic</text>
</a>
</g>
</g>
<!-- Node1&#45;&gt;Node18 -->
<g id="edge17" class="edge">
<title>Node1&#45;&gt;Node18</title>
<path fill="none" stroke="midnightblue" d="M1037.89,-56.32C1054.17,-47.7 1079.37,-34.36 1098.22,-24.39"/>
<polygon fill="midnightblue" stroke="midnightblue" points="1099.95,-27.43 1107.15,-19.65 1096.68,-21.24 1099.95,-27.43"/>
</g>
<!-- Node19 -->
<g id="node19" class="node">
<title>Node19</title>
<g id="a_node19"><a xlink:title=" ">
<polygon fill="white" stroke="#bfbfbf" points="1166.5,-0.5 1166.5,-19.5 1214.5,-19.5 1214.5,-0.5 1166.5,-0.5"/>
<text text-anchor="middle" x="1190.5" y="-7.5" font-family="Helvetica,sans-Serif" font-size="10.00">mutex</text>
</a>
</g>
</g>
<!-- Node1&#45;&gt;Node19 -->
<g id="edge18" class="edge">
<title>Node1&#45;&gt;Node19</title>
<path fill="none" stroke="midnightblue" d="M1048.28,-56.44C1077.59,-47.08 1124.65,-32.04 1156.53,-21.85"/>
<polygon fill="midnightblue" stroke="midnightblue" points="1157.85,-25.11 1166.31,-18.73 1155.72,-18.44 1157.85,-25.11"/>
</g>
<!-- Node20 -->
<g id="node20" class="node">
<title>Node20</title>
<g id="a_node20"><a xlink:title=" ">
<polygon fill="white" stroke="#bfbfbf" points="1232.5,-0.5 1232.5,-19.5 1264.5,-19.5 1264.5,-0.5 1232.5,-0.5"/>
<text text-anchor="middle" x="1248.5" y="-7.5" font-family="Helvetica,sans-Serif" font-size="10.00">set</text>
</a>
</g>
</g>
<!-- Node1&#45;&gt;Node20 -->
<g id="edge19" class="edge">
<title>Node1&#45;&gt;Node20</title>
<path fill="none" stroke="midnightblue" d="M1067.65,-56.45C1106.69,-48.82 1164.24,-36.68 1222.69,-19.95"/>
<polygon fill="midnightblue" stroke="midnightblue" points="1223.83,-23.26 1232.46,-17.11 1221.88,-16.54 1223.83,-23.26"/>
</g>
<!-- Node21 -->
<g id="node21" class="node">
<title>Node21</title>
<g id="a_node21"><a xlink:title=" ">
<polygon fill="white" stroke="#bfbfbf" points="1282.5,-0.5 1282.5,-19.5 1320.5,-19.5 1320.5,-0.5 1282.5,-0.5"/>
<text text-anchor="middle" x="1301.5" y="-7.5" font-family="Helvetica,sans-Serif" font-size="10.00">map</text>
</a>
</g>
</g>
<!-- Node1&#45;&gt;Node21 -->
<g id="edge20" class="edge">
<title>Node1&#45;&gt;Node21</title>
<path fill="none" stroke="midnightblue" d="M1080.53,-56.75C1129.59,-49.38 1201.36,-37.39 1272.31,-20.03"/>
<polygon fill="midnightblue" stroke="midnightblue" points="1273.46,-23.35 1282.32,-17.54 1271.77,-16.56 1273.46,-23.35"/>
</g>
<!-- Node22 -->
<g id="node22" class="node">
<title>Node22</title>
<g id="a_node22"><a xlink:title=" ">
<polygon fill="white" stroke="#bfbfbf" points="1338.5,-0.5 1338.5,-19.5 1424.5,-19.5 1424.5,-0.5 1338.5,-0.5"/>
<text text-anchor="middle" x="1381.5" y="-7.5" font-family="Helvetica,sans-Serif" font-size="10.00">unordered_set</text>
</a>
</g>
</g>
<!-- Node1&#45;&gt;Node22 -->
<g id="edge21" class="edge">
<title>Node1&#45;&gt;Node22</title>
<path fill="none" stroke="midnightblue" d="M1080.62,-56.83C1140.49,-48.46 1236.04,-34.8 1328.31,-20.16"/>
<polygon fill="midnightblue" stroke="midnightblue" points="1329.06,-23.58 1338.38,-18.55 1327.96,-16.67 1329.06,-23.58"/>
</g>
<!-- Node23 -->
<g id="node23" class="node">
<title>Node23</title>
<g id="a_node23"><a xlink:title=" ">
<polygon fill="white" stroke="#bfbfbf" points="1443,-0.5 1443,-19.5 1508,-19.5 1508,-0.5 1443,-0.5"/>
<text text-anchor="middle" x="1475.5" y="-7.5" font-family="Helvetica,sans-Serif" font-size="10.00">exception</text>
</a>
</g>
</g>
<!-- Node1&#45;&gt;Node23 -->
<g id="edge22" class="edge">
<title>Node1&#45;&gt;Node23</title>
<path fill="none" stroke="midnightblue" d="M1080.77,-60.44C1159.01,-54 1301.2,-40.83 1432.32,-20.04"/>
<polygon fill="midnightblue" stroke="midnightblue" points="1433.23,-23.44 1442.55,-18.39 1432.12,-16.52 1433.23,-23.44"/>
</g>
<!-- Node24 -->
<g id="node24" class="node">
<title>Node24</title>
<g id="a_node24"><a xlink:title=" ">
<polygon fill="white" stroke="#bfbfbf" points="1526,-0.5 1526,-19.5 1591,-19.5 1591,-0.5 1526,-0.5"/>
<text text-anchor="middle" x="1558.5" y="-7.5" font-family="Helvetica,sans-Serif" font-size="10.00">stdexcept</text>
</a>
</g>
</g>
<!-- Node1&#45;&gt;Node24 -->
<g id="edge23" class="edge">
<title>Node1&#45;&gt;Node24</title>
<path fill="none" stroke="midnightblue" d="M1080.58,-62.05C1171.93,-56.95 1353.07,-44.74 1515.71,-20.11"/>
<polygon fill="midnightblue" stroke="midnightblue" points="1516.54,-23.52 1525.9,-18.54 1515.48,-16.6 1516.54,-23.52"/>
</g>
<!-- Node25 -->
<g id="node25" class="node">
<title>Node25</title>
<g id="a_node25"><a xlink:title=" ">
<polygon fill="white" stroke="#bfbfbf" points="1609,-0.5 1609,-19.5 1660,-19.5 1660,-0.5 1609,-0.5"/>
<text text-anchor="middle" x="1634.5" y="-7.5" font-family="Helvetica,sans-Serif" font-size="10.00">csignal</text>
</a>
</g>
</g>
<!-- Node1&#45;&gt;Node25 -->
<g id="edge24" class="edge">
<title>Node1&#45;&gt;Node25</title>
<path fill="none" stroke="midnightblue" d="M1080.7,-63.93C1184.18,-61.29 1404.68,-52.25 1598.88,-19.99"/>
<polygon fill="midnightblue" stroke="midnightblue" points="1599.71,-23.4 1608.99,-18.28 1598.55,-16.5 1599.71,-23.4"/>
</g>
<!-- Node26 -->
<g id="node26" class="node">
<title>Node26</title>
<g id="a_node26"><a xlink:title=" ">
<polygon fill="white" stroke="#bfbfbf" points="1678.5,-0.5 1678.5,-19.5 1722.5,-19.5 1722.5,-0.5 1678.5,-0.5"/>
<text text-anchor="middle" x="1700.5" y="-7.5" font-family="Helvetica,sans-Serif" font-size="10.00">cfloat</text>
</a>
</g>
</g>
<!-- Node1&#45;&gt;Node26 -->
<g id="edge25" class="edge">
<title>Node1&#45;&gt;Node26</title>
<path fill="none" stroke="midnightblue" d="M1080.54,-65.09C1193.32,-64.35 1447.1,-58.33 1668.12,-19.86"/>
<polygon fill="midnightblue" stroke="midnightblue" points="1669.05,-23.25 1678.28,-18.07 1667.83,-16.36 1669.05,-23.25"/>
</g>
<!-- Node27 -->
<g id="node27" class="node">
<title>Node27</title>
<g id="a_node27"><a xlink:title=" ">
<polygon fill="white" stroke="#bfbfbf" points="1741,-0.5 1741,-19.5 1790,-19.5 1790,-0.5 1741,-0.5"/>
<text text-anchor="middle" x="1765.5" y="-7.5" font-family="Helvetica,sans-Serif" font-size="10.00">cctype</text>
</a>
</g>
</g>
<!-- Node1&#45;&gt;Node27 -->
<g id="edge26" class="edge">
<title>Node1&#45;&gt;Node27</title>
<path fill="none" stroke="midnightblue" d="M1080.84,-65.14C1201.63,-64.58 1484.67,-58.97 1730.54,-19.8"/>
<polygon fill="midnightblue" stroke="midnightblue" points="1731.42,-23.2 1740.74,-18.15 1730.31,-16.29 1731.42,-23.2"/>
</g>
<!-- Node28 -->
<g id="node28" class="node">
<title>Node28</title>
<g id="a_node28"><a xlink:title=" ">
<polygon fill="white" stroke="#bfbfbf" points="1808.5,-0.5 1808.5,-19.5 1858.5,-19.5 1858.5,-0.5 1808.5,-0.5"/>
<text text-anchor="middle" x="1833.5" y="-7.5" font-family="Helvetica,sans-Serif" font-size="10.00">cstdint</text>
</a>
</g>
</g>
<!-- Node1&#45;&gt;Node28 -->
<g id="edge27" class="edge">
<title>Node1&#45;&gt;Node28</title>
<path fill="none" stroke="midnightblue" d="M1080.98,-65.61C1210.2,-66.07 1526.12,-62.47 1798.3,-19.85"/>
<polygon fill="midnightblue" stroke="midnightblue" points="1799.04,-23.28 1808.37,-18.25 1797.94,-16.37 1799.04,-23.28"/>
</g>
<!-- Node29 -->
<g id="node29" class="node">
<title>Node29</title>
<g id="a_node29"><a xlink:title=" ">
<polygon fill="white" stroke="#bfbfbf" points="1876.5,-0.5 1876.5,-19.5 1920.5,-19.5 1920.5,-0.5 1876.5,-0.5"/>
<text text-anchor="middle" x="1898.5" y="-7.5" font-family="Helvetica,sans-Serif" font-size="10.00">string</text>
</a>
</g>
</g>
<!-- Node1&#45;&gt;Node29 -->
<g id="edge28" class="edge">
<title>Node1&#45;&gt;Node29</title>
<path fill="none" stroke="midnightblue" d="M1080.66,-63.62C1243.53,-59.54 1697.12,-46.25 1866.28,-19.75"/>
<polygon fill="midnightblue" stroke="midnightblue" points="1866.99,-23.18 1876.29,-18.11 1865.86,-16.27 1866.99,-23.18"/>
</g>
<!-- Node30 -->
<g id="node30" class="node">
<title>Node30</title>
<g id="a_node30"><a xlink:title=" ">
<polygon fill="white" stroke="#bfbfbf" points="1938.5,-0.5 1938.5,-19.5 2006.5,-19.5 2006.5,-0.5 1938.5,-0.5"/>
<text text-anchor="middle" x="1972.5" y="-7.5" font-family="Helvetica,sans-Serif" font-size="10.00">sys/time.h</text>
</a>
</g>
</g>
<!-- Node1&#45;&gt;Node30 -->
<g id="edge29" class="edge">
<title>Node1&#45;&gt;Node30</title>
<path fill="none" stroke="midnightblue" d="M1080.74,-65.27C1224.53,-65.23 1603.45,-61.01 1928.24,-19.95"/>
<polygon fill="midnightblue" stroke="midnightblue" points="1928.84,-23.4 1938.31,-18.66 1927.95,-16.46 1928.84,-23.4"/>
</g>
<!-- Node31 -->
<g id="node31" class="node">
<title>Node31</title>
<g id="a_node31"><a xlink:title=" ">
<polygon fill="white" stroke="#bfbfbf" points="2024.5,-0.5 2024.5,-19.5 2080.5,-19.5 2080.5,-0.5 2024.5,-0.5"/>
<text text-anchor="middle" x="2052.5" y="-7.5" font-family="Helvetica,sans-Serif" font-size="10.00">unistd.h</text>
</a>
</g>
</g>
<!-- Node1&#45;&gt;Node31 -->
<g id="edge30" class="edge">
<title>Node1&#45;&gt;Node31</title>
<path fill="none" stroke="midnightblue" d="M1080.8,-63.82C1263.03,-59.96 1814.1,-46.49 2014.21,-19.85"/>
<polygon fill="midnightblue" stroke="midnightblue" points="2014.9,-23.29 2024.33,-18.45 2013.94,-16.35 2014.9,-23.29"/>
</g>
</g>
</svg>
