<?xml version="1.0" encoding="UTF-8" standalone="no"?>
<!DOCTYPE svg PUBLIC "-//W3C//DTD SVG 1.1//EN"
 "http://www.w3.org/Graphics/SVG/1.1/DTD/svg11.dtd">
<!-- Generated by graphviz version 2.43.0 (0)
 -->
<!-- Title: include/erros/erros.hpp Pages: 1 -->
<svg width="1113pt" height="330pt"
 viewBox="0.00 0.00 1113.00 330.00" xmlns="http://www.w3.org/2000/svg" xmlns:xlink="http://www.w3.org/1999/xlink">
<g id="graph0" class="graph" transform="scale(1 1) rotate(0) translate(4 326)">
<title>include/erros/erros.hpp</title>
<polygon fill="white" stroke="transparent" points="-4,4 -4,-326 1109,-326 1109,4 -4,4"/>
<!-- Node1 -->
<g id="node1" class="node">
<title>Node1</title>
<g id="a_node1"><a xlink:title="Classes de tratamento de exceções.">
<polygon fill="#bfbfbf" stroke="black" points="481.5,-302.5 481.5,-321.5 609.5,-321.5 609.5,-302.5 481.5,-302.5"/>
<text text-anchor="middle" x="545.5" y="-309.5" font-family="Helvetica,sans-Serif" font-size="10.00">include/erros/erros.hpp</text>
</a>
</g>
</g>
<!-- Node2 -->
<g id="node2" class="node">
<title>Node2</title>
<g id="a_node2"><a xlink:href="arquivos_8hpp.html" target="_top" xlink:title="Classe assistente para facilitar a manipulação de arquivos.">
<polygon fill="white" stroke="black" points="566,-235.5 566,-265.5 669,-265.5 669,-235.5 566,-235.5"/>
<text text-anchor="start" x="574" y="-253.5" font-family="Helvetica,sans-Serif" font-size="10.00">include/biblioteca</text>
<text text-anchor="middle" x="617.5" y="-242.5" font-family="Helvetica,sans-Serif" font-size="10.00">/arquivos.hpp</text>
</a>
</g>
</g>
<!-- Node1&#45;&gt;Node2 -->
<g id="edge1" class="edge">
<title>Node1&#45;&gt;Node2</title>
<path fill="none" stroke="midnightblue" d="M563.75,-295.92C575.05,-286.58 589.47,-274.66 600.53,-265.52"/>
<polygon fill="midnightblue" stroke="midnightblue" points="561.29,-293.41 555.82,-302.48 565.75,-298.8 561.29,-293.41"/>
</g>
<!-- Node4 -->
<g id="node4" class="node">
<title>Node4</title>
<g id="a_node4"><a xlink:href="biblioteca_8hpp.html" target="_top" xlink:title="Classe responsável por armazenar os livros existentes, adicionar e remover livros,...">
<polygon fill="white" stroke="black" points="811,-112.5 811,-142.5 914,-142.5 914,-112.5 811,-112.5"/>
<text text-anchor="start" x="819" y="-130.5" font-family="Helvetica,sans-Serif" font-size="10.00">include/biblioteca</text>
<text text-anchor="middle" x="862.5" y="-119.5" font-family="Helvetica,sans-Serif" font-size="10.00">/biblioteca.hpp</text>
</a>
</g>
</g>
<!-- Node1&#45;&gt;Node4 -->
<g id="edge30" class="edge">
<title>Node1&#45;&gt;Node4</title>
<path fill="none" stroke="midnightblue" d="M619.6,-310.28C700.25,-305.04 825.78,-282.85 886.5,-199 898.94,-181.83 885.59,-157.72 874.39,-142.62"/>
<polygon fill="midnightblue" stroke="midnightblue" points="619.29,-306.8 609.51,-310.87 619.69,-313.78 619.29,-306.8"/>
</g>
<!-- Node9 -->
<g id="node9" class="node">
<title>Node9</title>
<g id="a_node9"><a xlink:href="sistema_8hpp.html" target="_top" xlink:title="Classe responsável por armazenar o histórico de livros.">
<polygon fill="white" stroke="black" points="422,-112.5 422,-142.5 525,-142.5 525,-112.5 422,-112.5"/>
<text text-anchor="start" x="430" y="-130.5" font-family="Helvetica,sans-Serif" font-size="10.00">include/biblioteca</text>
<text text-anchor="middle" x="473.5" y="-119.5" font-family="Helvetica,sans-Serif" font-size="10.00">/sistema.hpp</text>
</a>
</g>
</g>
<!-- Node1&#45;&gt;Node9 -->
<g id="edge31" class="edge">
<title>Node1&#45;&gt;Node9</title>
<path fill="none" stroke="midnightblue" d="M538.33,-292.83C523.99,-256.48 492.04,-175.49 479.1,-142.69"/>
<polygon fill="midnightblue" stroke="midnightblue" points="535.1,-294.18 542.03,-302.2 541.61,-291.61 535.1,-294.18"/>
</g>
<!-- Node15 -->
<g id="node15" class="node">
<title>Node15</title>
<g id="a_node15"><a xlink:href="pessoa_8hpp.html" target="_top" xlink:title="Classe mãe de usuario e admin.">
<polygon fill="white" stroke="black" points="292,-241 292,-260 445,-260 445,-241 292,-241"/>
<text text-anchor="middle" x="368.5" y="-248" font-family="Helvetica,sans-Serif" font-size="10.00">include/pessoas/pessoa.hpp</text>
</a>
</g>
</g>
<!-- Node1&#45;&gt;Node15 -->
<g id="edge19" class="edge">
<title>Node1&#45;&gt;Node15</title>
<path fill="none" stroke="midnightblue" d="M510.49,-299.23C476.09,-287.67 424.42,-270.3 393.81,-260.01"/>
<polygon fill="midnightblue" stroke="midnightblue" points="509.55,-302.61 520.14,-302.48 511.78,-295.97 509.55,-302.61"/>
</g>
<!-- Node3 -->
<g id="node3" class="node">
<title>Node3</title>
<g id="a_node3"><a xlink:href="usuario_8hpp.html" target="_top" xlink:title="Classe do usuario.">
<polygon fill="white" stroke="black" points="540,-179.5 540,-198.5 695,-198.5 695,-179.5 540,-179.5"/>
<text text-anchor="middle" x="617.5" y="-186.5" font-family="Helvetica,sans-Serif" font-size="10.00">include/pessoas/usuario.hpp</text>
</a>
</g>
</g>
<!-- Node2&#45;&gt;Node3 -->
<g id="edge2" class="edge">
<title>Node2&#45;&gt;Node3</title>
<path fill="none" stroke="midnightblue" d="M617.5,-225.29C617.5,-215.86 617.5,-205.65 617.5,-198.66"/>
<polygon fill="midnightblue" stroke="midnightblue" points="614,-225.4 617.5,-235.4 621,-225.4 614,-225.4"/>
</g>
<!-- Node2&#45;&gt;Node4 -->
<g id="edge16" class="edge">
<title>Node2&#45;&gt;Node4</title>
<path fill="none" stroke="midnightblue" d="M679.22,-245.88C745.92,-240.52 845.89,-227.81 869.5,-199 882.44,-183.21 875.66,-158.25 869.29,-142.66"/>
<polygon fill="midnightblue" stroke="midnightblue" points="678.92,-242.39 669.22,-246.64 679.46,-249.37 678.92,-242.39"/>
</g>
<!-- Node2&#45;&gt;Node9 -->
<g id="edge17" class="edge">
<title>Node2&#45;&gt;Node9</title>
<path fill="none" stroke="midnightblue" d="M579.05,-230.71C563.47,-222.16 545.81,-211.22 531.5,-199 511.73,-182.12 493.49,-157.94 482.93,-142.73"/>
<polygon fill="midnightblue" stroke="midnightblue" points="577.48,-233.84 587.95,-235.46 580.78,-227.67 577.48,-233.84"/>
</g>
<!-- Node14 -->
<g id="node14" class="node">
<title>Node14</title>
<g id="a_node14"><a xlink:href="arquivos_8cpp.html" target="_top" xlink:title=" ">
<polygon fill="white" stroke="black" points="713,-179.5 713,-198.5 860,-198.5 860,-179.5 713,-179.5"/>
<text text-anchor="middle" x="786.5" y="-186.5" font-family="Helvetica,sans-Serif" font-size="10.00">src/biblioteca/arquivos.cpp</text>
</a>
</g>
</g>
<!-- Node2&#45;&gt;Node14 -->
<g id="edge18" class="edge">
<title>Node2&#45;&gt;Node14</title>
<path fill="none" stroke="midnightblue" d="M667.37,-231.94C698.5,-220.98 737.23,-207.35 761.91,-198.66"/>
<polygon fill="midnightblue" stroke="midnightblue" points="665.82,-228.78 657.55,-235.4 668.15,-235.38 665.82,-228.78"/>
</g>
<!-- Node3&#45;&gt;Node4 -->
<g id="edge3" class="edge">
<title>Node3&#45;&gt;Node4</title>
<path fill="none" stroke="midnightblue" d="M662.53,-177.06C704.44,-166.89 766.86,-151.73 810.79,-141.06"/>
<polygon fill="midnightblue" stroke="midnightblue" points="661.49,-173.71 652.6,-179.48 663.15,-180.52 661.49,-173.71"/>
</g>
<!-- Node3&#45;&gt;Node9 -->
<g id="edge8" class="edge">
<title>Node3&#45;&gt;Node9</title>
<path fill="none" stroke="midnightblue" d="M587.47,-175.59C564.12,-165.94 531.72,-152.56 507.44,-142.52"/>
<polygon fill="midnightblue" stroke="midnightblue" points="586.29,-178.89 596.87,-179.48 588.96,-172.42 586.29,-178.89"/>
</g>
<!-- Node12 -->
<g id="node12" class="node">
<title>Node12</title>
<g id="a_node12"><a xlink:href="usuario_8cpp.html" target="_top" xlink:title=" ">
<polygon fill="white" stroke="black" points="646,-118 646,-137 779,-137 779,-118 646,-118"/>
<text text-anchor="middle" x="712.5" y="-125" font-family="Helvetica,sans-Serif" font-size="10.00">src/pessoas/usuario.cpp</text>
</a>
</g>
</g>
<!-- Node3&#45;&gt;Node12 -->
<g id="edge13" class="edge">
<title>Node3&#45;&gt;Node12</title>
<path fill="none" stroke="midnightblue" d="M639.71,-174.09C658.05,-162.6 683.48,-146.68 698.91,-137.01"/>
<polygon fill="midnightblue" stroke="midnightblue" points="637.73,-171.2 631.11,-179.48 641.44,-177.13 637.73,-171.2"/>
</g>
<!-- Node13 -->
<g id="node13" class="node">
<title>Node13</title>
<g id="a_node13"><a xlink:href="teste__usuario_8hpp.html" target="_top" xlink:title=" ">
<polygon fill="white" stroke="black" points="642,-56.5 642,-75.5 773,-75.5 773,-56.5 642,-56.5"/>
<text text-anchor="middle" x="707.5" y="-63.5" font-family="Helvetica,sans-Serif" font-size="10.00">tests/teste_usuario.hpp</text>
</a>
</g>
</g>
<!-- Node3&#45;&gt;Node13 -->
<g id="edge14" class="edge">
<title>Node3&#45;&gt;Node13</title>
<path fill="none" stroke="midnightblue" d="M618.66,-169.11C620.5,-152.66 625.25,-128.86 637.5,-112 649.73,-95.17 670.35,-83.04 686.05,-75.64"/>
<polygon fill="midnightblue" stroke="midnightblue" points="615.16,-168.89 617.79,-179.15 622.14,-169.49 615.16,-168.89"/>
</g>
<!-- Node5 -->
<g id="node5" class="node">
<title>Node5</title>
<g id="a_node5"><a xlink:href="biblioteca_8cpp.html" target="_top" xlink:title=" ">
<polygon fill="white" stroke="black" points="952,-56.5 952,-75.5 1105,-75.5 1105,-56.5 952,-56.5"/>
<text text-anchor="middle" x="1028.5" y="-63.5" font-family="Helvetica,sans-Serif" font-size="10.00">src/biblioteca/biblioteca.cpp</text>
</a>
</g>
</g>
<!-- Node4&#45;&gt;Node5 -->
<g id="edge4" class="edge">
<title>Node4&#45;&gt;Node5</title>
<path fill="none" stroke="midnightblue" d="M911.48,-108.94C942.07,-97.98 980.1,-84.35 1004.35,-75.66"/>
<polygon fill="midnightblue" stroke="midnightblue" points="910.07,-105.73 901.84,-112.4 912.43,-112.32 910.07,-105.73"/>
</g>
<!-- Node6 -->
<g id="node6" class="node">
<title>Node6</title>
<g id="a_node6"><a xlink:href="main_8cpp.html" target="_top" xlink:title=" ">
<polygon fill="white" stroke="black" points="545,-56.5 545,-75.5 624,-75.5 624,-56.5 545,-56.5"/>
<text text-anchor="middle" x="584.5" y="-63.5" font-family="Helvetica,sans-Serif" font-size="10.00">src/main.cpp</text>
</a>
</g>
</g>
<!-- Node4&#45;&gt;Node6 -->
<g id="edge5" class="edge">
<title>Node4&#45;&gt;Node6</title>
<path fill="none" stroke="midnightblue" d="M801.07,-113.35C747.17,-101.82 670.36,-85.38 624.17,-75.49"/>
<polygon fill="midnightblue" stroke="midnightblue" points="800.35,-116.78 810.86,-115.45 801.82,-109.93 800.35,-116.78"/>
</g>
<!-- Node7 -->
<g id="node7" class="node">
<title>Node7</title>
<g id="a_node7"><a xlink:href="teste__biblioteca_8hpp.html" target="_top" xlink:title=" ">
<polygon fill="white" stroke="black" points="791,-56.5 791,-75.5 934,-75.5 934,-56.5 791,-56.5"/>
<text text-anchor="middle" x="862.5" y="-63.5" font-family="Helvetica,sans-Serif" font-size="10.00">tests/teste_biblioteca.hpp</text>
</a>
</g>
</g>
<!-- Node4&#45;&gt;Node7 -->
<g id="edge6" class="edge">
<title>Node4&#45;&gt;Node7</title>
<path fill="none" stroke="midnightblue" d="M862.5,-102.29C862.5,-92.86 862.5,-82.65 862.5,-75.66"/>
<polygon fill="midnightblue" stroke="midnightblue" points="859,-102.4 862.5,-112.4 866,-102.4 859,-102.4"/>
</g>
<!-- Node8 -->
<g id="node8" class="node">
<title>Node8</title>
<g id="a_node8"><a xlink:href="teste_8cpp.html" target="_top" xlink:title=" ">
<polygon fill="white" stroke="black" points="415,-0.5 415,-19.5 504,-19.5 504,-0.5 415,-0.5"/>
<text text-anchor="middle" x="459.5" y="-7.5" font-family="Helvetica,sans-Serif" font-size="10.00">tests/teste.cpp</text>
</a>
</g>
</g>
<!-- Node7&#45;&gt;Node8 -->
<g id="edge7" class="edge">
<title>Node7&#45;&gt;Node8</title>
<path fill="none" stroke="midnightblue" d="M788.49,-55.08C705.25,-43.93 572.74,-26.17 504.05,-16.97"/>
<polygon fill="midnightblue" stroke="midnightblue" points="788.27,-58.58 798.64,-56.44 789.2,-51.65 788.27,-58.58"/>
</g>
<!-- Node9&#45;&gt;Node6 -->
<g id="edge10" class="edge">
<title>Node9&#45;&gt;Node6</title>
<path fill="none" stroke="midnightblue" d="M508.66,-107.65C528.67,-96.93 552.77,-84.01 568.35,-75.66"/>
<polygon fill="midnightblue" stroke="midnightblue" points="506.97,-104.59 499.81,-112.4 510.27,-110.76 506.97,-104.59"/>
</g>
<!-- Node10 -->
<g id="node10" class="node">
<title>Node10</title>
<g id="a_node10"><a xlink:href="sistema_8cpp.html" target="_top" xlink:title=" ">
<polygon fill="white" stroke="black" points="230.5,-56.5 230.5,-75.5 374.5,-75.5 374.5,-56.5 230.5,-56.5"/>
<text text-anchor="middle" x="302.5" y="-63.5" font-family="Helvetica,sans-Serif" font-size="10.00">src/biblioteca/sistema.cpp</text>
</a>
</g>
</g>
<!-- Node9&#45;&gt;Node10 -->
<g id="edge9" class="edge">
<title>Node9&#45;&gt;Node10</title>
<path fill="none" stroke="midnightblue" d="M423.45,-109.09C391.88,-98.1 352.46,-84.39 327.38,-75.66"/>
<polygon fill="midnightblue" stroke="midnightblue" points="422.38,-112.42 432.98,-112.4 424.68,-105.81 422.38,-112.42"/>
</g>
<!-- Node11 -->
<g id="node11" class="node">
<title>Node11</title>
<g id="a_node11"><a xlink:href="teste__sistema_8hpp.html" target="_top" xlink:title=" ">
<polygon fill="white" stroke="black" points="392.5,-56.5 392.5,-75.5 526.5,-75.5 526.5,-56.5 392.5,-56.5"/>
<text text-anchor="middle" x="459.5" y="-63.5" font-family="Helvetica,sans-Serif" font-size="10.00">tests/teste_sistema.hpp</text>
</a>
</g>
</g>
<!-- Node9&#45;&gt;Node11 -->
<g id="edge11" class="edge">
<title>Node9&#45;&gt;Node11</title>
<path fill="none" stroke="midnightblue" d="M467.87,-102.59C465.64,-93.08 463.2,-82.73 461.54,-75.66"/>
<polygon fill="midnightblue" stroke="midnightblue" points="464.48,-103.47 470.18,-112.4 471.3,-101.86 464.48,-103.47"/>
</g>
<!-- Node11&#45;&gt;Node8 -->
<g id="edge12" class="edge">
<title>Node11&#45;&gt;Node8</title>
<path fill="none" stroke="midnightblue" d="M459.5,-45.8C459.5,-36.91 459.5,-26.78 459.5,-19.75"/>
<polygon fill="midnightblue" stroke="midnightblue" points="456,-46.08 459.5,-56.08 463,-46.08 456,-46.08"/>
</g>
<!-- Node13&#45;&gt;Node8 -->
<g id="edge15" class="edge">
<title>Node13&#45;&gt;Node8</title>
<path fill="none" stroke="midnightblue" d="M658.27,-54.28C611.41,-44.08 541.8,-28.92 498.61,-19.52"/>
<polygon fill="midnightblue" stroke="midnightblue" points="657.69,-57.74 668.2,-56.44 659.18,-50.9 657.69,-57.74"/>
</g>
<!-- Node15&#45;&gt;Node3 -->
<g id="edge20" class="edge">
<title>Node15&#45;&gt;Node3</title>
<path fill="none" stroke="midnightblue" d="M414.06,-238.61C462.39,-227.07 537.73,-209.06 581.89,-198.51"/>
<polygon fill="midnightblue" stroke="midnightblue" points="413.09,-235.25 404.18,-240.98 414.72,-242.06 413.09,-235.25"/>
</g>
<!-- Node16 -->
<g id="node16" class="node">
<title>Node16</title>
<g id="a_node16"><a xlink:href="admin_8hpp.html" target="_top" xlink:title="Classe do administrador.">
<polygon fill="white" stroke="black" points="147,-179.5 147,-198.5 296,-198.5 296,-179.5 147,-179.5"/>
<text text-anchor="middle" x="221.5" y="-186.5" font-family="Helvetica,sans-Serif" font-size="10.00">include/pessoas/admin.hpp</text>
</a>
</g>
</g>
<!-- Node15&#45;&gt;Node16 -->
<g id="edge21" class="edge">
<title>Node15&#45;&gt;Node16</title>
<path fill="none" stroke="midnightblue" d="M337.94,-237.13C309.38,-225.57 267.5,-208.62 242.52,-198.51"/>
<polygon fill="midnightblue" stroke="midnightblue" points="336.86,-240.47 347.44,-240.98 339.48,-233.98 336.86,-240.47"/>
</g>
<!-- Node19 -->
<g id="node19" class="node">
<title>Node19</title>
<g id="a_node19"><a xlink:href="pessoa_8cpp.html" target="_top" xlink:title=" ">
<polygon fill="white" stroke="black" points="314,-179.5 314,-198.5 445,-198.5 445,-179.5 314,-179.5"/>
<text text-anchor="middle" x="379.5" y="-186.5" font-family="Helvetica,sans-Serif" font-size="10.00">src/pessoas/pessoa.cpp</text>
</a>
</g>
</g>
<!-- Node15&#45;&gt;Node19 -->
<g id="edge27" class="edge">
<title>Node15&#45;&gt;Node19</title>
<path fill="none" stroke="midnightblue" d="M371.95,-230.82C373.95,-220 376.38,-206.9 377.93,-198.51"/>
<polygon fill="midnightblue" stroke="midnightblue" points="368.45,-230.51 370.08,-240.98 375.34,-231.78 368.45,-230.51"/>
</g>
<!-- Node20 -->
<g id="node20" class="node">
<title>Node20</title>
<g id="a_node20"><a xlink:href="teste__pessoa_8hpp.html" target="_top" xlink:title=" ">
<polygon fill="white" stroke="black" points="0,-179.5 0,-198.5 129,-198.5 129,-179.5 0,-179.5"/>
<text text-anchor="middle" x="64.5" y="-186.5" font-family="Helvetica,sans-Serif" font-size="10.00">tests/teste_pessoa.hpp</text>
</a>
</g>
</g>
<!-- Node15&#45;&gt;Node20 -->
<g id="edge28" class="edge">
<title>Node15&#45;&gt;Node20</title>
<path fill="none" stroke="midnightblue" d="M315.09,-239.05C256.19,-227.52 162.57,-209.19 107.97,-198.51"/>
<polygon fill="midnightblue" stroke="midnightblue" points="314.46,-242.49 324.94,-240.98 315.8,-235.62 314.46,-242.49"/>
</g>
<!-- Node16&#45;&gt;Node4 -->
<g id="edge22" class="edge">
<title>Node16&#45;&gt;Node4</title>
<path fill="none" stroke="midnightblue" d="M306.16,-178.88C521.02,-159.74 577.96,-171.35 788.5,-143 795.77,-142.02 803.39,-140.78 810.88,-139.43"/>
<polygon fill="midnightblue" stroke="midnightblue" points="305.79,-175.4 296.14,-179.79 306.42,-182.37 305.79,-175.4"/>
</g>
<!-- Node16&#45;&gt;Node9 -->
<g id="edge23" class="edge">
<title>Node16&#45;&gt;Node9</title>
<path fill="none" stroke="midnightblue" d="M267.37,-177.17C310.92,-166.89 376.31,-151.45 421.71,-140.73"/>
<polygon fill="midnightblue" stroke="midnightblue" points="266.53,-173.77 257.61,-179.48 268.14,-180.58 266.53,-173.77"/>
</g>
<!-- Node17 -->
<g id="node17" class="node">
<title>Node17</title>
<g id="a_node17"><a xlink:href="admin_8cpp.html" target="_top" xlink:title=" ">
<polygon fill="white" stroke="black" points="92.5,-118 92.5,-137 220.5,-137 220.5,-118 92.5,-118"/>
<text text-anchor="middle" x="156.5" y="-125" font-family="Helvetica,sans-Serif" font-size="10.00">src/pessoas/admin.cpp</text>
</a>
</g>
</g>
<!-- Node16&#45;&gt;Node17 -->
<g id="edge24" class="edge">
<title>Node16&#45;&gt;Node17</title>
<path fill="none" stroke="midnightblue" d="M204.73,-172.65C192.34,-161.31 175.92,-146.28 165.8,-137.01"/>
<polygon fill="midnightblue" stroke="midnightblue" points="202.45,-175.3 212.19,-179.48 207.17,-170.14 202.45,-175.3"/>
</g>
<!-- Node18 -->
<g id="node18" class="node">
<title>Node18</title>
<g id="a_node18"><a xlink:href="teste__admin_8hpp.html" target="_top" xlink:title=" ">
<polygon fill="white" stroke="black" points="239,-118 239,-137 364,-137 364,-118 239,-118"/>
<text text-anchor="middle" x="301.5" y="-125" font-family="Helvetica,sans-Serif" font-size="10.00">tests/teste_admin.hpp</text>
</a>
</g>
</g>
<!-- Node16&#45;&gt;Node18 -->
<g id="edge25" class="edge">
<title>Node16&#45;&gt;Node18</title>
<path fill="none" stroke="midnightblue" d="M241.27,-173.29C256.62,-161.88 277.36,-146.46 290.06,-137.01"/>
<polygon fill="midnightblue" stroke="midnightblue" points="238.9,-170.7 232.96,-179.48 243.07,-176.32 238.9,-170.7"/>
</g>
<!-- Node18&#45;&gt;Node8 -->
<g id="edge26" class="edge">
<title>Node18&#45;&gt;Node8</title>
<path fill="none" stroke="midnightblue" d="M268.56,-113.97C238.85,-100.81 202.53,-78.9 221.5,-56 245.58,-26.94 352.9,-16.51 414.89,-12.87"/>
<polygon fill="midnightblue" stroke="midnightblue" points="267.32,-117.24 277.89,-117.92 270.05,-110.8 267.32,-117.24"/>
</g>
<!-- Node20&#45;&gt;Node8 -->
<g id="edge29" class="edge">
<title>Node20&#45;&gt;Node8</title>
<path fill="none" stroke="midnightblue" d="M64.69,-169.15C65.81,-152.35 69.92,-128.02 83.5,-112 126.44,-61.34 324.99,-28.94 414.97,-16.62"/>
<polygon fill="midnightblue" stroke="midnightblue" points="61.18,-169.26 64.31,-179.38 68.18,-169.52 61.18,-169.26"/>
</g>
</g>
</svg>
