<?xml version="1.0" encoding="UTF-8" standalone="no"?>
<!DOCTYPE svg PUBLIC "-//W3C//DTD SVG 1.1//EN"
 "http://www.w3.org/Graphics/SVG/1.1/DTD/svg11.dtd">
<!-- Generated by graphviz version 2.43.0 (0)
 -->
<!-- Title: Graphical Class Hierarchy Pages: 1 -->
<svg width="310pt" height="247pt"
 viewBox="0.00 0.00 310.00 247.00" xmlns="http://www.w3.org/2000/svg" xmlns:xlink="http://www.w3.org/1999/xlink">
<g id="graph0" class="graph" transform="scale(1 1) rotate(0) translate(4 243)">
<title>Graphical Class Hierarchy</title>
<polygon fill="white" stroke="transparent" points="-4,4 -4,-243 306,-243 306,4 -4,4"/>
<!-- Node0 -->
<g id="node1" class="node">
<title>Node0</title>
<g id="a_node1"><a xlink:href="structdoctest_1_1detail_1_1types_1_1false__type.html" target="_top" xlink:title=" ">
<polygon fill="white" stroke="black" points="0,-98.5 0,-128.5 119,-128.5 119,-98.5 0,-98.5"/>
<text text-anchor="start" x="8" y="-116.5" font-family="Helvetica,sans-Serif" font-size="10.00">doctest::detail::types</text>
<text text-anchor="middle" x="59.5" y="-105.5" font-family="Helvetica,sans-Serif" font-size="10.00">::false_type</text>
</a>
</g>
</g>
<!-- Node1 -->
<g id="node2" class="node">
<title>Node1</title>
<g id="a_node2"><a xlink:href="structdoctest_1_1detail_1_1deferred__false.html" target="_top" xlink:title=" ">
<polygon fill="white" stroke="black" points="161.5,-208.5 161.5,-238.5 295.5,-238.5 295.5,-208.5 161.5,-208.5"/>
<text text-anchor="start" x="169.5" y="-226.5" font-family="Helvetica,sans-Serif" font-size="10.00">doctest::detail::deferred</text>
<text text-anchor="middle" x="228.5" y="-215.5" font-family="Helvetica,sans-Serif" font-size="10.00">_false&lt; T &gt;</text>
</a>
</g>
</g>
<!-- Node0&#45;&gt;Node1 -->
<g id="edge1" class="edge">
<title>Node0&#45;&gt;Node1</title>
<path fill="none" stroke="midnightblue" d="M80.6,-136.07C98.51,-154.99 126.26,-181.57 155,-198.5 161.42,-202.28 168.51,-205.61 175.65,-208.49"/>
<polygon fill="midnightblue" stroke="midnightblue" points="83.15,-133.67 73.78,-128.73 78.02,-138.44 83.15,-133.67"/>
</g>
<!-- Node2 -->
<g id="node3" class="node">
<title>Node2</title>
<g id="a_node3"><a xlink:href="structdoctest_1_1detail_1_1has__insertion__operator.html" target="_top" xlink:title=" ">
<polygon fill="white" stroke="black" points="169,-148 169,-189 288,-189 288,-148 169,-148"/>
<text text-anchor="start" x="177" y="-177" font-family="Helvetica,sans-Serif" font-size="10.00">doctest::detail::has</text>
<text text-anchor="start" x="177" y="-166" font-family="Helvetica,sans-Serif" font-size="10.00">_insertion_operator&lt;</text>
<text text-anchor="middle" x="228.5" y="-155" font-family="Helvetica,sans-Serif" font-size="10.00"> T, typename &gt;</text>
</a>
</g>
</g>
<!-- Node0&#45;&gt;Node2 -->
<g id="edge2" class="edge">
<title>Node0&#45;&gt;Node2</title>
<path fill="none" stroke="midnightblue" d="M115.89,-131.74C132.85,-137.33 151.56,-143.49 168.74,-149.15"/>
<polygon fill="midnightblue" stroke="midnightblue" points="116.73,-128.33 106.13,-128.53 114.54,-134.98 116.73,-128.33"/>
</g>
<!-- Node3 -->
<g id="node4" class="node">
<title>Node3</title>
<g id="a_node4"><a xlink:href="structdoctest_1_1detail_1_1types_1_1is__array.html" target="_top" xlink:title=" ">
<polygon fill="white" stroke="black" points="169,-98.5 169,-128.5 288,-128.5 288,-98.5 169,-98.5"/>
<text text-anchor="start" x="177" y="-116.5" font-family="Helvetica,sans-Serif" font-size="10.00">doctest::detail::types</text>
<text text-anchor="middle" x="228.5" y="-105.5" font-family="Helvetica,sans-Serif" font-size="10.00">::is_array&lt; T &gt;</text>
</a>
</g>
</g>
<!-- Node0&#45;&gt;Node3 -->
<g id="edge3" class="edge">
<title>Node0&#45;&gt;Node3</title>
<path fill="none" stroke="midnightblue" d="M129.69,-113.5C142.71,-113.5 156.21,-113.5 168.87,-113.5"/>
<polygon fill="midnightblue" stroke="midnightblue" points="129.38,-110 119.38,-113.5 129.38,-117 129.38,-110"/>
</g>
<!-- Node4 -->
<g id="node5" class="node">
<title>Node4</title>
<g id="a_node5"><a xlink:href="structdoctest_1_1detail_1_1types_1_1is__pointer.html" target="_top" xlink:title=" ">
<polygon fill="white" stroke="black" points="169,-49.5 169,-79.5 288,-79.5 288,-49.5 169,-49.5"/>
<text text-anchor="start" x="177" y="-67.5" font-family="Helvetica,sans-Serif" font-size="10.00">doctest::detail::types</text>
<text text-anchor="middle" x="228.5" y="-56.5" font-family="Helvetica,sans-Serif" font-size="10.00">::is_pointer&lt; T &gt;</text>
</a>
</g>
</g>
<!-- Node0&#45;&gt;Node4 -->
<g id="edge4" class="edge">
<title>Node0&#45;&gt;Node4</title>
<path fill="none" stroke="midnightblue" d="M121.73,-95.53C139.63,-90.28 158.99,-84.6 176.2,-79.55"/>
<polygon fill="midnightblue" stroke="midnightblue" points="120.58,-92.22 111.97,-98.4 122.55,-98.94 120.58,-92.22"/>
</g>
<!-- Node5 -->
<g id="node6" class="node">
<title>Node5</title>
<g id="a_node6"><a xlink:href="structdoctest_1_1detail_1_1types_1_1is__rvalue__reference.html" target="_top" xlink:title=" ">
<polygon fill="white" stroke="black" points="155,-0.5 155,-30.5 302,-30.5 302,-0.5 155,-0.5"/>
<text text-anchor="start" x="163" y="-18.5" font-family="Helvetica,sans-Serif" font-size="10.00">doctest::detail::types</text>
<text text-anchor="middle" x="228.5" y="-7.5" font-family="Helvetica,sans-Serif" font-size="10.00">::is_rvalue_reference&lt; T &gt;</text>
</a>
</g>
</g>
<!-- Node0&#45;&gt;Node5 -->
<g id="edge5" class="edge">
<title>Node0&#45;&gt;Node5</title>
<path fill="none" stroke="midnightblue" d="M84.53,-91.36C102.77,-75.48 129.05,-54.5 155,-40.5 161.91,-36.77 169.49,-33.43 177.06,-30.5"/>
<polygon fill="midnightblue" stroke="midnightblue" points="81.92,-89 76.75,-98.25 86.56,-94.24 81.92,-89"/>
</g>
</g>
</svg>
