<?xml version="1.0" encoding="UTF-8" standalone="no"?>
<!DOCTYPE svg PUBLIC "-//W3C//DTD SVG 1.1//EN"
 "http://www.w3.org/Graphics/SVG/1.1/DTD/svg11.dtd">
<!-- Generated by graphviz version 2.43.0 (0)
 -->
<!-- Title: Graphical Class Hierarchy Pages: 1 -->
<svg width="256pt" height="66pt"
 viewBox="0.00 0.00 256.00 66.00" xmlns="http://www.w3.org/2000/svg" xmlns:xlink="http://www.w3.org/1999/xlink">
<g id="graph0" class="graph" transform="scale(1 1) rotate(0) translate(4 62)">
<title>Graphical Class Hierarchy</title>
<polygon fill="white" stroke="transparent" points="-4,4 -4,-62 252,-62 252,4 -4,4"/>
<!-- Node57 -->
<g id="node1" class="node">
<title>Node57</title>
<g id="a_node1"><a xlink:title="STL class.">
<polygon fill="white" stroke="#bfbfbf" points="0,-19.5 0,-38.5 86,-38.5 86,-19.5 0,-19.5"/>
<text text-anchor="middle" x="43" y="-26.5" font-family="Helvetica,sans-Serif" font-size="10.00">std::exception</text>
</a>
</g>
</g>
<!-- Node0 -->
<g id="node2" class="node">
<title>Node0</title>
<g id="a_node2"><a xlink:href="classErroaAbrirArquivo.html" target="_top" xlink:title="Classe para tratar erro ao tentar abrir arquivo.">
<polygon fill="white" stroke="black" points="133.5,-38.5 133.5,-57.5 236.5,-57.5 236.5,-38.5 133.5,-38.5"/>
<text text-anchor="middle" x="185" y="-45.5" font-family="Helvetica,sans-Serif" font-size="10.00">ErroaAbrirArquivo</text>
</a>
</g>
</g>
<!-- Node57&#45;&gt;Node0 -->
<g id="edge1" class="edge">
<title>Node57&#45;&gt;Node0</title>
<path fill="none" stroke="midnightblue" d="M96.04,-36.06C108.24,-37.72 121.23,-39.48 133.37,-41.13"/>
<polygon fill="midnightblue" stroke="midnightblue" points="96.38,-32.58 86,-34.7 95.44,-39.51 96.38,-32.58"/>
</g>
<!-- Node59 -->
<g id="node3" class="node">
<title>Node59</title>
<g id="a_node3"><a xlink:href="classOperacaoInterrompida.html" target="_top" xlink:title="Classe para tratar erro de operação.">
<polygon fill="white" stroke="black" points="122,-0.5 122,-19.5 248,-19.5 248,-0.5 122,-0.5"/>
<text text-anchor="middle" x="185" y="-7.5" font-family="Helvetica,sans-Serif" font-size="10.00">OperacaoInterrompida</text>
</a>
</g>
</g>
<!-- Node57&#45;&gt;Node59 -->
<g id="edge2" class="edge">
<title>Node57&#45;&gt;Node59</title>
<path fill="none" stroke="midnightblue" d="M96.04,-21.94C104.44,-20.8 113.22,-19.61 121.84,-18.44"/>
<polygon fill="midnightblue" stroke="midnightblue" points="95.44,-18.49 86,-23.3 96.38,-25.42 95.44,-18.49"/>
</g>
</g>
</svg>
