<?xml version="1.0" encoding="UTF-8" standalone="no"?>
<!DOCTYPE svg PUBLIC "-//W3C//DTD SVG 1.1//EN"
 "http://www.w3.org/Graphics/SVG/1.1/DTD/svg11.dtd">
<!-- Generated by graphviz version 2.43.0 (0)
 -->
<!-- Title: Graphical Class Hierarchy Pages: 1 -->
<svg width="308pt" height="242pt"
 viewBox="0.00 0.00 308.00 241.50" xmlns="http://www.w3.org/2000/svg" xmlns:xlink="http://www.w3.org/1999/xlink">
<g id="graph0" class="graph" transform="scale(1 1) rotate(0) translate(4 237.5)">
<title>Graphical Class Hierarchy</title>
<polygon fill="white" stroke="transparent" points="-4,4 -4,-237.5 304,-237.5 304,4 -4,4"/>
<!-- Node0 -->
<g id="node1" class="node">
<title>Node0</title>
<g id="a_node1"><a xlink:href="structdoctest_1_1detail_1_1types_1_1true__type.html" target="_top" xlink:title=" ">
<polygon fill="white" stroke="black" points="0,-85 0,-115 119,-115 119,-85 0,-85"/>
<text text-anchor="start" x="8" y="-103" font-family="Helvetica,sans-Serif" font-size="10.00">doctest::detail::types</text>
<text text-anchor="middle" x="59.5" y="-92" font-family="Helvetica,sans-Serif" font-size="10.00">::true_type</text>
</a>
</g>
</g>
<!-- Node1 -->
<g id="node2" class="node">
<title>Node1</title>
<g id="a_node2"><a xlink:href="structdoctest_1_1detail_1_1has__insertion__operator_3_01T_00_01decltype_07operator_3_3_07declvald5a5a279653bbfeef238ad5c984744e2.html" target="_top" xlink:title=" ">
<polygon fill="white" stroke="black" points="155,-159 155,-233 300,-233 300,-159 155,-159"/>
<text text-anchor="start" x="163" y="-221" font-family="Helvetica,sans-Serif" font-size="10.00">doctest::detail::has</text>
<text text-anchor="start" x="163" y="-210" font-family="Helvetica,sans-Serif" font-size="10.00">_insertion_operator&lt;</text>
<text text-anchor="start" x="163" y="-199" font-family="Helvetica,sans-Serif" font-size="10.00"> T, decltype(operator</text>
<text text-anchor="start" x="163" y="-188" font-family="Helvetica,sans-Serif" font-size="10.00">&lt;&lt;(declval&lt; std::ostream</text>
<text text-anchor="start" x="163" y="-177" font-family="Helvetica,sans-Serif" font-size="10.00"> &amp; &gt;(), declval&lt; const T</text>
<text text-anchor="middle" x="227.5" y="-166" font-family="Helvetica,sans-Serif" font-size="10.00"> &amp; &gt;()), void())&gt;</text>
</a>
</g>
</g>
<!-- Node0&#45;&gt;Node1 -->
<g id="edge1" class="edge">
<title>Node0&#45;&gt;Node1</title>
<path fill="none" stroke="midnightblue" d="M95.58,-120.29C114.97,-131.5 139.65,-145.77 162.35,-158.9"/>
<polygon fill="midnightblue" stroke="midnightblue" points="97.21,-117.19 86.8,-115.21 93.71,-123.25 97.21,-117.19"/>
</g>
<!-- Node2 -->
<g id="node3" class="node">
<title>Node2</title>
<g id="a_node3"><a xlink:href="structdoctest_1_1detail_1_1types_1_1is__array_3_01T_0fSIZE_0e_4.html" target="_top" xlink:title=" ">
<polygon fill="white" stroke="black" points="168,-110 168,-140 287,-140 287,-110 168,-110"/>
<text text-anchor="start" x="176" y="-128" font-family="Helvetica,sans-Serif" font-size="10.00">doctest::detail::types</text>
<text text-anchor="middle" x="227.5" y="-117" font-family="Helvetica,sans-Serif" font-size="10.00">::is_array&lt; T[SIZE]&gt;</text>
</a>
</g>
</g>
<!-- Node0&#45;&gt;Node2 -->
<g id="edge2" class="edge">
<title>Node0&#45;&gt;Node2</title>
<path fill="none" stroke="midnightblue" d="M129.22,-110.35C142.08,-112.29 155.42,-114.3 167.94,-116.18"/>
<polygon fill="midnightblue" stroke="midnightblue" points="129.44,-106.84 119.03,-108.81 128.39,-113.76 129.44,-106.84"/>
</g>
<!-- Node3 -->
<g id="node4" class="node">
<title>Node3</title>
<g id="a_node4"><a xlink:href="structdoctest_1_1detail_1_1types_1_1is__pointer_3_01T_01_5_01_4.html" target="_top" xlink:title=" ">
<polygon fill="white" stroke="black" points="168,-61 168,-91 287,-91 287,-61 168,-61"/>
<text text-anchor="start" x="176" y="-79" font-family="Helvetica,sans-Serif" font-size="10.00">doctest::detail::types</text>
<text text-anchor="middle" x="227.5" y="-68" font-family="Helvetica,sans-Serif" font-size="10.00">::is_pointer&lt; T * &gt;</text>
</a>
</g>
</g>
<!-- Node0&#45;&gt;Node3 -->
<g id="edge3" class="edge">
<title>Node0&#45;&gt;Node3</title>
<path fill="none" stroke="midnightblue" d="M129.22,-90.06C142.08,-88.2 155.42,-86.28 167.94,-84.47"/>
<polygon fill="midnightblue" stroke="midnightblue" points="128.42,-86.64 119.03,-91.54 129.42,-93.57 128.42,-86.64"/>
</g>
<!-- Node4 -->
<g id="node5" class="node">
<title>Node4</title>
<g id="a_node5"><a xlink:href="structdoctest_1_1detail_1_1types_1_1is__rvalue__reference_3_01T_01_6_6_01_4.html" target="_top" xlink:title=" ">
<polygon fill="white" stroke="black" points="168,-0.5 168,-41.5 287,-41.5 287,-0.5 168,-0.5"/>
<text text-anchor="start" x="176" y="-29.5" font-family="Helvetica,sans-Serif" font-size="10.00">doctest::detail::types</text>
<text text-anchor="start" x="176" y="-18.5" font-family="Helvetica,sans-Serif" font-size="10.00">::is_rvalue_reference</text>
<text text-anchor="middle" x="227.5" y="-7.5" font-family="Helvetica,sans-Serif" font-size="10.00">&lt; T &amp;&amp; &gt;</text>
</a>
</g>
</g>
<!-- Node0&#45;&gt;Node4 -->
<g id="edge4" class="edge">
<title>Node0&#45;&gt;Node4</title>
<path fill="none" stroke="midnightblue" d="M98.37,-80.1C115.54,-71.25 136.17,-60.85 155,-52 162.35,-48.55 170.18,-45.01 177.86,-41.62"/>
<polygon fill="midnightblue" stroke="midnightblue" points="96.5,-77.13 89.23,-84.84 99.72,-83.34 96.5,-77.13"/>
</g>
</g>
</svg>
