<?xml version="1.0" encoding="UTF-8" standalone="no"?>
<!DOCTYPE svg PUBLIC "-//W3C//DTD SVG 1.1//EN"
 "http://www.w3.org/Graphics/SVG/1.1/DTD/svg11.dtd">
<!-- Generated by graphviz version 2.43.0 (0)
 -->
<!-- Title: include/livro/livro.hpp Pages: 1 -->
<svg width="948pt" height="263pt"
 viewBox="0.00 0.00 947.50 263.00" xmlns="http://www.w3.org/2000/svg" xmlns:xlink="http://www.w3.org/1999/xlink">
<g id="graph0" class="graph" transform="scale(1 1) rotate(0) translate(4 259)">
<title>include/livro/livro.hpp</title>
<polygon fill="white" stroke="transparent" points="-4,4 -4,-259 943.5,-259 943.5,4 -4,4"/>
<!-- Node1 -->
<g id="node1" class="node">
<title>Node1</title>
<g id="a_node1"><a xlink:title="Classe do objeto Livro.">
<polygon fill="#bfbfbf" stroke="black" points="324,-235.5 324,-254.5 446,-254.5 446,-235.5 324,-235.5"/>
<text text-anchor="middle" x="385" y="-242.5" font-family="Helvetica,sans-Serif" font-size="10.00">include/livro/livro.hpp</text>
</a>
</g>
</g>
<!-- Node2 -->
<g id="node2" class="node">
<title>Node2</title>
<g id="a_node2"><a xlink:href="biblioteca_8hpp.html" target="_top" xlink:title="Classe responsável por armazenar os livros existentes, adicionar e remover livros,...">
<polygon fill="white" stroke="black" points="316.5,-112.5 316.5,-142.5 419.5,-142.5 419.5,-112.5 316.5,-112.5"/>
<text text-anchor="start" x="324.5" y="-130.5" font-family="Helvetica,sans-Serif" font-size="10.00">include/biblioteca</text>
<text text-anchor="middle" x="368" y="-119.5" font-family="Helvetica,sans-Serif" font-size="10.00">/biblioteca.hpp</text>
</a>
</g>
</g>
<!-- Node1&#45;&gt;Node2 -->
<g id="edge1" class="edge">
<title>Node1&#45;&gt;Node2</title>
<path fill="none" stroke="midnightblue" d="M382.26,-225.38C378.86,-202.26 373.12,-163.32 370.07,-142.55"/>
<polygon fill="midnightblue" stroke="midnightblue" points="378.8,-225.94 383.72,-235.32 385.73,-224.92 378.8,-225.94"/>
</g>
<!-- Node7 -->
<g id="node7" class="node">
<title>Node7</title>
<g id="a_node7"><a xlink:href="usuario_8hpp.html" target="_top" xlink:title="Classe do usuario.">
<polygon fill="white" stroke="black" points="551.5,-179.5 551.5,-198.5 706.5,-198.5 706.5,-179.5 551.5,-179.5"/>
<text text-anchor="middle" x="629" y="-186.5" font-family="Helvetica,sans-Serif" font-size="10.00">include/pessoas/usuario.hpp</text>
</a>
</g>
</g>
<!-- Node1&#45;&gt;Node7 -->
<g id="edge6" class="edge">
<title>Node1&#45;&gt;Node7</title>
<path fill="none" stroke="midnightblue" d="M433.43,-233.28C479.54,-223.08 548.03,-207.92 590.52,-198.52"/>
<polygon fill="midnightblue" stroke="midnightblue" points="432.67,-229.87 423.66,-235.44 434.18,-236.7 432.67,-229.87"/>
</g>
<!-- Node8 -->
<g id="node8" class="node">
<title>Node8</title>
<g id="a_node8"><a xlink:href="sistema_8hpp.html" target="_top" xlink:title="Classe responsável por armazenar o histórico de livros.">
<polygon fill="white" stroke="black" points="440.5,-112.5 440.5,-142.5 543.5,-142.5 543.5,-112.5 440.5,-112.5"/>
<text text-anchor="start" x="448.5" y="-130.5" font-family="Helvetica,sans-Serif" font-size="10.00">include/biblioteca</text>
<text text-anchor="middle" x="492" y="-119.5" font-family="Helvetica,sans-Serif" font-size="10.00">/sistema.hpp</text>
</a>
</g>
</g>
<!-- Node1&#45;&gt;Node8 -->
<g id="edge22" class="edge">
<title>Node1&#45;&gt;Node8</title>
<path fill="none" stroke="midnightblue" d="M393.41,-225.92C400.37,-212.12 411.18,-193.14 424,-179 436.94,-164.73 454.44,-151.84 468.45,-142.65"/>
<polygon fill="midnightblue" stroke="midnightblue" points="390.07,-224.77 388.86,-235.3 396.37,-227.82 390.07,-224.77"/>
</g>
<!-- Node13 -->
<g id="node13" class="node">
<title>Node13</title>
<g id="a_node13"><a xlink:href="admin_8hpp.html" target="_top" xlink:title="Classe do administrador.">
<polygon fill="white" stroke="black" points="189.5,-179.5 189.5,-198.5 338.5,-198.5 338.5,-179.5 189.5,-179.5"/>
<text text-anchor="middle" x="264" y="-186.5" font-family="Helvetica,sans-Serif" font-size="10.00">include/pessoas/admin.hpp</text>
</a>
</g>
</g>
<!-- Node1&#45;&gt;Node13 -->
<g id="edge16" class="edge">
<title>Node1&#45;&gt;Node13</title>
<path fill="none" stroke="midnightblue" d="M356.69,-231.37C334.03,-221.26 302.87,-207.35 283.08,-198.52"/>
<polygon fill="midnightblue" stroke="midnightblue" points="355.27,-234.56 365.83,-235.44 358.12,-228.17 355.27,-234.56"/>
</g>
<!-- Node16 -->
<g id="node16" class="node">
<title>Node16</title>
<g id="a_node16"><a xlink:href="livro_8cpp.html" target="_top" xlink:title=" ">
<polygon fill="white" stroke="black" points="432.5,-179.5 432.5,-198.5 533.5,-198.5 533.5,-179.5 432.5,-179.5"/>
<text text-anchor="middle" x="483" y="-186.5" font-family="Helvetica,sans-Serif" font-size="10.00">src/livro/livro.cpp</text>
</a>
</g>
</g>
<!-- Node1&#45;&gt;Node16 -->
<g id="edge23" class="edge">
<title>Node1&#45;&gt;Node16</title>
<path fill="none" stroke="midnightblue" d="M409.59,-230.45C427.68,-220.48 451.73,-207.23 467.29,-198.65"/>
<polygon fill="midnightblue" stroke="midnightblue" points="407.81,-227.43 400.75,-235.32 411.19,-233.56 407.81,-227.43"/>
</g>
<!-- Node17 -->
<g id="node17" class="node">
<title>Node17</title>
<g id="a_node17"><a xlink:href="teste__livro_8hpp.html" target="_top" xlink:title=" ">
<polygon fill="white" stroke="black" points="0,-179.5 0,-198.5 116,-198.5 116,-179.5 0,-179.5"/>
<text text-anchor="middle" x="58" y="-186.5" font-family="Helvetica,sans-Serif" font-size="10.00">tests/teste_livro.hpp</text>
</a>
</g>
</g>
<!-- Node1&#45;&gt;Node17 -->
<g id="edge24" class="edge">
<title>Node1&#45;&gt;Node17</title>
<path fill="none" stroke="midnightblue" d="M323.18,-233.79C261.39,-223.59 167.47,-208.08 109.57,-198.52"/>
<polygon fill="midnightblue" stroke="midnightblue" points="322.75,-237.27 333.19,-235.44 323.89,-230.36 322.75,-237.27"/>
</g>
<!-- Node3 -->
<g id="node3" class="node">
<title>Node3</title>
<g id="a_node3"><a xlink:href="biblioteca_8cpp.html" target="_top" xlink:title=" ">
<polygon fill="white" stroke="black" points="64.5,-56.5 64.5,-75.5 217.5,-75.5 217.5,-56.5 64.5,-56.5"/>
<text text-anchor="middle" x="141" y="-63.5" font-family="Helvetica,sans-Serif" font-size="10.00">src/biblioteca/biblioteca.cpp</text>
</a>
</g>
</g>
<!-- Node2&#45;&gt;Node3 -->
<g id="edge2" class="edge">
<title>Node2&#45;&gt;Node3</title>
<path fill="none" stroke="midnightblue" d="M306.73,-110.44C263.89,-99.21 208.36,-84.66 173.71,-75.57"/>
<polygon fill="midnightblue" stroke="midnightblue" points="305.93,-113.85 316.49,-113 307.7,-107.08 305.93,-113.85"/>
</g>
<!-- Node4 -->
<g id="node4" class="node">
<title>Node4</title>
<g id="a_node4"><a xlink:href="main_8cpp.html" target="_top" xlink:title=" ">
<polygon fill="white" stroke="black" points="396.5,-56.5 396.5,-75.5 475.5,-75.5 475.5,-56.5 396.5,-56.5"/>
<text text-anchor="middle" x="436" y="-63.5" font-family="Helvetica,sans-Serif" font-size="10.00">src/main.cpp</text>
</a>
</g>
</g>
<!-- Node2&#45;&gt;Node4 -->
<g id="edge3" class="edge">
<title>Node2&#45;&gt;Node4</title>
<path fill="none" stroke="midnightblue" d="M391.89,-105.6C403.64,-95.32 417.16,-83.48 426.11,-75.66"/>
<polygon fill="midnightblue" stroke="midnightblue" points="389.34,-103.18 384.12,-112.4 393.95,-108.45 389.34,-103.18"/>
</g>
<!-- Node5 -->
<g id="node5" class="node">
<title>Node5</title>
<g id="a_node5"><a xlink:href="teste__biblioteca_8hpp.html" target="_top" xlink:title=" ">
<polygon fill="white" stroke="black" points="235.5,-56.5 235.5,-75.5 378.5,-75.5 378.5,-56.5 235.5,-56.5"/>
<text text-anchor="middle" x="307" y="-63.5" font-family="Helvetica,sans-Serif" font-size="10.00">tests/teste_biblioteca.hpp</text>
</a>
</g>
</g>
<!-- Node2&#45;&gt;Node5 -->
<g id="edge4" class="edge">
<title>Node2&#45;&gt;Node5</title>
<path fill="none" stroke="midnightblue" d="M346.27,-105.3C335.8,-95.09 323.82,-83.41 315.88,-75.66"/>
<polygon fill="midnightblue" stroke="midnightblue" points="343.94,-107.92 353.54,-112.4 348.83,-102.91 343.94,-107.92"/>
</g>
<!-- Node6 -->
<g id="node6" class="node">
<title>Node6</title>
<g id="a_node6"><a xlink:href="teste_8cpp.html" target="_top" xlink:title=" ">
<polygon fill="white" stroke="black" points="262.5,-0.5 262.5,-19.5 351.5,-19.5 351.5,-0.5 262.5,-0.5"/>
<text text-anchor="middle" x="307" y="-7.5" font-family="Helvetica,sans-Serif" font-size="10.00">tests/teste.cpp</text>
</a>
</g>
</g>
<!-- Node5&#45;&gt;Node6 -->
<g id="edge5" class="edge">
<title>Node5&#45;&gt;Node6</title>
<path fill="none" stroke="midnightblue" d="M307,-45.8C307,-36.91 307,-26.78 307,-19.75"/>
<polygon fill="midnightblue" stroke="midnightblue" points="303.5,-46.08 307,-56.08 310.5,-46.08 303.5,-46.08"/>
</g>
<!-- Node7&#45;&gt;Node2 -->
<g id="edge7" class="edge">
<title>Node7&#45;&gt;Node2</title>
<path fill="none" stroke="midnightblue" d="M581.65,-177.21C535.93,-166.78 466.86,-151.04 419.72,-140.29"/>
<polygon fill="midnightblue" stroke="midnightblue" points="581.08,-180.66 591.61,-179.48 582.63,-173.84 581.08,-180.66"/>
</g>
<!-- Node7&#45;&gt;Node8 -->
<g id="edge8" class="edge">
<title>Node7&#45;&gt;Node8</title>
<path fill="none" stroke="midnightblue" d="M600.13,-175.46C577.94,-165.82 547.29,-152.51 524.29,-142.52"/>
<polygon fill="midnightblue" stroke="midnightblue" points="598.8,-178.7 609.37,-179.48 601.59,-172.28 598.8,-178.7"/>
</g>
<!-- Node11 -->
<g id="node11" class="node">
<title>Node11</title>
<g id="a_node11"><a xlink:href="usuario_8cpp.html" target="_top" xlink:title=" ">
<polygon fill="white" stroke="black" points="562.5,-118 562.5,-137 695.5,-137 695.5,-118 562.5,-118"/>
<text text-anchor="middle" x="629" y="-125" font-family="Helvetica,sans-Serif" font-size="10.00">src/pessoas/usuario.cpp</text>
</a>
</g>
</g>
<!-- Node7&#45;&gt;Node11 -->
<g id="edge13" class="edge">
<title>Node7&#45;&gt;Node11</title>
<path fill="none" stroke="midnightblue" d="M629,-169.32C629,-158.5 629,-145.4 629,-137.01"/>
<polygon fill="midnightblue" stroke="midnightblue" points="625.5,-169.48 629,-179.48 632.5,-169.48 625.5,-169.48"/>
</g>
<!-- Node12 -->
<g id="node12" class="node">
<title>Node12</title>
<g id="a_node12"><a xlink:href="teste__usuario_8hpp.html" target="_top" xlink:title=" ">
<polygon fill="white" stroke="black" points="808.5,-56.5 808.5,-75.5 939.5,-75.5 939.5,-56.5 808.5,-56.5"/>
<text text-anchor="middle" x="874" y="-63.5" font-family="Helvetica,sans-Serif" font-size="10.00">tests/teste_usuario.hpp</text>
</a>
</g>
</g>
<!-- Node7&#45;&gt;Node12 -->
<g id="edge14" class="edge">
<title>Node7&#45;&gt;Node12</title>
<path fill="none" stroke="midnightblue" d="M655.49,-174.92C705.83,-150.06 814.07,-96.6 856.46,-75.66"/>
<polygon fill="midnightblue" stroke="midnightblue" points="653.64,-171.93 646.23,-179.49 656.74,-178.2 653.64,-171.93"/>
</g>
<!-- Node8&#45;&gt;Node4 -->
<g id="edge10" class="edge">
<title>Node8&#45;&gt;Node4</title>
<path fill="none" stroke="midnightblue" d="M471.77,-105C462.22,-94.86 451.37,-83.33 444.15,-75.66"/>
<polygon fill="midnightblue" stroke="midnightblue" points="469.33,-107.52 478.73,-112.4 474.42,-102.72 469.33,-107.52"/>
</g>
<!-- Node9 -->
<g id="node9" class="node">
<title>Node9</title>
<g id="a_node9"><a xlink:href="sistema_8cpp.html" target="_top" xlink:title=" ">
<polygon fill="white" stroke="black" points="646,-56.5 646,-75.5 790,-75.5 790,-56.5 646,-56.5"/>
<text text-anchor="middle" x="718" y="-63.5" font-family="Helvetica,sans-Serif" font-size="10.00">src/biblioteca/sistema.cpp</text>
</a>
</g>
</g>
<!-- Node8&#45;&gt;Node9 -->
<g id="edge9" class="edge">
<title>Node8&#45;&gt;Node9</title>
<path fill="none" stroke="midnightblue" d="M553.29,-110.36C595.93,-99.14 651.1,-84.61 685.52,-75.55"/>
<polygon fill="midnightblue" stroke="midnightblue" points="552.35,-106.99 543.57,-112.92 554.13,-113.76 552.35,-106.99"/>
</g>
<!-- Node10 -->
<g id="node10" class="node">
<title>Node10</title>
<g id="a_node10"><a xlink:href="teste__sistema_8hpp.html" target="_top" xlink:title=" ">
<polygon fill="white" stroke="black" points="494,-56.5 494,-75.5 628,-75.5 628,-56.5 494,-56.5"/>
<text text-anchor="middle" x="561" y="-63.5" font-family="Helvetica,sans-Serif" font-size="10.00">tests/teste_sistema.hpp</text>
</a>
</g>
</g>
<!-- Node8&#45;&gt;Node10 -->
<g id="edge11" class="edge">
<title>Node8&#45;&gt;Node10</title>
<path fill="none" stroke="midnightblue" d="M516.24,-105.6C528.16,-95.32 541.89,-83.48 550.96,-75.66"/>
<polygon fill="midnightblue" stroke="midnightblue" points="513.64,-103.22 508.35,-112.4 518.21,-108.52 513.64,-103.22"/>
</g>
<!-- Node10&#45;&gt;Node6 -->
<g id="edge12" class="edge">
<title>Node10&#45;&gt;Node6</title>
<path fill="none" stroke="midnightblue" d="M510.88,-54.35C462.88,-44.14 391.38,-28.94 347.06,-19.52"/>
<polygon fill="midnightblue" stroke="midnightblue" points="510.24,-57.79 520.75,-56.44 511.7,-50.94 510.24,-57.79"/>
</g>
<!-- Node12&#45;&gt;Node6 -->
<g id="edge15" class="edge">
<title>Node12&#45;&gt;Node6</title>
<path fill="none" stroke="midnightblue" d="M798.21,-55.94C626.95,-37.96 436.69,-21.72 351.81,-14.67"/>
<polygon fill="midnightblue" stroke="midnightblue" points="797.85,-59.43 808.16,-56.99 798.58,-52.46 797.85,-59.43"/>
</g>
<!-- Node13&#45;&gt;Node2 -->
<g id="edge17" class="edge">
<title>Node13&#45;&gt;Node2</title>
<path fill="none" stroke="midnightblue" d="M287.99,-174.28C304.63,-164.75 326.73,-152.11 343.49,-142.52"/>
<polygon fill="midnightblue" stroke="midnightblue" points="285.84,-171.47 278.9,-179.48 289.32,-177.55 285.84,-171.47"/>
</g>
<!-- Node13&#45;&gt;Node8 -->
<g id="edge18" class="edge">
<title>Node13&#45;&gt;Node8</title>
<path fill="none" stroke="midnightblue" d="M306.38,-176.94C344.29,-167.05 399.97,-152.52 440.45,-141.95"/>
<polygon fill="midnightblue" stroke="midnightblue" points="305.46,-173.56 296.67,-179.48 307.23,-180.34 305.46,-173.56"/>
</g>
<!-- Node14 -->
<g id="node14" class="node">
<title>Node14</title>
<g id="a_node14"><a xlink:href="admin_8cpp.html" target="_top" xlink:title=" ">
<polygon fill="white" stroke="black" points="170,-118 170,-137 298,-137 298,-118 170,-118"/>
<text text-anchor="middle" x="234" y="-125" font-family="Helvetica,sans-Serif" font-size="10.00">src/pessoas/admin.cpp</text>
</a>
</g>
</g>
<!-- Node13&#45;&gt;Node14 -->
<g id="edge19" class="edge">
<title>Node13&#45;&gt;Node14</title>
<path fill="none" stroke="midnightblue" d="M255.09,-170.33C249.54,-159.33 242.65,-145.66 238.29,-137.01"/>
<polygon fill="midnightblue" stroke="midnightblue" points="252.07,-172.12 259.7,-179.48 258.32,-168.97 252.07,-172.12"/>
</g>
<!-- Node15 -->
<g id="node15" class="node">
<title>Node15</title>
<g id="a_node15"><a xlink:href="teste__admin_8hpp.html" target="_top" xlink:title=" ">
<polygon fill="white" stroke="black" points="26.5,-118 26.5,-137 151.5,-137 151.5,-118 26.5,-118"/>
<text text-anchor="middle" x="89" y="-125" font-family="Helvetica,sans-Serif" font-size="10.00">tests/teste_admin.hpp</text>
</a>
</g>
</g>
<!-- Node13&#45;&gt;Node15 -->
<g id="edge20" class="edge">
<title>Node13&#45;&gt;Node15</title>
<path fill="none" stroke="midnightblue" d="M229.39,-176.23C195.37,-164.67 144.28,-147.3 114.03,-137.01"/>
<polygon fill="midnightblue" stroke="midnightblue" points="228.33,-179.57 238.93,-179.48 230.59,-172.94 228.33,-179.57"/>
</g>
<!-- Node15&#45;&gt;Node6 -->
<g id="edge21" class="edge">
<title>Node15&#45;&gt;Node6</title>
<path fill="none" stroke="midnightblue" d="M71.91,-110.77C57.48,-95.57 41.18,-72.5 55,-56 80.93,-25.03 197.06,-15.36 262.24,-12.35"/>
<polygon fill="midnightblue" stroke="midnightblue" points="69.56,-113.36 79.12,-117.92 74.49,-108.39 69.56,-113.36"/>
</g>
<!-- Node17&#45;&gt;Node6 -->
<g id="edge25" class="edge">
<title>Node17&#45;&gt;Node6</title>
<path fill="none" stroke="midnightblue" d="M38.75,-172.75C30.37,-164.87 21.45,-154.5 17,-143 2.28,-104.99 13.11,-80.07 46,-56 79.72,-31.32 197.11,-19 262.38,-13.93"/>
<polygon fill="midnightblue" stroke="midnightblue" points="36.63,-175.54 46.46,-179.49 41.24,-170.27 36.63,-175.54"/>
</g>
</g>
</svg>
