<?xml version="1.0" encoding="UTF-8" standalone="no"?>
<!DOCTYPE svg PUBLIC "-//W3C//DTD SVG 1.1//EN"
 "http://www.w3.org/Graphics/SVG/1.1/DTD/svg11.dtd">
<!-- Generated by graphviz version 2.43.0 (0)
 -->
<!-- Title: src/livro/livro.cpp Pages: 1 -->
<svg width="196pt" height="151pt"
 viewBox="0.00 0.00 196.00 151.00" xmlns="http://www.w3.org/2000/svg" xmlns:xlink="http://www.w3.org/1999/xlink">
<g id="graph0" class="graph" transform="scale(1 1) rotate(0) translate(4 147)">
<title>src/livro/livro.cpp</title>
<polygon fill="white" stroke="transparent" points="-4,4 -4,-147 192,-147 192,4 -4,4"/>
<!-- Node1 -->
<g id="node1" class="node">
<title>Node1</title>
<g id="a_node1"><a xlink:title=" ">
<polygon fill="#bfbfbf" stroke="black" points="51.5,-123.5 51.5,-142.5 152.5,-142.5 152.5,-123.5 51.5,-123.5"/>
<text text-anchor="middle" x="102" y="-130.5" font-family="Helvetica,sans-Serif" font-size="10.00">src/livro/livro.cpp</text>
</a>
</g>
</g>
<!-- Node2 -->
<g id="node2" class="node">
<title>Node2</title>
<g id="a_node2"><a xlink:href="livro_8hpp.html" target="_top" xlink:title="Classe do objeto Livro.">
<polygon fill="white" stroke="black" points="54.5,-56.5 54.5,-86.5 149.5,-86.5 149.5,-56.5 54.5,-56.5"/>
<text text-anchor="start" x="62.5" y="-74.5" font-family="Helvetica,sans-Serif" font-size="10.00">../../include/livro</text>
<text text-anchor="middle" x="102" y="-63.5" font-family="Helvetica,sans-Serif" font-size="10.00">/livro.hpp</text>
</a>
</g>
</g>
<!-- Node1&#45;&gt;Node2 -->
<g id="edge1" class="edge">
<title>Node1&#45;&gt;Node2</title>
<path fill="none" stroke="midnightblue" d="M102,-123.48C102,-116.47 102,-106.19 102,-96.7"/>
<polygon fill="midnightblue" stroke="midnightblue" points="105.5,-96.52 102,-86.52 98.5,-96.52 105.5,-96.52"/>
</g>
<!-- Node3 -->
<g id="node3" class="node">
<title>Node3</title>
<g id="a_node3"><a xlink:title=" ">
<polygon fill="white" stroke="#bfbfbf" points="0,-0.5 0,-19.5 60,-19.5 60,-0.5 0,-0.5"/>
<text text-anchor="middle" x="30" y="-7.5" font-family="Helvetica,sans-Serif" font-size="10.00">iostream</text>
</a>
</g>
</g>
<!-- Node2&#45;&gt;Node3 -->
<g id="edge2" class="edge">
<title>Node2&#45;&gt;Node3</title>
<path fill="none" stroke="midnightblue" d="M84.94,-56.4C73.94,-47.31 59.63,-35.49 48.38,-26.19"/>
<polygon fill="midnightblue" stroke="midnightblue" points="50.41,-23.33 40.48,-19.66 45.96,-28.73 50.41,-23.33"/>
</g>
<!-- Node4 -->
<g id="node4" class="node">
<title>Node4</title>
<g id="a_node4"><a xlink:title=" ">
<polygon fill="white" stroke="#bfbfbf" points="78.5,-0.5 78.5,-19.5 125.5,-19.5 125.5,-0.5 78.5,-0.5"/>
<text text-anchor="middle" x="102" y="-7.5" font-family="Helvetica,sans-Serif" font-size="10.00">vector</text>
</a>
</g>
</g>
<!-- Node2&#45;&gt;Node4 -->
<g id="edge3" class="edge">
<title>Node2&#45;&gt;Node4</title>
<path fill="none" stroke="midnightblue" d="M102,-56.4C102,-48.47 102,-38.46 102,-29.86"/>
<polygon fill="midnightblue" stroke="midnightblue" points="105.5,-29.66 102,-19.66 98.5,-29.66 105.5,-29.66"/>
</g>
<!-- Node5 -->
<g id="node5" class="node">
<title>Node5</title>
<g id="a_node5"><a xlink:title=" ">
<polygon fill="white" stroke="#bfbfbf" points="144,-0.5 144,-19.5 188,-19.5 188,-0.5 144,-0.5"/>
<text text-anchor="middle" x="166" y="-7.5" font-family="Helvetica,sans-Serif" font-size="10.00">string</text>
</a>
</g>
</g>
<!-- Node2&#45;&gt;Node5 -->
<g id="edge4" class="edge">
<title>Node2&#45;&gt;Node5</title>
<path fill="none" stroke="midnightblue" d="M117.17,-56.4C126.75,-47.49 139.16,-35.95 149.07,-26.74"/>
<polygon fill="midnightblue" stroke="midnightblue" points="151.75,-29.03 156.69,-19.66 146.98,-23.9 151.75,-29.03"/>
</g>
</g>
</svg>
