<?xml version="1.0" encoding="UTF-8" standalone="no"?>
<!DOCTYPE svg PUBLIC "-//W3C//DTD SVG 1.1//EN"
 "http://www.w3.org/Graphics/SVG/1.1/DTD/svg11.dtd">
<!-- Generated by graphviz version 2.43.0 (0)
 -->
<!-- Title: src/main.cpp Pages: 1 -->
<svg width="1237pt" height="319pt"
 viewBox="0.00 0.00 1236.58 319.00" xmlns="http://www.w3.org/2000/svg" xmlns:xlink="http://www.w3.org/1999/xlink">
<g id="graph0" class="graph" transform="scale(1 1) rotate(0) translate(4 315)">
<title>src/main.cpp</title>
<polygon fill="white" stroke="transparent" points="-4,4 -4,-315 1232.58,-315 1232.58,4 -4,4"/>
<!-- Node1 -->
<g id="node1" class="node">
<title>Node1</title>
<g id="a_node1"><a xlink:title=" ">
<polygon fill="#bfbfbf" stroke="black" points="200.5,-291.5 200.5,-310.5 279.5,-310.5 279.5,-291.5 200.5,-291.5"/>
<text text-anchor="middle" x="240" y="-298.5" font-family="Helvetica,sans-Serif" font-size="10.00">src/main.cpp</text>
</a>
</g>
</g>
<!-- Node2 -->
<g id="node2" class="node">
<title>Node2</title>
<g id="a_node2"><a xlink:title=" ">
<polygon fill="white" stroke="#bfbfbf" points="348,-0.5 348,-19.5 408,-19.5 408,-0.5 348,-0.5"/>
<text text-anchor="middle" x="378" y="-7.5" font-family="Helvetica,sans-Serif" font-size="10.00">iostream</text>
</a>
</g>
</g>
<!-- Node1&#45;&gt;Node2 -->
<g id="edge1" class="edge">
<title>Node1&#45;&gt;Node2</title>
<path fill="none" stroke="midnightblue" d="M200.37,-297.7C132.2,-291.37 0,-267.66 0,-179 0,-179 0,-179 0,-121 0,-51.26 240.19,-22.81 337.64,-14.13"/>
<polygon fill="midnightblue" stroke="midnightblue" points="338.04,-17.61 347.71,-13.26 337.44,-10.64 338.04,-17.61"/>
</g>
<!-- Node3 -->
<g id="node3" class="node">
<title>Node3</title>
<g id="a_node3"><a xlink:title=" ">
<polygon fill="white" stroke="#bfbfbf" points="87,-230 87,-249 133,-249 133,-230 87,-230"/>
<text text-anchor="middle" x="110" y="-237" font-family="Helvetica,sans-Serif" font-size="10.00">cstdio</text>
</a>
</g>
</g>
<!-- Node1&#45;&gt;Node3 -->
<g id="edge2" class="edge">
<title>Node1&#45;&gt;Node3</title>
<path fill="none" stroke="midnightblue" d="M221.37,-291.48C199.56,-281.49 163.2,-264.85 137.98,-253.31"/>
<polygon fill="midnightblue" stroke="midnightblue" points="139.14,-249.99 128.59,-249.01 136.23,-256.35 139.14,-249.99"/>
</g>
<!-- Node4 -->
<g id="node4" class="node">
<title>Node4</title>
<g id="a_node4"><a xlink:title=" ">
<polygon fill="white" stroke="#bfbfbf" points="151,-230 151,-249 197,-249 197,-230 151,-230"/>
<text text-anchor="middle" x="174" y="-237" font-family="Helvetica,sans-Serif" font-size="10.00">locale</text>
</a>
</g>
</g>
<!-- Node1&#45;&gt;Node4 -->
<g id="edge3" class="edge">
<title>Node1&#45;&gt;Node4</title>
<path fill="none" stroke="midnightblue" d="M230.54,-291.48C220.25,-282.2 203.58,-267.17 191.01,-255.83"/>
<polygon fill="midnightblue" stroke="midnightblue" points="193.21,-253.11 183.44,-249.01 188.52,-258.3 193.21,-253.11"/>
</g>
<!-- Node5 -->
<g id="node5" class="node">
<title>Node5</title>
<g id="a_node5"><a xlink:title=" ">
<polygon fill="white" stroke="#bfbfbf" points="215.5,-230 215.5,-249 264.5,-249 264.5,-230 215.5,-230"/>
<text text-anchor="middle" x="240" y="-237" font-family="Helvetica,sans-Serif" font-size="10.00">cstdlib</text>
</a>
</g>
</g>
<!-- Node1&#45;&gt;Node5 -->
<g id="edge4" class="edge">
<title>Node1&#45;&gt;Node5</title>
<path fill="none" stroke="midnightblue" d="M240,-291.48C240,-283.08 240,-269.98 240,-259.16"/>
<polygon fill="midnightblue" stroke="midnightblue" points="243.5,-259.01 240,-249.01 236.5,-259.01 243.5,-259.01"/>
</g>
<!-- Node6 -->
<g id="node6" class="node">
<title>Node6</title>
<g id="a_node6"><a xlink:title=" ">
<polygon fill="white" stroke="#bfbfbf" points="283,-230 283,-249 333,-249 333,-230 283,-230"/>
<text text-anchor="middle" x="308" y="-237" font-family="Helvetica,sans-Serif" font-size="10.00">stdio.h</text>
</a>
</g>
</g>
<!-- Node1&#45;&gt;Node6 -->
<g id="edge5" class="edge">
<title>Node1&#45;&gt;Node6</title>
<path fill="none" stroke="midnightblue" d="M249.74,-291.48C260.35,-282.2 277.52,-267.17 290.48,-255.83"/>
<polygon fill="midnightblue" stroke="midnightblue" points="293.05,-258.23 298.28,-249.01 288.44,-252.96 293.05,-258.23"/>
</g>
<!-- Node7 -->
<g id="node7" class="node">
<title>Node7</title>
<g id="a_node7"><a xlink:href="sistema_8hpp.html" target="_top" xlink:title="Classe responsável por armazenar o histórico de livros.">
<polygon fill="white" stroke="black" points="351,-224.5 351,-254.5 463,-254.5 463,-224.5 351,-224.5"/>
<text text-anchor="start" x="359" y="-242.5" font-family="Helvetica,sans-Serif" font-size="10.00">../include/biblioteca</text>
<text text-anchor="middle" x="407" y="-231.5" font-family="Helvetica,sans-Serif" font-size="10.00">/sistema.hpp</text>
</a>
</g>
</g>
<!-- Node1&#45;&gt;Node7 -->
<g id="edge6" class="edge">
<title>Node1&#45;&gt;Node7</title>
<path fill="none" stroke="midnightblue" d="M263.93,-291.48C288.34,-282.78 326.93,-269.03 357.89,-258"/>
<polygon fill="midnightblue" stroke="midnightblue" points="359.4,-261.18 367.64,-254.52 357.05,-254.58 359.4,-261.18"/>
</g>
<!-- Node21 -->
<g id="node21" class="node">
<title>Node21</title>
<g id="a_node21"><a xlink:href="biblioteca_8hpp.html" target="_top" xlink:title="Classe responsável por armazenar os livros existentes, adicionar e remover livros,...">
<polygon fill="white" stroke="black" points="627,-224.5 627,-254.5 739,-254.5 739,-224.5 627,-224.5"/>
<text text-anchor="start" x="635" y="-242.5" font-family="Helvetica,sans-Serif" font-size="10.00">../include/biblioteca</text>
<text text-anchor="middle" x="683" y="-231.5" font-family="Helvetica,sans-Serif" font-size="10.00">/biblioteca.hpp</text>
</a>
</g>
</g>
<!-- Node1&#45;&gt;Node21 -->
<g id="edge49" class="edge">
<title>Node1&#45;&gt;Node21</title>
<path fill="none" stroke="midnightblue" d="M279.7,-294.67C355.85,-284.44 523.14,-261.97 616.56,-249.42"/>
<polygon fill="midnightblue" stroke="midnightblue" points="617.3,-252.86 626.75,-248.06 616.37,-245.92 617.3,-252.86"/>
</g>
<!-- Node7&#45;&gt;Node2 -->
<g id="edge42" class="edge">
<title>Node7&#45;&gt;Node2</title>
<path fill="none" stroke="midnightblue" d="M350.69,-225.61C347.76,-225.04 344.85,-224.5 342,-224 280.21,-213.16 103.44,-235.1 62,-188 39.69,-162.64 42.08,-139.28 62,-112 126.13,-24.18 267.55,-10.96 337.37,-10.07"/>
<polygon fill="midnightblue" stroke="midnightblue" points="337.56,-13.57 347.54,-10.02 337.52,-6.57 337.56,-13.57"/>
</g>
<!-- Node8 -->
<g id="node8" class="node">
<title>Node8</title>
<g id="a_node8"><a xlink:href="livro_8hpp.html" target="_top" xlink:title="Classe do objeto Livro.">
<polygon fill="white" stroke="black" points="218.5,-112.5 218.5,-131.5 311.5,-131.5 311.5,-112.5 218.5,-112.5"/>
<text text-anchor="middle" x="265" y="-119.5" font-family="Helvetica,sans-Serif" font-size="10.00">../livro/livro.hpp</text>
</a>
</g>
</g>
<!-- Node7&#45;&gt;Node8 -->
<g id="edge7" class="edge">
<title>Node7&#45;&gt;Node8</title>
<path fill="none" stroke="midnightblue" d="M350.93,-225.3C328.82,-217.62 304.76,-205.82 288,-188 276.09,-175.34 270.29,-156.13 267.5,-141.88"/>
<polygon fill="midnightblue" stroke="midnightblue" points="270.91,-141.03 265.85,-131.73 264,-142.16 270.91,-141.03"/>
</g>
<!-- Node9 -->
<g id="node9" class="node">
<title>Node9</title>
<g id="a_node9"><a xlink:title=" ">
<polygon fill="white" stroke="#bfbfbf" points="293.5,-56.5 293.5,-75.5 340.5,-75.5 340.5,-56.5 293.5,-56.5"/>
<text text-anchor="middle" x="317" y="-63.5" font-family="Helvetica,sans-Serif" font-size="10.00">vector</text>
</a>
</g>
</g>
<!-- Node7&#45;&gt;Node9 -->
<g id="edge43" class="edge">
<title>Node7&#45;&gt;Node9</title>
<path fill="none" stroke="midnightblue" d="M350.99,-225.97C347.95,-225.3 344.94,-224.64 342,-224 244.84,-202.75 166.03,-227.43 138,-132 135.5,-123.47 132.53,-119.01 138,-112 155.68,-89.33 236.51,-76.33 283.28,-70.58"/>
<polygon fill="midnightblue" stroke="midnightblue" points="283.75,-74.05 293.27,-69.4 282.93,-67.1 283.75,-74.05"/>
</g>
<!-- Node10 -->
<g id="node10" class="node">
<title>Node10</title>
<g id="a_node10"><a xlink:title=" ">
<polygon fill="white" stroke="#bfbfbf" points="882,-0.5 882,-19.5 926,-19.5 926,-0.5 882,-0.5"/>
<text text-anchor="middle" x="904" y="-7.5" font-family="Helvetica,sans-Serif" font-size="10.00">string</text>
</a>
</g>
</g>
<!-- Node7&#45;&gt;Node10 -->
<g id="edge47" class="edge">
<title>Node7&#45;&gt;Node10</title>
<path fill="none" stroke="midnightblue" d="M350.65,-225.81C347.73,-225.19 344.83,-224.58 342,-224 257.39,-206.59 216.68,-244.11 151,-188 124.44,-165.31 111.56,-141.02 131,-112 167.37,-57.69 203.36,-70.94 267,-56 383.98,-28.54 759.54,-15.32 871.93,-11.91"/>
<polygon fill="midnightblue" stroke="midnightblue" points="872.08,-15.41 881.97,-11.61 871.87,-8.41 872.08,-15.41"/>
</g>
<!-- Node11 -->
<g id="node11" class="node">
<title>Node11</title>
<g id="a_node11"><a xlink:href="usuario_8hpp.html" target="_top" xlink:title="Classe do usuario.">
<polygon fill="white" stroke="black" points="620.5,-168.5 620.5,-187.5 745.5,-187.5 745.5,-168.5 620.5,-168.5"/>
<text text-anchor="middle" x="683" y="-175.5" font-family="Helvetica,sans-Serif" font-size="10.00">../pessoas/usuario.hpp</text>
</a>
</g>
</g>
<!-- Node7&#45;&gt;Node11 -->
<g id="edge11" class="edge">
<title>Node7&#45;&gt;Node11</title>
<path fill="none" stroke="midnightblue" d="M463.19,-226.39C513.22,-215.6 585.7,-199.98 633.57,-189.66"/>
<polygon fill="midnightblue" stroke="midnightblue" points="634.35,-193.07 643.39,-187.54 632.88,-186.23 634.35,-193.07"/>
</g>
<!-- Node13 -->
<g id="node13" class="node">
<title>Node13</title>
<g id="a_node13"><a xlink:href="erros_8hpp.html" target="_top" xlink:title="Classes de tratamento de exceções.">
<polygon fill="white" stroke="black" points="1099.5,-56.5 1099.5,-75.5 1198.5,-75.5 1198.5,-56.5 1099.5,-56.5"/>
<text text-anchor="middle" x="1149" y="-63.5" font-family="Helvetica,sans-Serif" font-size="10.00">../erros/erros.hpp</text>
</a>
</g>
</g>
<!-- Node7&#45;&gt;Node13 -->
<g id="edge40" class="edge">
<title>Node7&#45;&gt;Node13</title>
<path fill="none" stroke="midnightblue" d="M463.08,-234.9C580.46,-227.09 848.58,-207.69 938,-188 1011.17,-171.89 1035.91,-175.37 1097,-132 1114.79,-119.37 1129.68,-99.04 1138.9,-84.48"/>
<polygon fill="midnightblue" stroke="midnightblue" points="1141.92,-86.24 1144.12,-75.88 1135.94,-82.61 1141.92,-86.24"/>
</g>
<!-- Node15 -->
<g id="node15" class="node">
<title>Node15</title>
<g id="a_node15"><a xlink:href="arquivos_8hpp.html" target="_top" xlink:title="Classe assistente para facilitar a manipulação de arquivos.">
<polygon fill="white" stroke="black" points="710,-112.5 710,-131.5 850,-131.5 850,-112.5 710,-112.5"/>
<text text-anchor="middle" x="780" y="-119.5" font-family="Helvetica,sans-Serif" font-size="10.00">../biblioteca/arquivos.hpp</text>
</a>
</g>
</g>
<!-- Node7&#45;&gt;Node15 -->
<g id="edge41" class="edge">
<title>Node7&#45;&gt;Node15</title>
<path fill="none" stroke="midnightblue" d="M445.08,-224.41C485.85,-209.55 552.59,-185.85 611,-168 652.76,-155.24 700.93,-142.62 735.13,-134"/>
<polygon fill="midnightblue" stroke="midnightblue" points="735.98,-137.4 744.83,-131.57 734.28,-130.61 735.98,-137.4"/>
</g>
<!-- Node16 -->
<g id="node16" class="node">
<title>Node16</title>
<g id="a_node16"><a xlink:title=" ">
<polygon fill="white" stroke="#bfbfbf" points="1049,-56.5 1049,-75.5 1081,-75.5 1081,-56.5 1049,-56.5"/>
<text text-anchor="middle" x="1065" y="-63.5" font-family="Helvetica,sans-Serif" font-size="10.00">set</text>
</a>
</g>
</g>
<!-- Node7&#45;&gt;Node16 -->
<g id="edge44" class="edge">
<title>Node7&#45;&gt;Node16</title>
<path fill="none" stroke="midnightblue" d="M463.14,-233.88C617.93,-220.56 1041.95,-179.98 1081,-132 1091.97,-118.52 1084.67,-98.62 1076.7,-84.39"/>
<polygon fill="midnightblue" stroke="midnightblue" points="1079.51,-82.28 1071.29,-75.6 1073.55,-85.95 1079.51,-82.28"/>
</g>
<!-- Node17 -->
<g id="node17" class="node">
<title>Node17</title>
<g id="a_node17"><a xlink:title=" ">
<polygon fill="white" stroke="#bfbfbf" points="859,-56.5 859,-75.5 897,-75.5 897,-56.5 859,-56.5"/>
<text text-anchor="middle" x="878" y="-63.5" font-family="Helvetica,sans-Serif" font-size="10.00">map</text>
</a>
</g>
</g>
<!-- Node7&#45;&gt;Node17 -->
<g id="edge45" class="edge">
<title>Node7&#45;&gt;Node17</title>
<path fill="none" stroke="midnightblue" d="M463.3,-235.1C532.79,-229.83 654.04,-217.05 754,-188 812.46,-171.01 845.9,-183.09 879,-132 887.81,-118.4 886.42,-99.6 883.5,-85.72"/>
<polygon fill="midnightblue" stroke="midnightblue" points="886.85,-84.67 881,-75.83 880.06,-86.39 886.85,-84.67"/>
</g>
<!-- Node18 -->
<g id="node18" class="node">
<title>Node18</title>
<g id="a_node18"><a xlink:title=" ">
<polygon fill="white" stroke="#bfbfbf" points="502.5,-56.5 502.5,-75.5 557.5,-75.5 557.5,-56.5 502.5,-56.5"/>
<text text-anchor="middle" x="530" y="-63.5" font-family="Helvetica,sans-Serif" font-size="10.00">fstream</text>
</a>
</g>
</g>
<!-- Node7&#45;&gt;Node18 -->
<g id="edge46" class="edge">
<title>Node7&#45;&gt;Node18</title>
<path fill="none" stroke="midnightblue" d="M350.72,-225.93C276.66,-206.88 161.15,-167.02 209,-112 227.38,-90.87 411.26,-75.39 492.15,-69.55"/>
<polygon fill="midnightblue" stroke="midnightblue" points="492.67,-73.02 502.4,-68.82 492.18,-66.04 492.67,-73.02"/>
</g>
<!-- Node19 -->
<g id="node19" class="node">
<title>Node19</title>
<g id="a_node19"><a xlink:title=" ">
<polygon fill="white" stroke="#bfbfbf" points="578,-56.5 578,-75.5 634,-75.5 634,-56.5 578,-56.5"/>
<text text-anchor="middle" x="606" y="-63.5" font-family="Helvetica,sans-Serif" font-size="10.00">sstream</text>
</a>
</g>
</g>
<!-- Node7&#45;&gt;Node19 -->
<g id="edge48" class="edge">
<title>Node7&#45;&gt;Node19</title>
<path fill="none" stroke="midnightblue" d="M399.88,-224.38C393.36,-209.28 386.23,-185.17 397,-168 416.76,-136.51 516.61,-97.94 570.83,-78.86"/>
<polygon fill="midnightblue" stroke="midnightblue" points="572.11,-82.12 580.4,-75.53 569.8,-75.51 572.11,-82.12"/>
</g>
<!-- Node20 -->
<g id="node20" class="node">
<title>Node20</title>
<g id="a_node20"><a xlink:href="admin_8hpp.html" target="_top" xlink:title="Classe do administrador.">
<polygon fill="white" stroke="black" points="406,-168.5 406,-187.5 526,-187.5 526,-168.5 406,-168.5"/>
<text text-anchor="middle" x="466" y="-175.5" font-family="Helvetica,sans-Serif" font-size="10.00">../pessoas/admin.hpp</text>
</a>
</g>
</g>
<!-- Node7&#45;&gt;Node20 -->
<g id="edge33" class="edge">
<title>Node7&#45;&gt;Node20</title>
<path fill="none" stroke="midnightblue" d="M420.98,-224.4C429.73,-215.58 441.03,-204.18 450.12,-195.02"/>
<polygon fill="midnightblue" stroke="midnightblue" points="452.86,-197.22 457.41,-187.66 447.89,-192.29 452.86,-197.22"/>
</g>
<!-- Node8&#45;&gt;Node2 -->
<g id="edge8" class="edge">
<title>Node8&#45;&gt;Node2</title>
<path fill="none" stroke="midnightblue" d="M259.13,-112.15C251.07,-98.77 238.88,-73.16 251,-56 270.5,-28.4 308.44,-17.62 337.79,-13.47"/>
<polygon fill="midnightblue" stroke="midnightblue" points="338.27,-16.93 347.77,-12.26 337.42,-9.99 338.27,-16.93"/>
</g>
<!-- Node8&#45;&gt;Node9 -->
<g id="edge9" class="edge">
<title>Node8&#45;&gt;Node9</title>
<path fill="none" stroke="midnightblue" d="M273.59,-112.08C281.16,-104.22 292.38,-92.57 301.51,-83.08"/>
<polygon fill="midnightblue" stroke="midnightblue" points="304.16,-85.38 308.57,-75.75 299.12,-80.53 304.16,-85.38"/>
</g>
<!-- Node8&#45;&gt;Node10 -->
<g id="edge10" class="edge">
<title>Node8&#45;&gt;Node10</title>
<path fill="none" stroke="midnightblue" d="M264.67,-112.16C264.67,-97.83 266.99,-69.74 284,-56 329.94,-18.89 750.61,-12.34 871.59,-11.22"/>
<polygon fill="midnightblue" stroke="midnightblue" points="871.74,-14.72 881.71,-11.14 871.68,-7.72 871.74,-14.72"/>
</g>
<!-- Node11&#45;&gt;Node8 -->
<g id="edge19" class="edge">
<title>Node11&#45;&gt;Node8</title>
<path fill="none" stroke="midnightblue" d="M620.42,-168.92C539.56,-158.47 399.92,-140.43 321.92,-130.35"/>
<polygon fill="midnightblue" stroke="midnightblue" points="322.16,-126.86 311.79,-129.05 321.26,-133.8 322.16,-126.86"/>
</g>
<!-- Node12 -->
<g id="node12" class="node">
<title>Node12</title>
<g id="a_node12"><a xlink:href="pessoa_8hpp.html" target="_top" xlink:title="Classe mãe de usuario e admin.">
<polygon fill="white" stroke="black" points="982,-112.5 982,-131.5 1054,-131.5 1054,-112.5 982,-112.5"/>
<text text-anchor="middle" x="1018" y="-119.5" font-family="Helvetica,sans-Serif" font-size="10.00">pessoa.hpp</text>
</a>
</g>
</g>
<!-- Node11&#45;&gt;Node12 -->
<g id="edge12" class="edge">
<title>Node11&#45;&gt;Node12</title>
<path fill="none" stroke="midnightblue" d="M736.08,-168.44C800.96,-157.99 909.71,-140.46 971.46,-130.5"/>
<polygon fill="midnightblue" stroke="midnightblue" points="972.37,-133.9 981.69,-128.85 971.26,-126.99 972.37,-133.9"/>
</g>
<!-- Node11&#45;&gt;Node15 -->
<g id="edge20" class="edge">
<title>Node11&#45;&gt;Node15</title>
<path fill="none" stroke="midnightblue" d="M698.58,-168.32C714,-159.74 737.81,-146.49 755.71,-136.52"/>
<polygon fill="midnightblue" stroke="midnightblue" points="757.42,-139.58 764.45,-131.65 754.01,-133.46 757.42,-139.58"/>
</g>
<!-- Node11&#45;&gt;Node16 -->
<g id="edge29" class="edge">
<title>Node11&#45;&gt;Node16</title>
<path fill="none" stroke="midnightblue" d="M745.54,-173.99C847.89,-168.43 1041.96,-154.96 1063,-132 1074.18,-119.8 1073.21,-100.25 1070.34,-85.77"/>
<polygon fill="midnightblue" stroke="midnightblue" points="1073.7,-84.79 1067.95,-75.9 1066.9,-86.44 1073.7,-84.79"/>
</g>
<!-- Node11&#45;&gt;Node17 -->
<g id="edge31" class="edge">
<title>Node11&#45;&gt;Node17</title>
<path fill="none" stroke="midnightblue" d="M745.81,-175.92C783.21,-171.99 829.07,-160.93 859,-132 871.41,-120.01 875.83,-100.4 877.35,-85.85"/>
<polygon fill="midnightblue" stroke="midnightblue" points="880.87,-85.72 878.04,-75.51 873.88,-85.26 880.87,-85.72"/>
</g>
<!-- Node11&#45;&gt;Node18 -->
<g id="edge30" class="edge">
<title>Node11&#45;&gt;Node18</title>
<path fill="none" stroke="midnightblue" d="M669.76,-168.42C656.13,-159.52 634.37,-145.1 616,-132 592.64,-115.35 566.42,-95.33 549.14,-81.95"/>
<polygon fill="midnightblue" stroke="midnightblue" points="551.03,-78.99 540.99,-75.61 546.73,-84.51 551.03,-78.99"/>
</g>
<!-- Node11&#45;&gt;Node19 -->
<g id="edge32" class="edge">
<title>Node11&#45;&gt;Node19</title>
<path fill="none" stroke="midnightblue" d="M669.07,-168.2C657.23,-160.08 640.51,-147.04 630,-132 620.1,-117.84 613.75,-99.11 610.09,-85.4"/>
<polygon fill="midnightblue" stroke="midnightblue" points="613.48,-84.54 607.71,-75.66 606.68,-86.2 613.48,-84.54"/>
</g>
<!-- Node12&#45;&gt;Node2 -->
<g id="edge13" class="edge">
<title>Node12&#45;&gt;Node2</title>
<path fill="none" stroke="midnightblue" d="M1007.02,-112.37C987.82,-97.81 946.31,-68.71 906,-56 815.04,-27.32 525.05,-15.58 418.11,-12.15"/>
<polygon fill="midnightblue" stroke="midnightblue" points="418.15,-8.65 408.05,-11.84 417.93,-15.65 418.15,-8.65"/>
</g>
<!-- Node12&#45;&gt;Node10 -->
<g id="edge14" class="edge">
<title>Node12&#45;&gt;Node10</title>
<path fill="none" stroke="midnightblue" d="M1012.25,-112.4C1003.28,-99.35 985.03,-74.16 966,-56 953.84,-44.4 938.59,-33.29 926.25,-25.01"/>
<polygon fill="midnightblue" stroke="midnightblue" points="928.15,-22.07 917.87,-19.52 924.31,-27.93 928.15,-22.07"/>
</g>
<!-- Node12&#45;&gt;Node13 -->
<g id="edge15" class="edge">
<title>Node12&#45;&gt;Node13</title>
<path fill="none" stroke="midnightblue" d="M1038.76,-112.44C1060.32,-103.56 1094.26,-89.56 1118.79,-79.45"/>
<polygon fill="midnightblue" stroke="midnightblue" points="1120.43,-82.56 1128.34,-75.52 1117.76,-76.09 1120.43,-82.56"/>
</g>
<!-- Node13&#45;&gt;Node2 -->
<g id="edge16" class="edge">
<title>Node13&#45;&gt;Node2</title>
<path fill="none" stroke="midnightblue" d="M1099.47,-57.12C1096.27,-56.71 1093.09,-56.33 1090,-56 835.26,-28.57 527.31,-16.09 418.47,-12.31"/>
<polygon fill="midnightblue" stroke="midnightblue" points="418.38,-8.8 408.27,-11.96 418.14,-15.8 418.38,-8.8"/>
</g>
<!-- Node13&#45;&gt;Node10 -->
<g id="edge17" class="edge">
<title>Node13&#45;&gt;Node10</title>
<path fill="none" stroke="midnightblue" d="M1110.18,-56.44C1062.09,-45.84 981.04,-27.98 936.22,-18.1"/>
<polygon fill="midnightblue" stroke="midnightblue" points="936.69,-14.62 926.18,-15.89 935.19,-21.46 936.69,-14.62"/>
</g>
<!-- Node14 -->
<g id="node14" class="node">
<title>Node14</title>
<g id="a_node14"><a xlink:title=" ">
<polygon fill="white" stroke="#bfbfbf" points="1124,-0.5 1124,-19.5 1174,-19.5 1174,-0.5 1124,-0.5"/>
<text text-anchor="middle" x="1149" y="-7.5" font-family="Helvetica,sans-Serif" font-size="10.00">cstring</text>
</a>
</g>
</g>
<!-- Node13&#45;&gt;Node14 -->
<g id="edge18" class="edge">
<title>Node13&#45;&gt;Node14</title>
<path fill="none" stroke="midnightblue" d="M1149,-56.08C1149,-49.01 1149,-38.86 1149,-29.99"/>
<polygon fill="midnightblue" stroke="midnightblue" points="1152.5,-29.75 1149,-19.75 1145.5,-29.75 1152.5,-29.75"/>
</g>
<!-- Node15&#45;&gt;Node2 -->
<g id="edge21" class="edge">
<title>Node15&#45;&gt;Node2</title>
<path fill="none" stroke="midnightblue" d="M765.35,-112.38C740.86,-98.37 689.7,-70.73 643,-56 565.56,-31.57 470.96,-19.56 418.3,-14.37"/>
<polygon fill="midnightblue" stroke="midnightblue" points="418.32,-10.86 408.04,-13.4 417.66,-17.83 418.32,-10.86"/>
</g>
<!-- Node15&#45;&gt;Node9 -->
<g id="edge23" class="edge">
<title>Node15&#45;&gt;Node9</title>
<path fill="none" stroke="midnightblue" d="M709.93,-112.83C608.97,-101.05 426.45,-79.77 351.03,-70.97"/>
<polygon fill="midnightblue" stroke="midnightblue" points="351.04,-67.45 340.7,-69.76 350.23,-74.4 351.04,-67.45"/>
</g>
<!-- Node15&#45;&gt;Node10 -->
<g id="edge22" class="edge">
<title>Node15&#45;&gt;Node10</title>
<path fill="none" stroke="midnightblue" d="M788.92,-112.43C802.09,-99.84 827.59,-75.72 850,-56 861.45,-45.92 874.6,-34.96 885.05,-26.38"/>
<polygon fill="midnightblue" stroke="midnightblue" points="887.57,-28.83 893.1,-19.8 883.14,-23.41 887.57,-28.83"/>
</g>
<!-- Node15&#45;&gt;Node13 -->
<g id="edge28" class="edge">
<title>Node15&#45;&gt;Node13</title>
<path fill="none" stroke="midnightblue" d="M839.74,-112.46C900.04,-103.81 996.15,-89.94 1089.53,-76.06"/>
<polygon fill="midnightblue" stroke="midnightblue" points="1090.05,-79.52 1099.43,-74.59 1089.02,-72.6 1090.05,-79.52"/>
</g>
<!-- Node15&#45;&gt;Node16 -->
<g id="edge24" class="edge">
<title>Node15&#45;&gt;Node16</title>
<path fill="none" stroke="midnightblue" d="M825.16,-112.44C885.42,-101.02 990.18,-81.18 1038.81,-71.96"/>
<polygon fill="midnightblue" stroke="midnightblue" points="1039.66,-75.36 1048.84,-70.06 1038.36,-68.49 1039.66,-75.36"/>
</g>
<!-- Node15&#45;&gt;Node17 -->
<g id="edge25" class="edge">
<title>Node15&#45;&gt;Node17</title>
<path fill="none" stroke="midnightblue" d="M795.75,-112.32C811.32,-103.74 835.38,-90.49 853.46,-80.52"/>
<polygon fill="midnightblue" stroke="midnightblue" points="855.22,-83.55 862.29,-75.65 851.85,-77.42 855.22,-83.55"/>
</g>
<!-- Node15&#45;&gt;Node18 -->
<g id="edge26" class="edge">
<title>Node15&#45;&gt;Node18</title>
<path fill="none" stroke="midnightblue" d="M739.11,-112.49C696.57,-103.59 628.05,-89.11 569,-76 568.54,-75.9 568.08,-75.8 567.62,-75.69"/>
<polygon fill="midnightblue" stroke="midnightblue" points="568.21,-72.24 557.68,-73.45 566.67,-79.07 568.21,-72.24"/>
</g>
<!-- Node15&#45;&gt;Node19 -->
<g id="edge27" class="edge">
<title>Node15&#45;&gt;Node19</title>
<path fill="none" stroke="midnightblue" d="M752.43,-112.44C722.9,-103.28 675.88,-88.69 643.12,-78.52"/>
<polygon fill="midnightblue" stroke="midnightblue" points="644.03,-75.14 633.44,-75.52 641.96,-81.82 644.03,-75.14"/>
</g>
<!-- Node20&#45;&gt;Node8 -->
<g id="edge35" class="edge">
<title>Node20&#45;&gt;Node8</title>
<path fill="none" stroke="midnightblue" d="M434.15,-168.44C399.6,-159.16 344.32,-144.31 306.42,-134.13"/>
<polygon fill="midnightblue" stroke="midnightblue" points="307.27,-130.73 296.7,-131.52 305.45,-137.49 307.27,-130.73"/>
</g>
<!-- Node20&#45;&gt;Node9 -->
<g id="edge38" class="edge">
<title>Node20&#45;&gt;Node9</title>
<path fill="none" stroke="midnightblue" d="M454.31,-168.37C428.85,-149.57 368.16,-104.77 336.69,-81.53"/>
<polygon fill="midnightblue" stroke="midnightblue" points="338.76,-78.72 328.64,-75.59 334.6,-84.35 338.76,-78.72"/>
</g>
<!-- Node20&#45;&gt;Node12 -->
<g id="edge34" class="edge">
<title>Node20&#45;&gt;Node12</title>
<path fill="none" stroke="midnightblue" d="M526.12,-171.12C637.18,-160.25 872.2,-137.26 971.82,-127.52"/>
<polygon fill="midnightblue" stroke="midnightblue" points="972.26,-130.99 981.88,-126.53 971.58,-124.02 972.26,-130.99"/>
</g>
<!-- Node20&#45;&gt;Node17 -->
<g id="edge36" class="edge">
<title>Node20&#45;&gt;Node17</title>
<path fill="none" stroke="midnightblue" d="M495.99,-168.49C540.61,-155.87 627.15,-131.6 701,-112 752.94,-98.22 813.68,-82.96 848.8,-74.22"/>
<polygon fill="midnightblue" stroke="midnightblue" points="849.98,-77.54 858.85,-71.73 848.3,-70.74 849.98,-77.54"/>
</g>
<!-- Node20&#45;&gt;Node18 -->
<g id="edge37" class="edge">
<title>Node20&#45;&gt;Node18</title>
<path fill="none" stroke="midnightblue" d="M465.83,-168.39C465.94,-155.33 467.62,-130.12 478,-112 484.95,-99.86 496.44,-89.4 506.85,-81.63"/>
<polygon fill="midnightblue" stroke="midnightblue" points="509.04,-84.37 515.21,-75.76 505.02,-78.64 509.04,-84.37"/>
</g>
<!-- Node20&#45;&gt;Node19 -->
<g id="edge39" class="edge">
<title>Node20&#45;&gt;Node19</title>
<path fill="none" stroke="midnightblue" d="M476.99,-168.37C500.81,-149.65 557.44,-105.15 587.12,-81.83"/>
<polygon fill="midnightblue" stroke="midnightblue" points="589.36,-84.52 595.07,-75.59 585.04,-79.02 589.36,-84.52"/>
</g>
<!-- Node21&#45;&gt;Node2 -->
<g id="edge55" class="edge">
<title>Node21&#45;&gt;Node2</title>
<path fill="none" stroke="midnightblue" d="M626.81,-236.36C552.52,-232.26 427.46,-220.6 397,-188 356.26,-144.39 366.17,-65.86 373.5,-29.91"/>
<polygon fill="midnightblue" stroke="midnightblue" points="376.99,-30.35 375.72,-19.83 370.15,-28.84 376.99,-30.35"/>
</g>
<!-- Node21&#45;&gt;Node8 -->
<g id="edge50" class="edge">
<title>Node21&#45;&gt;Node8</title>
<path fill="none" stroke="midnightblue" d="M626.98,-236.74C561.79,-233.11 451.86,-221.98 364,-188 332.9,-175.97 301.48,-153.1 282.62,-137.95"/>
<polygon fill="midnightblue" stroke="midnightblue" points="284.83,-135.24 274.88,-131.6 280.39,-140.65 284.83,-135.24"/>
</g>
<!-- Node21&#45;&gt;Node9 -->
<g id="edge56" class="edge">
<title>Node21&#45;&gt;Node9</title>
<path fill="none" stroke="midnightblue" d="M626.96,-235.43C511.25,-227.7 253.04,-202.7 209,-132 189.08,-100.03 244.77,-81.67 283.4,-73.06"/>
<polygon fill="midnightblue" stroke="midnightblue" points="284.21,-76.47 293.28,-70.99 282.77,-69.62 284.21,-76.47"/>
</g>
<!-- Node21&#45;&gt;Node10 -->
<g id="edge60" class="edge">
<title>Node21&#45;&gt;Node10</title>
<path fill="none" stroke="midnightblue" d="M739.23,-236.07C846.35,-230.84 1075.54,-216.62 1149,-188 1188.1,-172.77 1206.08,-169.45 1225,-132 1236.15,-109.92 1215.39,-62.37 1208,-56 1167.82,-21.36 1006.62,-13.38 936.67,-11.55"/>
<polygon fill="midnightblue" stroke="midnightblue" points="936.34,-8.04 926.26,-11.3 936.17,-15.04 936.34,-8.04"/>
</g>
<!-- Node21&#45;&gt;Node11 -->
<g id="edge51" class="edge">
<title>Node21&#45;&gt;Node11</title>
<path fill="none" stroke="midnightblue" d="M683,-224.4C683,-216.47 683,-206.46 683,-197.86"/>
<polygon fill="midnightblue" stroke="midnightblue" points="686.5,-197.66 683,-187.66 679.5,-197.66 686.5,-197.66"/>
</g>
<!-- Node21&#45;&gt;Node13 -->
<g id="edge53" class="edge">
<title>Node21&#45;&gt;Node13</title>
<path fill="none" stroke="midnightblue" d="M739.11,-236.54C863.79,-230.79 1157.08,-209.17 1210,-132 1223.4,-112.46 1198.95,-93.04 1177.13,-80.59"/>
<polygon fill="midnightblue" stroke="midnightblue" points="1178.52,-77.36 1168.06,-75.7 1175.2,-83.52 1178.52,-77.36"/>
</g>
<!-- Node21&#45;&gt;Node15 -->
<g id="edge54" class="edge">
<title>Node21&#45;&gt;Node15</title>
<path fill="none" stroke="midnightblue" d="M739.08,-224.74C757.93,-217.15 776.96,-205.55 788,-188 796.78,-174.04 793.04,-155.04 788.15,-141.18"/>
<polygon fill="midnightblue" stroke="midnightblue" points="791.35,-139.74 784.38,-131.76 784.85,-142.35 791.35,-139.74"/>
</g>
<!-- Node21&#45;&gt;Node16 -->
<g id="edge57" class="edge">
<title>Node21&#45;&gt;Node16</title>
<path fill="none" stroke="midnightblue" d="M739.23,-234.01C849.44,-223.89 1087.19,-195.07 1134,-132 1150.26,-110.09 1116.51,-89.29 1090.71,-77.36"/>
<polygon fill="midnightblue" stroke="midnightblue" points="1091.9,-74.06 1081.33,-73.23 1089.08,-80.46 1091.9,-74.06"/>
</g>
<!-- Node21&#45;&gt;Node17 -->
<g id="edge58" class="edge">
<title>Node21&#45;&gt;Node17</title>
<path fill="none" stroke="midnightblue" d="M739.07,-235.06C804.38,-229.75 906.37,-216.95 930,-188 951.36,-161.83 944.04,-142.72 930,-112 924.22,-99.36 912.95,-88.91 902.37,-81.27"/>
<polygon fill="midnightblue" stroke="midnightblue" points="904.04,-78.18 893.78,-75.53 900.15,-84 904.04,-78.18"/>
</g>
<!-- Node21&#45;&gt;Node18 -->
<g id="edge59" class="edge">
<title>Node21&#45;&gt;Node18</title>
<path fill="none" stroke="midnightblue" d="M658.27,-224.36C643.51,-215.18 624.99,-202.3 611,-188 579.46,-155.76 552.54,-109.69 539.12,-84.72"/>
<polygon fill="midnightblue" stroke="midnightblue" points="542.12,-82.91 534.36,-75.7 535.93,-86.17 542.12,-82.91"/>
</g>
<!-- Node21&#45;&gt;Node19 -->
<g id="edge61" class="edge">
<title>Node21&#45;&gt;Node19</title>
<path fill="none" stroke="midnightblue" d="M715.23,-224.35C739.37,-211.54 766.28,-191.18 754,-168 740.67,-142.84 724.53,-148.04 701,-132 675.48,-114.61 646.16,-94.53 626.92,-81.34"/>
<polygon fill="midnightblue" stroke="midnightblue" points="628.82,-78.4 618.59,-75.64 624.86,-84.18 628.82,-78.4"/>
</g>
<!-- Node21&#45;&gt;Node20 -->
<g id="edge52" class="edge">
<title>Node21&#45;&gt;Node20</title>
<path fill="none" stroke="midnightblue" d="M631.85,-224.47C593.76,-214.03 542.43,-199.96 507.02,-190.25"/>
<polygon fill="midnightblue" stroke="midnightblue" points="507.59,-186.78 497.02,-187.51 505.74,-193.53 507.59,-186.78"/>
</g>
</g>
</svg>
