<?xml version="1.0" encoding="UTF-8" standalone="no"?>
<!DOCTYPE svg PUBLIC "-//W3C//DTD SVG 1.1//EN"
 "http://www.w3.org/Graphics/SVG/1.1/DTD/svg11.dtd">
<!-- Generated by graphviz version 2.43.0 (0)
 -->
<!-- Title: include/pessoas/pessoa.hpp Pages: 1 -->
<svg width="938pt" height="263pt"
 viewBox="0.00 0.00 938.16 263.00" xmlns="http://www.w3.org/2000/svg" xmlns:xlink="http://www.w3.org/1999/xlink">
<g id="graph0" class="graph" transform="scale(1 1) rotate(0) translate(4 259)">
<title>include/pessoas/pessoa.hpp</title>
<polygon fill="white" stroke="transparent" points="-4,4 -4,-259 934.16,-259 934.16,4 -4,4"/>
<!-- Node1 -->
<g id="node1" class="node">
<title>Node1</title>
<g id="a_node1"><a xlink:title="Classe mãe de usuario e admin.">
<polygon fill="#bfbfbf" stroke="black" points="319.16,-235.5 319.16,-254.5 472.16,-254.5 472.16,-235.5 319.16,-235.5"/>
<text text-anchor="middle" x="395.66" y="-242.5" font-family="Helvetica,sans-Serif" font-size="10.00">include/pessoas/pessoa.hpp</text>
</a>
</g>
</g>
<!-- Node2 -->
<g id="node2" class="node">
<title>Node2</title>
<g id="a_node2"><a xlink:href="usuario_8hpp.html" target="_top" xlink:title="Classe do usuario.">
<polygon fill="white" stroke="black" points="403.16,-179.5 403.16,-198.5 558.16,-198.5 558.16,-179.5 403.16,-179.5"/>
<text text-anchor="middle" x="480.66" y="-186.5" font-family="Helvetica,sans-Serif" font-size="10.00">include/pessoas/usuario.hpp</text>
</a>
</g>
</g>
<!-- Node1&#45;&gt;Node2 -->
<g id="edge1" class="edge">
<title>Node1&#45;&gt;Node2</title>
<path fill="none" stroke="midnightblue" d="M417.86,-229.9C433.44,-220 453.79,-207.07 467.04,-198.65"/>
<polygon fill="midnightblue" stroke="midnightblue" points="415.88,-227.01 409.32,-235.32 419.64,-232.92 415.88,-227.01"/>
</g>
<!-- Node13 -->
<g id="node13" class="node">
<title>Node13</title>
<g id="a_node13"><a xlink:href="admin_8hpp.html" target="_top" xlink:title="Classe do administrador.">
<polygon fill="white" stroke="black" points="236.16,-179.5 236.16,-198.5 385.16,-198.5 385.16,-179.5 236.16,-179.5"/>
<text text-anchor="middle" x="310.66" y="-186.5" font-family="Helvetica,sans-Serif" font-size="10.00">include/pessoas/admin.hpp</text>
</a>
</g>
</g>
<!-- Node1&#45;&gt;Node13 -->
<g id="edge15" class="edge">
<title>Node1&#45;&gt;Node13</title>
<path fill="none" stroke="midnightblue" d="M373.47,-229.9C357.88,-220 337.53,-207.07 324.28,-198.65"/>
<polygon fill="midnightblue" stroke="midnightblue" points="371.69,-232.92 382.01,-235.32 375.44,-227.01 371.69,-232.92"/>
</g>
<!-- Node16 -->
<g id="node16" class="node">
<title>Node16</title>
<g id="a_node16"><a xlink:href="pessoa_8cpp.html" target="_top" xlink:title=" ">
<polygon fill="white" stroke="black" points="576.16,-179.5 576.16,-198.5 707.16,-198.5 707.16,-179.5 576.16,-179.5"/>
<text text-anchor="middle" x="641.66" y="-186.5" font-family="Helvetica,sans-Serif" font-size="10.00">src/pessoas/pessoa.cpp</text>
</a>
</g>
</g>
<!-- Node1&#45;&gt;Node16 -->
<g id="edge21" class="edge">
<title>Node1&#45;&gt;Node16</title>
<path fill="none" stroke="midnightblue" d="M444.49,-233.28C490.98,-223.08 560.02,-207.92 602.86,-198.52"/>
<polygon fill="midnightblue" stroke="midnightblue" points="443.66,-229.88 434.64,-235.44 445.16,-236.72 443.66,-229.88"/>
</g>
<!-- Node17 -->
<g id="node17" class="node">
<title>Node17</title>
<g id="a_node17"><a xlink:href="teste__pessoa_8hpp.html" target="_top" xlink:title=" ">
<polygon fill="white" stroke="black" points="7.16,-179.5 7.16,-198.5 136.16,-198.5 136.16,-179.5 7.16,-179.5"/>
<text text-anchor="middle" x="71.66" y="-186.5" font-family="Helvetica,sans-Serif" font-size="10.00">tests/teste_pessoa.hpp</text>
</a>
</g>
</g>
<!-- Node1&#45;&gt;Node17 -->
<g id="edge22" class="edge">
<title>Node1&#45;&gt;Node17</title>
<path fill="none" stroke="midnightblue" d="M334.41,-233.79C273.18,-223.59 180.13,-208.08 122.76,-198.52"/>
<polygon fill="midnightblue" stroke="midnightblue" points="333.88,-237.25 344.32,-235.44 335.03,-230.35 333.88,-237.25"/>
</g>
<!-- Node3 -->
<g id="node3" class="node">
<title>Node3</title>
<g id="a_node3"><a xlink:href="biblioteca_8hpp.html" target="_top" xlink:title="Classe responsável por armazenar os livros existentes, adicionar e remover livros,...">
<polygon fill="white" stroke="black" points="429.16,-112.5 429.16,-142.5 532.16,-142.5 532.16,-112.5 429.16,-112.5"/>
<text text-anchor="start" x="437.16" y="-130.5" font-family="Helvetica,sans-Serif" font-size="10.00">include/biblioteca</text>
<text text-anchor="middle" x="480.66" y="-119.5" font-family="Helvetica,sans-Serif" font-size="10.00">/biblioteca.hpp</text>
</a>
</g>
</g>
<!-- Node2&#45;&gt;Node3 -->
<g id="edge2" class="edge">
<title>Node2&#45;&gt;Node3</title>
<path fill="none" stroke="midnightblue" d="M480.66,-169.23C480.66,-160.59 480.66,-150.5 480.66,-142.52"/>
<polygon fill="midnightblue" stroke="midnightblue" points="477.16,-169.48 480.66,-179.48 484.16,-169.48 477.16,-169.48"/>
</g>
<!-- Node8 -->
<g id="node8" class="node">
<title>Node8</title>
<g id="a_node8"><a xlink:href="sistema_8hpp.html" target="_top" xlink:title="Classe responsável por armazenar o histórico de livros.">
<polygon fill="white" stroke="black" points="308.16,-112.5 308.16,-142.5 411.16,-142.5 411.16,-112.5 308.16,-112.5"/>
<text text-anchor="start" x="316.16" y="-130.5" font-family="Helvetica,sans-Serif" font-size="10.00">include/biblioteca</text>
<text text-anchor="middle" x="359.66" y="-119.5" font-family="Helvetica,sans-Serif" font-size="10.00">/sistema.hpp</text>
</a>
</g>
</g>
<!-- Node2&#45;&gt;Node8 -->
<g id="edge7" class="edge">
<title>Node2&#45;&gt;Node8</title>
<path fill="none" stroke="midnightblue" d="M454.1,-174.94C434.59,-165.35 408.13,-152.33 388.18,-142.52"/>
<polygon fill="midnightblue" stroke="midnightblue" points="452.81,-178.2 463.33,-179.48 455.9,-171.92 452.81,-178.2"/>
</g>
<!-- Node11 -->
<g id="node11" class="node">
<title>Node11</title>
<g id="a_node11"><a xlink:href="usuario_8cpp.html" target="_top" xlink:title=" ">
<polygon fill="white" stroke="black" points="550.16,-118 550.16,-137 683.16,-137 683.16,-118 550.16,-118"/>
<text text-anchor="middle" x="616.66" y="-125" font-family="Helvetica,sans-Serif" font-size="10.00">src/pessoas/usuario.cpp</text>
</a>
</g>
</g>
<!-- Node2&#45;&gt;Node11 -->
<g id="edge12" class="edge">
<title>Node2&#45;&gt;Node11</title>
<path fill="none" stroke="midnightblue" d="M509.63,-175.33C536.03,-163.78 574.3,-147.03 597.21,-137.01"/>
<polygon fill="midnightblue" stroke="midnightblue" points="507.91,-172.26 500.15,-179.48 510.71,-178.67 507.91,-172.26"/>
</g>
<!-- Node12 -->
<g id="node12" class="node">
<title>Node12</title>
<g id="a_node12"><a xlink:href="teste__usuario_8hpp.html" target="_top" xlink:title=" ">
<polygon fill="white" stroke="black" points="799.16,-56.5 799.16,-75.5 930.16,-75.5 930.16,-56.5 799.16,-56.5"/>
<text text-anchor="middle" x="864.66" y="-63.5" font-family="Helvetica,sans-Serif" font-size="10.00">tests/teste_usuario.hpp</text>
</a>
</g>
</g>
<!-- Node2&#45;&gt;Node12 -->
<g id="edge13" class="edge">
<title>Node2&#45;&gt;Node12</title>
<path fill="none" stroke="midnightblue" d="M545.86,-177.76C588.27,-170.23 644.44,-158.59 692.66,-143 751.99,-123.82 818.54,-90.96 848.5,-75.5"/>
<polygon fill="midnightblue" stroke="midnightblue" points="545.19,-174.33 535.94,-179.5 546.4,-181.22 545.19,-174.33"/>
</g>
<!-- Node4 -->
<g id="node4" class="node">
<title>Node4</title>
<g id="a_node4"><a xlink:href="biblioteca_8cpp.html" target="_top" xlink:title=" ">
<polygon fill="white" stroke="black" points="628.16,-56.5 628.16,-75.5 781.16,-75.5 781.16,-56.5 628.16,-56.5"/>
<text text-anchor="middle" x="704.66" y="-63.5" font-family="Helvetica,sans-Serif" font-size="10.00">src/biblioteca/biblioteca.cpp</text>
</a>
</g>
</g>
<!-- Node3&#45;&gt;Node4 -->
<g id="edge3" class="edge">
<title>Node3&#45;&gt;Node4</title>
<path fill="none" stroke="midnightblue" d="M542.24,-110.14C584.45,-98.93 638.75,-84.51 672.63,-75.51"/>
<polygon fill="midnightblue" stroke="midnightblue" points="541.1,-106.82 532.33,-112.77 542.9,-113.59 541.1,-106.82"/>
</g>
<!-- Node5 -->
<g id="node5" class="node">
<title>Node5</title>
<g id="a_node5"><a xlink:href="main_8cpp.html" target="_top" xlink:title=" ">
<polygon fill="white" stroke="black" points="370.16,-56.5 370.16,-75.5 449.16,-75.5 449.16,-56.5 370.16,-56.5"/>
<text text-anchor="middle" x="409.66" y="-63.5" font-family="Helvetica,sans-Serif" font-size="10.00">src/main.cpp</text>
</a>
</g>
</g>
<!-- Node3&#45;&gt;Node5 -->
<g id="edge4" class="edge">
<title>Node3&#45;&gt;Node5</title>
<path fill="none" stroke="midnightblue" d="M456.07,-105.89C443.72,-95.54 429.42,-83.56 419.99,-75.66"/>
<polygon fill="midnightblue" stroke="midnightblue" points="453.92,-108.66 463.84,-112.4 458.42,-103.29 453.92,-108.66"/>
</g>
<!-- Node6 -->
<g id="node6" class="node">
<title>Node6</title>
<g id="a_node6"><a xlink:href="teste__biblioteca_8hpp.html" target="_top" xlink:title=" ">
<polygon fill="white" stroke="black" points="467.16,-56.5 467.16,-75.5 610.16,-75.5 610.16,-56.5 467.16,-56.5"/>
<text text-anchor="middle" x="538.66" y="-63.5" font-family="Helvetica,sans-Serif" font-size="10.00">tests/teste_biblioteca.hpp</text>
</a>
</g>
</g>
<!-- Node3&#45;&gt;Node6 -->
<g id="edge5" class="edge">
<title>Node3&#45;&gt;Node6</title>
<path fill="none" stroke="midnightblue" d="M501.62,-105C511.5,-94.86 522.74,-83.33 530.22,-75.66"/>
<polygon fill="midnightblue" stroke="midnightblue" points="498.88,-102.8 494.41,-112.4 503.89,-107.68 498.88,-102.8"/>
</g>
<!-- Node7 -->
<g id="node7" class="node">
<title>Node7</title>
<g id="a_node7"><a xlink:href="teste_8cpp.html" target="_top" xlink:title=" ">
<polygon fill="white" stroke="black" points="240.16,-0.5 240.16,-19.5 329.16,-19.5 329.16,-0.5 240.16,-0.5"/>
<text text-anchor="middle" x="284.66" y="-7.5" font-family="Helvetica,sans-Serif" font-size="10.00">tests/teste.cpp</text>
</a>
</g>
</g>
<!-- Node6&#45;&gt;Node7 -->
<g id="edge6" class="edge">
<title>Node6&#45;&gt;Node7</title>
<path fill="none" stroke="midnightblue" d="M488.55,-54.35C440.55,-44.14 369.05,-28.94 324.72,-19.52"/>
<polygon fill="midnightblue" stroke="midnightblue" points="487.91,-57.79 498.41,-56.44 489.36,-50.94 487.91,-57.79"/>
</g>
<!-- Node8&#45;&gt;Node5 -->
<g id="edge9" class="edge">
<title>Node8&#45;&gt;Node5</title>
<path fill="none" stroke="midnightblue" d="M377.98,-104.7C386.44,-94.64 396,-83.26 402.39,-75.66"/>
<polygon fill="midnightblue" stroke="midnightblue" points="375.27,-102.49 371.51,-112.4 380.62,-107 375.27,-102.49"/>
</g>
<!-- Node9 -->
<g id="node9" class="node">
<title>Node9</title>
<g id="a_node9"><a xlink:href="sistema_8cpp.html" target="_top" xlink:title=" ">
<polygon fill="white" stroke="black" points="55.66,-56.5 55.66,-75.5 199.66,-75.5 199.66,-56.5 55.66,-56.5"/>
<text text-anchor="middle" x="127.66" y="-63.5" font-family="Helvetica,sans-Serif" font-size="10.00">src/biblioteca/sistema.cpp</text>
</a>
</g>
</g>
<!-- Node8&#45;&gt;Node9 -->
<g id="edge8" class="edge">
<title>Node8&#45;&gt;Node9</title>
<path fill="none" stroke="midnightblue" d="M298.16,-110.73C254.2,-99.45 196.72,-84.71 161,-75.55"/>
<polygon fill="midnightblue" stroke="midnightblue" points="297.33,-114.13 307.89,-113.22 299.07,-107.35 297.33,-114.13"/>
</g>
<!-- Node10 -->
<g id="node10" class="node">
<title>Node10</title>
<g id="a_node10"><a xlink:href="teste__sistema_8hpp.html" target="_top" xlink:title=" ">
<polygon fill="white" stroke="black" points="217.66,-56.5 217.66,-75.5 351.66,-75.5 351.66,-56.5 217.66,-56.5"/>
<text text-anchor="middle" x="284.66" y="-63.5" font-family="Helvetica,sans-Serif" font-size="10.00">tests/teste_sistema.hpp</text>
</a>
</g>
</g>
<!-- Node8&#45;&gt;Node10 -->
<g id="edge10" class="edge">
<title>Node8&#45;&gt;Node10</title>
<path fill="none" stroke="midnightblue" d="M333.69,-105.89C320.64,-95.54 305.53,-83.56 295.57,-75.66"/>
<polygon fill="midnightblue" stroke="midnightblue" points="331.88,-108.93 341.89,-112.4 336.23,-103.44 331.88,-108.93"/>
</g>
<!-- Node10&#45;&gt;Node7 -->
<g id="edge11" class="edge">
<title>Node10&#45;&gt;Node7</title>
<path fill="none" stroke="midnightblue" d="M284.66,-45.8C284.66,-36.91 284.66,-26.78 284.66,-19.75"/>
<polygon fill="midnightblue" stroke="midnightblue" points="281.16,-46.08 284.66,-56.08 288.16,-46.08 281.16,-46.08"/>
</g>
<!-- Node12&#45;&gt;Node7 -->
<g id="edge14" class="edge">
<title>Node12&#45;&gt;Node7</title>
<path fill="none" stroke="midnightblue" d="M788.95,-55.85C613.02,-37.48 416.02,-21.35 329.38,-14.49"/>
<polygon fill="midnightblue" stroke="midnightblue" points="788.6,-59.33 798.91,-56.89 789.33,-52.37 788.6,-59.33"/>
</g>
<!-- Node13&#45;&gt;Node3 -->
<g id="edge16" class="edge">
<title>Node13&#45;&gt;Node3</title>
<path fill="none" stroke="midnightblue" d="M344.65,-176.1C372.31,-166.42 411.41,-152.74 440.6,-142.52"/>
<polygon fill="midnightblue" stroke="midnightblue" points="343.3,-172.87 335.02,-179.48 345.61,-179.48 343.3,-172.87"/>
</g>
<!-- Node13&#45;&gt;Node8 -->
<g id="edge17" class="edge">
<title>Node13&#45;&gt;Node8</title>
<path fill="none" stroke="midnightblue" d="M324.23,-171.53C331.73,-162.42 340.96,-151.21 348.11,-142.52"/>
<polygon fill="midnightblue" stroke="midnightblue" points="321.34,-169.53 317.68,-179.48 326.74,-173.98 321.34,-169.53"/>
</g>
<!-- Node14 -->
<g id="node14" class="node">
<title>Node14</title>
<g id="a_node14"><a xlink:href="admin_8cpp.html" target="_top" xlink:title=" ">
<polygon fill="white" stroke="black" points="161.66,-118 161.66,-137 289.66,-137 289.66,-118 161.66,-118"/>
<text text-anchor="middle" x="225.66" y="-125" font-family="Helvetica,sans-Serif" font-size="10.00">src/pessoas/admin.cpp</text>
</a>
</g>
</g>
<!-- Node13&#45;&gt;Node14 -->
<g id="edge18" class="edge">
<title>Node13&#45;&gt;Node14</title>
<path fill="none" stroke="midnightblue" d="M290.11,-173.61C273.76,-162.17 251.44,-146.55 237.82,-137.01"/>
<polygon fill="midnightblue" stroke="midnightblue" points="288.28,-176.61 298.48,-179.48 292.3,-170.87 288.28,-176.61"/>
</g>
<!-- Node15 -->
<g id="node15" class="node">
<title>Node15</title>
<g id="a_node15"><a xlink:href="teste__admin_8hpp.html" target="_top" xlink:title=" ">
<polygon fill="white" stroke="black" points="18.16,-118 18.16,-137 143.16,-137 143.16,-118 18.16,-118"/>
<text text-anchor="middle" x="80.66" y="-125" font-family="Helvetica,sans-Serif" font-size="10.00">tests/teste_admin.hpp</text>
</a>
</g>
</g>
<!-- Node13&#45;&gt;Node15 -->
<g id="edge19" class="edge">
<title>Node13&#45;&gt;Node15</title>
<path fill="none" stroke="midnightblue" d="M268.02,-176.97C223.36,-165.41 154.17,-147.52 113.55,-137.01"/>
<polygon fill="midnightblue" stroke="midnightblue" points="267.15,-180.36 277.71,-179.48 268.9,-173.58 267.15,-180.36"/>
</g>
<!-- Node15&#45;&gt;Node7 -->
<g id="edge20" class="edge">
<title>Node15&#45;&gt;Node7</title>
<path fill="none" stroke="midnightblue" d="M63.61,-110.8C49.2,-95.63 32.93,-72.57 46.66,-56 70.74,-26.94 178.06,-16.51 240.06,-12.87"/>
<polygon fill="midnightblue" stroke="midnightblue" points="61.24,-113.38 70.81,-117.93 66.17,-108.41 61.24,-113.38"/>
</g>
<!-- Node17&#45;&gt;Node7 -->
<g id="edge23" class="edge">
<title>Node17&#45;&gt;Node7</title>
<path fill="none" stroke="midnightblue" d="M41.84,-174.61C29.18,-167.23 15.74,-156.75 8.66,-143 -9.99,-106.76 4.89,-80.23 37.66,-56 69.12,-32.74 177.9,-19.98 240.1,-14.42"/>
<polygon fill="midnightblue" stroke="midnightblue" points="40.35,-177.78 50.81,-179.43 43.66,-171.61 40.35,-177.78"/>
</g>
</g>
</svg>
