<?xml version="1.0" encoding="UTF-8" standalone="no"?>
<!DOCTYPE svg PUBLIC "-//W3C//DTD SVG 1.1//EN"
 "http://www.w3.org/Graphics/SVG/1.1/DTD/svg11.dtd">
<!-- Generated by graphviz version 2.43.0 (0)
 -->
<!-- Title: src/pessoas/pessoa.cpp Pages: 1 -->
<svg width="206pt" height="207pt"
 viewBox="0.00 0.00 206.00 207.00" xmlns="http://www.w3.org/2000/svg" xmlns:xlink="http://www.w3.org/1999/xlink">
<g id="graph0" class="graph" transform="scale(1 1) rotate(0) translate(4 203)">
<title>src/pessoas/pessoa.cpp</title>
<polygon fill="white" stroke="transparent" points="-4,4 -4,-203 202,-203 202,4 -4,4"/>
<!-- Node1 -->
<g id="node1" class="node">
<title>Node1</title>
<g id="a_node1"><a xlink:title=" ">
<polygon fill="#bfbfbf" stroke="black" points="39.5,-179.5 39.5,-198.5 170.5,-198.5 170.5,-179.5 39.5,-179.5"/>
<text text-anchor="middle" x="105" y="-186.5" font-family="Helvetica,sans-Serif" font-size="10.00">src/pessoas/pessoa.cpp</text>
</a>
</g>
</g>
<!-- Node2 -->
<g id="node2" class="node">
<title>Node2</title>
<g id="a_node2"><a xlink:href="pessoa_8hpp.html" target="_top" xlink:title="Classe mãe de usuario e admin.">
<polygon fill="white" stroke="black" points="48.5,-112.5 48.5,-142.5 161.5,-142.5 161.5,-112.5 48.5,-112.5"/>
<text text-anchor="start" x="56.5" y="-130.5" font-family="Helvetica,sans-Serif" font-size="10.00">../../include/pessoas</text>
<text text-anchor="middle" x="105" y="-119.5" font-family="Helvetica,sans-Serif" font-size="10.00">/pessoa.hpp</text>
</a>
</g>
</g>
<!-- Node1&#45;&gt;Node2 -->
<g id="edge1" class="edge">
<title>Node1&#45;&gt;Node2</title>
<path fill="none" stroke="midnightblue" d="M105,-179.48C105,-172.47 105,-162.19 105,-152.7"/>
<polygon fill="midnightblue" stroke="midnightblue" points="108.5,-152.52 105,-142.52 101.5,-152.52 108.5,-152.52"/>
</g>
<!-- Node3 -->
<g id="node3" class="node">
<title>Node3</title>
<g id="a_node3"><a xlink:title=" ">
<polygon fill="white" stroke="#bfbfbf" points="0,-0.5 0,-19.5 60,-19.5 60,-0.5 0,-0.5"/>
<text text-anchor="middle" x="30" y="-7.5" font-family="Helvetica,sans-Serif" font-size="10.00">iostream</text>
</a>
</g>
</g>
<!-- Node2&#45;&gt;Node3 -->
<g id="edge2" class="edge">
<title>Node2&#45;&gt;Node3</title>
<path fill="none" stroke="midnightblue" d="M82.58,-112.48C70.03,-103.52 55.12,-90.81 46,-76 37.33,-61.93 33.36,-43.44 31.54,-29.78"/>
<polygon fill="midnightblue" stroke="midnightblue" points="35,-29.21 30.46,-19.64 28.04,-29.95 35,-29.21"/>
</g>
<!-- Node4 -->
<g id="node4" class="node">
<title>Node4</title>
<g id="a_node4"><a xlink:title=" ">
<polygon fill="white" stroke="#bfbfbf" points="154,-0.5 154,-19.5 198,-19.5 198,-0.5 154,-0.5"/>
<text text-anchor="middle" x="176" y="-7.5" font-family="Helvetica,sans-Serif" font-size="10.00">string</text>
</a>
</g>
</g>
<!-- Node2&#45;&gt;Node4 -->
<g id="edge3" class="edge">
<title>Node2&#45;&gt;Node4</title>
<path fill="none" stroke="midnightblue" d="M128.04,-112.47C140.63,-103.58 155.38,-90.95 164,-76 172.15,-61.86 174.94,-43.38 175.82,-29.74"/>
<polygon fill="midnightblue" stroke="midnightblue" points="179.33,-29.74 176.19,-19.62 172.33,-29.49 179.33,-29.74"/>
</g>
<!-- Node5 -->
<g id="node5" class="node">
<title>Node5</title>
<g id="a_node5"><a xlink:href="erros_8hpp.html" target="_top" xlink:title="Classes de tratamento de exceções.">
<polygon fill="white" stroke="black" points="55.5,-56.5 55.5,-75.5 154.5,-75.5 154.5,-56.5 55.5,-56.5"/>
<text text-anchor="middle" x="105" y="-63.5" font-family="Helvetica,sans-Serif" font-size="10.00">../erros/erros.hpp</text>
</a>
</g>
</g>
<!-- Node2&#45;&gt;Node5 -->
<g id="edge4" class="edge">
<title>Node2&#45;&gt;Node5</title>
<path fill="none" stroke="midnightblue" d="M105,-112.4C105,-104.47 105,-94.46 105,-85.86"/>
<polygon fill="midnightblue" stroke="midnightblue" points="108.5,-85.66 105,-75.66 101.5,-85.66 108.5,-85.66"/>
</g>
<!-- Node5&#45;&gt;Node3 -->
<g id="edge5" class="edge">
<title>Node5&#45;&gt;Node3</title>
<path fill="none" stroke="midnightblue" d="M92.95,-56.32C81.54,-48.11 64.17,-35.6 50.57,-25.81"/>
<polygon fill="midnightblue" stroke="midnightblue" points="52.43,-22.84 42.27,-19.83 48.34,-28.52 52.43,-22.84"/>
</g>
<!-- Node5&#45;&gt;Node4 -->
<g id="edge6" class="edge">
<title>Node5&#45;&gt;Node4</title>
<path fill="none" stroke="midnightblue" d="M116.41,-56.32C127.11,-48.18 143.34,-35.84 156.16,-26.09"/>
<polygon fill="midnightblue" stroke="midnightblue" points="158.54,-28.67 164.39,-19.83 154.31,-23.1 158.54,-28.67"/>
</g>
<!-- Node6 -->
<g id="node6" class="node">
<title>Node6</title>
<g id="a_node6"><a xlink:title=" ">
<polygon fill="white" stroke="#bfbfbf" points="80,-0.5 80,-19.5 130,-19.5 130,-0.5 80,-0.5"/>
<text text-anchor="middle" x="105" y="-7.5" font-family="Helvetica,sans-Serif" font-size="10.00">cstring</text>
</a>
</g>
</g>
<!-- Node5&#45;&gt;Node6 -->
<g id="edge7" class="edge">
<title>Node5&#45;&gt;Node6</title>
<path fill="none" stroke="midnightblue" d="M105,-56.08C105,-49.01 105,-38.86 105,-29.99"/>
<polygon fill="midnightblue" stroke="midnightblue" points="108.5,-29.75 105,-19.75 101.5,-29.75 108.5,-29.75"/>
</g>
</g>
</svg>
