<?xml version="1.0" encoding="UTF-8" standalone="no"?>
<!DOCTYPE svg PUBLIC "-//W3C//DTD SVG 1.1//EN"
 "http://www.w3.org/Graphics/SVG/1.1/DTD/svg11.dtd">
<!-- Generated by graphviz version 2.43.0 (0)
 -->
<!-- Title: doctest::IsNaN&lt; F &gt; Pages: 1 -->
<svg width="129pt" height="193pt"
 viewBox="0.00 0.00 129.00 193.00" xmlns="http://www.w3.org/2000/svg" xmlns:xlink="http://www.w3.org/1999/xlink">
<g id="graph0" class="graph" transform="scale(1 1) rotate(0) translate(4 189)">
<title>doctest::IsNaN&lt; F &gt;</title>
<polygon fill="white" stroke="transparent" points="-4,4 -4,-189 125,-189 125,4 -4,4"/>
<!-- Node1 -->
<g id="node1" class="node">
<title>Node1</title>
<g id="a_node1"><a xlink:title=" ">
<polygon fill="#bfbfbf" stroke="black" points="0,-0.5 0,-79.5 116,-79.5 116,-0.5 0,-0.5"/>
<text text-anchor="middle" x="58" y="-67.5" font-family="Helvetica,sans-Serif" font-size="10.00">doctest::IsNaN&lt; F &gt;</text>
<polyline fill="none" stroke="black" points="0,-60.5 116,-60.5 "/>
<text text-anchor="middle" x="58" y="-48.5" font-family="Helvetica,sans-Serif" font-size="10.00"> </text>
<polyline fill="none" stroke="black" points="0,-41.5 116,-41.5 "/>
<text text-anchor="start" x="8" y="-29.5" font-family="Helvetica,sans-Serif" font-size="10.00">+ IsNaN()</text>
<text text-anchor="start" x="8" y="-18.5" font-family="Helvetica,sans-Serif" font-size="10.00">+ operator!()</text>
<text text-anchor="start" x="8" y="-7.5" font-family="Helvetica,sans-Serif" font-size="10.00">+ operator bool()</text>
</a>
</g>
</g>
<!-- Node2 -->
<g id="node2" class="node">
<title>Node2</title>
<g id="a_node2"><a xlink:title=" ">
<polygon fill="white" stroke="#bfbfbf" points="12.5,-127.5 12.5,-184.5 41.5,-184.5 41.5,-127.5 12.5,-127.5"/>
<text text-anchor="middle" x="27" y="-172.5" font-family="Helvetica,sans-Serif" font-size="10.00">F</text>
<polyline fill="none" stroke="#bfbfbf" points="12.5,-165.5 41.5,-165.5 "/>
<text text-anchor="middle" x="27" y="-153.5" font-family="Helvetica,sans-Serif" font-size="10.00"> </text>
<polyline fill="none" stroke="#bfbfbf" points="12.5,-146.5 41.5,-146.5 "/>
<text text-anchor="middle" x="27" y="-134.5" font-family="Helvetica,sans-Serif" font-size="10.00"> </text>
</a>
</g>
</g>
<!-- Node2&#45;&gt;Node1 -->
<g id="edge1" class="edge">
<title>Node2&#45;&gt;Node1</title>
<path fill="none" stroke="#404040" d="M24.92,-127.4C24.88,-117.95 25.59,-107.4 28,-98 28.62,-95.59 29.36,-93.16 30.19,-90.75"/>
<polygon fill="none" stroke="#404040" points="30.2,-90.72 28.72,-83.67 34.67,-79.59 36.15,-86.65 30.2,-90.72"/>
<text text-anchor="middle" x="47.5" y="-101" font-family="Helvetica,sans-Serif" font-size="10.00"> +value</text>
</g>
<!-- Node3 -->
<g id="node3" class="node">
<title>Node3</title>
<g id="a_node3"><a xlink:title=" ">
<polygon fill="white" stroke="#bfbfbf" points="70,-127.5 70,-184.5 108,-184.5 108,-127.5 70,-127.5"/>
<text text-anchor="middle" x="89" y="-172.5" font-family="Helvetica,sans-Serif" font-size="10.00">bool</text>
<polyline fill="none" stroke="#bfbfbf" points="70,-165.5 108,-165.5 "/>
<text text-anchor="middle" x="89" y="-153.5" font-family="Helvetica,sans-Serif" font-size="10.00"> </text>
<polyline fill="none" stroke="#bfbfbf" points="70,-146.5 108,-146.5 "/>
<text text-anchor="middle" x="89" y="-134.5" font-family="Helvetica,sans-Serif" font-size="10.00"> </text>
</a>
</g>
</g>
<!-- Node3&#45;&gt;Node1 -->
<g id="edge2" class="edge">
<title>Node3&#45;&gt;Node1</title>
<path fill="none" stroke="#404040" d="M81.5,-127.4C78.54,-116.52 75.04,-103.66 71.66,-91.24"/>
<polygon fill="none" stroke="#404040" points="71.63,-91.12 66.19,-86.38 68.48,-79.54 73.91,-84.28 71.63,-91.12"/>
<text text-anchor="middle" x="98.5" y="-101" font-family="Helvetica,sans-Serif" font-size="10.00"> +flipped</text>
</g>
</g>
</svg>
