<?xml version="1.0" encoding="UTF-8" standalone="no"?>
<!DOCTYPE svg PUBLIC "-//W3C//DTD SVG 1.1//EN"
 "http://www.w3.org/Graphics/SVG/1.1/DTD/svg11.dtd">
<!-- Generated by graphviz version 2.43.0 (0)
 -->
<!-- Title: doctest::MessageData Pages: 1 -->
<svg width="402pt" height="645pt"
 viewBox="0.00 0.00 402.28 645.00" xmlns="http://www.w3.org/2000/svg" xmlns:xlink="http://www.w3.org/1999/xlink">
<g id="graph0" class="graph" transform="scale(1 1) rotate(0) translate(4 641)">
<title>doctest::MessageData</title>
<polygon fill="white" stroke="transparent" points="-4,4 -4,-641 398.28,-641 398.28,4 -4,4"/>
<!-- Node1 -->
<g id="node1" class="node">
<title>Node1</title>
<g id="a_node1"><a xlink:title=" ">
<polygon fill="#bfbfbf" stroke="black" points="80.28,-0.5 80.28,-57.5 205.28,-57.5 205.28,-0.5 80.28,-0.5"/>
<text text-anchor="middle" x="142.78" y="-45.5" font-family="Helvetica,sans-Serif" font-size="10.00">doctest::MessageData</text>
<polyline fill="none" stroke="black" points="80.28,-38.5 205.28,-38.5 "/>
<text text-anchor="middle" x="142.78" y="-26.5" font-family="Helvetica,sans-Serif" font-size="10.00"> </text>
<polyline fill="none" stroke="black" points="80.28,-19.5 205.28,-19.5 "/>
<text text-anchor="middle" x="142.78" y="-7.5" font-family="Helvetica,sans-Serif" font-size="10.00"> </text>
</a>
</g>
</g>
<!-- Node2 -->
<g id="node2" class="node">
<title>Node2</title>
<g id="a_node2"><a xlink:title=" ">
<polygon fill="white" stroke="#bfbfbf" points="33.78,-574 33.78,-631 71.78,-631 71.78,-574 33.78,-574"/>
<text text-anchor="middle" x="52.78" y="-619" font-family="Helvetica,sans-Serif" font-size="10.00">char</text>
<polyline fill="none" stroke="#bfbfbf" points="33.78,-612 71.78,-612 "/>
<text text-anchor="middle" x="52.78" y="-600" font-family="Helvetica,sans-Serif" font-size="10.00"> </text>
<polyline fill="none" stroke="#bfbfbf" points="33.78,-593 71.78,-593 "/>
<text text-anchor="middle" x="52.78" y="-581" font-family="Helvetica,sans-Serif" font-size="10.00"> </text>
</a>
</g>
</g>
<!-- Node2&#45;&gt;Node1 -->
<g id="edge1" class="edge">
<title>Node2&#45;&gt;Node1</title>
<path fill="none" stroke="#404040" d="M43.51,-573.76C18.85,-494.71 -40.84,-263.78 44.78,-105 53.29,-89.22 66.71,-75.74 80.92,-64.75"/>
<polygon fill="none" stroke="#404040" points="81.13,-64.59 83.63,-57.83 90.83,-57.53 88.33,-64.3 81.13,-64.59"/>
<text text-anchor="middle" x="30.78" y="-415" font-family="Helvetica,sans-Serif" font-size="10.00"> +m_file</text>
</g>
<!-- Node3 -->
<g id="node3" class="node">
<title>Node3</title>
<g id="a_node3"><a xlink:href="classdoctest_1_1String.html" target="_top" xlink:title=" ">
<polygon fill="white" stroke="black" points="53.28,-105.5 53.28,-393.5 146.28,-393.5 146.28,-105.5 53.28,-105.5"/>
<text text-anchor="middle" x="99.78" y="-381.5" font-family="Helvetica,sans-Serif" font-size="10.00">doctest::String</text>
<polyline fill="none" stroke="black" points="53.28,-374.5 146.28,-374.5 "/>
<text text-anchor="middle" x="99.78" y="-362.5" font-family="Helvetica,sans-Serif" font-size="10.00"> </text>
<polyline fill="none" stroke="black" points="53.28,-355.5 146.28,-355.5 "/>
<text text-anchor="start" x="61.28" y="-343.5" font-family="Helvetica,sans-Serif" font-size="10.00">+ String()</text>
<text text-anchor="start" x="61.28" y="-332.5" font-family="Helvetica,sans-Serif" font-size="10.00">+ ~String()</text>
<text text-anchor="start" x="61.28" y="-321.5" font-family="Helvetica,sans-Serif" font-size="10.00">+ String()</text>
<text text-anchor="start" x="61.28" y="-310.5" font-family="Helvetica,sans-Serif" font-size="10.00">+ String()</text>
<text text-anchor="start" x="61.28" y="-299.5" font-family="Helvetica,sans-Serif" font-size="10.00">+ String()</text>
<text text-anchor="start" x="61.28" y="-288.5" font-family="Helvetica,sans-Serif" font-size="10.00">+ String()</text>
<text text-anchor="start" x="61.28" y="-277.5" font-family="Helvetica,sans-Serif" font-size="10.00">+ operator=()</text>
<text text-anchor="start" x="61.28" y="-266.5" font-family="Helvetica,sans-Serif" font-size="10.00">+ operator+=()</text>
<text text-anchor="start" x="61.28" y="-255.5" font-family="Helvetica,sans-Serif" font-size="10.00">+ String()</text>
<text text-anchor="start" x="61.28" y="-244.5" font-family="Helvetica,sans-Serif" font-size="10.00">+ operator=()</text>
<text text-anchor="start" x="61.28" y="-233.5" font-family="Helvetica,sans-Serif" font-size="10.00">+ operator[]()</text>
<text text-anchor="start" x="61.28" y="-222.5" font-family="Helvetica,sans-Serif" font-size="10.00">+ operator[]()</text>
<text text-anchor="start" x="61.28" y="-211.5" font-family="Helvetica,sans-Serif" font-size="10.00">+ c_str()</text>
<text text-anchor="start" x="61.28" y="-200.5" font-family="Helvetica,sans-Serif" font-size="10.00">+ c_str()</text>
<text text-anchor="start" x="61.28" y="-189.5" font-family="Helvetica,sans-Serif" font-size="10.00">+ size()</text>
<text text-anchor="start" x="61.28" y="-178.5" font-family="Helvetica,sans-Serif" font-size="10.00">+ capacity()</text>
<text text-anchor="start" x="61.28" y="-167.5" font-family="Helvetica,sans-Serif" font-size="10.00">+ substr()</text>
<text text-anchor="start" x="61.28" y="-156.5" font-family="Helvetica,sans-Serif" font-size="10.00">+ substr()</text>
<text text-anchor="start" x="61.28" y="-145.5" font-family="Helvetica,sans-Serif" font-size="10.00">+ find()</text>
<text text-anchor="start" x="61.28" y="-134.5" font-family="Helvetica,sans-Serif" font-size="10.00">+ rfind()</text>
<text text-anchor="start" x="61.28" y="-123.5" font-family="Helvetica,sans-Serif" font-size="10.00">+ compare()</text>
<text text-anchor="start" x="61.28" y="-112.5" font-family="Helvetica,sans-Serif" font-size="10.00">+ compare()</text>
</a>
</g>
</g>
<!-- Node2&#45;&gt;Node3 -->
<g id="edge7" class="edge">
<title>Node2&#45;&gt;Node3</title>
<path fill="none" stroke="#404040" d="M54.21,-573.87C56.06,-541.82 59.77,-487.44 65.78,-441 67.28,-429.44 68.99,-417.52 70.84,-405.54"/>
<polygon fill="none" stroke="#404040" points="70.86,-405.41 67.84,-398.86 72.72,-393.56 75.74,-400.11 70.86,-405.41"/>
<text text-anchor="middle" x="79.78" y="-473" font-family="Helvetica,sans-Serif" font-size="10.00"> +buf</text>
</g>
<!-- Node5 -->
<g id="node5" class="node">
<title>Node5</title>
<g id="a_node5"><a xlink:title="OCLINT avoid private static members.">
<polygon fill="white" stroke="#bfbfbf" points="102.78,-447 102.78,-504 218.78,-504 218.78,-447 102.78,-447"/>
<text text-anchor="middle" x="160.78" y="-492" font-family="Helvetica,sans-Serif" font-size="10.00">doctest::String::view</text>
<polyline fill="none" stroke="#bfbfbf" points="102.78,-485 218.78,-485 "/>
<text text-anchor="middle" x="160.78" y="-473" font-family="Helvetica,sans-Serif" font-size="10.00"> </text>
<polyline fill="none" stroke="#bfbfbf" points="102.78,-466 218.78,-466 "/>
<text text-anchor="middle" x="160.78" y="-454" font-family="Helvetica,sans-Serif" font-size="10.00"> </text>
</a>
</g>
</g>
<!-- Node2&#45;&gt;Node5 -->
<g id="edge5" class="edge">
<title>Node2&#45;&gt;Node5</title>
<path fill="none" stroke="#404040" d="M71.99,-578.38C74.92,-574.89 77.92,-571.34 80.78,-568 96.14,-550.03 113.37,-530.27 127.9,-513.73"/>
<polygon fill="none" stroke="#404040" points="128.18,-513.4 129.14,-506.26 136.11,-504.39 135.15,-511.54 128.18,-513.4"/>
<text text-anchor="middle" x="125.28" y="-536.5" font-family="Helvetica,sans-Serif" font-size="10.00"> +ptr</text>
</g>
<!-- Node3&#45;&gt;Node1 -->
<g id="edge2" class="edge">
<title>Node3&#45;&gt;Node1</title>
<path fill="none" stroke="#404040" d="M98.6,-105.45C100.64,-95.34 103.31,-85.42 106.78,-76 107.78,-73.27 109.01,-70.57 110.41,-67.94"/>
<polygon fill="none" stroke="#404040" points="110.56,-67.7 110.33,-60.49 116.9,-57.52 117.12,-64.72 110.56,-67.7"/>
<text text-anchor="middle" x="134.28" y="-79" font-family="Helvetica,sans-Serif" font-size="10.00"> +m_string</text>
</g>
<!-- Node4 -->
<g id="node4" class="node">
<title>Node4</title>
<g id="a_node4"><a xlink:title=" ">
<polygon fill="white" stroke="#bfbfbf" points="237.28,-441.5 237.28,-509.5 394.28,-509.5 394.28,-441.5 237.28,-441.5"/>
<text text-anchor="start" x="245.28" y="-497.5" font-family="Helvetica,sans-Serif" font-size="10.00">static DOCTEST_CONSTEXPR</text>
<text text-anchor="middle" x="315.78" y="-486.5" font-family="Helvetica,sans-Serif" font-size="10.00"> size_type</text>
<polyline fill="none" stroke="#bfbfbf" points="237.28,-479.5 394.28,-479.5 "/>
<text text-anchor="middle" x="315.78" y="-467.5" font-family="Helvetica,sans-Serif" font-size="10.00"> </text>
<polyline fill="none" stroke="#bfbfbf" points="237.28,-460.5 394.28,-460.5 "/>
<text text-anchor="middle" x="315.78" y="-448.5" font-family="Helvetica,sans-Serif" font-size="10.00"> </text>
</a>
</g>
</g>
<!-- Node4&#45;&gt;Node3 -->
<g id="edge3" class="edge">
<title>Node4&#45;&gt;Node3</title>
<path fill="none" stroke="#404040" d="M244.39,-441.48C205.01,-422.75 162.69,-401.59 155.78,-394 155.15,-393.31 154.54,-392.62 153.93,-391.92"/>
<polygon fill="none" stroke="#404040" points="153.83,-391.79 146.96,-389.6 146.35,-382.41 153.21,-384.61 153.83,-391.79"/>
<text text-anchor="middle" x="221.28" y="-415" font-family="Helvetica,sans-Serif" font-size="10.00"> +npos</text>
</g>
<!-- Node5&#45;&gt;Node3 -->
<g id="edge4" class="edge">
<title>Node5&#45;&gt;Node3</title>
<path fill="none" stroke="#404040" d="M153.18,-446.58C150.07,-435.18 146.22,-421.04 142.02,-405.61"/>
<polygon fill="none" stroke="#404040" points="141.9,-405.16 136.46,-400.42 138.74,-393.58 144.18,-398.32 141.9,-405.16"/>
<text text-anchor="middle" x="162.78" y="-415" font-family="Helvetica,sans-Serif" font-size="10.00"> +data</text>
</g>
<!-- Node6 -->
<g id="node6" class="node">
<title>Node6</title>
<g id="a_node6"><a xlink:title=" ">
<polygon fill="white" stroke="#bfbfbf" points="89.78,-568.5 89.78,-636.5 237.78,-636.5 237.78,-568.5 89.78,-568.5"/>
<text text-anchor="start" x="97.78" y="-624.5" font-family="Helvetica,sans-Serif" font-size="10.00">DOCTEST_CONFIG_STRING</text>
<text text-anchor="middle" x="163.78" y="-613.5" font-family="Helvetica,sans-Serif" font-size="10.00">_SIZE_TYPE</text>
<polyline fill="none" stroke="#bfbfbf" points="89.78,-606.5 237.78,-606.5 "/>
<text text-anchor="middle" x="163.78" y="-594.5" font-family="Helvetica,sans-Serif" font-size="10.00"> </text>
<polyline fill="none" stroke="#bfbfbf" points="89.78,-587.5 237.78,-587.5 "/>
<text text-anchor="middle" x="163.78" y="-575.5" font-family="Helvetica,sans-Serif" font-size="10.00"> </text>
</a>
</g>
</g>
<!-- Node6&#45;&gt;Node5 -->
<g id="edge6" class="edge">
<title>Node6&#45;&gt;Node5</title>
<path fill="none" stroke="#404040" d="M162.98,-568.33C162.6,-552.42 162.14,-533.24 161.74,-516.52"/>
<polygon fill="none" stroke="#404040" points="161.74,-516.32 157.59,-510.42 161.45,-504.32 165.59,-510.22 161.74,-516.32"/>
<text text-anchor="middle" x="188.28" y="-542" font-family="Helvetica,sans-Serif" font-size="10.00"> +capacity</text>
<text text-anchor="middle" x="188.28" y="-531" font-family="Helvetica,sans-Serif" font-size="10.00">+size</text>
</g>
<!-- Node7 -->
<g id="node7" class="node">
<title>Node7</title>
<g id="a_node7"><a xlink:title=" ">
<polygon fill="white" stroke="#bfbfbf" points="164.78,-221 164.78,-278 208.78,-278 208.78,-221 164.78,-221"/>
<text text-anchor="middle" x="186.78" y="-266" font-family="Helvetica,sans-Serif" font-size="10.00">Enum</text>
<polyline fill="none" stroke="#bfbfbf" points="164.78,-259 208.78,-259 "/>
<text text-anchor="middle" x="186.78" y="-247" font-family="Helvetica,sans-Serif" font-size="10.00"> </text>
<polyline fill="none" stroke="#bfbfbf" points="164.78,-240 208.78,-240 "/>
<text text-anchor="middle" x="186.78" y="-228" font-family="Helvetica,sans-Serif" font-size="10.00"> </text>
</a>
</g>
</g>
<!-- Node7&#45;&gt;Node1 -->
<g id="edge8" class="edge">
<title>Node7&#45;&gt;Node1</title>
<path fill="none" stroke="#404040" d="M184.89,-220.88C182.07,-186.46 175.51,-126.05 161.78,-76 161.16,-73.75 160.46,-71.46 159.71,-69.17"/>
<polygon fill="none" stroke="#404040" points="159.68,-69.1 153.87,-64.84 155.56,-57.83 161.38,-62.1 159.68,-69.1"/>
<text text-anchor="middle" x="197.28" y="-79" font-family="Helvetica,sans-Serif" font-size="10.00"> +m_severity</text>
</g>
<!-- Node8 -->
<g id="node8" class="node">
<title>Node8</title>
<g id="a_node8"><a xlink:title=" ">
<polygon fill="white" stroke="#bfbfbf" points="259.28,-221 259.28,-278 288.28,-278 288.28,-221 259.28,-221"/>
<text text-anchor="middle" x="273.78" y="-266" font-family="Helvetica,sans-Serif" font-size="10.00">int</text>
<polyline fill="none" stroke="#bfbfbf" points="259.28,-259 288.28,-259 "/>
<text text-anchor="middle" x="273.78" y="-247" font-family="Helvetica,sans-Serif" font-size="10.00"> </text>
<polyline fill="none" stroke="#bfbfbf" points="259.28,-240 288.28,-240 "/>
<text text-anchor="middle" x="273.78" y="-228" font-family="Helvetica,sans-Serif" font-size="10.00"> </text>
</a>
</g>
</g>
<!-- Node8&#45;&gt;Node1 -->
<g id="edge9" class="edge">
<title>Node8&#45;&gt;Node1</title>
<path fill="none" stroke="#404040" d="M274.5,-220.95C274.05,-184.12 268.11,-118.53 234.78,-76 229.6,-69.39 223.22,-63.66 216.25,-58.7"/>
<polygon fill="none" stroke="#404040" points="215.82,-58.42 208.61,-58.58 205.69,-51.98 212.9,-51.83 215.82,-58.42"/>
<text text-anchor="middle" x="262.28" y="-79" font-family="Helvetica,sans-Serif" font-size="10.00"> +m_line</text>
</g>
</g>
</svg>
