<?xml version="1.0" encoding="UTF-8" standalone="no"?>
<!DOCTYPE svg PUBLIC "-//W3C//DTD SVG 1.1//EN"
 "http://www.w3.org/Graphics/SVG/1.1/DTD/svg11.dtd">
<!-- Generated by graphviz version 2.43.0 (0)
 -->
<!-- Title: doctest::detail::TestCase Pages: 1 -->
<svg width="629pt" height="893pt"
 viewBox="0.00 0.00 628.50 893.00" xmlns="http://www.w3.org/2000/svg" xmlns:xlink="http://www.w3.org/1999/xlink">
<g id="graph0" class="graph" transform="scale(1 1) rotate(0) translate(4 889)">
<title>doctest::detail::TestCase</title>
<polygon fill="white" stroke="transparent" points="-4,4 -4,-889 624.5,-889 624.5,4 -4,4"/>
<!-- Node1 -->
<g id="node1" class="node">
<title>Node1</title>
<g id="a_node1"><a xlink:title=" ">
<polygon fill="#bfbfbf" stroke="black" points="224,-0.5 224,-156.5 387,-156.5 387,-0.5 224,-0.5"/>
<text text-anchor="middle" x="305.5" y="-144.5" font-family="Helvetica,sans-Serif" font-size="10.00">doctest::detail::TestCase</text>
<polyline fill="none" stroke="black" points="224,-137.5 387,-137.5 "/>
<text text-anchor="middle" x="305.5" y="-125.5" font-family="Helvetica,sans-Serif" font-size="10.00"> </text>
<polyline fill="none" stroke="black" points="224,-118.5 387,-118.5 "/>
<text text-anchor="start" x="232" y="-106.5" font-family="Helvetica,sans-Serif" font-size="10.00">+ TestCase()</text>
<text text-anchor="start" x="232" y="-95.5" font-family="Helvetica,sans-Serif" font-size="10.00">+ TestCase()</text>
<text text-anchor="start" x="232" y="-84.5" font-family="Helvetica,sans-Serif" font-size="10.00">+ TestCase()</text>
<text text-anchor="start" x="232" y="-73.5" font-family="Helvetica,sans-Serif" font-size="10.00">+ DOCTEST_MSVC_SUPPRESS</text>
<text text-anchor="start" x="232" y="-62.5" font-family="Helvetica,sans-Serif" font-size="10.00">_WARNING_WITH_PUSH()</text>
<text text-anchor="start" x="232" y="-51.5" font-family="Helvetica,sans-Serif" font-size="10.00">+ operator=()</text>
<text text-anchor="start" x="232" y="-40.5" font-family="Helvetica,sans-Serif" font-size="10.00">+ operator*()</text>
<text text-anchor="start" x="232" y="-29.5" font-family="Helvetica,sans-Serif" font-size="10.00">+ operator*()</text>
<text text-anchor="start" x="232" y="-18.5" font-family="Helvetica,sans-Serif" font-size="10.00">+ operator&lt;()</text>
<text text-anchor="start" x="232" y="-7.5" font-family="Helvetica,sans-Serif" font-size="10.00">+ ~TestCase()</text>
</a>
</g>
</g>
<!-- Node2 -->
<g id="node2" class="node">
<title>Node2</title>
<g id="a_node2"><a xlink:href="structdoctest_1_1TestCaseData.html" target="_top" xlink:title=" ">
<polygon fill="white" stroke="black" points="322,-204.5 322,-261.5 447,-261.5 447,-204.5 322,-204.5"/>
<text text-anchor="middle" x="384.5" y="-249.5" font-family="Helvetica,sans-Serif" font-size="10.00">doctest::TestCaseData</text>
<polyline fill="none" stroke="black" points="322,-242.5 447,-242.5 "/>
<text text-anchor="middle" x="384.5" y="-230.5" font-family="Helvetica,sans-Serif" font-size="10.00"> </text>
<polyline fill="none" stroke="black" points="322,-223.5 447,-223.5 "/>
<text text-anchor="middle" x="384.5" y="-211.5" font-family="Helvetica,sans-Serif" font-size="10.00"> </text>
</a>
</g>
</g>
<!-- Node2&#45;&gt;Node1 -->
<g id="edge1" class="edge">
<title>Node2&#45;&gt;Node1</title>
<path fill="none" stroke="midnightblue" d="M365.52,-195.36C359.43,-183.61 352.45,-170.12 345.44,-156.6"/>
<polygon fill="none" stroke="midnightblue" points="362.49,-197.11 370.19,-204.38 368.7,-193.89 362.49,-197.11"/>
</g>
<!-- Node3 -->
<g id="node3" class="node">
<title>Node3</title>
<g id="a_node3"><a xlink:title=" ">
<polygon fill="white" stroke="#bfbfbf" points="327.5,-469 327.5,-526 377.5,-526 377.5,-469 327.5,-469"/>
<text text-anchor="middle" x="352.5" y="-514" font-family="Helvetica,sans-Serif" font-size="10.00">double</text>
<polyline fill="none" stroke="#bfbfbf" points="327.5,-507 377.5,-507 "/>
<text text-anchor="middle" x="352.5" y="-495" font-family="Helvetica,sans-Serif" font-size="10.00"> </text>
<polyline fill="none" stroke="#bfbfbf" points="327.5,-488 377.5,-488 "/>
<text text-anchor="middle" x="352.5" y="-476" font-family="Helvetica,sans-Serif" font-size="10.00"> </text>
</a>
</g>
</g>
<!-- Node3&#45;&gt;Node2 -->
<g id="edge2" class="edge">
<title>Node3&#45;&gt;Node2</title>
<path fill="none" stroke="#404040" d="M347.6,-468.73C341.31,-426.77 333.42,-345.2 353.5,-280 354.29,-277.42 355.29,-274.85 356.42,-272.33"/>
<polygon fill="none" stroke="#404040" points="356.5,-272.19 355.81,-265.01 362.17,-261.61 362.86,-268.79 356.5,-272.19"/>
<text text-anchor="middle" x="386" y="-305" font-family="Helvetica,sans-Serif" font-size="10.00"> +m_timeout</text>
</g>
<!-- Node4 -->
<g id="node4" class="node">
<title>Node4</title>
<g id="a_node4"><a xlink:href="classdoctest_1_1String.html" target="_top" xlink:title=" ">
<polygon fill="white" stroke="black" points="216,-353.5 216,-641.5 309,-641.5 309,-353.5 216,-353.5"/>
<text text-anchor="middle" x="262.5" y="-629.5" font-family="Helvetica,sans-Serif" font-size="10.00">doctest::String</text>
<polyline fill="none" stroke="black" points="216,-622.5 309,-622.5 "/>
<text text-anchor="middle" x="262.5" y="-610.5" font-family="Helvetica,sans-Serif" font-size="10.00"> </text>
<polyline fill="none" stroke="black" points="216,-603.5 309,-603.5 "/>
<text text-anchor="start" x="224" y="-591.5" font-family="Helvetica,sans-Serif" font-size="10.00">+ String()</text>
<text text-anchor="start" x="224" y="-580.5" font-family="Helvetica,sans-Serif" font-size="10.00">+ ~String()</text>
<text text-anchor="start" x="224" y="-569.5" font-family="Helvetica,sans-Serif" font-size="10.00">+ String()</text>
<text text-anchor="start" x="224" y="-558.5" font-family="Helvetica,sans-Serif" font-size="10.00">+ String()</text>
<text text-anchor="start" x="224" y="-547.5" font-family="Helvetica,sans-Serif" font-size="10.00">+ String()</text>
<text text-anchor="start" x="224" y="-536.5" font-family="Helvetica,sans-Serif" font-size="10.00">+ String()</text>
<text text-anchor="start" x="224" y="-525.5" font-family="Helvetica,sans-Serif" font-size="10.00">+ operator=()</text>
<text text-anchor="start" x="224" y="-514.5" font-family="Helvetica,sans-Serif" font-size="10.00">+ operator+=()</text>
<text text-anchor="start" x="224" y="-503.5" font-family="Helvetica,sans-Serif" font-size="10.00">+ String()</text>
<text text-anchor="start" x="224" y="-492.5" font-family="Helvetica,sans-Serif" font-size="10.00">+ operator=()</text>
<text text-anchor="start" x="224" y="-481.5" font-family="Helvetica,sans-Serif" font-size="10.00">+ operator[]()</text>
<text text-anchor="start" x="224" y="-470.5" font-family="Helvetica,sans-Serif" font-size="10.00">+ operator[]()</text>
<text text-anchor="start" x="224" y="-459.5" font-family="Helvetica,sans-Serif" font-size="10.00">+ c_str()</text>
<text text-anchor="start" x="224" y="-448.5" font-family="Helvetica,sans-Serif" font-size="10.00">+ c_str()</text>
<text text-anchor="start" x="224" y="-437.5" font-family="Helvetica,sans-Serif" font-size="10.00">+ size()</text>
<text text-anchor="start" x="224" y="-426.5" font-family="Helvetica,sans-Serif" font-size="10.00">+ capacity()</text>
<text text-anchor="start" x="224" y="-415.5" font-family="Helvetica,sans-Serif" font-size="10.00">+ substr()</text>
<text text-anchor="start" x="224" y="-404.5" font-family="Helvetica,sans-Serif" font-size="10.00">+ substr()</text>
<text text-anchor="start" x="224" y="-393.5" font-family="Helvetica,sans-Serif" font-size="10.00">+ find()</text>
<text text-anchor="start" x="224" y="-382.5" font-family="Helvetica,sans-Serif" font-size="10.00">+ rfind()</text>
<text text-anchor="start" x="224" y="-371.5" font-family="Helvetica,sans-Serif" font-size="10.00">+ compare()</text>
<text text-anchor="start" x="224" y="-360.5" font-family="Helvetica,sans-Serif" font-size="10.00">+ compare()</text>
</a>
</g>
</g>
<!-- Node4&#45;&gt;Node1 -->
<g id="edge13" class="edge">
<title>Node4&#45;&gt;Node1</title>
<path fill="none" stroke="#404040" d="M230.5,-353.19C224.85,-305.19 224.15,-251.75 236.5,-204 239.64,-191.85 244.25,-179.63 249.62,-167.83"/>
<polygon fill="none" stroke="#404040" points="249.79,-167.49 248.78,-160.35 254.98,-156.67 255.99,-163.81 249.79,-167.49"/>
<text text-anchor="middle" x="274.5" y="-236" font-family="Helvetica,sans-Serif" font-size="10.00"> +m_full_name</text>
<text text-anchor="middle" x="274.5" y="-225" font-family="Helvetica,sans-Serif" font-size="10.00">+m_type</text>
</g>
<!-- Node4&#45;&gt;Node2 -->
<g id="edge3" class="edge">
<title>Node4&#45;&gt;Node2</title>
<path fill="none" stroke="#404040" d="M266.6,-353.44C272.44,-327.28 282.07,-301.5 297.5,-280 301.48,-274.45 306.35,-269.51 311.72,-265.12"/>
<polygon fill="none" stroke="#404040" points="312.11,-264.84 314.64,-258.08 321.85,-257.82 319.32,-264.57 312.11,-264.84"/>
<text text-anchor="middle" x="318.5" y="-305" font-family="Helvetica,sans-Serif" font-size="10.00"> +m_file</text>
</g>
<!-- Node5 -->
<g id="node5" class="node">
<title>Node5</title>
<g id="a_node5"><a xlink:title=" ">
<polygon fill="white" stroke="#bfbfbf" points="69,-689.5 69,-757.5 226,-757.5 226,-689.5 69,-689.5"/>
<text text-anchor="start" x="77" y="-745.5" font-family="Helvetica,sans-Serif" font-size="10.00">static DOCTEST_CONSTEXPR</text>
<text text-anchor="middle" x="147.5" y="-734.5" font-family="Helvetica,sans-Serif" font-size="10.00"> size_type</text>
<polyline fill="none" stroke="#bfbfbf" points="69,-727.5 226,-727.5 "/>
<text text-anchor="middle" x="147.5" y="-715.5" font-family="Helvetica,sans-Serif" font-size="10.00"> </text>
<polyline fill="none" stroke="#bfbfbf" points="69,-708.5 226,-708.5 "/>
<text text-anchor="middle" x="147.5" y="-696.5" font-family="Helvetica,sans-Serif" font-size="10.00"> </text>
</a>
</g>
</g>
<!-- Node5&#45;&gt;Node4 -->
<g id="edge4" class="edge">
<title>Node5&#45;&gt;Node4</title>
<path fill="none" stroke="#404040" d="M174.82,-689.34C185.58,-675.29 197.49,-658.4 206.5,-642 207.81,-639.62 209.1,-637.2 210.38,-634.75"/>
<polygon fill="none" stroke="#404040" points="210.47,-634.57 209.59,-627.41 215.86,-623.85 216.74,-631.01 210.47,-634.57"/>
<text text-anchor="middle" x="213" y="-663" font-family="Helvetica,sans-Serif" font-size="10.00"> +npos</text>
</g>
<!-- Node6 -->
<g id="node6" class="node">
<title>Node6</title>
<g id="a_node6"><a xlink:title="OCLINT avoid private static members.">
<polygon fill="white" stroke="#bfbfbf" points="308.5,-695 308.5,-752 424.5,-752 424.5,-695 308.5,-695"/>
<text text-anchor="middle" x="366.5" y="-740" font-family="Helvetica,sans-Serif" font-size="10.00">doctest::String::view</text>
<polyline fill="none" stroke="#bfbfbf" points="308.5,-733 424.5,-733 "/>
<text text-anchor="middle" x="366.5" y="-721" font-family="Helvetica,sans-Serif" font-size="10.00"> </text>
<polyline fill="none" stroke="#bfbfbf" points="308.5,-714 424.5,-714 "/>
<text text-anchor="middle" x="366.5" y="-702" font-family="Helvetica,sans-Serif" font-size="10.00"> </text>
</a>
</g>
</g>
<!-- Node6&#45;&gt;Node4 -->
<g id="edge5" class="edge">
<title>Node6&#45;&gt;Node4</title>
<path fill="none" stroke="#404040" d="M348.45,-694.82C338.9,-679.58 327.36,-660.13 318.5,-642 317.06,-639.06 315.63,-636.07 314.22,-633.05"/>
<polygon fill="none" stroke="#404040" points="314.14,-632.89 308.01,-629.1 309.15,-621.98 315.28,-625.77 314.14,-632.89"/>
<text text-anchor="middle" x="350.5" y="-663" font-family="Helvetica,sans-Serif" font-size="10.00"> +data</text>
</g>
<!-- Node7 -->
<g id="node7" class="node">
<title>Node7</title>
<g id="a_node7"><a xlink:title=" ">
<polygon fill="white" stroke="#bfbfbf" points="243.5,-822 243.5,-879 281.5,-879 281.5,-822 243.5,-822"/>
<text text-anchor="middle" x="262.5" y="-867" font-family="Helvetica,sans-Serif" font-size="10.00">char</text>
<polyline fill="none" stroke="#bfbfbf" points="243.5,-860 281.5,-860 "/>
<text text-anchor="middle" x="262.5" y="-848" font-family="Helvetica,sans-Serif" font-size="10.00"> </text>
<polyline fill="none" stroke="#bfbfbf" points="243.5,-841 281.5,-841 "/>
<text text-anchor="middle" x="262.5" y="-829" font-family="Helvetica,sans-Serif" font-size="10.00"> </text>
</a>
</g>
</g>
<!-- Node7&#45;&gt;Node4 -->
<g id="edge8" class="edge">
<title>Node7&#45;&gt;Node4</title>
<path fill="none" stroke="#404040" d="M262.5,-821.96C262.5,-785.37 262.5,-717.89 262.5,-653.99"/>
<polygon fill="none" stroke="#404040" points="262.5,-653.69 258.5,-647.69 262.5,-641.69 266.5,-647.69 262.5,-653.69"/>
<text text-anchor="middle" x="276.5" y="-721" font-family="Helvetica,sans-Serif" font-size="10.00"> +buf</text>
</g>
<!-- Node7&#45;&gt;Node6 -->
<g id="edge6" class="edge">
<title>Node7&#45;&gt;Node6</title>
<path fill="none" stroke="#404040" d="M281.58,-826.57C296.73,-808.36 318.22,-782.53 335.79,-761.41"/>
<polygon fill="none" stroke="#404040" points="335.88,-761.31 336.64,-754.14 343.55,-752.08 342.79,-759.25 335.88,-761.31"/>
<text text-anchor="middle" x="334" y="-784.5" font-family="Helvetica,sans-Serif" font-size="10.00"> +ptr</text>
</g>
<!-- Node8 -->
<g id="node8" class="node">
<title>Node8</title>
<g id="a_node8"><a xlink:title=" ">
<polygon fill="white" stroke="#bfbfbf" points="299.5,-816.5 299.5,-884.5 447.5,-884.5 447.5,-816.5 299.5,-816.5"/>
<text text-anchor="start" x="307.5" y="-872.5" font-family="Helvetica,sans-Serif" font-size="10.00">DOCTEST_CONFIG_STRING</text>
<text text-anchor="middle" x="373.5" y="-861.5" font-family="Helvetica,sans-Serif" font-size="10.00">_SIZE_TYPE</text>
<polyline fill="none" stroke="#bfbfbf" points="299.5,-854.5 447.5,-854.5 "/>
<text text-anchor="middle" x="373.5" y="-842.5" font-family="Helvetica,sans-Serif" font-size="10.00"> </text>
<polyline fill="none" stroke="#bfbfbf" points="299.5,-835.5 447.5,-835.5 "/>
<text text-anchor="middle" x="373.5" y="-823.5" font-family="Helvetica,sans-Serif" font-size="10.00"> </text>
</a>
</g>
</g>
<!-- Node8&#45;&gt;Node6 -->
<g id="edge7" class="edge">
<title>Node8&#45;&gt;Node6</title>
<path fill="none" stroke="#404040" d="M371.64,-816.33C370.75,-800.42 369.68,-781.24 368.74,-764.52"/>
<polygon fill="none" stroke="#404040" points="368.73,-764.3 364.4,-758.54 368.06,-752.32 372.39,-758.09 368.73,-764.3"/>
<text text-anchor="middle" x="397" y="-790" font-family="Helvetica,sans-Serif" font-size="10.00"> +capacity</text>
<text text-anchor="middle" x="397" y="-779" font-family="Helvetica,sans-Serif" font-size="10.00">+size</text>
</g>
<!-- Node9 -->
<g id="node9" class="node">
<title>Node9</title>
<g id="a_node9"><a xlink:title=" ">
<polygon fill="white" stroke="#bfbfbf" points="0,-469 0,-526 29,-526 29,-469 0,-469"/>
<text text-anchor="middle" x="14.5" y="-514" font-family="Helvetica,sans-Serif" font-size="10.00">int</text>
<polyline fill="none" stroke="#bfbfbf" points="0,-507 29,-507 "/>
<text text-anchor="middle" x="14.5" y="-495" font-family="Helvetica,sans-Serif" font-size="10.00"> </text>
<polyline fill="none" stroke="#bfbfbf" points="0,-488 29,-488 "/>
<text text-anchor="middle" x="14.5" y="-476" font-family="Helvetica,sans-Serif" font-size="10.00"> </text>
</a>
</g>
</g>
<!-- Node9&#45;&gt;Node1 -->
<g id="edge15" class="edge">
<title>Node9&#45;&gt;Node1</title>
<path fill="none" stroke="#404040" d="M9.37,-468.79C2.82,-425.49 -4,-340.48 29.5,-280 69.99,-206.9 149.68,-153.48 213.07,-120.24"/>
<polygon fill="none" stroke="#404040" points="213.22,-120.17 216.73,-113.86 223.89,-114.68 220.39,-120.98 213.22,-120.17"/>
<text text-anchor="middle" x="133" y="-230.5" font-family="Helvetica,sans-Serif" font-size="10.00"> +m_template_id</text>
</g>
<!-- Node9&#45;&gt;Node2 -->
<g id="edge9" class="edge">
<title>Node9&#45;&gt;Node2</title>
<path fill="none" stroke="#404040" d="M12.41,-468.7C10.56,-421.64 14.52,-326.84 70.5,-280 111.01,-246.11 255.87,-273.13 307.5,-262 308.39,-261.81 309.28,-261.61 310.17,-261.4"/>
<polygon fill="none" stroke="#404040" points="310.27,-261.38 315.06,-255.99 321.88,-258.35 317.08,-263.73 310.27,-261.38"/>
<text text-anchor="middle" x="127.5" y="-305" font-family="Helvetica,sans-Serif" font-size="10.00"> +m_expected_failures</text>
</g>
<!-- Node10 -->
<g id="node10" class="node">
<title>Node10</title>
<g id="a_node10"><a xlink:title=" ">
<polygon fill="white" stroke="#bfbfbf" points="421.5,-469 421.5,-526 459.5,-526 459.5,-469 421.5,-469"/>
<text text-anchor="middle" x="440.5" y="-514" font-family="Helvetica,sans-Serif" font-size="10.00">bool</text>
<polyline fill="none" stroke="#bfbfbf" points="421.5,-507 459.5,-507 "/>
<text text-anchor="middle" x="440.5" y="-495" font-family="Helvetica,sans-Serif" font-size="10.00"> </text>
<polyline fill="none" stroke="#bfbfbf" points="421.5,-488 459.5,-488 "/>
<text text-anchor="middle" x="440.5" y="-476" font-family="Helvetica,sans-Serif" font-size="10.00"> </text>
</a>
</g>
</g>
<!-- Node10&#45;&gt;Node2 -->
<g id="edge10" class="edge">
<title>Node10&#45;&gt;Node2</title>
<path fill="none" stroke="#404040" d="M442.26,-468.76C443.95,-426.5 443.29,-344.13 418.5,-280 417.46,-277.3 416.21,-274.63 414.82,-272"/>
<polygon fill="none" stroke="#404040" points="414.7,-271.8 408.17,-268.75 408.47,-261.55 415,-264.59 414.7,-271.8"/>
<text text-anchor="middle" x="471" y="-327" font-family="Helvetica,sans-Serif" font-size="10.00"> +m_no_output</text>
<text text-anchor="middle" x="471" y="-316" font-family="Helvetica,sans-Serif" font-size="10.00">+m_should_fail</text>
<text text-anchor="middle" x="471" y="-305" font-family="Helvetica,sans-Serif" font-size="10.00">+m_may_fail</text>
<text text-anchor="middle" x="471" y="-294" font-family="Helvetica,sans-Serif" font-size="10.00">+m_no_breaks</text>
<text text-anchor="middle" x="471" y="-283" font-family="Helvetica,sans-Serif" font-size="10.00">+m_skip</text>
</g>
<!-- Node11 -->
<g id="node11" class="node">
<title>Node11</title>
<g id="a_node11"><a xlink:title=" ">
<polygon fill="white" stroke="#bfbfbf" points="503,-469 503,-526 578,-526 578,-469 503,-469"/>
<text text-anchor="middle" x="540.5" y="-514" font-family="Helvetica,sans-Serif" font-size="10.00">const char *</text>
<polyline fill="none" stroke="#bfbfbf" points="503,-507 578,-507 "/>
<text text-anchor="middle" x="540.5" y="-495" font-family="Helvetica,sans-Serif" font-size="10.00"> </text>
<polyline fill="none" stroke="#bfbfbf" points="503,-488 578,-488 "/>
<text text-anchor="middle" x="540.5" y="-476" font-family="Helvetica,sans-Serif" font-size="10.00"> </text>
</a>
</g>
</g>
<!-- Node11&#45;&gt;Node2 -->
<g id="edge11" class="edge">
<title>Node11&#45;&gt;Node2</title>
<path fill="none" stroke="#404040" d="M545.66,-468.93C552.41,-423.89 558.59,-334.13 513.5,-280 498.56,-262.06 485.21,-268.56 458.89,-262.16"/>
<polygon fill="none" stroke="#404040" points="458.74,-262.11 451.84,-264.23 447.24,-258.68 454.13,-256.56 458.74,-262.11"/>
<text text-anchor="middle" x="580" y="-316" font-family="Helvetica,sans-Serif" font-size="10.00"> +m_description</text>
<text text-anchor="middle" x="580" y="-305" font-family="Helvetica,sans-Serif" font-size="10.00">+m_test_suite</text>
<text text-anchor="middle" x="580" y="-294" font-family="Helvetica,sans-Serif" font-size="10.00">+m_name</text>
</g>
<!-- Node12 -->
<g id="node12" class="node">
<title>Node12</title>
<g id="a_node12"><a xlink:title=" ">
<polygon fill="white" stroke="#bfbfbf" points="137,-469 137,-526 198,-526 198,-469 137,-469"/>
<text text-anchor="middle" x="167.5" y="-514" font-family="Helvetica,sans-Serif" font-size="10.00">unsigned</text>
<polyline fill="none" stroke="#bfbfbf" points="137,-507 198,-507 "/>
<text text-anchor="middle" x="167.5" y="-495" font-family="Helvetica,sans-Serif" font-size="10.00"> </text>
<polyline fill="none" stroke="#bfbfbf" points="137,-488 198,-488 "/>
<text text-anchor="middle" x="167.5" y="-476" font-family="Helvetica,sans-Serif" font-size="10.00"> </text>
</a>
</g>
</g>
<!-- Node12&#45;&gt;Node2 -->
<g id="edge12" class="edge">
<title>Node12&#45;&gt;Node2</title>
<path fill="none" stroke="#404040" d="M166.09,-468.74C165.37,-422.61 171.1,-330.25 223.5,-280 251.06,-253.58 270.81,-272.55 307.5,-262 308.37,-261.75 309.25,-261.49 310.13,-261.23"/>
<polygon fill="none" stroke="#404040" points="310.24,-261.2 314.78,-255.6 321.7,-257.63 317.16,-263.24 310.24,-261.2"/>
<text text-anchor="middle" x="246" y="-305" font-family="Helvetica,sans-Serif" font-size="10.00"> +m_line</text>
</g>
<!-- Node13 -->
<g id="node13" class="node">
<title>Node13</title>
<g id="a_node13"><a xlink:title=" ">
<polygon fill="white" stroke="#bfbfbf" points="465.5,-204.5 465.5,-261.5 523.5,-261.5 523.5,-204.5 465.5,-204.5"/>
<text text-anchor="middle" x="494.5" y="-249.5" font-family="Helvetica,sans-Serif" font-size="10.00">void(*)()</text>
<polyline fill="none" stroke="#bfbfbf" points="465.5,-242.5 523.5,-242.5 "/>
<text text-anchor="middle" x="494.5" y="-230.5" font-family="Helvetica,sans-Serif" font-size="10.00"> </text>
<polyline fill="none" stroke="#bfbfbf" points="465.5,-223.5 523.5,-223.5 "/>
<text text-anchor="middle" x="494.5" y="-211.5" font-family="Helvetica,sans-Serif" font-size="10.00"> </text>
</a>
</g>
</g>
<!-- Node13&#45;&gt;Node1 -->
<g id="edge14" class="edge">
<title>Node13&#45;&gt;Node1</title>
<path fill="none" stroke="#404040" d="M465.38,-208.51C446.84,-193.54 421.7,-173.26 396.85,-153.21"/>
<polygon fill="none" stroke="#404040" points="396.7,-153.08 389.51,-152.43 387.36,-145.55 394.54,-146.2 396.7,-153.08"/>
<text text-anchor="middle" x="455.5" y="-178" font-family="Helvetica,sans-Serif" font-size="10.00"> +m_test</text>
</g>
</g>
</svg>
