<?xml version="1.0" encoding="UTF-8" standalone="no"?>
<!DOCTYPE svg PUBLIC "-//W3C//DTD SVG 1.1//EN"
 "http://www.w3.org/Graphics/SVG/1.1/DTD/svg11.dtd">
<!-- Generated by graphviz version 2.43.0 (0)
 -->
<!-- Title: doctest::detail::types::true_type Pages: 1 -->
<svg width="564pt" height="226pt"
 viewBox="0.00 0.00 564.00 226.00" xmlns="http://www.w3.org/2000/svg" xmlns:xlink="http://www.w3.org/1999/xlink">
<g id="graph0" class="graph" transform="scale(1 1) rotate(0) translate(4 222)">
<title>doctest::detail::types::true_type</title>
<polygon fill="white" stroke="transparent" points="-4,4 -4,-222 560,-222 560,4 -4,4"/>
<!-- Node1 -->
<g id="node1" class="node">
<title>Node1</title>
<g id="a_node1"><a xlink:title=" ">
<polygon fill="#bfbfbf" stroke="black" points="231,-149.5 231,-217.5 350,-217.5 350,-149.5 231,-149.5"/>
<text text-anchor="start" x="239" y="-205.5" font-family="Helvetica,sans-Serif" font-size="10.00">doctest::detail::types</text>
<text text-anchor="middle" x="290.5" y="-194.5" font-family="Helvetica,sans-Serif" font-size="10.00">::true_type</text>
<polyline fill="none" stroke="black" points="231,-187.5 350,-187.5 "/>
<text text-anchor="start" x="239" y="-175.5" font-family="Helvetica,sans-Serif" font-size="10.00">+ value</text>
<polyline fill="none" stroke="black" points="231,-168.5 350,-168.5 "/>
<text text-anchor="middle" x="290.5" y="-156.5" font-family="Helvetica,sans-Serif" font-size="10.00"> </text>
</a>
</g>
</g>
<!-- Node2 -->
<g id="node2" class="node">
<title>Node2</title>
<g id="a_node2"><a xlink:href="structdoctest_1_1detail_1_1has__insertion__operator_3_01T_00_01decltype_07operator_3_3_07declvald5a5a279653bbfeef238ad5c984744e2.html" target="_top" xlink:title=" ">
<polygon fill="white" stroke="black" points="0,-0.5 0,-112.5 145,-112.5 145,-0.5 0,-0.5"/>
<text text-anchor="start" x="8" y="-100.5" font-family="Helvetica,sans-Serif" font-size="10.00">doctest::detail::has</text>
<text text-anchor="start" x="8" y="-89.5" font-family="Helvetica,sans-Serif" font-size="10.00">_insertion_operator&lt;</text>
<text text-anchor="start" x="8" y="-78.5" font-family="Helvetica,sans-Serif" font-size="10.00"> T, decltype(operator</text>
<text text-anchor="start" x="8" y="-67.5" font-family="Helvetica,sans-Serif" font-size="10.00">&lt;&lt;(declval&lt; std::ostream</text>
<text text-anchor="start" x="8" y="-56.5" font-family="Helvetica,sans-Serif" font-size="10.00"> &amp; &gt;(), declval&lt; const T</text>
<text text-anchor="middle" x="72.5" y="-45.5" font-family="Helvetica,sans-Serif" font-size="10.00"> &amp; &gt;()), void())&gt;</text>
<polyline fill="none" stroke="black" points="0,-38.5 145,-38.5 "/>
<text text-anchor="middle" x="72.5" y="-26.5" font-family="Helvetica,sans-Serif" font-size="10.00"> </text>
<polyline fill="none" stroke="black" points="0,-19.5 145,-19.5 "/>
<text text-anchor="middle" x="72.5" y="-7.5" font-family="Helvetica,sans-Serif" font-size="10.00"> </text>
</a>
</g>
</g>
<!-- Node1&#45;&gt;Node2 -->
<g id="edge1" class="edge">
<title>Node1&#45;&gt;Node2</title>
<path fill="none" stroke="midnightblue" d="M221.9,-149.91C199.74,-138.8 175.28,-125.91 153.5,-113 150.71,-111.35 147.9,-109.64 145.06,-107.88"/>
<polygon fill="none" stroke="midnightblue" points="220.41,-153.08 230.92,-154.4 223.53,-146.81 220.41,-153.08"/>
</g>
<!-- Node3 -->
<g id="node3" class="node">
<title>Node3</title>
<g id="a_node3"><a xlink:href="structdoctest_1_1detail_1_1types_1_1is__array_3_01T_0fSIZE_0e_4.html" target="_top" xlink:title=" ">
<polygon fill="white" stroke="black" points="163,-22.5 163,-90.5 282,-90.5 282,-22.5 163,-22.5"/>
<text text-anchor="start" x="171" y="-78.5" font-family="Helvetica,sans-Serif" font-size="10.00">doctest::detail::types</text>
<text text-anchor="middle" x="222.5" y="-67.5" font-family="Helvetica,sans-Serif" font-size="10.00">::is_array&lt; T[SIZE]&gt;</text>
<polyline fill="none" stroke="black" points="163,-60.5 282,-60.5 "/>
<text text-anchor="middle" x="222.5" y="-48.5" font-family="Helvetica,sans-Serif" font-size="10.00"> </text>
<polyline fill="none" stroke="black" points="163,-41.5 282,-41.5 "/>
<text text-anchor="middle" x="222.5" y="-29.5" font-family="Helvetica,sans-Serif" font-size="10.00"> </text>
</a>
</g>
</g>
<!-- Node1&#45;&gt;Node3 -->
<g id="edge2" class="edge">
<title>Node1&#45;&gt;Node3</title>
<path fill="none" stroke="midnightblue" d="M267.45,-140.13C258.7,-124.04 248.86,-105.96 240.63,-90.82"/>
<polygon fill="none" stroke="midnightblue" points="264.6,-142.22 272.46,-149.33 270.75,-138.87 264.6,-142.22"/>
</g>
<!-- Node4 -->
<g id="node4" class="node">
<title>Node4</title>
<g id="a_node4"><a xlink:href="structdoctest_1_1detail_1_1types_1_1is__pointer_3_01T_01_5_01_4.html" target="_top" xlink:title=" ">
<polygon fill="white" stroke="black" points="300,-22.5 300,-90.5 419,-90.5 419,-22.5 300,-22.5"/>
<text text-anchor="start" x="308" y="-78.5" font-family="Helvetica,sans-Serif" font-size="10.00">doctest::detail::types</text>
<text text-anchor="middle" x="359.5" y="-67.5" font-family="Helvetica,sans-Serif" font-size="10.00">::is_pointer&lt; T * &gt;</text>
<polyline fill="none" stroke="black" points="300,-60.5 419,-60.5 "/>
<text text-anchor="middle" x="359.5" y="-48.5" font-family="Helvetica,sans-Serif" font-size="10.00"> </text>
<polyline fill="none" stroke="black" points="300,-41.5 419,-41.5 "/>
<text text-anchor="middle" x="359.5" y="-29.5" font-family="Helvetica,sans-Serif" font-size="10.00"> </text>
</a>
</g>
</g>
<!-- Node1&#45;&gt;Node4 -->
<g id="edge3" class="edge">
<title>Node1&#45;&gt;Node4</title>
<path fill="none" stroke="midnightblue" d="M313.89,-140.13C322.77,-124.04 332.75,-105.96 341.1,-90.82"/>
<polygon fill="none" stroke="midnightblue" points="310.58,-138.88 308.81,-149.33 316.71,-142.27 310.58,-138.88"/>
</g>
<!-- Node5 -->
<g id="node5" class="node">
<title>Node5</title>
<g id="a_node5"><a xlink:href="structdoctest_1_1detail_1_1types_1_1is__rvalue__reference_3_01T_01_6_6_01_4.html" target="_top" xlink:title=" ">
<polygon fill="white" stroke="black" points="437,-17 437,-96 556,-96 556,-17 437,-17"/>
<text text-anchor="start" x="445" y="-84" font-family="Helvetica,sans-Serif" font-size="10.00">doctest::detail::types</text>
<text text-anchor="start" x="445" y="-73" font-family="Helvetica,sans-Serif" font-size="10.00">::is_rvalue_reference</text>
<text text-anchor="middle" x="496.5" y="-62" font-family="Helvetica,sans-Serif" font-size="10.00">&lt; T &amp;&amp; &gt;</text>
<polyline fill="none" stroke="black" points="437,-55 556,-55 "/>
<text text-anchor="middle" x="496.5" y="-43" font-family="Helvetica,sans-Serif" font-size="10.00"> </text>
<polyline fill="none" stroke="black" points="437,-36 556,-36 "/>
<text text-anchor="middle" x="496.5" y="-24" font-family="Helvetica,sans-Serif" font-size="10.00"> </text>
</a>
</g>
</g>
<!-- Node1&#45;&gt;Node5 -->
<g id="edge4" class="edge">
<title>Node1&#45;&gt;Node5</title>
<path fill="none" stroke="midnightblue" d="M359.35,-151.5C381.97,-140.36 406.84,-127.05 428.5,-113 436.3,-107.94 444.24,-102.14 451.82,-96.24"/>
<polygon fill="none" stroke="midnightblue" points="357.61,-148.45 350.15,-155.98 360.67,-154.75 357.61,-148.45"/>
</g>
</g>
</svg>
