<?xml version="1.0" encoding="UTF-8" standalone="no"?>
<!DOCTYPE svg PUBLIC "-//W3C//DTD SVG 1.1//EN"
 "http://www.w3.org/Graphics/SVG/1.1/DTD/svg11.dtd">
<!-- Generated by graphviz version 2.43.0 (0)
 -->
<!-- Title: doctest::detail::Result Pages: 1 -->
<svg width="387pt" height="656pt"
 viewBox="0.00 0.00 386.50 656.00" xmlns="http://www.w3.org/2000/svg" xmlns:xlink="http://www.w3.org/1999/xlink">
<g id="graph0" class="graph" transform="scale(1 1) rotate(0) translate(4 652)">
<title>doctest::detail::Result</title>
<polygon fill="white" stroke="transparent" points="-4,4 -4,-652 382.5,-652 382.5,4 -4,4"/>
<!-- Node1 -->
<g id="node1" class="node">
<title>Node1</title>
<g id="a_node1"><a xlink:title=" ">
<polygon fill="#bfbfbf" stroke="black" points="176,-0.5 176,-68.5 299,-68.5 299,-0.5 176,-0.5"/>
<text text-anchor="middle" x="237.5" y="-56.5" font-family="Helvetica,sans-Serif" font-size="10.00">doctest::detail::Result</text>
<polyline fill="none" stroke="black" points="176,-49.5 299,-49.5 "/>
<text text-anchor="middle" x="237.5" y="-37.5" font-family="Helvetica,sans-Serif" font-size="10.00"> </text>
<polyline fill="none" stroke="black" points="176,-30.5 299,-30.5 "/>
<text text-anchor="start" x="184" y="-18.5" font-family="Helvetica,sans-Serif" font-size="10.00">+ Result()</text>
<text text-anchor="start" x="184" y="-7.5" font-family="Helvetica,sans-Serif" font-size="10.00">+ Result()</text>
</a>
</g>
</g>
<!-- Node2 -->
<g id="node2" class="node">
<title>Node2</title>
<g id="a_node2"><a xlink:href="classdoctest_1_1String.html" target="_top" xlink:title=" ">
<polygon fill="white" stroke="black" points="147,-116.5 147,-404.5 240,-404.5 240,-116.5 147,-116.5"/>
<text text-anchor="middle" x="193.5" y="-392.5" font-family="Helvetica,sans-Serif" font-size="10.00">doctest::String</text>
<polyline fill="none" stroke="black" points="147,-385.5 240,-385.5 "/>
<text text-anchor="middle" x="193.5" y="-373.5" font-family="Helvetica,sans-Serif" font-size="10.00"> </text>
<polyline fill="none" stroke="black" points="147,-366.5 240,-366.5 "/>
<text text-anchor="start" x="155" y="-354.5" font-family="Helvetica,sans-Serif" font-size="10.00">+ String()</text>
<text text-anchor="start" x="155" y="-343.5" font-family="Helvetica,sans-Serif" font-size="10.00">+ ~String()</text>
<text text-anchor="start" x="155" y="-332.5" font-family="Helvetica,sans-Serif" font-size="10.00">+ String()</text>
<text text-anchor="start" x="155" y="-321.5" font-family="Helvetica,sans-Serif" font-size="10.00">+ String()</text>
<text text-anchor="start" x="155" y="-310.5" font-family="Helvetica,sans-Serif" font-size="10.00">+ String()</text>
<text text-anchor="start" x="155" y="-299.5" font-family="Helvetica,sans-Serif" font-size="10.00">+ String()</text>
<text text-anchor="start" x="155" y="-288.5" font-family="Helvetica,sans-Serif" font-size="10.00">+ operator=()</text>
<text text-anchor="start" x="155" y="-277.5" font-family="Helvetica,sans-Serif" font-size="10.00">+ operator+=()</text>
<text text-anchor="start" x="155" y="-266.5" font-family="Helvetica,sans-Serif" font-size="10.00">+ String()</text>
<text text-anchor="start" x="155" y="-255.5" font-family="Helvetica,sans-Serif" font-size="10.00">+ operator=()</text>
<text text-anchor="start" x="155" y="-244.5" font-family="Helvetica,sans-Serif" font-size="10.00">+ operator[]()</text>
<text text-anchor="start" x="155" y="-233.5" font-family="Helvetica,sans-Serif" font-size="10.00">+ operator[]()</text>
<text text-anchor="start" x="155" y="-222.5" font-family="Helvetica,sans-Serif" font-size="10.00">+ c_str()</text>
<text text-anchor="start" x="155" y="-211.5" font-family="Helvetica,sans-Serif" font-size="10.00">+ c_str()</text>
<text text-anchor="start" x="155" y="-200.5" font-family="Helvetica,sans-Serif" font-size="10.00">+ size()</text>
<text text-anchor="start" x="155" y="-189.5" font-family="Helvetica,sans-Serif" font-size="10.00">+ capacity()</text>
<text text-anchor="start" x="155" y="-178.5" font-family="Helvetica,sans-Serif" font-size="10.00">+ substr()</text>
<text text-anchor="start" x="155" y="-167.5" font-family="Helvetica,sans-Serif" font-size="10.00">+ substr()</text>
<text text-anchor="start" x="155" y="-156.5" font-family="Helvetica,sans-Serif" font-size="10.00">+ find()</text>
<text text-anchor="start" x="155" y="-145.5" font-family="Helvetica,sans-Serif" font-size="10.00">+ rfind()</text>
<text text-anchor="start" x="155" y="-134.5" font-family="Helvetica,sans-Serif" font-size="10.00">+ compare()</text>
<text text-anchor="start" x="155" y="-123.5" font-family="Helvetica,sans-Serif" font-size="10.00">+ compare()</text>
</a>
</g>
</g>
<!-- Node2&#45;&gt;Node1 -->
<g id="edge1" class="edge">
<title>Node2&#45;&gt;Node1</title>
<path fill="none" stroke="#404040" d="M186.64,-116.44C188.49,-106.33 191.05,-96.42 194.5,-87 195.5,-84.28 196.71,-81.6 198.08,-78.98"/>
<polygon fill="none" stroke="#404040" points="198.19,-78.8 197.94,-71.59 204.49,-68.59 204.74,-75.8 198.19,-78.8"/>
<text text-anchor="middle" x="227.5" y="-90" font-family="Helvetica,sans-Serif" font-size="10.00"> +m_decomp</text>
</g>
<!-- Node3 -->
<g id="node3" class="node">
<title>Node3</title>
<g id="a_node3"><a xlink:title=" ">
<polygon fill="white" stroke="#bfbfbf" points="0,-452.5 0,-520.5 157,-520.5 157,-452.5 0,-452.5"/>
<text text-anchor="start" x="8" y="-508.5" font-family="Helvetica,sans-Serif" font-size="10.00">static DOCTEST_CONSTEXPR</text>
<text text-anchor="middle" x="78.5" y="-497.5" font-family="Helvetica,sans-Serif" font-size="10.00"> size_type</text>
<polyline fill="none" stroke="#bfbfbf" points="0,-490.5 157,-490.5 "/>
<text text-anchor="middle" x="78.5" y="-478.5" font-family="Helvetica,sans-Serif" font-size="10.00"> </text>
<polyline fill="none" stroke="#bfbfbf" points="0,-471.5 157,-471.5 "/>
<text text-anchor="middle" x="78.5" y="-459.5" font-family="Helvetica,sans-Serif" font-size="10.00"> </text>
</a>
</g>
</g>
<!-- Node3&#45;&gt;Node2 -->
<g id="edge2" class="edge">
<title>Node3&#45;&gt;Node2</title>
<path fill="none" stroke="#404040" d="M95.47,-452.45C107.65,-428.72 124.77,-395.38 141.3,-363.18"/>
<polygon fill="none" stroke="#404040" points="141.39,-363 140.57,-355.83 146.87,-352.32 147.69,-359.49 141.39,-363"/>
<text text-anchor="middle" x="127" y="-426" font-family="Helvetica,sans-Serif" font-size="10.00"> +npos</text>
</g>
<!-- Node4 -->
<g id="node4" class="node">
<title>Node4</title>
<g id="a_node4"><a xlink:title="OCLINT avoid private static members.">
<polygon fill="white" stroke="#bfbfbf" points="239.5,-458 239.5,-515 355.5,-515 355.5,-458 239.5,-458"/>
<text text-anchor="middle" x="297.5" y="-503" font-family="Helvetica,sans-Serif" font-size="10.00">doctest::String::view</text>
<polyline fill="none" stroke="#bfbfbf" points="239.5,-496 355.5,-496 "/>
<text text-anchor="middle" x="297.5" y="-484" font-family="Helvetica,sans-Serif" font-size="10.00"> </text>
<polyline fill="none" stroke="#bfbfbf" points="239.5,-477 355.5,-477 "/>
<text text-anchor="middle" x="297.5" y="-465" font-family="Helvetica,sans-Serif" font-size="10.00"> </text>
</a>
</g>
</g>
<!-- Node4&#45;&gt;Node2 -->
<g id="edge3" class="edge">
<title>Node4&#45;&gt;Node2</title>
<path fill="none" stroke="#404040" d="M281.96,-457.87C273.5,-442.48 263.05,-422.87 254.5,-405 251.43,-398.59 248.35,-391.98 245.29,-385.28"/>
<polygon fill="none" stroke="#404040" points="245.11,-384.89 239,-381.07 240.17,-373.95 246.29,-377.77 245.11,-384.89"/>
<text text-anchor="middle" x="284.5" y="-426" font-family="Helvetica,sans-Serif" font-size="10.00"> +data</text>
</g>
<!-- Node5 -->
<g id="node5" class="node">
<title>Node5</title>
<g id="a_node5"><a xlink:title=" ">
<polygon fill="white" stroke="#bfbfbf" points="174.5,-585 174.5,-642 212.5,-642 212.5,-585 174.5,-585"/>
<text text-anchor="middle" x="193.5" y="-630" font-family="Helvetica,sans-Serif" font-size="10.00">char</text>
<polyline fill="none" stroke="#bfbfbf" points="174.5,-623 212.5,-623 "/>
<text text-anchor="middle" x="193.5" y="-611" font-family="Helvetica,sans-Serif" font-size="10.00"> </text>
<polyline fill="none" stroke="#bfbfbf" points="174.5,-604 212.5,-604 "/>
<text text-anchor="middle" x="193.5" y="-592" font-family="Helvetica,sans-Serif" font-size="10.00"> </text>
</a>
</g>
</g>
<!-- Node5&#45;&gt;Node2 -->
<g id="edge6" class="edge">
<title>Node5&#45;&gt;Node2</title>
<path fill="none" stroke="#404040" d="M193.5,-584.96C193.5,-548.37 193.5,-480.89 193.5,-416.99"/>
<polygon fill="none" stroke="#404040" points="193.5,-416.69 189.5,-410.69 193.5,-404.69 197.5,-410.69 193.5,-416.69"/>
<text text-anchor="middle" x="207.5" y="-484" font-family="Helvetica,sans-Serif" font-size="10.00"> +buf</text>
</g>
<!-- Node5&#45;&gt;Node4 -->
<g id="edge4" class="edge">
<title>Node5&#45;&gt;Node4</title>
<path fill="none" stroke="#404040" d="M212.58,-589.57C227.73,-571.36 249.22,-545.53 266.79,-524.41"/>
<polygon fill="none" stroke="#404040" points="266.88,-524.31 267.64,-517.14 274.55,-515.08 273.79,-522.25 266.88,-524.31"/>
<text text-anchor="middle" x="264" y="-547.5" font-family="Helvetica,sans-Serif" font-size="10.00"> +ptr</text>
</g>
<!-- Node6 -->
<g id="node6" class="node">
<title>Node6</title>
<g id="a_node6"><a xlink:title=" ">
<polygon fill="white" stroke="#bfbfbf" points="230.5,-579.5 230.5,-647.5 378.5,-647.5 378.5,-579.5 230.5,-579.5"/>
<text text-anchor="start" x="238.5" y="-635.5" font-family="Helvetica,sans-Serif" font-size="10.00">DOCTEST_CONFIG_STRING</text>
<text text-anchor="middle" x="304.5" y="-624.5" font-family="Helvetica,sans-Serif" font-size="10.00">_SIZE_TYPE</text>
<polyline fill="none" stroke="#bfbfbf" points="230.5,-617.5 378.5,-617.5 "/>
<text text-anchor="middle" x="304.5" y="-605.5" font-family="Helvetica,sans-Serif" font-size="10.00"> </text>
<polyline fill="none" stroke="#bfbfbf" points="230.5,-598.5 378.5,-598.5 "/>
<text text-anchor="middle" x="304.5" y="-586.5" font-family="Helvetica,sans-Serif" font-size="10.00"> </text>
</a>
</g>
</g>
<!-- Node6&#45;&gt;Node4 -->
<g id="edge5" class="edge">
<title>Node6&#45;&gt;Node4</title>
<path fill="none" stroke="#404040" d="M302.64,-579.33C301.75,-563.42 300.68,-544.24 299.74,-527.52"/>
<polygon fill="none" stroke="#404040" points="299.73,-527.3 295.4,-521.54 299.06,-515.32 303.39,-521.09 299.73,-527.3"/>
<text text-anchor="middle" x="327" y="-553" font-family="Helvetica,sans-Serif" font-size="10.00"> +capacity</text>
<text text-anchor="middle" x="327" y="-542" font-family="Helvetica,sans-Serif" font-size="10.00">+size</text>
</g>
<!-- Node7 -->
<g id="node7" class="node">
<title>Node7</title>
<g id="a_node7"><a xlink:title=" ">
<polygon fill="white" stroke="#bfbfbf" points="263.5,-232 263.5,-289 301.5,-289 301.5,-232 263.5,-232"/>
<text text-anchor="middle" x="282.5" y="-277" font-family="Helvetica,sans-Serif" font-size="10.00">bool</text>
<polyline fill="none" stroke="#bfbfbf" points="263.5,-270 301.5,-270 "/>
<text text-anchor="middle" x="282.5" y="-258" font-family="Helvetica,sans-Serif" font-size="10.00"> </text>
<polyline fill="none" stroke="#bfbfbf" points="263.5,-251 301.5,-251 "/>
<text text-anchor="middle" x="282.5" y="-239" font-family="Helvetica,sans-Serif" font-size="10.00"> </text>
</a>
</g>
</g>
<!-- Node7&#45;&gt;Node1 -->
<g id="edge7" class="edge">
<title>Node7&#45;&gt;Node1</title>
<path fill="none" stroke="#404040" d="M281.46,-231.82C279.6,-197.33 274.48,-136.85 260.5,-87 259.87,-84.74 259.15,-82.45 258.37,-80.15"/>
<polygon fill="none" stroke="#404040" points="258.31,-79.99 252.44,-75.8 254.05,-68.77 259.92,-72.96 258.31,-79.99"/>
<text text-anchor="middle" x="293" y="-90" font-family="Helvetica,sans-Serif" font-size="10.00"> +m_passed</text>
</g>
</g>
</svg>
