<?xml version="1.0" encoding="UTF-8" standalone="no"?>
<!DOCTYPE svg PUBLIC "-//W3C//DTD SVG 1.1//EN"
 "http://www.w3.org/Graphics/SVG/1.1/DTD/svg11.dtd">
<!-- Generated by graphviz version 2.43.0 (0)
 -->
<!-- Title: doctest::detail::TestSuite Pages: 1 -->
<svg width="436pt" height="226pt"
 viewBox="0.00 0.00 436.00 226.00" xmlns="http://www.w3.org/2000/svg" xmlns:xlink="http://www.w3.org/1999/xlink">
<g id="graph0" class="graph" transform="scale(1 1) rotate(0) translate(4 222)">
<title>doctest::detail::TestSuite</title>
<polygon fill="white" stroke="transparent" points="-4,4 -4,-222 432,-222 432,4 -4,4"/>
<!-- Node1 -->
<g id="node1" class="node">
<title>Node1</title>
<g id="a_node1"><a xlink:title=" ">
<polygon fill="#bfbfbf" stroke="black" points="112.5,-0.5 112.5,-68.5 249.5,-68.5 249.5,-0.5 112.5,-0.5"/>
<text text-anchor="middle" x="181" y="-56.5" font-family="Helvetica,sans-Serif" font-size="10.00">doctest::detail::TestSuite</text>
<polyline fill="none" stroke="black" points="112.5,-49.5 249.5,-49.5 "/>
<text text-anchor="middle" x="181" y="-37.5" font-family="Helvetica,sans-Serif" font-size="10.00"> </text>
<polyline fill="none" stroke="black" points="112.5,-30.5 249.5,-30.5 "/>
<text text-anchor="start" x="120.5" y="-18.5" font-family="Helvetica,sans-Serif" font-size="10.00">+ operator*()</text>
<text text-anchor="start" x="120.5" y="-7.5" font-family="Helvetica,sans-Serif" font-size="10.00">+ operator*()</text>
</a>
</g>
</g>
<!-- Node2 -->
<g id="node2" class="node">
<title>Node2</title>
<g id="a_node2"><a xlink:title=" ">
<polygon fill="white" stroke="#bfbfbf" points="0,-160.5 0,-217.5 50,-217.5 50,-160.5 0,-160.5"/>
<text text-anchor="middle" x="25" y="-205.5" font-family="Helvetica,sans-Serif" font-size="10.00">double</text>
<polyline fill="none" stroke="#bfbfbf" points="0,-198.5 50,-198.5 "/>
<text text-anchor="middle" x="25" y="-186.5" font-family="Helvetica,sans-Serif" font-size="10.00"> </text>
<polyline fill="none" stroke="#bfbfbf" points="0,-179.5 50,-179.5 "/>
<text text-anchor="middle" x="25" y="-167.5" font-family="Helvetica,sans-Serif" font-size="10.00"> </text>
</a>
</g>
</g>
<!-- Node2&#45;&gt;Node1 -->
<g id="edge1" class="edge">
<title>Node2&#45;&gt;Node1</title>
<path fill="none" stroke="#404040" d="M20.58,-160.17C18.66,-138.04 19.81,-107.48 36,-87 51.88,-66.92 76.18,-54.66 100.38,-47.17"/>
<polygon fill="none" stroke="#404040" points="100.66,-47.09 105.36,-41.63 112.22,-43.87 107.51,-49.33 100.66,-47.09"/>
<text text-anchor="middle" x="68.5" y="-112" font-family="Helvetica,sans-Serif" font-size="10.00"> +m_timeout</text>
</g>
<!-- Node3 -->
<g id="node3" class="node">
<title>Node3</title>
<g id="a_node3"><a xlink:title=" ">
<polygon fill="white" stroke="#bfbfbf" points="98.5,-160.5 98.5,-217.5 127.5,-217.5 127.5,-160.5 98.5,-160.5"/>
<text text-anchor="middle" x="113" y="-205.5" font-family="Helvetica,sans-Serif" font-size="10.00">int</text>
<polyline fill="none" stroke="#bfbfbf" points="98.5,-198.5 127.5,-198.5 "/>
<text text-anchor="middle" x="113" y="-186.5" font-family="Helvetica,sans-Serif" font-size="10.00"> </text>
<polyline fill="none" stroke="#bfbfbf" points="98.5,-179.5 127.5,-179.5 "/>
<text text-anchor="middle" x="113" y="-167.5" font-family="Helvetica,sans-Serif" font-size="10.00"> </text>
</a>
</g>
</g>
<!-- Node3&#45;&gt;Node1 -->
<g id="edge2" class="edge">
<title>Node3&#45;&gt;Node1</title>
<path fill="none" stroke="#404040" d="M107,-160.33C103.84,-139.13 102.65,-109.75 114,-87 115.57,-83.86 117.42,-80.86 119.5,-78"/>
<polygon fill="none" stroke="#404040" points="119.56,-77.93 120.41,-70.77 127.34,-68.8 126.49,-75.96 119.56,-77.93"/>
<text text-anchor="middle" x="171" y="-112" font-family="Helvetica,sans-Serif" font-size="10.00"> +m_expected_failures</text>
</g>
<!-- Node4 -->
<g id="node4" class="node">
<title>Node4</title>
<g id="a_node4"><a xlink:title=" ">
<polygon fill="white" stroke="#bfbfbf" points="231,-160.5 231,-217.5 269,-217.5 269,-160.5 231,-160.5"/>
<text text-anchor="middle" x="250" y="-205.5" font-family="Helvetica,sans-Serif" font-size="10.00">bool</text>
<polyline fill="none" stroke="#bfbfbf" points="231,-198.5 269,-198.5 "/>
<text text-anchor="middle" x="250" y="-186.5" font-family="Helvetica,sans-Serif" font-size="10.00"> </text>
<polyline fill="none" stroke="#bfbfbf" points="231,-179.5 269,-179.5 "/>
<text text-anchor="middle" x="250" y="-167.5" font-family="Helvetica,sans-Serif" font-size="10.00"> </text>
</a>
</g>
</g>
<!-- Node4&#45;&gt;Node1 -->
<g id="edge3" class="edge">
<title>Node4&#45;&gt;Node1</title>
<path fill="none" stroke="#404040" d="M247.87,-160.1C245.34,-139.04 239.87,-109.96 228,-87 226.51,-84.13 224.83,-81.29 222.99,-78.52"/>
<polygon fill="none" stroke="#404040" points="222.95,-78.45 216.17,-75.99 215.84,-68.78 222.61,-71.25 222.95,-78.45"/>
<text text-anchor="middle" x="282.5" y="-134" font-family="Helvetica,sans-Serif" font-size="10.00"> +m_no_output</text>
<text text-anchor="middle" x="282.5" y="-123" font-family="Helvetica,sans-Serif" font-size="10.00">+m_should_fail</text>
<text text-anchor="middle" x="282.5" y="-112" font-family="Helvetica,sans-Serif" font-size="10.00">+m_may_fail</text>
<text text-anchor="middle" x="282.5" y="-101" font-family="Helvetica,sans-Serif" font-size="10.00">+m_no_breaks</text>
<text text-anchor="middle" x="282.5" y="-90" font-family="Helvetica,sans-Serif" font-size="10.00">+m_skip</text>
</g>
<!-- Node5 -->
<g id="node5" class="node">
<title>Node5</title>
<g id="a_node5"><a xlink:title=" ">
<polygon fill="white" stroke="#bfbfbf" points="312.5,-160.5 312.5,-217.5 387.5,-217.5 387.5,-160.5 312.5,-160.5"/>
<text text-anchor="middle" x="350" y="-205.5" font-family="Helvetica,sans-Serif" font-size="10.00">const char *</text>
<polyline fill="none" stroke="#bfbfbf" points="312.5,-198.5 387.5,-198.5 "/>
<text text-anchor="middle" x="350" y="-186.5" font-family="Helvetica,sans-Serif" font-size="10.00"> </text>
<polyline fill="none" stroke="#bfbfbf" points="312.5,-179.5 387.5,-179.5 "/>
<text text-anchor="middle" x="350" y="-167.5" font-family="Helvetica,sans-Serif" font-size="10.00"> </text>
</a>
</g>
</g>
<!-- Node5&#45;&gt;Node1 -->
<g id="edge4" class="edge">
<title>Node5&#45;&gt;Node1</title>
<path fill="none" stroke="#404040" d="M350.01,-160.28C348.56,-137.91 343.05,-106.97 325,-87 308.4,-68.63 284.79,-56.81 261.47,-49.21"/>
<polygon fill="none" stroke="#404040" points="261.22,-49.13 254.32,-51.25 249.72,-45.7 256.61,-43.59 261.22,-49.13"/>
<text text-anchor="middle" x="387.5" y="-117.5" font-family="Helvetica,sans-Serif" font-size="10.00"> +m_description</text>
<text text-anchor="middle" x="387.5" y="-106.5" font-family="Helvetica,sans-Serif" font-size="10.00">+m_test_suite</text>
</g>
</g>
</svg>
