<?xml version="1.0" encoding="UTF-8" standalone="no"?>
<!DOCTYPE svg PUBLIC "-//W3C//DTD SVG 1.1//EN"
 "http://www.w3.org/Graphics/SVG/1.1/DTD/svg11.dtd">
<!-- Generated by graphviz version 2.43.0 (0)
 -->
<!-- Title: doctest::ContextOptions Pages: 1 -->
<svg width="1101pt" height="1295pt"
 viewBox="0.00 0.00 1101.04 1295.00" xmlns="http://www.w3.org/2000/svg" xmlns:xlink="http://www.w3.org/1999/xlink">
<g id="graph0" class="graph" transform="scale(1 1) rotate(0) translate(4 1291)">
<title>doctest::ContextOptions</title>
<polygon fill="white" stroke="transparent" points="-4,4 -4,-1291 1097.04,-1291 1097.04,4 -4,4"/>
<!-- Node1 -->
<g id="node1" class="node">
<title>Node1</title>
<g id="a_node1"><a xlink:title="OCLINT too many fields.">
<polygon fill="#bfbfbf" stroke="black" points="147.54,-0.5 147.54,-233.5 282.54,-233.5 282.54,-0.5 147.54,-0.5"/>
<text text-anchor="middle" x="215.04" y="-221.5" font-family="Helvetica,sans-Serif" font-size="10.00">doctest::ContextOptions</text>
<polyline fill="none" stroke="black" points="147.54,-214.5 282.54,-214.5 "/>
<text text-anchor="start" x="155.54" y="-202.5" font-family="Helvetica,sans-Serif" font-size="10.00">+ success</text>
<text text-anchor="start" x="155.54" y="-191.5" font-family="Helvetica,sans-Serif" font-size="10.00">+ case_sensitive</text>
<text text-anchor="start" x="155.54" y="-180.5" font-family="Helvetica,sans-Serif" font-size="10.00">+ exit</text>
<text text-anchor="start" x="155.54" y="-169.5" font-family="Helvetica,sans-Serif" font-size="10.00">+ minimal</text>
<text text-anchor="start" x="155.54" y="-158.5" font-family="Helvetica,sans-Serif" font-size="10.00">+ no_throw</text>
<text text-anchor="start" x="155.54" y="-147.5" font-family="Helvetica,sans-Serif" font-size="10.00">+ no_exitcode</text>
<text text-anchor="start" x="155.54" y="-136.5" font-family="Helvetica,sans-Serif" font-size="10.00">+ no_run</text>
<text text-anchor="start" x="155.54" y="-125.5" font-family="Helvetica,sans-Serif" font-size="10.00">+ no_colors</text>
<text text-anchor="start" x="155.54" y="-114.5" font-family="Helvetica,sans-Serif" font-size="10.00">+ force_colors</text>
<text text-anchor="start" x="155.54" y="-103.5" font-family="Helvetica,sans-Serif" font-size="10.00">+ no_breaks</text>
<text text-anchor="start" x="155.54" y="-92.5" font-family="Helvetica,sans-Serif" font-size="10.00">+ no_skip</text>
<text text-anchor="start" x="155.54" y="-81.5" font-family="Helvetica,sans-Serif" font-size="10.00">+ gnu_file_line</text>
<text text-anchor="start" x="155.54" y="-70.5" font-family="Helvetica,sans-Serif" font-size="10.00">+ no_path_in_filenames</text>
<text text-anchor="start" x="155.54" y="-59.5" font-family="Helvetica,sans-Serif" font-size="10.00">+ no_line_numbers</text>
<text text-anchor="start" x="155.54" y="-48.5" font-family="Helvetica,sans-Serif" font-size="10.00">+ no_skipped_summary</text>
<text text-anchor="start" x="155.54" y="-37.5" font-family="Helvetica,sans-Serif" font-size="10.00">+ help</text>
<text text-anchor="start" x="155.54" y="-26.5" font-family="Helvetica,sans-Serif" font-size="10.00">+ list_test_suites</text>
<polyline fill="none" stroke="black" points="147.54,-19.5 282.54,-19.5 "/>
<text text-anchor="middle" x="215.04" y="-7.5" font-family="Helvetica,sans-Serif" font-size="10.00"> </text>
</a>
</g>
</g>
<!-- Node2 -->
<g id="node2" class="node">
<title>Node2</title>
<g id="a_node2"><a xlink:href="classdoctest_1_1String.html" target="_top" xlink:title=" ">
<polygon fill="white" stroke="black" points="763.54,-755.5 763.54,-1043.5 856.54,-1043.5 856.54,-755.5 763.54,-755.5"/>
<text text-anchor="middle" x="810.04" y="-1031.5" font-family="Helvetica,sans-Serif" font-size="10.00">doctest::String</text>
<polyline fill="none" stroke="black" points="763.54,-1024.5 856.54,-1024.5 "/>
<text text-anchor="middle" x="810.04" y="-1012.5" font-family="Helvetica,sans-Serif" font-size="10.00"> </text>
<polyline fill="none" stroke="black" points="763.54,-1005.5 856.54,-1005.5 "/>
<text text-anchor="start" x="771.54" y="-993.5" font-family="Helvetica,sans-Serif" font-size="10.00">+ String()</text>
<text text-anchor="start" x="771.54" y="-982.5" font-family="Helvetica,sans-Serif" font-size="10.00">+ ~String()</text>
<text text-anchor="start" x="771.54" y="-971.5" font-family="Helvetica,sans-Serif" font-size="10.00">+ String()</text>
<text text-anchor="start" x="771.54" y="-960.5" font-family="Helvetica,sans-Serif" font-size="10.00">+ String()</text>
<text text-anchor="start" x="771.54" y="-949.5" font-family="Helvetica,sans-Serif" font-size="10.00">+ String()</text>
<text text-anchor="start" x="771.54" y="-938.5" font-family="Helvetica,sans-Serif" font-size="10.00">+ String()</text>
<text text-anchor="start" x="771.54" y="-927.5" font-family="Helvetica,sans-Serif" font-size="10.00">+ operator=()</text>
<text text-anchor="start" x="771.54" y="-916.5" font-family="Helvetica,sans-Serif" font-size="10.00">+ operator+=()</text>
<text text-anchor="start" x="771.54" y="-905.5" font-family="Helvetica,sans-Serif" font-size="10.00">+ String()</text>
<text text-anchor="start" x="771.54" y="-894.5" font-family="Helvetica,sans-Serif" font-size="10.00">+ operator=()</text>
<text text-anchor="start" x="771.54" y="-883.5" font-family="Helvetica,sans-Serif" font-size="10.00">+ operator[]()</text>
<text text-anchor="start" x="771.54" y="-872.5" font-family="Helvetica,sans-Serif" font-size="10.00">+ operator[]()</text>
<text text-anchor="start" x="771.54" y="-861.5" font-family="Helvetica,sans-Serif" font-size="10.00">+ c_str()</text>
<text text-anchor="start" x="771.54" y="-850.5" font-family="Helvetica,sans-Serif" font-size="10.00">+ c_str()</text>
<text text-anchor="start" x="771.54" y="-839.5" font-family="Helvetica,sans-Serif" font-size="10.00">+ size()</text>
<text text-anchor="start" x="771.54" y="-828.5" font-family="Helvetica,sans-Serif" font-size="10.00">+ capacity()</text>
<text text-anchor="start" x="771.54" y="-817.5" font-family="Helvetica,sans-Serif" font-size="10.00">+ substr()</text>
<text text-anchor="start" x="771.54" y="-806.5" font-family="Helvetica,sans-Serif" font-size="10.00">+ substr()</text>
<text text-anchor="start" x="771.54" y="-795.5" font-family="Helvetica,sans-Serif" font-size="10.00">+ find()</text>
<text text-anchor="start" x="771.54" y="-784.5" font-family="Helvetica,sans-Serif" font-size="10.00">+ rfind()</text>
<text text-anchor="start" x="771.54" y="-773.5" font-family="Helvetica,sans-Serif" font-size="10.00">+ compare()</text>
<text text-anchor="start" x="771.54" y="-762.5" font-family="Helvetica,sans-Serif" font-size="10.00">+ compare()</text>
</a>
</g>
</g>
<!-- Node2&#45;&gt;Node1 -->
<g id="edge1" class="edge">
<title>Node2&#45;&gt;Node1</title>
<path fill="none" stroke="#404040" d="M856.62,-802.37C879.68,-740.68 896.7,-660.22 866.04,-595 751.34,-351.02 441.29,-204.33 294.34,-146.51"/>
<polygon fill="none" stroke="#404040" points="293.95,-146.36 286.91,-147.91 282.77,-142.01 289.81,-140.45 293.95,-146.36"/>
<text text-anchor="middle" x="893.04" y="-525" font-family="Helvetica,sans-Serif" font-size="10.00"> +binary_name</text>
<text text-anchor="middle" x="893.04" y="-514" font-family="Helvetica,sans-Serif" font-size="10.00">+order_by</text>
<text text-anchor="middle" x="893.04" y="-503" font-family="Helvetica,sans-Serif" font-size="10.00">+out</text>
</g>
<!-- Node9 -->
<g id="node9" class="node">
<title>Node9</title>
<g id="a_node9"><a xlink:href="structdoctest_1_1detail_1_1TestCase.html" target="_top" xlink:title=" ">
<polygon fill="white" stroke="black" points="315.54,-281.5 315.54,-437.5 478.54,-437.5 478.54,-281.5 315.54,-281.5"/>
<text text-anchor="middle" x="397.04" y="-425.5" font-family="Helvetica,sans-Serif" font-size="10.00">doctest::detail::TestCase</text>
<polyline fill="none" stroke="black" points="315.54,-418.5 478.54,-418.5 "/>
<text text-anchor="middle" x="397.04" y="-406.5" font-family="Helvetica,sans-Serif" font-size="10.00"> </text>
<polyline fill="none" stroke="black" points="315.54,-399.5 478.54,-399.5 "/>
<text text-anchor="start" x="323.54" y="-387.5" font-family="Helvetica,sans-Serif" font-size="10.00">+ TestCase()</text>
<text text-anchor="start" x="323.54" y="-376.5" font-family="Helvetica,sans-Serif" font-size="10.00">+ TestCase()</text>
<text text-anchor="start" x="323.54" y="-365.5" font-family="Helvetica,sans-Serif" font-size="10.00">+ TestCase()</text>
<text text-anchor="start" x="323.54" y="-354.5" font-family="Helvetica,sans-Serif" font-size="10.00">+ DOCTEST_MSVC_SUPPRESS</text>
<text text-anchor="start" x="323.54" y="-343.5" font-family="Helvetica,sans-Serif" font-size="10.00">_WARNING_WITH_PUSH()</text>
<text text-anchor="start" x="323.54" y="-332.5" font-family="Helvetica,sans-Serif" font-size="10.00">+ operator=()</text>
<text text-anchor="start" x="323.54" y="-321.5" font-family="Helvetica,sans-Serif" font-size="10.00">+ operator*()</text>
<text text-anchor="start" x="323.54" y="-310.5" font-family="Helvetica,sans-Serif" font-size="10.00">+ operator*()</text>
<text text-anchor="start" x="323.54" y="-299.5" font-family="Helvetica,sans-Serif" font-size="10.00">+ operator&lt;()</text>
<text text-anchor="start" x="323.54" y="-288.5" font-family="Helvetica,sans-Serif" font-size="10.00">+ ~TestCase()</text>
</a>
</g>
</g>
<!-- Node2&#45;&gt;Node9 -->
<g id="edge17" class="edge">
<title>Node2&#45;&gt;Node9</title>
<path fill="none" stroke="#404040" d="M818.18,-755.38C815.02,-729.93 808.62,-704.41 797.04,-682 730.09,-552.43 585.22,-457.11 489.44,-405.22"/>
<polygon fill="none" stroke="#404040" points="489.17,-405.07 482,-405.77 478.59,-399.41 485.77,-398.72 489.17,-405.07"/>
<text text-anchor="middle" x="824.04" y="-632.5" font-family="Helvetica,sans-Serif" font-size="10.00"> +m_full_name</text>
<text text-anchor="middle" x="824.04" y="-621.5" font-family="Helvetica,sans-Serif" font-size="10.00">+m_type</text>
</g>
<!-- Node10 -->
<g id="node10" class="node">
<title>Node10</title>
<g id="a_node10"><a xlink:href="structdoctest_1_1TestCaseData.html" target="_top" xlink:title=" ">
<polygon fill="white" stroke="black" points="499.54,-601 499.54,-658 624.54,-658 624.54,-601 499.54,-601"/>
<text text-anchor="middle" x="562.04" y="-646" font-family="Helvetica,sans-Serif" font-size="10.00">doctest::TestCaseData</text>
<polyline fill="none" stroke="black" points="499.54,-639 624.54,-639 "/>
<text text-anchor="middle" x="562.04" y="-627" font-family="Helvetica,sans-Serif" font-size="10.00"> </text>
<polyline fill="none" stroke="black" points="499.54,-620 624.54,-620 "/>
<text text-anchor="middle" x="562.04" y="-608" font-family="Helvetica,sans-Serif" font-size="10.00"> </text>
</a>
</g>
</g>
<!-- Node2&#45;&gt;Node10 -->
<g id="edge12" class="edge">
<title>Node2&#45;&gt;Node10</title>
<path fill="none" stroke="#404040" d="M763.43,-761.83C748.93,-720.76 735.74,-685.52 732.04,-682 706.34,-657.6 669.47,-644.73 636.63,-637.95"/>
<polygon fill="none" stroke="#404040" points="636.54,-637.94 629.9,-640.76 624.74,-635.72 631.38,-632.9 636.54,-637.94"/>
<text text-anchor="middle" x="774.04" y="-707" font-family="Helvetica,sans-Serif" font-size="10.00"> +m_file</text>
</g>
<!-- Node3 -->
<g id="node3" class="node">
<title>Node3</title>
<g id="a_node3"><a xlink:title=" ">
<polygon fill="white" stroke="#bfbfbf" points="615.54,-1091.5 615.54,-1159.5 772.54,-1159.5 772.54,-1091.5 615.54,-1091.5"/>
<text text-anchor="start" x="623.54" y="-1147.5" font-family="Helvetica,sans-Serif" font-size="10.00">static DOCTEST_CONSTEXPR</text>
<text text-anchor="middle" x="694.04" y="-1136.5" font-family="Helvetica,sans-Serif" font-size="10.00"> size_type</text>
<polyline fill="none" stroke="#bfbfbf" points="615.54,-1129.5 772.54,-1129.5 "/>
<text text-anchor="middle" x="694.04" y="-1117.5" font-family="Helvetica,sans-Serif" font-size="10.00"> </text>
<polyline fill="none" stroke="#bfbfbf" points="615.54,-1110.5 772.54,-1110.5 "/>
<text text-anchor="middle" x="694.04" y="-1098.5" font-family="Helvetica,sans-Serif" font-size="10.00"> </text>
</a>
</g>
</g>
<!-- Node3&#45;&gt;Node2 -->
<g id="edge2" class="edge">
<title>Node3&#45;&gt;Node2</title>
<path fill="none" stroke="#404040" d="M711.15,-1091.45C723.55,-1067.5 741.02,-1033.76 757.84,-1001.29"/>
<polygon fill="none" stroke="#404040" points="757.99,-1001 757.2,-993.83 763.51,-990.34 764.3,-997.51 757.99,-1001"/>
<text text-anchor="middle" x="743.54" y="-1065" font-family="Helvetica,sans-Serif" font-size="10.00"> +npos</text>
</g>
<!-- Node4 -->
<g id="node4" class="node">
<title>Node4</title>
<g id="a_node4"><a xlink:title="OCLINT avoid private static members.">
<polygon fill="white" stroke="#bfbfbf" points="855.04,-1097 855.04,-1154 971.04,-1154 971.04,-1097 855.04,-1097"/>
<text text-anchor="middle" x="913.04" y="-1142" font-family="Helvetica,sans-Serif" font-size="10.00">doctest::String::view</text>
<polyline fill="none" stroke="#bfbfbf" points="855.04,-1135 971.04,-1135 "/>
<text text-anchor="middle" x="913.04" y="-1123" font-family="Helvetica,sans-Serif" font-size="10.00"> </text>
<polyline fill="none" stroke="#bfbfbf" points="855.04,-1116 971.04,-1116 "/>
<text text-anchor="middle" x="913.04" y="-1104" font-family="Helvetica,sans-Serif" font-size="10.00"> </text>
</a>
</g>
</g>
<!-- Node4&#45;&gt;Node2 -->
<g id="edge3" class="edge">
<title>Node4&#45;&gt;Node2</title>
<path fill="none" stroke="#404040" d="M900.2,-1096.58C890.33,-1075.13 876.01,-1043.97 861.67,-1012.79"/>
<polygon fill="none" stroke="#404040" points="861.62,-1012.68 855.48,-1008.9 856.6,-1001.77 862.74,-1005.55 861.62,-1012.68"/>
<text text-anchor="middle" x="906.04" y="-1065" font-family="Helvetica,sans-Serif" font-size="10.00"> +data</text>
</g>
<!-- Node5 -->
<g id="node5" class="node">
<title>Node5</title>
<g id="a_node5"><a xlink:title=" ">
<polygon fill="white" stroke="#bfbfbf" points="790.04,-1224 790.04,-1281 828.04,-1281 828.04,-1224 790.04,-1224"/>
<text text-anchor="middle" x="809.04" y="-1269" font-family="Helvetica,sans-Serif" font-size="10.00">char</text>
<polyline fill="none" stroke="#bfbfbf" points="790.04,-1262 828.04,-1262 "/>
<text text-anchor="middle" x="809.04" y="-1250" font-family="Helvetica,sans-Serif" font-size="10.00"> </text>
<polyline fill="none" stroke="#bfbfbf" points="790.04,-1243 828.04,-1243 "/>
<text text-anchor="middle" x="809.04" y="-1231" font-family="Helvetica,sans-Serif" font-size="10.00"> </text>
</a>
</g>
</g>
<!-- Node5&#45;&gt;Node2 -->
<g id="edge6" class="edge">
<title>Node5&#45;&gt;Node2</title>
<path fill="none" stroke="#404040" d="M809.11,-1223.96C809.22,-1187.37 809.41,-1119.89 809.59,-1055.99"/>
<polygon fill="none" stroke="#404040" points="809.59,-1055.69 805.61,-1049.68 809.63,-1043.69 813.61,-1049.7 809.59,-1055.69"/>
<text text-anchor="middle" x="824.04" y="-1123" font-family="Helvetica,sans-Serif" font-size="10.00"> +buf</text>
</g>
<!-- Node5&#45;&gt;Node4 -->
<g id="edge4" class="edge">
<title>Node5&#45;&gt;Node4</title>
<path fill="none" stroke="#404040" d="M828.11,-1228.57C843.26,-1210.36 864.76,-1184.53 882.33,-1163.41"/>
<polygon fill="none" stroke="#404040" points="882.41,-1163.31 883.18,-1156.14 890.09,-1154.08 889.33,-1161.25 882.41,-1163.31"/>
<text text-anchor="middle" x="880.54" y="-1186.5" font-family="Helvetica,sans-Serif" font-size="10.00"> +ptr</text>
</g>
<!-- Node6 -->
<g id="node6" class="node">
<title>Node6</title>
<g id="a_node6"><a xlink:title=" ">
<polygon fill="white" stroke="#bfbfbf" points="846.04,-1218.5 846.04,-1286.5 994.04,-1286.5 994.04,-1218.5 846.04,-1218.5"/>
<text text-anchor="start" x="854.04" y="-1274.5" font-family="Helvetica,sans-Serif" font-size="10.00">DOCTEST_CONFIG_STRING</text>
<text text-anchor="middle" x="920.04" y="-1263.5" font-family="Helvetica,sans-Serif" font-size="10.00">_SIZE_TYPE</text>
<polyline fill="none" stroke="#bfbfbf" points="846.04,-1256.5 994.04,-1256.5 "/>
<text text-anchor="middle" x="920.04" y="-1244.5" font-family="Helvetica,sans-Serif" font-size="10.00"> </text>
<polyline fill="none" stroke="#bfbfbf" points="846.04,-1237.5 994.04,-1237.5 "/>
<text text-anchor="middle" x="920.04" y="-1225.5" font-family="Helvetica,sans-Serif" font-size="10.00"> </text>
</a>
</g>
</g>
<!-- Node6&#45;&gt;Node4 -->
<g id="edge5" class="edge">
<title>Node6&#45;&gt;Node4</title>
<path fill="none" stroke="#404040" d="M918.18,-1218.33C917.29,-1202.42 916.21,-1183.24 915.28,-1166.52"/>
<polygon fill="none" stroke="#404040" points="915.26,-1166.3 910.94,-1160.54 914.59,-1154.32 918.92,-1160.09 915.26,-1166.3"/>
<text text-anchor="middle" x="943.54" y="-1192" font-family="Helvetica,sans-Serif" font-size="10.00"> +capacity</text>
<text text-anchor="middle" x="943.54" y="-1181" font-family="Helvetica,sans-Serif" font-size="10.00">+size</text>
</g>
<!-- Node7 -->
<g id="node7" class="node">
<title>Node7</title>
<g id="a_node7"><a xlink:title=" ">
<polygon fill="white" stroke="#bfbfbf" points="377.54,-871 377.54,-928 406.54,-928 406.54,-871 377.54,-871"/>
<text text-anchor="middle" x="392.04" y="-916" font-family="Helvetica,sans-Serif" font-size="10.00">int</text>
<polyline fill="none" stroke="#bfbfbf" points="377.54,-909 406.54,-909 "/>
<text text-anchor="middle" x="392.04" y="-897" font-family="Helvetica,sans-Serif" font-size="10.00"> </text>
<polyline fill="none" stroke="#bfbfbf" points="377.54,-890 406.54,-890 "/>
<text text-anchor="middle" x="392.04" y="-878" font-family="Helvetica,sans-Serif" font-size="10.00"> </text>
</a>
</g>
</g>
<!-- Node7&#45;&gt;Node1 -->
<g id="edge7" class="edge">
<title>Node7&#45;&gt;Node1</title>
<path fill="none" stroke="#404040" d="M377.42,-874.31C357,-842.49 317,-786.88 269.04,-755 247.26,-740.53 228.76,-757.88 213.04,-737 184.33,-698.88 196.42,-415.7 206.51,-245.85"/>
<polygon fill="none" stroke="#404040" points="206.52,-245.8 202.88,-239.57 207.24,-233.82 210.87,-240.05 206.52,-245.8"/>
<text text-anchor="middle" x="254.04" y="-519.5" font-family="Helvetica,sans-Serif" font-size="10.00"> +subcase_filter_levels</text>
<text text-anchor="middle" x="254.04" y="-508.5" font-family="Helvetica,sans-Serif" font-size="10.00">+abort_after</text>
</g>
<!-- Node7&#45;&gt;Node9 -->
<g id="edge19" class="edge">
<title>Node7&#45;&gt;Node9</title>
<path fill="none" stroke="#404040" d="M392.29,-870.71C393.01,-793.56 395.05,-574.24 396.21,-449.72"/>
<polygon fill="none" stroke="#404040" points="396.21,-449.6 392.26,-443.56 396.32,-437.6 400.26,-443.64 396.21,-449.6"/>
<text text-anchor="middle" x="437.54" y="-627" font-family="Helvetica,sans-Serif" font-size="10.00"> +m_template_id</text>
</g>
<!-- Node7&#45;&gt;Node10 -->
<g id="edge13" class="edge">
<title>Node7&#45;&gt;Node10</title>
<path fill="none" stroke="#404040" d="M391.22,-870.79C391.37,-825.95 397.98,-736.96 444.04,-682 444.15,-681.86 464.49,-672.97 488.25,-662.61"/>
<polygon fill="none" stroke="#404040" points="488.35,-662.57 492.25,-656.5 499.35,-657.77 495.44,-663.84 488.35,-662.57"/>
<text text-anchor="middle" x="501.04" y="-707" font-family="Helvetica,sans-Serif" font-size="10.00"> +m_expected_failures</text>
</g>
<!-- Node8 -->
<g id="node8" class="node">
<title>Node8</title>
<g id="a_node8"><a xlink:title=" ">
<polygon fill="white" stroke="#bfbfbf" points="222.04,-871 222.04,-928 260.04,-928 260.04,-871 222.04,-871"/>
<text text-anchor="middle" x="241.04" y="-916" font-family="Helvetica,sans-Serif" font-size="10.00">bool</text>
<polyline fill="none" stroke="#bfbfbf" points="222.04,-909 260.04,-909 "/>
<text text-anchor="middle" x="241.04" y="-897" font-family="Helvetica,sans-Serif" font-size="10.00"> </text>
<polyline fill="none" stroke="#bfbfbf" points="222.04,-890 260.04,-890 "/>
<text text-anchor="middle" x="241.04" y="-878" font-family="Helvetica,sans-Serif" font-size="10.00"> </text>
</a>
</g>
</g>
<!-- Node8&#45;&gt;Node1 -->
<g id="edge8" class="edge">
<title>Node8&#45;&gt;Node1</title>
<path fill="none" stroke="#404040" d="M224.77,-870.82C186.31,-804.76 91.9,-638.84 77.04,-577 49.21,-461.23 95.6,-331.49 141.94,-239.55"/>
<polygon fill="none" stroke="#404040" points="141.97,-239.49 141.14,-232.33 147.44,-228.81 148.26,-235.98 141.97,-239.49"/>
<text text-anchor="middle" x="127.04" y="-569" font-family="Helvetica,sans-Serif" font-size="10.00"> +count</text>
<text text-anchor="middle" x="127.04" y="-558" font-family="Helvetica,sans-Serif" font-size="10.00">+no_time_in_output</text>
<text text-anchor="middle" x="127.04" y="-547" font-family="Helvetica,sans-Serif" font-size="10.00">+no_debug_output</text>
<text text-anchor="middle" x="127.04" y="-536" font-family="Helvetica,sans-Serif" font-size="10.00">+no_version</text>
<text text-anchor="middle" x="127.04" y="-525" font-family="Helvetica,sans-Serif" font-size="10.00">+duration</text>
<text text-anchor="middle" x="127.04" y="-514" font-family="Helvetica,sans-Serif" font-size="10.00">+list_reporters</text>
<text text-anchor="middle" x="127.04" y="-503" font-family="Helvetica,sans-Serif" font-size="10.00">+version</text>
<text text-anchor="middle" x="127.04" y="-492" font-family="Helvetica,sans-Serif" font-size="10.00">+list_test_cases</text>
<text text-anchor="middle" x="127.04" y="-481" font-family="Helvetica,sans-Serif" font-size="10.00">+no_intro</text>
<text text-anchor="middle" x="127.04" y="-470" font-family="Helvetica,sans-Serif" font-size="10.00">+quiet</text>
<text text-anchor="middle" x="127.04" y="-459" font-family="Helvetica,sans-Serif" font-size="10.00">...</text>
</g>
<!-- Node8&#45;&gt;Node10 -->
<g id="edge14" class="edge">
<title>Node8&#45;&gt;Node10</title>
<path fill="none" stroke="#404040" d="M244.14,-870.91C251.04,-823.73 272.27,-728.17 334.04,-682 361.1,-661.77 452.42,-672.83 485.04,-664 487.3,-663.39 489.59,-662.72 491.89,-662"/>
<polygon fill="none" stroke="#404040" points="492.03,-661.95 496.42,-656.23 503.39,-658.08 499,-663.8 492.03,-661.95"/>
<text text-anchor="middle" x="372.54" y="-729" font-family="Helvetica,sans-Serif" font-size="10.00"> +m_no_output</text>
<text text-anchor="middle" x="372.54" y="-718" font-family="Helvetica,sans-Serif" font-size="10.00">+m_should_fail</text>
<text text-anchor="middle" x="372.54" y="-707" font-family="Helvetica,sans-Serif" font-size="10.00">+m_may_fail</text>
<text text-anchor="middle" x="372.54" y="-696" font-family="Helvetica,sans-Serif" font-size="10.00">+m_no_breaks</text>
<text text-anchor="middle" x="372.54" y="-685" font-family="Helvetica,sans-Serif" font-size="10.00">+m_skip</text>
</g>
<!-- Node9&#45;&gt;Node1 -->
<g id="edge9" class="edge">
<title>Node9&#45;&gt;Node1</title>
<path fill="none" stroke="#404040" d="M338.7,-281.41C323.19,-260.92 306.22,-238.5 289.96,-217.01"/>
<polygon fill="none" stroke="#404040" points="289.79,-216.78 282.98,-214.41 282.55,-207.21 289.36,-209.58 289.79,-216.78"/>
<text text-anchor="middle" x="356.04" y="-255" font-family="Helvetica,sans-Serif" font-size="10.00"> +currentTest</text>
</g>
<!-- Node10&#45;&gt;Node9 -->
<g id="edge10" class="edge">
<title>Node10&#45;&gt;Node9</title>
<path fill="none" stroke="midnightblue" d="M539.45,-591.82C515.12,-552.29 475.69,-488.26 444.48,-437.57"/>
<polygon fill="none" stroke="midnightblue" points="536.78,-594.15 545,-600.83 542.74,-590.48 536.78,-594.15"/>
</g>
<!-- Node11 -->
<g id="node11" class="node">
<title>Node11</title>
<g id="a_node11"><a xlink:title=" ">
<polygon fill="white" stroke="#bfbfbf" points="537.04,-871 537.04,-928 587.04,-928 587.04,-871 537.04,-871"/>
<text text-anchor="middle" x="562.04" y="-916" font-family="Helvetica,sans-Serif" font-size="10.00">double</text>
<polyline fill="none" stroke="#bfbfbf" points="537.04,-909 587.04,-909 "/>
<text text-anchor="middle" x="562.04" y="-897" font-family="Helvetica,sans-Serif" font-size="10.00"> </text>
<polyline fill="none" stroke="#bfbfbf" points="537.04,-890 587.04,-890 "/>
<text text-anchor="middle" x="562.04" y="-878" font-family="Helvetica,sans-Serif" font-size="10.00"> </text>
</a>
</g>
</g>
<!-- Node11&#45;&gt;Node10 -->
<g id="edge11" class="edge">
<title>Node11&#45;&gt;Node10</title>
<path fill="none" stroke="#404040" d="M562.04,-870.83C562.04,-823.06 562.04,-724.98 562.04,-670.03"/>
<polygon fill="none" stroke="#404040" points="562.04,-670.02 558.04,-664.02 562.04,-658.02 566.04,-664.02 562.04,-670.02"/>
<text text-anchor="middle" x="594.54" y="-707" font-family="Helvetica,sans-Serif" font-size="10.00"> +m_timeout</text>
</g>
<!-- Node12 -->
<g id="node12" class="node">
<title>Node12</title>
<g id="a_node12"><a xlink:title=" ">
<polygon fill="white" stroke="#bfbfbf" points="612.54,-871 612.54,-928 687.54,-928 687.54,-871 612.54,-871"/>
<text text-anchor="middle" x="650.04" y="-916" font-family="Helvetica,sans-Serif" font-size="10.00">const char *</text>
<polyline fill="none" stroke="#bfbfbf" points="612.54,-909 687.54,-909 "/>
<text text-anchor="middle" x="650.04" y="-897" font-family="Helvetica,sans-Serif" font-size="10.00"> </text>
<polyline fill="none" stroke="#bfbfbf" points="612.54,-890 687.54,-890 "/>
<text text-anchor="middle" x="650.04" y="-878" font-family="Helvetica,sans-Serif" font-size="10.00"> </text>
</a>
</g>
</g>
<!-- Node12&#45;&gt;Node10 -->
<g id="edge15" class="edge">
<title>Node12&#45;&gt;Node10</title>
<path fill="none" stroke="#404040" d="M653.81,-870.84C658.33,-827.61 661.56,-742.68 628.04,-682 625,-676.5 621.1,-671.38 616.72,-666.68"/>
<polygon fill="none" stroke="#404040" points="616.48,-666.45 609.38,-665.2 607.8,-658.16 614.91,-659.42 616.48,-666.45"/>
<text text-anchor="middle" x="687.54" y="-718" font-family="Helvetica,sans-Serif" font-size="10.00"> +m_description</text>
<text text-anchor="middle" x="687.54" y="-707" font-family="Helvetica,sans-Serif" font-size="10.00">+m_test_suite</text>
<text text-anchor="middle" x="687.54" y="-696" font-family="Helvetica,sans-Serif" font-size="10.00">+m_name</text>
</g>
<!-- Node13 -->
<g id="node13" class="node">
<title>Node13</title>
<g id="a_node13"><a xlink:title=" ">
<polygon fill="white" stroke="#bfbfbf" points="82.54,-871 82.54,-928 143.54,-928 143.54,-871 82.54,-871"/>
<text text-anchor="middle" x="113.04" y="-916" font-family="Helvetica,sans-Serif" font-size="10.00">unsigned</text>
<polyline fill="none" stroke="#bfbfbf" points="82.54,-909 143.54,-909 "/>
<text text-anchor="middle" x="113.04" y="-897" font-family="Helvetica,sans-Serif" font-size="10.00"> </text>
<polyline fill="none" stroke="#bfbfbf" points="82.54,-890 143.54,-890 "/>
<text text-anchor="middle" x="113.04" y="-878" font-family="Helvetica,sans-Serif" font-size="10.00"> </text>
</a>
</g>
</g>
<!-- Node13&#45;&gt;Node1 -->
<g id="edge20" class="edge">
<title>Node13&#45;&gt;Node1</title>
<path fill="none" stroke="#404040" d="M98.05,-870.79C62.4,-801.46 -22.48,-614.69 6.04,-456 20.71,-374.34 28.41,-352.18 71.04,-281 89.78,-249.7 114.88,-218.81 138.88,-192.48"/>
<polygon fill="none" stroke="#404040" points="139.16,-192.18 140.3,-185.06 147.31,-183.37 146.17,-190.49 139.16,-192.18"/>
<text text-anchor="middle" x="35.54" y="-525" font-family="Helvetica,sans-Serif" font-size="10.00"> +first</text>
<text text-anchor="middle" x="35.54" y="-514" font-family="Helvetica,sans-Serif" font-size="10.00">+rand_seed</text>
<text text-anchor="middle" x="35.54" y="-503" font-family="Helvetica,sans-Serif" font-size="10.00">+last</text>
</g>
<!-- Node13&#45;&gt;Node10 -->
<g id="edge16" class="edge">
<title>Node13&#45;&gt;Node10</title>
<path fill="none" stroke="#404040" d="M120.21,-870.72C134.22,-822.79 170.12,-725.53 240.04,-682 286.38,-653.15 432.03,-677.07 485.04,-664 487.62,-663.36 490.23,-662.64 492.85,-661.86"/>
<polygon fill="none" stroke="#404040" points="492.93,-661.84 497.36,-656.15 504.32,-658.06 499.88,-663.74 492.93,-661.84"/>
<text text-anchor="middle" x="262.54" y="-707" font-family="Helvetica,sans-Serif" font-size="10.00"> +m_line</text>
</g>
<!-- Node14 -->
<g id="node14" class="node">
<title>Node14</title>
<g id="a_node14"><a xlink:title=" ">
<polygon fill="white" stroke="#bfbfbf" points="302.04,-601 302.04,-658 360.04,-658 360.04,-601 302.04,-601"/>
<text text-anchor="middle" x="331.04" y="-646" font-family="Helvetica,sans-Serif" font-size="10.00">void(*)()</text>
<polyline fill="none" stroke="#bfbfbf" points="302.04,-639 360.04,-639 "/>
<text text-anchor="middle" x="331.04" y="-627" font-family="Helvetica,sans-Serif" font-size="10.00"> </text>
<polyline fill="none" stroke="#bfbfbf" points="302.04,-620 360.04,-620 "/>
<text text-anchor="middle" x="331.04" y="-608" font-family="Helvetica,sans-Serif" font-size="10.00"> </text>
</a>
</g>
</g>
<!-- Node14&#45;&gt;Node9 -->
<g id="edge18" class="edge">
<title>Node14&#45;&gt;Node9</title>
<path fill="none" stroke="#404040" d="M327.66,-600.89C324.4,-566.2 321.91,-505.27 337.04,-456 337.78,-453.59 338.59,-451.18 339.48,-448.77"/>
<polygon fill="none" stroke="#404040" points="339.52,-448.68 338.1,-441.61 344.09,-437.59 345.5,-444.66 339.52,-448.68"/>
<text text-anchor="middle" x="360.04" y="-514" font-family="Helvetica,sans-Serif" font-size="10.00"> +m_test</text>
</g>
<!-- Node15 -->
<g id="node15" class="node">
<title>Node15</title>
<g id="a_node15"><a xlink:title="STL class.">
<polygon fill="white" stroke="#bfbfbf" points="956.04,-331 956.04,-388 1034.04,-388 1034.04,-331 956.04,-331"/>
<text text-anchor="middle" x="995.04" y="-376" font-family="Helvetica,sans-Serif" font-size="10.00">std::ostream</text>
<polyline fill="none" stroke="#bfbfbf" points="956.04,-369 1034.04,-369 "/>
<text text-anchor="middle" x="995.04" y="-357" font-family="Helvetica,sans-Serif" font-size="10.00"> </text>
<polyline fill="none" stroke="#bfbfbf" points="956.04,-350 1034.04,-350 "/>
<text text-anchor="middle" x="995.04" y="-338" font-family="Helvetica,sans-Serif" font-size="10.00"> </text>
</a>
</g>
</g>
<!-- Node15&#45;&gt;Node1 -->
<g id="edge21" class="edge">
<title>Node15&#45;&gt;Node1</title>
<path fill="none" stroke="#404040" d="M985.31,-330.75C975.18,-306.08 956.85,-271.06 929.04,-252 826.56,-181.78 459.01,-140.28 295.02,-124.88"/>
<polygon fill="none" stroke="#404040" points="294.57,-124.84 288.23,-128.27 282.62,-123.73 288.97,-120.3 294.57,-124.84"/>
<text text-anchor="middle" x="959.54" y="-255" font-family="Helvetica,sans-Serif" font-size="10.00"> +cout</text>
</g>
<!-- Node16 -->
<g id="node16" class="node">
<title>Node16</title>
<g id="a_node16"><a xlink:title="STL class.">
<polygon fill="white" stroke="#bfbfbf" points="956.54,-595.5 956.54,-663.5 1065.54,-663.5 1065.54,-595.5 956.54,-595.5"/>
<text text-anchor="start" x="964.54" y="-651.5" font-family="Helvetica,sans-Serif" font-size="10.00">std::basic_ostream</text>
<text text-anchor="middle" x="1011.04" y="-640.5" font-family="Helvetica,sans-Serif" font-size="10.00">&lt; char &gt;</text>
<polyline fill="none" stroke="#bfbfbf" points="956.54,-633.5 1065.54,-633.5 "/>
<text text-anchor="middle" x="1011.04" y="-621.5" font-family="Helvetica,sans-Serif" font-size="10.00"> </text>
<polyline fill="none" stroke="#bfbfbf" points="956.54,-614.5 1065.54,-614.5 "/>
<text text-anchor="middle" x="1011.04" y="-602.5" font-family="Helvetica,sans-Serif" font-size="10.00"> </text>
</a>
</g>
</g>
<!-- Node16&#45;&gt;Node15 -->
<g id="edge22" class="edge">
<title>Node16&#45;&gt;Node15</title>
<path fill="none" stroke="midnightblue" d="M1008.45,-585.14C1005.13,-529.62 999.48,-435 996.69,-388.28"/>
<polygon fill="none" stroke="midnightblue" points="1004.97,-585.6 1009.06,-595.37 1011.96,-585.18 1004.97,-585.6"/>
</g>
<!-- Node17 -->
<g id="node17" class="node">
<title>Node17</title>
<g id="a_node17"><a xlink:title="STL class.">
<polygon fill="white" stroke="#bfbfbf" points="965.04,-871 965.04,-928 1093.04,-928 1093.04,-871 965.04,-871"/>
<text text-anchor="middle" x="1029.04" y="-916" font-family="Helvetica,sans-Serif" font-size="10.00">std::basic_ios&lt; Char &gt;</text>
<polyline fill="none" stroke="#bfbfbf" points="965.04,-909 1093.04,-909 "/>
<text text-anchor="middle" x="1029.04" y="-897" font-family="Helvetica,sans-Serif" font-size="10.00"> </text>
<polyline fill="none" stroke="#bfbfbf" points="965.04,-890 1093.04,-890 "/>
<text text-anchor="middle" x="1029.04" y="-878" font-family="Helvetica,sans-Serif" font-size="10.00"> </text>
</a>
</g>
</g>
<!-- Node17&#45;&gt;Node16 -->
<g id="edge23" class="edge">
<title>Node17&#45;&gt;Node16</title>
<path fill="none" stroke="midnightblue" d="M1026.49,-860.59C1022.96,-808.03 1016.64,-713.87 1013.28,-663.85"/>
<polygon fill="none" stroke="midnightblue" points="1023.01,-861.09 1027.18,-870.83 1030,-860.62 1023.01,-861.09"/>
</g>
<!-- Node18 -->
<g id="node18" class="node">
<title>Node18</title>
<g id="a_node18"><a xlink:title="STL class.">
<polygon fill="white" stroke="#bfbfbf" points="989.04,-1097 989.04,-1154 1069.04,-1154 1069.04,-1097 989.04,-1097"/>
<text text-anchor="middle" x="1029.04" y="-1142" font-family="Helvetica,sans-Serif" font-size="10.00">std::ios_base</text>
<polyline fill="none" stroke="#bfbfbf" points="989.04,-1135 1069.04,-1135 "/>
<text text-anchor="middle" x="1029.04" y="-1123" font-family="Helvetica,sans-Serif" font-size="10.00"> </text>
<polyline fill="none" stroke="#bfbfbf" points="989.04,-1116 1069.04,-1116 "/>
<text text-anchor="middle" x="1029.04" y="-1104" font-family="Helvetica,sans-Serif" font-size="10.00"> </text>
</a>
</g>
</g>
<!-- Node18&#45;&gt;Node17 -->
<g id="edge24" class="edge">
<title>Node18&#45;&gt;Node17</title>
<path fill="none" stroke="midnightblue" d="M1029.04,-1086.36C1029.04,-1041.41 1029.04,-967.82 1029.04,-928.06"/>
<polygon fill="none" stroke="midnightblue" points="1025.54,-1086.58 1029.04,-1096.58 1032.54,-1086.58 1025.54,-1086.58"/>
</g>
</g>
</svg>
