<?xml version="1.0" encoding="UTF-8" standalone="no"?>
<!DOCTYPE svg PUBLIC "-//W3C//DTD SVG 1.1//EN"
 "http://www.w3.org/Graphics/SVG/1.1/DTD/svg11.dtd">
<!-- Generated by graphviz version 2.43.0 (0)
 -->
<!-- Title: doctest::StringMaker&lt; T &gt; Pages: 1 -->
<svg width="206pt" height="204pt"
 viewBox="0.00 0.00 206.00 204.00" xmlns="http://www.w3.org/2000/svg" xmlns:xlink="http://www.w3.org/1999/xlink">
<g id="graph0" class="graph" transform="scale(1 1) rotate(0) translate(4 200)">
<title>doctest::StringMaker&lt; T &gt;</title>
<polygon fill="white" stroke="transparent" points="-4,4 -4,-200 202,-200 202,4 -4,4"/>
<!-- Node1 -->
<g id="node1" class="node">
<title>Node1</title>
<g id="a_node1"><a xlink:title=" ">
<polygon fill="#bfbfbf" stroke="black" points="26,-0.5 26,-57.5 172,-57.5 172,-0.5 26,-0.5"/>
<text text-anchor="middle" x="99" y="-45.5" font-family="Helvetica,sans-Serif" font-size="10.00">doctest::StringMaker&lt; T &gt;</text>
<polyline fill="none" stroke="black" points="26,-38.5 172,-38.5 "/>
<text text-anchor="middle" x="99" y="-26.5" font-family="Helvetica,sans-Serif" font-size="10.00"> </text>
<polyline fill="none" stroke="black" points="26,-19.5 172,-19.5 "/>
<text text-anchor="middle" x="99" y="-7.5" font-family="Helvetica,sans-Serif" font-size="10.00"> </text>
</a>
</g>
</g>
<!-- Node2 -->
<g id="node2" class="node">
<title>Node2</title>
<g id="a_node2"><a xlink:href="structdoctest_1_1detail_1_1StringMakerBase.html" target="_top" xlink:title=" ">
<polygon fill="white" stroke="black" points="0,-94.5 0,-195.5 198,-195.5 198,-94.5 0,-94.5"/>
<text text-anchor="start" x="8" y="-183.5" font-family="Helvetica,sans-Serif" font-size="10.00">doctest::detail::StringMaker</text>
<text text-anchor="start" x="8" y="-172.5" font-family="Helvetica,sans-Serif" font-size="10.00">Base&lt; detail::has_insertion</text>
<text text-anchor="start" x="8" y="-161.5" font-family="Helvetica,sans-Serif" font-size="10.00">_operator&lt; T &gt;::value||detail</text>
<text text-anchor="start" x="8" y="-150.5" font-family="Helvetica,sans-Serif" font-size="10.00">::types::is_pointer&lt; T &gt;::value|</text>
<text text-anchor="middle" x="99" y="-139.5" font-family="Helvetica,sans-Serif" font-size="10.00">|detail::types::is_array&lt; T &gt;::value &gt;</text>
<polyline fill="none" stroke="black" points="0,-132.5 198,-132.5 "/>
<text text-anchor="middle" x="99" y="-120.5" font-family="Helvetica,sans-Serif" font-size="10.00"> </text>
<polyline fill="none" stroke="black" points="0,-113.5 198,-113.5 "/>
<text text-anchor="start" x="8" y="-101.5" font-family="Helvetica,sans-Serif" font-size="10.00">+ convert()</text>
</a>
</g>
</g>
<!-- Node2&#45;&gt;Node1 -->
<g id="edge1" class="edge">
<title>Node2&#45;&gt;Node1</title>
<path fill="none" stroke="midnightblue" d="M99,-84.23C99,-74.92 99,-65.71 99,-57.59"/>
<polygon fill="none" stroke="midnightblue" points="95.5,-84.33 99,-94.33 102.5,-84.33 95.5,-84.33"/>
</g>
</g>
</svg>
