<?xml version="1.0" encoding="UTF-8" standalone="no"?>
<!DOCTYPE svg PUBLIC "-//W3C//DTD SVG 1.1//EN"
 "http://www.w3.org/Graphics/SVG/1.1/DTD/svg11.dtd">
<!-- Generated by graphviz version 2.43.0 (0)
 -->
<!-- Title: doctest::SubcaseSignature Pages: 1 -->
<svg width="392pt" height="656pt"
 viewBox="0.00 0.00 391.84 656.00" xmlns="http://www.w3.org/2000/svg" xmlns:xlink="http://www.w3.org/1999/xlink">
<g id="graph0" class="graph" transform="scale(1 1) rotate(0) translate(4 652)">
<title>doctest::SubcaseSignature</title>
<polygon fill="white" stroke="transparent" points="-4,4 -4,-652 387.84,-652 387.84,4 -4,4"/>
<!-- Node1 -->
<g id="node1" class="node">
<title>Node1</title>
<g id="a_node1"><a xlink:title=" ">
<polygon fill="#bfbfbf" stroke="black" points="16.34,-0.5 16.34,-68.5 162.34,-68.5 162.34,-0.5 16.34,-0.5"/>
<text text-anchor="middle" x="89.34" y="-56.5" font-family="Helvetica,sans-Serif" font-size="10.00">doctest::SubcaseSignature</text>
<polyline fill="none" stroke="black" points="16.34,-49.5 162.34,-49.5 "/>
<text text-anchor="middle" x="89.34" y="-37.5" font-family="Helvetica,sans-Serif" font-size="10.00"> </text>
<polyline fill="none" stroke="black" points="16.34,-30.5 162.34,-30.5 "/>
<text text-anchor="start" x="24.34" y="-18.5" font-family="Helvetica,sans-Serif" font-size="10.00">+ operator==()</text>
<text text-anchor="start" x="24.34" y="-7.5" font-family="Helvetica,sans-Serif" font-size="10.00">+ operator&lt;()</text>
</a>
</g>
</g>
<!-- Node2 -->
<g id="node2" class="node">
<title>Node2</title>
<g id="a_node2"><a xlink:title=" ">
<polygon fill="white" stroke="#bfbfbf" points="23.34,-585 23.34,-642 61.34,-642 61.34,-585 23.34,-585"/>
<text text-anchor="middle" x="42.34" y="-630" font-family="Helvetica,sans-Serif" font-size="10.00">char</text>
<polyline fill="none" stroke="#bfbfbf" points="23.34,-623 61.34,-623 "/>
<text text-anchor="middle" x="42.34" y="-611" font-family="Helvetica,sans-Serif" font-size="10.00"> </text>
<polyline fill="none" stroke="#bfbfbf" points="23.34,-604 61.34,-604 "/>
<text text-anchor="middle" x="42.34" y="-592" font-family="Helvetica,sans-Serif" font-size="10.00"> </text>
</a>
</g>
</g>
<!-- Node2&#45;&gt;Node1 -->
<g id="edge1" class="edge">
<title>Node2&#45;&gt;Node1</title>
<path fill="none" stroke="#404040" d="M36.02,-584.87C28.39,-549.95 15.99,-487.9 11.34,-434 -0.82,-292.82 -12.52,-249.73 34.34,-116 38.89,-103.04 46.08,-90.2 53.78,-78.72"/>
<polygon fill="none" stroke="#404040" points="54.01,-78.39 54.21,-71.18 60.94,-68.59 60.74,-75.79 54.01,-78.39"/>
<text text-anchor="middle" x="32.34" y="-426" font-family="Helvetica,sans-Serif" font-size="10.00"> +m_file</text>
</g>
<!-- Node3 -->
<g id="node3" class="node">
<title>Node3</title>
<g id="a_node3"><a xlink:href="classdoctest_1_1String.html" target="_top" xlink:title=" ">
<polygon fill="white" stroke="black" points="42.84,-116.5 42.84,-404.5 135.84,-404.5 135.84,-116.5 42.84,-116.5"/>
<text text-anchor="middle" x="89.34" y="-392.5" font-family="Helvetica,sans-Serif" font-size="10.00">doctest::String</text>
<polyline fill="none" stroke="black" points="42.84,-385.5 135.84,-385.5 "/>
<text text-anchor="middle" x="89.34" y="-373.5" font-family="Helvetica,sans-Serif" font-size="10.00"> </text>
<polyline fill="none" stroke="black" points="42.84,-366.5 135.84,-366.5 "/>
<text text-anchor="start" x="50.84" y="-354.5" font-family="Helvetica,sans-Serif" font-size="10.00">+ String()</text>
<text text-anchor="start" x="50.84" y="-343.5" font-family="Helvetica,sans-Serif" font-size="10.00">+ ~String()</text>
<text text-anchor="start" x="50.84" y="-332.5" font-family="Helvetica,sans-Serif" font-size="10.00">+ String()</text>
<text text-anchor="start" x="50.84" y="-321.5" font-family="Helvetica,sans-Serif" font-size="10.00">+ String()</text>
<text text-anchor="start" x="50.84" y="-310.5" font-family="Helvetica,sans-Serif" font-size="10.00">+ String()</text>
<text text-anchor="start" x="50.84" y="-299.5" font-family="Helvetica,sans-Serif" font-size="10.00">+ String()</text>
<text text-anchor="start" x="50.84" y="-288.5" font-family="Helvetica,sans-Serif" font-size="10.00">+ operator=()</text>
<text text-anchor="start" x="50.84" y="-277.5" font-family="Helvetica,sans-Serif" font-size="10.00">+ operator+=()</text>
<text text-anchor="start" x="50.84" y="-266.5" font-family="Helvetica,sans-Serif" font-size="10.00">+ String()</text>
<text text-anchor="start" x="50.84" y="-255.5" font-family="Helvetica,sans-Serif" font-size="10.00">+ operator=()</text>
<text text-anchor="start" x="50.84" y="-244.5" font-family="Helvetica,sans-Serif" font-size="10.00">+ operator[]()</text>
<text text-anchor="start" x="50.84" y="-233.5" font-family="Helvetica,sans-Serif" font-size="10.00">+ operator[]()</text>
<text text-anchor="start" x="50.84" y="-222.5" font-family="Helvetica,sans-Serif" font-size="10.00">+ c_str()</text>
<text text-anchor="start" x="50.84" y="-211.5" font-family="Helvetica,sans-Serif" font-size="10.00">+ c_str()</text>
<text text-anchor="start" x="50.84" y="-200.5" font-family="Helvetica,sans-Serif" font-size="10.00">+ size()</text>
<text text-anchor="start" x="50.84" y="-189.5" font-family="Helvetica,sans-Serif" font-size="10.00">+ capacity()</text>
<text text-anchor="start" x="50.84" y="-178.5" font-family="Helvetica,sans-Serif" font-size="10.00">+ substr()</text>
<text text-anchor="start" x="50.84" y="-167.5" font-family="Helvetica,sans-Serif" font-size="10.00">+ substr()</text>
<text text-anchor="start" x="50.84" y="-156.5" font-family="Helvetica,sans-Serif" font-size="10.00">+ find()</text>
<text text-anchor="start" x="50.84" y="-145.5" font-family="Helvetica,sans-Serif" font-size="10.00">+ rfind()</text>
<text text-anchor="start" x="50.84" y="-134.5" font-family="Helvetica,sans-Serif" font-size="10.00">+ compare()</text>
<text text-anchor="start" x="50.84" y="-123.5" font-family="Helvetica,sans-Serif" font-size="10.00">+ compare()</text>
</a>
</g>
</g>
<!-- Node2&#45;&gt;Node3 -->
<g id="edge7" class="edge">
<title>Node2&#45;&gt;Node3</title>
<path fill="none" stroke="#404040" d="M43.78,-584.87C45.62,-552.82 49.33,-498.44 55.34,-452 56.84,-440.44 58.55,-428.52 60.4,-416.54"/>
<polygon fill="none" stroke="#404040" points="60.42,-416.41 57.4,-409.86 62.29,-404.56 65.31,-411.11 60.42,-416.41"/>
<text text-anchor="middle" x="69.34" y="-484" font-family="Helvetica,sans-Serif" font-size="10.00"> +buf</text>
</g>
<!-- Node5 -->
<g id="node5" class="node">
<title>Node5</title>
<g id="a_node5"><a xlink:title="OCLINT avoid private static members.">
<polygon fill="white" stroke="#bfbfbf" points="92.34,-458 92.34,-515 208.34,-515 208.34,-458 92.34,-458"/>
<text text-anchor="middle" x="150.34" y="-503" font-family="Helvetica,sans-Serif" font-size="10.00">doctest::String::view</text>
<polyline fill="none" stroke="#bfbfbf" points="92.34,-496 208.34,-496 "/>
<text text-anchor="middle" x="150.34" y="-484" font-family="Helvetica,sans-Serif" font-size="10.00"> </text>
<polyline fill="none" stroke="#bfbfbf" points="92.34,-477 208.34,-477 "/>
<text text-anchor="middle" x="150.34" y="-465" font-family="Helvetica,sans-Serif" font-size="10.00"> </text>
</a>
</g>
</g>
<!-- Node2&#45;&gt;Node5 -->
<g id="edge5" class="edge">
<title>Node2&#45;&gt;Node5</title>
<path fill="none" stroke="#404040" d="M61.56,-589.38C64.49,-585.89 67.49,-582.34 70.34,-579 85.7,-561.03 102.94,-541.27 117.47,-524.73"/>
<polygon fill="none" stroke="#404040" points="117.75,-524.4 118.71,-517.26 125.67,-515.39 124.71,-522.54 117.75,-524.4"/>
<text text-anchor="middle" x="114.84" y="-547.5" font-family="Helvetica,sans-Serif" font-size="10.00"> +ptr</text>
</g>
<!-- Node3&#45;&gt;Node1 -->
<g id="edge2" class="edge">
<title>Node3&#45;&gt;Node1</title>
<path fill="none" stroke="#404040" d="M89.34,-116.37C89.34,-103.67 89.34,-91.56 89.34,-80.75"/>
<polygon fill="none" stroke="#404040" points="89.34,-80.7 85.34,-74.7 89.34,-68.7 93.34,-74.7 89.34,-80.7"/>
<text text-anchor="middle" x="116.84" y="-90" font-family="Helvetica,sans-Serif" font-size="10.00"> +m_name</text>
</g>
<!-- Node4 -->
<g id="node4" class="node">
<title>Node4</title>
<g id="a_node4"><a xlink:title=" ">
<polygon fill="white" stroke="#bfbfbf" points="226.84,-452.5 226.84,-520.5 383.84,-520.5 383.84,-452.5 226.84,-452.5"/>
<text text-anchor="start" x="234.84" y="-508.5" font-family="Helvetica,sans-Serif" font-size="10.00">static DOCTEST_CONSTEXPR</text>
<text text-anchor="middle" x="305.34" y="-497.5" font-family="Helvetica,sans-Serif" font-size="10.00"> size_type</text>
<polyline fill="none" stroke="#bfbfbf" points="226.84,-490.5 383.84,-490.5 "/>
<text text-anchor="middle" x="305.34" y="-478.5" font-family="Helvetica,sans-Serif" font-size="10.00"> </text>
<polyline fill="none" stroke="#bfbfbf" points="226.84,-471.5 383.84,-471.5 "/>
<text text-anchor="middle" x="305.34" y="-459.5" font-family="Helvetica,sans-Serif" font-size="10.00"> </text>
</a>
</g>
</g>
<!-- Node4&#45;&gt;Node3 -->
<g id="edge3" class="edge">
<title>Node4&#45;&gt;Node3</title>
<path fill="none" stroke="#404040" d="M233.95,-452.48C194.57,-433.75 152.25,-412.59 145.34,-405 144.72,-404.31 144.1,-403.62 143.49,-402.92"/>
<polygon fill="none" stroke="#404040" points="143.39,-402.79 136.52,-400.6 135.91,-393.41 142.78,-395.61 143.39,-402.79"/>
<text text-anchor="middle" x="210.84" y="-426" font-family="Helvetica,sans-Serif" font-size="10.00"> +npos</text>
</g>
<!-- Node5&#45;&gt;Node3 -->
<g id="edge4" class="edge">
<title>Node5&#45;&gt;Node3</title>
<path fill="none" stroke="#404040" d="M142.74,-457.58C139.64,-446.18 135.79,-432.04 131.58,-416.61"/>
<polygon fill="none" stroke="#404040" points="131.46,-416.16 126.03,-411.42 128.31,-404.58 133.74,-409.32 131.46,-416.16"/>
<text text-anchor="middle" x="152.34" y="-426" font-family="Helvetica,sans-Serif" font-size="10.00"> +data</text>
</g>
<!-- Node6 -->
<g id="node6" class="node">
<title>Node6</title>
<g id="a_node6"><a xlink:title=" ">
<polygon fill="white" stroke="#bfbfbf" points="79.34,-579.5 79.34,-647.5 227.34,-647.5 227.34,-579.5 79.34,-579.5"/>
<text text-anchor="start" x="87.34" y="-635.5" font-family="Helvetica,sans-Serif" font-size="10.00">DOCTEST_CONFIG_STRING</text>
<text text-anchor="middle" x="153.34" y="-624.5" font-family="Helvetica,sans-Serif" font-size="10.00">_SIZE_TYPE</text>
<polyline fill="none" stroke="#bfbfbf" points="79.34,-617.5 227.34,-617.5 "/>
<text text-anchor="middle" x="153.34" y="-605.5" font-family="Helvetica,sans-Serif" font-size="10.00"> </text>
<polyline fill="none" stroke="#bfbfbf" points="79.34,-598.5 227.34,-598.5 "/>
<text text-anchor="middle" x="153.34" y="-586.5" font-family="Helvetica,sans-Serif" font-size="10.00"> </text>
</a>
</g>
</g>
<!-- Node6&#45;&gt;Node5 -->
<g id="edge6" class="edge">
<title>Node6&#45;&gt;Node5</title>
<path fill="none" stroke="#404040" d="M152.55,-579.33C152.17,-563.42 151.71,-544.24 151.3,-527.52"/>
<polygon fill="none" stroke="#404040" points="151.3,-527.32 147.16,-521.42 151.01,-515.32 155.15,-521.22 151.3,-527.32"/>
<text text-anchor="middle" x="177.84" y="-553" font-family="Helvetica,sans-Serif" font-size="10.00"> +capacity</text>
<text text-anchor="middle" x="177.84" y="-542" font-family="Helvetica,sans-Serif" font-size="10.00">+size</text>
</g>
<!-- Node7 -->
<g id="node7" class="node">
<title>Node7</title>
<g id="a_node7"><a xlink:title=" ">
<polygon fill="white" stroke="#bfbfbf" points="153.84,-232 153.84,-289 182.84,-289 182.84,-232 153.84,-232"/>
<text text-anchor="middle" x="168.34" y="-277" font-family="Helvetica,sans-Serif" font-size="10.00">int</text>
<polyline fill="none" stroke="#bfbfbf" points="153.84,-270 182.84,-270 "/>
<text text-anchor="middle" x="168.34" y="-258" font-family="Helvetica,sans-Serif" font-size="10.00"> </text>
<polyline fill="none" stroke="#bfbfbf" points="153.84,-251 182.84,-251 "/>
<text text-anchor="middle" x="168.34" y="-239" font-family="Helvetica,sans-Serif" font-size="10.00"> </text>
</a>
</g>
</g>
<!-- Node7&#45;&gt;Node1 -->
<g id="edge8" class="edge">
<title>Node7&#45;&gt;Node1</title>
<path fill="none" stroke="#404040" d="M170.52,-231.77C172.08,-196.16 170.6,-133.43 146.34,-87 144.72,-83.9 142.83,-80.89 140.75,-77.99"/>
<polygon fill="none" stroke="#404040" points="140.63,-77.84 133.73,-75.74 133.02,-68.56 139.92,-70.67 140.63,-77.84"/>
<text text-anchor="middle" x="172.84" y="-90" font-family="Helvetica,sans-Serif" font-size="10.00"> +m_line</text>
</g>
</g>
</svg>
