<?xml version="1.0" encoding="UTF-8" standalone="no"?>
<!DOCTYPE svg PUBLIC "-//W3C//DTD SVG 1.1//EN"
 "http://www.w3.org/Graphics/SVG/1.1/DTD/svg11.dtd">
<!-- Generated by graphviz version 2.43.0 (0)
 -->
<!-- Title: doctest::detail::types::is_rvalue_reference&lt; T &gt; Pages: 1 -->
<svg width="155pt" height="182pt"
 viewBox="0.00 0.00 155.00 182.00" xmlns="http://www.w3.org/2000/svg" xmlns:xlink="http://www.w3.org/1999/xlink">
<g id="graph0" class="graph" transform="scale(1 1) rotate(0) translate(4 178)">
<title>doctest::detail::types::is_rvalue_reference&lt; T &gt;</title>
<polygon fill="white" stroke="transparent" points="-4,4 -4,-178 151,-178 151,4 -4,4"/>
<!-- Node1 -->
<g id="node1" class="node">
<title>Node1</title>
<g id="a_node1"><a xlink:title=" ">
<polygon fill="#bfbfbf" stroke="black" points="0,-0.5 0,-68.5 147,-68.5 147,-0.5 0,-0.5"/>
<text text-anchor="start" x="8" y="-56.5" font-family="Helvetica,sans-Serif" font-size="10.00">doctest::detail::types</text>
<text text-anchor="middle" x="73.5" y="-45.5" font-family="Helvetica,sans-Serif" font-size="10.00">::is_rvalue_reference&lt; T &gt;</text>
<polyline fill="none" stroke="black" points="0,-38.5 147,-38.5 "/>
<text text-anchor="middle" x="73.5" y="-26.5" font-family="Helvetica,sans-Serif" font-size="10.00"> </text>
<polyline fill="none" stroke="black" points="0,-19.5 147,-19.5 "/>
<text text-anchor="middle" x="73.5" y="-7.5" font-family="Helvetica,sans-Serif" font-size="10.00"> </text>
</a>
</g>
</g>
<!-- Node2 -->
<g id="node2" class="node">
<title>Node2</title>
<g id="a_node2"><a xlink:href="structdoctest_1_1detail_1_1types_1_1false__type.html" target="_top" xlink:title=" ">
<polygon fill="white" stroke="black" points="14,-105.5 14,-173.5 133,-173.5 133,-105.5 14,-105.5"/>
<text text-anchor="start" x="22" y="-161.5" font-family="Helvetica,sans-Serif" font-size="10.00">doctest::detail::types</text>
<text text-anchor="middle" x="73.5" y="-150.5" font-family="Helvetica,sans-Serif" font-size="10.00">::false_type</text>
<polyline fill="none" stroke="black" points="14,-143.5 133,-143.5 "/>
<text text-anchor="start" x="22" y="-131.5" font-family="Helvetica,sans-Serif" font-size="10.00">+ value</text>
<polyline fill="none" stroke="black" points="14,-124.5 133,-124.5 "/>
<text text-anchor="middle" x="73.5" y="-112.5" font-family="Helvetica,sans-Serif" font-size="10.00"> </text>
</a>
</g>
</g>
<!-- Node2&#45;&gt;Node1 -->
<g id="edge1" class="edge">
<title>Node2&#45;&gt;Node1</title>
<path fill="none" stroke="midnightblue" d="M73.5,-95.14C73.5,-86.26 73.5,-77.04 73.5,-68.59"/>
<polygon fill="none" stroke="midnightblue" points="70,-95.34 73.5,-105.34 77,-95.34 70,-95.34"/>
</g>
</g>
</svg>
