<?xml version="1.0" encoding="UTF-8" standalone="no"?>
<!DOCTYPE svg PUBLIC "-//W3C//DTD SVG 1.1//EN"
 "http://www.w3.org/Graphics/SVG/1.1/DTD/svg11.dtd">
<!-- Generated by graphviz version 2.43.0 (0)
 -->
<!-- Title: doctest::TestCaseData Pages: 1 -->
<svg width="665pt" height="689pt"
 viewBox="0.00 0.00 664.50 689.00" xmlns="http://www.w3.org/2000/svg" xmlns:xlink="http://www.w3.org/1999/xlink">
<g id="graph0" class="graph" transform="scale(1 1) rotate(0) translate(4 685)">
<title>doctest::TestCaseData</title>
<polygon fill="white" stroke="transparent" points="-4,4 -4,-685 660.5,-685 660.5,4 -4,4"/>
<!-- Node1 -->
<g id="node1" class="node">
<title>Node1</title>
<g id="a_node1"><a xlink:title=" ">
<polygon fill="#bfbfbf" stroke="black" points="274,-0.5 274,-57.5 399,-57.5 399,-0.5 274,-0.5"/>
<text text-anchor="middle" x="336.5" y="-45.5" font-family="Helvetica,sans-Serif" font-size="10.00">doctest::TestCaseData</text>
<polyline fill="none" stroke="black" points="274,-38.5 399,-38.5 "/>
<text text-anchor="middle" x="336.5" y="-26.5" font-family="Helvetica,sans-Serif" font-size="10.00"> </text>
<polyline fill="none" stroke="black" points="274,-19.5 399,-19.5 "/>
<text text-anchor="middle" x="336.5" y="-7.5" font-family="Helvetica,sans-Serif" font-size="10.00"> </text>
</a>
</g>
</g>
<!-- Node2 -->
<g id="node2" class="node">
<title>Node2</title>
<g id="a_node2"><a xlink:title=" ">
<polygon fill="white" stroke="#bfbfbf" points="78.5,-265 78.5,-322 128.5,-322 128.5,-265 78.5,-265"/>
<text text-anchor="middle" x="103.5" y="-310" font-family="Helvetica,sans-Serif" font-size="10.00">double</text>
<polyline fill="none" stroke="#bfbfbf" points="78.5,-303 128.5,-303 "/>
<text text-anchor="middle" x="103.5" y="-291" font-family="Helvetica,sans-Serif" font-size="10.00"> </text>
<polyline fill="none" stroke="#bfbfbf" points="78.5,-284 128.5,-284 "/>
<text text-anchor="middle" x="103.5" y="-272" font-family="Helvetica,sans-Serif" font-size="10.00"> </text>
</a>
</g>
</g>
<!-- Node2&#45;&gt;Node1 -->
<g id="edge1" class="edge">
<title>Node2&#45;&gt;Node1</title>
<path fill="none" stroke="#404040" d="M95.3,-264.71C83.78,-219.35 68.94,-129.15 114.5,-76 133.47,-53.87 204.82,-41.95 261.58,-35.83"/>
<polygon fill="none" stroke="#404040" points="261.87,-35.8 267.43,-31.21 273.81,-34.57 268.25,-39.17 261.87,-35.8"/>
<text text-anchor="middle" x="147" y="-101" font-family="Helvetica,sans-Serif" font-size="10.00"> +m_timeout</text>
</g>
<!-- Node3 -->
<g id="node3" class="node">
<title>Node3</title>
<g id="a_node3"><a xlink:href="classdoctest_1_1String.html" target="_top" xlink:title=" ">
<polygon fill="white" stroke="black" points="147,-149.5 147,-437.5 240,-437.5 240,-149.5 147,-149.5"/>
<text text-anchor="middle" x="193.5" y="-425.5" font-family="Helvetica,sans-Serif" font-size="10.00">doctest::String</text>
<polyline fill="none" stroke="black" points="147,-418.5 240,-418.5 "/>
<text text-anchor="middle" x="193.5" y="-406.5" font-family="Helvetica,sans-Serif" font-size="10.00"> </text>
<polyline fill="none" stroke="black" points="147,-399.5 240,-399.5 "/>
<text text-anchor="start" x="155" y="-387.5" font-family="Helvetica,sans-Serif" font-size="10.00">+ String()</text>
<text text-anchor="start" x="155" y="-376.5" font-family="Helvetica,sans-Serif" font-size="10.00">+ ~String()</text>
<text text-anchor="start" x="155" y="-365.5" font-family="Helvetica,sans-Serif" font-size="10.00">+ String()</text>
<text text-anchor="start" x="155" y="-354.5" font-family="Helvetica,sans-Serif" font-size="10.00">+ String()</text>
<text text-anchor="start" x="155" y="-343.5" font-family="Helvetica,sans-Serif" font-size="10.00">+ String()</text>
<text text-anchor="start" x="155" y="-332.5" font-family="Helvetica,sans-Serif" font-size="10.00">+ String()</text>
<text text-anchor="start" x="155" y="-321.5" font-family="Helvetica,sans-Serif" font-size="10.00">+ operator=()</text>
<text text-anchor="start" x="155" y="-310.5" font-family="Helvetica,sans-Serif" font-size="10.00">+ operator+=()</text>
<text text-anchor="start" x="155" y="-299.5" font-family="Helvetica,sans-Serif" font-size="10.00">+ String()</text>
<text text-anchor="start" x="155" y="-288.5" font-family="Helvetica,sans-Serif" font-size="10.00">+ operator=()</text>
<text text-anchor="start" x="155" y="-277.5" font-family="Helvetica,sans-Serif" font-size="10.00">+ operator[]()</text>
<text text-anchor="start" x="155" y="-266.5" font-family="Helvetica,sans-Serif" font-size="10.00">+ operator[]()</text>
<text text-anchor="start" x="155" y="-255.5" font-family="Helvetica,sans-Serif" font-size="10.00">+ c_str()</text>
<text text-anchor="start" x="155" y="-244.5" font-family="Helvetica,sans-Serif" font-size="10.00">+ c_str()</text>
<text text-anchor="start" x="155" y="-233.5" font-family="Helvetica,sans-Serif" font-size="10.00">+ size()</text>
<text text-anchor="start" x="155" y="-222.5" font-family="Helvetica,sans-Serif" font-size="10.00">+ capacity()</text>
<text text-anchor="start" x="155" y="-211.5" font-family="Helvetica,sans-Serif" font-size="10.00">+ substr()</text>
<text text-anchor="start" x="155" y="-200.5" font-family="Helvetica,sans-Serif" font-size="10.00">+ substr()</text>
<text text-anchor="start" x="155" y="-189.5" font-family="Helvetica,sans-Serif" font-size="10.00">+ find()</text>
<text text-anchor="start" x="155" y="-178.5" font-family="Helvetica,sans-Serif" font-size="10.00">+ rfind()</text>
<text text-anchor="start" x="155" y="-167.5" font-family="Helvetica,sans-Serif" font-size="10.00">+ compare()</text>
<text text-anchor="start" x="155" y="-156.5" font-family="Helvetica,sans-Serif" font-size="10.00">+ compare()</text>
</a>
</g>
</g>
<!-- Node3&#45;&gt;Node1 -->
<g id="edge2" class="edge">
<title>Node3&#45;&gt;Node1</title>
<path fill="none" stroke="#404040" d="M178.97,-149.34C182.43,-122.97 190.59,-97.13 206.5,-76 219.93,-58.17 240.81,-47.22 261.95,-40.51"/>
<polygon fill="none" stroke="#404040" points="262.12,-40.47 266.81,-34.99 273.67,-37.21 268.98,-42.69 262.12,-40.47"/>
<text text-anchor="middle" x="227.5" y="-101" font-family="Helvetica,sans-Serif" font-size="10.00"> +m_file</text>
</g>
<!-- Node4 -->
<g id="node4" class="node">
<title>Node4</title>
<g id="a_node4"><a xlink:title=" ">
<polygon fill="white" stroke="#bfbfbf" points="0,-485.5 0,-553.5 157,-553.5 157,-485.5 0,-485.5"/>
<text text-anchor="start" x="8" y="-541.5" font-family="Helvetica,sans-Serif" font-size="10.00">static DOCTEST_CONSTEXPR</text>
<text text-anchor="middle" x="78.5" y="-530.5" font-family="Helvetica,sans-Serif" font-size="10.00"> size_type</text>
<polyline fill="none" stroke="#bfbfbf" points="0,-523.5 157,-523.5 "/>
<text text-anchor="middle" x="78.5" y="-511.5" font-family="Helvetica,sans-Serif" font-size="10.00"> </text>
<polyline fill="none" stroke="#bfbfbf" points="0,-504.5 157,-504.5 "/>
<text text-anchor="middle" x="78.5" y="-492.5" font-family="Helvetica,sans-Serif" font-size="10.00"> </text>
</a>
</g>
</g>
<!-- Node4&#45;&gt;Node3 -->
<g id="edge3" class="edge">
<title>Node4&#45;&gt;Node3</title>
<path fill="none" stroke="#404040" d="M105.82,-485.34C116.58,-471.29 128.49,-454.4 137.5,-438 138.81,-435.62 140.1,-433.2 141.38,-430.75"/>
<polygon fill="none" stroke="#404040" points="141.47,-430.57 140.59,-423.41 146.86,-419.85 147.74,-427.01 141.47,-430.57"/>
<text text-anchor="middle" x="144" y="-459" font-family="Helvetica,sans-Serif" font-size="10.00"> +npos</text>
</g>
<!-- Node5 -->
<g id="node5" class="node">
<title>Node5</title>
<g id="a_node5"><a xlink:title="OCLINT avoid private static members.">
<polygon fill="white" stroke="#bfbfbf" points="239.5,-491 239.5,-548 355.5,-548 355.5,-491 239.5,-491"/>
<text text-anchor="middle" x="297.5" y="-536" font-family="Helvetica,sans-Serif" font-size="10.00">doctest::String::view</text>
<polyline fill="none" stroke="#bfbfbf" points="239.5,-529 355.5,-529 "/>
<text text-anchor="middle" x="297.5" y="-517" font-family="Helvetica,sans-Serif" font-size="10.00"> </text>
<polyline fill="none" stroke="#bfbfbf" points="239.5,-510 355.5,-510 "/>
<text text-anchor="middle" x="297.5" y="-498" font-family="Helvetica,sans-Serif" font-size="10.00"> </text>
</a>
</g>
</g>
<!-- Node5&#45;&gt;Node3 -->
<g id="edge4" class="edge">
<title>Node5&#45;&gt;Node3</title>
<path fill="none" stroke="#404040" d="M279.45,-490.82C269.9,-475.58 258.36,-456.13 249.5,-438 248.06,-435.06 246.63,-432.07 245.22,-429.05"/>
<polygon fill="none" stroke="#404040" points="245.14,-428.89 239.01,-425.1 240.15,-417.98 246.28,-421.77 245.14,-428.89"/>
<text text-anchor="middle" x="280.5" y="-459" font-family="Helvetica,sans-Serif" font-size="10.00"> +data</text>
</g>
<!-- Node6 -->
<g id="node6" class="node">
<title>Node6</title>
<g id="a_node6"><a xlink:title=" ">
<polygon fill="white" stroke="#bfbfbf" points="174.5,-618 174.5,-675 212.5,-675 212.5,-618 174.5,-618"/>
<text text-anchor="middle" x="193.5" y="-663" font-family="Helvetica,sans-Serif" font-size="10.00">char</text>
<polyline fill="none" stroke="#bfbfbf" points="174.5,-656 212.5,-656 "/>
<text text-anchor="middle" x="193.5" y="-644" font-family="Helvetica,sans-Serif" font-size="10.00"> </text>
<polyline fill="none" stroke="#bfbfbf" points="174.5,-637 212.5,-637 "/>
<text text-anchor="middle" x="193.5" y="-625" font-family="Helvetica,sans-Serif" font-size="10.00"> </text>
</a>
</g>
</g>
<!-- Node6&#45;&gt;Node3 -->
<g id="edge7" class="edge">
<title>Node6&#45;&gt;Node3</title>
<path fill="none" stroke="#404040" d="M193.5,-617.96C193.5,-581.37 193.5,-513.89 193.5,-449.99"/>
<polygon fill="none" stroke="#404040" points="193.5,-449.69 189.5,-443.69 193.5,-437.69 197.5,-443.69 193.5,-449.69"/>
<text text-anchor="middle" x="207.5" y="-517" font-family="Helvetica,sans-Serif" font-size="10.00"> +buf</text>
</g>
<!-- Node6&#45;&gt;Node5 -->
<g id="edge5" class="edge">
<title>Node6&#45;&gt;Node5</title>
<path fill="none" stroke="#404040" d="M212.58,-622.57C227.73,-604.36 249.22,-578.53 266.79,-557.41"/>
<polygon fill="none" stroke="#404040" points="266.88,-557.31 267.64,-550.14 274.55,-548.08 273.79,-555.25 266.88,-557.31"/>
<text text-anchor="middle" x="264" y="-580.5" font-family="Helvetica,sans-Serif" font-size="10.00"> +ptr</text>
</g>
<!-- Node7 -->
<g id="node7" class="node">
<title>Node7</title>
<g id="a_node7"><a xlink:title=" ">
<polygon fill="white" stroke="#bfbfbf" points="230.5,-612.5 230.5,-680.5 378.5,-680.5 378.5,-612.5 230.5,-612.5"/>
<text text-anchor="start" x="238.5" y="-668.5" font-family="Helvetica,sans-Serif" font-size="10.00">DOCTEST_CONFIG_STRING</text>
<text text-anchor="middle" x="304.5" y="-657.5" font-family="Helvetica,sans-Serif" font-size="10.00">_SIZE_TYPE</text>
<polyline fill="none" stroke="#bfbfbf" points="230.5,-650.5 378.5,-650.5 "/>
<text text-anchor="middle" x="304.5" y="-638.5" font-family="Helvetica,sans-Serif" font-size="10.00"> </text>
<polyline fill="none" stroke="#bfbfbf" points="230.5,-631.5 378.5,-631.5 "/>
<text text-anchor="middle" x="304.5" y="-619.5" font-family="Helvetica,sans-Serif" font-size="10.00"> </text>
</a>
</g>
</g>
<!-- Node7&#45;&gt;Node5 -->
<g id="edge6" class="edge">
<title>Node7&#45;&gt;Node5</title>
<path fill="none" stroke="#404040" d="M302.64,-612.33C301.75,-596.42 300.68,-577.24 299.74,-560.52"/>
<polygon fill="none" stroke="#404040" points="299.73,-560.3 295.4,-554.54 299.06,-548.32 303.39,-554.09 299.73,-560.3"/>
<text text-anchor="middle" x="327" y="-586" font-family="Helvetica,sans-Serif" font-size="10.00"> +capacity</text>
<text text-anchor="middle" x="327" y="-575" font-family="Helvetica,sans-Serif" font-size="10.00">+size</text>
</g>
<!-- Node8 -->
<g id="node8" class="node">
<title>Node8</title>
<g id="a_node8"><a xlink:title=" ">
<polygon fill="white" stroke="#bfbfbf" points="258,-265 258,-322 287,-322 287,-265 258,-265"/>
<text text-anchor="middle" x="272.5" y="-310" font-family="Helvetica,sans-Serif" font-size="10.00">int</text>
<polyline fill="none" stroke="#bfbfbf" points="258,-303 287,-303 "/>
<text text-anchor="middle" x="272.5" y="-291" font-family="Helvetica,sans-Serif" font-size="10.00"> </text>
<polyline fill="none" stroke="#bfbfbf" points="258,-284 287,-284 "/>
<text text-anchor="middle" x="272.5" y="-272" font-family="Helvetica,sans-Serif" font-size="10.00"> </text>
</a>
</g>
</g>
<!-- Node8&#45;&gt;Node1 -->
<g id="edge8" class="edge">
<title>Node8&#45;&gt;Node1</title>
<path fill="none" stroke="#404040" d="M264.18,-264.93C252.84,-221.81 237.37,-137.04 269.5,-76 271.28,-72.61 273.44,-69.43 275.87,-66.44"/>
<polygon fill="none" stroke="#404040" points="276.12,-66.19 277.41,-59.09 284.46,-57.56 283.16,-64.65 276.12,-66.19"/>
<text text-anchor="middle" x="326.5" y="-101" font-family="Helvetica,sans-Serif" font-size="10.00"> +m_expected_failures</text>
</g>
<!-- Node9 -->
<g id="node9" class="node">
<title>Node9</title>
<g id="a_node9"><a xlink:title=" ">
<polygon fill="white" stroke="#bfbfbf" points="386.5,-265 386.5,-322 424.5,-322 424.5,-265 386.5,-265"/>
<text text-anchor="middle" x="405.5" y="-310" font-family="Helvetica,sans-Serif" font-size="10.00">bool</text>
<polyline fill="none" stroke="#bfbfbf" points="386.5,-303 424.5,-303 "/>
<text text-anchor="middle" x="405.5" y="-291" font-family="Helvetica,sans-Serif" font-size="10.00"> </text>
<polyline fill="none" stroke="#bfbfbf" points="386.5,-284 424.5,-284 "/>
<text text-anchor="middle" x="405.5" y="-272" font-family="Helvetica,sans-Serif" font-size="10.00"> </text>
</a>
</g>
</g>
<!-- Node9&#45;&gt;Node1 -->
<g id="edge9" class="edge">
<title>Node9&#45;&gt;Node1</title>
<path fill="none" stroke="#404040" d="M408.47,-264.92C411.85,-222.16 413.49,-138.29 383.5,-76 382.06,-73.02 380.35,-70.12 378.44,-67.33"/>
<polygon fill="none" stroke="#404040" points="378.26,-67.1 371.4,-64.89 370.81,-57.7 377.67,-59.92 378.26,-67.1"/>
<text text-anchor="middle" x="439" y="-123" font-family="Helvetica,sans-Serif" font-size="10.00"> +m_no_output</text>
<text text-anchor="middle" x="439" y="-112" font-family="Helvetica,sans-Serif" font-size="10.00">+m_should_fail</text>
<text text-anchor="middle" x="439" y="-101" font-family="Helvetica,sans-Serif" font-size="10.00">+m_may_fail</text>
<text text-anchor="middle" x="439" y="-90" font-family="Helvetica,sans-Serif" font-size="10.00">+m_no_breaks</text>
<text text-anchor="middle" x="439" y="-79" font-family="Helvetica,sans-Serif" font-size="10.00">+m_skip</text>
</g>
<!-- Node10 -->
<g id="node10" class="node">
<title>Node10</title>
<g id="a_node10"><a xlink:title=" ">
<polygon fill="white" stroke="#bfbfbf" points="468,-265 468,-322 543,-322 543,-265 468,-265"/>
<text text-anchor="middle" x="505.5" y="-310" font-family="Helvetica,sans-Serif" font-size="10.00">const char *</text>
<polyline fill="none" stroke="#bfbfbf" points="468,-303 543,-303 "/>
<text text-anchor="middle" x="505.5" y="-291" font-family="Helvetica,sans-Serif" font-size="10.00"> </text>
<polyline fill="none" stroke="#bfbfbf" points="468,-284 543,-284 "/>
<text text-anchor="middle" x="505.5" y="-272" font-family="Helvetica,sans-Serif" font-size="10.00"> </text>
</a>
</g>
</g>
<!-- Node10&#45;&gt;Node1 -->
<g id="edge10" class="edge">
<title>Node10&#45;&gt;Node1</title>
<path fill="none" stroke="#404040" d="M506.06,-264.74C506.53,-212.94 504.64,-104.21 481.5,-76 464.14,-54.84 437.08,-43.27 411.01,-37"/>
<polygon fill="none" stroke="#404040" points="410.88,-36.97 404.18,-39.64 399.14,-34.48 405.84,-31.81 410.88,-36.97"/>
<text text-anchor="middle" x="539" y="-112" font-family="Helvetica,sans-Serif" font-size="10.00"> +m_description</text>
<text text-anchor="middle" x="539" y="-101" font-family="Helvetica,sans-Serif" font-size="10.00">+m_test_suite</text>
<text text-anchor="middle" x="539" y="-90" font-family="Helvetica,sans-Serif" font-size="10.00">+m_name</text>
</g>
<!-- Node11 -->
<g id="node11" class="node">
<title>Node11</title>
<g id="a_node11"><a xlink:title=" ">
<polygon fill="white" stroke="#bfbfbf" points="579,-265 579,-322 640,-322 640,-265 579,-265"/>
<text text-anchor="middle" x="609.5" y="-310" font-family="Helvetica,sans-Serif" font-size="10.00">unsigned</text>
<polyline fill="none" stroke="#bfbfbf" points="579,-303 640,-303 "/>
<text text-anchor="middle" x="609.5" y="-291" font-family="Helvetica,sans-Serif" font-size="10.00"> </text>
<polyline fill="none" stroke="#bfbfbf" points="579,-284 640,-284 "/>
<text text-anchor="middle" x="609.5" y="-272" font-family="Helvetica,sans-Serif" font-size="10.00"> </text>
</a>
</g>
</g>
<!-- Node11&#45;&gt;Node1 -->
<g id="edge11" class="edge">
<title>Node11&#45;&gt;Node1</title>
<path fill="none" stroke="#404040" d="M615.47,-264.68C623.52,-218.87 631.79,-127.51 583.5,-76 560.45,-51.41 475.22,-39.75 411.28,-34.36"/>
<polygon fill="none" stroke="#404040" points="411.17,-34.35 404.87,-37.86 399.2,-33.4 405.5,-29.89 411.17,-34.35"/>
<text text-anchor="middle" x="634" y="-101" font-family="Helvetica,sans-Serif" font-size="10.00"> +m_line</text>
</g>
</g>
</svg>
