<?xml version="1.0" encoding="UTF-8" standalone="no"?>
<!DOCTYPE svg PUBLIC "-//W3C//DTD SVG 1.1//EN"
 "http://www.w3.org/Graphics/SVG/1.1/DTD/svg11.dtd">
<!-- Generated by graphviz version 2.43.0 (0)
 -->
<!-- Title: doctest::detail::ResultBuilder Pages: 1 -->
<svg width="1071pt" height="1021pt"
 viewBox="0.00 0.00 1071.00 1021.00" xmlns="http://www.w3.org/2000/svg" xmlns:xlink="http://www.w3.org/1999/xlink">
<g id="graph0" class="graph" transform="scale(1 1) rotate(0) translate(4 1017)">
<title>doctest::detail::ResultBuilder</title>
<polygon fill="white" stroke="transparent" points="-4,4 -4,-1017 1067,-1017 1067,4 -4,4"/>
<!-- Node1 -->
<g id="node1" class="node">
<title>Node1</title>
<g id="a_node1"><a xlink:title=" ">
<polygon fill="#bfbfbf" stroke="black" points="363,-0.5 363,-134.5 521,-134.5 521,-0.5 363,-0.5"/>
<text text-anchor="middle" x="442" y="-122.5" font-family="Helvetica,sans-Serif" font-size="10.00">doctest::detail::ResultBuilder</text>
<polyline fill="none" stroke="black" points="363,-115.5 521,-115.5 "/>
<text text-anchor="middle" x="442" y="-103.5" font-family="Helvetica,sans-Serif" font-size="10.00"> </text>
<polyline fill="none" stroke="black" points="363,-96.5 521,-96.5 "/>
<text text-anchor="start" x="371" y="-84.5" font-family="Helvetica,sans-Serif" font-size="10.00">+ ResultBuilder()</text>
<text text-anchor="start" x="371" y="-73.5" font-family="Helvetica,sans-Serif" font-size="10.00">+ ResultBuilder()</text>
<text text-anchor="start" x="371" y="-62.5" font-family="Helvetica,sans-Serif" font-size="10.00">+ setResult()</text>
<text text-anchor="start" x="371" y="-51.5" font-family="Helvetica,sans-Serif" font-size="10.00">+ binary_assert()</text>
<text text-anchor="start" x="371" y="-40.5" font-family="Helvetica,sans-Serif" font-size="10.00">+ unary_assert()</text>
<text text-anchor="start" x="371" y="-29.5" font-family="Helvetica,sans-Serif" font-size="10.00">+ translateException()</text>
<text text-anchor="start" x="371" y="-18.5" font-family="Helvetica,sans-Serif" font-size="10.00">+ log()</text>
<text text-anchor="start" x="371" y="-7.5" font-family="Helvetica,sans-Serif" font-size="10.00">+ react()</text>
</a>
</g>
</g>
<!-- Node2 -->
<g id="node2" class="node">
<title>Node2</title>
<g id="a_node2"><a xlink:href="structdoctest_1_1AssertData.html" target="_top" xlink:title=" ">
<polygon fill="white" stroke="black" points="385.5,-172.5 385.5,-229.5 498.5,-229.5 498.5,-172.5 385.5,-172.5"/>
<text text-anchor="middle" x="442" y="-217.5" font-family="Helvetica,sans-Serif" font-size="10.00">doctest::AssertData</text>
<polyline fill="none" stroke="black" points="385.5,-210.5 498.5,-210.5 "/>
<text text-anchor="middle" x="442" y="-198.5" font-family="Helvetica,sans-Serif" font-size="10.00"> </text>
<polyline fill="none" stroke="black" points="385.5,-191.5 498.5,-191.5 "/>
<text text-anchor="start" x="393.5" y="-179.5" font-family="Helvetica,sans-Serif" font-size="10.00">+ AssertData()</text>
</a>
</g>
</g>
<!-- Node2&#45;&gt;Node1 -->
<g id="edge1" class="edge">
<title>Node2&#45;&gt;Node1</title>
<path fill="none" stroke="midnightblue" d="M442,-162.33C442,-153.68 442,-144.23 442,-134.77"/>
<polygon fill="none" stroke="midnightblue" points="438.5,-162.43 442,-172.43 445.5,-162.43 438.5,-162.43"/>
</g>
<!-- Node3 -->
<g id="node3" class="node">
<title>Node3</title>
<g id="a_node3"><a xlink:href="structdoctest_1_1TestCaseData.html" target="_top" xlink:title=" ">
<polygon fill="white" stroke="black" points="379.5,-305 379.5,-362 504.5,-362 504.5,-305 379.5,-305"/>
<text text-anchor="middle" x="442" y="-350" font-family="Helvetica,sans-Serif" font-size="10.00">doctest::TestCaseData</text>
<polyline fill="none" stroke="black" points="379.5,-343 504.5,-343 "/>
<text text-anchor="middle" x="442" y="-331" font-family="Helvetica,sans-Serif" font-size="10.00"> </text>
<polyline fill="none" stroke="black" points="379.5,-324 504.5,-324 "/>
<text text-anchor="middle" x="442" y="-312" font-family="Helvetica,sans-Serif" font-size="10.00"> </text>
</a>
</g>
</g>
<!-- Node3&#45;&gt;Node2 -->
<g id="edge2" class="edge">
<title>Node3&#45;&gt;Node2</title>
<path fill="none" stroke="#404040" d="M442,-304.82C442,-286.48 442,-262.14 442,-241.74"/>
<polygon fill="none" stroke="#404040" points="442,-241.64 438,-235.64 442,-229.64 446,-235.64 442,-241.64"/>
<text text-anchor="middle" x="478.5" y="-251" font-family="Helvetica,sans-Serif" font-size="10.00"> +m_test_case</text>
</g>
<!-- Node4 -->
<g id="node4" class="node">
<title>Node4</title>
<g id="a_node4"><a xlink:title=" ">
<polygon fill="white" stroke="#bfbfbf" points="557,-597 557,-654 607,-654 607,-597 557,-597"/>
<text text-anchor="middle" x="582" y="-642" font-family="Helvetica,sans-Serif" font-size="10.00">double</text>
<polyline fill="none" stroke="#bfbfbf" points="557,-635 607,-635 "/>
<text text-anchor="middle" x="582" y="-623" font-family="Helvetica,sans-Serif" font-size="10.00"> </text>
<polyline fill="none" stroke="#bfbfbf" points="557,-616 607,-616 "/>
<text text-anchor="middle" x="582" y="-604" font-family="Helvetica,sans-Serif" font-size="10.00"> </text>
</a>
</g>
</g>
<!-- Node4&#45;&gt;Node3 -->
<g id="edge3" class="edge">
<title>Node4&#45;&gt;Node3</title>
<path fill="none" stroke="#404040" d="M584.83,-596.8C587.89,-553.14 588.1,-467.2 551,-408 541.21,-392.37 526.74,-379.29 511.52,-368.7"/>
<polygon fill="none" stroke="#404040" points="511.48,-368.68 504.27,-368.73 501.45,-362.1 508.66,-362.04 511.48,-368.68"/>
<text text-anchor="middle" x="607.5" y="-433" font-family="Helvetica,sans-Serif" font-size="10.00"> +m_timeout</text>
</g>
<!-- Node5 -->
<g id="node5" class="node">
<title>Node5</title>
<g id="a_node5"><a xlink:href="classdoctest_1_1String.html" target="_top" xlink:title=" ">
<polygon fill="white" stroke="black" points="121.5,-481.5 121.5,-769.5 214.5,-769.5 214.5,-481.5 121.5,-481.5"/>
<text text-anchor="middle" x="168" y="-757.5" font-family="Helvetica,sans-Serif" font-size="10.00">doctest::String</text>
<polyline fill="none" stroke="black" points="121.5,-750.5 214.5,-750.5 "/>
<text text-anchor="middle" x="168" y="-738.5" font-family="Helvetica,sans-Serif" font-size="10.00"> </text>
<polyline fill="none" stroke="black" points="121.5,-731.5 214.5,-731.5 "/>
<text text-anchor="start" x="129.5" y="-719.5" font-family="Helvetica,sans-Serif" font-size="10.00">+ String()</text>
<text text-anchor="start" x="129.5" y="-708.5" font-family="Helvetica,sans-Serif" font-size="10.00">+ ~String()</text>
<text text-anchor="start" x="129.5" y="-697.5" font-family="Helvetica,sans-Serif" font-size="10.00">+ String()</text>
<text text-anchor="start" x="129.5" y="-686.5" font-family="Helvetica,sans-Serif" font-size="10.00">+ String()</text>
<text text-anchor="start" x="129.5" y="-675.5" font-family="Helvetica,sans-Serif" font-size="10.00">+ String()</text>
<text text-anchor="start" x="129.5" y="-664.5" font-family="Helvetica,sans-Serif" font-size="10.00">+ String()</text>
<text text-anchor="start" x="129.5" y="-653.5" font-family="Helvetica,sans-Serif" font-size="10.00">+ operator=()</text>
<text text-anchor="start" x="129.5" y="-642.5" font-family="Helvetica,sans-Serif" font-size="10.00">+ operator+=()</text>
<text text-anchor="start" x="129.5" y="-631.5" font-family="Helvetica,sans-Serif" font-size="10.00">+ String()</text>
<text text-anchor="start" x="129.5" y="-620.5" font-family="Helvetica,sans-Serif" font-size="10.00">+ operator=()</text>
<text text-anchor="start" x="129.5" y="-609.5" font-family="Helvetica,sans-Serif" font-size="10.00">+ operator[]()</text>
<text text-anchor="start" x="129.5" y="-598.5" font-family="Helvetica,sans-Serif" font-size="10.00">+ operator[]()</text>
<text text-anchor="start" x="129.5" y="-587.5" font-family="Helvetica,sans-Serif" font-size="10.00">+ c_str()</text>
<text text-anchor="start" x="129.5" y="-576.5" font-family="Helvetica,sans-Serif" font-size="10.00">+ c_str()</text>
<text text-anchor="start" x="129.5" y="-565.5" font-family="Helvetica,sans-Serif" font-size="10.00">+ size()</text>
<text text-anchor="start" x="129.5" y="-554.5" font-family="Helvetica,sans-Serif" font-size="10.00">+ capacity()</text>
<text text-anchor="start" x="129.5" y="-543.5" font-family="Helvetica,sans-Serif" font-size="10.00">+ substr()</text>
<text text-anchor="start" x="129.5" y="-532.5" font-family="Helvetica,sans-Serif" font-size="10.00">+ substr()</text>
<text text-anchor="start" x="129.5" y="-521.5" font-family="Helvetica,sans-Serif" font-size="10.00">+ find()</text>
<text text-anchor="start" x="129.5" y="-510.5" font-family="Helvetica,sans-Serif" font-size="10.00">+ rfind()</text>
<text text-anchor="start" x="129.5" y="-499.5" font-family="Helvetica,sans-Serif" font-size="10.00">+ compare()</text>
<text text-anchor="start" x="129.5" y="-488.5" font-family="Helvetica,sans-Serif" font-size="10.00">+ compare()</text>
</a>
</g>
</g>
<!-- Node5&#45;&gt;Node2 -->
<g id="edge15" class="edge">
<title>Node5&#45;&gt;Node2</title>
<path fill="none" stroke="#404040" d="M134.87,-481.38C127.51,-412.83 132.5,-333.56 177,-277 201.23,-246.2 303.07,-224.1 373.2,-212.18"/>
<polygon fill="none" stroke="#404040" points="373.63,-212.11 378.89,-207.18 385.47,-210.14 380.2,-215.07 373.63,-212.11"/>
<text text-anchor="middle" x="214.5" y="-336.5" font-family="Helvetica,sans-Serif" font-size="10.00"> +m_exception</text>
<text text-anchor="middle" x="214.5" y="-325.5" font-family="Helvetica,sans-Serif" font-size="10.00">+m_decomp</text>
</g>
<!-- Node5&#45;&gt;Node3 -->
<g id="edge4" class="edge">
<title>Node5&#45;&gt;Node3</title>
<path fill="none" stroke="#404040" d="M168.33,-481.4C174.63,-454.25 185.87,-428.09 205,-408 230.42,-381.29 250.56,-400.2 286,-390 312.95,-382.24 342.02,-372.34 367.67,-363.05"/>
<polygon fill="none" stroke="#404040" points="367.93,-362.96 372.19,-357.14 379.2,-358.83 374.94,-364.65 367.93,-362.96"/>
<text text-anchor="middle" x="226" y="-433" font-family="Helvetica,sans-Serif" font-size="10.00"> +m_file</text>
</g>
<!-- Node6 -->
<g id="node6" class="node">
<title>Node6</title>
<g id="a_node6"><a xlink:title=" ">
<polygon fill="white" stroke="#bfbfbf" points="92.5,-817.5 92.5,-885.5 249.5,-885.5 249.5,-817.5 92.5,-817.5"/>
<text text-anchor="start" x="100.5" y="-873.5" font-family="Helvetica,sans-Serif" font-size="10.00">static DOCTEST_CONSTEXPR</text>
<text text-anchor="middle" x="171" y="-862.5" font-family="Helvetica,sans-Serif" font-size="10.00"> size_type</text>
<polyline fill="none" stroke="#bfbfbf" points="92.5,-855.5 249.5,-855.5 "/>
<text text-anchor="middle" x="171" y="-843.5" font-family="Helvetica,sans-Serif" font-size="10.00"> </text>
<polyline fill="none" stroke="#bfbfbf" points="92.5,-836.5 249.5,-836.5 "/>
<text text-anchor="middle" x="171" y="-824.5" font-family="Helvetica,sans-Serif" font-size="10.00"> </text>
</a>
</g>
</g>
<!-- Node6&#45;&gt;Node5 -->
<g id="edge5" class="edge">
<title>Node6&#45;&gt;Node5</title>
<path fill="none" stroke="#404040" d="M170.56,-817.45C170.42,-807.11 170.26,-794.94 170.08,-781.83"/>
<polygon fill="none" stroke="#404040" points="170.08,-781.56 166,-775.61 169.92,-769.56 174,-775.5 170.08,-781.56"/>
<text text-anchor="middle" x="188.5" y="-791" font-family="Helvetica,sans-Serif" font-size="10.00"> +npos</text>
</g>
<!-- Node7 -->
<g id="node7" class="node">
<title>Node7</title>
<g id="a_node7"><a xlink:title="OCLINT avoid private static members.">
<polygon fill="white" stroke="#bfbfbf" points="268,-823 268,-880 384,-880 384,-823 268,-823"/>
<text text-anchor="middle" x="326" y="-868" font-family="Helvetica,sans-Serif" font-size="10.00">doctest::String::view</text>
<polyline fill="none" stroke="#bfbfbf" points="268,-861 384,-861 "/>
<text text-anchor="middle" x="326" y="-849" font-family="Helvetica,sans-Serif" font-size="10.00"> </text>
<polyline fill="none" stroke="#bfbfbf" points="268,-842 384,-842 "/>
<text text-anchor="middle" x="326" y="-830" font-family="Helvetica,sans-Serif" font-size="10.00"> </text>
</a>
</g>
</g>
<!-- Node7&#45;&gt;Node5 -->
<g id="edge6" class="edge">
<title>Node7&#45;&gt;Node5</title>
<path fill="none" stroke="#404040" d="M280.28,-822.87C260.49,-809.04 238.38,-790.8 223,-770 222.45,-769.26 221.9,-768.51 221.36,-767.75"/>
<polygon fill="none" stroke="#404040" points="221.26,-767.6 214.6,-764.82 214.6,-757.61 221.26,-760.38 221.26,-767.6"/>
<text text-anchor="middle" x="267" y="-791" font-family="Helvetica,sans-Serif" font-size="10.00"> +data</text>
</g>
<!-- Node8 -->
<g id="node8" class="node">
<title>Node8</title>
<g id="a_node8"><a xlink:title=" ">
<polygon fill="white" stroke="#bfbfbf" points="27,-950 27,-1007 65,-1007 65,-950 27,-950"/>
<text text-anchor="middle" x="46" y="-995" font-family="Helvetica,sans-Serif" font-size="10.00">char</text>
<polyline fill="none" stroke="#bfbfbf" points="27,-988 65,-988 "/>
<text text-anchor="middle" x="46" y="-976" font-family="Helvetica,sans-Serif" font-size="10.00"> </text>
<polyline fill="none" stroke="#bfbfbf" points="27,-969 65,-969 "/>
<text text-anchor="middle" x="46" y="-957" font-family="Helvetica,sans-Serif" font-size="10.00"> </text>
</a>
</g>
</g>
<!-- Node8&#45;&gt;Node2 -->
<g id="edge14" class="edge">
<title>Node8&#45;&gt;Node2</title>
<path fill="none" stroke="#404040" d="M29.39,-949.77C16.22,-925.13 0,-887.65 0,-852.5 0,-852.5 0,-852.5 0,-332.5 0,-255.65 248.89,-220.65 373.14,-207.97"/>
<polygon fill="none" stroke="#404040" points="373.18,-207.96 378.75,-203.39 385.12,-206.77 379.55,-211.35 373.18,-207.96"/>
<text text-anchor="middle" x="49.5" y="-634" font-family="Helvetica,sans-Serif" font-size="10.00"> +m_expr</text>
<text text-anchor="middle" x="49.5" y="-623" font-family="Helvetica,sans-Serif" font-size="10.00">+m_exception_type</text>
<text text-anchor="middle" x="49.5" y="-612" font-family="Helvetica,sans-Serif" font-size="10.00">+m_file</text>
</g>
<!-- Node8&#45;&gt;Node5 -->
<g id="edge9" class="edge">
<title>Node8&#45;&gt;Node5</title>
<path fill="none" stroke="#404040" d="M41.73,-949.96C37.86,-916.81 35.4,-860.2 55,-817 67.34,-789.81 85.88,-794.46 103,-770 107.32,-763.82 111.47,-757.31 115.42,-750.61"/>
<polygon fill="none" stroke="#404040" points="115.55,-750.38 115.04,-743.19 121.48,-739.95 122,-747.14 115.55,-750.38"/>
<text text-anchor="middle" x="69" y="-849" font-family="Helvetica,sans-Serif" font-size="10.00"> +buf</text>
</g>
<!-- Node8&#45;&gt;Node7 -->
<g id="edge7" class="edge">
<title>Node8&#45;&gt;Node7</title>
<path fill="none" stroke="#404040" d="M65.15,-969.62C102.49,-954.15 187.58,-918.52 258,-886 258.51,-885.77 259.02,-885.53 259.53,-885.29"/>
<polygon fill="none" stroke="#404040" points="259.59,-885.26 263.31,-879.09 270.44,-880.15 266.72,-886.33 259.59,-885.26"/>
<text text-anchor="middle" x="230.5" y="-912.5" font-family="Helvetica,sans-Serif" font-size="10.00"> +ptr</text>
</g>
<!-- Node9 -->
<g id="node9" class="node">
<title>Node9</title>
<g id="a_node9"><a xlink:title=" ">
<polygon fill="white" stroke="#bfbfbf" points="252,-944.5 252,-1012.5 400,-1012.5 400,-944.5 252,-944.5"/>
<text text-anchor="start" x="260" y="-1000.5" font-family="Helvetica,sans-Serif" font-size="10.00">DOCTEST_CONFIG_STRING</text>
<text text-anchor="middle" x="326" y="-989.5" font-family="Helvetica,sans-Serif" font-size="10.00">_SIZE_TYPE</text>
<polyline fill="none" stroke="#bfbfbf" points="252,-982.5 400,-982.5 "/>
<text text-anchor="middle" x="326" y="-970.5" font-family="Helvetica,sans-Serif" font-size="10.00"> </text>
<polyline fill="none" stroke="#bfbfbf" points="252,-963.5 400,-963.5 "/>
<text text-anchor="middle" x="326" y="-951.5" font-family="Helvetica,sans-Serif" font-size="10.00"> </text>
</a>
</g>
</g>
<!-- Node9&#45;&gt;Node7 -->
<g id="edge8" class="edge">
<title>Node9&#45;&gt;Node7</title>
<path fill="none" stroke="#404040" d="M326,-944.33C326,-928.42 326,-909.24 326,-892.52"/>
<polygon fill="none" stroke="#404040" points="326,-892.32 322,-886.32 326,-880.32 330,-886.32 326,-892.32"/>
<text text-anchor="middle" x="352.5" y="-918" font-family="Helvetica,sans-Serif" font-size="10.00"> +capacity</text>
<text text-anchor="middle" x="352.5" y="-907" font-family="Helvetica,sans-Serif" font-size="10.00">+size</text>
</g>
<!-- Node10 -->
<g id="node10" class="node">
<title>Node10</title>
<g id="a_node10"><a xlink:title=" ">
<polygon fill="white" stroke="#bfbfbf" points="342.5,-597 342.5,-654 371.5,-654 371.5,-597 342.5,-597"/>
<text text-anchor="middle" x="357" y="-642" font-family="Helvetica,sans-Serif" font-size="10.00">int</text>
<polyline fill="none" stroke="#bfbfbf" points="342.5,-635 371.5,-635 "/>
<text text-anchor="middle" x="357" y="-623" font-family="Helvetica,sans-Serif" font-size="10.00"> </text>
<polyline fill="none" stroke="#bfbfbf" points="342.5,-616 371.5,-616 "/>
<text text-anchor="middle" x="357" y="-604" font-family="Helvetica,sans-Serif" font-size="10.00"> </text>
</a>
</g>
</g>
<!-- Node10&#45;&gt;Node2 -->
<g id="edge17" class="edge">
<title>Node10&#45;&gt;Node2</title>
<path fill="none" stroke="#404040" d="M356.78,-596.73C355,-564.5 347.09,-511.84 316,-481 294.72,-459.89 269.15,-486.86 251,-463 236.2,-443.54 244.78,-431.64 251,-408 268,-343.33 279.05,-325.59 325,-277 339.9,-261.25 358.75,-247.31 376.95,-235.86"/>
<polygon fill="none" stroke="#404040" points="377.01,-235.82 380.05,-229.29 387.26,-229.58 384.22,-236.12 377.01,-235.82"/>
<text text-anchor="middle" x="347.5" y="-331" font-family="Helvetica,sans-Serif" font-size="10.00"> +m_line</text>
</g>
<!-- Node10&#45;&gt;Node3 -->
<g id="edge10" class="edge">
<title>Node10&#45;&gt;Node3</title>
<path fill="none" stroke="#404040" d="M352.92,-596.76C347.92,-554.13 343.2,-470.87 371,-408 377.05,-394.31 386.83,-381.66 397.22,-370.85"/>
<polygon fill="none" stroke="#404040" points="397.45,-370.62 398.93,-363.57 406.02,-362.22 404.53,-369.28 397.45,-370.62"/>
<text text-anchor="middle" x="428" y="-433" font-family="Helvetica,sans-Serif" font-size="10.00"> +m_expected_failures</text>
</g>
<!-- Node11 -->
<g id="node11" class="node">
<title>Node11</title>
<g id="a_node11"><a xlink:title=" ">
<polygon fill="white" stroke="#bfbfbf" points="694,-597 694,-654 732,-654 732,-597 694,-597"/>
<text text-anchor="middle" x="713" y="-642" font-family="Helvetica,sans-Serif" font-size="10.00">bool</text>
<polyline fill="none" stroke="#bfbfbf" points="694,-635 732,-635 "/>
<text text-anchor="middle" x="713" y="-623" font-family="Helvetica,sans-Serif" font-size="10.00"> </text>
<polyline fill="none" stroke="#bfbfbf" points="694,-616 732,-616 "/>
<text text-anchor="middle" x="713" y="-604" font-family="Helvetica,sans-Serif" font-size="10.00"> </text>
</a>
</g>
</g>
<!-- Node11&#45;&gt;Node2 -->
<g id="edge19" class="edge">
<title>Node11&#45;&gt;Node2</title>
<path fill="none" stroke="#404040" d="M727.12,-596.79C746.87,-553.85 776.95,-469.76 745,-408 696.52,-314.28 583.65,-255.53 510.19,-225.77"/>
<polygon fill="none" stroke="#404040" points="509.91,-225.66 502.86,-227.17 498.76,-221.24 505.81,-219.73 509.91,-225.66"/>
<text text-anchor="middle" x="768" y="-342" font-family="Helvetica,sans-Serif" font-size="10.00"> +m_failed</text>
<text text-anchor="middle" x="768" y="-331" font-family="Helvetica,sans-Serif" font-size="10.00">+m_threw_as</text>
<text text-anchor="middle" x="768" y="-320" font-family="Helvetica,sans-Serif" font-size="10.00">+m_threw</text>
</g>
<!-- Node11&#45;&gt;Node3 -->
<g id="edge11" class="edge">
<title>Node11&#45;&gt;Node3</title>
<path fill="none" stroke="#404040" d="M705.61,-596.69C690.72,-541.44 657.39,-421.94 644,-408 610.45,-373.06 558.99,-354.66 516.41,-345"/>
<polygon fill="none" stroke="#404040" points="516.4,-345 509.7,-347.67 504.66,-342.51 511.36,-339.84 516.4,-345"/>
<text text-anchor="middle" x="705.5" y="-455" font-family="Helvetica,sans-Serif" font-size="10.00"> +m_no_output</text>
<text text-anchor="middle" x="705.5" y="-444" font-family="Helvetica,sans-Serif" font-size="10.00">+m_should_fail</text>
<text text-anchor="middle" x="705.5" y="-433" font-family="Helvetica,sans-Serif" font-size="10.00">+m_may_fail</text>
<text text-anchor="middle" x="705.5" y="-422" font-family="Helvetica,sans-Serif" font-size="10.00">+m_no_breaks</text>
<text text-anchor="middle" x="705.5" y="-411" font-family="Helvetica,sans-Serif" font-size="10.00">+m_skip</text>
</g>
<!-- Node12 -->
<g id="node12" class="node">
<title>Node12</title>
<g id="a_node12"><a xlink:title=" ">
<polygon fill="white" stroke="#bfbfbf" points="232.5,-597 232.5,-654 307.5,-654 307.5,-597 232.5,-597"/>
<text text-anchor="middle" x="270" y="-642" font-family="Helvetica,sans-Serif" font-size="10.00">const char *</text>
<polyline fill="none" stroke="#bfbfbf" points="232.5,-635 307.5,-635 "/>
<text text-anchor="middle" x="270" y="-623" font-family="Helvetica,sans-Serif" font-size="10.00"> </text>
<polyline fill="none" stroke="#bfbfbf" points="232.5,-616 307.5,-616 "/>
<text text-anchor="middle" x="270" y="-604" font-family="Helvetica,sans-Serif" font-size="10.00"> </text>
</a>
</g>
</g>
<!-- Node12&#45;&gt;Node3 -->
<g id="edge12" class="edge">
<title>Node12&#45;&gt;Node3</title>
<path fill="none" stroke="#404040" d="M261.23,-596.8C249.1,-552.75 232.72,-465.83 271,-408 292.55,-375.44 331.86,-357.24 367.36,-347.1"/>
<polygon fill="none" stroke="#404040" points="367.62,-347.03 372.39,-341.63 379.22,-343.96 374.44,-349.36 367.62,-347.03"/>
<text text-anchor="middle" x="311.5" y="-444" font-family="Helvetica,sans-Serif" font-size="10.00"> +m_description</text>
<text text-anchor="middle" x="311.5" y="-433" font-family="Helvetica,sans-Serif" font-size="10.00">+m_test_suite</text>
<text text-anchor="middle" x="311.5" y="-422" font-family="Helvetica,sans-Serif" font-size="10.00">+m_name</text>
</g>
<!-- Node13 -->
<g id="node13" class="node">
<title>Node13</title>
<g id="a_node13"><a xlink:title=" ">
<polygon fill="white" stroke="#bfbfbf" points="477.5,-597 477.5,-654 538.5,-654 538.5,-597 477.5,-597"/>
<text text-anchor="middle" x="508" y="-642" font-family="Helvetica,sans-Serif" font-size="10.00">unsigned</text>
<polyline fill="none" stroke="#bfbfbf" points="477.5,-635 538.5,-635 "/>
<text text-anchor="middle" x="508" y="-623" font-family="Helvetica,sans-Serif" font-size="10.00"> </text>
<polyline fill="none" stroke="#bfbfbf" points="477.5,-616 538.5,-616 "/>
<text text-anchor="middle" x="508" y="-604" font-family="Helvetica,sans-Serif" font-size="10.00"> </text>
</a>
</g>
</g>
<!-- Node13&#45;&gt;Node3 -->
<g id="edge13" class="edge">
<title>Node13&#45;&gt;Node3</title>
<path fill="none" stroke="#404040" d="M509.7,-596.98C511.4,-555.01 511.14,-473 489,-408 484.78,-395.61 478.06,-383.22 471,-372.23"/>
<polygon fill="none" stroke="#404040" points="470.92,-372.11 464.25,-369.38 464.2,-362.17 470.88,-364.9 470.92,-372.11"/>
<text text-anchor="middle" x="524.5" y="-433" font-family="Helvetica,sans-Serif" font-size="10.00"> +m_line</text>
</g>
<!-- Node14 -->
<g id="node14" class="node">
<title>Node14</title>
<g id="a_node14"><a xlink:href="classdoctest_1_1AssertData_1_1StringContains.html" target="_top" xlink:title=" ">
<polygon fill="white" stroke="black" points="845,-277.5 845,-389.5 993,-389.5 993,-277.5 845,-277.5"/>
<text text-anchor="start" x="853" y="-377.5" font-family="Helvetica,sans-Serif" font-size="10.00">doctest::AssertData</text>
<text text-anchor="middle" x="919" y="-366.5" font-family="Helvetica,sans-Serif" font-size="10.00">::StringContains</text>
<polyline fill="none" stroke="black" points="845,-359.5 993,-359.5 "/>
<text text-anchor="middle" x="919" y="-347.5" font-family="Helvetica,sans-Serif" font-size="10.00"> </text>
<polyline fill="none" stroke="black" points="845,-340.5 993,-340.5 "/>
<text text-anchor="start" x="853" y="-328.5" font-family="Helvetica,sans-Serif" font-size="10.00">+ StringContains()</text>
<text text-anchor="start" x="853" y="-317.5" font-family="Helvetica,sans-Serif" font-size="10.00">+ StringContains()</text>
<text text-anchor="start" x="853" y="-306.5" font-family="Helvetica,sans-Serif" font-size="10.00">+ check()</text>
<text text-anchor="start" x="853" y="-295.5" font-family="Helvetica,sans-Serif" font-size="10.00">+ operator const String &amp;()</text>
<text text-anchor="start" x="853" y="-284.5" font-family="Helvetica,sans-Serif" font-size="10.00">+ c_str()</text>
</a>
</g>
</g>
<!-- Node14&#45;&gt;Node2 -->
<g id="edge16" class="edge">
<title>Node14&#45;&gt;Node2</title>
<path fill="none" stroke="#404040" d="M844.7,-280.96C822.56,-268.01 797.61,-255.64 773,-248 684.97,-220.69 578.73,-209.56 510.78,-205.05"/>
<polygon fill="none" stroke="#404040" points="510.53,-205.03 504.29,-208.65 498.55,-204.28 504.79,-200.66 510.53,-205.03"/>
<text text-anchor="middle" x="852" y="-251" font-family="Helvetica,sans-Serif" font-size="10.00"> +m_exception_string</text>
</g>
<!-- Node15 -->
<g id="node15" class="node">
<title>Node15</title>
<g id="a_node15"><a xlink:title=" ">
<polygon fill="white" stroke="#bfbfbf" points="1019,-305 1019,-362 1063,-362 1063,-305 1019,-305"/>
<text text-anchor="middle" x="1041" y="-350" font-family="Helvetica,sans-Serif" font-size="10.00">Enum</text>
<polyline fill="none" stroke="#bfbfbf" points="1019,-343 1063,-343 "/>
<text text-anchor="middle" x="1041" y="-331" font-family="Helvetica,sans-Serif" font-size="10.00"> </text>
<polyline fill="none" stroke="#bfbfbf" points="1019,-324 1063,-324 "/>
<text text-anchor="middle" x="1041" y="-312" font-family="Helvetica,sans-Serif" font-size="10.00"> </text>
</a>
</g>
</g>
<!-- Node15&#45;&gt;Node2 -->
<g id="edge18" class="edge">
<title>Node15&#45;&gt;Node2</title>
<path fill="none" stroke="#404040" d="M1026.72,-304.97C1020.33,-294.95 1011.98,-284.3 1002,-277 967.4,-251.68 952,-256.59 910,-248 770.06,-219.39 602.8,-208.4 510.94,-204.31"/>
<polygon fill="none" stroke="#404040" points="510.74,-204.3 504.58,-208.04 498.75,-203.79 504.92,-200.05 510.74,-204.3"/>
<text text-anchor="middle" x="986.5" y="-251" font-family="Helvetica,sans-Serif" font-size="10.00"> +m_at</text>
</g>
</g>
</svg>
