<?xml version="1.0" encoding="UTF-8" standalone="no"?>
<!DOCTYPE svg PUBLIC "-//W3C//DTD SVG 1.1//EN"
 "http://www.w3.org/Graphics/SVG/1.1/DTD/svg11.dtd">
<!-- Generated by graphviz version 2.43.0 (0)
 -->
<!-- Title: doctest::AssertData Pages: 1 -->
<svg width="1071pt" height="849pt"
 viewBox="0.00 0.00 1071.00 849.00" xmlns="http://www.w3.org/2000/svg" xmlns:xlink="http://www.w3.org/1999/xlink">
<g id="graph0" class="graph" transform="scale(1 1) rotate(0) translate(4 845)">
<title>doctest::AssertData</title>
<polygon fill="white" stroke="transparent" points="-4,4 -4,-845 1067,-845 1067,4 -4,4"/>
<!-- Node1 -->
<g id="node1" class="node">
<title>Node1</title>
<g id="a_node1"><a xlink:title=" ">
<polygon fill="#bfbfbf" stroke="black" points="385.5,-0.5 385.5,-57.5 498.5,-57.5 498.5,-0.5 385.5,-0.5"/>
<text text-anchor="middle" x="442" y="-45.5" font-family="Helvetica,sans-Serif" font-size="10.00">doctest::AssertData</text>
<polyline fill="none" stroke="black" points="385.5,-38.5 498.5,-38.5 "/>
<text text-anchor="middle" x="442" y="-26.5" font-family="Helvetica,sans-Serif" font-size="10.00"> </text>
<polyline fill="none" stroke="black" points="385.5,-19.5 498.5,-19.5 "/>
<text text-anchor="start" x="393.5" y="-7.5" font-family="Helvetica,sans-Serif" font-size="10.00">+ AssertData()</text>
</a>
</g>
</g>
<!-- Node2 -->
<g id="node2" class="node">
<title>Node2</title>
<g id="a_node2"><a xlink:href="structdoctest_1_1TestCaseData.html" target="_top" xlink:title=" ">
<polygon fill="white" stroke="black" points="379.5,-133 379.5,-190 504.5,-190 504.5,-133 379.5,-133"/>
<text text-anchor="middle" x="442" y="-178" font-family="Helvetica,sans-Serif" font-size="10.00">doctest::TestCaseData</text>
<polyline fill="none" stroke="black" points="379.5,-171 504.5,-171 "/>
<text text-anchor="middle" x="442" y="-159" font-family="Helvetica,sans-Serif" font-size="10.00"> </text>
<polyline fill="none" stroke="black" points="379.5,-152 504.5,-152 "/>
<text text-anchor="middle" x="442" y="-140" font-family="Helvetica,sans-Serif" font-size="10.00"> </text>
</a>
</g>
</g>
<!-- Node2&#45;&gt;Node1 -->
<g id="edge1" class="edge">
<title>Node2&#45;&gt;Node1</title>
<path fill="none" stroke="#404040" d="M442,-132.82C442,-114.48 442,-90.14 442,-69.74"/>
<polygon fill="none" stroke="#404040" points="442,-69.64 438,-63.64 442,-57.64 446,-63.64 442,-69.64"/>
<text text-anchor="middle" x="478.5" y="-79" font-family="Helvetica,sans-Serif" font-size="10.00"> +m_test_case</text>
</g>
<!-- Node3 -->
<g id="node3" class="node">
<title>Node3</title>
<g id="a_node3"><a xlink:title=" ">
<polygon fill="white" stroke="#bfbfbf" points="557,-425 557,-482 607,-482 607,-425 557,-425"/>
<text text-anchor="middle" x="582" y="-470" font-family="Helvetica,sans-Serif" font-size="10.00">double</text>
<polyline fill="none" stroke="#bfbfbf" points="557,-463 607,-463 "/>
<text text-anchor="middle" x="582" y="-451" font-family="Helvetica,sans-Serif" font-size="10.00"> </text>
<polyline fill="none" stroke="#bfbfbf" points="557,-444 607,-444 "/>
<text text-anchor="middle" x="582" y="-432" font-family="Helvetica,sans-Serif" font-size="10.00"> </text>
</a>
</g>
</g>
<!-- Node3&#45;&gt;Node2 -->
<g id="edge2" class="edge">
<title>Node3&#45;&gt;Node2</title>
<path fill="none" stroke="#404040" d="M584.83,-424.8C587.89,-381.14 588.1,-295.2 551,-236 541.21,-220.37 526.74,-207.29 511.52,-196.7"/>
<polygon fill="none" stroke="#404040" points="511.48,-196.68 504.27,-196.73 501.45,-190.1 508.66,-190.04 511.48,-196.68"/>
<text text-anchor="middle" x="607.5" y="-261" font-family="Helvetica,sans-Serif" font-size="10.00"> +m_timeout</text>
</g>
<!-- Node4 -->
<g id="node4" class="node">
<title>Node4</title>
<g id="a_node4"><a xlink:href="classdoctest_1_1String.html" target="_top" xlink:title=" ">
<polygon fill="white" stroke="black" points="121.5,-309.5 121.5,-597.5 214.5,-597.5 214.5,-309.5 121.5,-309.5"/>
<text text-anchor="middle" x="168" y="-585.5" font-family="Helvetica,sans-Serif" font-size="10.00">doctest::String</text>
<polyline fill="none" stroke="black" points="121.5,-578.5 214.5,-578.5 "/>
<text text-anchor="middle" x="168" y="-566.5" font-family="Helvetica,sans-Serif" font-size="10.00"> </text>
<polyline fill="none" stroke="black" points="121.5,-559.5 214.5,-559.5 "/>
<text text-anchor="start" x="129.5" y="-547.5" font-family="Helvetica,sans-Serif" font-size="10.00">+ String()</text>
<text text-anchor="start" x="129.5" y="-536.5" font-family="Helvetica,sans-Serif" font-size="10.00">+ ~String()</text>
<text text-anchor="start" x="129.5" y="-525.5" font-family="Helvetica,sans-Serif" font-size="10.00">+ String()</text>
<text text-anchor="start" x="129.5" y="-514.5" font-family="Helvetica,sans-Serif" font-size="10.00">+ String()</text>
<text text-anchor="start" x="129.5" y="-503.5" font-family="Helvetica,sans-Serif" font-size="10.00">+ String()</text>
<text text-anchor="start" x="129.5" y="-492.5" font-family="Helvetica,sans-Serif" font-size="10.00">+ String()</text>
<text text-anchor="start" x="129.5" y="-481.5" font-family="Helvetica,sans-Serif" font-size="10.00">+ operator=()</text>
<text text-anchor="start" x="129.5" y="-470.5" font-family="Helvetica,sans-Serif" font-size="10.00">+ operator+=()</text>
<text text-anchor="start" x="129.5" y="-459.5" font-family="Helvetica,sans-Serif" font-size="10.00">+ String()</text>
<text text-anchor="start" x="129.5" y="-448.5" font-family="Helvetica,sans-Serif" font-size="10.00">+ operator=()</text>
<text text-anchor="start" x="129.5" y="-437.5" font-family="Helvetica,sans-Serif" font-size="10.00">+ operator[]()</text>
<text text-anchor="start" x="129.5" y="-426.5" font-family="Helvetica,sans-Serif" font-size="10.00">+ operator[]()</text>
<text text-anchor="start" x="129.5" y="-415.5" font-family="Helvetica,sans-Serif" font-size="10.00">+ c_str()</text>
<text text-anchor="start" x="129.5" y="-404.5" font-family="Helvetica,sans-Serif" font-size="10.00">+ c_str()</text>
<text text-anchor="start" x="129.5" y="-393.5" font-family="Helvetica,sans-Serif" font-size="10.00">+ size()</text>
<text text-anchor="start" x="129.5" y="-382.5" font-family="Helvetica,sans-Serif" font-size="10.00">+ capacity()</text>
<text text-anchor="start" x="129.5" y="-371.5" font-family="Helvetica,sans-Serif" font-size="10.00">+ substr()</text>
<text text-anchor="start" x="129.5" y="-360.5" font-family="Helvetica,sans-Serif" font-size="10.00">+ substr()</text>
<text text-anchor="start" x="129.5" y="-349.5" font-family="Helvetica,sans-Serif" font-size="10.00">+ find()</text>
<text text-anchor="start" x="129.5" y="-338.5" font-family="Helvetica,sans-Serif" font-size="10.00">+ rfind()</text>
<text text-anchor="start" x="129.5" y="-327.5" font-family="Helvetica,sans-Serif" font-size="10.00">+ compare()</text>
<text text-anchor="start" x="129.5" y="-316.5" font-family="Helvetica,sans-Serif" font-size="10.00">+ compare()</text>
</a>
</g>
</g>
<!-- Node4&#45;&gt;Node1 -->
<g id="edge14" class="edge">
<title>Node4&#45;&gt;Node1</title>
<path fill="none" stroke="#404040" d="M134.87,-309.38C127.51,-240.83 132.5,-161.56 177,-105 201.23,-74.2 303.07,-52.1 373.2,-40.18"/>
<polygon fill="none" stroke="#404040" points="373.63,-40.11 378.89,-35.18 385.47,-38.14 380.2,-43.07 373.63,-40.11"/>
<text text-anchor="middle" x="214.5" y="-164.5" font-family="Helvetica,sans-Serif" font-size="10.00"> +m_exception</text>
<text text-anchor="middle" x="214.5" y="-153.5" font-family="Helvetica,sans-Serif" font-size="10.00">+m_decomp</text>
</g>
<!-- Node4&#45;&gt;Node2 -->
<g id="edge3" class="edge">
<title>Node4&#45;&gt;Node2</title>
<path fill="none" stroke="#404040" d="M168.33,-309.4C174.63,-282.25 185.87,-256.09 205,-236 230.42,-209.29 250.56,-228.2 286,-218 312.95,-210.24 342.02,-200.34 367.67,-191.05"/>
<polygon fill="none" stroke="#404040" points="367.93,-190.96 372.19,-185.14 379.2,-186.83 374.94,-192.65 367.93,-190.96"/>
<text text-anchor="middle" x="226" y="-261" font-family="Helvetica,sans-Serif" font-size="10.00"> +m_file</text>
</g>
<!-- Node5 -->
<g id="node5" class="node">
<title>Node5</title>
<g id="a_node5"><a xlink:title=" ">
<polygon fill="white" stroke="#bfbfbf" points="92.5,-645.5 92.5,-713.5 249.5,-713.5 249.5,-645.5 92.5,-645.5"/>
<text text-anchor="start" x="100.5" y="-701.5" font-family="Helvetica,sans-Serif" font-size="10.00">static DOCTEST_CONSTEXPR</text>
<text text-anchor="middle" x="171" y="-690.5" font-family="Helvetica,sans-Serif" font-size="10.00"> size_type</text>
<polyline fill="none" stroke="#bfbfbf" points="92.5,-683.5 249.5,-683.5 "/>
<text text-anchor="middle" x="171" y="-671.5" font-family="Helvetica,sans-Serif" font-size="10.00"> </text>
<polyline fill="none" stroke="#bfbfbf" points="92.5,-664.5 249.5,-664.5 "/>
<text text-anchor="middle" x="171" y="-652.5" font-family="Helvetica,sans-Serif" font-size="10.00"> </text>
</a>
</g>
</g>
<!-- Node5&#45;&gt;Node4 -->
<g id="edge4" class="edge">
<title>Node5&#45;&gt;Node4</title>
<path fill="none" stroke="#404040" d="M170.56,-645.45C170.42,-635.11 170.26,-622.94 170.08,-609.83"/>
<polygon fill="none" stroke="#404040" points="170.08,-609.56 166,-603.61 169.92,-597.56 174,-603.5 170.08,-609.56"/>
<text text-anchor="middle" x="188.5" y="-619" font-family="Helvetica,sans-Serif" font-size="10.00"> +npos</text>
</g>
<!-- Node6 -->
<g id="node6" class="node">
<title>Node6</title>
<g id="a_node6"><a xlink:title="OCLINT avoid private static members.">
<polygon fill="white" stroke="#bfbfbf" points="268,-651 268,-708 384,-708 384,-651 268,-651"/>
<text text-anchor="middle" x="326" y="-696" font-family="Helvetica,sans-Serif" font-size="10.00">doctest::String::view</text>
<polyline fill="none" stroke="#bfbfbf" points="268,-689 384,-689 "/>
<text text-anchor="middle" x="326" y="-677" font-family="Helvetica,sans-Serif" font-size="10.00"> </text>
<polyline fill="none" stroke="#bfbfbf" points="268,-670 384,-670 "/>
<text text-anchor="middle" x="326" y="-658" font-family="Helvetica,sans-Serif" font-size="10.00"> </text>
</a>
</g>
</g>
<!-- Node6&#45;&gt;Node4 -->
<g id="edge5" class="edge">
<title>Node6&#45;&gt;Node4</title>
<path fill="none" stroke="#404040" d="M280.28,-650.87C260.49,-637.04 238.38,-618.8 223,-598 222.45,-597.26 221.9,-596.51 221.36,-595.75"/>
<polygon fill="none" stroke="#404040" points="221.26,-595.6 214.6,-592.82 214.6,-585.61 221.26,-588.38 221.26,-595.6"/>
<text text-anchor="middle" x="267" y="-619" font-family="Helvetica,sans-Serif" font-size="10.00"> +data</text>
</g>
<!-- Node7 -->
<g id="node7" class="node">
<title>Node7</title>
<g id="a_node7"><a xlink:title=" ">
<polygon fill="white" stroke="#bfbfbf" points="27,-778 27,-835 65,-835 65,-778 27,-778"/>
<text text-anchor="middle" x="46" y="-823" font-family="Helvetica,sans-Serif" font-size="10.00">char</text>
<polyline fill="none" stroke="#bfbfbf" points="27,-816 65,-816 "/>
<text text-anchor="middle" x="46" y="-804" font-family="Helvetica,sans-Serif" font-size="10.00"> </text>
<polyline fill="none" stroke="#bfbfbf" points="27,-797 65,-797 "/>
<text text-anchor="middle" x="46" y="-785" font-family="Helvetica,sans-Serif" font-size="10.00"> </text>
</a>
</g>
</g>
<!-- Node7&#45;&gt;Node1 -->
<g id="edge13" class="edge">
<title>Node7&#45;&gt;Node1</title>
<path fill="none" stroke="#404040" d="M29.39,-777.77C16.22,-753.13 0,-715.65 0,-680.5 0,-680.5 0,-680.5 0,-160.5 0,-83.65 248.89,-48.65 373.14,-35.97"/>
<polygon fill="none" stroke="#404040" points="373.18,-35.96 378.75,-31.39 385.12,-34.77 379.55,-39.35 373.18,-35.96"/>
<text text-anchor="middle" x="49.5" y="-462" font-family="Helvetica,sans-Serif" font-size="10.00"> +m_expr</text>
<text text-anchor="middle" x="49.5" y="-451" font-family="Helvetica,sans-Serif" font-size="10.00">+m_exception_type</text>
<text text-anchor="middle" x="49.5" y="-440" font-family="Helvetica,sans-Serif" font-size="10.00">+m_file</text>
</g>
<!-- Node7&#45;&gt;Node4 -->
<g id="edge8" class="edge">
<title>Node7&#45;&gt;Node4</title>
<path fill="none" stroke="#404040" d="M41.73,-777.96C37.86,-744.81 35.4,-688.2 55,-645 67.34,-617.81 85.88,-622.46 103,-598 107.32,-591.82 111.47,-585.31 115.42,-578.61"/>
<polygon fill="none" stroke="#404040" points="115.55,-578.38 115.04,-571.19 121.48,-567.95 122,-575.14 115.55,-578.38"/>
<text text-anchor="middle" x="69" y="-677" font-family="Helvetica,sans-Serif" font-size="10.00"> +buf</text>
</g>
<!-- Node7&#45;&gt;Node6 -->
<g id="edge6" class="edge">
<title>Node7&#45;&gt;Node6</title>
<path fill="none" stroke="#404040" d="M65.15,-797.62C102.49,-782.15 187.58,-746.52 258,-714 258.51,-713.77 259.02,-713.53 259.53,-713.29"/>
<polygon fill="none" stroke="#404040" points="259.59,-713.26 263.31,-707.09 270.44,-708.15 266.72,-714.33 259.59,-713.26"/>
<text text-anchor="middle" x="230.5" y="-740.5" font-family="Helvetica,sans-Serif" font-size="10.00"> +ptr</text>
</g>
<!-- Node8 -->
<g id="node8" class="node">
<title>Node8</title>
<g id="a_node8"><a xlink:title=" ">
<polygon fill="white" stroke="#bfbfbf" points="252,-772.5 252,-840.5 400,-840.5 400,-772.5 252,-772.5"/>
<text text-anchor="start" x="260" y="-828.5" font-family="Helvetica,sans-Serif" font-size="10.00">DOCTEST_CONFIG_STRING</text>
<text text-anchor="middle" x="326" y="-817.5" font-family="Helvetica,sans-Serif" font-size="10.00">_SIZE_TYPE</text>
<polyline fill="none" stroke="#bfbfbf" points="252,-810.5 400,-810.5 "/>
<text text-anchor="middle" x="326" y="-798.5" font-family="Helvetica,sans-Serif" font-size="10.00"> </text>
<polyline fill="none" stroke="#bfbfbf" points="252,-791.5 400,-791.5 "/>
<text text-anchor="middle" x="326" y="-779.5" font-family="Helvetica,sans-Serif" font-size="10.00"> </text>
</a>
</g>
</g>
<!-- Node8&#45;&gt;Node6 -->
<g id="edge7" class="edge">
<title>Node8&#45;&gt;Node6</title>
<path fill="none" stroke="#404040" d="M326,-772.33C326,-756.42 326,-737.24 326,-720.52"/>
<polygon fill="none" stroke="#404040" points="326,-720.32 322,-714.32 326,-708.32 330,-714.32 326,-720.32"/>
<text text-anchor="middle" x="352.5" y="-746" font-family="Helvetica,sans-Serif" font-size="10.00"> +capacity</text>
<text text-anchor="middle" x="352.5" y="-735" font-family="Helvetica,sans-Serif" font-size="10.00">+size</text>
</g>
<!-- Node9 -->
<g id="node9" class="node">
<title>Node9</title>
<g id="a_node9"><a xlink:title=" ">
<polygon fill="white" stroke="#bfbfbf" points="342.5,-425 342.5,-482 371.5,-482 371.5,-425 342.5,-425"/>
<text text-anchor="middle" x="357" y="-470" font-family="Helvetica,sans-Serif" font-size="10.00">int</text>
<polyline fill="none" stroke="#bfbfbf" points="342.5,-463 371.5,-463 "/>
<text text-anchor="middle" x="357" y="-451" font-family="Helvetica,sans-Serif" font-size="10.00"> </text>
<polyline fill="none" stroke="#bfbfbf" points="342.5,-444 371.5,-444 "/>
<text text-anchor="middle" x="357" y="-432" font-family="Helvetica,sans-Serif" font-size="10.00"> </text>
</a>
</g>
</g>
<!-- Node9&#45;&gt;Node1 -->
<g id="edge16" class="edge">
<title>Node9&#45;&gt;Node1</title>
<path fill="none" stroke="#404040" d="M356.78,-424.73C355,-392.5 347.09,-339.84 316,-309 294.72,-287.89 269.15,-314.86 251,-291 236.2,-271.54 244.78,-259.64 251,-236 268,-171.33 279.05,-153.59 325,-105 339.9,-89.25 358.75,-75.31 376.95,-63.86"/>
<polygon fill="none" stroke="#404040" points="377.01,-63.82 380.05,-57.29 387.26,-57.58 384.22,-64.12 377.01,-63.82"/>
<text text-anchor="middle" x="347.5" y="-159" font-family="Helvetica,sans-Serif" font-size="10.00"> +m_line</text>
</g>
<!-- Node9&#45;&gt;Node2 -->
<g id="edge9" class="edge">
<title>Node9&#45;&gt;Node2</title>
<path fill="none" stroke="#404040" d="M352.92,-424.76C347.92,-382.13 343.2,-298.87 371,-236 377.05,-222.31 386.83,-209.66 397.22,-198.85"/>
<polygon fill="none" stroke="#404040" points="397.45,-198.62 398.93,-191.57 406.02,-190.22 404.53,-197.28 397.45,-198.62"/>
<text text-anchor="middle" x="428" y="-261" font-family="Helvetica,sans-Serif" font-size="10.00"> +m_expected_failures</text>
</g>
<!-- Node10 -->
<g id="node10" class="node">
<title>Node10</title>
<g id="a_node10"><a xlink:title=" ">
<polygon fill="white" stroke="#bfbfbf" points="694,-425 694,-482 732,-482 732,-425 694,-425"/>
<text text-anchor="middle" x="713" y="-470" font-family="Helvetica,sans-Serif" font-size="10.00">bool</text>
<polyline fill="none" stroke="#bfbfbf" points="694,-463 732,-463 "/>
<text text-anchor="middle" x="713" y="-451" font-family="Helvetica,sans-Serif" font-size="10.00"> </text>
<polyline fill="none" stroke="#bfbfbf" points="694,-444 732,-444 "/>
<text text-anchor="middle" x="713" y="-432" font-family="Helvetica,sans-Serif" font-size="10.00"> </text>
</a>
</g>
</g>
<!-- Node10&#45;&gt;Node1 -->
<g id="edge18" class="edge">
<title>Node10&#45;&gt;Node1</title>
<path fill="none" stroke="#404040" d="M727.12,-424.79C746.87,-381.85 776.95,-297.76 745,-236 696.52,-142.28 583.65,-83.53 510.19,-53.77"/>
<polygon fill="none" stroke="#404040" points="509.91,-53.66 502.86,-55.17 498.76,-49.24 505.81,-47.73 509.91,-53.66"/>
<text text-anchor="middle" x="768" y="-170" font-family="Helvetica,sans-Serif" font-size="10.00"> +m_failed</text>
<text text-anchor="middle" x="768" y="-159" font-family="Helvetica,sans-Serif" font-size="10.00">+m_threw_as</text>
<text text-anchor="middle" x="768" y="-148" font-family="Helvetica,sans-Serif" font-size="10.00">+m_threw</text>
</g>
<!-- Node10&#45;&gt;Node2 -->
<g id="edge10" class="edge">
<title>Node10&#45;&gt;Node2</title>
<path fill="none" stroke="#404040" d="M705.61,-424.69C690.72,-369.44 657.39,-249.94 644,-236 610.45,-201.06 558.99,-182.66 516.41,-173"/>
<polygon fill="none" stroke="#404040" points="516.4,-173 509.7,-175.67 504.66,-170.51 511.36,-167.84 516.4,-173"/>
<text text-anchor="middle" x="705.5" y="-283" font-family="Helvetica,sans-Serif" font-size="10.00"> +m_no_output</text>
<text text-anchor="middle" x="705.5" y="-272" font-family="Helvetica,sans-Serif" font-size="10.00">+m_should_fail</text>
<text text-anchor="middle" x="705.5" y="-261" font-family="Helvetica,sans-Serif" font-size="10.00">+m_may_fail</text>
<text text-anchor="middle" x="705.5" y="-250" font-family="Helvetica,sans-Serif" font-size="10.00">+m_no_breaks</text>
<text text-anchor="middle" x="705.5" y="-239" font-family="Helvetica,sans-Serif" font-size="10.00">+m_skip</text>
</g>
<!-- Node11 -->
<g id="node11" class="node">
<title>Node11</title>
<g id="a_node11"><a xlink:title=" ">
<polygon fill="white" stroke="#bfbfbf" points="232.5,-425 232.5,-482 307.5,-482 307.5,-425 232.5,-425"/>
<text text-anchor="middle" x="270" y="-470" font-family="Helvetica,sans-Serif" font-size="10.00">const char *</text>
<polyline fill="none" stroke="#bfbfbf" points="232.5,-463 307.5,-463 "/>
<text text-anchor="middle" x="270" y="-451" font-family="Helvetica,sans-Serif" font-size="10.00"> </text>
<polyline fill="none" stroke="#bfbfbf" points="232.5,-444 307.5,-444 "/>
<text text-anchor="middle" x="270" y="-432" font-family="Helvetica,sans-Serif" font-size="10.00"> </text>
</a>
</g>
</g>
<!-- Node11&#45;&gt;Node2 -->
<g id="edge11" class="edge">
<title>Node11&#45;&gt;Node2</title>
<path fill="none" stroke="#404040" d="M261.23,-424.8C249.1,-380.75 232.72,-293.83 271,-236 292.55,-203.44 331.86,-185.24 367.36,-175.1"/>
<polygon fill="none" stroke="#404040" points="367.62,-175.03 372.39,-169.63 379.22,-171.96 374.44,-177.36 367.62,-175.03"/>
<text text-anchor="middle" x="311.5" y="-272" font-family="Helvetica,sans-Serif" font-size="10.00"> +m_description</text>
<text text-anchor="middle" x="311.5" y="-261" font-family="Helvetica,sans-Serif" font-size="10.00">+m_test_suite</text>
<text text-anchor="middle" x="311.5" y="-250" font-family="Helvetica,sans-Serif" font-size="10.00">+m_name</text>
</g>
<!-- Node12 -->
<g id="node12" class="node">
<title>Node12</title>
<g id="a_node12"><a xlink:title=" ">
<polygon fill="white" stroke="#bfbfbf" points="477.5,-425 477.5,-482 538.5,-482 538.5,-425 477.5,-425"/>
<text text-anchor="middle" x="508" y="-470" font-family="Helvetica,sans-Serif" font-size="10.00">unsigned</text>
<polyline fill="none" stroke="#bfbfbf" points="477.5,-463 538.5,-463 "/>
<text text-anchor="middle" x="508" y="-451" font-family="Helvetica,sans-Serif" font-size="10.00"> </text>
<polyline fill="none" stroke="#bfbfbf" points="477.5,-444 538.5,-444 "/>
<text text-anchor="middle" x="508" y="-432" font-family="Helvetica,sans-Serif" font-size="10.00"> </text>
</a>
</g>
</g>
<!-- Node12&#45;&gt;Node2 -->
<g id="edge12" class="edge">
<title>Node12&#45;&gt;Node2</title>
<path fill="none" stroke="#404040" d="M509.7,-424.98C511.4,-383.01 511.14,-301 489,-236 484.78,-223.61 478.06,-211.22 471,-200.23"/>
<polygon fill="none" stroke="#404040" points="470.92,-200.11 464.25,-197.38 464.2,-190.17 470.88,-192.9 470.92,-200.11"/>
<text text-anchor="middle" x="524.5" y="-261" font-family="Helvetica,sans-Serif" font-size="10.00"> +m_line</text>
</g>
<!-- Node13 -->
<g id="node13" class="node">
<title>Node13</title>
<g id="a_node13"><a xlink:href="classdoctest_1_1AssertData_1_1StringContains.html" target="_top" xlink:title=" ">
<polygon fill="white" stroke="black" points="845,-105.5 845,-217.5 993,-217.5 993,-105.5 845,-105.5"/>
<text text-anchor="start" x="853" y="-205.5" font-family="Helvetica,sans-Serif" font-size="10.00">doctest::AssertData</text>
<text text-anchor="middle" x="919" y="-194.5" font-family="Helvetica,sans-Serif" font-size="10.00">::StringContains</text>
<polyline fill="none" stroke="black" points="845,-187.5 993,-187.5 "/>
<text text-anchor="middle" x="919" y="-175.5" font-family="Helvetica,sans-Serif" font-size="10.00"> </text>
<polyline fill="none" stroke="black" points="845,-168.5 993,-168.5 "/>
<text text-anchor="start" x="853" y="-156.5" font-family="Helvetica,sans-Serif" font-size="10.00">+ StringContains()</text>
<text text-anchor="start" x="853" y="-145.5" font-family="Helvetica,sans-Serif" font-size="10.00">+ StringContains()</text>
<text text-anchor="start" x="853" y="-134.5" font-family="Helvetica,sans-Serif" font-size="10.00">+ check()</text>
<text text-anchor="start" x="853" y="-123.5" font-family="Helvetica,sans-Serif" font-size="10.00">+ operator const String &amp;()</text>
<text text-anchor="start" x="853" y="-112.5" font-family="Helvetica,sans-Serif" font-size="10.00">+ c_str()</text>
</a>
</g>
</g>
<!-- Node13&#45;&gt;Node1 -->
<g id="edge15" class="edge">
<title>Node13&#45;&gt;Node1</title>
<path fill="none" stroke="#404040" d="M844.7,-108.96C822.56,-96.01 797.61,-83.64 773,-76 684.97,-48.69 578.73,-37.56 510.78,-33.05"/>
<polygon fill="none" stroke="#404040" points="510.53,-33.03 504.29,-36.65 498.55,-32.28 504.79,-28.66 510.53,-33.03"/>
<text text-anchor="middle" x="852" y="-79" font-family="Helvetica,sans-Serif" font-size="10.00"> +m_exception_string</text>
</g>
<!-- Node14 -->
<g id="node14" class="node">
<title>Node14</title>
<g id="a_node14"><a xlink:title=" ">
<polygon fill="white" stroke="#bfbfbf" points="1019,-133 1019,-190 1063,-190 1063,-133 1019,-133"/>
<text text-anchor="middle" x="1041" y="-178" font-family="Helvetica,sans-Serif" font-size="10.00">Enum</text>
<polyline fill="none" stroke="#bfbfbf" points="1019,-171 1063,-171 "/>
<text text-anchor="middle" x="1041" y="-159" font-family="Helvetica,sans-Serif" font-size="10.00"> </text>
<polyline fill="none" stroke="#bfbfbf" points="1019,-152 1063,-152 "/>
<text text-anchor="middle" x="1041" y="-140" font-family="Helvetica,sans-Serif" font-size="10.00"> </text>
</a>
</g>
</g>
<!-- Node14&#45;&gt;Node1 -->
<g id="edge17" class="edge">
<title>Node14&#45;&gt;Node1</title>
<path fill="none" stroke="#404040" d="M1026.72,-132.97C1020.33,-122.95 1011.98,-112.3 1002,-105 967.4,-79.68 952,-84.59 910,-76 770.06,-47.39 602.8,-36.4 510.94,-32.31"/>
<polygon fill="none" stroke="#404040" points="510.74,-32.3 504.58,-36.04 498.75,-31.79 504.92,-28.05 510.74,-32.3"/>
<text text-anchor="middle" x="986.5" y="-79" font-family="Helvetica,sans-Serif" font-size="10.00"> +m_at</text>
</g>
</g>
</svg>
