<?xml version="1.0" encoding="UTF-8" standalone="no"?>
<!DOCTYPE svg PUBLIC "-//W3C//DTD SVG 1.1//EN"
 "http://www.w3.org/Graphics/SVG/1.1/DTD/svg11.dtd">
<!-- Generated by graphviz version 2.43.0 (0)
 -->
<!-- Title: doctest::TestCaseException Pages: 1 -->
<svg width="387pt" height="645pt"
 viewBox="0.00 0.00 386.50 645.00" xmlns="http://www.w3.org/2000/svg" xmlns:xlink="http://www.w3.org/1999/xlink">
<g id="graph0" class="graph" transform="scale(1 1) rotate(0) translate(4 641)">
<title>doctest::TestCaseException</title>
<polygon fill="white" stroke="transparent" points="-4,4 -4,-641 382.5,-641 382.5,4 -4,4"/>
<!-- Node1 -->
<g id="node1" class="node">
<title>Node1</title>
<g id="a_node1"><a xlink:title=" ">
<polygon fill="#bfbfbf" stroke="black" points="163.5,-0.5 163.5,-57.5 313.5,-57.5 313.5,-0.5 163.5,-0.5"/>
<text text-anchor="middle" x="238.5" y="-45.5" font-family="Helvetica,sans-Serif" font-size="10.00">doctest::TestCaseException</text>
<polyline fill="none" stroke="black" points="163.5,-38.5 313.5,-38.5 "/>
<text text-anchor="middle" x="238.5" y="-26.5" font-family="Helvetica,sans-Serif" font-size="10.00"> </text>
<polyline fill="none" stroke="black" points="163.5,-19.5 313.5,-19.5 "/>
<text text-anchor="middle" x="238.5" y="-7.5" font-family="Helvetica,sans-Serif" font-size="10.00"> </text>
</a>
</g>
</g>
<!-- Node2 -->
<g id="node2" class="node">
<title>Node2</title>
<g id="a_node2"><a xlink:href="classdoctest_1_1String.html" target="_top" xlink:title=" ">
<polygon fill="white" stroke="black" points="147,-105.5 147,-393.5 240,-393.5 240,-105.5 147,-105.5"/>
<text text-anchor="middle" x="193.5" y="-381.5" font-family="Helvetica,sans-Serif" font-size="10.00">doctest::String</text>
<polyline fill="none" stroke="black" points="147,-374.5 240,-374.5 "/>
<text text-anchor="middle" x="193.5" y="-362.5" font-family="Helvetica,sans-Serif" font-size="10.00"> </text>
<polyline fill="none" stroke="black" points="147,-355.5 240,-355.5 "/>
<text text-anchor="start" x="155" y="-343.5" font-family="Helvetica,sans-Serif" font-size="10.00">+ String()</text>
<text text-anchor="start" x="155" y="-332.5" font-family="Helvetica,sans-Serif" font-size="10.00">+ ~String()</text>
<text text-anchor="start" x="155" y="-321.5" font-family="Helvetica,sans-Serif" font-size="10.00">+ String()</text>
<text text-anchor="start" x="155" y="-310.5" font-family="Helvetica,sans-Serif" font-size="10.00">+ String()</text>
<text text-anchor="start" x="155" y="-299.5" font-family="Helvetica,sans-Serif" font-size="10.00">+ String()</text>
<text text-anchor="start" x="155" y="-288.5" font-family="Helvetica,sans-Serif" font-size="10.00">+ String()</text>
<text text-anchor="start" x="155" y="-277.5" font-family="Helvetica,sans-Serif" font-size="10.00">+ operator=()</text>
<text text-anchor="start" x="155" y="-266.5" font-family="Helvetica,sans-Serif" font-size="10.00">+ operator+=()</text>
<text text-anchor="start" x="155" y="-255.5" font-family="Helvetica,sans-Serif" font-size="10.00">+ String()</text>
<text text-anchor="start" x="155" y="-244.5" font-family="Helvetica,sans-Serif" font-size="10.00">+ operator=()</text>
<text text-anchor="start" x="155" y="-233.5" font-family="Helvetica,sans-Serif" font-size="10.00">+ operator[]()</text>
<text text-anchor="start" x="155" y="-222.5" font-family="Helvetica,sans-Serif" font-size="10.00">+ operator[]()</text>
<text text-anchor="start" x="155" y="-211.5" font-family="Helvetica,sans-Serif" font-size="10.00">+ c_str()</text>
<text text-anchor="start" x="155" y="-200.5" font-family="Helvetica,sans-Serif" font-size="10.00">+ c_str()</text>
<text text-anchor="start" x="155" y="-189.5" font-family="Helvetica,sans-Serif" font-size="10.00">+ size()</text>
<text text-anchor="start" x="155" y="-178.5" font-family="Helvetica,sans-Serif" font-size="10.00">+ capacity()</text>
<text text-anchor="start" x="155" y="-167.5" font-family="Helvetica,sans-Serif" font-size="10.00">+ substr()</text>
<text text-anchor="start" x="155" y="-156.5" font-family="Helvetica,sans-Serif" font-size="10.00">+ substr()</text>
<text text-anchor="start" x="155" y="-145.5" font-family="Helvetica,sans-Serif" font-size="10.00">+ find()</text>
<text text-anchor="start" x="155" y="-134.5" font-family="Helvetica,sans-Serif" font-size="10.00">+ rfind()</text>
<text text-anchor="start" x="155" y="-123.5" font-family="Helvetica,sans-Serif" font-size="10.00">+ compare()</text>
<text text-anchor="start" x="155" y="-112.5" font-family="Helvetica,sans-Serif" font-size="10.00">+ compare()</text>
</a>
</g>
</g>
<!-- Node2&#45;&gt;Node1 -->
<g id="edge1" class="edge">
<title>Node2&#45;&gt;Node1</title>
<path fill="none" stroke="#404040" d="M185.93,-105.17C187.94,-95.12 190.74,-85.3 194.5,-76 195.66,-73.13 197.09,-70.34 198.73,-67.64"/>
<polygon fill="none" stroke="#404040" points="198.84,-67.49 199.1,-60.28 205.85,-57.75 205.59,-64.95 198.84,-67.49"/>
<text text-anchor="middle" x="228.5" y="-79" font-family="Helvetica,sans-Serif" font-size="10.00"> +error_string</text>
</g>
<!-- Node3 -->
<g id="node3" class="node">
<title>Node3</title>
<g id="a_node3"><a xlink:title=" ">
<polygon fill="white" stroke="#bfbfbf" points="0,-441.5 0,-509.5 157,-509.5 157,-441.5 0,-441.5"/>
<text text-anchor="start" x="8" y="-497.5" font-family="Helvetica,sans-Serif" font-size="10.00">static DOCTEST_CONSTEXPR</text>
<text text-anchor="middle" x="78.5" y="-486.5" font-family="Helvetica,sans-Serif" font-size="10.00"> size_type</text>
<polyline fill="none" stroke="#bfbfbf" points="0,-479.5 157,-479.5 "/>
<text text-anchor="middle" x="78.5" y="-467.5" font-family="Helvetica,sans-Serif" font-size="10.00"> </text>
<polyline fill="none" stroke="#bfbfbf" points="0,-460.5 157,-460.5 "/>
<text text-anchor="middle" x="78.5" y="-448.5" font-family="Helvetica,sans-Serif" font-size="10.00"> </text>
</a>
</g>
</g>
<!-- Node3&#45;&gt;Node2 -->
<g id="edge2" class="edge">
<title>Node3&#45;&gt;Node2</title>
<path fill="none" stroke="#404040" d="M95.47,-441.45C107.65,-417.72 124.77,-384.38 141.3,-352.18"/>
<polygon fill="none" stroke="#404040" points="141.39,-352 140.57,-344.83 146.87,-341.32 147.69,-348.49 141.39,-352"/>
<text text-anchor="middle" x="127" y="-415" font-family="Helvetica,sans-Serif" font-size="10.00"> +npos</text>
</g>
<!-- Node4 -->
<g id="node4" class="node">
<title>Node4</title>
<g id="a_node4"><a xlink:title="OCLINT avoid private static members.">
<polygon fill="white" stroke="#bfbfbf" points="239.5,-447 239.5,-504 355.5,-504 355.5,-447 239.5,-447"/>
<text text-anchor="middle" x="297.5" y="-492" font-family="Helvetica,sans-Serif" font-size="10.00">doctest::String::view</text>
<polyline fill="none" stroke="#bfbfbf" points="239.5,-485 355.5,-485 "/>
<text text-anchor="middle" x="297.5" y="-473" font-family="Helvetica,sans-Serif" font-size="10.00"> </text>
<polyline fill="none" stroke="#bfbfbf" points="239.5,-466 355.5,-466 "/>
<text text-anchor="middle" x="297.5" y="-454" font-family="Helvetica,sans-Serif" font-size="10.00"> </text>
</a>
</g>
</g>
<!-- Node4&#45;&gt;Node2 -->
<g id="edge3" class="edge">
<title>Node4&#45;&gt;Node2</title>
<path fill="none" stroke="#404040" d="M282.87,-446.75C274.86,-431.33 264.89,-411.72 256.5,-394 252.73,-386.05 248.91,-377.82 245.11,-369.5"/>
<polygon fill="none" stroke="#404040" points="245.1,-369.47 238.98,-365.66 240.14,-358.54 246.26,-362.35 245.1,-369.47"/>
<text text-anchor="middle" x="287.5" y="-415" font-family="Helvetica,sans-Serif" font-size="10.00"> +data</text>
</g>
<!-- Node5 -->
<g id="node5" class="node">
<title>Node5</title>
<g id="a_node5"><a xlink:title=" ">
<polygon fill="white" stroke="#bfbfbf" points="174.5,-574 174.5,-631 212.5,-631 212.5,-574 174.5,-574"/>
<text text-anchor="middle" x="193.5" y="-619" font-family="Helvetica,sans-Serif" font-size="10.00">char</text>
<polyline fill="none" stroke="#bfbfbf" points="174.5,-612 212.5,-612 "/>
<text text-anchor="middle" x="193.5" y="-600" font-family="Helvetica,sans-Serif" font-size="10.00"> </text>
<polyline fill="none" stroke="#bfbfbf" points="174.5,-593 212.5,-593 "/>
<text text-anchor="middle" x="193.5" y="-581" font-family="Helvetica,sans-Serif" font-size="10.00"> </text>
</a>
</g>
</g>
<!-- Node5&#45;&gt;Node2 -->
<g id="edge6" class="edge">
<title>Node5&#45;&gt;Node2</title>
<path fill="none" stroke="#404040" d="M193.5,-573.96C193.5,-537.37 193.5,-469.89 193.5,-405.99"/>
<polygon fill="none" stroke="#404040" points="193.5,-405.69 189.5,-399.69 193.5,-393.69 197.5,-399.69 193.5,-405.69"/>
<text text-anchor="middle" x="207.5" y="-473" font-family="Helvetica,sans-Serif" font-size="10.00"> +buf</text>
</g>
<!-- Node5&#45;&gt;Node4 -->
<g id="edge4" class="edge">
<title>Node5&#45;&gt;Node4</title>
<path fill="none" stroke="#404040" d="M212.58,-578.57C227.73,-560.36 249.22,-534.53 266.79,-513.41"/>
<polygon fill="none" stroke="#404040" points="266.88,-513.31 267.64,-506.14 274.55,-504.08 273.79,-511.25 266.88,-513.31"/>
<text text-anchor="middle" x="264" y="-536.5" font-family="Helvetica,sans-Serif" font-size="10.00"> +ptr</text>
</g>
<!-- Node6 -->
<g id="node6" class="node">
<title>Node6</title>
<g id="a_node6"><a xlink:title=" ">
<polygon fill="white" stroke="#bfbfbf" points="230.5,-568.5 230.5,-636.5 378.5,-636.5 378.5,-568.5 230.5,-568.5"/>
<text text-anchor="start" x="238.5" y="-624.5" font-family="Helvetica,sans-Serif" font-size="10.00">DOCTEST_CONFIG_STRING</text>
<text text-anchor="middle" x="304.5" y="-613.5" font-family="Helvetica,sans-Serif" font-size="10.00">_SIZE_TYPE</text>
<polyline fill="none" stroke="#bfbfbf" points="230.5,-606.5 378.5,-606.5 "/>
<text text-anchor="middle" x="304.5" y="-594.5" font-family="Helvetica,sans-Serif" font-size="10.00"> </text>
<polyline fill="none" stroke="#bfbfbf" points="230.5,-587.5 378.5,-587.5 "/>
<text text-anchor="middle" x="304.5" y="-575.5" font-family="Helvetica,sans-Serif" font-size="10.00"> </text>
</a>
</g>
</g>
<!-- Node6&#45;&gt;Node4 -->
<g id="edge5" class="edge">
<title>Node6&#45;&gt;Node4</title>
<path fill="none" stroke="#404040" d="M302.64,-568.33C301.75,-552.42 300.68,-533.24 299.74,-516.52"/>
<polygon fill="none" stroke="#404040" points="299.73,-516.3 295.4,-510.54 299.06,-504.32 303.39,-510.09 299.73,-516.3"/>
<text text-anchor="middle" x="327" y="-542" font-family="Helvetica,sans-Serif" font-size="10.00"> +capacity</text>
<text text-anchor="middle" x="327" y="-531" font-family="Helvetica,sans-Serif" font-size="10.00">+size</text>
</g>
<!-- Node7 -->
<g id="node7" class="node">
<title>Node7</title>
<g id="a_node7"><a xlink:title=" ">
<polygon fill="white" stroke="#bfbfbf" points="265.5,-221 265.5,-278 303.5,-278 303.5,-221 265.5,-221"/>
<text text-anchor="middle" x="284.5" y="-266" font-family="Helvetica,sans-Serif" font-size="10.00">bool</text>
<polyline fill="none" stroke="#bfbfbf" points="265.5,-259 303.5,-259 "/>
<text text-anchor="middle" x="284.5" y="-247" font-family="Helvetica,sans-Serif" font-size="10.00"> </text>
<polyline fill="none" stroke="#bfbfbf" points="265.5,-240 303.5,-240 "/>
<text text-anchor="middle" x="284.5" y="-228" font-family="Helvetica,sans-Serif" font-size="10.00"> </text>
</a>
</g>
</g>
<!-- Node7&#45;&gt;Node1 -->
<g id="edge7" class="edge">
<title>Node7&#45;&gt;Node1</title>
<path fill="none" stroke="#404040" d="M283.97,-220.98C282.63,-186.39 278.04,-125.55 262.5,-76 261.74,-73.58 260.86,-71.14 259.89,-68.71"/>
<polygon fill="none" stroke="#404040" points="259.79,-68.48 253.68,-64.65 254.87,-57.54 260.98,-61.37 259.79,-68.48"/>
<text text-anchor="middle" x="290.5" y="-79" font-family="Helvetica,sans-Serif" font-size="10.00"> +is_crash</text>
</g>
</g>
</svg>
