<?xml version="1.0" encoding="UTF-8" standalone="no"?>
<!DOCTYPE svg PUBLIC "-//W3C//DTD SVG 1.1//EN"
 "http://www.w3.org/Graphics/SVG/1.1/DTD/svg11.dtd">
<!-- Generated by graphviz version 2.43.0 (0)
 -->
<!-- Title: doctest::detail::Subcase Pages: 1 -->
<svg width="418pt" height="827pt"
 viewBox="0.00 0.00 418.00 827.00" xmlns="http://www.w3.org/2000/svg" xmlns:xlink="http://www.w3.org/1999/xlink">
<g id="graph0" class="graph" transform="scale(1 1) rotate(0) translate(4 823)">
<title>doctest::detail::Subcase</title>
<polygon fill="white" stroke="transparent" points="-4,4 -4,-823 414,-823 414,4 -4,4"/>
<!-- Node1 -->
<g id="node1" class="node">
<title>Node1</title>
<g id="a_node1"><a xlink:title=" ">
<polygon fill="#bfbfbf" stroke="black" points="0,-0.5 0,-123.5 133,-123.5 133,-0.5 0,-0.5"/>
<text text-anchor="middle" x="66.5" y="-111.5" font-family="Helvetica,sans-Serif" font-size="10.00">doctest::detail::Subcase</text>
<polyline fill="none" stroke="black" points="0,-104.5 133,-104.5 "/>
<text text-anchor="middle" x="66.5" y="-92.5" font-family="Helvetica,sans-Serif" font-size="10.00"> </text>
<polyline fill="none" stroke="black" points="0,-85.5 133,-85.5 "/>
<text text-anchor="start" x="8" y="-73.5" font-family="Helvetica,sans-Serif" font-size="10.00">+ Subcase()</text>
<text text-anchor="start" x="8" y="-62.5" font-family="Helvetica,sans-Serif" font-size="10.00">+ Subcase()</text>
<text text-anchor="start" x="8" y="-51.5" font-family="Helvetica,sans-Serif" font-size="10.00">+ Subcase()</text>
<text text-anchor="start" x="8" y="-40.5" font-family="Helvetica,sans-Serif" font-size="10.00">+ operator=()</text>
<text text-anchor="start" x="8" y="-29.5" font-family="Helvetica,sans-Serif" font-size="10.00">+ operator=()</text>
<text text-anchor="start" x="8" y="-18.5" font-family="Helvetica,sans-Serif" font-size="10.00">+ ~Subcase()</text>
<text text-anchor="start" x="8" y="-7.5" font-family="Helvetica,sans-Serif" font-size="10.00">+ operator bool()</text>
</a>
</g>
</g>
<!-- Node2 -->
<g id="node2" class="node">
<title>Node2</title>
<g id="a_node2"><a xlink:title=" ">
<polygon fill="white" stroke="#bfbfbf" points="4.5,-177 4.5,-234 42.5,-234 42.5,-177 4.5,-177"/>
<text text-anchor="middle" x="23.5" y="-222" font-family="Helvetica,sans-Serif" font-size="10.00">bool</text>
<polyline fill="none" stroke="#bfbfbf" points="4.5,-215 42.5,-215 "/>
<text text-anchor="middle" x="23.5" y="-203" font-family="Helvetica,sans-Serif" font-size="10.00"> </text>
<polyline fill="none" stroke="#bfbfbf" points="4.5,-196 42.5,-196 "/>
<text text-anchor="middle" x="23.5" y="-184" font-family="Helvetica,sans-Serif" font-size="10.00"> </text>
</a>
</g>
</g>
<!-- Node2&#45;&gt;Node1 -->
<g id="edge1" class="edge">
<title>Node2&#45;&gt;Node1</title>
<path fill="none" stroke="#404040" d="M27.68,-176.86C29.63,-165.9 32.24,-153.25 35.5,-142 36.15,-139.77 36.83,-137.52 37.54,-135.25"/>
<polygon fill="none" stroke="#404040" points="37.55,-135.24 35.65,-128.29 41.34,-123.86 43.24,-130.81 37.55,-135.24"/>
<text text-anchor="middle" x="67.5" y="-145" font-family="Helvetica,sans-Serif" font-size="10.00"> +m_entered</text>
</g>
<!-- Node3 -->
<g id="node3" class="node">
<title>Node3</title>
<g id="a_node3"><a xlink:href="structdoctest_1_1SubcaseSignature.html" target="_top" xlink:title=" ">
<polygon fill="white" stroke="black" points="60.5,-171.5 60.5,-239.5 206.5,-239.5 206.5,-171.5 60.5,-171.5"/>
<text text-anchor="middle" x="133.5" y="-227.5" font-family="Helvetica,sans-Serif" font-size="10.00">doctest::SubcaseSignature</text>
<polyline fill="none" stroke="black" points="60.5,-220.5 206.5,-220.5 "/>
<text text-anchor="middle" x="133.5" y="-208.5" font-family="Helvetica,sans-Serif" font-size="10.00"> </text>
<polyline fill="none" stroke="black" points="60.5,-201.5 206.5,-201.5 "/>
<text text-anchor="start" x="68.5" y="-189.5" font-family="Helvetica,sans-Serif" font-size="10.00">+ operator==()</text>
<text text-anchor="start" x="68.5" y="-178.5" font-family="Helvetica,sans-Serif" font-size="10.00">+ operator&lt;()</text>
</a>
</g>
</g>
<!-- Node3&#45;&gt;Node1 -->
<g id="edge2" class="edge">
<title>Node3&#45;&gt;Node1</title>
<path fill="none" stroke="#404040" d="M117.79,-171.32C112.59,-160.33 106.57,-147.63 100.54,-134.89"/>
<polygon fill="none" stroke="#404040" points="100.38,-134.56 94.2,-130.85 95.25,-123.71 101.43,-127.42 100.38,-134.56"/>
<text text-anchor="middle" x="144" y="-145" font-family="Helvetica,sans-Serif" font-size="10.00"> +m_signature</text>
</g>
<!-- Node4 -->
<g id="node4" class="node">
<title>Node4</title>
<g id="a_node4"><a xlink:title=" ">
<polygon fill="white" stroke="#bfbfbf" points="49.5,-756 49.5,-813 87.5,-813 87.5,-756 49.5,-756"/>
<text text-anchor="middle" x="68.5" y="-801" font-family="Helvetica,sans-Serif" font-size="10.00">char</text>
<polyline fill="none" stroke="#bfbfbf" points="49.5,-794 87.5,-794 "/>
<text text-anchor="middle" x="68.5" y="-782" font-family="Helvetica,sans-Serif" font-size="10.00"> </text>
<polyline fill="none" stroke="#bfbfbf" points="49.5,-775 87.5,-775 "/>
<text text-anchor="middle" x="68.5" y="-763" font-family="Helvetica,sans-Serif" font-size="10.00"> </text>
</a>
</g>
</g>
<!-- Node4&#45;&gt;Node3 -->
<g id="edge3" class="edge">
<title>Node4&#45;&gt;Node3</title>
<path fill="none" stroke="#404040" d="M62.59,-755.84C55.44,-720.9 43.84,-658.83 39.5,-605 28.05,-463.07 27.96,-420.12 78.5,-287 83.38,-274.16 90.69,-261.37 98.4,-249.89"/>
<polygon fill="none" stroke="#404040" points="98.63,-249.56 98.81,-242.35 105.54,-239.75 105.36,-246.96 98.63,-249.56"/>
<text text-anchor="middle" x="60.5" y="-597" font-family="Helvetica,sans-Serif" font-size="10.00"> +m_file</text>
</g>
<!-- Node5 -->
<g id="node5" class="node">
<title>Node5</title>
<g id="a_node5"><a xlink:href="classdoctest_1_1String.html" target="_top" xlink:title=" ">
<polygon fill="white" stroke="black" points="87,-287.5 87,-575.5 180,-575.5 180,-287.5 87,-287.5"/>
<text text-anchor="middle" x="133.5" y="-563.5" font-family="Helvetica,sans-Serif" font-size="10.00">doctest::String</text>
<polyline fill="none" stroke="black" points="87,-556.5 180,-556.5 "/>
<text text-anchor="middle" x="133.5" y="-544.5" font-family="Helvetica,sans-Serif" font-size="10.00"> </text>
<polyline fill="none" stroke="black" points="87,-537.5 180,-537.5 "/>
<text text-anchor="start" x="95" y="-525.5" font-family="Helvetica,sans-Serif" font-size="10.00">+ String()</text>
<text text-anchor="start" x="95" y="-514.5" font-family="Helvetica,sans-Serif" font-size="10.00">+ ~String()</text>
<text text-anchor="start" x="95" y="-503.5" font-family="Helvetica,sans-Serif" font-size="10.00">+ String()</text>
<text text-anchor="start" x="95" y="-492.5" font-family="Helvetica,sans-Serif" font-size="10.00">+ String()</text>
<text text-anchor="start" x="95" y="-481.5" font-family="Helvetica,sans-Serif" font-size="10.00">+ String()</text>
<text text-anchor="start" x="95" y="-470.5" font-family="Helvetica,sans-Serif" font-size="10.00">+ String()</text>
<text text-anchor="start" x="95" y="-459.5" font-family="Helvetica,sans-Serif" font-size="10.00">+ operator=()</text>
<text text-anchor="start" x="95" y="-448.5" font-family="Helvetica,sans-Serif" font-size="10.00">+ operator+=()</text>
<text text-anchor="start" x="95" y="-437.5" font-family="Helvetica,sans-Serif" font-size="10.00">+ String()</text>
<text text-anchor="start" x="95" y="-426.5" font-family="Helvetica,sans-Serif" font-size="10.00">+ operator=()</text>
<text text-anchor="start" x="95" y="-415.5" font-family="Helvetica,sans-Serif" font-size="10.00">+ operator[]()</text>
<text text-anchor="start" x="95" y="-404.5" font-family="Helvetica,sans-Serif" font-size="10.00">+ operator[]()</text>
<text text-anchor="start" x="95" y="-393.5" font-family="Helvetica,sans-Serif" font-size="10.00">+ c_str()</text>
<text text-anchor="start" x="95" y="-382.5" font-family="Helvetica,sans-Serif" font-size="10.00">+ c_str()</text>
<text text-anchor="start" x="95" y="-371.5" font-family="Helvetica,sans-Serif" font-size="10.00">+ size()</text>
<text text-anchor="start" x="95" y="-360.5" font-family="Helvetica,sans-Serif" font-size="10.00">+ capacity()</text>
<text text-anchor="start" x="95" y="-349.5" font-family="Helvetica,sans-Serif" font-size="10.00">+ substr()</text>
<text text-anchor="start" x="95" y="-338.5" font-family="Helvetica,sans-Serif" font-size="10.00">+ substr()</text>
<text text-anchor="start" x="95" y="-327.5" font-family="Helvetica,sans-Serif" font-size="10.00">+ find()</text>
<text text-anchor="start" x="95" y="-316.5" font-family="Helvetica,sans-Serif" font-size="10.00">+ rfind()</text>
<text text-anchor="start" x="95" y="-305.5" font-family="Helvetica,sans-Serif" font-size="10.00">+ compare()</text>
<text text-anchor="start" x="95" y="-294.5" font-family="Helvetica,sans-Serif" font-size="10.00">+ compare()</text>
</a>
</g>
</g>
<!-- Node4&#45;&gt;Node5 -->
<g id="edge9" class="edge">
<title>Node4&#45;&gt;Node5</title>
<path fill="none" stroke="#404040" d="M69.19,-755.75C70.34,-723.6 73.41,-669.12 81.5,-623 83.53,-611.41 85.95,-599.51 88.62,-587.58"/>
<polygon fill="none" stroke="#404040" points="88.68,-587.35 86.13,-580.61 91.37,-575.66 93.92,-582.41 88.68,-587.35"/>
<text text-anchor="middle" x="95.5" y="-655" font-family="Helvetica,sans-Serif" font-size="10.00"> +buf</text>
</g>
<!-- Node7 -->
<g id="node7" class="node">
<title>Node7</title>
<g id="a_node7"><a xlink:title="OCLINT avoid private static members.">
<polygon fill="white" stroke="#bfbfbf" points="118.5,-629 118.5,-686 234.5,-686 234.5,-629 118.5,-629"/>
<text text-anchor="middle" x="176.5" y="-674" font-family="Helvetica,sans-Serif" font-size="10.00">doctest::String::view</text>
<polyline fill="none" stroke="#bfbfbf" points="118.5,-667 234.5,-667 "/>
<text text-anchor="middle" x="176.5" y="-655" font-family="Helvetica,sans-Serif" font-size="10.00"> </text>
<polyline fill="none" stroke="#bfbfbf" points="118.5,-648 234.5,-648 "/>
<text text-anchor="middle" x="176.5" y="-636" font-family="Helvetica,sans-Serif" font-size="10.00"> </text>
</a>
</g>
</g>
<!-- Node4&#45;&gt;Node7 -->
<g id="edge7" class="edge">
<title>Node4&#45;&gt;Node7</title>
<path fill="none" stroke="#404040" d="M87.71,-760.38C90.64,-756.89 93.64,-753.34 96.5,-750 111.86,-732.03 129.09,-712.27 143.62,-695.73"/>
<polygon fill="none" stroke="#404040" points="143.9,-695.4 144.86,-688.26 151.83,-686.39 150.87,-693.54 143.9,-695.4"/>
<text text-anchor="middle" x="141" y="-718.5" font-family="Helvetica,sans-Serif" font-size="10.00"> +ptr</text>
</g>
<!-- Node5&#45;&gt;Node3 -->
<g id="edge4" class="edge">
<title>Node5&#45;&gt;Node3</title>
<path fill="none" stroke="#404040" d="M133.5,-287.37C133.5,-274.67 133.5,-262.56 133.5,-251.75"/>
<polygon fill="none" stroke="#404040" points="133.5,-251.7 129.5,-245.7 133.5,-239.7 137.5,-245.7 133.5,-251.7"/>
<text text-anchor="middle" x="161" y="-261" font-family="Helvetica,sans-Serif" font-size="10.00"> +m_name</text>
</g>
<!-- Node6 -->
<g id="node6" class="node">
<title>Node6</title>
<g id="a_node6"><a xlink:title=" ">
<polygon fill="white" stroke="#bfbfbf" points="253,-623.5 253,-691.5 410,-691.5 410,-623.5 253,-623.5"/>
<text text-anchor="start" x="261" y="-679.5" font-family="Helvetica,sans-Serif" font-size="10.00">static DOCTEST_CONSTEXPR</text>
<text text-anchor="middle" x="331.5" y="-668.5" font-family="Helvetica,sans-Serif" font-size="10.00"> size_type</text>
<polyline fill="none" stroke="#bfbfbf" points="253,-661.5 410,-661.5 "/>
<text text-anchor="middle" x="331.5" y="-649.5" font-family="Helvetica,sans-Serif" font-size="10.00"> </text>
<polyline fill="none" stroke="#bfbfbf" points="253,-642.5 410,-642.5 "/>
<text text-anchor="middle" x="331.5" y="-630.5" font-family="Helvetica,sans-Serif" font-size="10.00"> </text>
</a>
</g>
</g>
<!-- Node6&#45;&gt;Node5 -->
<g id="edge5" class="edge">
<title>Node6&#45;&gt;Node5</title>
<path fill="none" stroke="#404040" d="M252.72,-624.19C229.96,-611.82 206.66,-595.82 189.5,-576 188.77,-575.16 188.05,-574.31 187.34,-573.45"/>
<polygon fill="none" stroke="#404040" points="187.33,-573.43 180.51,-571.07 180.07,-563.87 186.88,-566.23 187.33,-573.43"/>
<text text-anchor="middle" x="236" y="-597" font-family="Helvetica,sans-Serif" font-size="10.00"> +npos</text>
</g>
<!-- Node7&#45;&gt;Node5 -->
<g id="edge6" class="edge">
<title>Node7&#45;&gt;Node5</title>
<path fill="none" stroke="#404040" d="M171.14,-628.58C168.95,-617.18 166.24,-603.04 163.28,-587.61"/>
<polygon fill="none" stroke="#404040" points="163.23,-587.37 158.17,-582.23 160.97,-575.58 166.03,-580.72 163.23,-587.37"/>
<text text-anchor="middle" x="182.5" y="-597" font-family="Helvetica,sans-Serif" font-size="10.00"> +data</text>
</g>
<!-- Node8 -->
<g id="node8" class="node">
<title>Node8</title>
<g id="a_node8"><a xlink:title=" ">
<polygon fill="white" stroke="#bfbfbf" points="105.5,-750.5 105.5,-818.5 253.5,-818.5 253.5,-750.5 105.5,-750.5"/>
<text text-anchor="start" x="113.5" y="-806.5" font-family="Helvetica,sans-Serif" font-size="10.00">DOCTEST_CONFIG_STRING</text>
<text text-anchor="middle" x="179.5" y="-795.5" font-family="Helvetica,sans-Serif" font-size="10.00">_SIZE_TYPE</text>
<polyline fill="none" stroke="#bfbfbf" points="105.5,-788.5 253.5,-788.5 "/>
<text text-anchor="middle" x="179.5" y="-776.5" font-family="Helvetica,sans-Serif" font-size="10.00"> </text>
<polyline fill="none" stroke="#bfbfbf" points="105.5,-769.5 253.5,-769.5 "/>
<text text-anchor="middle" x="179.5" y="-757.5" font-family="Helvetica,sans-Serif" font-size="10.00"> </text>
</a>
</g>
</g>
<!-- Node8&#45;&gt;Node7 -->
<g id="edge8" class="edge">
<title>Node8&#45;&gt;Node7</title>
<path fill="none" stroke="#404040" d="M178.7,-750.33C178.32,-734.42 177.86,-715.24 177.46,-698.52"/>
<polygon fill="none" stroke="#404040" points="177.46,-698.32 173.31,-692.42 177.17,-686.32 181.31,-692.22 177.46,-698.32"/>
<text text-anchor="middle" x="204" y="-724" font-family="Helvetica,sans-Serif" font-size="10.00"> +capacity</text>
<text text-anchor="middle" x="204" y="-713" font-family="Helvetica,sans-Serif" font-size="10.00">+size</text>
</g>
<!-- Node9 -->
<g id="node9" class="node">
<title>Node9</title>
<g id="a_node9"><a xlink:title=" ">
<polygon fill="white" stroke="#bfbfbf" points="198,-403 198,-460 227,-460 227,-403 198,-403"/>
<text text-anchor="middle" x="212.5" y="-448" font-family="Helvetica,sans-Serif" font-size="10.00">int</text>
<polyline fill="none" stroke="#bfbfbf" points="198,-441 227,-441 "/>
<text text-anchor="middle" x="212.5" y="-429" font-family="Helvetica,sans-Serif" font-size="10.00"> </text>
<polyline fill="none" stroke="#bfbfbf" points="198,-422 227,-422 "/>
<text text-anchor="middle" x="212.5" y="-410" font-family="Helvetica,sans-Serif" font-size="10.00"> </text>
</a>
</g>
</g>
<!-- Node9&#45;&gt;Node3 -->
<g id="edge10" class="edge">
<title>Node9&#45;&gt;Node3</title>
<path fill="none" stroke="#404040" d="M214.68,-402.77C216.24,-367.16 214.76,-304.43 190.5,-258 188.88,-254.9 186.99,-251.89 184.91,-248.99"/>
<polygon fill="none" stroke="#404040" points="184.79,-248.84 177.89,-246.74 177.18,-239.56 184.08,-241.67 184.79,-248.84"/>
<text text-anchor="middle" x="217" y="-261" font-family="Helvetica,sans-Serif" font-size="10.00"> +m_line</text>
</g>
</g>
</svg>
