<?xml version="1.0" encoding="UTF-8" standalone="no"?>
<!DOCTYPE svg PUBLIC "-//W3C//DTD SVG 1.1//EN"
 "http://www.w3.org/Graphics/SVG/1.1/DTD/svg11.dtd">
<!-- Generated by graphviz version 2.43.0 (0)
 -->
<!-- Title: doctest::detail::types::false_type Pages: 1 -->
<svg width="719pt" height="193pt"
 viewBox="0.00 0.00 718.50 193.00" xmlns="http://www.w3.org/2000/svg" xmlns:xlink="http://www.w3.org/1999/xlink">
<g id="graph0" class="graph" transform="scale(1 1) rotate(0) translate(4 189)">
<title>doctest::detail::types::false_type</title>
<polygon fill="white" stroke="transparent" points="-4,4 -4,-189 714.5,-189 714.5,4 -4,4"/>
<!-- Node1 -->
<g id="node1" class="node">
<title>Node1</title>
<g id="a_node1"><a xlink:title=" ">
<polygon fill="#bfbfbf" stroke="black" points="289.5,-116.5 289.5,-184.5 408.5,-184.5 408.5,-116.5 289.5,-116.5"/>
<text text-anchor="start" x="297.5" y="-172.5" font-family="Helvetica,sans-Serif" font-size="10.00">doctest::detail::types</text>
<text text-anchor="middle" x="349" y="-161.5" font-family="Helvetica,sans-Serif" font-size="10.00">::false_type</text>
<polyline fill="none" stroke="black" points="289.5,-154.5 408.5,-154.5 "/>
<text text-anchor="start" x="297.5" y="-142.5" font-family="Helvetica,sans-Serif" font-size="10.00">+ value</text>
<polyline fill="none" stroke="black" points="289.5,-135.5 408.5,-135.5 "/>
<text text-anchor="middle" x="349" y="-123.5" font-family="Helvetica,sans-Serif" font-size="10.00"> </text>
</a>
</g>
</g>
<!-- Node2 -->
<g id="node2" class="node">
<title>Node2</title>
<g id="a_node2"><a xlink:href="structdoctest_1_1detail_1_1deferred__false.html" target="_top" xlink:title=" ">
<polygon fill="white" stroke="black" points="0,-6 0,-74 134,-74 134,-6 0,-6"/>
<text text-anchor="start" x="8" y="-62" font-family="Helvetica,sans-Serif" font-size="10.00">doctest::detail::deferred</text>
<text text-anchor="middle" x="67" y="-51" font-family="Helvetica,sans-Serif" font-size="10.00">_false&lt; T &gt;</text>
<polyline fill="none" stroke="black" points="0,-44 134,-44 "/>
<text text-anchor="middle" x="67" y="-32" font-family="Helvetica,sans-Serif" font-size="10.00"> </text>
<polyline fill="none" stroke="black" points="0,-25 134,-25 "/>
<text text-anchor="middle" x="67" y="-13" font-family="Helvetica,sans-Serif" font-size="10.00"> </text>
</a>
</g>
</g>
<!-- Node1&#45;&gt;Node2 -->
<g id="edge1" class="edge">
<title>Node1&#45;&gt;Node2</title>
<path fill="none" stroke="midnightblue" d="M279.33,-128.84C238.96,-116.16 187.49,-98.8 143,-80 138.63,-78.15 134.16,-76.16 129.69,-74.08"/>
<polygon fill="none" stroke="midnightblue" points="278.49,-132.24 289.08,-131.87 280.57,-125.56 278.49,-132.24"/>
</g>
<!-- Node3 -->
<g id="node3" class="node">
<title>Node3</title>
<g id="a_node3"><a xlink:href="structdoctest_1_1detail_1_1has__insertion__operator.html" target="_top" xlink:title=" ">
<polygon fill="white" stroke="black" points="152.5,-0.5 152.5,-79.5 271.5,-79.5 271.5,-0.5 152.5,-0.5"/>
<text text-anchor="start" x="160.5" y="-67.5" font-family="Helvetica,sans-Serif" font-size="10.00">doctest::detail::has</text>
<text text-anchor="start" x="160.5" y="-56.5" font-family="Helvetica,sans-Serif" font-size="10.00">_insertion_operator&lt;</text>
<text text-anchor="middle" x="212" y="-45.5" font-family="Helvetica,sans-Serif" font-size="10.00"> T, typename &gt;</text>
<polyline fill="none" stroke="black" points="152.5,-38.5 271.5,-38.5 "/>
<text text-anchor="middle" x="212" y="-26.5" font-family="Helvetica,sans-Serif" font-size="10.00"> </text>
<polyline fill="none" stroke="black" points="152.5,-19.5 271.5,-19.5 "/>
<text text-anchor="middle" x="212" y="-7.5" font-family="Helvetica,sans-Serif" font-size="10.00"> </text>
</a>
</g>
</g>
<!-- Node1&#45;&gt;Node3 -->
<g id="edge2" class="edge">
<title>Node1&#45;&gt;Node3</title>
<path fill="none" stroke="midnightblue" d="M299.09,-109.98C286.61,-100.09 273.23,-89.49 260.8,-79.65"/>
<polygon fill="none" stroke="midnightblue" points="297.14,-112.89 307.15,-116.36 301.48,-107.4 297.14,-112.89"/>
</g>
<!-- Node4 -->
<g id="node4" class="node">
<title>Node4</title>
<g id="a_node4"><a xlink:href="structdoctest_1_1detail_1_1types_1_1is__array.html" target="_top" xlink:title=" ">
<polygon fill="white" stroke="black" points="289.5,-6 289.5,-74 408.5,-74 408.5,-6 289.5,-6"/>
<text text-anchor="start" x="297.5" y="-62" font-family="Helvetica,sans-Serif" font-size="10.00">doctest::detail::types</text>
<text text-anchor="middle" x="349" y="-51" font-family="Helvetica,sans-Serif" font-size="10.00">::is_array&lt; T &gt;</text>
<polyline fill="none" stroke="black" points="289.5,-44 408.5,-44 "/>
<text text-anchor="middle" x="349" y="-32" font-family="Helvetica,sans-Serif" font-size="10.00"> </text>
<polyline fill="none" stroke="black" points="289.5,-25 408.5,-25 "/>
<text text-anchor="middle" x="349" y="-13" font-family="Helvetica,sans-Serif" font-size="10.00"> </text>
</a>
</g>
</g>
<!-- Node1&#45;&gt;Node4 -->
<g id="edge3" class="edge">
<title>Node1&#45;&gt;Node4</title>
<path fill="none" stroke="midnightblue" d="M349,-106.04C349,-95.47 349,-84.33 349,-74.31"/>
<polygon fill="none" stroke="midnightblue" points="345.5,-106.36 349,-116.36 352.5,-106.36 345.5,-106.36"/>
</g>
<!-- Node5 -->
<g id="node5" class="node">
<title>Node5</title>
<g id="a_node5"><a xlink:href="structdoctest_1_1detail_1_1types_1_1is__pointer.html" target="_top" xlink:title=" ">
<polygon fill="white" stroke="black" points="426.5,-6 426.5,-74 545.5,-74 545.5,-6 426.5,-6"/>
<text text-anchor="start" x="434.5" y="-62" font-family="Helvetica,sans-Serif" font-size="10.00">doctest::detail::types</text>
<text text-anchor="middle" x="486" y="-51" font-family="Helvetica,sans-Serif" font-size="10.00">::is_pointer&lt; T &gt;</text>
<polyline fill="none" stroke="black" points="426.5,-44 545.5,-44 "/>
<text text-anchor="middle" x="486" y="-32" font-family="Helvetica,sans-Serif" font-size="10.00"> </text>
<polyline fill="none" stroke="black" points="426.5,-25 545.5,-25 "/>
<text text-anchor="middle" x="486" y="-13" font-family="Helvetica,sans-Serif" font-size="10.00"> </text>
</a>
</g>
</g>
<!-- Node1&#45;&gt;Node5 -->
<g id="edge4" class="edge">
<title>Node1&#45;&gt;Node5</title>
<path fill="none" stroke="midnightblue" d="M398.91,-109.97C413.68,-98.27 429.71,-85.58 443.94,-74.31"/>
<polygon fill="none" stroke="midnightblue" points="396.52,-107.4 390.85,-116.36 400.86,-112.89 396.52,-107.4"/>
</g>
<!-- Node6 -->
<g id="node6" class="node">
<title>Node6</title>
<g id="a_node6"><a xlink:href="structdoctest_1_1detail_1_1types_1_1is__rvalue__reference.html" target="_top" xlink:title=" ">
<polygon fill="white" stroke="black" points="563.5,-6 563.5,-74 710.5,-74 710.5,-6 563.5,-6"/>
<text text-anchor="start" x="571.5" y="-62" font-family="Helvetica,sans-Serif" font-size="10.00">doctest::detail::types</text>
<text text-anchor="middle" x="637" y="-51" font-family="Helvetica,sans-Serif" font-size="10.00">::is_rvalue_reference&lt; T &gt;</text>
<polyline fill="none" stroke="black" points="563.5,-44 710.5,-44 "/>
<text text-anchor="middle" x="637" y="-32" font-family="Helvetica,sans-Serif" font-size="10.00"> </text>
<polyline fill="none" stroke="black" points="563.5,-25 710.5,-25 "/>
<text text-anchor="middle" x="637" y="-13" font-family="Helvetica,sans-Serif" font-size="10.00"> </text>
</a>
</g>
</g>
<!-- Node1&#45;&gt;Node6 -->
<g id="edge5" class="edge">
<title>Node1&#45;&gt;Node6</title>
<path fill="none" stroke="midnightblue" d="M418.46,-128.33C458.76,-115.49 510.24,-98.12 555,-80 559.53,-78.17 564.16,-76.2 568.81,-74.17"/>
<polygon fill="none" stroke="midnightblue" points="417.21,-125.06 408.73,-131.41 419.32,-131.73 417.21,-125.06"/>
</g>
</g>
</svg>
