<?xml version="1.0" encoding="UTF-8" standalone="no"?>
<!DOCTYPE svg PUBLIC "-//W3C//DTD SVG 1.1//EN"
 "http://www.w3.org/Graphics/SVG/1.1/DTD/svg11.dtd">
<!-- Generated by graphviz version 2.43.0 (0)
 -->
<!-- Title: doctest::TestRunStats Pages: 1 -->
<svg width="286pt" height="204pt"
 viewBox="0.00 0.00 285.50 204.00" xmlns="http://www.w3.org/2000/svg" xmlns:xlink="http://www.w3.org/1999/xlink">
<g id="graph0" class="graph" transform="scale(1 1) rotate(0) translate(4 200)">
<title>doctest::TestRunStats</title>
<polygon fill="white" stroke="transparent" points="-4,4 -4,-200 281.5,-200 281.5,4 -4,4"/>
<!-- Node1 -->
<g id="node1" class="node">
<title>Node1</title>
<g id="a_node1"><a xlink:title=" ">
<polygon fill="#bfbfbf" stroke="black" points="13.5,-0.5 13.5,-57.5 135.5,-57.5 135.5,-0.5 13.5,-0.5"/>
<text text-anchor="middle" x="74.5" y="-45.5" font-family="Helvetica,sans-Serif" font-size="10.00">doctest::TestRunStats</text>
<polyline fill="none" stroke="black" points="13.5,-38.5 135.5,-38.5 "/>
<text text-anchor="middle" x="74.5" y="-26.5" font-family="Helvetica,sans-Serif" font-size="10.00"> </text>
<polyline fill="none" stroke="black" points="13.5,-19.5 135.5,-19.5 "/>
<text text-anchor="middle" x="74.5" y="-7.5" font-family="Helvetica,sans-Serif" font-size="10.00"> </text>
</a>
</g>
</g>
<!-- Node2 -->
<g id="node2" class="node">
<title>Node2</title>
<g id="a_node2"><a xlink:title=" ">
<polygon fill="white" stroke="#bfbfbf" points="0,-138.5 0,-195.5 29,-195.5 29,-138.5 0,-138.5"/>
<text text-anchor="middle" x="14.5" y="-183.5" font-family="Helvetica,sans-Serif" font-size="10.00">int</text>
<polyline fill="none" stroke="#bfbfbf" points="0,-176.5 29,-176.5 "/>
<text text-anchor="middle" x="14.5" y="-164.5" font-family="Helvetica,sans-Serif" font-size="10.00"> </text>
<polyline fill="none" stroke="#bfbfbf" points="0,-157.5 29,-157.5 "/>
<text text-anchor="middle" x="14.5" y="-145.5" font-family="Helvetica,sans-Serif" font-size="10.00"> </text>
</a>
</g>
</g>
<!-- Node2&#45;&gt;Node1 -->
<g id="edge1" class="edge">
<title>Node2&#45;&gt;Node1</title>
<path fill="none" stroke="#404040" d="M8.79,-138.17C6.38,-119.61 6,-95.18 15.5,-76 17.15,-72.67 19.16,-69.52 21.44,-66.53"/>
<polygon fill="none" stroke="#404040" points="21.46,-66.51 22.51,-59.37 29.5,-57.6 28.45,-64.73 21.46,-66.51"/>
<text text-anchor="middle" x="64.5" y="-101" font-family="Helvetica,sans-Serif" font-size="10.00"> +numAssertsFailed</text>
<text text-anchor="middle" x="64.5" y="-90" font-family="Helvetica,sans-Serif" font-size="10.00">+numAsserts</text>
</g>
<!-- Node3 -->
<g id="node3" class="node">
<title>Node3</title>
<g id="a_node3"><a xlink:title=" ">
<polygon fill="white" stroke="#bfbfbf" points="105,-138.5 105,-195.5 166,-195.5 166,-138.5 105,-138.5"/>
<text text-anchor="middle" x="135.5" y="-183.5" font-family="Helvetica,sans-Serif" font-size="10.00">unsigned</text>
<polyline fill="none" stroke="#bfbfbf" points="105,-176.5 166,-176.5 "/>
<text text-anchor="middle" x="135.5" y="-164.5" font-family="Helvetica,sans-Serif" font-size="10.00"> </text>
<polyline fill="none" stroke="#bfbfbf" points="105,-157.5 166,-157.5 "/>
<text text-anchor="middle" x="135.5" y="-145.5" font-family="Helvetica,sans-Serif" font-size="10.00"> </text>
</a>
</g>
</g>
<!-- Node3&#45;&gt;Node1 -->
<g id="edge2" class="edge">
<title>Node3&#45;&gt;Node1</title>
<path fill="none" stroke="#404040" d="M132.15,-138.46C129.11,-120.03 123.51,-95.63 113.5,-76 112.03,-73.13 110.36,-70.28 108.54,-67.49"/>
<polygon fill="none" stroke="#404040" points="108.51,-67.45 101.75,-64.93 101.47,-57.73 108.23,-60.24 108.51,-67.45"/>
<text text-anchor="middle" x="202.5" y="-112" font-family="Helvetica,sans-Serif" font-size="10.00"> +numTestSuitesPassingFilters</text>
<text text-anchor="middle" x="202.5" y="-101" font-family="Helvetica,sans-Serif" font-size="10.00">+numTestCasesPassingFilters</text>
<text text-anchor="middle" x="202.5" y="-90" font-family="Helvetica,sans-Serif" font-size="10.00">+numTestCasesFailed</text>
<text text-anchor="middle" x="202.5" y="-79" font-family="Helvetica,sans-Serif" font-size="10.00">+numTestCases</text>
</g>
</g>
</svg>
