<?xml version="1.0" encoding="UTF-8" standalone="no"?>
<!DOCTYPE svg PUBLIC "-//W3C//DTD SVG 1.1//EN"
 "http://www.w3.org/Graphics/SVG/1.1/DTD/svg11.dtd">
<!-- Generated by graphviz version 2.43.0 (0)
 -->
<!-- Title: doctest::detail::types::is_rvalue_reference&lt; T &gt; Pages: 1 -->
<svg width="155pt" height="288pt"
 viewBox="0.00 0.00 155.00 288.00" xmlns="http://www.w3.org/2000/svg" xmlns:xlink="http://www.w3.org/1999/xlink">
<g id="graph0" class="graph" transform="scale(1 1) rotate(0) translate(4 284)">
<title>doctest::detail::types::is_rvalue_reference&lt; T &gt;</title>
<polygon fill="white" stroke="transparent" points="-4,4 -4,-284 151,-284 151,4 -4,4"/>
<!-- Node1 -->
<g id="node1" class="node">
<title>Node1</title>
<g id="a_node1"><a xlink:title=" ">
<polygon fill="#bfbfbf" stroke="black" points="0,-0.5 0,-68.5 147,-68.5 147,-0.5 0,-0.5"/>
<text text-anchor="start" x="8" y="-56.5" font-family="Helvetica,sans-Serif" font-size="10.00">doctest::detail::types</text>
<text text-anchor="middle" x="73.5" y="-45.5" font-family="Helvetica,sans-Serif" font-size="10.00">::is_rvalue_reference&lt; T &gt;</text>
<polyline fill="none" stroke="black" points="0,-38.5 147,-38.5 "/>
<text text-anchor="middle" x="73.5" y="-26.5" font-family="Helvetica,sans-Serif" font-size="10.00"> </text>
<polyline fill="none" stroke="black" points="0,-19.5 147,-19.5 "/>
<text text-anchor="middle" x="73.5" y="-7.5" font-family="Helvetica,sans-Serif" font-size="10.00"> </text>
</a>
</g>
</g>
<!-- Node2 -->
<g id="node2" class="node">
<title>Node2</title>
<g id="a_node2"><a xlink:href="structdoctest_1_1detail_1_1types_1_1false__type.html" target="_top" xlink:title=" ">
<polygon fill="white" stroke="black" points="14,-106.5 14,-174.5 133,-174.5 133,-106.5 14,-106.5"/>
<text text-anchor="start" x="22" y="-162.5" font-family="Helvetica,sans-Serif" font-size="10.00">doctest::detail::types</text>
<text text-anchor="middle" x="73.5" y="-151.5" font-family="Helvetica,sans-Serif" font-size="10.00">::false_type</text>
<polyline fill="none" stroke="black" points="14,-144.5 133,-144.5 "/>
<text text-anchor="middle" x="73.5" y="-132.5" font-family="Helvetica,sans-Serif" font-size="10.00"> </text>
<polyline fill="none" stroke="black" points="14,-125.5 133,-125.5 "/>
<text text-anchor="middle" x="73.5" y="-113.5" font-family="Helvetica,sans-Serif" font-size="10.00"> </text>
</a>
</g>
</g>
<!-- Node2&#45;&gt;Node1 -->
<g id="edge1" class="edge">
<title>Node2&#45;&gt;Node1</title>
<path fill="none" stroke="midnightblue" d="M73.5,-96.17C73.5,-87 73.5,-77.46 73.5,-68.73"/>
<polygon fill="none" stroke="midnightblue" points="70,-96.31 73.5,-106.31 77,-96.31 70,-96.31"/>
</g>
<!-- Node3 -->
<g id="node3" class="node">
<title>Node3</title>
<g id="a_node3"><a xlink:title=" ">
<polygon fill="white" stroke="#bfbfbf" points="54.5,-222.5 54.5,-279.5 92.5,-279.5 92.5,-222.5 54.5,-222.5"/>
<text text-anchor="middle" x="73.5" y="-267.5" font-family="Helvetica,sans-Serif" font-size="10.00">bool</text>
<polyline fill="none" stroke="#bfbfbf" points="54.5,-260.5 92.5,-260.5 "/>
<text text-anchor="middle" x="73.5" y="-248.5" font-family="Helvetica,sans-Serif" font-size="10.00"> </text>
<polyline fill="none" stroke="#bfbfbf" points="54.5,-241.5 92.5,-241.5 "/>
<text text-anchor="middle" x="73.5" y="-229.5" font-family="Helvetica,sans-Serif" font-size="10.00"> </text>
</a>
</g>
</g>
<!-- Node3&#45;&gt;Node2 -->
<g id="edge2" class="edge">
<title>Node3&#45;&gt;Node2</title>
<path fill="none" stroke="#404040" d="M73.5,-222.34C73.5,-211.53 73.5,-198.85 73.5,-186.77"/>
<polygon fill="none" stroke="#404040" points="73.5,-186.52 69.5,-180.52 73.5,-174.52 77.5,-180.52 73.5,-186.52"/>
<text text-anchor="middle" x="93" y="-196" font-family="Helvetica,sans-Serif" font-size="10.00"> +value</text>
</g>
</g>
</svg>
