<?xml version="1.0" encoding="UTF-8" standalone="no"?>
<!DOCTYPE svg PUBLIC "-//W3C//DTD SVG 1.1//EN"
 "http://www.w3.org/Graphics/SVG/1.1/DTD/svg11.dtd">
<!-- Generated by graphviz version 2.43.0 (0)
 -->
<!-- Title: doctest::QueryData Pages: 1 -->
<svg width="1147pt" height="794pt"
 viewBox="0.00 0.00 1146.50 794.00" xmlns="http://www.w3.org/2000/svg" xmlns:xlink="http://www.w3.org/1999/xlink">
<g id="graph0" class="graph" transform="scale(1 1) rotate(0) translate(4 790)">
<title>doctest::QueryData</title>
<polygon fill="white" stroke="transparent" points="-4,4 -4,-790 1142.5,-790 1142.5,4 -4,4"/>
<!-- Node1 -->
<g id="node1" class="node">
<title>Node1</title>
<g id="a_node1"><a xlink:title=" ">
<polygon fill="#bfbfbf" stroke="black" points="791,-0.5 791,-57.5 902,-57.5 902,-0.5 791,-0.5"/>
<text text-anchor="middle" x="846.5" y="-45.5" font-family="Helvetica,sans-Serif" font-size="10.00">doctest::QueryData</text>
<polyline fill="none" stroke="black" points="791,-38.5 902,-38.5 "/>
<text text-anchor="middle" x="846.5" y="-26.5" font-family="Helvetica,sans-Serif" font-size="10.00"> </text>
<polyline fill="none" stroke="black" points="791,-19.5 902,-19.5 "/>
<text text-anchor="middle" x="846.5" y="-7.5" font-family="Helvetica,sans-Serif" font-size="10.00"> </text>
</a>
</g>
</g>
<!-- Node2 -->
<g id="node2" class="node">
<title>Node2</title>
<g id="a_node2"><a xlink:href="structdoctest_1_1TestCaseData.html" target="_top" xlink:title=" ">
<polygon fill="white" stroke="black" points="449,-105.5 449,-162.5 574,-162.5 574,-105.5 449,-105.5"/>
<text text-anchor="middle" x="511.5" y="-150.5" font-family="Helvetica,sans-Serif" font-size="10.00">doctest::TestCaseData</text>
<polyline fill="none" stroke="black" points="449,-143.5 574,-143.5 "/>
<text text-anchor="middle" x="511.5" y="-131.5" font-family="Helvetica,sans-Serif" font-size="10.00"> </text>
<polyline fill="none" stroke="black" points="449,-124.5 574,-124.5 "/>
<text text-anchor="middle" x="511.5" y="-112.5" font-family="Helvetica,sans-Serif" font-size="10.00"> </text>
</a>
</g>
</g>
<!-- Node2&#45;&gt;Node1 -->
<g id="edge1" class="edge">
<title>Node2&#45;&gt;Node1</title>
<path fill="none" stroke="#404040" d="M574.12,-113.75C632.53,-95.79 719.41,-69.07 779.27,-50.67"/>
<polygon fill="none" stroke="#404040" points="779.39,-50.63 783.95,-45.05 790.86,-47.11 786.3,-52.69 779.39,-50.63"/>
<text text-anchor="middle" x="705.5" y="-79" font-family="Helvetica,sans-Serif" font-size="10.00"> +data</text>
</g>
<!-- Node3 -->
<g id="node3" class="node">
<title>Node3</title>
<g id="a_node3"><a xlink:title=" ">
<polygon fill="white" stroke="#bfbfbf" points="298.5,-370 298.5,-427 348.5,-427 348.5,-370 298.5,-370"/>
<text text-anchor="middle" x="323.5" y="-415" font-family="Helvetica,sans-Serif" font-size="10.00">double</text>
<polyline fill="none" stroke="#bfbfbf" points="298.5,-408 348.5,-408 "/>
<text text-anchor="middle" x="323.5" y="-396" font-family="Helvetica,sans-Serif" font-size="10.00"> </text>
<polyline fill="none" stroke="#bfbfbf" points="298.5,-389 348.5,-389 "/>
<text text-anchor="middle" x="323.5" y="-377" font-family="Helvetica,sans-Serif" font-size="10.00"> </text>
</a>
</g>
</g>
<!-- Node3&#45;&gt;Node2 -->
<g id="edge2" class="edge">
<title>Node3&#45;&gt;Node2</title>
<path fill="none" stroke="#404040" d="M316.24,-369.91C306.19,-324.85 293.89,-235.05 338.5,-181 351.42,-165.35 396.19,-153.69 436.94,-146.03"/>
<polygon fill="none" stroke="#404040" points="437.05,-146.01 442.24,-141.01 448.86,-143.88 443.67,-148.88 437.05,-146.01"/>
<text text-anchor="middle" x="371" y="-206" font-family="Helvetica,sans-Serif" font-size="10.00"> +m_timeout</text>
</g>
<!-- Node4 -->
<g id="node4" class="node">
<title>Node4</title>
<g id="a_node4"><a xlink:href="classdoctest_1_1String.html" target="_top" xlink:title=" ">
<polygon fill="white" stroke="black" points="187,-254.5 187,-542.5 280,-542.5 280,-254.5 187,-254.5"/>
<text text-anchor="middle" x="233.5" y="-530.5" font-family="Helvetica,sans-Serif" font-size="10.00">doctest::String</text>
<polyline fill="none" stroke="black" points="187,-523.5 280,-523.5 "/>
<text text-anchor="middle" x="233.5" y="-511.5" font-family="Helvetica,sans-Serif" font-size="10.00"> </text>
<polyline fill="none" stroke="black" points="187,-504.5 280,-504.5 "/>
<text text-anchor="start" x="195" y="-492.5" font-family="Helvetica,sans-Serif" font-size="10.00">+ String()</text>
<text text-anchor="start" x="195" y="-481.5" font-family="Helvetica,sans-Serif" font-size="10.00">+ ~String()</text>
<text text-anchor="start" x="195" y="-470.5" font-family="Helvetica,sans-Serif" font-size="10.00">+ String()</text>
<text text-anchor="start" x="195" y="-459.5" font-family="Helvetica,sans-Serif" font-size="10.00">+ String()</text>
<text text-anchor="start" x="195" y="-448.5" font-family="Helvetica,sans-Serif" font-size="10.00">+ String()</text>
<text text-anchor="start" x="195" y="-437.5" font-family="Helvetica,sans-Serif" font-size="10.00">+ String()</text>
<text text-anchor="start" x="195" y="-426.5" font-family="Helvetica,sans-Serif" font-size="10.00">+ operator=()</text>
<text text-anchor="start" x="195" y="-415.5" font-family="Helvetica,sans-Serif" font-size="10.00">+ operator+=()</text>
<text text-anchor="start" x="195" y="-404.5" font-family="Helvetica,sans-Serif" font-size="10.00">+ String()</text>
<text text-anchor="start" x="195" y="-393.5" font-family="Helvetica,sans-Serif" font-size="10.00">+ operator=()</text>
<text text-anchor="start" x="195" y="-382.5" font-family="Helvetica,sans-Serif" font-size="10.00">+ operator[]()</text>
<text text-anchor="start" x="195" y="-371.5" font-family="Helvetica,sans-Serif" font-size="10.00">+ operator[]()</text>
<text text-anchor="start" x="195" y="-360.5" font-family="Helvetica,sans-Serif" font-size="10.00">+ c_str()</text>
<text text-anchor="start" x="195" y="-349.5" font-family="Helvetica,sans-Serif" font-size="10.00">+ c_str()</text>
<text text-anchor="start" x="195" y="-338.5" font-family="Helvetica,sans-Serif" font-size="10.00">+ size()</text>
<text text-anchor="start" x="195" y="-327.5" font-family="Helvetica,sans-Serif" font-size="10.00">+ capacity()</text>
<text text-anchor="start" x="195" y="-316.5" font-family="Helvetica,sans-Serif" font-size="10.00">+ substr()</text>
<text text-anchor="start" x="195" y="-305.5" font-family="Helvetica,sans-Serif" font-size="10.00">+ substr()</text>
<text text-anchor="start" x="195" y="-294.5" font-family="Helvetica,sans-Serif" font-size="10.00">+ find()</text>
<text text-anchor="start" x="195" y="-283.5" font-family="Helvetica,sans-Serif" font-size="10.00">+ rfind()</text>
<text text-anchor="start" x="195" y="-272.5" font-family="Helvetica,sans-Serif" font-size="10.00">+ compare()</text>
<text text-anchor="start" x="195" y="-261.5" font-family="Helvetica,sans-Serif" font-size="10.00">+ compare()</text>
</a>
</g>
</g>
<!-- Node4&#45;&gt;Node2 -->
<g id="edge3" class="edge">
<title>Node4&#45;&gt;Node2</title>
<path fill="none" stroke="#404040" d="M230.41,-254.37C236.24,-227.14 247.21,-200.96 266.5,-181 289.62,-157.07 373.34,-145.3 436.53,-139.7"/>
<polygon fill="none" stroke="#404040" points="436.91,-139.67 442.56,-135.18 448.87,-138.66 443.23,-143.15 436.91,-139.67"/>
<text text-anchor="middle" x="287.5" y="-206" font-family="Helvetica,sans-Serif" font-size="10.00"> +m_file</text>
</g>
<!-- Node5 -->
<g id="node5" class="node">
<title>Node5</title>
<g id="a_node5"><a xlink:title=" ">
<polygon fill="white" stroke="#bfbfbf" points="0,-590.5 0,-658.5 157,-658.5 157,-590.5 0,-590.5"/>
<text text-anchor="start" x="8" y="-646.5" font-family="Helvetica,sans-Serif" font-size="10.00">static DOCTEST_CONSTEXPR</text>
<text text-anchor="middle" x="78.5" y="-635.5" font-family="Helvetica,sans-Serif" font-size="10.00"> size_type</text>
<polyline fill="none" stroke="#bfbfbf" points="0,-628.5 157,-628.5 "/>
<text text-anchor="middle" x="78.5" y="-616.5" font-family="Helvetica,sans-Serif" font-size="10.00"> </text>
<polyline fill="none" stroke="#bfbfbf" points="0,-609.5 157,-609.5 "/>
<text text-anchor="middle" x="78.5" y="-597.5" font-family="Helvetica,sans-Serif" font-size="10.00"> </text>
</a>
</g>
</g>
<!-- Node5&#45;&gt;Node4 -->
<g id="edge4" class="edge">
<title>Node5&#45;&gt;Node4</title>
<path fill="none" stroke="#404040" d="M101.37,-590.45C121.93,-560.73 152.94,-515.93 179.74,-477.19"/>
<polygon fill="none" stroke="#404040" points="179.99,-476.83 180.11,-469.62 186.82,-466.96 186.69,-474.17 179.99,-476.83"/>
<text text-anchor="middle" x="138" y="-564" font-family="Helvetica,sans-Serif" font-size="10.00"> +npos</text>
</g>
<!-- Node6 -->
<g id="node6" class="node">
<title>Node6</title>
<g id="a_node6"><a xlink:title="OCLINT avoid private static members.">
<polygon fill="white" stroke="#bfbfbf" points="175.5,-596 175.5,-653 291.5,-653 291.5,-596 175.5,-596"/>
<text text-anchor="middle" x="233.5" y="-641" font-family="Helvetica,sans-Serif" font-size="10.00">doctest::String::view</text>
<polyline fill="none" stroke="#bfbfbf" points="175.5,-634 291.5,-634 "/>
<text text-anchor="middle" x="233.5" y="-622" font-family="Helvetica,sans-Serif" font-size="10.00"> </text>
<polyline fill="none" stroke="#bfbfbf" points="175.5,-615 291.5,-615 "/>
<text text-anchor="middle" x="233.5" y="-603" font-family="Helvetica,sans-Serif" font-size="10.00"> </text>
</a>
</g>
</g>
<!-- Node6&#45;&gt;Node4 -->
<g id="edge5" class="edge">
<title>Node6&#45;&gt;Node4</title>
<path fill="none" stroke="#404040" d="M233.5,-595.58C233.5,-584.18 233.5,-570.04 233.5,-554.61"/>
<polygon fill="none" stroke="#404040" points="233.5,-554.58 229.5,-548.58 233.5,-542.58 237.5,-548.58 233.5,-554.58"/>
<text text-anchor="middle" x="250.5" y="-564" font-family="Helvetica,sans-Serif" font-size="10.00"> +data</text>
</g>
<!-- Node7 -->
<g id="node7" class="node">
<title>Node7</title>
<g id="a_node7"><a xlink:title=" ">
<polygon fill="white" stroke="#bfbfbf" points="305.5,-723 305.5,-780 343.5,-780 343.5,-723 305.5,-723"/>
<text text-anchor="middle" x="324.5" y="-768" font-family="Helvetica,sans-Serif" font-size="10.00">char</text>
<polyline fill="none" stroke="#bfbfbf" points="305.5,-761 343.5,-761 "/>
<text text-anchor="middle" x="324.5" y="-749" font-family="Helvetica,sans-Serif" font-size="10.00"> </text>
<polyline fill="none" stroke="#bfbfbf" points="305.5,-742 343.5,-742 "/>
<text text-anchor="middle" x="324.5" y="-730" font-family="Helvetica,sans-Serif" font-size="10.00"> </text>
</a>
</g>
</g>
<!-- Node7&#45;&gt;Node4 -->
<g id="edge8" class="edge">
<title>Node7&#45;&gt;Node4</title>
<path fill="none" stroke="#404040" d="M321.98,-722.93C318.68,-690.7 311.9,-635.94 300.5,-590 295.83,-571.17 290.04,-551.59 283.85,-532.45"/>
<polygon fill="none" stroke="#404040" points="283.81,-532.32 278.13,-527.87 280.05,-520.92 285.73,-525.37 283.81,-532.32"/>
<text text-anchor="middle" x="327.5" y="-622" font-family="Helvetica,sans-Serif" font-size="10.00"> +buf</text>
</g>
<!-- Node7&#45;&gt;Node6 -->
<g id="edge6" class="edge">
<title>Node7&#45;&gt;Node6</title>
<path fill="none" stroke="#404040" d="M305.42,-724.3C292.55,-706.62 275.37,-683.01 261.02,-663.3"/>
<polygon fill="none" stroke="#404040" points="260.88,-663.11 254.11,-660.61 253.82,-653.41 260.58,-655.9 260.88,-663.11"/>
<text text-anchor="middle" x="296" y="-685.5" font-family="Helvetica,sans-Serif" font-size="10.00"> +ptr</text>
</g>
<!-- Node8 -->
<g id="node8" class="node">
<title>Node8</title>
<g id="a_node8"><a xlink:title=" ">
<polygon fill="white" stroke="#bfbfbf" points="137.5,-717.5 137.5,-785.5 285.5,-785.5 285.5,-717.5 137.5,-717.5"/>
<text text-anchor="start" x="145.5" y="-773.5" font-family="Helvetica,sans-Serif" font-size="10.00">DOCTEST_CONFIG_STRING</text>
<text text-anchor="middle" x="211.5" y="-762.5" font-family="Helvetica,sans-Serif" font-size="10.00">_SIZE_TYPE</text>
<polyline fill="none" stroke="#bfbfbf" points="137.5,-755.5 285.5,-755.5 "/>
<text text-anchor="middle" x="211.5" y="-743.5" font-family="Helvetica,sans-Serif" font-size="10.00"> </text>
<polyline fill="none" stroke="#bfbfbf" points="137.5,-736.5 285.5,-736.5 "/>
<text text-anchor="middle" x="211.5" y="-724.5" font-family="Helvetica,sans-Serif" font-size="10.00"> </text>
</a>
</g>
</g>
<!-- Node8&#45;&gt;Node6 -->
<g id="edge7" class="edge">
<title>Node8&#45;&gt;Node6</title>
<path fill="none" stroke="#404040" d="M209.34,-717.29C209.2,-704.58 209.86,-690.01 212.5,-677 213.33,-672.9 214.48,-668.72 215.82,-664.59"/>
<polygon fill="none" stroke="#404040" points="215.85,-664.51 214.16,-657.5 219.99,-653.24 221.68,-660.25 215.85,-664.51"/>
<text text-anchor="middle" x="239" y="-691" font-family="Helvetica,sans-Serif" font-size="10.00"> +capacity</text>
<text text-anchor="middle" x="239" y="-680" font-family="Helvetica,sans-Serif" font-size="10.00">+size</text>
</g>
<!-- Node9 -->
<g id="node9" class="node">
<title>Node9</title>
<g id="a_node9"><a xlink:title=" ">
<polygon fill="white" stroke="#bfbfbf" points="669,-370 669,-427 698,-427 698,-370 669,-370"/>
<text text-anchor="middle" x="683.5" y="-415" font-family="Helvetica,sans-Serif" font-size="10.00">int</text>
<polyline fill="none" stroke="#bfbfbf" points="669,-408 698,-408 "/>
<text text-anchor="middle" x="683.5" y="-396" font-family="Helvetica,sans-Serif" font-size="10.00"> </text>
<polyline fill="none" stroke="#bfbfbf" points="669,-389 698,-389 "/>
<text text-anchor="middle" x="683.5" y="-377" font-family="Helvetica,sans-Serif" font-size="10.00"> </text>
</a>
</g>
</g>
<!-- Node9&#45;&gt;Node2 -->
<g id="edge9" class="edge">
<title>Node9&#45;&gt;Node2</title>
<path fill="none" stroke="#404040" d="M671.33,-369.92C657.28,-337.87 633.64,-283.35 614.5,-236 604.69,-211.74 610.6,-200.81 593.5,-181 590.14,-177.11 586.37,-173.48 582.33,-170.1"/>
<polygon fill="none" stroke="#404040" points="582.09,-169.92 574.89,-169.5 572.51,-162.69 579.71,-163.11 582.09,-169.92"/>
<text text-anchor="middle" x="671.5" y="-206" font-family="Helvetica,sans-Serif" font-size="10.00"> +m_expected_failures</text>
</g>
<!-- Node13 -->
<g id="node13" class="node">
<title>Node13</title>
<g id="a_node13"><a xlink:href="structdoctest_1_1TestRunStats.html" target="_top" xlink:title=" ">
<polygon fill="white" stroke="black" points="785.5,-105.5 785.5,-162.5 907.5,-162.5 907.5,-105.5 785.5,-105.5"/>
<text text-anchor="middle" x="846.5" y="-150.5" font-family="Helvetica,sans-Serif" font-size="10.00">doctest::TestRunStats</text>
<polyline fill="none" stroke="black" points="785.5,-143.5 907.5,-143.5 "/>
<text text-anchor="middle" x="846.5" y="-131.5" font-family="Helvetica,sans-Serif" font-size="10.00"> </text>
<polyline fill="none" stroke="black" points="785.5,-124.5 907.5,-124.5 "/>
<text text-anchor="middle" x="846.5" y="-112.5" font-family="Helvetica,sans-Serif" font-size="10.00"> </text>
</a>
</g>
</g>
<!-- Node9&#45;&gt;Node13 -->
<g id="edge15" class="edge">
<title>Node9&#45;&gt;Node13</title>
<path fill="none" stroke="#404040" d="M691.15,-369.81C706.54,-314.78 740.85,-195.65 753.5,-181 759.47,-174.08 766.74,-168.09 774.54,-162.95"/>
<polygon fill="none" stroke="#404040" points="774.75,-162.82 777.84,-156.3 785.05,-156.65 781.95,-163.17 774.75,-162.82"/>
<text text-anchor="middle" x="802.5" y="-211.5" font-family="Helvetica,sans-Serif" font-size="10.00"> +numAssertsFailed</text>
<text text-anchor="middle" x="802.5" y="-200.5" font-family="Helvetica,sans-Serif" font-size="10.00">+numAsserts</text>
</g>
<!-- Node10 -->
<g id="node10" class="node">
<title>Node10</title>
<g id="a_node10"><a xlink:title=" ">
<polygon fill="white" stroke="#bfbfbf" points="392.5,-370 392.5,-427 430.5,-427 430.5,-370 392.5,-370"/>
<text text-anchor="middle" x="411.5" y="-415" font-family="Helvetica,sans-Serif" font-size="10.00">bool</text>
<polyline fill="none" stroke="#bfbfbf" points="392.5,-408 430.5,-408 "/>
<text text-anchor="middle" x="411.5" y="-396" font-family="Helvetica,sans-Serif" font-size="10.00"> </text>
<polyline fill="none" stroke="#bfbfbf" points="392.5,-389 430.5,-389 "/>
<text text-anchor="middle" x="411.5" y="-377" font-family="Helvetica,sans-Serif" font-size="10.00"> </text>
</a>
</g>
</g>
<!-- Node10&#45;&gt;Node2 -->
<g id="edge10" class="edge">
<title>Node10&#45;&gt;Node2</title>
<path fill="none" stroke="#404040" d="M406.31,-369.98C399.62,-326.17 392.88,-239.57 430.5,-181 433.13,-176.91 436.26,-173.14 439.73,-169.68"/>
<polygon fill="none" stroke="#404040" points="439.91,-169.53 441.84,-162.59 449,-161.7 447.06,-168.65 439.91,-169.53"/>
<text text-anchor="middle" x="469" y="-228" font-family="Helvetica,sans-Serif" font-size="10.00"> +m_no_output</text>
<text text-anchor="middle" x="469" y="-217" font-family="Helvetica,sans-Serif" font-size="10.00">+m_should_fail</text>
<text text-anchor="middle" x="469" y="-206" font-family="Helvetica,sans-Serif" font-size="10.00">+m_may_fail</text>
<text text-anchor="middle" x="469" y="-195" font-family="Helvetica,sans-Serif" font-size="10.00">+m_no_breaks</text>
<text text-anchor="middle" x="469" y="-184" font-family="Helvetica,sans-Serif" font-size="10.00">+m_skip</text>
</g>
<!-- Node11 -->
<g id="node11" class="node">
<title>Node11</title>
<g id="a_node11"><a xlink:title=" ">
<polygon fill="white" stroke="#bfbfbf" points="474,-370 474,-427 549,-427 549,-370 474,-370"/>
<text text-anchor="middle" x="511.5" y="-415" font-family="Helvetica,sans-Serif" font-size="10.00">const char *</text>
<polyline fill="none" stroke="#bfbfbf" points="474,-408 549,-408 "/>
<text text-anchor="middle" x="511.5" y="-396" font-family="Helvetica,sans-Serif" font-size="10.00"> </text>
<polyline fill="none" stroke="#bfbfbf" points="474,-389 549,-389 "/>
<text text-anchor="middle" x="511.5" y="-377" font-family="Helvetica,sans-Serif" font-size="10.00"> </text>
</a>
</g>
</g>
<!-- Node11&#45;&gt;Node2 -->
<g id="edge11" class="edge">
<title>Node11&#45;&gt;Node2</title>
<path fill="none" stroke="#404040" d="M511.5,-369.9C511.5,-323.23 511.5,-228.54 511.5,-174.73"/>
<polygon fill="none" stroke="#404040" points="511.5,-174.62 507.5,-168.62 511.5,-162.62 515.5,-168.62 511.5,-174.62"/>
<text text-anchor="middle" x="552" y="-217" font-family="Helvetica,sans-Serif" font-size="10.00"> +m_description</text>
<text text-anchor="middle" x="552" y="-206" font-family="Helvetica,sans-Serif" font-size="10.00">+m_test_suite</text>
<text text-anchor="middle" x="552" y="-195" font-family="Helvetica,sans-Serif" font-size="10.00">+m_name</text>
</g>
<!-- Node12 -->
<g id="node12" class="node">
<title>Node12</title>
<g id="a_node12"><a xlink:title=" ">
<polygon fill="white" stroke="#bfbfbf" points="911,-370 911,-427 972,-427 972,-370 911,-370"/>
<text text-anchor="middle" x="941.5" y="-415" font-family="Helvetica,sans-Serif" font-size="10.00">unsigned</text>
<polyline fill="none" stroke="#bfbfbf" points="911,-408 972,-408 "/>
<text text-anchor="middle" x="941.5" y="-396" font-family="Helvetica,sans-Serif" font-size="10.00"> </text>
<polyline fill="none" stroke="#bfbfbf" points="911,-389 972,-389 "/>
<text text-anchor="middle" x="941.5" y="-377" font-family="Helvetica,sans-Serif" font-size="10.00"> </text>
</a>
</g>
</g>
<!-- Node12&#45;&gt;Node1 -->
<g id="edge13" class="edge">
<title>Node12&#45;&gt;Node1</title>
<path fill="none" stroke="#404040" d="M972.28,-378.64C1027.93,-342.04 1135.69,-258.18 1092.5,-181 1054.59,-113.25 972.47,-72.2 913.54,-50.35"/>
<polygon fill="none" stroke="#404040" points="913.37,-50.29 906.37,-52.02 902.08,-46.23 909.08,-44.49 913.37,-50.29"/>
<text text-anchor="middle" x="1108" y="-131.5" font-family="Helvetica,sans-Serif" font-size="10.00"> +num_data</text>
</g>
<!-- Node12&#45;&gt;Node2 -->
<g id="edge12" class="edge">
<title>Node12&#45;&gt;Node2</title>
<path fill="none" stroke="#404040" d="M928.49,-369.78C913.69,-337.84 889.16,-283.62 870.5,-236 861.07,-211.92 871.51,-197.39 851.5,-181 841.32,-172.66 683.22,-153.92 586.24,-143.11"/>
<polygon fill="none" stroke="#404040" points="586.08,-143.09 579.67,-146.4 574.15,-141.77 580.56,-138.45 586.08,-143.09"/>
<text text-anchor="middle" x="893" y="-206" font-family="Helvetica,sans-Serif" font-size="10.00"> +m_line</text>
</g>
<!-- Node12&#45;&gt;Node13 -->
<g id="edge16" class="edge">
<title>Node12&#45;&gt;Node13</title>
<path fill="none" stroke="#404040" d="M945.95,-369.78C951.47,-326.08 956.12,-240.09 919.5,-181 917.26,-177.39 914.62,-174.01 911.7,-170.87"/>
<polygon fill="none" stroke="#404040" points="911.6,-170.77 904.48,-169.61 902.81,-162.59 909.93,-163.75 911.6,-170.77"/>
<text text-anchor="middle" x="1015.5" y="-222.5" font-family="Helvetica,sans-Serif" font-size="10.00"> +numTestSuitesPassingFilters</text>
<text text-anchor="middle" x="1015.5" y="-211.5" font-family="Helvetica,sans-Serif" font-size="10.00">+numTestCasesPassingFilters</text>
<text text-anchor="middle" x="1015.5" y="-200.5" font-family="Helvetica,sans-Serif" font-size="10.00">+numTestCasesFailed</text>
<text text-anchor="middle" x="1015.5" y="-189.5" font-family="Helvetica,sans-Serif" font-size="10.00">+numTestCases</text>
</g>
<!-- Node13&#45;&gt;Node1 -->
<g id="edge14" class="edge">
<title>Node13&#45;&gt;Node1</title>
<path fill="none" stroke="#404040" d="M846.5,-105.4C846.5,-94.55 846.5,-81.87 846.5,-70.05"/>
<polygon fill="none" stroke="#404040" points="846.5,-69.68 842.5,-63.68 846.5,-57.68 850.5,-63.68 846.5,-69.68"/>
<text text-anchor="middle" x="875" y="-79" font-family="Helvetica,sans-Serif" font-size="10.00"> +run_stats</text>
</g>
</g>
</svg>
