<?xml version="1.0" encoding="UTF-8" standalone="no"?>
<!DOCTYPE svg PUBLIC "-//W3C//DTD SVG 1.1//EN"
 "http://www.w3.org/Graphics/SVG/1.1/DTD/svg11.dtd">
<!-- Generated by graphviz version 2.43.0 (0)
 -->
<!-- Title: doctest::detail::has_insertion_operator&lt; T, decltype(operator&lt;&lt;(declval&lt; std::ostream &amp; &gt;(), declval&lt; const T &amp; &gt;()), void())&gt; Pages: 1 -->
<svg width="153pt" height="332pt"
 viewBox="0.00 0.00 153.00 332.00" xmlns="http://www.w3.org/2000/svg" xmlns:xlink="http://www.w3.org/1999/xlink">
<g id="graph0" class="graph" transform="scale(1 1) rotate(0) translate(4 328)">
<title>doctest::detail::has_insertion_operator&lt; T, decltype(operator&lt;&lt;(declval&lt; std::ostream &amp; &gt;(), declval&lt; const T &amp; &gt;()), void())&gt;</title>
<polygon fill="white" stroke="transparent" points="-4,4 -4,-328 149,-328 149,4 -4,4"/>
<!-- Node1 -->
<g id="node1" class="node">
<title>Node1</title>
<g id="a_node1"><a xlink:title=" ">
<polygon fill="#bfbfbf" stroke="black" points="0,-0.5 0,-112.5 145,-112.5 145,-0.5 0,-0.5"/>
<text text-anchor="start" x="8" y="-100.5" font-family="Helvetica,sans-Serif" font-size="10.00">doctest::detail::has</text>
<text text-anchor="start" x="8" y="-89.5" font-family="Helvetica,sans-Serif" font-size="10.00">_insertion_operator&lt;</text>
<text text-anchor="start" x="8" y="-78.5" font-family="Helvetica,sans-Serif" font-size="10.00"> T, decltype(operator</text>
<text text-anchor="start" x="8" y="-67.5" font-family="Helvetica,sans-Serif" font-size="10.00">&lt;&lt;(declval&lt; std::ostream</text>
<text text-anchor="start" x="8" y="-56.5" font-family="Helvetica,sans-Serif" font-size="10.00"> &amp; &gt;(), declval&lt; const T</text>
<text text-anchor="middle" x="72.5" y="-45.5" font-family="Helvetica,sans-Serif" font-size="10.00"> &amp; &gt;()), void())&gt;</text>
<polyline fill="none" stroke="black" points="0,-38.5 145,-38.5 "/>
<text text-anchor="middle" x="72.5" y="-26.5" font-family="Helvetica,sans-Serif" font-size="10.00"> </text>
<polyline fill="none" stroke="black" points="0,-19.5 145,-19.5 "/>
<text text-anchor="middle" x="72.5" y="-7.5" font-family="Helvetica,sans-Serif" font-size="10.00"> </text>
</a>
</g>
</g>
<!-- Node2 -->
<g id="node2" class="node">
<title>Node2</title>
<g id="a_node2"><a xlink:href="structdoctest_1_1detail_1_1types_1_1true__type.html" target="_top" xlink:title=" ">
<polygon fill="white" stroke="black" points="13,-150.5 13,-218.5 132,-218.5 132,-150.5 13,-150.5"/>
<text text-anchor="start" x="21" y="-206.5" font-family="Helvetica,sans-Serif" font-size="10.00">doctest::detail::types</text>
<text text-anchor="middle" x="72.5" y="-195.5" font-family="Helvetica,sans-Serif" font-size="10.00">::true_type</text>
<polyline fill="none" stroke="black" points="13,-188.5 132,-188.5 "/>
<text text-anchor="middle" x="72.5" y="-176.5" font-family="Helvetica,sans-Serif" font-size="10.00"> </text>
<polyline fill="none" stroke="black" points="13,-169.5 132,-169.5 "/>
<text text-anchor="middle" x="72.5" y="-157.5" font-family="Helvetica,sans-Serif" font-size="10.00"> </text>
</a>
</g>
</g>
<!-- Node2&#45;&gt;Node1 -->
<g id="edge1" class="edge">
<title>Node2&#45;&gt;Node1</title>
<path fill="none" stroke="midnightblue" d="M72.5,-140.31C72.5,-131.45 72.5,-122.01 72.5,-112.79"/>
<polygon fill="none" stroke="midnightblue" points="69,-140.39 72.5,-150.39 76,-140.4 69,-140.39"/>
</g>
<!-- Node3 -->
<g id="node3" class="node">
<title>Node3</title>
<g id="a_node3"><a xlink:title=" ">
<polygon fill="white" stroke="#bfbfbf" points="53.5,-266.5 53.5,-323.5 91.5,-323.5 91.5,-266.5 53.5,-266.5"/>
<text text-anchor="middle" x="72.5" y="-311.5" font-family="Helvetica,sans-Serif" font-size="10.00">bool</text>
<polyline fill="none" stroke="#bfbfbf" points="53.5,-304.5 91.5,-304.5 "/>
<text text-anchor="middle" x="72.5" y="-292.5" font-family="Helvetica,sans-Serif" font-size="10.00"> </text>
<polyline fill="none" stroke="#bfbfbf" points="53.5,-285.5 91.5,-285.5 "/>
<text text-anchor="middle" x="72.5" y="-273.5" font-family="Helvetica,sans-Serif" font-size="10.00"> </text>
</a>
</g>
</g>
<!-- Node3&#45;&gt;Node2 -->
<g id="edge2" class="edge">
<title>Node3&#45;&gt;Node2</title>
<path fill="none" stroke="#404040" d="M72.5,-266.34C72.5,-255.53 72.5,-242.85 72.5,-230.77"/>
<polygon fill="none" stroke="#404040" points="72.5,-230.52 68.5,-224.52 72.5,-218.52 76.5,-224.52 72.5,-230.52"/>
<text text-anchor="middle" x="92" y="-240" font-family="Helvetica,sans-Serif" font-size="10.00"> +value</text>
</g>
</g>
</svg>
