<?xml version="1.0" encoding="UTF-8" standalone="no"?>
<!DOCTYPE svg PUBLIC "-//W3C//DTD SVG 1.1//EN"
 "http://www.w3.org/Graphics/SVG/1.1/DTD/svg11.dtd">
<!-- Generated by graphviz version 2.43.0 (0)
 -->
<!-- Title: doctest::CurrentTestCaseStats Pages: 1 -->
<svg width="356pt" height="215pt"
 viewBox="0.00 0.00 356.00 215.00" xmlns="http://www.w3.org/2000/svg" xmlns:xlink="http://www.w3.org/1999/xlink">
<g id="graph0" class="graph" transform="scale(1 1) rotate(0) translate(4 211)">
<title>doctest::CurrentTestCaseStats</title>
<polygon fill="white" stroke="transparent" points="-4,4 -4,-211 352,-211 352,4 -4,4"/>
<!-- Node1 -->
<g id="node1" class="node">
<title>Node1</title>
<g id="a_node1"><a xlink:title=" ">
<polygon fill="#bfbfbf" stroke="black" points="31,-0.5 31,-68.5 169,-68.5 169,-0.5 31,-0.5"/>
<text text-anchor="start" x="39" y="-56.5" font-family="Helvetica,sans-Serif" font-size="10.00">doctest::CurrentTestCase</text>
<text text-anchor="middle" x="100" y="-45.5" font-family="Helvetica,sans-Serif" font-size="10.00">Stats</text>
<polyline fill="none" stroke="black" points="31,-38.5 169,-38.5 "/>
<text text-anchor="middle" x="100" y="-26.5" font-family="Helvetica,sans-Serif" font-size="10.00"> </text>
<polyline fill="none" stroke="black" points="31,-19.5 169,-19.5 "/>
<text text-anchor="middle" x="100" y="-7.5" font-family="Helvetica,sans-Serif" font-size="10.00"> </text>
</a>
</g>
</g>
<!-- Node2 -->
<g id="node2" class="node">
<title>Node2</title>
<g id="a_node2"><a xlink:title=" ">
<polygon fill="white" stroke="#bfbfbf" points="0,-149.5 0,-206.5 50,-206.5 50,-149.5 0,-149.5"/>
<text text-anchor="middle" x="25" y="-194.5" font-family="Helvetica,sans-Serif" font-size="10.00">double</text>
<polyline fill="none" stroke="#bfbfbf" points="0,-187.5 50,-187.5 "/>
<text text-anchor="middle" x="25" y="-175.5" font-family="Helvetica,sans-Serif" font-size="10.00"> </text>
<polyline fill="none" stroke="#bfbfbf" points="0,-168.5 50,-168.5 "/>
<text text-anchor="middle" x="25" y="-156.5" font-family="Helvetica,sans-Serif" font-size="10.00"> </text>
</a>
</g>
</g>
<!-- Node2&#45;&gt;Node1 -->
<g id="edge1" class="edge">
<title>Node2&#45;&gt;Node1</title>
<path fill="none" stroke="#404040" d="M26.44,-149.47C28.43,-130.81 33.09,-106.15 44,-87 45.75,-83.93 47.74,-80.95 49.91,-78.05"/>
<polygon fill="none" stroke="#404040" points="50.12,-77.8 50.92,-70.63 57.85,-68.62 57.04,-75.78 50.12,-77.8"/>
<text text-anchor="middle" x="70" y="-106.5" font-family="Helvetica,sans-Serif" font-size="10.00"> +seconds</text>
</g>
<!-- Node3 -->
<g id="node3" class="node">
<title>Node3</title>
<g id="a_node3"><a xlink:title=" ">
<polygon fill="white" stroke="#bfbfbf" points="85.5,-149.5 85.5,-206.5 114.5,-206.5 114.5,-149.5 85.5,-149.5"/>
<text text-anchor="middle" x="100" y="-194.5" font-family="Helvetica,sans-Serif" font-size="10.00">int</text>
<polyline fill="none" stroke="#bfbfbf" points="85.5,-187.5 114.5,-187.5 "/>
<text text-anchor="middle" x="100" y="-175.5" font-family="Helvetica,sans-Serif" font-size="10.00"> </text>
<polyline fill="none" stroke="#bfbfbf" points="85.5,-168.5 114.5,-168.5 "/>
<text text-anchor="middle" x="100" y="-156.5" font-family="Helvetica,sans-Serif" font-size="10.00"> </text>
</a>
</g>
</g>
<!-- Node3&#45;&gt;Node1 -->
<g id="edge2" class="edge">
<title>Node3&#45;&gt;Node1</title>
<path fill="none" stroke="#404040" d="M100,-149.38C100,-129.84 100,-103.19 100,-80.59"/>
<polygon fill="none" stroke="#404040" points="100,-80.52 96,-74.52 100,-68.52 104,-74.52 100,-80.52"/>
<text text-anchor="start" x="100" y="-123" font-family="Helvetica,sans-Serif" font-size="10.00"> +numAssertsFailedCurrent</text>
<text text-anchor="middle" x="167" y="-112" font-family="Helvetica,sans-Serif" font-size="10.00">Test</text>
<text text-anchor="middle" x="167" y="-101" font-family="Helvetica,sans-Serif" font-size="10.00">+failure_flags</text>
<text text-anchor="middle" x="167" y="-90" font-family="Helvetica,sans-Serif" font-size="10.00">+numAssertsCurrentTest</text>
</g>
<!-- Node4 -->
<g id="node4" class="node">
<title>Node4</title>
<g id="a_node4"><a xlink:title=" ">
<polygon fill="white" stroke="#bfbfbf" points="238,-149.5 238,-206.5 276,-206.5 276,-149.5 238,-149.5"/>
<text text-anchor="middle" x="257" y="-194.5" font-family="Helvetica,sans-Serif" font-size="10.00">bool</text>
<polyline fill="none" stroke="#bfbfbf" points="238,-187.5 276,-187.5 "/>
<text text-anchor="middle" x="257" y="-175.5" font-family="Helvetica,sans-Serif" font-size="10.00"> </text>
<polyline fill="none" stroke="#bfbfbf" points="238,-168.5 276,-168.5 "/>
<text text-anchor="middle" x="257" y="-156.5" font-family="Helvetica,sans-Serif" font-size="10.00"> </text>
</a>
</g>
</g>
<!-- Node4&#45;&gt;Node1 -->
<g id="edge3" class="edge">
<title>Node4&#45;&gt;Node1</title>
<path fill="none" stroke="#404040" d="M256.75,-149.13C255.16,-129.58 250.01,-104.01 235,-87 220.71,-70.81 200.77,-59.68 180.59,-52.05"/>
<polygon fill="none" stroke="#404040" points="180.39,-51.98 173.41,-53.79 169.05,-48.05 176.03,-46.24 180.39,-51.98"/>
<text text-anchor="middle" x="301" y="-106.5" font-family="Helvetica,sans-Serif" font-size="10.00"> +testCaseSuccess</text>
</g>
</g>
</svg>
