<?xml version="1.0" encoding="UTF-8" standalone="no"?>
<!DOCTYPE svg PUBLIC "-//W3C//DTD SVG 1.1//EN"
 "http://www.w3.org/Graphics/SVG/1.1/DTD/svg11.dtd">
<!-- Generated by graphviz version 2.43.0 (0)
 -->
<!-- Title: doctest::detail::MessageBuilder Pages: 1 -->
<svg width="528pt" height="871pt"
 viewBox="0.00 0.00 528.06 871.00" xmlns="http://www.w3.org/2000/svg" xmlns:xlink="http://www.w3.org/1999/xlink">
<g id="graph0" class="graph" transform="scale(1 1) rotate(0) translate(4 867)">
<title>doctest::detail::MessageBuilder</title>
<polygon fill="white" stroke="transparent" points="-4,4 -4,-867 524.06,-867 524.06,4 -4,4"/>
<!-- Node1 -->
<g id="node1" class="node">
<title>Node1</title>
<g id="a_node1"><a xlink:title=" ">
<polygon fill="#bfbfbf" stroke="black" points="266.06,-0.5 266.06,-178.5 402.06,-178.5 402.06,-0.5 266.06,-0.5"/>
<text text-anchor="start" x="274.06" y="-166.5" font-family="Helvetica,sans-Serif" font-size="10.00">doctest::detail::Message</text>
<text text-anchor="middle" x="334.06" y="-155.5" font-family="Helvetica,sans-Serif" font-size="10.00">Builder</text>
<polyline fill="none" stroke="black" points="266.06,-148.5 402.06,-148.5 "/>
<text text-anchor="middle" x="334.06" y="-136.5" font-family="Helvetica,sans-Serif" font-size="10.00"> </text>
<polyline fill="none" stroke="black" points="266.06,-129.5 402.06,-129.5 "/>
<text text-anchor="start" x="274.06" y="-117.5" font-family="Helvetica,sans-Serif" font-size="10.00">+ MessageBuilder()</text>
<text text-anchor="start" x="274.06" y="-106.5" font-family="Helvetica,sans-Serif" font-size="10.00">+ MessageBuilder()</text>
<text text-anchor="start" x="274.06" y="-95.5" font-family="Helvetica,sans-Serif" font-size="10.00">+ MessageBuilder()</text>
<text text-anchor="start" x="274.06" y="-84.5" font-family="Helvetica,sans-Serif" font-size="10.00">+ operator=()</text>
<text text-anchor="start" x="274.06" y="-73.5" font-family="Helvetica,sans-Serif" font-size="10.00">+ operator=()</text>
<text text-anchor="start" x="274.06" y="-62.5" font-family="Helvetica,sans-Serif" font-size="10.00">+ ~MessageBuilder()</text>
<text text-anchor="start" x="274.06" y="-51.5" font-family="Helvetica,sans-Serif" font-size="10.00">+ operator,()</text>
<text text-anchor="start" x="274.06" y="-40.5" font-family="Helvetica,sans-Serif" font-size="10.00">+ operator&lt;&lt;()</text>
<text text-anchor="start" x="274.06" y="-29.5" font-family="Helvetica,sans-Serif" font-size="10.00">+ operator*()</text>
<text text-anchor="start" x="274.06" y="-18.5" font-family="Helvetica,sans-Serif" font-size="10.00">+ log()</text>
<text text-anchor="start" x="274.06" y="-7.5" font-family="Helvetica,sans-Serif" font-size="10.00">+ react()</text>
</a>
</g>
</g>
<!-- Node2 -->
<g id="node2" class="node">
<title>Node2</title>
<g id="a_node2"><a xlink:href="structdoctest_1_1MessageData.html" target="_top" xlink:title=" ">
<polygon fill="white" stroke="black" points="164.56,-226.5 164.56,-283.5 289.56,-283.5 289.56,-226.5 164.56,-226.5"/>
<text text-anchor="middle" x="227.06" y="-271.5" font-family="Helvetica,sans-Serif" font-size="10.00">doctest::MessageData</text>
<polyline fill="none" stroke="black" points="164.56,-264.5 289.56,-264.5 "/>
<text text-anchor="middle" x="227.06" y="-252.5" font-family="Helvetica,sans-Serif" font-size="10.00"> </text>
<polyline fill="none" stroke="black" points="164.56,-245.5 289.56,-245.5 "/>
<text text-anchor="middle" x="227.06" y="-233.5" font-family="Helvetica,sans-Serif" font-size="10.00"> </text>
</a>
</g>
</g>
<!-- Node2&#45;&gt;Node1 -->
<g id="edge1" class="edge">
<title>Node2&#45;&gt;Node1</title>
<path fill="none" stroke="midnightblue" d="M250.82,-217.7C258.48,-205.99 267.33,-192.47 276.34,-178.7"/>
<polygon fill="none" stroke="midnightblue" points="247.76,-215.98 245.21,-226.26 253.62,-219.81 247.76,-215.98"/>
</g>
<!-- Node3 -->
<g id="node3" class="node">
<title>Node3</title>
<g id="a_node3"><a xlink:title=" ">
<polygon fill="white" stroke="#bfbfbf" points="13.06,-800 13.06,-857 51.06,-857 51.06,-800 13.06,-800"/>
<text text-anchor="middle" x="32.06" y="-845" font-family="Helvetica,sans-Serif" font-size="10.00">char</text>
<polyline fill="none" stroke="#bfbfbf" points="13.06,-838 51.06,-838 "/>
<text text-anchor="middle" x="32.06" y="-826" font-family="Helvetica,sans-Serif" font-size="10.00"> </text>
<polyline fill="none" stroke="#bfbfbf" points="13.06,-819 51.06,-819 "/>
<text text-anchor="middle" x="32.06" y="-807" font-family="Helvetica,sans-Serif" font-size="10.00"> </text>
</a>
</g>
</g>
<!-- Node3&#45;&gt;Node2 -->
<g id="edge2" class="edge">
<title>Node3&#45;&gt;Node2</title>
<path fill="none" stroke="#404040" d="M26.55,-799.82C19.9,-764.86 9.1,-702.76 5.06,-649 -5.86,-503.78 -6.35,-445.16 84.06,-331 101.8,-308.6 128.08,-292.15 153.29,-280.46"/>
<polygon fill="none" stroke="#404040" points="153.39,-280.41 157.28,-274.34 164.38,-275.58 160.5,-281.66 153.39,-280.41"/>
<text text-anchor="middle" x="26.06" y="-641" font-family="Helvetica,sans-Serif" font-size="10.00"> +m_file</text>
</g>
<!-- Node4 -->
<g id="node4" class="node">
<title>Node4</title>
<g id="a_node4"><a xlink:href="classdoctest_1_1String.html" target="_top" xlink:title=" ">
<polygon fill="white" stroke="black" points="93.56,-331.5 93.56,-619.5 186.56,-619.5 186.56,-331.5 93.56,-331.5"/>
<text text-anchor="middle" x="140.06" y="-607.5" font-family="Helvetica,sans-Serif" font-size="10.00">doctest::String</text>
<polyline fill="none" stroke="black" points="93.56,-600.5 186.56,-600.5 "/>
<text text-anchor="middle" x="140.06" y="-588.5" font-family="Helvetica,sans-Serif" font-size="10.00"> </text>
<polyline fill="none" stroke="black" points="93.56,-581.5 186.56,-581.5 "/>
<text text-anchor="start" x="101.56" y="-569.5" font-family="Helvetica,sans-Serif" font-size="10.00">+ String()</text>
<text text-anchor="start" x="101.56" y="-558.5" font-family="Helvetica,sans-Serif" font-size="10.00">+ ~String()</text>
<text text-anchor="start" x="101.56" y="-547.5" font-family="Helvetica,sans-Serif" font-size="10.00">+ String()</text>
<text text-anchor="start" x="101.56" y="-536.5" font-family="Helvetica,sans-Serif" font-size="10.00">+ String()</text>
<text text-anchor="start" x="101.56" y="-525.5" font-family="Helvetica,sans-Serif" font-size="10.00">+ String()</text>
<text text-anchor="start" x="101.56" y="-514.5" font-family="Helvetica,sans-Serif" font-size="10.00">+ String()</text>
<text text-anchor="start" x="101.56" y="-503.5" font-family="Helvetica,sans-Serif" font-size="10.00">+ operator=()</text>
<text text-anchor="start" x="101.56" y="-492.5" font-family="Helvetica,sans-Serif" font-size="10.00">+ operator+=()</text>
<text text-anchor="start" x="101.56" y="-481.5" font-family="Helvetica,sans-Serif" font-size="10.00">+ String()</text>
<text text-anchor="start" x="101.56" y="-470.5" font-family="Helvetica,sans-Serif" font-size="10.00">+ operator=()</text>
<text text-anchor="start" x="101.56" y="-459.5" font-family="Helvetica,sans-Serif" font-size="10.00">+ operator[]()</text>
<text text-anchor="start" x="101.56" y="-448.5" font-family="Helvetica,sans-Serif" font-size="10.00">+ operator[]()</text>
<text text-anchor="start" x="101.56" y="-437.5" font-family="Helvetica,sans-Serif" font-size="10.00">+ c_str()</text>
<text text-anchor="start" x="101.56" y="-426.5" font-family="Helvetica,sans-Serif" font-size="10.00">+ c_str()</text>
<text text-anchor="start" x="101.56" y="-415.5" font-family="Helvetica,sans-Serif" font-size="10.00">+ size()</text>
<text text-anchor="start" x="101.56" y="-404.5" font-family="Helvetica,sans-Serif" font-size="10.00">+ capacity()</text>
<text text-anchor="start" x="101.56" y="-393.5" font-family="Helvetica,sans-Serif" font-size="10.00">+ substr()</text>
<text text-anchor="start" x="101.56" y="-382.5" font-family="Helvetica,sans-Serif" font-size="10.00">+ substr()</text>
<text text-anchor="start" x="101.56" y="-371.5" font-family="Helvetica,sans-Serif" font-size="10.00">+ find()</text>
<text text-anchor="start" x="101.56" y="-360.5" font-family="Helvetica,sans-Serif" font-size="10.00">+ rfind()</text>
<text text-anchor="start" x="101.56" y="-349.5" font-family="Helvetica,sans-Serif" font-size="10.00">+ compare()</text>
<text text-anchor="start" x="101.56" y="-338.5" font-family="Helvetica,sans-Serif" font-size="10.00">+ compare()</text>
</a>
</g>
</g>
<!-- Node3&#45;&gt;Node4 -->
<g id="edge8" class="edge">
<title>Node3&#45;&gt;Node4</title>
<path fill="none" stroke="#404040" d="M31.15,-799.97C30.79,-767.55 32.42,-712.38 45.06,-667 54.87,-631.81 71.26,-595.39 87.7,-563.94"/>
<polygon fill="none" stroke="#404040" points="87.87,-563.63 87.15,-556.46 93.5,-553.04 94.22,-560.21 87.87,-563.63"/>
<text text-anchor="middle" x="59.06" y="-699" font-family="Helvetica,sans-Serif" font-size="10.00"> +buf</text>
</g>
<!-- Node6 -->
<g id="node6" class="node">
<title>Node6</title>
<g id="a_node6"><a xlink:title="OCLINT avoid private static members.">
<polygon fill="white" stroke="#bfbfbf" points="82.06,-673 82.06,-730 198.06,-730 198.06,-673 82.06,-673"/>
<text text-anchor="middle" x="140.06" y="-718" font-family="Helvetica,sans-Serif" font-size="10.00">doctest::String::view</text>
<polyline fill="none" stroke="#bfbfbf" points="82.06,-711 198.06,-711 "/>
<text text-anchor="middle" x="140.06" y="-699" font-family="Helvetica,sans-Serif" font-size="10.00"> </text>
<polyline fill="none" stroke="#bfbfbf" points="82.06,-692 198.06,-692 "/>
<text text-anchor="middle" x="140.06" y="-680" font-family="Helvetica,sans-Serif" font-size="10.00"> </text>
</a>
</g>
</g>
<!-- Node3&#45;&gt;Node6 -->
<g id="edge6" class="edge">
<title>Node3&#45;&gt;Node6</title>
<path fill="none" stroke="#404040" d="M51.27,-804.38C54.21,-800.89 57.21,-797.34 60.06,-794 75.42,-776.03 92.66,-756.27 107.18,-739.73"/>
<polygon fill="none" stroke="#404040" points="107.47,-739.4 108.43,-732.26 115.39,-730.39 114.43,-737.54 107.47,-739.4"/>
<text text-anchor="middle" x="105.56" y="-762.5" font-family="Helvetica,sans-Serif" font-size="10.00"> +ptr</text>
</g>
<!-- Node4&#45;&gt;Node2 -->
<g id="edge3" class="edge">
<title>Node4&#45;&gt;Node2</title>
<path fill="none" stroke="#404040" d="M154.54,-331.22C158.2,-321 162.65,-311.14 168.06,-302 170.08,-298.59 172.46,-295.34 175.07,-292.26"/>
<polygon fill="none" stroke="#404040" points="175.18,-292.15 176.49,-285.06 183.54,-283.54 182.23,-290.63 175.18,-292.15"/>
<text text-anchor="middle" x="195.56" y="-305" font-family="Helvetica,sans-Serif" font-size="10.00"> +m_string</text>
</g>
<!-- Node5 -->
<g id="node5" class="node">
<title>Node5</title>
<g id="a_node5"><a xlink:title=" ">
<polygon fill="white" stroke="#bfbfbf" points="216.56,-667.5 216.56,-735.5 373.56,-735.5 373.56,-667.5 216.56,-667.5"/>
<text text-anchor="start" x="224.56" y="-723.5" font-family="Helvetica,sans-Serif" font-size="10.00">static DOCTEST_CONSTEXPR</text>
<text text-anchor="middle" x="295.06" y="-712.5" font-family="Helvetica,sans-Serif" font-size="10.00"> size_type</text>
<polyline fill="none" stroke="#bfbfbf" points="216.56,-705.5 373.56,-705.5 "/>
<text text-anchor="middle" x="295.06" y="-693.5" font-family="Helvetica,sans-Serif" font-size="10.00"> </text>
<polyline fill="none" stroke="#bfbfbf" points="216.56,-686.5 373.56,-686.5 "/>
<text text-anchor="middle" x="295.06" y="-674.5" font-family="Helvetica,sans-Serif" font-size="10.00"> </text>
</a>
</g>
</g>
<!-- Node5&#45;&gt;Node4 -->
<g id="edge4" class="edge">
<title>Node5&#45;&gt;Node4</title>
<path fill="none" stroke="#404040" d="M244.38,-667.39C227.26,-654.26 209.18,-637.99 196.06,-620 195.13,-618.72 194.21,-617.43 193.31,-616.12"/>
<polygon fill="none" stroke="#404040" points="193.15,-615.87 186.53,-613 186.63,-605.79 193.25,-608.66 193.15,-615.87"/>
<text text-anchor="middle" x="239.56" y="-641" font-family="Helvetica,sans-Serif" font-size="10.00"> +npos</text>
</g>
<!-- Node6&#45;&gt;Node4 -->
<g id="edge5" class="edge">
<title>Node6&#45;&gt;Node4</title>
<path fill="none" stroke="#404040" d="M140.06,-672.58C140.06,-661.18 140.06,-647.04 140.06,-631.61"/>
<polygon fill="none" stroke="#404040" points="140.06,-631.58 136.06,-625.58 140.06,-619.58 144.06,-625.58 140.06,-631.58"/>
<text text-anchor="middle" x="157.06" y="-641" font-family="Helvetica,sans-Serif" font-size="10.00"> +data</text>
</g>
<!-- Node7 -->
<g id="node7" class="node">
<title>Node7</title>
<g id="a_node7"><a xlink:title=" ">
<polygon fill="white" stroke="#bfbfbf" points="69.06,-794.5 69.06,-862.5 217.06,-862.5 217.06,-794.5 69.06,-794.5"/>
<text text-anchor="start" x="77.06" y="-850.5" font-family="Helvetica,sans-Serif" font-size="10.00">DOCTEST_CONFIG_STRING</text>
<text text-anchor="middle" x="143.06" y="-839.5" font-family="Helvetica,sans-Serif" font-size="10.00">_SIZE_TYPE</text>
<polyline fill="none" stroke="#bfbfbf" points="69.06,-832.5 217.06,-832.5 "/>
<text text-anchor="middle" x="143.06" y="-820.5" font-family="Helvetica,sans-Serif" font-size="10.00"> </text>
<polyline fill="none" stroke="#bfbfbf" points="69.06,-813.5 217.06,-813.5 "/>
<text text-anchor="middle" x="143.06" y="-801.5" font-family="Helvetica,sans-Serif" font-size="10.00"> </text>
</a>
</g>
</g>
<!-- Node7&#45;&gt;Node6 -->
<g id="edge7" class="edge">
<title>Node7&#45;&gt;Node6</title>
<path fill="none" stroke="#404040" d="M142.27,-794.33C141.88,-778.42 141.42,-759.24 141.02,-742.52"/>
<polygon fill="none" stroke="#404040" points="141.02,-742.32 136.88,-736.42 140.73,-730.32 144.87,-736.22 141.02,-742.32"/>
<text text-anchor="middle" x="168.56" y="-768" font-family="Helvetica,sans-Serif" font-size="10.00"> +capacity</text>
<text text-anchor="middle" x="168.56" y="-757" font-family="Helvetica,sans-Serif" font-size="10.00">+size</text>
</g>
<!-- Node8 -->
<g id="node8" class="node">
<title>Node8</title>
<g id="a_node8"><a xlink:title=" ">
<polygon fill="white" stroke="#bfbfbf" points="205.06,-447 205.06,-504 249.06,-504 249.06,-447 205.06,-447"/>
<text text-anchor="middle" x="227.06" y="-492" font-family="Helvetica,sans-Serif" font-size="10.00">Enum</text>
<polyline fill="none" stroke="#bfbfbf" points="205.06,-485 249.06,-485 "/>
<text text-anchor="middle" x="227.06" y="-473" font-family="Helvetica,sans-Serif" font-size="10.00"> </text>
<polyline fill="none" stroke="#bfbfbf" points="205.06,-466 249.06,-466 "/>
<text text-anchor="middle" x="227.06" y="-454" font-family="Helvetica,sans-Serif" font-size="10.00"> </text>
</a>
</g>
</g>
<!-- Node8&#45;&gt;Node2 -->
<g id="edge9" class="edge">
<title>Node8&#45;&gt;Node2</title>
<path fill="none" stroke="#404040" d="M227.06,-446.83C227.06,-408.68 227.06,-339.7 227.06,-295.95"/>
<polygon fill="none" stroke="#404040" points="227.06,-295.79 223.06,-289.79 227.06,-283.79 231.06,-289.79 227.06,-295.79"/>
<text text-anchor="middle" x="260.56" y="-305" font-family="Helvetica,sans-Serif" font-size="10.00"> +m_severity</text>
</g>
<!-- Node9 -->
<g id="node9" class="node">
<title>Node9</title>
<g id="a_node9"><a xlink:title=" ">
<polygon fill="white" stroke="#bfbfbf" points="302.56,-447 302.56,-504 331.56,-504 331.56,-447 302.56,-447"/>
<text text-anchor="middle" x="317.06" y="-492" font-family="Helvetica,sans-Serif" font-size="10.00">int</text>
<polyline fill="none" stroke="#bfbfbf" points="302.56,-485 331.56,-485 "/>
<text text-anchor="middle" x="317.06" y="-473" font-family="Helvetica,sans-Serif" font-size="10.00"> </text>
<polyline fill="none" stroke="#bfbfbf" points="302.56,-466 331.56,-466 "/>
<text text-anchor="middle" x="317.06" y="-454" font-family="Helvetica,sans-Serif" font-size="10.00"> </text>
</a>
</g>
</g>
<!-- Node9&#45;&gt;Node2 -->
<g id="edge10" class="edge">
<title>Node9&#45;&gt;Node2</title>
<path fill="none" stroke="#404040" d="M320.19,-446.83C322.86,-410.72 322.66,-346.87 295.06,-302 292.87,-298.43 290.28,-295.08 287.42,-291.93"/>
<polygon fill="none" stroke="#404040" points="287.41,-291.92 280.31,-290.67 278.73,-283.63 285.84,-284.88 287.41,-291.92"/>
<text text-anchor="middle" x="322.56" y="-305" font-family="Helvetica,sans-Serif" font-size="10.00"> +m_line</text>
</g>
<!-- Node10 -->
<g id="node10" class="node">
<title>Node10</title>
<g id="a_node10"><a xlink:title=" ">
<polygon fill="white" stroke="#bfbfbf" points="315.06,-226.5 315.06,-283.5 353.06,-283.5 353.06,-226.5 315.06,-226.5"/>
<text text-anchor="middle" x="334.06" y="-271.5" font-family="Helvetica,sans-Serif" font-size="10.00">bool</text>
<polyline fill="none" stroke="#bfbfbf" points="315.06,-264.5 353.06,-264.5 "/>
<text text-anchor="middle" x="334.06" y="-252.5" font-family="Helvetica,sans-Serif" font-size="10.00"> </text>
<polyline fill="none" stroke="#bfbfbf" points="315.06,-245.5 353.06,-245.5 "/>
<text text-anchor="middle" x="334.06" y="-233.5" font-family="Helvetica,sans-Serif" font-size="10.00"> </text>
</a>
</g>
</g>
<!-- Node10&#45;&gt;Node1 -->
<g id="edge11" class="edge">
<title>Node10&#45;&gt;Node1</title>
<path fill="none" stroke="#404040" d="M334.06,-226.26C334.06,-216.01 334.06,-203.7 334.06,-190.74"/>
<polygon fill="none" stroke="#404040" points="334.06,-190.7 330.06,-184.7 334.06,-178.7 338.06,-184.7 334.06,-190.7"/>
<text text-anchor="middle" x="356.56" y="-200" font-family="Helvetica,sans-Serif" font-size="10.00"> +logged</text>
</g>
<!-- Node11 -->
<g id="node11" class="node">
<title>Node11</title>
<g id="a_node11"><a xlink:title="STL class.">
<polygon fill="white" stroke="#bfbfbf" points="374.06,-226.5 374.06,-283.5 452.06,-283.5 452.06,-226.5 374.06,-226.5"/>
<text text-anchor="middle" x="413.06" y="-271.5" font-family="Helvetica,sans-Serif" font-size="10.00">std::ostream</text>
<polyline fill="none" stroke="#bfbfbf" points="374.06,-264.5 452.06,-264.5 "/>
<text text-anchor="middle" x="413.06" y="-252.5" font-family="Helvetica,sans-Serif" font-size="10.00"> </text>
<polyline fill="none" stroke="#bfbfbf" points="374.06,-245.5 452.06,-245.5 "/>
<text text-anchor="middle" x="413.06" y="-233.5" font-family="Helvetica,sans-Serif" font-size="10.00"> </text>
</a>
</g>
</g>
<!-- Node11&#45;&gt;Node1 -->
<g id="edge12" class="edge">
<title>Node11&#45;&gt;Node1</title>
<path fill="none" stroke="#404040" d="M399.66,-226.26C394.55,-215.7 388.4,-202.95 381.92,-189.55"/>
<polygon fill="none" stroke="#404040" points="381.9,-189.5 375.69,-185.84 376.68,-178.7 382.89,-182.36 381.9,-189.5"/>
<text text-anchor="middle" x="420.56" y="-200" font-family="Helvetica,sans-Serif" font-size="10.00"> +m_stream</text>
</g>
<!-- Node12 -->
<g id="node12" class="node">
<title>Node12</title>
<g id="a_node12"><a xlink:title="STL class.">
<polygon fill="white" stroke="#bfbfbf" points="375.56,-441.5 375.56,-509.5 484.56,-509.5 484.56,-441.5 375.56,-441.5"/>
<text text-anchor="start" x="383.56" y="-497.5" font-family="Helvetica,sans-Serif" font-size="10.00">std::basic_ostream</text>
<text text-anchor="middle" x="430.06" y="-486.5" font-family="Helvetica,sans-Serif" font-size="10.00">&lt; char &gt;</text>
<polyline fill="none" stroke="#bfbfbf" points="375.56,-479.5 484.56,-479.5 "/>
<text text-anchor="middle" x="430.06" y="-467.5" font-family="Helvetica,sans-Serif" font-size="10.00"> </text>
<polyline fill="none" stroke="#bfbfbf" points="375.56,-460.5 484.56,-460.5 "/>
<text text-anchor="middle" x="430.06" y="-448.5" font-family="Helvetica,sans-Serif" font-size="10.00"> </text>
</a>
</g>
</g>
<!-- Node12&#45;&gt;Node11 -->
<g id="edge13" class="edge">
<title>Node12&#45;&gt;Node11</title>
<path fill="none" stroke="midnightblue" d="M426.7,-431.23C423.28,-387.35 418.1,-320.79 415.21,-283.6"/>
<polygon fill="none" stroke="midnightblue" points="423.22,-431.62 427.48,-441.31 430.19,-431.07 423.22,-431.62"/>
</g>
<!-- Node13 -->
<g id="node13" class="node">
<title>Node13</title>
<g id="a_node13"><a xlink:title="STL class.">
<polygon fill="white" stroke="#bfbfbf" points="392.06,-673 392.06,-730 520.06,-730 520.06,-673 392.06,-673"/>
<text text-anchor="middle" x="456.06" y="-718" font-family="Helvetica,sans-Serif" font-size="10.00">std::basic_ios&lt; Char &gt;</text>
<polyline fill="none" stroke="#bfbfbf" points="392.06,-711 520.06,-711 "/>
<text text-anchor="middle" x="456.06" y="-699" font-family="Helvetica,sans-Serif" font-size="10.00"> </text>
<polyline fill="none" stroke="#bfbfbf" points="392.06,-692 520.06,-692 "/>
<text text-anchor="middle" x="456.06" y="-680" font-family="Helvetica,sans-Serif" font-size="10.00"> </text>
</a>
</g>
</g>
<!-- Node13&#45;&gt;Node12 -->
<g id="edge14" class="edge">
<title>Node13&#45;&gt;Node12</title>
<path fill="none" stroke="midnightblue" d="M451.65,-662.52C446.67,-619.57 438.63,-550.3 433.89,-509.51"/>
<polygon fill="none" stroke="midnightblue" points="448.19,-663.05 452.82,-672.58 455.15,-662.25 448.19,-663.05"/>
</g>
<!-- Node14 -->
<g id="node14" class="node">
<title>Node14</title>
<g id="a_node14"><a xlink:title="STL class.">
<polygon fill="white" stroke="#bfbfbf" points="416.06,-800 416.06,-857 496.06,-857 496.06,-800 416.06,-800"/>
<text text-anchor="middle" x="456.06" y="-845" font-family="Helvetica,sans-Serif" font-size="10.00">std::ios_base</text>
<polyline fill="none" stroke="#bfbfbf" points="416.06,-838 496.06,-838 "/>
<text text-anchor="middle" x="456.06" y="-826" font-family="Helvetica,sans-Serif" font-size="10.00"> </text>
<polyline fill="none" stroke="#bfbfbf" points="416.06,-819 496.06,-819 "/>
<text text-anchor="middle" x="456.06" y="-807" font-family="Helvetica,sans-Serif" font-size="10.00"> </text>
</a>
</g>
</g>
<!-- Node14&#45;&gt;Node13 -->
<g id="edge15" class="edge">
<title>Node14&#45;&gt;Node13</title>
<path fill="none" stroke="midnightblue" d="M456.06,-789.56C456.06,-770.42 456.06,-747.63 456.06,-730.16"/>
<polygon fill="none" stroke="midnightblue" points="452.56,-789.76 456.06,-799.76 459.56,-789.76 452.56,-789.76"/>
</g>
</g>
</svg>
