<?xml version="1.0" encoding="UTF-8" standalone="no"?>
<!DOCTYPE svg PUBLIC "-//W3C//DTD SVG 1.1//EN"
 "http://www.w3.org/Graphics/SVG/1.1/DTD/svg11.dtd">
<!-- Generated by graphviz version 2.43.0 (0)
 -->
<!-- Title: doctest::detail::ContextScopeBase Pages: 1 -->
<svg width="250pt" height="248pt"
 viewBox="0.00 0.00 249.50 248.00" xmlns="http://www.w3.org/2000/svg" xmlns:xlink="http://www.w3.org/1999/xlink">
<g id="graph0" class="graph" transform="scale(1 1) rotate(0) translate(4 244)">
<title>doctest::detail::ContextScopeBase</title>
<polygon fill="white" stroke="transparent" points="-4,4 -4,-244 245.5,-244 245.5,4 -4,4"/>
<!-- Node1 -->
<g id="node1" class="node">
<title>Node1</title>
<g id="a_node1"><a xlink:title=" ">
<polygon fill="#bfbfbf" stroke="black" points="48,-0.5 48,-134.5 183,-134.5 183,-0.5 48,-0.5"/>
<text text-anchor="start" x="56" y="-122.5" font-family="Helvetica,sans-Serif" font-size="10.00">doctest::detail::Context</text>
<text text-anchor="middle" x="115.5" y="-111.5" font-family="Helvetica,sans-Serif" font-size="10.00">ScopeBase</text>
<polyline fill="none" stroke="black" points="48,-104.5 183,-104.5 "/>
<text text-anchor="middle" x="115.5" y="-92.5" font-family="Helvetica,sans-Serif" font-size="10.00"> </text>
<polyline fill="none" stroke="black" points="48,-85.5 183,-85.5 "/>
<text text-anchor="start" x="56" y="-73.5" font-family="Helvetica,sans-Serif" font-size="10.00">+ ContextScopeBase()</text>
<text text-anchor="start" x="56" y="-62.5" font-family="Helvetica,sans-Serif" font-size="10.00">+ operator=()</text>
<text text-anchor="start" x="56" y="-51.5" font-family="Helvetica,sans-Serif" font-size="10.00">+ operator=()</text>
<text text-anchor="start" x="56" y="-40.5" font-family="Helvetica,sans-Serif" font-size="10.00">+ ~ContextScopeBase()</text>
<text text-anchor="start" x="56" y="-29.5" font-family="Helvetica,sans-Serif" font-size="10.00"># ContextScopeBase()</text>
<text text-anchor="start" x="56" y="-18.5" font-family="Helvetica,sans-Serif" font-size="10.00"># ContextScopeBase()</text>
<text text-anchor="start" x="56" y="-7.5" font-family="Helvetica,sans-Serif" font-size="10.00"># destroy()</text>
</a>
</g>
</g>
<!-- Node2 -->
<g id="node2" class="node">
<title>Node2</title>
<g id="a_node2"><a xlink:href="structdoctest_1_1IContextScope.html" target="_top" xlink:title=" ">
<polygon fill="white" stroke="black" points="0,-182.5 0,-239.5 129,-239.5 129,-182.5 0,-182.5"/>
<text text-anchor="middle" x="64.5" y="-227.5" font-family="Helvetica,sans-Serif" font-size="10.00">doctest::IContextScope</text>
<polyline fill="none" stroke="black" points="0,-220.5 129,-220.5 "/>
<text text-anchor="middle" x="64.5" y="-208.5" font-family="Helvetica,sans-Serif" font-size="10.00"> </text>
<polyline fill="none" stroke="black" points="0,-201.5 129,-201.5 "/>
<text text-anchor="start" x="8" y="-189.5" font-family="Helvetica,sans-Serif" font-size="10.00">+ stringify()</text>
</a>
</g>
</g>
<!-- Node2&#45;&gt;Node1 -->
<g id="edge1" class="edge">
<title>Node2&#45;&gt;Node1</title>
<path fill="none" stroke="midnightblue" d="M77.85,-172.95C82.08,-161.22 86.89,-147.88 91.62,-134.75"/>
<polygon fill="none" stroke="midnightblue" points="74.55,-171.79 74.45,-182.38 81.14,-174.16 74.55,-171.79"/>
</g>
<!-- Node3 -->
<g id="node3" class="node">
<title>Node3</title>
<g id="a_node3"><a xlink:title=" ">
<polygon fill="white" stroke="#bfbfbf" points="147.5,-182.5 147.5,-239.5 185.5,-239.5 185.5,-182.5 147.5,-182.5"/>
<text text-anchor="middle" x="166.5" y="-227.5" font-family="Helvetica,sans-Serif" font-size="10.00">bool</text>
<polyline fill="none" stroke="#bfbfbf" points="147.5,-220.5 185.5,-220.5 "/>
<text text-anchor="middle" x="166.5" y="-208.5" font-family="Helvetica,sans-Serif" font-size="10.00"> </text>
<polyline fill="none" stroke="#bfbfbf" points="147.5,-201.5 185.5,-201.5 "/>
<text text-anchor="middle" x="166.5" y="-189.5" font-family="Helvetica,sans-Serif" font-size="10.00"> </text>
</a>
</g>
</g>
<!-- Node3&#45;&gt;Node1 -->
<g id="edge2" class="edge">
<title>Node3&#45;&gt;Node1</title>
<path fill="none" stroke="#404040" d="M156.55,-182.38C152.73,-171.81 148.17,-159.15 143.5,-146.18"/>
<polygon fill="none" stroke="#404040" points="143.45,-146.04 137.65,-141.75 139.38,-134.75 145.18,-139.04 143.45,-146.04"/>
<text text-anchor="middle" x="195" y="-156" font-family="Helvetica,sans-Serif" font-size="10.00"> #need_to_destroy</text>
</g>
</g>
</svg>
