<?xml version="1.0" encoding="UTF-8" standalone="no"?>
<!DOCTYPE svg PUBLIC "-//W3C//DTD SVG 1.1//EN"
 "http://www.w3.org/Graphics/SVG/1.1/DTD/svg11.dtd">
<!-- Generated by graphviz version 2.43.0 (0)
 -->
<!-- Title: doctest::detail::ResultBuilder Pages: 1 -->
<svg width="166pt" height="358pt"
 viewBox="0.00 0.00 166.00 358.00" xmlns="http://www.w3.org/2000/svg" xmlns:xlink="http://www.w3.org/1999/xlink">
<g id="graph0" class="graph" transform="scale(1 1) rotate(0) translate(4 354)">
<title>doctest::detail::ResultBuilder</title>
<polygon fill="white" stroke="transparent" points="-4,4 -4,-354 162,-354 162,4 -4,4"/>
<!-- Node1 -->
<g id="node1" class="node">
<title>Node1</title>
<g id="a_node1"><a xlink:title=" ">
<polygon fill="#bfbfbf" stroke="black" points="0,-0.5 0,-134.5 158,-134.5 158,-0.5 0,-0.5"/>
<text text-anchor="middle" x="79" y="-122.5" font-family="Helvetica,sans-Serif" font-size="10.00">doctest::detail::ResultBuilder</text>
<polyline fill="none" stroke="black" points="0,-115.5 158,-115.5 "/>
<text text-anchor="middle" x="79" y="-103.5" font-family="Helvetica,sans-Serif" font-size="10.00"> </text>
<polyline fill="none" stroke="black" points="0,-96.5 158,-96.5 "/>
<text text-anchor="start" x="8" y="-84.5" font-family="Helvetica,sans-Serif" font-size="10.00">+ ResultBuilder()</text>
<text text-anchor="start" x="8" y="-73.5" font-family="Helvetica,sans-Serif" font-size="10.00">+ ResultBuilder()</text>
<text text-anchor="start" x="8" y="-62.5" font-family="Helvetica,sans-Serif" font-size="10.00">+ setResult()</text>
<text text-anchor="start" x="8" y="-51.5" font-family="Helvetica,sans-Serif" font-size="10.00">+ binary_assert()</text>
<text text-anchor="start" x="8" y="-40.5" font-family="Helvetica,sans-Serif" font-size="10.00">+ unary_assert()</text>
<text text-anchor="start" x="8" y="-29.5" font-family="Helvetica,sans-Serif" font-size="10.00">+ translateException()</text>
<text text-anchor="start" x="8" y="-18.5" font-family="Helvetica,sans-Serif" font-size="10.00">+ log()</text>
<text text-anchor="start" x="8" y="-7.5" font-family="Helvetica,sans-Serif" font-size="10.00">+ react()</text>
</a>
</g>
</g>
<!-- Node2 -->
<g id="node2" class="node">
<title>Node2</title>
<g id="a_node2"><a xlink:href="structdoctest_1_1AssertData.html" target="_top" xlink:title=" ">
<polygon fill="white" stroke="black" points="17,-171.5 17,-349.5 141,-349.5 141,-171.5 17,-171.5"/>
<text text-anchor="middle" x="79" y="-337.5" font-family="Helvetica,sans-Serif" font-size="10.00">doctest::AssertData</text>
<polyline fill="none" stroke="black" points="17,-330.5 141,-330.5 "/>
<text text-anchor="start" x="25" y="-318.5" font-family="Helvetica,sans-Serif" font-size="10.00">+ m_test_case</text>
<text text-anchor="start" x="25" y="-307.5" font-family="Helvetica,sans-Serif" font-size="10.00">+ m_at</text>
<text text-anchor="start" x="25" y="-296.5" font-family="Helvetica,sans-Serif" font-size="10.00">+ m_file</text>
<text text-anchor="start" x="25" y="-285.5" font-family="Helvetica,sans-Serif" font-size="10.00">+ m_line</text>
<text text-anchor="start" x="25" y="-274.5" font-family="Helvetica,sans-Serif" font-size="10.00">+ m_expr</text>
<text text-anchor="start" x="25" y="-263.5" font-family="Helvetica,sans-Serif" font-size="10.00">+ m_failed</text>
<text text-anchor="start" x="25" y="-252.5" font-family="Helvetica,sans-Serif" font-size="10.00">+ m_threw</text>
<text text-anchor="start" x="25" y="-241.5" font-family="Helvetica,sans-Serif" font-size="10.00">+ m_exception</text>
<text text-anchor="start" x="25" y="-230.5" font-family="Helvetica,sans-Serif" font-size="10.00">+ m_decomp</text>
<text text-anchor="start" x="25" y="-219.5" font-family="Helvetica,sans-Serif" font-size="10.00">+ m_threw_as</text>
<text text-anchor="start" x="25" y="-208.5" font-family="Helvetica,sans-Serif" font-size="10.00">+ m_exception_type</text>
<text text-anchor="start" x="25" y="-197.5" font-family="Helvetica,sans-Serif" font-size="10.00">+ m_exception_string</text>
<polyline fill="none" stroke="black" points="17,-190.5 141,-190.5 "/>
<text text-anchor="start" x="25" y="-178.5" font-family="Helvetica,sans-Serif" font-size="10.00">+ AssertData()</text>
</a>
</g>
</g>
<!-- Node2&#45;&gt;Node1 -->
<g id="edge1" class="edge">
<title>Node2&#45;&gt;Node1</title>
<path fill="none" stroke="midnightblue" d="M79,-161.15C79,-152.18 79,-143.24 79,-134.66"/>
<polygon fill="none" stroke="midnightblue" points="75.5,-161.27 79,-171.27 82.5,-161.27 75.5,-161.27"/>
</g>
</g>
</svg>
