<?xml version="1.0" encoding="UTF-8" standalone="no"?>
<!DOCTYPE svg PUBLIC "-//W3C//DTD SVG 1.1//EN"
 "http://www.w3.org/Graphics/SVG/1.1/DTD/svg11.dtd">
<!-- Generated by graphviz version 2.43.0 (0)
 -->
<!-- Title: tests/teste_admin.hpp Pages: 1 -->
<svg width="2208pt" height="263pt"
 viewBox="0.00 0.00 2208.00 263.00" xmlns="http://www.w3.org/2000/svg" xmlns:xlink="http://www.w3.org/1999/xlink">
<g id="graph0" class="graph" transform="scale(1 1) rotate(0) translate(4 259)">
<title>tests/teste_admin.hpp</title>
<polygon fill="white" stroke="transparent" points="-4,4 -4,-259 2204,-259 2204,4 -4,4"/>
<!-- Node1 -->
<g id="node1" class="node">
<title>Node1</title>
<g id="a_node1"><a xlink:title=" ">
<polygon fill="#bfbfbf" stroke="black" points="675.5,-235.5 675.5,-254.5 800.5,-254.5 800.5,-235.5 675.5,-235.5"/>
<text text-anchor="middle" x="738" y="-242.5" font-family="Helvetica,sans-Serif" font-size="10.00">tests/teste_admin.hpp</text>
</a>
</g>
</g>
<!-- Node2 -->
<g id="node2" class="node">
<title>Node2</title>
<g id="a_node2"><a xlink:href="doctest_8h.html" target="_top" xlink:title=" ">
<polygon fill="white" stroke="black" points="1144.5,-174 1144.5,-193 1271.5,-193 1271.5,-174 1144.5,-174"/>
<text text-anchor="middle" x="1208" y="-181" font-family="Helvetica,sans-Serif" font-size="10.00">../third_party/doctest.h</text>
</a>
</g>
</g>
<!-- Node1&#45;&gt;Node2 -->
<g id="edge1" class="edge">
<title>Node1&#45;&gt;Node2</title>
<path fill="none" stroke="midnightblue" d="M800.9,-236.04C887.33,-225.1 1042.53,-205.45 1134.3,-193.83"/>
<polygon fill="midnightblue" stroke="midnightblue" points="1134.87,-197.29 1144.35,-192.56 1133.99,-190.34 1134.87,-197.29"/>
</g>
<!-- Node33 -->
<g id="node33" class="node">
<title>Node33</title>
<g id="a_node33"><a xlink:href="admin_8hpp.html" target="_top" xlink:title="Classe do administrador.">
<polygon fill="white" stroke="black" points="216,-168.5 216,-198.5 320,-198.5 320,-168.5 216,-168.5"/>
<text text-anchor="start" x="224" y="-186.5" font-family="Helvetica,sans-Serif" font-size="10.00">../include/pessoas</text>
<text text-anchor="middle" x="268" y="-175.5" font-family="Helvetica,sans-Serif" font-size="10.00">/admin.hpp</text>
</a>
</g>
</g>
<!-- Node1&#45;&gt;Node33 -->
<g id="edge32" class="edge">
<title>Node1&#45;&gt;Node33</title>
<path fill="none" stroke="midnightblue" d="M675.1,-236.04C584.9,-224.62 419.82,-203.72 330.08,-192.36"/>
<polygon fill="midnightblue" stroke="midnightblue" points="330.4,-188.87 320.04,-191.09 329.53,-195.82 330.4,-188.87"/>
</g>
<!-- Node3 -->
<g id="node3" class="node">
<title>Node3</title>
<g id="a_node3"><a xlink:title=" ">
<polygon fill="white" stroke="#bfbfbf" points="1334.5,-112.5 1334.5,-131.5 1389.5,-131.5 1389.5,-112.5 1334.5,-112.5"/>
<text text-anchor="middle" x="1362" y="-119.5" font-family="Helvetica,sans-Serif" font-size="10.00">signal.h</text>
</a>
</g>
</g>
<!-- Node2&#45;&gt;Node3 -->
<g id="edge2" class="edge">
<title>Node2&#45;&gt;Node3</title>
<path fill="none" stroke="midnightblue" d="M1230.06,-173.98C1256.37,-163.81 1300.51,-146.76 1330.42,-135.2"/>
<polygon fill="midnightblue" stroke="midnightblue" points="1331.91,-138.38 1339.98,-131.51 1329.39,-131.85 1331.91,-138.38"/>
</g>
<!-- Node4 -->
<g id="node4" class="node">
<title>Node4</title>
<g id="a_node4"><a xlink:title=" ">
<polygon fill="white" stroke="#bfbfbf" points="1408,-112.5 1408,-131.5 1452,-131.5 1452,-112.5 1408,-112.5"/>
<text text-anchor="middle" x="1430" y="-119.5" font-family="Helvetica,sans-Serif" font-size="10.00">ctime</text>
</a>
</g>
</g>
<!-- Node2&#45;&gt;Node4 -->
<g id="edge3" class="edge">
<title>Node2&#45;&gt;Node4</title>
<path fill="none" stroke="midnightblue" d="M1241.19,-173.98C1277.4,-164.63 1337.32,-149 1397.94,-132.25"/>
<polygon fill="midnightblue" stroke="midnightblue" points="1398.97,-135.6 1407.67,-129.55 1397.1,-128.85 1398.97,-135.6"/>
</g>
<!-- Node5 -->
<g id="node5" class="node">
<title>Node5</title>
<g id="a_node5"><a xlink:title=" ">
<polygon fill="white" stroke="#bfbfbf" points="1470.5,-112.5 1470.5,-131.5 1517.5,-131.5 1517.5,-112.5 1470.5,-112.5"/>
<text text-anchor="middle" x="1494" y="-119.5" font-family="Helvetica,sans-Serif" font-size="10.00">cmath</text>
</a>
</g>
</g>
<!-- Node2&#45;&gt;Node5 -->
<g id="edge4" class="edge">
<title>Node2&#45;&gt;Node5</title>
<path fill="none" stroke="midnightblue" d="M1255.78,-173.98C1304.71,-165.03 1383.18,-150.05 1460.36,-132.02"/>
<polygon fill="midnightblue" stroke="midnightblue" points="1461.33,-135.39 1470.26,-129.69 1459.72,-128.57 1461.33,-135.39"/>
</g>
<!-- Node6 -->
<g id="node6" class="node">
<title>Node6</title>
<g id="a_node6"><a xlink:title=" ">
<polygon fill="white" stroke="#bfbfbf" points="1536,-112.5 1536,-131.5 1586,-131.5 1586,-112.5 1536,-112.5"/>
<text text-anchor="middle" x="1561" y="-119.5" font-family="Helvetica,sans-Serif" font-size="10.00">climits</text>
</a>
</g>
</g>
<!-- Node2&#45;&gt;Node6 -->
<g id="edge5" class="edge">
<title>Node2&#45;&gt;Node6</title>
<path fill="none" stroke="midnightblue" d="M1271.6,-174.37C1334.02,-165.96 1432.09,-151.57 1525.88,-132.06"/>
<polygon fill="midnightblue" stroke="midnightblue" points="1526.75,-135.45 1535.82,-129.97 1525.31,-128.6 1526.75,-135.45"/>
</g>
<!-- Node7 -->
<g id="node7" class="node">
<title>Node7</title>
<g id="a_node7"><a xlink:title=" ">
<polygon fill="white" stroke="#bfbfbf" points="1604.5,-112.5 1604.5,-131.5 1641.5,-131.5 1641.5,-112.5 1604.5,-112.5"/>
<text text-anchor="middle" x="1623" y="-119.5" font-family="Helvetica,sans-Serif" font-size="10.00">new</text>
</a>
</g>
</g>
<!-- Node2&#45;&gt;Node7 -->
<g id="edge6" class="edge">
<title>Node2&#45;&gt;Node7</title>
<path fill="none" stroke="midnightblue" d="M1271.62,-177.76C1346.71,-171.37 1475.33,-157.94 1594.43,-131.72"/>
<polygon fill="midnightblue" stroke="midnightblue" points="1595.46,-135.08 1604.45,-129.48 1593.93,-128.25 1595.46,-135.08"/>
</g>
<!-- Node8 -->
<g id="node8" class="node">
<title>Node8</title>
<g id="a_node8"><a xlink:title=" ">
<polygon fill="white" stroke="#bfbfbf" points="1660,-112.5 1660,-131.5 1706,-131.5 1706,-112.5 1660,-112.5"/>
<text text-anchor="middle" x="1683" y="-119.5" font-family="Helvetica,sans-Serif" font-size="10.00">cstdio</text>
</a>
</g>
</g>
<!-- Node2&#45;&gt;Node8 -->
<g id="edge7" class="edge">
<title>Node2&#45;&gt;Node8</title>
<path fill="none" stroke="midnightblue" d="M1271.58,-178.48C1356.03,-172.42 1509.89,-158.9 1649.65,-131.99"/>
<polygon fill="midnightblue" stroke="midnightblue" points="1650.54,-135.38 1659.69,-130.02 1649.2,-128.51 1650.54,-135.38"/>
</g>
<!-- Node9 -->
<g id="node9" class="node">
<title>Node9</title>
<g id="a_node9"><a xlink:title=" ">
<polygon fill="white" stroke="#bfbfbf" points="1724.5,-112.5 1724.5,-131.5 1773.5,-131.5 1773.5,-112.5 1724.5,-112.5"/>
<text text-anchor="middle" x="1749" y="-119.5" font-family="Helvetica,sans-Serif" font-size="10.00">cstdlib</text>
</a>
</g>
</g>
<!-- Node2&#45;&gt;Node9 -->
<g id="edge8" class="edge">
<title>Node2&#45;&gt;Node9</title>
<path fill="none" stroke="midnightblue" d="M1271.68,-179.42C1366.22,-174.13 1549.31,-161.14 1713.91,-131.91"/>
<polygon fill="midnightblue" stroke="midnightblue" points="1715,-135.27 1724.22,-130.05 1713.76,-128.38 1715,-135.27"/>
</g>
<!-- Node10 -->
<g id="node10" class="node">
<title>Node10</title>
<g id="a_node10"><a xlink:title=" ">
<polygon fill="white" stroke="#bfbfbf" points="1092,-0.5 1092,-19.5 1142,-19.5 1142,-0.5 1092,-0.5"/>
<text text-anchor="middle" x="1117" y="-7.5" font-family="Helvetica,sans-Serif" font-size="10.00">cstring</text>
</a>
</g>
</g>
<!-- Node2&#45;&gt;Node10 -->
<g id="edge9" class="edge">
<title>Node2&#45;&gt;Node10</title>
<path fill="none" stroke="midnightblue" d="M1271.75,-182.51C1431.18,-181.86 1837.3,-175.89 1878,-132 1900.97,-107.23 1901.17,-80.58 1878,-56 1852.81,-29.28 1299.3,-15.07 1152.48,-11.76"/>
<polygon fill="midnightblue" stroke="midnightblue" points="1152.31,-8.25 1142.24,-11.53 1152.16,-15.25 1152.31,-8.25"/>
</g>
<!-- Node11 -->
<g id="node11" class="node">
<title>Node11</title>
<g id="a_node11"><a xlink:title=" ">
<polygon fill="white" stroke="#bfbfbf" points="1792,-112.5 1792,-131.5 1836,-131.5 1836,-112.5 1792,-112.5"/>
<text text-anchor="middle" x="1814" y="-119.5" font-family="Helvetica,sans-Serif" font-size="10.00">limits</text>
</a>
</g>
</g>
<!-- Node2&#45;&gt;Node11 -->
<g id="edge10" class="edge">
<title>Node2&#45;&gt;Node11</title>
<path fill="none" stroke="midnightblue" d="M1271.51,-180.96C1376.26,-177.54 1591.77,-166.77 1781.88,-131.86"/>
<polygon fill="midnightblue" stroke="midnightblue" points="1782.58,-135.29 1791.77,-130.02 1781.3,-128.41 1782.58,-135.29"/>
</g>
<!-- Node12 -->
<g id="node12" class="node">
<title>Node12</title>
<g id="a_node12"><a xlink:title=" ">
<polygon fill="white" stroke="#bfbfbf" points="1930.5,-112.5 1930.5,-131.5 1975.5,-131.5 1975.5,-112.5 1930.5,-112.5"/>
<text text-anchor="middle" x="1953" y="-119.5" font-family="Helvetica,sans-Serif" font-size="10.00">utility</text>
</a>
</g>
</g>
<!-- Node2&#45;&gt;Node12 -->
<g id="edge11" class="edge">
<title>Node2&#45;&gt;Node12</title>
<path fill="none" stroke="midnightblue" d="M1271.87,-181.52C1396.47,-178.82 1680.41,-168.79 1916,-132 1917.47,-131.77 1918.97,-131.51 1920.48,-131.23"/>
<polygon fill="midnightblue" stroke="midnightblue" points="1921.36,-134.62 1930.42,-129.13 1919.91,-127.77 1921.36,-134.62"/>
</g>
<!-- Node13 -->
<g id="node13" class="node">
<title>Node13</title>
<g id="a_node13"><a xlink:title=" ">
<polygon fill="white" stroke="#bfbfbf" points="240.5,-112.5 240.5,-131.5 295.5,-131.5 295.5,-112.5 240.5,-112.5"/>
<text text-anchor="middle" x="268" y="-119.5" font-family="Helvetica,sans-Serif" font-size="10.00">fstream</text>
</a>
</g>
</g>
<!-- Node2&#45;&gt;Node13 -->
<g id="edge12" class="edge">
<title>Node2&#45;&gt;Node13</title>
<path fill="none" stroke="midnightblue" d="M1144.37,-182.92C997.8,-183.03 625.13,-178.43 305.68,-131.79"/>
<polygon fill="midnightblue" stroke="midnightblue" points="306.18,-128.33 295.77,-130.33 305.15,-135.25 306.18,-128.33"/>
</g>
<!-- Node14 -->
<g id="node14" class="node">
<title>Node14</title>
<g id="a_node14"><a xlink:title=" ">
<polygon fill="white" stroke="#bfbfbf" points="314,-112.5 314,-131.5 370,-131.5 370,-112.5 314,-112.5"/>
<text text-anchor="middle" x="342" y="-119.5" font-family="Helvetica,sans-Serif" font-size="10.00">sstream</text>
</a>
</g>
</g>
<!-- Node2&#45;&gt;Node14 -->
<g id="edge13" class="edge">
<title>Node2&#45;&gt;Node14</title>
<path fill="none" stroke="midnightblue" d="M1144.42,-182.46C1006.62,-181.56 670.2,-174.88 380.47,-131.94"/>
<polygon fill="midnightblue" stroke="midnightblue" points="380.59,-128.42 370.18,-130.4 379.55,-135.35 380.59,-128.42"/>
</g>
<!-- Node15 -->
<g id="node15" class="node">
<title>Node15</title>
<g id="a_node15"><a xlink:title=" ">
<polygon fill="white" stroke="#bfbfbf" points="83,-0.5 83,-19.5 143,-19.5 143,-0.5 83,-0.5"/>
<text text-anchor="middle" x="113" y="-7.5" font-family="Helvetica,sans-Serif" font-size="10.00">iostream</text>
</a>
</g>
</g>
<!-- Node2&#45;&gt;Node15 -->
<g id="edge14" class="edge">
<title>Node2&#45;&gt;Node15</title>
<path fill="none" stroke="midnightblue" d="M1144.39,-180.98C995.79,-176.92 629.47,-163.91 511,-132 491.42,-126.73 488.26,-120.82 470,-112 418.09,-86.92 407.8,-73.91 353,-56 284.68,-33.67 201.57,-21.18 153.24,-15.29"/>
<polygon fill="midnightblue" stroke="midnightblue" points="153.53,-11.8 143.18,-14.1 152.7,-18.75 153.53,-11.8"/>
</g>
<!-- Node16 -->
<g id="node16" class="node">
<title>Node16</title>
<g id="a_node16"><a xlink:title=" ">
<polygon fill="white" stroke="#bfbfbf" points="1994,-112.5 1994,-131.5 2058,-131.5 2058,-112.5 1994,-112.5"/>
<text text-anchor="middle" x="2026" y="-119.5" font-family="Helvetica,sans-Serif" font-size="10.00">algorithm</text>
</a>
</g>
</g>
<!-- Node2&#45;&gt;Node16 -->
<g id="edge15" class="edge">
<title>Node2&#45;&gt;Node16</title>
<path fill="none" stroke="midnightblue" d="M1271.53,-181.62C1402.92,-179.09 1714.1,-169.46 1983.87,-131.94"/>
<polygon fill="midnightblue" stroke="midnightblue" points="1984.44,-135.4 1993.85,-130.54 1983.46,-128.46 1984.44,-135.4"/>
</g>
<!-- Node17 -->
<g id="node17" class="node">
<title>Node17</title>
<g id="a_node17"><a xlink:title=" ">
<polygon fill="white" stroke="#bfbfbf" points="2076,-112.5 2076,-131.5 2132,-131.5 2132,-112.5 2076,-112.5"/>
<text text-anchor="middle" x="2104" y="-119.5" font-family="Helvetica,sans-Serif" font-size="10.00">iomanip</text>
</a>
</g>
</g>
<!-- Node2&#45;&gt;Node17 -->
<g id="edge16" class="edge">
<title>Node2&#45;&gt;Node17</title>
<path fill="none" stroke="midnightblue" d="M1271.72,-182.66C1413.17,-182.17 1764.07,-176.31 2065.57,-131.93"/>
<polygon fill="midnightblue" stroke="midnightblue" points="2066.45,-135.34 2075.82,-130.41 2065.42,-128.42 2066.45,-135.34"/>
</g>
<!-- Node18 -->
<g id="node18" class="node">
<title>Node18</title>
<g id="a_node18"><a xlink:title=" ">
<polygon fill="white" stroke="#bfbfbf" points="296.5,-56.5 296.5,-75.5 343.5,-75.5 343.5,-56.5 296.5,-56.5"/>
<text text-anchor="middle" x="320" y="-63.5" font-family="Helvetica,sans-Serif" font-size="10.00">vector</text>
</a>
</g>
</g>
<!-- Node2&#45;&gt;Node18 -->
<g id="edge17" class="edge">
<title>Node2&#45;&gt;Node18</title>
<path fill="none" stroke="midnightblue" d="M1144.28,-181.07C990.63,-177.14 603.17,-164.26 478,-132 457.59,-126.74 454.38,-120.29 435,-112 407.4,-100.2 375.6,-87.84 352.44,-79.07"/>
<polygon fill="midnightblue" stroke="midnightblue" points="353.67,-75.8 343.08,-75.55 351.2,-82.35 353.67,-75.8"/>
</g>
<!-- Node19 -->
<g id="node19" class="node">
<title>Node19</title>
<g id="a_node19"><a xlink:title=" ">
<polygon fill="white" stroke="#bfbfbf" points="2150,-112.5 2150,-131.5 2200,-131.5 2200,-112.5 2150,-112.5"/>
<text text-anchor="middle" x="2175" y="-119.5" font-family="Helvetica,sans-Serif" font-size="10.00">atomic</text>
</a>
</g>
</g>
<!-- Node2&#45;&gt;Node19 -->
<g id="edge18" class="edge">
<title>Node2&#45;&gt;Node19</title>
<path fill="none" stroke="midnightblue" d="M1271.57,-180.76C1450.04,-175.59 1954.19,-159.13 2139.95,-131.79"/>
<polygon fill="midnightblue" stroke="midnightblue" points="2140.52,-135.24 2149.87,-130.27 2139.46,-128.32 2140.52,-135.24"/>
</g>
<!-- Node20 -->
<g id="node20" class="node">
<title>Node20</title>
<g id="a_node20"><a xlink:title=" ">
<polygon fill="white" stroke="#bfbfbf" points="520,-112.5 520,-131.5 568,-131.5 568,-112.5 520,-112.5"/>
<text text-anchor="middle" x="544" y="-119.5" font-family="Helvetica,sans-Serif" font-size="10.00">mutex</text>
</a>
</g>
</g>
<!-- Node2&#45;&gt;Node20 -->
<g id="edge19" class="edge">
<title>Node2&#45;&gt;Node20</title>
<path fill="none" stroke="midnightblue" d="M1144.37,-181.32C1031.77,-178.38 790.12,-168.23 578.11,-131.86"/>
<polygon fill="midnightblue" stroke="midnightblue" points="578.49,-128.38 568.03,-130.11 577.29,-135.27 578.49,-128.38"/>
</g>
<!-- Node21 -->
<g id="node21" class="node">
<title>Node21</title>
<g id="a_node21"><a xlink:title=" ">
<polygon fill="white" stroke="#bfbfbf" points="586,-112.5 586,-131.5 618,-131.5 618,-112.5 586,-112.5"/>
<text text-anchor="middle" x="602" y="-119.5" font-family="Helvetica,sans-Serif" font-size="10.00">set</text>
</a>
</g>
</g>
<!-- Node2&#45;&gt;Node21 -->
<g id="edge20" class="edge">
<title>Node2&#45;&gt;Node21</title>
<path fill="none" stroke="midnightblue" d="M1144.43,-182.32C1038.54,-180.86 819.58,-172.88 628.19,-131.7"/>
<polygon fill="midnightblue" stroke="midnightblue" points="628.74,-128.24 618.23,-129.53 627.25,-135.08 628.74,-128.24"/>
</g>
<!-- Node22 -->
<g id="node22" class="node">
<title>Node22</title>
<g id="a_node22"><a xlink:title=" ">
<polygon fill="white" stroke="#bfbfbf" points="388,-112.5 388,-131.5 426,-131.5 426,-112.5 388,-112.5"/>
<text text-anchor="middle" x="407" y="-119.5" font-family="Helvetica,sans-Serif" font-size="10.00">map</text>
</a>
</g>
</g>
<!-- Node2&#45;&gt;Node22 -->
<g id="edge21" class="edge">
<title>Node2&#45;&gt;Node22</title>
<path fill="none" stroke="midnightblue" d="M1144.29,-182.61C1012.06,-181.9 698.63,-175.32 440,-132 438.72,-131.78 437.41,-131.54 436.09,-131.27"/>
<polygon fill="midnightblue" stroke="midnightblue" points="436.59,-127.79 426.05,-128.89 434.97,-134.61 436.59,-127.79"/>
</g>
<!-- Node23 -->
<g id="node23" class="node">
<title>Node23</title>
<g id="a_node23"><a xlink:title=" ">
<polygon fill="white" stroke="#bfbfbf" points="636,-112.5 636,-131.5 722,-131.5 722,-112.5 636,-112.5"/>
<text text-anchor="middle" x="679" y="-119.5" font-family="Helvetica,sans-Serif" font-size="10.00">unordered_set</text>
</a>
</g>
</g>
<!-- Node2&#45;&gt;Node23 -->
<g id="edge22" class="edge">
<title>Node2&#45;&gt;Node23</title>
<path fill="none" stroke="midnightblue" d="M1144.33,-177.02C1052.88,-168.86 879.16,-152.28 732,-132 731.9,-131.99 731.8,-131.97 731.7,-131.96"/>
<polygon fill="midnightblue" stroke="midnightblue" points="732.47,-128.53 722.06,-130.54 731.45,-135.46 732.47,-128.53"/>
</g>
<!-- Node24 -->
<g id="node24" class="node">
<title>Node24</title>
<g id="a_node24"><a xlink:title=" ">
<polygon fill="white" stroke="#bfbfbf" points="740.5,-112.5 740.5,-131.5 805.5,-131.5 805.5,-112.5 740.5,-112.5"/>
<text text-anchor="middle" x="773" y="-119.5" font-family="Helvetica,sans-Serif" font-size="10.00">exception</text>
</a>
</g>
</g>
<!-- Node2&#45;&gt;Node24 -->
<g id="edge23" class="edge">
<title>Node2&#45;&gt;Node24</title>
<path fill="none" stroke="midnightblue" d="M1144.46,-175.98C1068.6,-167.83 937.74,-152.61 815.42,-131.94"/>
<polygon fill="midnightblue" stroke="midnightblue" points="815.95,-128.48 805.51,-130.25 814.78,-135.38 815.95,-128.48"/>
</g>
<!-- Node25 -->
<g id="node25" class="node">
<title>Node25</title>
<g id="a_node25"><a xlink:title=" ">
<polygon fill="white" stroke="#bfbfbf" points="823.5,-112.5 823.5,-131.5 888.5,-131.5 888.5,-112.5 823.5,-112.5"/>
<text text-anchor="middle" x="856" y="-119.5" font-family="Helvetica,sans-Serif" font-size="10.00">stdexcept</text>
</a>
</g>
</g>
<!-- Node2&#45;&gt;Node25 -->
<g id="edge24" class="edge">
<title>Node2&#45;&gt;Node25</title>
<path fill="none" stroke="midnightblue" d="M1150.43,-174C1090.21,-164.9 992.69,-149.63 898.51,-132.02"/>
<polygon fill="midnightblue" stroke="midnightblue" points="899,-128.55 888.53,-130.14 897.71,-135.43 899,-128.55"/>
</g>
<!-- Node26 -->
<g id="node26" class="node">
<title>Node26</title>
<g id="a_node26"><a xlink:title=" ">
<polygon fill="white" stroke="#bfbfbf" points="906.5,-112.5 906.5,-131.5 957.5,-131.5 957.5,-112.5 906.5,-112.5"/>
<text text-anchor="middle" x="932" y="-119.5" font-family="Helvetica,sans-Serif" font-size="10.00">csignal</text>
</a>
</g>
</g>
<!-- Node2&#45;&gt;Node26 -->
<g id="edge25" class="edge">
<title>Node2&#45;&gt;Node26</title>
<path fill="none" stroke="midnightblue" d="M1164.33,-173.97C1118.03,-164.78 1042.53,-149.41 967.66,-132.07"/>
<polygon fill="midnightblue" stroke="midnightblue" points="968.11,-128.58 957.58,-129.72 966.53,-135.4 968.11,-128.58"/>
</g>
<!-- Node27 -->
<g id="node27" class="node">
<title>Node27</title>
<g id="a_node27"><a xlink:title=" ">
<polygon fill="white" stroke="#bfbfbf" points="976,-112.5 976,-131.5 1020,-131.5 1020,-112.5 976,-112.5"/>
<text text-anchor="middle" x="998" y="-119.5" font-family="Helvetica,sans-Serif" font-size="10.00">cfloat</text>
</a>
</g>
</g>
<!-- Node2&#45;&gt;Node27 -->
<g id="edge26" class="edge">
<title>Node2&#45;&gt;Node27</title>
<path fill="none" stroke="midnightblue" d="M1177.91,-173.98C1138.58,-162.83 1069.98,-143.4 1029.82,-132.01"/>
<polygon fill="midnightblue" stroke="midnightblue" points="1030.59,-128.59 1020.01,-129.24 1028.68,-135.33 1030.59,-128.59"/>
</g>
<!-- Node28 -->
<g id="node28" class="node">
<title>Node28</title>
<g id="a_node28"><a xlink:title=" ">
<polygon fill="white" stroke="#bfbfbf" points="1038.5,-112.5 1038.5,-131.5 1087.5,-131.5 1087.5,-112.5 1038.5,-112.5"/>
<text text-anchor="middle" x="1063" y="-119.5" font-family="Helvetica,sans-Serif" font-size="10.00">cctype</text>
</a>
</g>
</g>
<!-- Node2&#45;&gt;Node28 -->
<g id="edge27" class="edge">
<title>Node2&#45;&gt;Node28</title>
<path fill="none" stroke="midnightblue" d="M1187.23,-173.98C1162.57,-163.86 1121.25,-146.9 1093.1,-135.35"/>
<polygon fill="midnightblue" stroke="midnightblue" points="1094.32,-132.07 1083.74,-131.51 1091.66,-138.54 1094.32,-132.07"/>
</g>
<!-- Node29 -->
<g id="node29" class="node">
<title>Node29</title>
<g id="a_node29"><a xlink:title=" ">
<polygon fill="white" stroke="#bfbfbf" points="1106,-112.5 1106,-131.5 1156,-131.5 1156,-112.5 1106,-112.5"/>
<text text-anchor="middle" x="1131" y="-119.5" font-family="Helvetica,sans-Serif" font-size="10.00">cstdint</text>
</a>
</g>
</g>
<!-- Node2&#45;&gt;Node29 -->
<g id="edge28" class="edge">
<title>Node2&#45;&gt;Node29</title>
<path fill="none" stroke="midnightblue" d="M1196.97,-173.98C1184.73,-164.52 1164.77,-149.1 1150.01,-137.69"/>
<polygon fill="midnightblue" stroke="midnightblue" points="1152.06,-134.85 1142.01,-131.51 1147.78,-140.39 1152.06,-134.85"/>
</g>
<!-- Node30 -->
<g id="node30" class="node">
<title>Node30</title>
<g id="a_node30"><a xlink:title=" ">
<polygon fill="white" stroke="#bfbfbf" points="227,-0.5 227,-19.5 271,-19.5 271,-0.5 227,-0.5"/>
<text text-anchor="middle" x="249" y="-7.5" font-family="Helvetica,sans-Serif" font-size="10.00">string</text>
</a>
</g>
</g>
<!-- Node2&#45;&gt;Node30 -->
<g id="edge29" class="edge">
<title>Node2&#45;&gt;Node30</title>
<path fill="none" stroke="midnightblue" d="M1271.7,-182.24C1425.37,-180.94 1806.63,-173.53 1845,-132 1851.03,-125.47 1851.08,-118.48 1845,-112 1789.44,-52.81 502.79,-17.46 281.31,-11.8"/>
<polygon fill="midnightblue" stroke="midnightblue" points="281.1,-8.3 271.02,-11.54 280.93,-15.29 281.1,-8.3"/>
</g>
<!-- Node31 -->
<g id="node31" class="node">
<title>Node31</title>
<g id="a_node31"><a xlink:title=" ">
<polygon fill="white" stroke="#bfbfbf" points="1174,-112.5 1174,-131.5 1242,-131.5 1242,-112.5 1174,-112.5"/>
<text text-anchor="middle" x="1208" y="-119.5" font-family="Helvetica,sans-Serif" font-size="10.00">sys/time.h</text>
</a>
</g>
</g>
<!-- Node2&#45;&gt;Node31 -->
<g id="edge30" class="edge">
<title>Node2&#45;&gt;Node31</title>
<path fill="none" stroke="midnightblue" d="M1208,-173.98C1208,-165.58 1208,-152.48 1208,-141.66"/>
<polygon fill="midnightblue" stroke="midnightblue" points="1211.5,-141.51 1208,-131.51 1204.5,-141.51 1211.5,-141.51"/>
</g>
<!-- Node32 -->
<g id="node32" class="node">
<title>Node32</title>
<g id="a_node32"><a xlink:title=" ">
<polygon fill="white" stroke="#bfbfbf" points="1260,-112.5 1260,-131.5 1316,-131.5 1316,-112.5 1260,-112.5"/>
<text text-anchor="middle" x="1288" y="-119.5" font-family="Helvetica,sans-Serif" font-size="10.00">unistd.h</text>
</a>
</g>
</g>
<!-- Node2&#45;&gt;Node32 -->
<g id="edge31" class="edge">
<title>Node2&#45;&gt;Node32</title>
<path fill="none" stroke="midnightblue" d="M1219.46,-173.98C1232.17,-164.52 1252.91,-149.1 1268.25,-137.69"/>
<polygon fill="midnightblue" stroke="midnightblue" points="1270.62,-140.29 1276.56,-131.51 1266.45,-134.67 1270.62,-140.29"/>
</g>
<!-- Node33&#45;&gt;Node13 -->
<g id="edge45" class="edge">
<title>Node33&#45;&gt;Node13</title>
<path fill="none" stroke="midnightblue" d="M268,-168.4C268,-160.47 268,-150.46 268,-141.86"/>
<polygon fill="midnightblue" stroke="midnightblue" points="271.5,-141.66 268,-131.66 264.5,-141.66 271.5,-141.66"/>
</g>
<!-- Node33&#45;&gt;Node14 -->
<g id="edge47" class="edge">
<title>Node33&#45;&gt;Node14</title>
<path fill="none" stroke="midnightblue" d="M285.54,-168.4C296.84,-159.31 311.54,-147.49 323.11,-138.19"/>
<polygon fill="midnightblue" stroke="midnightblue" points="325.63,-140.65 331.23,-131.66 321.25,-135.2 325.63,-140.65"/>
</g>
<!-- Node33&#45;&gt;Node18 -->
<g id="edge46" class="edge">
<title>Node33&#45;&gt;Node18</title>
<path fill="none" stroke="midnightblue" d="M251.68,-168.41C236.98,-153.95 219.34,-130.96 231,-112 243.1,-92.32 266.77,-80.93 286.66,-74.53"/>
<polygon fill="midnightblue" stroke="midnightblue" points="287.73,-77.87 296.35,-71.7 285.77,-71.15 287.73,-77.87"/>
</g>
<!-- Node33&#45;&gt;Node22 -->
<g id="edge44" class="edge">
<title>Node33&#45;&gt;Node22</title>
<path fill="none" stroke="midnightblue" d="M300.94,-168.4C324.58,-158.28 356.1,-144.79 378.63,-135.15"/>
<polygon fill="midnightblue" stroke="midnightblue" points="380.16,-138.29 387.98,-131.14 377.41,-131.86 380.16,-138.29"/>
</g>
<!-- Node34 -->
<g id="node34" class="node">
<title>Node34</title>
<g id="a_node34"><a xlink:href="pessoa_8hpp.html" target="_top" xlink:title="Classe mãe de usuario e admin.">
<polygon fill="white" stroke="black" points="0,-112.5 0,-131.5 72,-131.5 72,-112.5 0,-112.5"/>
<text text-anchor="middle" x="36" y="-119.5" font-family="Helvetica,sans-Serif" font-size="10.00">pessoa.hpp</text>
</a>
</g>
</g>
<!-- Node33&#45;&gt;Node34 -->
<g id="edge33" class="edge">
<title>Node33&#45;&gt;Node34</title>
<path fill="none" stroke="midnightblue" d="M215.93,-169.15C174.73,-158.58 117.87,-144 79.17,-134.07"/>
<polygon fill="midnightblue" stroke="midnightblue" points="79.81,-130.62 69.26,-131.53 78.07,-137.4 79.81,-130.62"/>
</g>
<!-- Node36 -->
<g id="node36" class="node">
<title>Node36</title>
<g id="a_node36"><a xlink:href="livro_8hpp.html" target="_top" xlink:title="Classe do objeto Livro.">
<polygon fill="white" stroke="black" points="90.5,-112.5 90.5,-131.5 183.5,-131.5 183.5,-112.5 90.5,-112.5"/>
<text text-anchor="middle" x="137" y="-119.5" font-family="Helvetica,sans-Serif" font-size="10.00">../livro/livro.hpp</text>
</a>
</g>
</g>
<!-- Node33&#45;&gt;Node36 -->
<g id="edge40" class="edge">
<title>Node33&#45;&gt;Node36</title>
<path fill="none" stroke="midnightblue" d="M236.95,-168.4C215.27,-158.55 186.54,-145.5 165.45,-135.92"/>
<polygon fill="midnightblue" stroke="midnightblue" points="166.61,-132.61 156.06,-131.66 163.72,-138.98 166.61,-132.61"/>
</g>
<!-- Node34&#45;&gt;Node15 -->
<g id="edge34" class="edge">
<title>Node34&#45;&gt;Node15</title>
<path fill="none" stroke="midnightblue" d="M42.04,-112.37C54.75,-94.22 84.44,-51.8 101.11,-27.99"/>
<polygon fill="midnightblue" stroke="midnightblue" points="104.12,-29.79 106.99,-19.59 98.38,-25.78 104.12,-29.79"/>
</g>
<!-- Node34&#45;&gt;Node30 -->
<g id="edge35" class="edge">
<title>Node34&#45;&gt;Node30</title>
<path fill="none" stroke="midnightblue" d="M72.32,-113.15C119.99,-102.61 198.94,-84.26 210,-76 225.78,-64.21 236.44,-43.99 242.57,-29.22"/>
<polygon fill="midnightblue" stroke="midnightblue" points="245.93,-30.23 246.25,-19.64 239.4,-27.72 245.93,-30.23"/>
</g>
<!-- Node35 -->
<g id="node35" class="node">
<title>Node35</title>
<g id="a_node35"><a xlink:href="erros_8hpp.html" target="_top" xlink:title="Classes de tratamento de exceções.">
<polygon fill="white" stroke="black" points="102.5,-56.5 102.5,-75.5 201.5,-75.5 201.5,-56.5 102.5,-56.5"/>
<text text-anchor="middle" x="152" y="-63.5" font-family="Helvetica,sans-Serif" font-size="10.00">../erros/erros.hpp</text>
</a>
</g>
</g>
<!-- Node34&#45;&gt;Node35 -->
<g id="edge36" class="edge">
<title>Node34&#45;&gt;Node35</title>
<path fill="none" stroke="midnightblue" d="M54.38,-112.44C73.22,-103.68 102.73,-89.94 124.38,-79.86"/>
<polygon fill="midnightblue" stroke="midnightblue" points="126.12,-82.91 133.71,-75.52 123.16,-76.56 126.12,-82.91"/>
</g>
<!-- Node35&#45;&gt;Node10 -->
<g id="edge39" class="edge">
<title>Node35&#45;&gt;Node10</title>
<path fill="none" stroke="midnightblue" d="M201.68,-61.54C227.18,-59.8 258.75,-57.71 287,-56 594.7,-37.4 966.78,-18.51 1081.57,-12.76"/>
<polygon fill="midnightblue" stroke="midnightblue" points="1082.05,-16.24 1091.87,-12.25 1081.71,-9.25 1082.05,-16.24"/>
</g>
<!-- Node35&#45;&gt;Node15 -->
<g id="edge37" class="edge">
<title>Node35&#45;&gt;Node15</title>
<path fill="none" stroke="midnightblue" d="M145.56,-56.08C140.05,-48.46 131.97,-37.26 125.24,-27.94"/>
<polygon fill="midnightblue" stroke="midnightblue" points="128.01,-25.81 119.32,-19.75 122.34,-29.91 128.01,-25.81"/>
</g>
<!-- Node35&#45;&gt;Node30 -->
<g id="edge38" class="edge">
<title>Node35&#45;&gt;Node30</title>
<path fill="none" stroke="midnightblue" d="M167.58,-56.32C183,-47.74 206.81,-34.49 224.71,-24.52"/>
<polygon fill="midnightblue" stroke="midnightblue" points="226.42,-27.58 233.45,-19.65 223.01,-21.46 226.42,-27.58"/>
</g>
<!-- Node36&#45;&gt;Node15 -->
<g id="edge41" class="edge">
<title>Node36&#45;&gt;Node15</title>
<path fill="none" stroke="midnightblue" d="M124.22,-112.37C113.61,-104.36 99.27,-91.38 93,-76 86.54,-60.16 93.8,-41.44 101.31,-28.16"/>
<polygon fill="midnightblue" stroke="midnightblue" points="104.34,-29.92 106.64,-19.58 98.39,-26.23 104.34,-29.92"/>
</g>
<!-- Node36&#45;&gt;Node18 -->
<g id="edge42" class="edge">
<title>Node36&#45;&gt;Node18</title>
<path fill="none" stroke="midnightblue" d="M166,-112.44C198.84,-102.75 252.25,-86.99 286.75,-76.81"/>
<polygon fill="midnightblue" stroke="midnightblue" points="287.78,-80.16 296.38,-73.97 285.79,-73.44 287.78,-80.16"/>
</g>
<!-- Node36&#45;&gt;Node30 -->
<g id="edge43" class="edge">
<title>Node36&#45;&gt;Node30</title>
<path fill="none" stroke="midnightblue" d="M183.53,-113C205.46,-106.73 229.86,-95.62 244,-76 253.61,-62.67 253.93,-43.55 252.4,-29.5"/>
<polygon fill="midnightblue" stroke="midnightblue" points="255.85,-28.9 250.93,-19.52 248.93,-29.93 255.85,-28.9"/>
</g>
</g>
</svg>
