<?xml version="1.0" encoding="UTF-8" standalone="no"?>
<!DOCTYPE svg PUBLIC "-//W3C//DTD SVG 1.1//EN"
 "http://www.w3.org/Graphics/SVG/1.1/DTD/svg11.dtd">
<!-- Generated by graphviz version 2.43.0 (0)
 -->
<!-- Title: tests/teste_pessoa.hpp Pages: 1 -->
<svg width="2090pt" height="207pt"
 viewBox="0.00 0.00 2089.50 207.00" xmlns="http://www.w3.org/2000/svg" xmlns:xlink="http://www.w3.org/1999/xlink">
<g id="graph0" class="graph" transform="scale(1 1) rotate(0) translate(4 203)">
<title>tests/teste_pessoa.hpp</title>
<polygon fill="white" stroke="transparent" points="-4,4 -4,-203 2085.5,-203 2085.5,4 -4,4"/>
<!-- Node1 -->
<g id="node1" class="node">
<title>Node1</title>
<g id="a_node1"><a xlink:title=" ">
<polygon fill="#bfbfbf" stroke="black" points="108.5,-179.5 108.5,-198.5 237.5,-198.5 237.5,-179.5 108.5,-179.5"/>
<text text-anchor="middle" x="173" y="-186.5" font-family="Helvetica,sans-Serif" font-size="10.00">tests/teste_pessoa.hpp</text>
</a>
</g>
</g>
<!-- Node2 -->
<g id="node2" class="node">
<title>Node2</title>
<g id="a_node2"><a xlink:href="doctest_8h.html" target="_top" xlink:title=" ">
<polygon fill="white" stroke="black" points="974.5,-56.5 974.5,-75.5 1101.5,-75.5 1101.5,-56.5 974.5,-56.5"/>
<text text-anchor="middle" x="1038" y="-63.5" font-family="Helvetica,sans-Serif" font-size="10.00">../third_party/doctest.h</text>
</a>
</g>
</g>
<!-- Node1&#45;&gt;Node2 -->
<g id="edge1" class="edge">
<title>Node1&#45;&gt;Node2</title>
<path fill="none" stroke="midnightblue" d="M233.83,-179.49C389.3,-157.74 800.64,-100.2 966.84,-76.95"/>
<polygon fill="midnightblue" stroke="midnightblue" points="967.53,-80.39 976.95,-75.54 966.57,-73.46 967.53,-80.39"/>
</g>
<!-- Node33 -->
<g id="node33" class="node">
<title>Node33</title>
<g id="a_node33"><a xlink:href="pessoa_8hpp.html" target="_top" xlink:title="Classe mãe de usuario e admin.">
<polygon fill="white" stroke="black" points="81,-112.5 81,-142.5 185,-142.5 185,-112.5 81,-112.5"/>
<text text-anchor="start" x="89" y="-130.5" font-family="Helvetica,sans-Serif" font-size="10.00">../include/pessoas</text>
<text text-anchor="middle" x="133" y="-119.5" font-family="Helvetica,sans-Serif" font-size="10.00">/pessoa.hpp</text>
</a>
</g>
</g>
<!-- Node1&#45;&gt;Node33 -->
<g id="edge32" class="edge">
<title>Node1&#45;&gt;Node33</title>
<path fill="none" stroke="midnightblue" d="M167.27,-179.48C162.26,-172.02 154.75,-160.85 148.04,-150.87"/>
<polygon fill="midnightblue" stroke="midnightblue" points="150.91,-148.87 142.43,-142.52 145.1,-152.77 150.91,-148.87"/>
</g>
<!-- Node3 -->
<g id="node3" class="node">
<title>Node3</title>
<g id="a_node3"><a xlink:title=" ">
<polygon fill="white" stroke="#bfbfbf" points="1516.5,-0.5 1516.5,-19.5 1571.5,-19.5 1571.5,-0.5 1516.5,-0.5"/>
<text text-anchor="middle" x="1544" y="-7.5" font-family="Helvetica,sans-Serif" font-size="10.00">signal.h</text>
</a>
</g>
</g>
<!-- Node2&#45;&gt;Node3 -->
<g id="edge2" class="edge">
<title>Node2&#45;&gt;Node3</title>
<path fill="none" stroke="midnightblue" d="M1101.72,-61.78C1190.34,-56.66 1355.92,-44.78 1506.32,-19.87"/>
<polygon fill="midnightblue" stroke="midnightblue" points="1506.93,-23.32 1516.21,-18.21 1505.77,-16.42 1506.93,-23.32"/>
</g>
<!-- Node4 -->
<g id="node4" class="node">
<title>Node4</title>
<g id="a_node4"><a xlink:title=" ">
<polygon fill="white" stroke="#bfbfbf" points="1590,-0.5 1590,-19.5 1634,-19.5 1634,-0.5 1590,-0.5"/>
<text text-anchor="middle" x="1612" y="-7.5" font-family="Helvetica,sans-Serif" font-size="10.00">ctime</text>
</a>
</g>
</g>
<!-- Node2&#45;&gt;Node4 -->
<g id="edge3" class="edge">
<title>Node2&#45;&gt;Node4</title>
<path fill="none" stroke="midnightblue" d="M1101.66,-63.84C1201.76,-61.1 1402,-52 1579.72,-19.88"/>
<polygon fill="midnightblue" stroke="midnightblue" points="1580.57,-23.28 1589.78,-18.03 1579.31,-16.39 1580.57,-23.28"/>
</g>
<!-- Node5 -->
<g id="node5" class="node">
<title>Node5</title>
<g id="a_node5"><a xlink:title=" ">
<polygon fill="white" stroke="#bfbfbf" points="1652.5,-0.5 1652.5,-19.5 1699.5,-19.5 1699.5,-0.5 1652.5,-0.5"/>
<text text-anchor="middle" x="1676" y="-7.5" font-family="Helvetica,sans-Serif" font-size="10.00">cmath</text>
</a>
</g>
</g>
<!-- Node2&#45;&gt;Node5 -->
<g id="edge4" class="edge">
<title>Node2&#45;&gt;Node5</title>
<path fill="none" stroke="midnightblue" d="M1101.63,-64.27C1210.64,-62.15 1440.05,-53.87 1642.41,-19.74"/>
<polygon fill="midnightblue" stroke="midnightblue" points="1643.06,-23.18 1652.33,-18.04 1641.88,-16.28 1643.06,-23.18"/>
</g>
<!-- Node6 -->
<g id="node6" class="node">
<title>Node6</title>
<g id="a_node6"><a xlink:title=" ">
<polygon fill="white" stroke="#bfbfbf" points="1718,-0.5 1718,-19.5 1768,-19.5 1768,-0.5 1718,-0.5"/>
<text text-anchor="middle" x="1743" y="-7.5" font-family="Helvetica,sans-Serif" font-size="10.00">climits</text>
</a>
</g>
</g>
<!-- Node2&#45;&gt;Node6 -->
<g id="edge5" class="edge">
<title>Node2&#45;&gt;Node6</title>
<path fill="none" stroke="midnightblue" d="M1101.84,-64.78C1219.9,-63.49 1480.31,-56.51 1707.74,-19.88"/>
<polygon fill="midnightblue" stroke="midnightblue" points="1708.56,-23.29 1717.87,-18.23 1707.43,-16.39 1708.56,-23.29"/>
</g>
<!-- Node7 -->
<g id="node7" class="node">
<title>Node7</title>
<g id="a_node7"><a xlink:title=" ">
<polygon fill="white" stroke="#bfbfbf" points="1786.5,-0.5 1786.5,-19.5 1823.5,-19.5 1823.5,-0.5 1786.5,-0.5"/>
<text text-anchor="middle" x="1805" y="-7.5" font-family="Helvetica,sans-Serif" font-size="10.00">new</text>
</a>
</g>
</g>
<!-- Node2&#45;&gt;Node7 -->
<g id="edge6" class="edge">
<title>Node2&#45;&gt;Node7</title>
<path fill="none" stroke="midnightblue" d="M1101.71,-63.17C1252.72,-58.5 1630.07,-44.86 1776.36,-19.51"/>
<polygon fill="midnightblue" stroke="midnightblue" points="1777.28,-22.9 1786.49,-17.66 1776.03,-16.01 1777.28,-22.9"/>
</g>
<!-- Node8 -->
<g id="node8" class="node">
<title>Node8</title>
<g id="a_node8"><a xlink:title=" ">
<polygon fill="white" stroke="#bfbfbf" points="1842,-0.5 1842,-19.5 1888,-19.5 1888,-0.5 1842,-0.5"/>
<text text-anchor="middle" x="1865" y="-7.5" font-family="Helvetica,sans-Serif" font-size="10.00">cstdio</text>
</a>
</g>
</g>
<!-- Node2&#45;&gt;Node8 -->
<g id="edge7" class="edge">
<title>Node2&#45;&gt;Node8</title>
<path fill="none" stroke="midnightblue" d="M1101.65,-63.19C1260.9,-58.36 1674.44,-44.04 1831.73,-19.79"/>
<polygon fill="midnightblue" stroke="midnightblue" points="1832.4,-23.23 1841.71,-18.18 1831.28,-16.32 1832.4,-23.23"/>
</g>
<!-- Node9 -->
<g id="node9" class="node">
<title>Node9</title>
<g id="a_node9"><a xlink:title=" ">
<polygon fill="white" stroke="#bfbfbf" points="1906.5,-0.5 1906.5,-19.5 1955.5,-19.5 1955.5,-0.5 1906.5,-0.5"/>
<text text-anchor="middle" x="1931" y="-7.5" font-family="Helvetica,sans-Serif" font-size="10.00">cstdlib</text>
</a>
</g>
</g>
<!-- Node2&#45;&gt;Node9 -->
<g id="edge8" class="edge">
<title>Node2&#45;&gt;Node9</title>
<path fill="none" stroke="midnightblue" d="M1101.71,-63.37C1270.08,-58.79 1725.04,-44.62 1896.12,-19.72"/>
<polygon fill="midnightblue" stroke="midnightblue" points="1896.88,-23.15 1906.24,-18.19 1895.83,-16.23 1896.88,-23.15"/>
</g>
<!-- Node10 -->
<g id="node10" class="node">
<title>Node10</title>
<g id="a_node10"><a xlink:title=" ">
<polygon fill="white" stroke="#bfbfbf" points="62,-0.5 62,-19.5 112,-19.5 112,-0.5 62,-0.5"/>
<text text-anchor="middle" x="87" y="-7.5" font-family="Helvetica,sans-Serif" font-size="10.00">cstring</text>
</a>
</g>
</g>
<!-- Node2&#45;&gt;Node10 -->
<g id="edge9" class="edge">
<title>Node2&#45;&gt;Node10</title>
<path fill="none" stroke="midnightblue" d="M974.24,-63.61C797.79,-59.5 304.65,-46.09 122.14,-19.79"/>
<polygon fill="midnightblue" stroke="midnightblue" points="122.54,-16.31 112.13,-18.28 121.49,-23.23 122.54,-16.31"/>
</g>
<!-- Node11 -->
<g id="node11" class="node">
<title>Node11</title>
<g id="a_node11"><a xlink:title=" ">
<polygon fill="white" stroke="#bfbfbf" points="1974,-0.5 1974,-19.5 2018,-19.5 2018,-0.5 1974,-0.5"/>
<text text-anchor="middle" x="1996" y="-7.5" font-family="Helvetica,sans-Serif" font-size="10.00">limits</text>
</a>
</g>
</g>
<!-- Node2&#45;&gt;Node11 -->
<g id="edge10" class="edge">
<title>Node2&#45;&gt;Node11</title>
<path fill="none" stroke="midnightblue" d="M1101.52,-63.85C1279.11,-60.34 1779.3,-48.3 1963.68,-19.76"/>
<polygon fill="midnightblue" stroke="midnightblue" points="1964.48,-23.17 1973.79,-18.12 1963.36,-16.26 1964.48,-23.17"/>
</g>
<!-- Node12 -->
<g id="node12" class="node">
<title>Node12</title>
<g id="a_node12"><a xlink:title=" ">
<polygon fill="white" stroke="#bfbfbf" points="2036.5,-0.5 2036.5,-19.5 2081.5,-19.5 2081.5,-0.5 2036.5,-0.5"/>
<text text-anchor="middle" x="2059" y="-7.5" font-family="Helvetica,sans-Serif" font-size="10.00">utility</text>
</a>
</g>
</g>
<!-- Node2&#45;&gt;Node12 -->
<g id="edge11" class="edge">
<title>Node2&#45;&gt;Node12</title>
<path fill="none" stroke="midnightblue" d="M1101.67,-64C1287.65,-60.8 1828.84,-49.29 2026.43,-19.61"/>
<polygon fill="midnightblue" stroke="midnightblue" points="2027.08,-23.05 2036.42,-18.04 2026,-16.13 2027.08,-23.05"/>
</g>
<!-- Node13 -->
<g id="node13" class="node">
<title>Node13</title>
<g id="a_node13"><a xlink:title=" ">
<polygon fill="white" stroke="#bfbfbf" points="208.5,-0.5 208.5,-19.5 263.5,-19.5 263.5,-0.5 208.5,-0.5"/>
<text text-anchor="middle" x="236" y="-7.5" font-family="Helvetica,sans-Serif" font-size="10.00">fstream</text>
</a>
</g>
</g>
<!-- Node2&#45;&gt;Node13 -->
<g id="edge12" class="edge">
<title>Node2&#45;&gt;Node13</title>
<path fill="none" stroke="midnightblue" d="M974.38,-65.11C844.38,-64.5 538.93,-58.8 273.97,-19.84"/>
<polygon fill="midnightblue" stroke="midnightblue" points="274.18,-16.33 263.77,-18.32 273.15,-23.26 274.18,-16.33"/>
</g>
<!-- Node14 -->
<g id="node14" class="node">
<title>Node14</title>
<g id="a_node14"><a xlink:title=" ">
<polygon fill="white" stroke="#bfbfbf" points="282,-0.5 282,-19.5 338,-19.5 338,-0.5 282,-0.5"/>
<text text-anchor="middle" x="310" y="-7.5" font-family="Helvetica,sans-Serif" font-size="10.00">sstream</text>
</a>
</g>
</g>
<!-- Node2&#45;&gt;Node14 -->
<g id="edge13" class="edge">
<title>Node2&#45;&gt;Node14</title>
<path fill="none" stroke="midnightblue" d="M974.25,-64.53C853.65,-62.85 583.84,-55.26 348.31,-19.93"/>
<polygon fill="midnightblue" stroke="midnightblue" points="348.59,-16.43 338.18,-18.39 347.54,-23.35 348.59,-16.43"/>
</g>
<!-- Node15 -->
<g id="node15" class="node">
<title>Node15</title>
<g id="a_node15"><a xlink:title=" ">
<polygon fill="white" stroke="#bfbfbf" points="130,-0.5 130,-19.5 190,-19.5 190,-0.5 130,-0.5"/>
<text text-anchor="middle" x="160" y="-7.5" font-family="Helvetica,sans-Serif" font-size="10.00">iostream</text>
</a>
</g>
</g>
<!-- Node2&#45;&gt;Node15 -->
<g id="edge14" class="edge">
<title>Node2&#45;&gt;Node15</title>
<path fill="none" stroke="midnightblue" d="M974.32,-65.21C833.83,-64.88 487.02,-59.71 200,-20 199.9,-19.99 199.8,-19.97 199.7,-19.96"/>
<polygon fill="midnightblue" stroke="midnightblue" points="200.49,-16.54 190.04,-18.33 199.32,-23.44 200.49,-16.54"/>
</g>
<!-- Node16 -->
<g id="node16" class="node">
<title>Node16</title>
<g id="a_node16"><a xlink:title=" ">
<polygon fill="white" stroke="#bfbfbf" points="356,-0.5 356,-19.5 420,-19.5 420,-0.5 356,-0.5"/>
<text text-anchor="middle" x="388" y="-7.5" font-family="Helvetica,sans-Serif" font-size="10.00">algorithm</text>
</a>
</g>
</g>
<!-- Node2&#45;&gt;Node16 -->
<g id="edge15" class="edge">
<title>Node2&#45;&gt;Node16</title>
<path fill="none" stroke="midnightblue" d="M974.11,-63.27C864.63,-59.65 634.07,-49.17 430.15,-19.96"/>
<polygon fill="midnightblue" stroke="midnightblue" points="430.55,-16.48 420.15,-18.51 429.54,-23.41 430.55,-16.48"/>
</g>
<!-- Node17 -->
<g id="node17" class="node">
<title>Node17</title>
<g id="a_node17"><a xlink:title=" ">
<polygon fill="white" stroke="#bfbfbf" points="438,-0.5 438,-19.5 494,-19.5 494,-0.5 438,-0.5"/>
<text text-anchor="middle" x="466" y="-7.5" font-family="Helvetica,sans-Serif" font-size="10.00">iomanip</text>
</a>
</g>
</g>
<!-- Node2&#45;&gt;Node17 -->
<g id="edge16" class="edge">
<title>Node2&#45;&gt;Node17</title>
<path fill="none" stroke="midnightblue" d="M974.34,-62.69C873.86,-58.37 672.59,-46.92 504,-20 503.9,-19.98 503.8,-19.97 503.7,-19.95"/>
<polygon fill="midnightblue" stroke="midnightblue" points="504.6,-16.56 494.13,-18.15 503.31,-23.44 504.6,-16.56"/>
</g>
<!-- Node18 -->
<g id="node18" class="node">
<title>Node18</title>
<g id="a_node18"><a xlink:title=" ">
<polygon fill="white" stroke="#bfbfbf" points="512.5,-0.5 512.5,-19.5 559.5,-19.5 559.5,-0.5 512.5,-0.5"/>
<text text-anchor="middle" x="536" y="-7.5" font-family="Helvetica,sans-Serif" font-size="10.00">vector</text>
</a>
</g>
</g>
<!-- Node2&#45;&gt;Node18 -->
<g id="edge17" class="edge">
<title>Node2&#45;&gt;Node18</title>
<path fill="none" stroke="midnightblue" d="M974.18,-62.33C885.45,-57.85 719.74,-46.73 569.55,-19.78"/>
<polygon fill="midnightblue" stroke="midnightblue" points="570.15,-16.33 559.68,-17.98 568.89,-23.21 570.15,-16.33"/>
</g>
<!-- Node19 -->
<g id="node19" class="node">
<title>Node19</title>
<g id="a_node19"><a xlink:title=" ">
<polygon fill="white" stroke="#bfbfbf" points="578,-0.5 578,-19.5 628,-19.5 628,-0.5 578,-0.5"/>
<text text-anchor="middle" x="603" y="-7.5" font-family="Helvetica,sans-Serif" font-size="10.00">atomic</text>
</a>
</g>
</g>
<!-- Node2&#45;&gt;Node19 -->
<g id="edge18" class="edge">
<title>Node2&#45;&gt;Node19</title>
<path fill="none" stroke="midnightblue" d="M974.37,-60.76C897.02,-54.96 762.42,-42.79 638.22,-19.98"/>
<polygon fill="midnightblue" stroke="midnightblue" points="638.63,-16.49 628.16,-18.1 637.35,-23.37 638.63,-16.49"/>
</g>
<!-- Node20 -->
<g id="node20" class="node">
<title>Node20</title>
<g id="a_node20"><a xlink:title=" ">
<polygon fill="white" stroke="#bfbfbf" points="646,-0.5 646,-19.5 694,-19.5 694,-0.5 646,-0.5"/>
<text text-anchor="middle" x="670" y="-7.5" font-family="Helvetica,sans-Serif" font-size="10.00">mutex</text>
</a>
</g>
</g>
<!-- Node2&#45;&gt;Node20 -->
<g id="edge19" class="edge">
<title>Node2&#45;&gt;Node20</title>
<path fill="none" stroke="midnightblue" d="M974.29,-58.99C908.77,-52.23 803.65,-39.8 704,-19.96"/>
<polygon fill="midnightblue" stroke="midnightblue" points="704.56,-16.51 694.06,-17.96 703.17,-23.37 704.56,-16.51"/>
</g>
<!-- Node21 -->
<g id="node21" class="node">
<title>Node21</title>
<g id="a_node21"><a xlink:title=" ">
<polygon fill="white" stroke="#bfbfbf" points="712,-0.5 712,-19.5 744,-19.5 744,-0.5 712,-0.5"/>
<text text-anchor="middle" x="728" y="-7.5" font-family="Helvetica,sans-Serif" font-size="10.00">set</text>
</a>
</g>
</g>
<!-- Node2&#45;&gt;Node21 -->
<g id="edge20" class="edge">
<title>Node2&#45;&gt;Node21</title>
<path fill="none" stroke="midnightblue" d="M974.47,-58.46C918.53,-51.9 834.82,-40.19 754.1,-19.88"/>
<polygon fill="midnightblue" stroke="midnightblue" points="754.82,-16.45 744.27,-17.36 753.09,-23.23 754.82,-16.45"/>
</g>
<!-- Node22 -->
<g id="node22" class="node">
<title>Node22</title>
<g id="a_node22"><a xlink:title=" ">
<polygon fill="white" stroke="#bfbfbf" points="762,-0.5 762,-19.5 800,-19.5 800,-0.5 762,-0.5"/>
<text text-anchor="middle" x="781" y="-7.5" font-family="Helvetica,sans-Serif" font-size="10.00">map</text>
</a>
</g>
</g>
<!-- Node2&#45;&gt;Node22 -->
<g id="edge21" class="edge">
<title>Node2&#45;&gt;Node22</title>
<path fill="none" stroke="midnightblue" d="M985.31,-56.45C940.92,-48.84 875.59,-36.7 810.25,-20.09"/>
<polygon fill="midnightblue" stroke="midnightblue" points="810.75,-16.6 800.19,-17.5 809,-23.38 810.75,-16.6"/>
</g>
<!-- Node23 -->
<g id="node23" class="node">
<title>Node23</title>
<g id="a_node23"><a xlink:title=" ">
<polygon fill="white" stroke="#bfbfbf" points="818,-0.5 818,-19.5 904,-19.5 904,-0.5 818,-0.5"/>
<text text-anchor="middle" x="861" y="-7.5" font-family="Helvetica,sans-Serif" font-size="10.00">unordered_set</text>
</a>
</g>
</g>
<!-- Node2&#45;&gt;Node23 -->
<g id="edge22" class="edge">
<title>Node2&#45;&gt;Node23</title>
<path fill="none" stroke="midnightblue" d="M1009.95,-56.44C979.92,-47.28 932.09,-32.69 898.76,-22.52"/>
<polygon fill="midnightblue" stroke="midnightblue" points="899.5,-19.09 888.91,-19.52 897.46,-25.78 899.5,-19.09"/>
</g>
<!-- Node24 -->
<g id="node24" class="node">
<title>Node24</title>
<g id="a_node24"><a xlink:title=" ">
<polygon fill="white" stroke="#bfbfbf" points="922.5,-0.5 922.5,-19.5 987.5,-19.5 987.5,-0.5 922.5,-0.5"/>
<text text-anchor="middle" x="955" y="-7.5" font-family="Helvetica,sans-Serif" font-size="10.00">exception</text>
</a>
</g>
</g>
<!-- Node2&#45;&gt;Node24 -->
<g id="edge23" class="edge">
<title>Node2&#45;&gt;Node24</title>
<path fill="none" stroke="midnightblue" d="M1024.66,-56.32C1011.84,-47.98 992.22,-35.21 977.06,-25.35"/>
<polygon fill="midnightblue" stroke="midnightblue" points="978.59,-22.17 968.3,-19.65 974.78,-28.04 978.59,-22.17"/>
</g>
<!-- Node25 -->
<g id="node25" class="node">
<title>Node25</title>
<g id="a_node25"><a xlink:title=" ">
<polygon fill="white" stroke="#bfbfbf" points="1005.5,-0.5 1005.5,-19.5 1070.5,-19.5 1070.5,-0.5 1005.5,-0.5"/>
<text text-anchor="middle" x="1038" y="-7.5" font-family="Helvetica,sans-Serif" font-size="10.00">stdexcept</text>
</a>
</g>
</g>
<!-- Node2&#45;&gt;Node25 -->
<g id="edge24" class="edge">
<title>Node2&#45;&gt;Node25</title>
<path fill="none" stroke="midnightblue" d="M1038,-56.08C1038,-49.01 1038,-38.86 1038,-29.99"/>
<polygon fill="midnightblue" stroke="midnightblue" points="1041.5,-29.75 1038,-19.75 1034.5,-29.75 1041.5,-29.75"/>
</g>
<!-- Node26 -->
<g id="node26" class="node">
<title>Node26</title>
<g id="a_node26"><a xlink:title=" ">
<polygon fill="white" stroke="#bfbfbf" points="1088.5,-0.5 1088.5,-19.5 1139.5,-19.5 1139.5,-0.5 1088.5,-0.5"/>
<text text-anchor="middle" x="1114" y="-7.5" font-family="Helvetica,sans-Serif" font-size="10.00">csignal</text>
</a>
</g>
</g>
<!-- Node2&#45;&gt;Node26 -->
<g id="edge25" class="edge">
<title>Node2&#45;&gt;Node26</title>
<path fill="none" stroke="midnightblue" d="M1050.21,-56.32C1061.78,-48.11 1079.38,-35.6 1093.16,-25.81"/>
<polygon fill="midnightblue" stroke="midnightblue" points="1095.44,-28.48 1101.57,-19.83 1091.39,-22.77 1095.44,-28.48"/>
</g>
<!-- Node27 -->
<g id="node27" class="node">
<title>Node27</title>
<g id="a_node27"><a xlink:title=" ">
<polygon fill="white" stroke="#bfbfbf" points="1158,-0.5 1158,-19.5 1202,-19.5 1202,-0.5 1158,-0.5"/>
<text text-anchor="middle" x="1180" y="-7.5" font-family="Helvetica,sans-Serif" font-size="10.00">cfloat</text>
</a>
</g>
</g>
<!-- Node2&#45;&gt;Node27 -->
<g id="edge26" class="edge">
<title>Node2&#45;&gt;Node27</title>
<path fill="none" stroke="midnightblue" d="M1060.5,-56.44C1084.08,-47.48 1121.32,-33.31 1147.96,-23.18"/>
<polygon fill="midnightblue" stroke="midnightblue" points="1149.5,-26.34 1157.6,-19.52 1147.01,-19.8 1149.5,-26.34"/>
</g>
<!-- Node28 -->
<g id="node28" class="node">
<title>Node28</title>
<g id="a_node28"><a xlink:title=" ">
<polygon fill="white" stroke="#bfbfbf" points="1220.5,-0.5 1220.5,-19.5 1269.5,-19.5 1269.5,-0.5 1220.5,-0.5"/>
<text text-anchor="middle" x="1245" y="-7.5" font-family="Helvetica,sans-Serif" font-size="10.00">cctype</text>
</a>
</g>
</g>
<!-- Node2&#45;&gt;Node28 -->
<g id="edge27" class="edge">
<title>Node2&#45;&gt;Node28</title>
<path fill="none" stroke="midnightblue" d="M1070.85,-56.5C1103.69,-47.99 1155.88,-34.45 1210.61,-20.09"/>
<polygon fill="midnightblue" stroke="midnightblue" points="1211.71,-23.43 1220.49,-17.5 1209.93,-16.65 1211.71,-23.43"/>
</g>
<!-- Node29 -->
<g id="node29" class="node">
<title>Node29</title>
<g id="a_node29"><a xlink:title=" ">
<polygon fill="white" stroke="#bfbfbf" points="1288,-0.5 1288,-19.5 1338,-19.5 1338,-0.5 1288,-0.5"/>
<text text-anchor="middle" x="1313" y="-7.5" font-family="Helvetica,sans-Serif" font-size="10.00">cstdint</text>
</a>
</g>
</g>
<!-- Node2&#45;&gt;Node29 -->
<g id="edge28" class="edge">
<title>Node2&#45;&gt;Node29</title>
<path fill="none" stroke="midnightblue" d="M1089.94,-56.45C1136.7,-48.49 1207.51,-35.8 1277.88,-20.13"/>
<polygon fill="midnightblue" stroke="midnightblue" points="1278.81,-23.5 1287.8,-17.89 1277.28,-16.67 1278.81,-23.5"/>
</g>
<!-- Node30 -->
<g id="node30" class="node">
<title>Node30</title>
<g id="a_node30"><a xlink:title=" ">
<polygon fill="white" stroke="#bfbfbf" points="0,-0.5 0,-19.5 44,-19.5 44,-0.5 0,-0.5"/>
<text text-anchor="middle" x="22" y="-7.5" font-family="Helvetica,sans-Serif" font-size="10.00">string</text>
</a>
</g>
</g>
<!-- Node2&#45;&gt;Node30 -->
<g id="edge29" class="edge">
<title>Node2&#45;&gt;Node30</title>
<path fill="none" stroke="midnightblue" d="M974.25,-64.06C788.67,-61.01 250.11,-49.91 54.11,-19.72"/>
<polygon fill="midnightblue" stroke="midnightblue" points="54.63,-16.26 44.21,-18.13 53.52,-23.17 54.63,-16.26"/>
</g>
<!-- Node31 -->
<g id="node31" class="node">
<title>Node31</title>
<g id="a_node31"><a xlink:title=" ">
<polygon fill="white" stroke="#bfbfbf" points="1356,-0.5 1356,-19.5 1424,-19.5 1424,-0.5 1356,-0.5"/>
<text text-anchor="middle" x="1390" y="-7.5" font-family="Helvetica,sans-Serif" font-size="10.00">sys/time.h</text>
</a>
</g>
</g>
<!-- Node2&#45;&gt;Node31 -->
<g id="edge30" class="edge">
<title>Node2&#45;&gt;Node31</title>
<path fill="none" stroke="midnightblue" d="M1101.51,-56.92C1161.9,-48.97 1255.53,-35.95 1345.9,-20.11"/>
<polygon fill="midnightblue" stroke="midnightblue" points="1346.53,-23.55 1355.77,-18.36 1345.31,-16.66 1346.53,-23.55"/>
</g>
<!-- Node32 -->
<g id="node32" class="node">
<title>Node32</title>
<g id="a_node32"><a xlink:title=" ">
<polygon fill="white" stroke="#bfbfbf" points="1442,-0.5 1442,-19.5 1498,-19.5 1498,-0.5 1442,-0.5"/>
<text text-anchor="middle" x="1470" y="-7.5" font-family="Helvetica,sans-Serif" font-size="10.00">unistd.h</text>
</a>
</g>
</g>
<!-- Node2&#45;&gt;Node32 -->
<g id="edge31" class="edge">
<title>Node2&#45;&gt;Node32</title>
<path fill="none" stroke="midnightblue" d="M1101.63,-60.22C1177.93,-53.93 1309.79,-41.33 1431.9,-20"/>
<polygon fill="midnightblue" stroke="midnightblue" points="1432.56,-23.44 1441.8,-18.25 1431.34,-16.54 1432.56,-23.44"/>
</g>
<!-- Node33&#45;&gt;Node15 -->
<g id="edge33" class="edge">
<title>Node33&#45;&gt;Node15</title>
<path fill="none" stroke="midnightblue" d="M139.42,-112.2C143.63,-102.25 148.91,-88.55 152,-76 155.78,-60.63 157.82,-42.75 158.88,-29.64"/>
<polygon fill="midnightblue" stroke="midnightblue" points="162.39,-29.75 159.6,-19.53 155.4,-29.26 162.39,-29.75"/>
</g>
<!-- Node33&#45;&gt;Node30 -->
<g id="edge34" class="edge">
<title>Node33&#45;&gt;Node30</title>
<path fill="none" stroke="midnightblue" d="M86.36,-112.47C67.74,-104.6 47.74,-92.89 35,-76 25.04,-62.79 22.17,-43.92 21.56,-29.91"/>
<polygon fill="midnightblue" stroke="midnightblue" points="25.06,-29.49 21.48,-19.52 18.06,-29.55 25.06,-29.49"/>
</g>
<!-- Node34 -->
<g id="node34" class="node">
<title>Node34</title>
<g id="a_node34"><a xlink:href="erros_8hpp.html" target="_top" xlink:title="Classes de tratamento de exceções.">
<polygon fill="white" stroke="black" points="44.5,-56.5 44.5,-75.5 143.5,-75.5 143.5,-56.5 44.5,-56.5"/>
<text text-anchor="middle" x="94" y="-63.5" font-family="Helvetica,sans-Serif" font-size="10.00">../erros/erros.hpp</text>
</a>
</g>
</g>
<!-- Node33&#45;&gt;Node34 -->
<g id="edge35" class="edge">
<title>Node33&#45;&gt;Node34</title>
<path fill="none" stroke="midnightblue" d="M123.76,-112.4C118.21,-103.93 111.11,-93.1 105.23,-84.14"/>
<polygon fill="midnightblue" stroke="midnightblue" points="108.08,-82.1 99.67,-75.66 102.23,-85.94 108.08,-82.1"/>
</g>
<!-- Node34&#45;&gt;Node10 -->
<g id="edge38" class="edge">
<title>Node34&#45;&gt;Node10</title>
<path fill="none" stroke="midnightblue" d="M92.84,-56.08C91.92,-48.93 90.58,-38.64 89.42,-29.69"/>
<polygon fill="midnightblue" stroke="midnightblue" points="92.89,-29.22 88.13,-19.75 85.95,-30.12 92.89,-29.22"/>
</g>
<!-- Node34&#45;&gt;Node15 -->
<g id="edge36" class="edge">
<title>Node34&#45;&gt;Node15</title>
<path fill="none" stroke="midnightblue" d="M104.6,-56.32C114.46,-48.26 129.35,-36.08 141.22,-26.37"/>
<polygon fill="midnightblue" stroke="midnightblue" points="143.68,-28.88 149.2,-19.83 139.25,-23.46 143.68,-28.88"/>
</g>
<!-- Node34&#45;&gt;Node30 -->
<g id="edge37" class="edge">
<title>Node34&#45;&gt;Node30</title>
<path fill="none" stroke="midnightblue" d="M82.43,-56.32C71.58,-48.18 55.12,-35.84 42.12,-26.09"/>
<polygon fill="midnightblue" stroke="midnightblue" points="43.88,-23.03 33.78,-19.83 39.68,-28.63 43.88,-23.03"/>
</g>
</g>
</svg>
