<?xml version="1.0" encoding="UTF-8" standalone="no"?>
<!DOCTYPE svg PUBLIC "-//W3C//DTD SVG 1.1//EN"
 "http://www.w3.org/Graphics/SVG/1.1/DTD/svg11.dtd">
<!-- Generated by graphviz version 2.43.0 (0)
 -->
<!-- Title: tests/teste_livro.hpp Pages: 1 -->
<svg width="2089pt" height="140pt"
 viewBox="0.00 0.00 2089.00 140.00" xmlns="http://www.w3.org/2000/svg" xmlns:xlink="http://www.w3.org/1999/xlink">
<g id="graph0" class="graph" transform="scale(1 1) rotate(0) translate(4 136)">
<title>tests/teste_livro.hpp</title>
<polygon fill="white" stroke="transparent" points="-4,4 -4,-136 2085,-136 2085,4 -4,4"/>
<!-- Node1 -->
<g id="node1" class="node">
<title>Node1</title>
<g id="a_node1"><a xlink:title=" ">
<polygon fill="#bfbfbf" stroke="black" points="509,-112.5 509,-131.5 625,-131.5 625,-112.5 509,-112.5"/>
<text text-anchor="middle" x="567" y="-119.5" font-family="Helvetica,sans-Serif" font-size="10.00">tests/teste_livro.hpp</text>
</a>
</g>
</g>
<!-- Node2 -->
<g id="node2" class="node">
<title>Node2</title>
<g id="a_node2"><a xlink:href="doctest_8h.html" target="_top" xlink:title=" ">
<polygon fill="white" stroke="black" points="969.5,-56.5 969.5,-75.5 1096.5,-75.5 1096.5,-56.5 969.5,-56.5"/>
<text text-anchor="middle" x="1033" y="-63.5" font-family="Helvetica,sans-Serif" font-size="10.00">../third_party/doctest.h</text>
</a>
</g>
</g>
<!-- Node1&#45;&gt;Node2 -->
<g id="edge1" class="edge">
<title>Node1&#45;&gt;Node2</title>
<path fill="none" stroke="midnightblue" d="M625.08,-114.27C709.62,-104.47 866.57,-86.29 959.2,-75.55"/>
<polygon fill="midnightblue" stroke="midnightblue" points="959.8,-79.01 969.33,-74.38 959,-72.05 959.8,-79.01"/>
</g>
<!-- Node33 -->
<g id="node33" class="node">
<title>Node33</title>
<g id="a_node33"><a xlink:href="livro_8hpp.html" target="_top" xlink:title="Classe do objeto Livro.">
<polygon fill="white" stroke="black" points="68.5,-56.5 68.5,-75.5 199.5,-75.5 199.5,-56.5 68.5,-56.5"/>
<text text-anchor="middle" x="134" y="-63.5" font-family="Helvetica,sans-Serif" font-size="10.00">../include/livro/livro.hpp</text>
</a>
</g>
</g>
<!-- Node1&#45;&gt;Node33 -->
<g id="edge32" class="edge">
<title>Node1&#45;&gt;Node33</title>
<path fill="none" stroke="midnightblue" d="M508.6,-113.72C431.3,-104.08 294.86,-87.06 209.71,-76.44"/>
<polygon fill="midnightblue" stroke="midnightblue" points="209.95,-72.94 199.59,-75.18 209.08,-79.89 209.95,-72.94"/>
</g>
<!-- Node3 -->
<g id="node3" class="node">
<title>Node3</title>
<g id="a_node3"><a xlink:title=" ">
<polygon fill="white" stroke="#bfbfbf" points="1511.5,-0.5 1511.5,-19.5 1566.5,-19.5 1566.5,-0.5 1511.5,-0.5"/>
<text text-anchor="middle" x="1539" y="-7.5" font-family="Helvetica,sans-Serif" font-size="10.00">signal.h</text>
</a>
</g>
</g>
<!-- Node2&#45;&gt;Node3 -->
<g id="edge2" class="edge">
<title>Node2&#45;&gt;Node3</title>
<path fill="none" stroke="midnightblue" d="M1096.72,-61.78C1185.34,-56.66 1350.92,-44.78 1501.32,-19.87"/>
<polygon fill="midnightblue" stroke="midnightblue" points="1501.93,-23.32 1511.21,-18.21 1500.77,-16.42 1501.93,-23.32"/>
</g>
<!-- Node4 -->
<g id="node4" class="node">
<title>Node4</title>
<g id="a_node4"><a xlink:title=" ">
<polygon fill="white" stroke="#bfbfbf" points="1585,-0.5 1585,-19.5 1629,-19.5 1629,-0.5 1585,-0.5"/>
<text text-anchor="middle" x="1607" y="-7.5" font-family="Helvetica,sans-Serif" font-size="10.00">ctime</text>
</a>
</g>
</g>
<!-- Node2&#45;&gt;Node4 -->
<g id="edge3" class="edge">
<title>Node2&#45;&gt;Node4</title>
<path fill="none" stroke="midnightblue" d="M1096.66,-63.84C1196.76,-61.1 1397,-52 1574.72,-19.88"/>
<polygon fill="midnightblue" stroke="midnightblue" points="1575.57,-23.28 1584.78,-18.03 1574.31,-16.39 1575.57,-23.28"/>
</g>
<!-- Node5 -->
<g id="node5" class="node">
<title>Node5</title>
<g id="a_node5"><a xlink:title=" ">
<polygon fill="white" stroke="#bfbfbf" points="1647.5,-0.5 1647.5,-19.5 1694.5,-19.5 1694.5,-0.5 1647.5,-0.5"/>
<text text-anchor="middle" x="1671" y="-7.5" font-family="Helvetica,sans-Serif" font-size="10.00">cmath</text>
</a>
</g>
</g>
<!-- Node2&#45;&gt;Node5 -->
<g id="edge4" class="edge">
<title>Node2&#45;&gt;Node5</title>
<path fill="none" stroke="midnightblue" d="M1096.63,-64.27C1205.64,-62.15 1435.05,-53.87 1637.41,-19.74"/>
<polygon fill="midnightblue" stroke="midnightblue" points="1638.06,-23.18 1647.33,-18.04 1636.88,-16.28 1638.06,-23.18"/>
</g>
<!-- Node6 -->
<g id="node6" class="node">
<title>Node6</title>
<g id="a_node6"><a xlink:title=" ">
<polygon fill="white" stroke="#bfbfbf" points="1713,-0.5 1713,-19.5 1763,-19.5 1763,-0.5 1713,-0.5"/>
<text text-anchor="middle" x="1738" y="-7.5" font-family="Helvetica,sans-Serif" font-size="10.00">climits</text>
</a>
</g>
</g>
<!-- Node2&#45;&gt;Node6 -->
<g id="edge5" class="edge">
<title>Node2&#45;&gt;Node6</title>
<path fill="none" stroke="midnightblue" d="M1096.84,-64.78C1214.9,-63.49 1475.31,-56.51 1702.74,-19.88"/>
<polygon fill="midnightblue" stroke="midnightblue" points="1703.56,-23.29 1712.87,-18.23 1702.43,-16.39 1703.56,-23.29"/>
</g>
<!-- Node7 -->
<g id="node7" class="node">
<title>Node7</title>
<g id="a_node7"><a xlink:title=" ">
<polygon fill="white" stroke="#bfbfbf" points="1781.5,-0.5 1781.5,-19.5 1818.5,-19.5 1818.5,-0.5 1781.5,-0.5"/>
<text text-anchor="middle" x="1800" y="-7.5" font-family="Helvetica,sans-Serif" font-size="10.00">new</text>
</a>
</g>
</g>
<!-- Node2&#45;&gt;Node7 -->
<g id="edge6" class="edge">
<title>Node2&#45;&gt;Node7</title>
<path fill="none" stroke="midnightblue" d="M1096.71,-63.17C1247.72,-58.5 1625.07,-44.86 1771.36,-19.51"/>
<polygon fill="midnightblue" stroke="midnightblue" points="1772.28,-22.9 1781.49,-17.66 1771.03,-16.01 1772.28,-22.9"/>
</g>
<!-- Node8 -->
<g id="node8" class="node">
<title>Node8</title>
<g id="a_node8"><a xlink:title=" ">
<polygon fill="white" stroke="#bfbfbf" points="1837,-0.5 1837,-19.5 1883,-19.5 1883,-0.5 1837,-0.5"/>
<text text-anchor="middle" x="1860" y="-7.5" font-family="Helvetica,sans-Serif" font-size="10.00">cstdio</text>
</a>
</g>
</g>
<!-- Node2&#45;&gt;Node8 -->
<g id="edge7" class="edge">
<title>Node2&#45;&gt;Node8</title>
<path fill="none" stroke="midnightblue" d="M1096.65,-63.19C1255.9,-58.36 1669.44,-44.04 1826.73,-19.79"/>
<polygon fill="midnightblue" stroke="midnightblue" points="1827.4,-23.23 1836.71,-18.18 1826.28,-16.32 1827.4,-23.23"/>
</g>
<!-- Node9 -->
<g id="node9" class="node">
<title>Node9</title>
<g id="a_node9"><a xlink:title=" ">
<polygon fill="white" stroke="#bfbfbf" points="1901.5,-0.5 1901.5,-19.5 1950.5,-19.5 1950.5,-0.5 1901.5,-0.5"/>
<text text-anchor="middle" x="1926" y="-7.5" font-family="Helvetica,sans-Serif" font-size="10.00">cstdlib</text>
</a>
</g>
</g>
<!-- Node2&#45;&gt;Node9 -->
<g id="edge8" class="edge">
<title>Node2&#45;&gt;Node9</title>
<path fill="none" stroke="midnightblue" d="M1096.71,-63.37C1265.08,-58.79 1720.04,-44.62 1891.12,-19.72"/>
<polygon fill="midnightblue" stroke="midnightblue" points="1891.88,-23.15 1901.24,-18.19 1890.83,-16.23 1891.88,-23.15"/>
</g>
<!-- Node10 -->
<g id="node10" class="node">
<title>Node10</title>
<g id="a_node10"><a xlink:title=" ">
<polygon fill="white" stroke="#bfbfbf" points="1969,-0.5 1969,-19.5 2019,-19.5 2019,-0.5 1969,-0.5"/>
<text text-anchor="middle" x="1994" y="-7.5" font-family="Helvetica,sans-Serif" font-size="10.00">cstring</text>
</a>
</g>
</g>
<!-- Node2&#45;&gt;Node10 -->
<g id="edge9" class="edge">
<title>Node2&#45;&gt;Node10</title>
<path fill="none" stroke="midnightblue" d="M1096.81,-63.65C1274.61,-59.61 1774.11,-46.35 1958.74,-19.8"/>
<polygon fill="midnightblue" stroke="midnightblue" points="1959.5,-23.23 1968.87,-18.28 1958.47,-16.3 1959.5,-23.23"/>
</g>
<!-- Node11 -->
<g id="node11" class="node">
<title>Node11</title>
<g id="a_node11"><a xlink:title=" ">
<polygon fill="white" stroke="#bfbfbf" points="2037,-0.5 2037,-19.5 2081,-19.5 2081,-0.5 2037,-0.5"/>
<text text-anchor="middle" x="2059" y="-7.5" font-family="Helvetica,sans-Serif" font-size="10.00">limits</text>
</a>
</g>
</g>
<!-- Node2&#45;&gt;Node11 -->
<g id="edge10" class="edge">
<title>Node2&#45;&gt;Node11</title>
<path fill="none" stroke="midnightblue" d="M1096.73,-64.09C1283.55,-61.13 1828.63,-50.2 2026.78,-19.74"/>
<polygon fill="midnightblue" stroke="midnightblue" points="2027.48,-23.17 2036.79,-18.13 2026.37,-16.26 2027.48,-23.17"/>
</g>
<!-- Node12 -->
<g id="node12" class="node">
<title>Node12</title>
<g id="a_node12"><a xlink:title=" ">
<polygon fill="white" stroke="#bfbfbf" points="206.5,-0.5 206.5,-19.5 251.5,-19.5 251.5,-0.5 206.5,-0.5"/>
<text text-anchor="middle" x="229" y="-7.5" font-family="Helvetica,sans-Serif" font-size="10.00">utility</text>
</a>
</g>
</g>
<!-- Node2&#45;&gt;Node12 -->
<g id="edge11" class="edge">
<title>Node2&#45;&gt;Node12</title>
<path fill="none" stroke="midnightblue" d="M969.36,-63.13C813.38,-58.28 414.26,-44.02 261.67,-19.86"/>
<polygon fill="midnightblue" stroke="midnightblue" points="261.99,-16.37 251.55,-18.18 260.84,-23.27 261.99,-16.37"/>
</g>
<!-- Node13 -->
<g id="node13" class="node">
<title>Node13</title>
<g id="a_node13"><a xlink:title=" ">
<polygon fill="white" stroke="#bfbfbf" points="269.5,-0.5 269.5,-19.5 324.5,-19.5 324.5,-0.5 269.5,-0.5"/>
<text text-anchor="middle" x="297" y="-7.5" font-family="Helvetica,sans-Serif" font-size="10.00">fstream</text>
</a>
</g>
</g>
<!-- Node2&#45;&gt;Node13 -->
<g id="edge12" class="edge">
<title>Node2&#45;&gt;Node13</title>
<path fill="none" stroke="midnightblue" d="M969.47,-64.6C847.9,-63.05 573.94,-55.66 334.7,-19.81"/>
<polygon fill="midnightblue" stroke="midnightblue" points="335.19,-16.35 324.78,-18.31 334.14,-23.27 335.19,-16.35"/>
</g>
<!-- Node14 -->
<g id="node14" class="node">
<title>Node14</title>
<g id="a_node14"><a xlink:title=" ">
<polygon fill="white" stroke="#bfbfbf" points="343,-0.5 343,-19.5 399,-19.5 399,-0.5 343,-0.5"/>
<text text-anchor="middle" x="371" y="-7.5" font-family="Helvetica,sans-Serif" font-size="10.00">sstream</text>
</a>
</g>
</g>
<!-- Node2&#45;&gt;Node14 -->
<g id="edge13" class="edge">
<title>Node2&#45;&gt;Node14</title>
<path fill="none" stroke="midnightblue" d="M969.17,-63.91C857.41,-61.24 619.01,-52.12 409.15,-19.92"/>
<polygon fill="midnightblue" stroke="midnightblue" points="409.6,-16.45 399.18,-18.37 408.53,-23.36 409.6,-16.45"/>
</g>
<!-- Node15 -->
<g id="node15" class="node">
<title>Node15</title>
<g id="a_node15"><a xlink:title=" ">
<polygon fill="white" stroke="#bfbfbf" points="0,-0.5 0,-19.5 60,-19.5 60,-0.5 0,-0.5"/>
<text text-anchor="middle" x="30" y="-7.5" font-family="Helvetica,sans-Serif" font-size="10.00">iostream</text>
</a>
</g>
</g>
<!-- Node2&#45;&gt;Node15 -->
<g id="edge14" class="edge">
<title>Node2&#45;&gt;Node15</title>
<path fill="none" stroke="midnightblue" d="M969.35,-63.53C786.79,-59.07 262.66,-44.57 70.15,-19.86"/>
<polygon fill="midnightblue" stroke="midnightblue" points="70.51,-16.37 60.13,-18.52 69.58,-23.31 70.51,-16.37"/>
</g>
<!-- Node16 -->
<g id="node16" class="node">
<title>Node16</title>
<g id="a_node16"><a xlink:title=" ">
<polygon fill="white" stroke="#bfbfbf" points="417,-0.5 417,-19.5 481,-19.5 481,-0.5 417,-0.5"/>
<text text-anchor="middle" x="449" y="-7.5" font-family="Helvetica,sans-Serif" font-size="10.00">algorithm</text>
</a>
</g>
</g>
<!-- Node2&#45;&gt;Node16 -->
<g id="edge15" class="edge">
<title>Node2&#45;&gt;Node16</title>
<path fill="none" stroke="midnightblue" d="M969.15,-62.47C869.22,-57.9 669.69,-46.34 491.25,-19.99"/>
<polygon fill="midnightblue" stroke="midnightblue" points="491.56,-16.5 481.15,-18.48 490.53,-23.42 491.56,-16.5"/>
</g>
<!-- Node17 -->
<g id="node17" class="node">
<title>Node17</title>
<g id="a_node17"><a xlink:title=" ">
<polygon fill="white" stroke="#bfbfbf" points="499,-0.5 499,-19.5 555,-19.5 555,-0.5 499,-0.5"/>
<text text-anchor="middle" x="527" y="-7.5" font-family="Helvetica,sans-Serif" font-size="10.00">iomanip</text>
</a>
</g>
</g>
<!-- Node2&#45;&gt;Node17 -->
<g id="edge16" class="edge">
<title>Node2&#45;&gt;Node17</title>
<path fill="none" stroke="midnightblue" d="M969.28,-61.78C880.74,-56.67 715.41,-44.8 565.5,-20.03"/>
<polygon fill="midnightblue" stroke="midnightblue" points="565.64,-16.5 555.2,-18.3 564.48,-23.4 565.64,-16.5"/>
</g>
<!-- Node18 -->
<g id="node18" class="node">
<title>Node18</title>
<g id="a_node18"><a xlink:title=" ">
<polygon fill="white" stroke="#bfbfbf" points="78.5,-0.5 78.5,-19.5 125.5,-19.5 125.5,-0.5 78.5,-0.5"/>
<text text-anchor="middle" x="102" y="-7.5" font-family="Helvetica,sans-Serif" font-size="10.00">vector</text>
</a>
</g>
</g>
<!-- Node2&#45;&gt;Node18 -->
<g id="edge17" class="edge">
<title>Node2&#45;&gt;Node18</title>
<path fill="none" stroke="midnightblue" d="M969.28,-63.6C795.46,-59.49 314.77,-46.2 135.74,-19.67"/>
<polygon fill="midnightblue" stroke="midnightblue" points="136.08,-16.18 125.66,-18.11 135.01,-23.1 136.08,-16.18"/>
</g>
<!-- Node19 -->
<g id="node19" class="node">
<title>Node19</title>
<g id="a_node19"><a xlink:title=" ">
<polygon fill="white" stroke="#bfbfbf" points="573,-0.5 573,-19.5 623,-19.5 623,-0.5 573,-0.5"/>
<text text-anchor="middle" x="598" y="-7.5" font-family="Helvetica,sans-Serif" font-size="10.00">atomic</text>
</a>
</g>
</g>
<!-- Node2&#45;&gt;Node19 -->
<g id="edge18" class="edge">
<title>Node2&#45;&gt;Node19</title>
<path fill="none" stroke="midnightblue" d="M969.37,-60.76C892.02,-54.96 757.42,-42.79 633.22,-19.98"/>
<polygon fill="midnightblue" stroke="midnightblue" points="633.63,-16.49 623.16,-18.1 632.35,-23.37 633.63,-16.49"/>
</g>
<!-- Node20 -->
<g id="node20" class="node">
<title>Node20</title>
<g id="a_node20"><a xlink:title=" ">
<polygon fill="white" stroke="#bfbfbf" points="641,-0.5 641,-19.5 689,-19.5 689,-0.5 641,-0.5"/>
<text text-anchor="middle" x="665" y="-7.5" font-family="Helvetica,sans-Serif" font-size="10.00">mutex</text>
</a>
</g>
</g>
<!-- Node2&#45;&gt;Node20 -->
<g id="edge19" class="edge">
<title>Node2&#45;&gt;Node20</title>
<path fill="none" stroke="midnightblue" d="M969.29,-58.99C903.77,-52.23 798.65,-39.8 699,-19.96"/>
<polygon fill="midnightblue" stroke="midnightblue" points="699.56,-16.51 689.06,-17.96 698.17,-23.37 699.56,-16.51"/>
</g>
<!-- Node21 -->
<g id="node21" class="node">
<title>Node21</title>
<g id="a_node21"><a xlink:title=" ">
<polygon fill="white" stroke="#bfbfbf" points="707,-0.5 707,-19.5 739,-19.5 739,-0.5 707,-0.5"/>
<text text-anchor="middle" x="723" y="-7.5" font-family="Helvetica,sans-Serif" font-size="10.00">set</text>
</a>
</g>
</g>
<!-- Node2&#45;&gt;Node21 -->
<g id="edge20" class="edge">
<title>Node2&#45;&gt;Node21</title>
<path fill="none" stroke="midnightblue" d="M969.47,-58.46C913.53,-51.9 829.82,-40.19 749.1,-19.88"/>
<polygon fill="midnightblue" stroke="midnightblue" points="749.82,-16.45 739.27,-17.36 748.09,-23.23 749.82,-16.45"/>
</g>
<!-- Node22 -->
<g id="node22" class="node">
<title>Node22</title>
<g id="a_node22"><a xlink:title=" ">
<polygon fill="white" stroke="#bfbfbf" points="757,-0.5 757,-19.5 795,-19.5 795,-0.5 757,-0.5"/>
<text text-anchor="middle" x="776" y="-7.5" font-family="Helvetica,sans-Serif" font-size="10.00">map</text>
</a>
</g>
</g>
<!-- Node2&#45;&gt;Node22 -->
<g id="edge21" class="edge">
<title>Node2&#45;&gt;Node22</title>
<path fill="none" stroke="midnightblue" d="M980.31,-56.45C935.92,-48.84 870.59,-36.7 805.25,-20.09"/>
<polygon fill="midnightblue" stroke="midnightblue" points="805.75,-16.6 795.19,-17.5 804,-23.38 805.75,-16.6"/>
</g>
<!-- Node23 -->
<g id="node23" class="node">
<title>Node23</title>
<g id="a_node23"><a xlink:title=" ">
<polygon fill="white" stroke="#bfbfbf" points="813,-0.5 813,-19.5 899,-19.5 899,-0.5 813,-0.5"/>
<text text-anchor="middle" x="856" y="-7.5" font-family="Helvetica,sans-Serif" font-size="10.00">unordered_set</text>
</a>
</g>
</g>
<!-- Node2&#45;&gt;Node23 -->
<g id="edge22" class="edge">
<title>Node2&#45;&gt;Node23</title>
<path fill="none" stroke="midnightblue" d="M1004.95,-56.44C974.92,-47.28 927.09,-32.69 893.76,-22.52"/>
<polygon fill="midnightblue" stroke="midnightblue" points="894.5,-19.09 883.91,-19.52 892.46,-25.78 894.5,-19.09"/>
</g>
<!-- Node24 -->
<g id="node24" class="node">
<title>Node24</title>
<g id="a_node24"><a xlink:title=" ">
<polygon fill="white" stroke="#bfbfbf" points="917.5,-0.5 917.5,-19.5 982.5,-19.5 982.5,-0.5 917.5,-0.5"/>
<text text-anchor="middle" x="950" y="-7.5" font-family="Helvetica,sans-Serif" font-size="10.00">exception</text>
</a>
</g>
</g>
<!-- Node2&#45;&gt;Node24 -->
<g id="edge23" class="edge">
<title>Node2&#45;&gt;Node24</title>
<path fill="none" stroke="midnightblue" d="M1019.66,-56.32C1006.84,-47.98 987.22,-35.21 972.06,-25.35"/>
<polygon fill="midnightblue" stroke="midnightblue" points="973.59,-22.17 963.3,-19.65 969.78,-28.04 973.59,-22.17"/>
</g>
<!-- Node25 -->
<g id="node25" class="node">
<title>Node25</title>
<g id="a_node25"><a xlink:title=" ">
<polygon fill="white" stroke="#bfbfbf" points="1000.5,-0.5 1000.5,-19.5 1065.5,-19.5 1065.5,-0.5 1000.5,-0.5"/>
<text text-anchor="middle" x="1033" y="-7.5" font-family="Helvetica,sans-Serif" font-size="10.00">stdexcept</text>
</a>
</g>
</g>
<!-- Node2&#45;&gt;Node25 -->
<g id="edge24" class="edge">
<title>Node2&#45;&gt;Node25</title>
<path fill="none" stroke="midnightblue" d="M1033,-56.08C1033,-49.01 1033,-38.86 1033,-29.99"/>
<polygon fill="midnightblue" stroke="midnightblue" points="1036.5,-29.75 1033,-19.75 1029.5,-29.75 1036.5,-29.75"/>
</g>
<!-- Node26 -->
<g id="node26" class="node">
<title>Node26</title>
<g id="a_node26"><a xlink:title=" ">
<polygon fill="white" stroke="#bfbfbf" points="1083.5,-0.5 1083.5,-19.5 1134.5,-19.5 1134.5,-0.5 1083.5,-0.5"/>
<text text-anchor="middle" x="1109" y="-7.5" font-family="Helvetica,sans-Serif" font-size="10.00">csignal</text>
</a>
</g>
</g>
<!-- Node2&#45;&gt;Node26 -->
<g id="edge25" class="edge">
<title>Node2&#45;&gt;Node26</title>
<path fill="none" stroke="midnightblue" d="M1045.21,-56.32C1056.78,-48.11 1074.38,-35.6 1088.16,-25.81"/>
<polygon fill="midnightblue" stroke="midnightblue" points="1090.44,-28.48 1096.57,-19.83 1086.39,-22.77 1090.44,-28.48"/>
</g>
<!-- Node27 -->
<g id="node27" class="node">
<title>Node27</title>
<g id="a_node27"><a xlink:title=" ">
<polygon fill="white" stroke="#bfbfbf" points="1153,-0.5 1153,-19.5 1197,-19.5 1197,-0.5 1153,-0.5"/>
<text text-anchor="middle" x="1175" y="-7.5" font-family="Helvetica,sans-Serif" font-size="10.00">cfloat</text>
</a>
</g>
</g>
<!-- Node2&#45;&gt;Node27 -->
<g id="edge26" class="edge">
<title>Node2&#45;&gt;Node27</title>
<path fill="none" stroke="midnightblue" d="M1055.5,-56.44C1079.08,-47.48 1116.32,-33.31 1142.96,-23.18"/>
<polygon fill="midnightblue" stroke="midnightblue" points="1144.5,-26.34 1152.6,-19.52 1142.01,-19.8 1144.5,-26.34"/>
</g>
<!-- Node28 -->
<g id="node28" class="node">
<title>Node28</title>
<g id="a_node28"><a xlink:title=" ">
<polygon fill="white" stroke="#bfbfbf" points="1215.5,-0.5 1215.5,-19.5 1264.5,-19.5 1264.5,-0.5 1215.5,-0.5"/>
<text text-anchor="middle" x="1240" y="-7.5" font-family="Helvetica,sans-Serif" font-size="10.00">cctype</text>
</a>
</g>
</g>
<!-- Node2&#45;&gt;Node28 -->
<g id="edge27" class="edge">
<title>Node2&#45;&gt;Node28</title>
<path fill="none" stroke="midnightblue" d="M1065.85,-56.5C1098.69,-47.99 1150.88,-34.45 1205.61,-20.09"/>
<polygon fill="midnightblue" stroke="midnightblue" points="1206.71,-23.43 1215.49,-17.5 1204.93,-16.65 1206.71,-23.43"/>
</g>
<!-- Node29 -->
<g id="node29" class="node">
<title>Node29</title>
<g id="a_node29"><a xlink:title=" ">
<polygon fill="white" stroke="#bfbfbf" points="1283,-0.5 1283,-19.5 1333,-19.5 1333,-0.5 1283,-0.5"/>
<text text-anchor="middle" x="1308" y="-7.5" font-family="Helvetica,sans-Serif" font-size="10.00">cstdint</text>
</a>
</g>
</g>
<!-- Node2&#45;&gt;Node29 -->
<g id="edge28" class="edge">
<title>Node2&#45;&gt;Node29</title>
<path fill="none" stroke="midnightblue" d="M1084.94,-56.45C1131.7,-48.49 1202.51,-35.8 1272.88,-20.13"/>
<polygon fill="midnightblue" stroke="midnightblue" points="1273.81,-23.5 1282.8,-17.89 1272.28,-16.67 1273.81,-23.5"/>
</g>
<!-- Node30 -->
<g id="node30" class="node">
<title>Node30</title>
<g id="a_node30"><a xlink:title=" ">
<polygon fill="white" stroke="#bfbfbf" points="144,-0.5 144,-19.5 188,-19.5 188,-0.5 144,-0.5"/>
<text text-anchor="middle" x="166" y="-7.5" font-family="Helvetica,sans-Serif" font-size="10.00">string</text>
</a>
</g>
</g>
<!-- Node2&#45;&gt;Node30 -->
<g id="edge29" class="edge">
<title>Node2&#45;&gt;Node30</title>
<path fill="none" stroke="midnightblue" d="M969.45,-63.46C804.38,-59.17 363.97,-45.76 198.25,-19.76"/>
<polygon fill="midnightblue" stroke="midnightblue" points="198.64,-16.28 188.21,-18.11 197.51,-23.18 198.64,-16.28"/>
</g>
<!-- Node31 -->
<g id="node31" class="node">
<title>Node31</title>
<g id="a_node31"><a xlink:title=" ">
<polygon fill="white" stroke="#bfbfbf" points="1351,-0.5 1351,-19.5 1419,-19.5 1419,-0.5 1351,-0.5"/>
<text text-anchor="middle" x="1385" y="-7.5" font-family="Helvetica,sans-Serif" font-size="10.00">sys/time.h</text>
</a>
</g>
</g>
<!-- Node2&#45;&gt;Node31 -->
<g id="edge30" class="edge">
<title>Node2&#45;&gt;Node31</title>
<path fill="none" stroke="midnightblue" d="M1096.51,-56.92C1156.9,-48.97 1250.53,-35.95 1340.9,-20.11"/>
<polygon fill="midnightblue" stroke="midnightblue" points="1341.53,-23.55 1350.77,-18.36 1340.31,-16.66 1341.53,-23.55"/>
</g>
<!-- Node32 -->
<g id="node32" class="node">
<title>Node32</title>
<g id="a_node32"><a xlink:title=" ">
<polygon fill="white" stroke="#bfbfbf" points="1437,-0.5 1437,-19.5 1493,-19.5 1493,-0.5 1437,-0.5"/>
<text text-anchor="middle" x="1465" y="-7.5" font-family="Helvetica,sans-Serif" font-size="10.00">unistd.h</text>
</a>
</g>
</g>
<!-- Node2&#45;&gt;Node32 -->
<g id="edge31" class="edge">
<title>Node2&#45;&gt;Node32</title>
<path fill="none" stroke="midnightblue" d="M1096.63,-60.22C1172.93,-53.93 1304.79,-41.33 1426.9,-20"/>
<polygon fill="midnightblue" stroke="midnightblue" points="1427.56,-23.44 1436.8,-18.25 1426.34,-16.54 1427.56,-23.44"/>
</g>
<!-- Node33&#45;&gt;Node15 -->
<g id="edge33" class="edge">
<title>Node33&#45;&gt;Node15</title>
<path fill="none" stroke="midnightblue" d="M117.29,-56.32C100.69,-47.7 75,-34.36 55.78,-24.39"/>
<polygon fill="midnightblue" stroke="midnightblue" points="57.16,-21.16 46.67,-19.65 53.93,-27.37 57.16,-21.16"/>
</g>
<!-- Node33&#45;&gt;Node18 -->
<g id="edge34" class="edge">
<title>Node33&#45;&gt;Node18</title>
<path fill="none" stroke="midnightblue" d="M128.72,-56.08C124.29,-48.61 117.84,-37.72 112.38,-28.52"/>
<polygon fill="midnightblue" stroke="midnightblue" points="115.29,-26.57 107.19,-19.75 109.27,-30.14 115.29,-26.57"/>
</g>
<!-- Node33&#45;&gt;Node30 -->
<g id="edge35" class="edge">
<title>Node33&#45;&gt;Node30</title>
<path fill="none" stroke="midnightblue" d="M139.28,-56.08C143.71,-48.61 150.16,-37.72 155.62,-28.52"/>
<polygon fill="midnightblue" stroke="midnightblue" points="158.73,-30.14 160.81,-19.75 152.71,-26.57 158.73,-30.14"/>
</g>
</g>
</svg>
