<?xml version="1.0" encoding="UTF-8" standalone="no"?>
<!DOCTYPE svg PUBLIC "-//W3C//DTD SVG 1.1//EN"
 "http://www.w3.org/Graphics/SVG/1.1/DTD/svg11.dtd">
<!-- Generated by graphviz version 2.43.0 (0)
 -->
<!-- Title: tests/teste_usuario.hpp Pages: 1 -->
<svg width="2310pt" height="263pt"
 viewBox="0.00 0.00 2310.35 263.00" xmlns="http://www.w3.org/2000/svg" xmlns:xlink="http://www.w3.org/1999/xlink">
<g id="graph0" class="graph" transform="scale(1 1) rotate(0) translate(4 259)">
<title>tests/teste_usuario.hpp</title>
<polygon fill="white" stroke="transparent" points="-4,4 -4,-259 2306.35,-259 2306.35,4 -4,4"/>
<!-- Node1 -->
<g id="node1" class="node">
<title>Node1</title>
<g id="a_node1"><a xlink:title=" ">
<polygon fill="#bfbfbf" stroke="black" points="444.35,-235.5 444.35,-254.5 575.35,-254.5 575.35,-235.5 444.35,-235.5"/>
<text text-anchor="middle" x="509.85" y="-242.5" font-family="Helvetica,sans-Serif" font-size="10.00">tests/teste_usuario.hpp</text>
</a>
</g>
</g>
<!-- Node2 -->
<g id="node2" class="node">
<title>Node2</title>
<g id="a_node2"><a xlink:href="doctest_8h.html" target="_top" xlink:title=" ">
<polygon fill="white" stroke="black" points="1233.35,-112.5 1233.35,-131.5 1360.35,-131.5 1360.35,-112.5 1233.35,-112.5"/>
<text text-anchor="middle" x="1296.85" y="-119.5" font-family="Helvetica,sans-Serif" font-size="10.00">../third_party/doctest.h</text>
</a>
</g>
</g>
<!-- Node1&#45;&gt;Node2 -->
<g id="edge1" class="edge">
<title>Node1&#45;&gt;Node2</title>
<path fill="none" stroke="midnightblue" d="M565.19,-235.49C706.36,-213.79 1079.4,-156.43 1231.2,-133.09"/>
<polygon fill="midnightblue" stroke="midnightblue" points="1231.96,-136.52 1241.31,-131.54 1230.89,-129.6 1231.96,-136.52"/>
</g>
<!-- Node33 -->
<g id="node33" class="node">
<title>Node33</title>
<g id="a_node33"><a xlink:href="usuario_8hpp.html" target="_top" xlink:title="Classe do usuario.">
<polygon fill="white" stroke="black" points="417.85,-168.5 417.85,-198.5 521.85,-198.5 521.85,-168.5 417.85,-168.5"/>
<text text-anchor="start" x="425.85" y="-186.5" font-family="Helvetica,sans-Serif" font-size="10.00">../include/pessoas</text>
<text text-anchor="middle" x="469.85" y="-175.5" font-family="Helvetica,sans-Serif" font-size="10.00">/usuario.hpp</text>
</a>
</g>
</g>
<!-- Node1&#45;&gt;Node33 -->
<g id="edge32" class="edge">
<title>Node1&#45;&gt;Node33</title>
<path fill="none" stroke="midnightblue" d="M504.12,-235.48C499.11,-228.02 491.6,-216.85 484.89,-206.87"/>
<polygon fill="midnightblue" stroke="midnightblue" points="487.76,-204.87 479.28,-198.52 481.95,-208.77 487.76,-204.87"/>
</g>
<!-- Node3 -->
<g id="node3" class="node">
<title>Node3</title>
<g id="a_node3"><a xlink:title=" ">
<polygon fill="white" stroke="#bfbfbf" points="1699.35,-56.5 1699.35,-75.5 1754.35,-75.5 1754.35,-56.5 1699.35,-56.5"/>
<text text-anchor="middle" x="1726.85" y="-63.5" font-family="Helvetica,sans-Serif" font-size="10.00">signal.h</text>
</a>
</g>
</g>
<!-- Node2&#45;&gt;Node3 -->
<g id="edge2" class="edge">
<title>Node2&#45;&gt;Node3</title>
<path fill="none" stroke="midnightblue" d="M1360.5,-116.17C1436.47,-109.85 1567.44,-97.23 1689.18,-75.91"/>
<polygon fill="midnightblue" stroke="midnightblue" points="1689.81,-79.35 1699.05,-74.16 1688.59,-72.46 1689.81,-79.35"/>
</g>
<!-- Node4 -->
<g id="node4" class="node">
<title>Node4</title>
<g id="a_node4"><a xlink:title=" ">
<polygon fill="white" stroke="#bfbfbf" points="1772.85,-56.5 1772.85,-75.5 1816.85,-75.5 1816.85,-56.5 1772.85,-56.5"/>
<text text-anchor="middle" x="1794.85" y="-63.5" font-family="Helvetica,sans-Serif" font-size="10.00">ctime</text>
</a>
</g>
</g>
<!-- Node2&#45;&gt;Node4 -->
<g id="edge3" class="edge">
<title>Node2&#45;&gt;Node4</title>
<path fill="none" stroke="midnightblue" d="M1360.45,-118.63C1448.79,-114.51 1613.64,-103.82 1762.39,-75.94"/>
<polygon fill="midnightblue" stroke="midnightblue" points="1763.45,-79.3 1772.62,-73.99 1762.14,-72.43 1763.45,-79.3"/>
</g>
<!-- Node5 -->
<g id="node5" class="node">
<title>Node5</title>
<g id="a_node5"><a xlink:title=" ">
<polygon fill="white" stroke="#bfbfbf" points="1835.35,-56.5 1835.35,-75.5 1882.35,-75.5 1882.35,-56.5 1835.35,-56.5"/>
<text text-anchor="middle" x="1858.85" y="-63.5" font-family="Helvetica,sans-Serif" font-size="10.00">cmath</text>
</a>
</g>
</g>
<!-- Node2&#45;&gt;Node5 -->
<g id="edge4" class="edge">
<title>Node2&#45;&gt;Node5</title>
<path fill="none" stroke="midnightblue" d="M1360.44,-119.31C1458.37,-115.89 1651.99,-105.89 1825.11,-75.79"/>
<polygon fill="midnightblue" stroke="midnightblue" points="1825.93,-79.2 1835.17,-74.01 1824.72,-72.3 1825.93,-79.2"/>
</g>
<!-- Node6 -->
<g id="node6" class="node">
<title>Node6</title>
<g id="a_node6"><a xlink:title=" ">
<polygon fill="white" stroke="#bfbfbf" points="1900.85,-56.5 1900.85,-75.5 1950.85,-75.5 1950.85,-56.5 1900.85,-56.5"/>
<text text-anchor="middle" x="1925.85" y="-63.5" font-family="Helvetica,sans-Serif" font-size="10.00">climits</text>
</a>
</g>
</g>
<!-- Node2&#45;&gt;Node6 -->
<g id="edge5" class="edge">
<title>Node2&#45;&gt;Node6</title>
<path fill="none" stroke="midnightblue" d="M1360.71,-120C1468.35,-117.47 1692.71,-108.61 1890.71,-75.88"/>
<polygon fill="midnightblue" stroke="midnightblue" points="1891.43,-79.31 1900.71,-74.2 1890.27,-72.41 1891.43,-79.31"/>
</g>
<!-- Node7 -->
<g id="node7" class="node">
<title>Node7</title>
<g id="a_node7"><a xlink:title=" ">
<polygon fill="white" stroke="#bfbfbf" points="1969.35,-56.5 1969.35,-75.5 2006.35,-75.5 2006.35,-56.5 1969.35,-56.5"/>
<text text-anchor="middle" x="1987.85" y="-63.5" font-family="Helvetica,sans-Serif" font-size="10.00">new</text>
</a>
</g>
</g>
<!-- Node2&#45;&gt;Node7 -->
<g id="edge6" class="edge">
<title>Node2&#45;&gt;Node7</title>
<path fill="none" stroke="midnightblue" d="M1360.58,-121.79C1477.77,-122.13 1735.18,-117.72 1959.36,-75.55"/>
<polygon fill="midnightblue" stroke="midnightblue" points="1960.17,-78.96 1969.34,-73.65 1958.86,-72.08 1960.17,-78.96"/>
</g>
<!-- Node8 -->
<g id="node8" class="node">
<title>Node8</title>
<g id="a_node8"><a xlink:title=" ">
<polygon fill="white" stroke="#bfbfbf" points="2024.85,-56.5 2024.85,-75.5 2070.85,-75.5 2070.85,-56.5 2024.85,-56.5"/>
<text text-anchor="middle" x="2047.85" y="-63.5" font-family="Helvetica,sans-Serif" font-size="10.00">cstdio</text>
</a>
</g>
</g>
<!-- Node2&#45;&gt;Node8 -->
<g id="edge7" class="edge">
<title>Node2&#45;&gt;Node8</title>
<path fill="none" stroke="midnightblue" d="M1360.36,-121.51C1484.61,-121.55 1768.43,-116.84 2014.36,-75.89"/>
<polygon fill="midnightblue" stroke="midnightblue" points="2015.28,-79.28 2024.56,-74.17 2014.12,-72.38 2015.28,-79.28"/>
</g>
<!-- Node9 -->
<g id="node9" class="node">
<title>Node9</title>
<g id="a_node9"><a xlink:title=" ">
<polygon fill="white" stroke="#bfbfbf" points="2089.35,-56.5 2089.35,-75.5 2138.35,-75.5 2138.35,-56.5 2089.35,-56.5"/>
<text text-anchor="middle" x="2113.85" y="-63.5" font-family="Helvetica,sans-Serif" font-size="10.00">cstdlib</text>
</a>
</g>
</g>
<!-- Node2&#45;&gt;Node9 -->
<g id="edge8" class="edge">
<title>Node2&#45;&gt;Node9</title>
<path fill="none" stroke="midnightblue" d="M1360.49,-121.66C1492.85,-122.1 1807.32,-118.3 2079.04,-75.77"/>
<polygon fill="midnightblue" stroke="midnightblue" points="2079.76,-79.19 2089.09,-74.17 2078.67,-72.28 2079.76,-79.19"/>
</g>
<!-- Node10 -->
<g id="node10" class="node">
<title>Node10</title>
<g id="a_node10"><a xlink:title=" ">
<polygon fill="white" stroke="#bfbfbf" points="1195.85,-0.5 1195.85,-19.5 1245.85,-19.5 1245.85,-0.5 1195.85,-0.5"/>
<text text-anchor="middle" x="1220.85" y="-7.5" font-family="Helvetica,sans-Serif" font-size="10.00">cstring</text>
</a>
</g>
</g>
<!-- Node2&#45;&gt;Node10 -->
<g id="edge9" class="edge">
<title>Node2&#45;&gt;Node10</title>
<path fill="none" stroke="midnightblue" d="M1360.55,-120C1553.63,-116.67 2120.84,-104.48 2147.85,-76 2153.97,-69.55 2153.98,-62.44 2147.85,-56 2116.55,-23.14 1422.33,-13.27 1256.29,-11.37"/>
<polygon fill="midnightblue" stroke="midnightblue" points="1256.17,-7.87 1246.13,-11.26 1256.09,-14.87 1256.17,-7.87"/>
</g>
<!-- Node11 -->
<g id="node11" class="node">
<title>Node11</title>
<g id="a_node11"><a xlink:title=" ">
<polygon fill="white" stroke="#bfbfbf" points="2194.85,-56.5 2194.85,-75.5 2238.85,-75.5 2238.85,-56.5 2194.85,-56.5"/>
<text text-anchor="middle" x="2216.85" y="-63.5" font-family="Helvetica,sans-Serif" font-size="10.00">limits</text>
</a>
</g>
</g>
<!-- Node2&#45;&gt;Node11 -->
<g id="edge10" class="edge">
<title>Node2&#45;&gt;Node11</title>
<path fill="none" stroke="midnightblue" d="M1360.49,-119.37C1535.66,-114.61 2022.4,-99.61 2180.85,-76 2182.1,-75.81 2183.38,-75.6 2184.66,-75.37"/>
<polygon fill="midnightblue" stroke="midnightblue" points="2185.45,-78.78 2194.52,-73.3 2184.01,-71.93 2185.45,-78.78"/>
</g>
<!-- Node12 -->
<g id="node12" class="node">
<title>Node12</title>
<g id="a_node12"><a xlink:title=" ">
<polygon fill="white" stroke="#bfbfbf" points="2257.35,-56.5 2257.35,-75.5 2302.35,-75.5 2302.35,-56.5 2257.35,-56.5"/>
<text text-anchor="middle" x="2279.85" y="-63.5" font-family="Helvetica,sans-Serif" font-size="10.00">utility</text>
</a>
</g>
</g>
<!-- Node2&#45;&gt;Node12 -->
<g id="edge11" class="edge">
<title>Node2&#45;&gt;Node12</title>
<path fill="none" stroke="midnightblue" d="M1360.68,-119.87C1541.75,-116.36 2057.25,-104.26 2247.12,-75.63"/>
<polygon fill="midnightblue" stroke="midnightblue" points="2247.93,-79.05 2257.27,-74.04 2246.84,-72.13 2247.93,-79.05"/>
</g>
<!-- Node13 -->
<g id="node13" class="node">
<title>Node13</title>
<g id="a_node13"><a xlink:title=" ">
<polygon fill="white" stroke="#bfbfbf" points="381.35,-56.5 381.35,-75.5 436.35,-75.5 436.35,-56.5 381.35,-56.5"/>
<text text-anchor="middle" x="408.85" y="-63.5" font-family="Helvetica,sans-Serif" font-size="10.00">fstream</text>
</a>
</g>
</g>
<!-- Node2&#45;&gt;Node13 -->
<g id="edge12" class="edge">
<title>Node2&#45;&gt;Node13</title>
<path fill="none" stroke="midnightblue" d="M1233.2,-121.66C1092.72,-122.24 745.61,-118.91 446.78,-75.82"/>
<polygon fill="midnightblue" stroke="midnightblue" points="447.02,-72.32 436.62,-74.34 446.01,-79.25 447.02,-72.32"/>
</g>
<!-- Node14 -->
<g id="node14" class="node">
<title>Node14</title>
<g id="a_node14"><a xlink:title=" ">
<polygon fill="white" stroke="#bfbfbf" points="454.85,-56.5 454.85,-75.5 510.85,-75.5 510.85,-56.5 454.85,-56.5"/>
<text text-anchor="middle" x="482.85" y="-63.5" font-family="Helvetica,sans-Serif" font-size="10.00">sstream</text>
</a>
</g>
</g>
<!-- Node2&#45;&gt;Node14 -->
<g id="edge13" class="edge">
<title>Node2&#45;&gt;Node14</title>
<path fill="none" stroke="midnightblue" d="M1233.25,-121.19C1101.74,-120.75 790.34,-115.37 520.99,-75.89"/>
<polygon fill="midnightblue" stroke="midnightblue" points="521.43,-72.42 511.03,-74.41 520.4,-79.34 521.43,-72.42"/>
</g>
<!-- Node15 -->
<g id="node15" class="node">
<title>Node15</title>
<g id="a_node15"><a xlink:title=" ">
<polygon fill="white" stroke="#bfbfbf" points="25.85,-0.5 25.85,-19.5 85.85,-19.5 85.85,-0.5 25.85,-0.5"/>
<text text-anchor="middle" x="55.85" y="-7.5" font-family="Helvetica,sans-Serif" font-size="10.00">iostream</text>
</a>
</g>
</g>
<!-- Node2&#45;&gt;Node15 -->
<g id="edge14" class="edge">
<title>Node2&#45;&gt;Node15</title>
<path fill="none" stroke="midnightblue" d="M1233.29,-120.3C1093.73,-118.15 764.54,-109.58 658.85,-76 642.5,-70.81 642.17,-61.26 625.85,-56 613.23,-51.93 224.33,-23.29 96.29,-13.94"/>
<polygon fill="midnightblue" stroke="midnightblue" points="96.35,-10.44 86.12,-13.2 95.84,-17.42 96.35,-10.44"/>
</g>
<!-- Node16 -->
<g id="node16" class="node">
<title>Node16</title>
<g id="a_node16"><a xlink:title=" ">
<polygon fill="white" stroke="#bfbfbf" points="710.85,-56.5 710.85,-75.5 774.85,-75.5 774.85,-56.5 710.85,-56.5"/>
<text text-anchor="middle" x="742.85" y="-63.5" font-family="Helvetica,sans-Serif" font-size="10.00">algorithm</text>
</a>
</g>
</g>
<!-- Node2&#45;&gt;Node16 -->
<g id="edge15" class="edge">
<title>Node2&#45;&gt;Node16</title>
<path fill="none" stroke="midnightblue" d="M1232.95,-118.04C1137.5,-113.03 951.9,-101.05 784.96,-75.98"/>
<polygon fill="midnightblue" stroke="midnightblue" points="785.42,-72.51 775,-74.47 784.36,-79.43 785.42,-72.51"/>
</g>
<!-- Node17 -->
<g id="node17" class="node">
<title>Node17</title>
<g id="a_node17"><a xlink:title=" ">
<polygon fill="white" stroke="#bfbfbf" points="792.85,-56.5 792.85,-75.5 848.85,-75.5 848.85,-56.5 792.85,-56.5"/>
<text text-anchor="middle" x="820.85" y="-63.5" font-family="Helvetica,sans-Serif" font-size="10.00">iomanip</text>
</a>
</g>
</g>
<!-- Node2&#45;&gt;Node17 -->
<g id="edge16" class="edge">
<title>Node2&#45;&gt;Node17</title>
<path fill="none" stroke="midnightblue" d="M1233.23,-117.21C1149.51,-111.62 997.69,-99.39 859.01,-75.98"/>
<polygon fill="midnightblue" stroke="midnightblue" points="859.49,-72.52 849.05,-74.28 858.31,-79.42 859.49,-72.52"/>
</g>
<!-- Node18 -->
<g id="node18" class="node">
<title>Node18</title>
<g id="a_node18"><a xlink:title=" ">
<polygon fill="white" stroke="#bfbfbf" points="277.35,-56.5 277.35,-75.5 324.35,-75.5 324.35,-56.5 277.35,-56.5"/>
<text text-anchor="middle" x="300.85" y="-63.5" font-family="Helvetica,sans-Serif" font-size="10.00">vector</text>
</a>
</g>
</g>
<!-- Node2&#45;&gt;Node18 -->
<g id="edge17" class="edge">
<title>Node2&#45;&gt;Node18</title>
<path fill="none" stroke="midnightblue" d="M1233.16,-119.56C1083.06,-115.8 695.46,-103.98 372.85,-76 360.33,-74.91 346.63,-73.31 334.57,-71.75"/>
<polygon fill="midnightblue" stroke="midnightblue" points="334.85,-68.26 324.47,-70.41 333.93,-75.2 334.85,-68.26"/>
</g>
<!-- Node19 -->
<g id="node19" class="node">
<title>Node19</title>
<g id="a_node19"><a xlink:title=" ">
<polygon fill="white" stroke="#bfbfbf" points="866.85,-56.5 866.85,-75.5 916.85,-75.5 916.85,-56.5 866.85,-56.5"/>
<text text-anchor="middle" x="891.85" y="-63.5" font-family="Helvetica,sans-Serif" font-size="10.00">atomic</text>
</a>
</g>
</g>
<!-- Node2&#45;&gt;Node19 -->
<g id="edge18" class="edge">
<title>Node2&#45;&gt;Node19</title>
<path fill="none" stroke="midnightblue" d="M1233.09,-115.96C1160.95,-109.66 1039.84,-97.26 926.87,-75.96"/>
<polygon fill="midnightblue" stroke="midnightblue" points="927.49,-72.52 917.01,-74.07 926.18,-79.39 927.49,-72.52"/>
</g>
<!-- Node20 -->
<g id="node20" class="node">
<title>Node20</title>
<g id="a_node20"><a xlink:title=" ">
<polygon fill="white" stroke="#bfbfbf" points="934.85,-56.5 934.85,-75.5 982.85,-75.5 982.85,-56.5 934.85,-56.5"/>
<text text-anchor="middle" x="958.85" y="-63.5" font-family="Helvetica,sans-Serif" font-size="10.00">mutex</text>
</a>
</g>
</g>
<!-- Node2&#45;&gt;Node20 -->
<g id="edge19" class="edge">
<title>Node2&#45;&gt;Node20</title>
<path fill="none" stroke="midnightblue" d="M1233.08,-113.85C1173.34,-106.64 1081.43,-94.24 992.86,-76"/>
<polygon fill="midnightblue" stroke="midnightblue" points="993.42,-72.54 982.92,-73.92 991.99,-79.39 993.42,-72.54"/>
</g>
<!-- Node21 -->
<g id="node21" class="node">
<title>Node21</title>
<g id="a_node21"><a xlink:title=" ">
<polygon fill="white" stroke="#bfbfbf" points="528.85,-56.5 528.85,-75.5 560.85,-75.5 560.85,-56.5 528.85,-56.5"/>
<text text-anchor="middle" x="544.85" y="-63.5" font-family="Helvetica,sans-Serif" font-size="10.00">set</text>
</a>
</g>
</g>
<!-- Node2&#45;&gt;Node21 -->
<g id="edge20" class="edge">
<title>Node2&#45;&gt;Node21</title>
<path fill="none" stroke="midnightblue" d="M1233.28,-119.37C1084.03,-115.2 713.69,-102.62 570.94,-75.56"/>
<polygon fill="midnightblue" stroke="midnightblue" points="571.56,-72.11 561.06,-73.59 570.18,-78.98 571.56,-72.11"/>
</g>
<!-- Node22 -->
<g id="node22" class="node">
<title>Node22</title>
<g id="a_node22"><a xlink:title=" ">
<polygon fill="white" stroke="#bfbfbf" points="578.85,-56.5 578.85,-75.5 616.85,-75.5 616.85,-56.5 578.85,-56.5"/>
<text text-anchor="middle" x="597.85" y="-63.5" font-family="Helvetica,sans-Serif" font-size="10.00">map</text>
</a>
</g>
</g>
<!-- Node2&#45;&gt;Node22 -->
<g id="edge21" class="edge">
<title>Node2&#45;&gt;Node22</title>
<path fill="none" stroke="midnightblue" d="M1233,-120.89C1113.8,-119.75 849.69,-112.86 630.85,-76 629.56,-75.78 628.26,-75.54 626.94,-75.27"/>
<polygon fill="midnightblue" stroke="midnightblue" points="627.44,-71.79 616.9,-72.89 625.82,-78.6 627.44,-71.79"/>
</g>
<!-- Node23 -->
<g id="node23" class="node">
<title>Node23</title>
<g id="a_node23"><a xlink:title=" ">
<polygon fill="white" stroke="#bfbfbf" points="1000.85,-56.5 1000.85,-75.5 1086.85,-75.5 1086.85,-56.5 1000.85,-56.5"/>
<text text-anchor="middle" x="1043.85" y="-63.5" font-family="Helvetica,sans-Serif" font-size="10.00">unordered_set</text>
</a>
</g>
</g>
<!-- Node2&#45;&gt;Node23 -->
<g id="edge22" class="edge">
<title>Node2&#45;&gt;Node23</title>
<path fill="none" stroke="midnightblue" d="M1256.76,-112.44C1212.53,-103 1141.31,-87.8 1093.56,-77.61"/>
<polygon fill="midnightblue" stroke="midnightblue" points="1094.26,-74.18 1083.75,-75.52 1092.8,-81.03 1094.26,-74.18"/>
</g>
<!-- Node24 -->
<g id="node24" class="node">
<title>Node24</title>
<g id="a_node24"><a xlink:title=" ">
<polygon fill="white" stroke="#bfbfbf" points="1105.35,-56.5 1105.35,-75.5 1170.35,-75.5 1170.35,-56.5 1105.35,-56.5"/>
<text text-anchor="middle" x="1137.85" y="-63.5" font-family="Helvetica,sans-Serif" font-size="10.00">exception</text>
</a>
</g>
</g>
<!-- Node2&#45;&gt;Node24 -->
<g id="edge23" class="edge">
<title>Node2&#45;&gt;Node24</title>
<path fill="none" stroke="midnightblue" d="M1271.65,-112.44C1244.91,-103.36 1202.45,-88.94 1172.54,-78.78"/>
<polygon fill="midnightblue" stroke="midnightblue" points="1173.52,-75.42 1162.93,-75.52 1171.27,-82.05 1173.52,-75.42"/>
</g>
<!-- Node25 -->
<g id="node25" class="node">
<title>Node25</title>
<g id="a_node25"><a xlink:title=" ">
<polygon fill="white" stroke="#bfbfbf" points="1188.35,-56.5 1188.35,-75.5 1253.35,-75.5 1253.35,-56.5 1188.35,-56.5"/>
<text text-anchor="middle" x="1220.85" y="-63.5" font-family="Helvetica,sans-Serif" font-size="10.00">stdexcept</text>
</a>
</g>
</g>
<!-- Node2&#45;&gt;Node25 -->
<g id="edge24" class="edge">
<title>Node2&#45;&gt;Node25</title>
<path fill="none" stroke="midnightblue" d="M1284.64,-112.32C1273.07,-104.11 1255.47,-91.6 1241.69,-81.81"/>
<polygon fill="midnightblue" stroke="midnightblue" points="1243.46,-78.77 1233.28,-75.83 1239.41,-84.48 1243.46,-78.77"/>
</g>
<!-- Node26 -->
<g id="node26" class="node">
<title>Node26</title>
<g id="a_node26"><a xlink:title=" ">
<polygon fill="white" stroke="#bfbfbf" points="1271.35,-56.5 1271.35,-75.5 1322.35,-75.5 1322.35,-56.5 1271.35,-56.5"/>
<text text-anchor="middle" x="1296.85" y="-63.5" font-family="Helvetica,sans-Serif" font-size="10.00">csignal</text>
</a>
</g>
</g>
<!-- Node2&#45;&gt;Node26 -->
<g id="edge25" class="edge">
<title>Node2&#45;&gt;Node26</title>
<path fill="none" stroke="midnightblue" d="M1296.85,-112.08C1296.85,-105.01 1296.85,-94.86 1296.85,-85.99"/>
<polygon fill="midnightblue" stroke="midnightblue" points="1300.35,-85.75 1296.85,-75.75 1293.35,-85.75 1300.35,-85.75"/>
</g>
<!-- Node27 -->
<g id="node27" class="node">
<title>Node27</title>
<g id="a_node27"><a xlink:title=" ">
<polygon fill="white" stroke="#bfbfbf" points="1340.85,-56.5 1340.85,-75.5 1384.85,-75.5 1384.85,-56.5 1340.85,-56.5"/>
<text text-anchor="middle" x="1362.85" y="-63.5" font-family="Helvetica,sans-Serif" font-size="10.00">cfloat</text>
</a>
</g>
</g>
<!-- Node2&#45;&gt;Node27 -->
<g id="edge26" class="edge">
<title>Node2&#45;&gt;Node27</title>
<path fill="none" stroke="midnightblue" d="M1307.45,-112.32C1317.31,-104.26 1332.2,-92.08 1344.06,-82.37"/>
<polygon fill="midnightblue" stroke="midnightblue" points="1346.53,-84.88 1352.05,-75.83 1342.1,-79.46 1346.53,-84.88"/>
</g>
<!-- Node28 -->
<g id="node28" class="node">
<title>Node28</title>
<g id="a_node28"><a xlink:title=" ">
<polygon fill="white" stroke="#bfbfbf" points="1403.35,-56.5 1403.35,-75.5 1452.35,-75.5 1452.35,-56.5 1403.35,-56.5"/>
<text text-anchor="middle" x="1427.85" y="-63.5" font-family="Helvetica,sans-Serif" font-size="10.00">cctype</text>
</a>
</g>
</g>
<!-- Node2&#45;&gt;Node28 -->
<g id="edge27" class="edge">
<title>Node2&#45;&gt;Node28</title>
<path fill="none" stroke="midnightblue" d="M1317.61,-112.44C1339.17,-103.56 1373.11,-89.56 1397.64,-79.45"/>
<polygon fill="midnightblue" stroke="midnightblue" points="1399.28,-82.56 1407.19,-75.52 1396.61,-76.09 1399.28,-82.56"/>
</g>
<!-- Node29 -->
<g id="node29" class="node">
<title>Node29</title>
<g id="a_node29"><a xlink:title=" ">
<polygon fill="white" stroke="#bfbfbf" points="1470.85,-56.5 1470.85,-75.5 1520.85,-75.5 1520.85,-56.5 1470.85,-56.5"/>
<text text-anchor="middle" x="1495.85" y="-63.5" font-family="Helvetica,sans-Serif" font-size="10.00">cstdint</text>
</a>
</g>
</g>
<!-- Node2&#45;&gt;Node29 -->
<g id="edge28" class="edge">
<title>Node2&#45;&gt;Node29</title>
<path fill="none" stroke="midnightblue" d="M1328.38,-112.44C1364.44,-102.66 1423.33,-86.68 1460.8,-76.51"/>
<polygon fill="midnightblue" stroke="midnightblue" points="1462.03,-79.8 1470.77,-73.81 1460.2,-73.05 1462.03,-79.8"/>
</g>
<!-- Node30 -->
<g id="node30" class="node">
<title>Node30</title>
<g id="a_node30"><a xlink:title=" ">
<polygon fill="white" stroke="#bfbfbf" points="187.85,-0.5 187.85,-19.5 231.85,-19.5 231.85,-0.5 187.85,-0.5"/>
<text text-anchor="middle" x="209.85" y="-7.5" font-family="Helvetica,sans-Serif" font-size="10.00">string</text>
</a>
</g>
</g>
<!-- Node2&#45;&gt;Node30 -->
<g id="edge29" class="edge">
<title>Node2&#45;&gt;Node30</title>
<path fill="none" stroke="midnightblue" d="M1233.34,-119.07C1101.22,-114.6 800.83,-101.85 701.85,-76 681.46,-70.67 679.18,-61.57 658.85,-56 507.26,-14.44 317.5,-10.38 242.5,-10.57"/>
<polygon fill="midnightblue" stroke="midnightblue" points="242.27,-7.07 232.29,-10.63 242.3,-14.07 242.27,-7.07"/>
</g>
<!-- Node31 -->
<g id="node31" class="node">
<title>Node31</title>
<g id="a_node31"><a xlink:title=" ">
<polygon fill="white" stroke="#bfbfbf" points="1538.85,-56.5 1538.85,-75.5 1606.85,-75.5 1606.85,-56.5 1538.85,-56.5"/>
<text text-anchor="middle" x="1572.85" y="-63.5" font-family="Helvetica,sans-Serif" font-size="10.00">sys/time.h</text>
</a>
</g>
</g>
<!-- Node2&#45;&gt;Node31 -->
<g id="edge30" class="edge">
<title>Node2&#45;&gt;Node31</title>
<path fill="none" stroke="midnightblue" d="M1341.99,-112.5C1386.85,-104 1457.88,-90.41 1528.62,-76.23"/>
<polygon fill="midnightblue" stroke="midnightblue" points="1529.48,-79.62 1538.59,-74.22 1528.1,-72.76 1529.48,-79.62"/>
</g>
<!-- Node32 -->
<g id="node32" class="node">
<title>Node32</title>
<g id="a_node32"><a xlink:title=" ">
<polygon fill="white" stroke="#bfbfbf" points="1624.85,-56.5 1624.85,-75.5 1680.85,-75.5 1680.85,-56.5 1624.85,-56.5"/>
<text text-anchor="middle" x="1652.85" y="-63.5" font-family="Helvetica,sans-Serif" font-size="10.00">unistd.h</text>
</a>
</g>
</g>
<!-- Node2&#45;&gt;Node32 -->
<g id="edge31" class="edge">
<title>Node2&#45;&gt;Node32</title>
<path fill="none" stroke="midnightblue" d="M1360.4,-113.9C1422.79,-106.52 1520.84,-93.78 1614.68,-76.07"/>
<polygon fill="midnightblue" stroke="midnightblue" points="1615.46,-79.48 1624.63,-74.17 1614.15,-72.61 1615.46,-79.48"/>
</g>
<!-- Node33&#45;&gt;Node13 -->
<g id="edge54" class="edge">
<title>Node33&#45;&gt;Node13</title>
<path fill="none" stroke="midnightblue" d="M462.37,-168.34C451.23,-147.24 430.29,-107.6 418.17,-84.65"/>
<polygon fill="midnightblue" stroke="midnightblue" points="421.19,-82.88 413.43,-75.67 415,-86.15 421.19,-82.88"/>
</g>
<!-- Node33&#45;&gt;Node14 -->
<g id="edge56" class="edge">
<title>Node33&#45;&gt;Node14</title>
<path fill="none" stroke="midnightblue" d="M471.44,-168.34C473.77,-147.62 478.12,-109.02 480.72,-85.9"/>
<polygon fill="midnightblue" stroke="midnightblue" points="484.23,-86 481.87,-75.67 477.28,-85.22 484.23,-86"/>
</g>
<!-- Node33&#45;&gt;Node21 -->
<g id="edge53" class="edge">
<title>Node33&#45;&gt;Node21</title>
<path fill="none" stroke="midnightblue" d="M479.05,-168.34C492.8,-147.15 518.72,-107.24 533.59,-84.34"/>
<polygon fill="midnightblue" stroke="midnightblue" points="536.71,-85.96 539.22,-75.67 530.84,-82.15 536.71,-85.96"/>
</g>
<!-- Node33&#45;&gt;Node22 -->
<g id="edge55" class="edge">
<title>Node33&#45;&gt;Node22</title>
<path fill="none" stroke="midnightblue" d="M485.54,-168.34C509.66,-146.58 555.63,-105.09 580.63,-82.54"/>
<polygon fill="midnightblue" stroke="midnightblue" points="583.16,-84.97 588.24,-75.67 578.47,-79.77 583.16,-84.97"/>
</g>
<!-- Node34 -->
<g id="node34" class="node">
<title>Node34</title>
<g id="a_node34"><a xlink:href="pessoa_8hpp.html" target="_top" xlink:title="Classe mãe de usuario e admin.">
<polygon fill="white" stroke="black" points="166.85,-112.5 166.85,-131.5 238.85,-131.5 238.85,-112.5 166.85,-112.5"/>
<text text-anchor="middle" x="202.85" y="-119.5" font-family="Helvetica,sans-Serif" font-size="10.00">pessoa.hpp</text>
</a>
</g>
</g>
<!-- Node33&#45;&gt;Node34 -->
<g id="edge33" class="edge">
<title>Node33&#45;&gt;Node34</title>
<path fill="none" stroke="midnightblue" d="M417.73,-170.89C368.67,-159.95 295.9,-143.74 248.91,-133.27"/>
<polygon fill="midnightblue" stroke="midnightblue" points="249.53,-129.82 239.01,-131.06 248.01,-136.65 249.53,-129.82"/>
</g>
<!-- Node36 -->
<g id="node36" class="node">
<title>Node36</title>
<g id="a_node36"><a xlink:href="livro_8hpp.html" target="_top" xlink:title="Classe do objeto Livro.">
<polygon fill="white" stroke="black" points="51.35,-112.5 51.35,-131.5 144.35,-131.5 144.35,-112.5 51.35,-112.5"/>
<text text-anchor="middle" x="97.85" y="-119.5" font-family="Helvetica,sans-Serif" font-size="10.00">../livro/livro.hpp</text>
</a>
</g>
</g>
<!-- Node33&#45;&gt;Node36 -->
<g id="edge40" class="edge">
<title>Node33&#45;&gt;Node36</title>
<path fill="none" stroke="midnightblue" d="M417.73,-174.16C348.45,-163.08 226.46,-143.57 154.82,-132.11"/>
<polygon fill="midnightblue" stroke="midnightblue" points="155.05,-128.6 144.62,-130.48 153.95,-135.52 155.05,-128.6"/>
</g>
<!-- Node37 -->
<g id="node37" class="node">
<title>Node37</title>
<g id="a_node37"><a xlink:href="arquivos_8hpp.html" target="_top" xlink:title="Classe assistente para facilitar a manipulação de arquivos.">
<polygon fill="white" stroke="black" points="282.85,-112.5 282.85,-131.5 422.85,-131.5 422.85,-112.5 282.85,-112.5"/>
<text text-anchor="middle" x="352.85" y="-119.5" font-family="Helvetica,sans-Serif" font-size="10.00">../biblioteca/arquivos.hpp</text>
</a>
</g>
</g>
<!-- Node33&#45;&gt;Node37 -->
<g id="edge44" class="edge">
<title>Node33&#45;&gt;Node37</title>
<path fill="none" stroke="midnightblue" d="M442.12,-168.4C423.02,-158.68 397.79,-145.86 379.03,-136.31"/>
<polygon fill="midnightblue" stroke="midnightblue" points="380.37,-133.07 369.87,-131.66 377.2,-139.31 380.37,-133.07"/>
</g>
<!-- Node34&#45;&gt;Node15 -->
<g id="edge34" class="edge">
<title>Node34&#45;&gt;Node15</title>
<path fill="none" stroke="midnightblue" d="M166.61,-113.29C121.53,-103.33 49.5,-86.09 41.85,-76 31.42,-62.25 37.94,-42.39 45.18,-28.25"/>
<polygon fill="midnightblue" stroke="midnightblue" points="48.24,-29.95 50.1,-19.52 42.14,-26.51 48.24,-29.95"/>
</g>
<!-- Node34&#45;&gt;Node30 -->
<g id="edge35" class="edge">
<title>Node34&#45;&gt;Node30</title>
<path fill="none" stroke="midnightblue" d="M187.45,-112.37C168.69,-100.64 140.81,-78.54 151.85,-56 158.37,-42.68 170.94,-32.18 182.72,-24.68"/>
<polygon fill="midnightblue" stroke="midnightblue" points="184.62,-27.62 191.46,-19.53 181.07,-21.59 184.62,-27.62"/>
</g>
<!-- Node35 -->
<g id="node35" class="node">
<title>Node35</title>
<g id="a_node35"><a xlink:href="erros_8hpp.html" target="_top" xlink:title="Classes de tratamento de exceções.">
<polygon fill="white" stroke="black" points="160.35,-56.5 160.35,-75.5 259.35,-75.5 259.35,-56.5 160.35,-56.5"/>
<text text-anchor="middle" x="209.85" y="-63.5" font-family="Helvetica,sans-Serif" font-size="10.00">../erros/erros.hpp</text>
</a>
</g>
</g>
<!-- Node34&#45;&gt;Node35 -->
<g id="edge36" class="edge">
<title>Node34&#45;&gt;Node35</title>
<path fill="none" stroke="midnightblue" d="M204,-112.08C204.93,-104.93 206.27,-94.64 207.43,-85.69"/>
<polygon fill="midnightblue" stroke="midnightblue" points="210.9,-86.12 208.71,-75.75 203.96,-85.22 210.9,-86.12"/>
</g>
<!-- Node35&#45;&gt;Node10 -->
<g id="edge39" class="edge">
<title>Node35&#45;&gt;Node10</title>
<path fill="none" stroke="midnightblue" d="M259.38,-57.06C262.58,-56.67 265.76,-56.31 268.85,-56 625.61,-20.45 1060.47,-12.84 1185.63,-11.34"/>
<polygon fill="midnightblue" stroke="midnightblue" points="1185.81,-14.84 1195.77,-11.23 1185.73,-7.84 1185.81,-14.84"/>
</g>
<!-- Node35&#45;&gt;Node15 -->
<g id="edge37" class="edge">
<title>Node35&#45;&gt;Node15</title>
<path fill="none" stroke="midnightblue" d="M185.45,-56.44C159.65,-47.4 118.77,-33.06 89.83,-22.92"/>
<polygon fill="midnightblue" stroke="midnightblue" points="90.73,-19.52 80.14,-19.52 88.42,-26.13 90.73,-19.52"/>
</g>
<!-- Node35&#45;&gt;Node30 -->
<g id="edge38" class="edge">
<title>Node35&#45;&gt;Node30</title>
<path fill="none" stroke="midnightblue" d="M209.85,-56.08C209.85,-49.01 209.85,-38.86 209.85,-29.99"/>
<polygon fill="midnightblue" stroke="midnightblue" points="213.35,-29.75 209.85,-19.75 206.35,-29.75 213.35,-29.75"/>
</g>
<!-- Node36&#45;&gt;Node15 -->
<g id="edge41" class="edge">
<title>Node36&#45;&gt;Node15</title>
<path fill="none" stroke="midnightblue" d="M57.7,-112.43C37.87,-105.95 15.71,-94.83 3.85,-76 -7.92,-57.32 12.89,-37.78 31.57,-25.06"/>
<polygon fill="midnightblue" stroke="midnightblue" points="33.62,-27.91 40.15,-19.57 29.85,-22.01 33.62,-27.91"/>
</g>
<!-- Node36&#45;&gt;Node18 -->
<g id="edge42" class="edge">
<title>Node36&#45;&gt;Node18</title>
<path fill="none" stroke="midnightblue" d="M130.99,-112.45C163.46,-104.05 214.58,-90.7 267.25,-76.41"/>
<polygon fill="midnightblue" stroke="midnightblue" points="268.36,-79.73 277.1,-73.73 266.53,-72.98 268.36,-79.73"/>
</g>
<!-- Node36&#45;&gt;Node30 -->
<g id="edge43" class="edge">
<title>Node36&#45;&gt;Node30</title>
<path fill="none" stroke="midnightblue" d="M102.82,-112.29C110.63,-99.11 126.74,-73.74 144.85,-56 157.08,-44.02 172.82,-33.03 185.75,-24.91"/>
<polygon fill="midnightblue" stroke="midnightblue" points="187.86,-27.73 194.58,-19.53 184.21,-21.75 187.86,-27.73"/>
</g>
<!-- Node37&#45;&gt;Node13 -->
<g id="edge50" class="edge">
<title>Node37&#45;&gt;Node13</title>
<path fill="none" stroke="midnightblue" d="M361.85,-112.32C370.04,-104.42 382.35,-92.55 392.32,-82.94"/>
<polygon fill="midnightblue" stroke="midnightblue" points="394.92,-85.29 399.69,-75.83 390.06,-80.26 394.92,-85.29"/>
</g>
<!-- Node37&#45;&gt;Node14 -->
<g id="edge51" class="edge">
<title>Node37&#45;&gt;Node14</title>
<path fill="none" stroke="midnightblue" d="M373.45,-112.44C394.84,-103.56 428.53,-89.56 452.87,-79.45"/>
<polygon fill="midnightblue" stroke="midnightblue" points="454.45,-82.58 462.35,-75.52 451.77,-76.12 454.45,-82.58"/>
</g>
<!-- Node37&#45;&gt;Node15 -->
<g id="edge45" class="edge">
<title>Node37&#45;&gt;Node15</title>
<path fill="none" stroke="midnightblue" d="M285.72,-112.42C245.69,-105.75 194.53,-94.43 151.85,-76 122.31,-63.24 92.23,-41.08 73.81,-26.22"/>
<polygon fill="midnightblue" stroke="midnightblue" points="75.69,-23.24 65.75,-19.59 71.25,-28.65 75.69,-23.24"/>
</g>
<!-- Node37&#45;&gt;Node18 -->
<g id="edge47" class="edge">
<title>Node37&#45;&gt;Node18</title>
<path fill="none" stroke="midnightblue" d="M344.26,-112.08C336.69,-104.22 325.47,-92.57 316.33,-83.08"/>
<polygon fill="midnightblue" stroke="midnightblue" points="318.73,-80.53 309.28,-75.75 313.69,-85.38 318.73,-80.53"/>
</g>
<!-- Node37&#45;&gt;Node21 -->
<g id="edge48" class="edge">
<title>Node37&#45;&gt;Node21</title>
<path fill="none" stroke="midnightblue" d="M387.96,-112.44C419.86,-104.45 468.4,-91.82 518.98,-76.09"/>
<polygon fill="midnightblue" stroke="midnightblue" points="520.29,-79.34 528.78,-73.01 518.19,-72.67 520.29,-79.34"/>
</g>
<!-- Node37&#45;&gt;Node22 -->
<g id="edge49" class="edge">
<title>Node37&#45;&gt;Node22</title>
<path fill="none" stroke="midnightblue" d="M401.46,-112.45C443.51,-104.72 506.08,-92.38 568.96,-76.02"/>
<polygon fill="midnightblue" stroke="midnightblue" points="569.87,-79.4 578.65,-73.47 568.09,-72.63 569.87,-79.4"/>
</g>
<!-- Node37&#45;&gt;Node30 -->
<g id="edge46" class="edge">
<title>Node37&#45;&gt;Node30</title>
<path fill="none" stroke="midnightblue" d="M352.7,-112.21C351.99,-98.45 348.65,-71.78 333.85,-56 309.81,-30.38 270.06,-19.31 242.05,-14.54"/>
<polygon fill="midnightblue" stroke="midnightblue" points="242.36,-11.05 231.95,-13.01 241.31,-17.97 242.36,-11.05"/>
</g>
<!-- Node37&#45;&gt;Node35 -->
<g id="edge52" class="edge">
<title>Node37&#45;&gt;Node35</title>
<path fill="none" stroke="midnightblue" d="M330.19,-112.44C306.45,-103.48 268.94,-89.31 242.11,-79.18"/>
<polygon fill="midnightblue" stroke="midnightblue" points="242.99,-75.77 232.4,-75.52 240.52,-82.32 242.99,-75.77"/>
</g>
</g>
</svg>
