<?xml version="1.0" encoding="UTF-8" standalone="no"?>
<!DOCTYPE svg PUBLIC "-//W3C//DTD SVG 1.1//EN"
 "http://www.w3.org/Graphics/SVG/1.1/DTD/svg11.dtd">
<!-- Generated by graphviz version 2.43.0 (0)
 -->
<!-- Title: tests/teste_sistema.hpp Pages: 1 -->
<svg width="2474pt" height="319pt"
 viewBox="0.00 0.00 2474.03 319.00" xmlns="http://www.w3.org/2000/svg" xmlns:xlink="http://www.w3.org/1999/xlink">
<g id="graph0" class="graph" transform="scale(1 1) rotate(0) translate(4 315)">
<title>tests/teste_sistema.hpp</title>
<polygon fill="white" stroke="transparent" points="-4,4 -4,-315 2470.03,-315 2470.03,4 -4,4"/>
<!-- Node1 -->
<g id="node1" class="node">
<title>Node1</title>
<g id="a_node1"><a xlink:title=" ">
<polygon fill="#bfbfbf" stroke="black" points="1397,-291.5 1397,-310.5 1531,-310.5 1531,-291.5 1397,-291.5"/>
<text text-anchor="middle" x="1464" y="-298.5" font-family="Helvetica,sans-Serif" font-size="10.00">tests/teste_sistema.hpp</text>
</a>
</g>
</g>
<!-- Node2 -->
<g id="node2" class="node">
<title>Node2</title>
<g id="a_node2"><a xlink:href="doctest_8h.html" target="_top" xlink:title=" ">
<polygon fill="white" stroke="black" points="947.5,-112.5 947.5,-131.5 1074.5,-131.5 1074.5,-112.5 947.5,-112.5"/>
<text text-anchor="middle" x="1011" y="-119.5" font-family="Helvetica,sans-Serif" font-size="10.00">../third_party/doctest.h</text>
</a>
</g>
</g>
<!-- Node1&#45;&gt;Node2 -->
<g id="edge1" class="edge">
<title>Node1&#45;&gt;Node2</title>
<path fill="none" stroke="midnightblue" d="M1442.15,-291.46C1368.45,-262.67 1128.82,-169.03 1042.42,-135.28"/>
<polygon fill="midnightblue" stroke="midnightblue" points="1043.48,-131.93 1032.89,-131.55 1040.93,-138.45 1043.48,-131.93"/>
</g>
<!-- Node33 -->
<g id="node33" class="node">
<title>Node33</title>
<g id="a_node33"><a xlink:href="sistema_8hpp.html" target="_top" xlink:title="Classe responsável por armazenar o histórico de livros.">
<polygon fill="white" stroke="black" points="1862,-224.5 1862,-254.5 1974,-254.5 1974,-224.5 1862,-224.5"/>
<text text-anchor="start" x="1870" y="-242.5" font-family="Helvetica,sans-Serif" font-size="10.00">../include/biblioteca</text>
<text text-anchor="middle" x="1918" y="-231.5" font-family="Helvetica,sans-Serif" font-size="10.00">/sistema.hpp</text>
</a>
</g>
</g>
<!-- Node1&#45;&gt;Node33 -->
<g id="edge32" class="edge">
<title>Node1&#45;&gt;Node33</title>
<path fill="none" stroke="midnightblue" d="M1529.05,-291.48C1614.9,-280.22 1765.23,-260.52 1851.7,-249.19"/>
<polygon fill="midnightblue" stroke="midnightblue" points="1852.2,-252.65 1861.66,-247.88 1851.29,-245.71 1852.2,-252.65"/>
</g>
<!-- Node3 -->
<g id="node3" class="node">
<title>Node3</title>
<g id="a_node3"><a xlink:title=" ">
<polygon fill="white" stroke="#bfbfbf" points="545.5,-56.5 545.5,-75.5 600.5,-75.5 600.5,-56.5 545.5,-56.5"/>
<text text-anchor="middle" x="573" y="-63.5" font-family="Helvetica,sans-Serif" font-size="10.00">signal.h</text>
</a>
</g>
</g>
<!-- Node2&#45;&gt;Node3 -->
<g id="edge2" class="edge">
<title>Node2&#45;&gt;Node3</title>
<path fill="none" stroke="midnightblue" d="M947.29,-115.7C868.83,-108.72 731.6,-95.07 615,-76 613.72,-75.79 612.41,-75.57 611.1,-75.33"/>
<polygon fill="midnightblue" stroke="midnightblue" points="611.42,-71.83 600.94,-73.39 610.1,-78.71 611.42,-71.83"/>
</g>
<!-- Node4 -->
<g id="node4" class="node">
<title>Node4</title>
<g id="a_node4"><a xlink:title=" ">
<polygon fill="white" stroke="#bfbfbf" points="657,-56.5 657,-75.5 701,-75.5 701,-56.5 657,-56.5"/>
<text text-anchor="middle" x="679" y="-63.5" font-family="Helvetica,sans-Serif" font-size="10.00">ctime</text>
</a>
</g>
</g>
<!-- Node2&#45;&gt;Node4 -->
<g id="edge3" class="edge">
<title>Node2&#45;&gt;Node4</title>
<path fill="none" stroke="midnightblue" d="M947.42,-114.01C888.46,-106.96 798.17,-94.72 711.29,-76.04"/>
<polygon fill="midnightblue" stroke="midnightblue" points="711.78,-72.56 701.26,-73.85 710.28,-79.4 711.78,-72.56"/>
</g>
<!-- Node5 -->
<g id="node5" class="node">
<title>Node5</title>
<g id="a_node5"><a xlink:title=" ">
<polygon fill="white" stroke="#bfbfbf" points="719.5,-56.5 719.5,-75.5 766.5,-75.5 766.5,-56.5 719.5,-56.5"/>
<text text-anchor="middle" x="743" y="-63.5" font-family="Helvetica,sans-Serif" font-size="10.00">cmath</text>
</a>
</g>
</g>
<!-- Node2&#45;&gt;Node5 -->
<g id="edge4" class="edge">
<title>Node2&#45;&gt;Node5</title>
<path fill="none" stroke="midnightblue" d="M960.34,-112.46C914.73,-104.51 845.68,-91.83 776.5,-75.97"/>
<polygon fill="midnightblue" stroke="midnightblue" points="777.27,-72.55 766.74,-73.71 775.69,-79.37 777.27,-72.55"/>
</g>
<!-- Node6 -->
<g id="node6" class="node">
<title>Node6</title>
<g id="a_node6"><a xlink:title=" ">
<polygon fill="white" stroke="#bfbfbf" points="785,-56.5 785,-75.5 835,-75.5 835,-56.5 785,-56.5"/>
<text text-anchor="middle" x="810" y="-63.5" font-family="Helvetica,sans-Serif" font-size="10.00">climits</text>
</a>
</g>
</g>
<!-- Node2&#45;&gt;Node6 -->
<g id="edge5" class="edge">
<title>Node2&#45;&gt;Node6</title>
<path fill="none" stroke="midnightblue" d="M979.15,-112.44C942.62,-102.63 882.92,-86.59 845.09,-76.43"/>
<polygon fill="midnightblue" stroke="midnightblue" points="845.6,-72.94 835.03,-73.73 843.78,-79.7 845.6,-72.94"/>
</g>
<!-- Node7 -->
<g id="node7" class="node">
<title>Node7</title>
<g id="a_node7"><a xlink:title=" ">
<polygon fill="white" stroke="#bfbfbf" points="358.5,-56.5 358.5,-75.5 395.5,-75.5 395.5,-56.5 358.5,-56.5"/>
<text text-anchor="middle" x="377" y="-63.5" font-family="Helvetica,sans-Serif" font-size="10.00">new</text>
</a>
</g>
</g>
<!-- Node2&#45;&gt;Node7 -->
<g id="edge6" class="edge">
<title>Node2&#45;&gt;Node7</title>
<path fill="none" stroke="midnightblue" d="M947.09,-121.2C837.66,-120.46 607.5,-114.21 405.42,-75.55"/>
<polygon fill="midnightblue" stroke="midnightblue" points="406,-72.1 395.52,-73.63 404.66,-78.97 406,-72.1"/>
</g>
<!-- Node8 -->
<g id="node8" class="node">
<title>Node8</title>
<g id="a_node8"><a xlink:title=" ">
<polygon fill="white" stroke="#bfbfbf" points="414,-56.5 414,-75.5 460,-75.5 460,-56.5 414,-56.5"/>
<text text-anchor="middle" x="437" y="-63.5" font-family="Helvetica,sans-Serif" font-size="10.00">cstdio</text>
</a>
</g>
</g>
<!-- Node2&#45;&gt;Node8 -->
<g id="edge7" class="edge">
<title>Node2&#45;&gt;Node8</title>
<path fill="none" stroke="midnightblue" d="M947.48,-119.66C847.62,-116.68 647.8,-107.25 470.34,-75.91"/>
<polygon fill="midnightblue" stroke="midnightblue" points="470.76,-72.43 460.3,-74.11 469.52,-79.32 470.76,-72.43"/>
</g>
<!-- Node9 -->
<g id="node9" class="node">
<title>Node9</title>
<g id="a_node9"><a xlink:title=" ">
<polygon fill="white" stroke="#bfbfbf" points="478.5,-56.5 478.5,-75.5 527.5,-75.5 527.5,-56.5 478.5,-56.5"/>
<text text-anchor="middle" x="503" y="-63.5" font-family="Helvetica,sans-Serif" font-size="10.00">cstdlib</text>
</a>
</g>
</g>
<!-- Node2&#45;&gt;Node9 -->
<g id="edge8" class="edge">
<title>Node2&#45;&gt;Node9</title>
<path fill="none" stroke="midnightblue" d="M947.14,-118.44C857.46,-114.06 689.1,-103.05 537.71,-76.05"/>
<polygon fill="midnightblue" stroke="midnightblue" points="538.23,-72.58 527.76,-74.24 536.98,-79.47 538.23,-72.58"/>
</g>
<!-- Node10 -->
<g id="node10" class="node">
<title>Node10</title>
<g id="a_node10"><a xlink:title=" ">
<polygon fill="white" stroke="#bfbfbf" points="1262,-0.5 1262,-19.5 1312,-19.5 1312,-0.5 1262,-0.5"/>
<text text-anchor="middle" x="1287" y="-7.5" font-family="Helvetica,sans-Serif" font-size="10.00">cstring</text>
</a>
</g>
</g>
<!-- Node2&#45;&gt;Node10 -->
<g id="edge9" class="edge">
<title>Node2&#45;&gt;Node10</title>
<path fill="none" stroke="midnightblue" d="M947.32,-119.31C832.41,-115.12 605.98,-101.08 648,-56 689.35,-11.64 1124.12,-10.2 1251.88,-10.75"/>
<polygon fill="midnightblue" stroke="midnightblue" points="1251.9,-14.25 1261.91,-10.8 1251.93,-7.25 1251.9,-14.25"/>
</g>
<!-- Node11 -->
<g id="node11" class="node">
<title>Node11</title>
<g id="a_node11"><a xlink:title=" ">
<polygon fill="white" stroke="#bfbfbf" points="853,-56.5 853,-75.5 897,-75.5 897,-56.5 853,-56.5"/>
<text text-anchor="middle" x="875" y="-63.5" font-family="Helvetica,sans-Serif" font-size="10.00">limits</text>
</a>
</g>
</g>
<!-- Node2&#45;&gt;Node11 -->
<g id="edge10" class="edge">
<title>Node2&#45;&gt;Node11</title>
<path fill="none" stroke="midnightblue" d="M989.45,-112.44C966.97,-103.52 931.51,-89.44 906.02,-79.32"/>
<polygon fill="midnightblue" stroke="midnightblue" points="907.03,-75.95 896.45,-75.52 904.45,-82.46 907.03,-75.95"/>
</g>
<!-- Node12 -->
<g id="node12" class="node">
<title>Node12</title>
<g id="a_node12"><a xlink:title=" ">
<polygon fill="white" stroke="#bfbfbf" points="915.5,-56.5 915.5,-75.5 960.5,-75.5 960.5,-56.5 915.5,-56.5"/>
<text text-anchor="middle" x="938" y="-63.5" font-family="Helvetica,sans-Serif" font-size="10.00">utility</text>
</a>
</g>
</g>
<!-- Node2&#45;&gt;Node12 -->
<g id="edge11" class="edge">
<title>Node2&#45;&gt;Node12</title>
<path fill="none" stroke="midnightblue" d="M999.27,-112.32C988.16,-104.11 971.26,-91.6 958.02,-81.81"/>
<polygon fill="midnightblue" stroke="midnightblue" points="960.06,-78.97 949.94,-75.83 955.9,-84.59 960.06,-78.97"/>
</g>
<!-- Node13 -->
<g id="node13" class="node">
<title>Node13</title>
<g id="a_node13"><a xlink:title=" ">
<polygon fill="white" stroke="#bfbfbf" points="1773.5,-56.5 1773.5,-75.5 1828.5,-75.5 1828.5,-56.5 1773.5,-56.5"/>
<text text-anchor="middle" x="1801" y="-63.5" font-family="Helvetica,sans-Serif" font-size="10.00">fstream</text>
</a>
</g>
</g>
<!-- Node2&#45;&gt;Node13 -->
<g id="edge12" class="edge">
<title>Node2&#45;&gt;Node13</title>
<path fill="none" stroke="midnightblue" d="M1074.87,-121.02C1203.53,-120.24 1503.08,-114.2 1763.21,-75.82"/>
<polygon fill="midnightblue" stroke="midnightblue" points="1763.85,-79.26 1773.23,-74.32 1762.82,-72.34 1763.85,-79.26"/>
</g>
<!-- Node14 -->
<g id="node14" class="node">
<title>Node14</title>
<g id="a_node14"><a xlink:title=" ">
<polygon fill="white" stroke="#bfbfbf" points="1847,-56.5 1847,-75.5 1903,-75.5 1903,-56.5 1847,-56.5"/>
<text text-anchor="middle" x="1875" y="-63.5" font-family="Helvetica,sans-Serif" font-size="10.00">sstream</text>
</a>
</g>
</g>
<!-- Node2&#45;&gt;Node14 -->
<g id="edge13" class="edge">
<title>Node2&#45;&gt;Node14</title>
<path fill="none" stroke="midnightblue" d="M1074.69,-121.51C1212.31,-121.77 1547.66,-117.76 1836.57,-75.92"/>
<polygon fill="midnightblue" stroke="midnightblue" points="1837.44,-79.33 1846.82,-74.42 1836.42,-72.41 1837.44,-79.33"/>
</g>
<!-- Node15 -->
<g id="node15" class="node">
<title>Node15</title>
<g id="a_node15"><a xlink:title=" ">
<polygon fill="white" stroke="#bfbfbf" points="2123,-0.5 2123,-19.5 2183,-19.5 2183,-0.5 2123,-0.5"/>
<text text-anchor="middle" x="2153" y="-7.5" font-family="Helvetica,sans-Serif" font-size="10.00">iostream</text>
</a>
</g>
</g>
<!-- Node2&#45;&gt;Node15 -->
<g id="edge14" class="edge">
<title>Node2&#45;&gt;Node15</title>
<path fill="none" stroke="midnightblue" d="M1074.76,-120.1C1188.16,-117.67 1432.07,-108.74 1635,-76 1670.76,-70.23 1678.33,-62.31 1714,-56 1859.55,-30.26 2035.05,-17.76 2112.69,-13.16"/>
<polygon fill="midnightblue" stroke="midnightblue" points="2113.2,-16.64 2122.98,-12.56 2112.8,-9.65 2113.2,-16.64"/>
</g>
<!-- Node16 -->
<g id="node16" class="node">
<title>Node16</title>
<g id="a_node16"><a xlink:title=" ">
<polygon fill="white" stroke="#bfbfbf" points="979,-56.5 979,-75.5 1043,-75.5 1043,-56.5 979,-56.5"/>
<text text-anchor="middle" x="1011" y="-63.5" font-family="Helvetica,sans-Serif" font-size="10.00">algorithm</text>
</a>
</g>
</g>
<!-- Node2&#45;&gt;Node16 -->
<g id="edge15" class="edge">
<title>Node2&#45;&gt;Node16</title>
<path fill="none" stroke="midnightblue" d="M1011,-112.08C1011,-105.01 1011,-94.86 1011,-85.99"/>
<polygon fill="midnightblue" stroke="midnightblue" points="1014.5,-85.75 1011,-75.75 1007.5,-85.75 1014.5,-85.75"/>
</g>
<!-- Node17 -->
<g id="node17" class="node">
<title>Node17</title>
<g id="a_node17"><a xlink:title=" ">
<polygon fill="white" stroke="#bfbfbf" points="1061,-56.5 1061,-75.5 1117,-75.5 1117,-56.5 1061,-56.5"/>
<text text-anchor="middle" x="1089" y="-63.5" font-family="Helvetica,sans-Serif" font-size="10.00">iomanip</text>
</a>
</g>
</g>
<!-- Node2&#45;&gt;Node17 -->
<g id="edge16" class="edge">
<title>Node2&#45;&gt;Node17</title>
<path fill="none" stroke="midnightblue" d="M1023.53,-112.32C1035.59,-103.98 1054.03,-91.21 1068.27,-81.35"/>
<polygon fill="midnightblue" stroke="midnightblue" points="1070.27,-84.22 1076.5,-75.65 1066.28,-78.47 1070.27,-84.22"/>
</g>
<!-- Node18 -->
<g id="node18" class="node">
<title>Node18</title>
<g id="a_node18"><a xlink:title=" ">
<polygon fill="white" stroke="#bfbfbf" points="2272.5,-56.5 2272.5,-75.5 2319.5,-75.5 2319.5,-56.5 2272.5,-56.5"/>
<text text-anchor="middle" x="2296" y="-63.5" font-family="Helvetica,sans-Serif" font-size="10.00">vector</text>
</a>
</g>
</g>
<!-- Node2&#45;&gt;Node18 -->
<g id="edge17" class="edge">
<title>Node2&#45;&gt;Node18</title>
<path fill="none" stroke="midnightblue" d="M1074.66,-119.14C1248.8,-113.9 1747.63,-98.01 2162,-76 2196.12,-74.19 2235.09,-71.5 2262.17,-69.53"/>
<polygon fill="midnightblue" stroke="midnightblue" points="2262.57,-73.01 2272.29,-68.79 2262.06,-66.03 2262.57,-73.01"/>
</g>
<!-- Node19 -->
<g id="node19" class="node">
<title>Node19</title>
<g id="a_node19"><a xlink:title=" ">
<polygon fill="white" stroke="#bfbfbf" points="1135,-56.5 1135,-75.5 1185,-75.5 1185,-56.5 1135,-56.5"/>
<text text-anchor="middle" x="1160" y="-63.5" font-family="Helvetica,sans-Serif" font-size="10.00">atomic</text>
</a>
</g>
</g>
<!-- Node2&#45;&gt;Node19 -->
<g id="edge18" class="edge">
<title>Node2&#45;&gt;Node19</title>
<path fill="none" stroke="midnightblue" d="M1034.61,-112.44C1059.46,-103.44 1098.77,-89.19 1126.75,-79.05"/>
<polygon fill="midnightblue" stroke="midnightblue" points="1128.29,-82.21 1136.5,-75.52 1125.91,-75.63 1128.29,-82.21"/>
</g>
<!-- Node20 -->
<g id="node20" class="node">
<title>Node20</title>
<g id="a_node20"><a xlink:title=" ">
<polygon fill="white" stroke="#bfbfbf" points="1203,-56.5 1203,-75.5 1251,-75.5 1251,-56.5 1203,-56.5"/>
<text text-anchor="middle" x="1227" y="-63.5" font-family="Helvetica,sans-Serif" font-size="10.00">mutex</text>
</a>
</g>
</g>
<!-- Node2&#45;&gt;Node20 -->
<g id="edge19" class="edge">
<title>Node2&#45;&gt;Node20</title>
<path fill="none" stroke="midnightblue" d="M1046.83,-112.47C1081.76,-104.09 1136.6,-90.78 1193.06,-76.2"/>
<polygon fill="midnightblue" stroke="midnightblue" points="1194.07,-79.55 1202.87,-73.66 1192.31,-72.78 1194.07,-79.55"/>
</g>
<!-- Node21 -->
<g id="node21" class="node">
<title>Node21</title>
<g id="a_node21"><a xlink:title=" ">
<polygon fill="white" stroke="#bfbfbf" points="1723,-56.5 1723,-75.5 1755,-75.5 1755,-56.5 1723,-56.5"/>
<text text-anchor="middle" x="1739" y="-63.5" font-family="Helvetica,sans-Serif" font-size="10.00">set</text>
</a>
</g>
</g>
<!-- Node2&#45;&gt;Node21 -->
<g id="edge20" class="edge">
<title>Node2&#45;&gt;Node21</title>
<path fill="none" stroke="midnightblue" d="M1074.83,-118C1192.77,-112.15 1452.73,-97.86 1671,-76 1684.75,-74.62 1700,-72.65 1712.57,-70.89"/>
<polygon fill="midnightblue" stroke="midnightblue" points="1713.41,-74.31 1722.82,-69.44 1712.43,-67.38 1713.41,-74.31"/>
</g>
<!-- Node22 -->
<g id="node22" class="node">
<title>Node22</title>
<g id="a_node22"><a xlink:title=" ">
<polygon fill="white" stroke="#bfbfbf" points="2115,-56.5 2115,-75.5 2153,-75.5 2153,-56.5 2115,-56.5"/>
<text text-anchor="middle" x="2134" y="-63.5" font-family="Helvetica,sans-Serif" font-size="10.00">map</text>
</a>
</g>
</g>
<!-- Node2&#45;&gt;Node22 -->
<g id="edge21" class="edge">
<title>Node2&#45;&gt;Node22</title>
<path fill="none" stroke="midnightblue" d="M1074.58,-120.35C1239.11,-118.23 1692.28,-109.54 2068,-76 2080.17,-74.91 2093.54,-73.19 2105.04,-71.54"/>
<polygon fill="midnightblue" stroke="midnightblue" points="2105.61,-75 2114.99,-70.07 2104.59,-68.07 2105.61,-75"/>
</g>
<!-- Node23 -->
<g id="node23" class="node">
<title>Node23</title>
<g id="a_node23"><a xlink:title=" ">
<polygon fill="white" stroke="#bfbfbf" points="1269,-56.5 1269,-75.5 1355,-75.5 1355,-56.5 1269,-56.5"/>
<text text-anchor="middle" x="1312" y="-63.5" font-family="Helvetica,sans-Serif" font-size="10.00">unordered_set</text>
</a>
</g>
</g>
<!-- Node2&#45;&gt;Node23 -->
<g id="edge22" class="edge">
<title>Node2&#45;&gt;Node23</title>
<path fill="none" stroke="midnightblue" d="M1058.69,-112.44C1113.27,-102.65 1202.4,-86.66 1259.07,-76.49"/>
<polygon fill="midnightblue" stroke="midnightblue" points="1259.69,-79.94 1268.92,-74.73 1258.46,-73.05 1259.69,-79.94"/>
</g>
<!-- Node24 -->
<g id="node24" class="node">
<title>Node24</title>
<g id="a_node24"><a xlink:title=" ">
<polygon fill="white" stroke="#bfbfbf" points="1373.5,-56.5 1373.5,-75.5 1438.5,-75.5 1438.5,-56.5 1373.5,-56.5"/>
<text text-anchor="middle" x="1406" y="-63.5" font-family="Helvetica,sans-Serif" font-size="10.00">exception</text>
</a>
</g>
</g>
<!-- Node2&#45;&gt;Node24 -->
<g id="edge23" class="edge">
<title>Node2&#45;&gt;Node24</title>
<path fill="none" stroke="midnightblue" d="M1074.69,-114.52C1143.41,-107.15 1256.27,-93.99 1363.47,-75.95"/>
<polygon fill="midnightblue" stroke="midnightblue" points="1364.22,-79.38 1373.49,-74.25 1363.05,-72.47 1364.22,-79.38"/>
</g>
<!-- Node25 -->
<g id="node25" class="node">
<title>Node25</title>
<g id="a_node25"><a xlink:title=" ">
<polygon fill="white" stroke="#bfbfbf" points="1456.5,-56.5 1456.5,-75.5 1521.5,-75.5 1521.5,-56.5 1456.5,-56.5"/>
<text text-anchor="middle" x="1489" y="-63.5" font-family="Helvetica,sans-Serif" font-size="10.00">stdexcept</text>
</a>
</g>
</g>
<!-- Node2&#45;&gt;Node25 -->
<g id="edge24" class="edge">
<title>Node2&#45;&gt;Node25</title>
<path fill="none" stroke="midnightblue" d="M1074.82,-116.59C1158.03,-110.35 1308.22,-97.44 1446.14,-75.97"/>
<polygon fill="midnightblue" stroke="midnightblue" points="1446.71,-79.43 1456.05,-74.41 1445.63,-72.51 1446.71,-79.43"/>
</g>
<!-- Node26 -->
<g id="node26" class="node">
<title>Node26</title>
<g id="a_node26"><a xlink:title=" ">
<polygon fill="white" stroke="#bfbfbf" points="1539.5,-56.5 1539.5,-75.5 1590.5,-75.5 1590.5,-56.5 1539.5,-56.5"/>
<text text-anchor="middle" x="1565" y="-63.5" font-family="Helvetica,sans-Serif" font-size="10.00">csignal</text>
</a>
</g>
</g>
<!-- Node2&#45;&gt;Node26 -->
<g id="edge25" class="edge">
<title>Node2&#45;&gt;Node26</title>
<path fill="none" stroke="midnightblue" d="M1074.54,-118.87C1170.94,-114.9 1359.92,-104.19 1529.63,-75.76"/>
<polygon fill="midnightblue" stroke="midnightblue" points="1530.22,-79.21 1539.49,-74.08 1529.05,-72.3 1530.22,-79.21"/>
</g>
<!-- Node27 -->
<g id="node27" class="node">
<title>Node27</title>
<g id="a_node27"><a xlink:title=" ">
<polygon fill="white" stroke="#bfbfbf" points="0,-56.5 0,-75.5 44,-75.5 44,-56.5 0,-56.5"/>
<text text-anchor="middle" x="22" y="-63.5" font-family="Helvetica,sans-Serif" font-size="10.00">cfloat</text>
</a>
</g>
</g>
<!-- Node2&#45;&gt;Node27 -->
<g id="edge26" class="edge">
<title>Node2&#45;&gt;Node27</title>
<path fill="none" stroke="midnightblue" d="M947.35,-119.96C765.43,-116.7 244.62,-105.16 54.11,-75.72"/>
<polygon fill="midnightblue" stroke="midnightblue" points="54.64,-72.26 44.21,-74.13 53.52,-79.17 54.64,-72.26"/>
</g>
<!-- Node28 -->
<g id="node28" class="node">
<title>Node28</title>
<g id="a_node28"><a xlink:title=" ">
<polygon fill="white" stroke="#bfbfbf" points="62.5,-56.5 62.5,-75.5 111.5,-75.5 111.5,-56.5 62.5,-56.5"/>
<text text-anchor="middle" x="87" y="-63.5" font-family="Helvetica,sans-Serif" font-size="10.00">cctype</text>
</a>
</g>
</g>
<!-- Node2&#45;&gt;Node28 -->
<g id="edge27" class="edge">
<title>Node2&#45;&gt;Node28</title>
<path fill="none" stroke="midnightblue" d="M947.23,-119.5C774.45,-115.17 299.03,-101.4 121.74,-75.7"/>
<polygon fill="midnightblue" stroke="midnightblue" points="122.17,-72.23 111.76,-74.19 121.12,-79.15 122.17,-72.23"/>
</g>
<!-- Node29 -->
<g id="node29" class="node">
<title>Node29</title>
<g id="a_node29"><a xlink:title=" ">
<polygon fill="white" stroke="#bfbfbf" points="130,-56.5 130,-75.5 180,-75.5 180,-56.5 130,-56.5"/>
<text text-anchor="middle" x="155" y="-63.5" font-family="Helvetica,sans-Serif" font-size="10.00">cstdint</text>
</a>
</g>
</g>
<!-- Node2&#45;&gt;Node29 -->
<g id="edge28" class="edge">
<title>Node2&#45;&gt;Node29</title>
<path fill="none" stroke="midnightblue" d="M947.34,-119.2C784.34,-114.31 353.88,-99.69 190.5,-75.85"/>
<polygon fill="midnightblue" stroke="midnightblue" points="190.54,-72.31 180.13,-74.26 189.49,-79.23 190.54,-72.31"/>
</g>
<!-- Node30 -->
<g id="node30" class="node">
<title>Node30</title>
<g id="a_node30"><a xlink:title=" ">
<polygon fill="white" stroke="#bfbfbf" points="1948,-0.5 1948,-19.5 1992,-19.5 1992,-0.5 1948,-0.5"/>
<text text-anchor="middle" x="1970" y="-7.5" font-family="Helvetica,sans-Serif" font-size="10.00">string</text>
</a>
</g>
</g>
<!-- Node2&#45;&gt;Node30 -->
<g id="edge29" class="edge">
<title>Node2&#45;&gt;Node30</title>
<path fill="none" stroke="midnightblue" d="M1074.74,-118.93C1205.78,-114.22 1501.33,-101.1 1599,-76 1619.81,-70.65 1622.37,-61.97 1643,-56 1747.94,-25.63 1877.92,-15.54 1937.46,-12.36"/>
<polygon fill="midnightblue" stroke="midnightblue" points="1937.92,-15.84 1947.73,-11.85 1937.57,-8.85 1937.92,-15.84"/>
</g>
<!-- Node31 -->
<g id="node31" class="node">
<title>Node31</title>
<g id="a_node31"><a xlink:title=" ">
<polygon fill="white" stroke="#bfbfbf" points="198,-56.5 198,-75.5 266,-75.5 266,-56.5 198,-56.5"/>
<text text-anchor="middle" x="232" y="-63.5" font-family="Helvetica,sans-Serif" font-size="10.00">sys/time.h</text>
</a>
</g>
</g>
<!-- Node2&#45;&gt;Node31 -->
<g id="edge30" class="edge">
<title>Node2&#45;&gt;Node31</title>
<path fill="none" stroke="midnightblue" d="M947.2,-120.21C820.87,-117.97 529.89,-109.46 276.33,-75.98"/>
<polygon fill="midnightblue" stroke="midnightblue" points="276.57,-72.48 266.19,-74.62 275.64,-79.42 276.57,-72.48"/>
</g>
<!-- Node32 -->
<g id="node32" class="node">
<title>Node32</title>
<g id="a_node32"><a xlink:title=" ">
<polygon fill="white" stroke="#bfbfbf" points="284,-56.5 284,-75.5 340,-75.5 340,-56.5 284,-56.5"/>
<text text-anchor="middle" x="312" y="-63.5" font-family="Helvetica,sans-Serif" font-size="10.00">unistd.h</text>
</a>
</g>
</g>
<!-- Node2&#45;&gt;Node32 -->
<g id="edge31" class="edge">
<title>Node2&#45;&gt;Node32</title>
<path fill="none" stroke="midnightblue" d="M947.16,-120.27C830.35,-118.16 574.37,-109.88 350.16,-75.91"/>
<polygon fill="midnightblue" stroke="midnightblue" points="350.6,-72.44 340.18,-74.38 349.54,-79.36 350.6,-72.44"/>
</g>
<!-- Node33&#45;&gt;Node13 -->
<g id="edge72" class="edge">
<title>Node33&#45;&gt;Node13</title>
<path fill="none" stroke="midnightblue" d="M1861.88,-231.1C1812.22,-223.26 1745.19,-209.08 1729,-188 1721.64,-178.42 1710.89,-146.01 1730,-112 1738.15,-97.49 1753.13,-86.98 1767.23,-79.78"/>
<polygon fill="midnightblue" stroke="midnightblue" points="1768.73,-82.95 1776.29,-75.52 1765.75,-76.61 1768.73,-82.95"/>
</g>
<!-- Node33&#45;&gt;Node14 -->
<g id="edge74" class="edge">
<title>Node33&#45;&gt;Node14</title>
<path fill="none" stroke="midnightblue" d="M1861.72,-229.52C1816.81,-221.07 1759.17,-206.9 1745,-188 1724.74,-160.98 1725.41,-139.52 1745,-112 1750.59,-104.15 1800.76,-88.32 1837.11,-77.69"/>
<polygon fill="midnightblue" stroke="midnightblue" points="1838.31,-80.99 1846.94,-74.84 1836.36,-74.26 1838.31,-80.99"/>
</g>
<!-- Node33&#45;&gt;Node15 -->
<g id="edge68" class="edge">
<title>Node33&#45;&gt;Node15</title>
<path fill="none" stroke="midnightblue" d="M1974.13,-236.1C2081.05,-230.93 2309.79,-216.8 2383,-188 2421.71,-172.77 2439.36,-169.19 2458,-132 2509.86,-28.55 2287.38,-13.09 2193.28,-11.11"/>
<polygon fill="midnightblue" stroke="midnightblue" points="2193.32,-7.61 2183.26,-10.95 2193.2,-14.61 2193.32,-7.61"/>
</g>
<!-- Node33&#45;&gt;Node18 -->
<g id="edge69" class="edge">
<title>Node33&#45;&gt;Node18</title>
<path fill="none" stroke="midnightblue" d="M1974.11,-236.69C2098.74,-231.26 2391.64,-210.26 2442,-132 2469.81,-88.78 2380.93,-74.07 2329.67,-69.25"/>
<polygon fill="midnightblue" stroke="midnightblue" points="2329.93,-65.76 2319.66,-68.38 2329.33,-72.73 2329.93,-65.76"/>
</g>
<!-- Node33&#45;&gt;Node21 -->
<g id="edge70" class="edge">
<title>Node33&#45;&gt;Node21</title>
<path fill="none" stroke="midnightblue" d="M1861.87,-232.1C1808.79,-224.75 1734.7,-210.7 1717,-188 1693.35,-157.68 1713.87,-110.14 1728.11,-84.61"/>
<polygon fill="midnightblue" stroke="midnightblue" points="1731.29,-86.09 1733.33,-75.7 1725.25,-82.56 1731.29,-86.09"/>
</g>
<!-- Node33&#45;&gt;Node22 -->
<g id="edge71" class="edge">
<title>Node33&#45;&gt;Node22</title>
<path fill="none" stroke="midnightblue" d="M1974.31,-234.01C2048.73,-227.22 2174.96,-212.46 2214,-188 2246.34,-167.73 2275.74,-143.37 2254,-112 2233.77,-82.81 2192.12,-72.53 2163.62,-68.92"/>
<polygon fill="midnightblue" stroke="midnightblue" points="2163.73,-65.41 2153.42,-67.84 2162.99,-72.37 2163.73,-65.41"/>
</g>
<!-- Node33&#45;&gt;Node30 -->
<g id="edge73" class="edge">
<title>Node33&#45;&gt;Node30</title>
<path fill="none" stroke="midnightblue" d="M1861.96,-233.07C1805.29,-226.28 1723.37,-212.47 1704,-188 1667.49,-141.87 1672.7,-97.91 1714,-56 1744.7,-24.84 1875.71,-15.07 1937.5,-12.16"/>
<polygon fill="midnightblue" stroke="midnightblue" points="1938.01,-15.64 1947.84,-11.71 1937.7,-8.65 1938.01,-15.64"/>
</g>
<!-- Node34 -->
<g id="node34" class="node">
<title>Node34</title>
<g id="a_node34"><a xlink:href="livro_8hpp.html" target="_top" xlink:title="Classe do objeto Livro.">
<polygon fill="white" stroke="black" points="2339.5,-112.5 2339.5,-131.5 2432.5,-131.5 2432.5,-112.5 2339.5,-112.5"/>
<text text-anchor="middle" x="2386" y="-119.5" font-family="Helvetica,sans-Serif" font-size="10.00">../livro/livro.hpp</text>
</a>
</g>
</g>
<!-- Node33&#45;&gt;Node34 -->
<g id="edge33" class="edge">
<title>Node33&#45;&gt;Node34</title>
<path fill="none" stroke="midnightblue" d="M1974.26,-238.44C2048.28,-236.67 2181.34,-227.59 2287,-188 2318.22,-176.3 2349.61,-153.34 2368.43,-138.08"/>
<polygon fill="midnightblue" stroke="midnightblue" points="2370.69,-140.76 2376.15,-131.68 2366.22,-135.37 2370.69,-140.76"/>
</g>
<!-- Node35 -->
<g id="node35" class="node">
<title>Node35</title>
<g id="a_node35"><a xlink:href="usuario_8hpp.html" target="_top" xlink:title="Classe do usuario.">
<polygon fill="white" stroke="black" points="1855.5,-168.5 1855.5,-187.5 1980.5,-187.5 1980.5,-168.5 1855.5,-168.5"/>
<text text-anchor="middle" x="1918" y="-175.5" font-family="Helvetica,sans-Serif" font-size="10.00">../pessoas/usuario.hpp</text>
</a>
</g>
</g>
<!-- Node33&#45;&gt;Node35 -->
<g id="edge37" class="edge">
<title>Node33&#45;&gt;Node35</title>
<path fill="none" stroke="midnightblue" d="M1918,-224.4C1918,-216.47 1918,-206.46 1918,-197.86"/>
<polygon fill="midnightblue" stroke="midnightblue" points="1921.5,-197.66 1918,-187.66 1914.5,-197.66 1921.5,-197.66"/>
</g>
<!-- Node37 -->
<g id="node37" class="node">
<title>Node37</title>
<g id="a_node37"><a xlink:href="erros_8hpp.html" target="_top" xlink:title="Classes de tratamento de exceções.">
<polygon fill="white" stroke="black" points="1959.5,-56.5 1959.5,-75.5 2058.5,-75.5 2058.5,-56.5 1959.5,-56.5"/>
<text text-anchor="middle" x="2009" y="-63.5" font-family="Helvetica,sans-Serif" font-size="10.00">../erros/erros.hpp</text>
</a>
</g>
</g>
<!-- Node33&#45;&gt;Node37 -->
<g id="edge66" class="edge">
<title>Node33&#45;&gt;Node37</title>
<path fill="none" stroke="midnightblue" d="M1885.75,-224.34C1861.6,-211.53 1834.69,-191.16 1847,-168 1872.1,-120.79 1929.9,-92.97 1969.22,-78.85"/>
<polygon fill="midnightblue" stroke="midnightblue" points="1970.47,-82.12 1978.79,-75.55 1968.19,-75.5 1970.47,-82.12"/>
</g>
<!-- Node38 -->
<g id="node38" class="node">
<title>Node38</title>
<g id="a_node38"><a xlink:href="arquivos_8hpp.html" target="_top" xlink:title="Classe assistente para facilitar a manipulação de arquivos.">
<polygon fill="white" stroke="black" points="1939,-112.5 1939,-131.5 2079,-131.5 2079,-112.5 1939,-112.5"/>
<text text-anchor="middle" x="2009" y="-119.5" font-family="Helvetica,sans-Serif" font-size="10.00">../biblioteca/arquivos.hpp</text>
</a>
</g>
</g>
<!-- Node33&#45;&gt;Node38 -->
<g id="edge67" class="edge">
<title>Node33&#45;&gt;Node38</title>
<path fill="none" stroke="midnightblue" d="M1946.89,-224.34C1961.74,-215.72 1978.97,-203.39 1990,-188 1999.74,-174.41 2004.52,-155.87 2006.85,-142.06"/>
<polygon fill="midnightblue" stroke="midnightblue" points="2010.36,-142.18 2008.28,-131.79 2003.43,-141.21 2010.36,-142.18"/>
</g>
<!-- Node39 -->
<g id="node39" class="node">
<title>Node39</title>
<g id="a_node39"><a xlink:href="admin_8hpp.html" target="_top" xlink:title="Classe do administrador.">
<polygon fill="white" stroke="black" points="2085,-168.5 2085,-187.5 2205,-187.5 2205,-168.5 2085,-168.5"/>
<text text-anchor="middle" x="2145" y="-175.5" font-family="Helvetica,sans-Serif" font-size="10.00">../pessoas/admin.hpp</text>
</a>
</g>
</g>
<!-- Node33&#45;&gt;Node39 -->
<g id="edge59" class="edge">
<title>Node33&#45;&gt;Node39</title>
<path fill="none" stroke="midnightblue" d="M1971.51,-224.47C2011.53,-213.99 2065.51,-199.84 2102.57,-190.12"/>
<polygon fill="midnightblue" stroke="midnightblue" points="2103.76,-193.43 2112.55,-187.51 2101.99,-186.66 2103.76,-193.43"/>
</g>
<!-- Node34&#45;&gt;Node15 -->
<g id="edge34" class="edge">
<title>Node34&#45;&gt;Node15</title>
<path fill="none" stroke="midnightblue" d="M2385.39,-112.37C2383.91,-98.33 2378.9,-70.66 2362,-56 2337.16,-34.45 2246.58,-21.17 2193.17,-15.04"/>
<polygon fill="midnightblue" stroke="midnightblue" points="2193.34,-11.54 2183.01,-13.91 2192.56,-18.5 2193.34,-11.54"/>
</g>
<!-- Node34&#45;&gt;Node18 -->
<g id="edge35" class="edge">
<title>Node34&#45;&gt;Node18</title>
<path fill="none" stroke="midnightblue" d="M2371.54,-112.32C2357.5,-103.9 2335.95,-90.97 2319.46,-81.07"/>
<polygon fill="midnightblue" stroke="midnightblue" points="2320.8,-77.8 2310.42,-75.65 2317.2,-83.8 2320.8,-77.8"/>
</g>
<!-- Node34&#45;&gt;Node30 -->
<g id="edge36" class="edge">
<title>Node34&#45;&gt;Node30</title>
<path fill="none" stroke="midnightblue" d="M2381.35,-112.48C2372.98,-98.08 2353.93,-69.22 2329,-56 2300.39,-40.82 2084.94,-20.9 2002.21,-13.72"/>
<polygon fill="midnightblue" stroke="midnightblue" points="2002.39,-10.22 1992.12,-12.85 2001.79,-17.2 2002.39,-10.22"/>
</g>
<!-- Node35&#45;&gt;Node13 -->
<g id="edge56" class="edge">
<title>Node35&#45;&gt;Node13</title>
<path fill="none" stroke="midnightblue" d="M1908.82,-168.37C1889.17,-149.89 1842.79,-106.29 1817.75,-82.74"/>
<polygon fill="midnightblue" stroke="midnightblue" points="1819.82,-79.89 1810.14,-75.59 1815.03,-84.99 1819.82,-79.89"/>
</g>
<!-- Node35&#45;&gt;Node14 -->
<g id="edge58" class="edge">
<title>Node35&#45;&gt;Node14</title>
<path fill="none" stroke="midnightblue" d="M1913.69,-168.5C1909.23,-159.54 1902.2,-144.96 1897,-132 1890.76,-116.45 1884.74,-98.37 1880.58,-85.23"/>
<polygon fill="midnightblue" stroke="midnightblue" points="1883.87,-84.03 1877.55,-75.52 1877.18,-86.11 1883.87,-84.03"/>
</g>
<!-- Node35&#45;&gt;Node21 -->
<g id="edge55" class="edge">
<title>Node35&#45;&gt;Node21</title>
<path fill="none" stroke="midnightblue" d="M1903.95,-168.37C1873.11,-149.41 1799.21,-104 1761.69,-80.94"/>
<polygon fill="midnightblue" stroke="midnightblue" points="1763.33,-77.85 1752.98,-75.59 1759.67,-83.81 1763.33,-77.85"/>
</g>
<!-- Node35&#45;&gt;Node22 -->
<g id="edge57" class="edge">
<title>Node35&#45;&gt;Node22</title>
<path fill="none" stroke="midnightblue" d="M1980.55,-170.94C2014.72,-165.18 2056.4,-153.94 2088,-132 2105.16,-120.09 2118.09,-99.59 2125.81,-84.79"/>
<polygon fill="midnightblue" stroke="midnightblue" points="2129.04,-86.15 2130.3,-75.63 2122.75,-83.07 2129.04,-86.15"/>
</g>
<!-- Node35&#45;&gt;Node34 -->
<g id="edge45" class="edge">
<title>Node35&#45;&gt;Node34</title>
<path fill="none" stroke="midnightblue" d="M1980.63,-169.77C2072.15,-159.21 2241.1,-139.72 2329.2,-129.55"/>
<polygon fill="midnightblue" stroke="midnightblue" points="2329.74,-133.01 2339.27,-128.39 2328.94,-126.06 2329.74,-133.01"/>
</g>
<!-- Node36 -->
<g id="node36" class="node">
<title>Node36</title>
<g id="a_node36"><a xlink:href="pessoa_8hpp.html" target="_top" xlink:title="Classe mãe de usuario e admin.">
<polygon fill="white" stroke="black" points="2173,-112.5 2173,-131.5 2245,-131.5 2245,-112.5 2173,-112.5"/>
<text text-anchor="middle" x="2209" y="-119.5" font-family="Helvetica,sans-Serif" font-size="10.00">pessoa.hpp</text>
</a>
</g>
</g>
<!-- Node35&#45;&gt;Node36 -->
<g id="edge38" class="edge">
<title>Node35&#45;&gt;Node36</title>
<path fill="none" stroke="midnightblue" d="M1964.11,-168.44C2018.46,-158.36 2108.26,-141.69 2162.69,-131.59"/>
<polygon fill="midnightblue" stroke="midnightblue" points="2163.57,-134.99 2172.76,-129.73 2162.29,-128.11 2163.57,-134.99"/>
</g>
<!-- Node35&#45;&gt;Node38 -->
<g id="edge46" class="edge">
<title>Node35&#45;&gt;Node38</title>
<path fill="none" stroke="midnightblue" d="M1932.62,-168.32C1946.95,-159.82 1969.01,-146.73 1985.75,-136.8"/>
<polygon fill="midnightblue" stroke="midnightblue" points="1987.6,-139.77 1994.42,-131.65 1984.03,-133.75 1987.6,-139.77"/>
</g>
<!-- Node36&#45;&gt;Node15 -->
<g id="edge39" class="edge">
<title>Node36&#45;&gt;Node15</title>
<path fill="none" stroke="midnightblue" d="M2208.58,-112.08C2207.64,-99.07 2204.62,-74.42 2195,-56 2189.22,-44.95 2179.99,-34.62 2171.64,-26.65"/>
<polygon fill="midnightblue" stroke="midnightblue" points="2173.82,-23.91 2164.06,-19.79 2169.13,-29.1 2173.82,-23.91"/>
</g>
<!-- Node36&#45;&gt;Node30 -->
<g id="edge40" class="edge">
<title>Node36&#45;&gt;Node30</title>
<path fill="none" stroke="midnightblue" d="M2205.22,-112.3C2198.6,-98.16 2183.56,-70.36 2162,-56 2112.82,-23.25 2042.69,-14.21 2002.21,-11.79"/>
<polygon fill="midnightblue" stroke="midnightblue" points="2002.27,-8.29 1992.1,-11.29 2001.92,-15.28 2002.27,-8.29"/>
</g>
<!-- Node36&#45;&gt;Node37 -->
<g id="edge41" class="edge">
<title>Node36&#45;&gt;Node37</title>
<path fill="none" stroke="midnightblue" d="M2177.31,-112.44C2142.93,-103.16 2087.92,-88.31 2050.21,-78.13"/>
<polygon fill="midnightblue" stroke="midnightblue" points="2051.11,-74.74 2040.54,-75.52 2049.28,-81.5 2051.11,-74.74"/>
</g>
<!-- Node37&#45;&gt;Node10 -->
<g id="edge44" class="edge">
<title>Node37&#45;&gt;Node10</title>
<path fill="none" stroke="midnightblue" d="M1959.17,-60.18C1944.03,-58.77 1927.34,-57.26 1912,-56 1687.55,-37.51 1417.39,-19.5 1322.23,-13.28"/>
<polygon fill="midnightblue" stroke="midnightblue" points="1322.23,-9.77 1312.02,-12.62 1321.77,-16.76 1322.23,-9.77"/>
</g>
<!-- Node37&#45;&gt;Node15 -->
<g id="edge42" class="edge">
<title>Node37&#45;&gt;Node15</title>
<path fill="none" stroke="midnightblue" d="M2031.82,-56.44C2055.83,-47.44 2093.83,-33.19 2120.87,-23.05"/>
<polygon fill="midnightblue" stroke="midnightblue" points="2122.16,-26.3 2130.29,-19.52 2119.7,-19.75 2122.16,-26.3"/>
</g>
<!-- Node37&#45;&gt;Node30 -->
<g id="edge43" class="edge">
<title>Node37&#45;&gt;Node30</title>
<path fill="none" stroke="midnightblue" d="M2002.56,-56.08C1997.05,-48.46 1988.97,-37.26 1982.24,-27.94"/>
<polygon fill="midnightblue" stroke="midnightblue" points="1985.01,-25.81 1976.32,-19.75 1979.34,-29.91 1985.01,-25.81"/>
</g>
<!-- Node38&#45;&gt;Node13 -->
<g id="edge52" class="edge">
<title>Node38&#45;&gt;Node13</title>
<path fill="none" stroke="midnightblue" d="M1976.04,-112.44C1938.63,-102.73 1877.73,-86.92 1838.53,-76.74"/>
<polygon fill="midnightblue" stroke="midnightblue" points="1839.37,-73.35 1828.81,-74.22 1837.61,-80.12 1839.37,-73.35"/>
</g>
<!-- Node38&#45;&gt;Node14 -->
<g id="edge53" class="edge">
<title>Node38&#45;&gt;Node14</title>
<path fill="none" stroke="midnightblue" d="M1987.77,-112.44C1965.62,-103.52 1930.68,-89.44 1905.56,-79.32"/>
<polygon fill="midnightblue" stroke="midnightblue" points="1906.72,-76.01 1896.13,-75.52 1904.1,-82.5 1906.72,-76.01"/>
</g>
<!-- Node38&#45;&gt;Node15 -->
<g id="edge47" class="edge">
<title>Node38&#45;&gt;Node15</title>
<path fill="none" stroke="midnightblue" d="M2020.31,-112.38C2032.19,-103.32 2051.41,-88.67 2068,-76 2090.5,-58.81 2116.35,-39.05 2133.57,-25.87"/>
<polygon fill="midnightblue" stroke="midnightblue" points="2135.91,-28.48 2141.73,-19.63 2131.66,-22.92 2135.91,-28.48"/>
</g>
<!-- Node38&#45;&gt;Node18 -->
<g id="edge49" class="edge">
<title>Node38&#45;&gt;Node18</title>
<path fill="none" stroke="midnightblue" d="M2054.48,-112.44C2112.29,-101.56 2210.78,-83.03 2262.31,-73.34"/>
<polygon fill="midnightblue" stroke="midnightblue" points="2263.08,-76.76 2272.26,-71.47 2261.79,-69.88 2263.08,-76.76"/>
</g>
<!-- Node38&#45;&gt;Node21 -->
<g id="edge50" class="edge">
<title>Node38&#45;&gt;Node21</title>
<path fill="none" stroke="midnightblue" d="M1948.78,-112.49C1899.05,-104.84 1826.85,-92.31 1765,-76 1764.9,-75.97 1764.8,-75.95 1764.7,-75.92"/>
<polygon fill="midnightblue" stroke="midnightblue" points="1765.7,-72.57 1755.11,-73 1763.66,-79.26 1765.7,-72.57"/>
</g>
<!-- Node38&#45;&gt;Node22 -->
<g id="edge51" class="edge">
<title>Node38&#45;&gt;Node22</title>
<path fill="none" stroke="midnightblue" d="M2028.81,-112.44C2049.41,-103.54 2081.86,-89.52 2105.28,-79.41"/>
<polygon fill="midnightblue" stroke="midnightblue" points="2106.9,-82.52 2114.7,-75.34 2104.13,-76.09 2106.9,-82.52"/>
</g>
<!-- Node38&#45;&gt;Node30 -->
<g id="edge48" class="edge">
<title>Node38&#45;&gt;Node30</title>
<path fill="none" stroke="midnightblue" d="M1990.61,-112.47C1976.9,-105 1959.19,-92.71 1951,-76 1943.51,-60.71 1950.58,-41.91 1958.13,-28.47"/>
<polygon fill="midnightblue" stroke="midnightblue" points="1961.23,-30.11 1963.51,-19.76 1955.28,-26.43 1961.23,-30.11"/>
</g>
<!-- Node38&#45;&gt;Node37 -->
<g id="edge54" class="edge">
<title>Node38&#45;&gt;Node37</title>
<path fill="none" stroke="midnightblue" d="M2009,-112.08C2009,-105.01 2009,-94.86 2009,-85.99"/>
<polygon fill="midnightblue" stroke="midnightblue" points="2012.5,-85.75 2009,-75.75 2005.5,-85.75 2012.5,-85.75"/>
</g>
<!-- Node39&#45;&gt;Node13 -->
<g id="edge63" class="edge">
<title>Node39&#45;&gt;Node13</title>
<path fill="none" stroke="midnightblue" d="M2084.78,-172.39C2034.48,-167.02 1961.63,-155.64 1902,-132 1870.73,-119.6 1838.77,-97.02 1819.4,-82.02"/>
<polygon fill="midnightblue" stroke="midnightblue" points="1821.45,-79.17 1811.44,-75.72 1817.11,-84.66 1821.45,-79.17"/>
</g>
<!-- Node39&#45;&gt;Node14 -->
<g id="edge65" class="edge">
<title>Node39&#45;&gt;Node14</title>
<path fill="none" stroke="midnightblue" d="M2084.64,-174.84C2039.3,-170.84 1977.17,-160.11 1930,-132 1910.62,-120.45 1894.81,-99.58 1885.19,-84.6"/>
<polygon fill="midnightblue" stroke="midnightblue" points="1887.99,-82.47 1879.79,-75.76 1882.02,-86.12 1887.99,-82.47"/>
</g>
<!-- Node39&#45;&gt;Node18 -->
<g id="edge64" class="edge">
<title>Node39&#45;&gt;Node18</title>
<path fill="none" stroke="midnightblue" d="M2180.04,-168.43C2202.96,-161.49 2232.52,-149.88 2254,-132 2269.29,-119.27 2280.94,-99.52 2288.05,-85.13"/>
<polygon fill="midnightblue" stroke="midnightblue" points="2291.36,-86.32 2292.41,-75.78 2285.01,-83.36 2291.36,-86.32"/>
</g>
<!-- Node39&#45;&gt;Node22 -->
<g id="edge62" class="edge">
<title>Node39&#45;&gt;Node22</title>
<path fill="none" stroke="midnightblue" d="M2144.14,-168.37C2142.36,-150.62 2138.27,-109.67 2135.86,-85.6"/>
<polygon fill="midnightblue" stroke="midnightblue" points="2139.34,-85.19 2134.86,-75.59 2132.37,-85.89 2139.34,-85.19"/>
</g>
<!-- Node39&#45;&gt;Node34 -->
<g id="edge61" class="edge">
<title>Node39&#45;&gt;Node34</title>
<path fill="none" stroke="midnightblue" d="M2183.19,-168.44C2225.14,-159.04 2292.59,-143.93 2338.07,-133.74"/>
<polygon fill="midnightblue" stroke="midnightblue" points="2339,-137.12 2347.99,-131.52 2337.47,-130.29 2339,-137.12"/>
</g>
<!-- Node39&#45;&gt;Node36 -->
<g id="edge60" class="edge">
<title>Node39&#45;&gt;Node36</title>
<path fill="none" stroke="midnightblue" d="M2155.28,-168.32C2164.84,-160.26 2179.28,-148.08 2190.78,-138.37"/>
<polygon fill="midnightblue" stroke="midnightblue" points="2193.14,-140.96 2198.53,-131.83 2188.63,-135.61 2193.14,-140.96"/>
</g>
</g>
</svg>
