<?xml version="1.0" encoding="UTF-8" standalone="no"?>
<!DOCTYPE svg PUBLIC "-//W3C//DTD SVG 1.1//EN"
 "http://www.w3.org/Graphics/SVG/1.1/DTD/svg11.dtd">
<!-- Generated by graphviz version 2.43.0 (0)
 -->
<!-- Title: include/pessoas/usuario.hpp Pages: 1 -->
<svg width="827pt" height="207pt"
 viewBox="0.00 0.00 827.00 207.00" xmlns="http://www.w3.org/2000/svg" xmlns:xlink="http://www.w3.org/1999/xlink">
<g id="graph0" class="graph" transform="scale(1 1) rotate(0) translate(4 203)">
<title>include/pessoas/usuario.hpp</title>
<polygon fill="white" stroke="transparent" points="-4,4 -4,-203 823,-203 823,4 -4,4"/>
<!-- Node1 -->
<g id="node1" class="node">
<title>Node1</title>
<g id="a_node1"><a xlink:title="Classe do usuario.">
<polygon fill="#bfbfbf" stroke="black" points="458,-179.5 458,-198.5 613,-198.5 613,-179.5 458,-179.5"/>
<text text-anchor="middle" x="535.5" y="-186.5" font-family="Helvetica,sans-Serif" font-size="10.00">include/pessoas/usuario.hpp</text>
</a>
</g>
</g>
<!-- Node2 -->
<g id="node2" class="node">
<title>Node2</title>
<g id="a_node2"><a xlink:href="biblioteca_8hpp.html" target="_top" xlink:title="Classe responsável por armazenar os livros existentes, adicionar e remover livros,...">
<polygon fill="white" stroke="black" points="243,-112.5 243,-142.5 346,-142.5 346,-112.5 243,-112.5"/>
<text text-anchor="start" x="251" y="-130.5" font-family="Helvetica,sans-Serif" font-size="10.00">include/biblioteca</text>
<text text-anchor="middle" x="294.5" y="-119.5" font-family="Helvetica,sans-Serif" font-size="10.00">/biblioteca.hpp</text>
</a>
</g>
</g>
<!-- Node1&#45;&gt;Node2 -->
<g id="edge1" class="edge">
<title>Node1&#45;&gt;Node2</title>
<path fill="none" stroke="midnightblue" d="M491.01,-177.02C450.08,-166.91 389.36,-151.92 346.26,-141.28"/>
<polygon fill="midnightblue" stroke="midnightblue" points="490.42,-180.48 500.97,-179.48 492.1,-173.68 490.42,-180.48"/>
</g>
<!-- Node7 -->
<g id="node7" class="node">
<title>Node7</title>
<g id="a_node7"><a xlink:href="sistema_8hpp.html" target="_top" xlink:title="Classe responsável por armazenar o histórico de livros.">
<polygon fill="white" stroke="black" points="416,-112.5 416,-142.5 519,-142.5 519,-112.5 416,-112.5"/>
<text text-anchor="start" x="424" y="-130.5" font-family="Helvetica,sans-Serif" font-size="10.00">include/biblioteca</text>
<text text-anchor="middle" x="467.5" y="-119.5" font-family="Helvetica,sans-Serif" font-size="10.00">/sistema.hpp</text>
</a>
</g>
</g>
<!-- Node1&#45;&gt;Node7 -->
<g id="edge6" class="edge">
<title>Node1&#45;&gt;Node7</title>
<path fill="none" stroke="midnightblue" d="M517.95,-172.65C507.32,-163.35 493.87,-151.57 483.53,-142.52"/>
<polygon fill="midnightblue" stroke="midnightblue" points="515.93,-175.52 525.76,-179.48 520.54,-170.26 515.93,-175.52"/>
</g>
<!-- Node10 -->
<g id="node10" class="node">
<title>Node10</title>
<g id="a_node10"><a xlink:href="usuario_8cpp.html" target="_top" xlink:title=" ">
<polygon fill="white" stroke="black" points="537,-118 537,-137 670,-137 670,-118 537,-118"/>
<text text-anchor="middle" x="603.5" y="-125" font-family="Helvetica,sans-Serif" font-size="10.00">src/pessoas/usuario.cpp</text>
</a>
</g>
</g>
<!-- Node1&#45;&gt;Node10 -->
<g id="edge11" class="edge">
<title>Node1&#45;&gt;Node10</title>
<path fill="none" stroke="midnightblue" d="M553.04,-172.65C566.01,-161.31 583.18,-146.28 593.78,-137.01"/>
<polygon fill="midnightblue" stroke="midnightblue" points="550.46,-170.26 545.24,-179.48 555.07,-175.52 550.46,-170.26"/>
</g>
<!-- Node11 -->
<g id="node11" class="node">
<title>Node11</title>
<g id="a_node11"><a xlink:href="teste__usuario_8hpp.html" target="_top" xlink:title=" ">
<polygon fill="white" stroke="black" points="688,-118 688,-137 819,-137 819,-118 688,-118"/>
<text text-anchor="middle" x="753.5" y="-125" font-family="Helvetica,sans-Serif" font-size="10.00">tests/teste_usuario.hpp</text>
</a>
</g>
</g>
<!-- Node1&#45;&gt;Node11 -->
<g id="edge12" class="edge">
<title>Node1&#45;&gt;Node11</title>
<path fill="none" stroke="midnightblue" d="M576.45,-176.82C618.8,-165.26 683.98,-147.47 722.32,-137.01"/>
<polygon fill="midnightblue" stroke="midnightblue" points="575.46,-173.47 566.73,-179.48 577.3,-180.22 575.46,-173.47"/>
</g>
<!-- Node3 -->
<g id="node3" class="node">
<title>Node3</title>
<g id="a_node3"><a xlink:href="biblioteca_8cpp.html" target="_top" xlink:title=" ">
<polygon fill="white" stroke="black" points="0,-56.5 0,-75.5 153,-75.5 153,-56.5 0,-56.5"/>
<text text-anchor="middle" x="76.5" y="-63.5" font-family="Helvetica,sans-Serif" font-size="10.00">src/biblioteca/biblioteca.cpp</text>
</a>
</g>
</g>
<!-- Node2&#45;&gt;Node3 -->
<g id="edge2" class="edge">
<title>Node2&#45;&gt;Node3</title>
<path fill="none" stroke="midnightblue" d="M233.24,-109.78C192.35,-98.62 140.29,-84.41 107.67,-75.51"/>
<polygon fill="midnightblue" stroke="midnightblue" points="232.54,-113.22 243.11,-112.47 234.39,-106.47 232.54,-113.22"/>
</g>
<!-- Node4 -->
<g id="node4" class="node">
<title>Node4</title>
<g id="a_node4"><a xlink:href="main_8cpp.html" target="_top" xlink:title=" ">
<polygon fill="white" stroke="black" points="332,-56.5 332,-75.5 411,-75.5 411,-56.5 332,-56.5"/>
<text text-anchor="middle" x="371.5" y="-63.5" font-family="Helvetica,sans-Serif" font-size="10.00">src/main.cpp</text>
</a>
</g>
</g>
<!-- Node2&#45;&gt;Node4 -->
<g id="edge3" class="edge">
<title>Node2&#45;&gt;Node4</title>
<path fill="none" stroke="midnightblue" d="M320.79,-106.19C334.27,-95.77 349.98,-83.63 360.3,-75.66"/>
<polygon fill="midnightblue" stroke="midnightblue" points="318.52,-103.52 312.75,-112.4 322.8,-109.05 318.52,-103.52"/>
</g>
<!-- Node5 -->
<g id="node5" class="node">
<title>Node5</title>
<g id="a_node5"><a xlink:href="teste__biblioteca_8hpp.html" target="_top" xlink:title=" ">
<polygon fill="white" stroke="black" points="171,-56.5 171,-75.5 314,-75.5 314,-56.5 171,-56.5"/>
<text text-anchor="middle" x="242.5" y="-63.5" font-family="Helvetica,sans-Serif" font-size="10.00">tests/teste_biblioteca.hpp</text>
</a>
</g>
</g>
<!-- Node2&#45;&gt;Node5 -->
<g id="edge4" class="edge">
<title>Node2&#45;&gt;Node5</title>
<path fill="none" stroke="midnightblue" d="M275.45,-104.7C266.65,-94.64 256.71,-83.26 250.07,-75.66"/>
<polygon fill="midnightblue" stroke="midnightblue" points="272.96,-107.17 282.18,-112.4 278.23,-102.57 272.96,-107.17"/>
</g>
<!-- Node6 -->
<g id="node6" class="node">
<title>Node6</title>
<g id="a_node6"><a xlink:href="teste_8cpp.html" target="_top" xlink:title=" ">
<polygon fill="white" stroke="black" points="614,-0.5 614,-19.5 703,-19.5 703,-0.5 614,-0.5"/>
<text text-anchor="middle" x="658.5" y="-7.5" font-family="Helvetica,sans-Serif" font-size="10.00">tests/teste.cpp</text>
</a>
</g>
</g>
<!-- Node5&#45;&gt;Node6 -->
<g id="edge5" class="edge">
<title>Node5&#45;&gt;Node6</title>
<path fill="none" stroke="midnightblue" d="M318.44,-55.14C404.94,-43.91 543.41,-25.94 614,-16.78"/>
<polygon fill="midnightblue" stroke="midnightblue" points="317.88,-51.69 308.42,-56.44 318.78,-58.63 317.88,-51.69"/>
</g>
<!-- Node7&#45;&gt;Node4 -->
<g id="edge8" class="edge">
<title>Node7&#45;&gt;Node4</title>
<path fill="none" stroke="midnightblue" d="M436.15,-107.07C419.04,-96.46 398.7,-83.86 385.47,-75.66"/>
<polygon fill="midnightblue" stroke="midnightblue" points="434.41,-110.11 444.75,-112.4 438.09,-104.16 434.41,-110.11"/>
</g>
<!-- Node8 -->
<g id="node8" class="node">
<title>Node8</title>
<g id="a_node8"><a xlink:href="sistema_8cpp.html" target="_top" xlink:title=" ">
<polygon fill="white" stroke="black" points="429.5,-56.5 429.5,-75.5 573.5,-75.5 573.5,-56.5 429.5,-56.5"/>
<text text-anchor="middle" x="501.5" y="-63.5" font-family="Helvetica,sans-Serif" font-size="10.00">src/biblioteca/sistema.cpp</text>
</a>
</g>
</g>
<!-- Node7&#45;&gt;Node8 -->
<g id="edge7" class="edge">
<title>Node7&#45;&gt;Node8</title>
<path fill="none" stroke="midnightblue" d="M480.64,-103.5C486.22,-93.74 492.38,-82.96 496.55,-75.66"/>
<polygon fill="midnightblue" stroke="midnightblue" points="477.48,-101.98 475.56,-112.4 483.56,-105.45 477.48,-101.98"/>
</g>
<!-- Node9 -->
<g id="node9" class="node">
<title>Node9</title>
<g id="a_node9"><a xlink:href="teste__sistema_8hpp.html" target="_top" xlink:title=" ">
<polygon fill="white" stroke="black" points="591.5,-56.5 591.5,-75.5 725.5,-75.5 725.5,-56.5 591.5,-56.5"/>
<text text-anchor="middle" x="658.5" y="-63.5" font-family="Helvetica,sans-Serif" font-size="10.00">tests/teste_sistema.hpp</text>
</a>
</g>
</g>
<!-- Node7&#45;&gt;Node9 -->
<g id="edge9" class="edge">
<title>Node7&#45;&gt;Node9</title>
<path fill="none" stroke="midnightblue" d="M522.52,-109.36C558.05,-98.29 602.75,-84.37 630.99,-75.57"/>
<polygon fill="midnightblue" stroke="midnightblue" points="521.27,-106.08 512.76,-112.4 523.35,-112.77 521.27,-106.08"/>
</g>
<!-- Node9&#45;&gt;Node6 -->
<g id="edge10" class="edge">
<title>Node9&#45;&gt;Node6</title>
<path fill="none" stroke="midnightblue" d="M658.5,-45.8C658.5,-36.91 658.5,-26.78 658.5,-19.75"/>
<polygon fill="midnightblue" stroke="midnightblue" points="655,-46.08 658.5,-56.08 662,-46.08 655,-46.08"/>
</g>
<!-- Node11&#45;&gt;Node6 -->
<g id="edge13" class="edge">
<title>Node11&#45;&gt;Node6</title>
<path fill="none" stroke="midnightblue" d="M752.28,-107.49C750.44,-92.23 745.87,-70.96 734.5,-56 721.33,-38.66 699.38,-26.71 682.45,-19.51"/>
<polygon fill="midnightblue" stroke="midnightblue" points="748.82,-108.14 753.21,-117.78 755.79,-107.5 748.82,-108.14"/>
</g>
</g>
</svg>
