<?xml version="1.0" encoding="UTF-8" standalone="no"?>
<!DOCTYPE svg PUBLIC "-//W3C//DTD SVG 1.1//EN"
 "http://www.w3.org/Graphics/SVG/1.1/DTD/svg11.dtd">
<!-- Generated by graphviz version 2.43.0 (0)
 -->
<!-- Title: include/pessoas/usuario.hpp Pages: 1 -->
<svg width="626pt" height="196pt"
 viewBox="0.00 0.00 626.07 196.00" xmlns="http://www.w3.org/2000/svg" xmlns:xlink="http://www.w3.org/1999/xlink">
<g id="graph0" class="graph" transform="scale(1 1) rotate(0) translate(4 192)">
<title>include/pessoas/usuario.hpp</title>
<polygon fill="white" stroke="transparent" points="-4,4 -4,-192 622.07,-192 622.07,4 -4,4"/>
<!-- Node1 -->
<g id="node1" class="node">
<title>Node1</title>
<g id="a_node1"><a xlink:title="Classe do usuario.">
<polygon fill="#bfbfbf" stroke="black" points="380.57,-168.5 380.57,-187.5 535.57,-187.5 535.57,-168.5 380.57,-168.5"/>
<text text-anchor="middle" x="458.07" y="-175.5" font-family="Helvetica,sans-Serif" font-size="10.00">include/pessoas/usuario.hpp</text>
</a>
</g>
</g>
<!-- Node2 -->
<g id="node2" class="node">
<title>Node2</title>
<g id="a_node2"><a xlink:href="pessoa_8hpp.html" target="_top" xlink:title="Classe mãe de usuario e admin.">
<polygon fill="white" stroke="black" points="88.07,-112.5 88.07,-131.5 160.07,-131.5 160.07,-112.5 88.07,-112.5"/>
<text text-anchor="middle" x="124.07" y="-119.5" font-family="Helvetica,sans-Serif" font-size="10.00">pessoa.hpp</text>
</a>
</g>
</g>
<!-- Node1&#45;&gt;Node2 -->
<g id="edge1" class="edge">
<title>Node1&#45;&gt;Node2</title>
<path fill="none" stroke="midnightblue" d="M398.45,-168.48C342.15,-160.26 255.13,-147.11 170.44,-132.19"/>
<polygon fill="midnightblue" stroke="midnightblue" points="170.85,-128.7 160.39,-130.4 169.63,-135.6 170.85,-128.7"/>
</g>
<!-- Node7 -->
<g id="node7" class="node">
<title>Node7</title>
<g id="a_node7"><a xlink:href="livro_8hpp.html" target="_top" xlink:title="Classe do objeto Livro.">
<polygon fill="white" stroke="black" points="178.57,-112.5 178.57,-131.5 271.57,-131.5 271.57,-112.5 178.57,-112.5"/>
<text text-anchor="middle" x="225.07" y="-119.5" font-family="Helvetica,sans-Serif" font-size="10.00">../livro/livro.hpp</text>
</a>
</g>
</g>
<!-- Node1&#45;&gt;Node7 -->
<g id="edge8" class="edge">
<title>Node1&#45;&gt;Node7</title>
<path fill="none" stroke="midnightblue" d="M421.15,-168.44C380.67,-159.06 315.65,-143.99 271.69,-133.8"/>
<polygon fill="midnightblue" stroke="midnightblue" points="272.35,-130.36 261.82,-131.52 270.77,-137.18 272.35,-130.36"/>
</g>
<!-- Node9 -->
<g id="node9" class="node">
<title>Node9</title>
<g id="a_node9"><a xlink:href="arquivos_8hpp.html" target="_top" xlink:title="Classe assistente para facilitar a manipulação de arquivos.">
<polygon fill="white" stroke="black" points="290.07,-112.5 290.07,-131.5 430.07,-131.5 430.07,-112.5 290.07,-112.5"/>
<text text-anchor="middle" x="360.07" y="-119.5" font-family="Helvetica,sans-Serif" font-size="10.00">../biblioteca/arquivos.hpp</text>
</a>
</g>
</g>
<!-- Node1&#45;&gt;Node9 -->
<g id="edge12" class="edge">
<title>Node1&#45;&gt;Node9</title>
<path fill="none" stroke="midnightblue" d="M442.32,-168.32C426.75,-159.74 402.69,-146.49 384.61,-136.52"/>
<polygon fill="midnightblue" stroke="midnightblue" points="386.22,-133.42 375.78,-131.65 382.85,-139.55 386.22,-133.42"/>
</g>
<!-- Node10 -->
<g id="node10" class="node">
<title>Node10</title>
<g id="a_node10"><a xlink:title=" ">
<polygon fill="white" stroke="#bfbfbf" points="382.07,-56.5 382.07,-75.5 414.07,-75.5 414.07,-56.5 382.07,-56.5"/>
<text text-anchor="middle" x="398.07" y="-63.5" font-family="Helvetica,sans-Serif" font-size="10.00">set</text>
</a>
</g>
</g>
<!-- Node1&#45;&gt;Node10 -->
<g id="edge21" class="edge">
<title>Node1&#45;&gt;Node10</title>
<path fill="none" stroke="midnightblue" d="M456.78,-168.09C454.62,-155.09 449.43,-130.45 439.07,-112 432.95,-101.11 423.74,-90.68 415.6,-82.61"/>
<polygon fill="midnightblue" stroke="midnightblue" points="417.92,-79.99 408.25,-75.65 413.11,-85.07 417.92,-79.99"/>
</g>
<!-- Node11 -->
<g id="node11" class="node">
<title>Node11</title>
<g id="a_node11"><a xlink:title=" ">
<polygon fill="white" stroke="#bfbfbf" points="432.07,-56.5 432.07,-75.5 470.07,-75.5 470.07,-56.5 432.07,-56.5"/>
<text text-anchor="middle" x="451.07" y="-63.5" font-family="Helvetica,sans-Serif" font-size="10.00">map</text>
</a>
</g>
</g>
<!-- Node1&#45;&gt;Node11 -->
<g id="edge23" class="edge">
<title>Node1&#45;&gt;Node11</title>
<path fill="none" stroke="midnightblue" d="M462.42,-168.16C468.01,-155.65 476.52,-132.06 472.07,-112 469.95,-102.43 465.56,-92.48 461.35,-84.37"/>
<polygon fill="midnightblue" stroke="midnightblue" points="464.37,-82.6 456.45,-75.56 458.25,-86 464.37,-82.6"/>
</g>
<!-- Node12 -->
<g id="node12" class="node">
<title>Node12</title>
<g id="a_node12"><a xlink:title=" ">
<polygon fill="white" stroke="#bfbfbf" points="488.57,-56.5 488.57,-75.5 543.57,-75.5 543.57,-56.5 488.57,-56.5"/>
<text text-anchor="middle" x="516.07" y="-63.5" font-family="Helvetica,sans-Serif" font-size="10.00">fstream</text>
</a>
</g>
</g>
<!-- Node1&#45;&gt;Node12 -->
<g id="edge22" class="edge">
<title>Node1&#45;&gt;Node12</title>
<path fill="none" stroke="midnightblue" d="M464.26,-168.28C470.43,-159.39 479.99,-145.08 487.07,-132 495.42,-116.56 503.43,-98.25 508.91,-85"/>
<polygon fill="midnightblue" stroke="midnightblue" points="512.2,-86.19 512.72,-75.61 505.72,-83.56 512.2,-86.19"/>
</g>
<!-- Node13 -->
<g id="node13" class="node">
<title>Node13</title>
<g id="a_node13"><a xlink:title=" ">
<polygon fill="white" stroke="#bfbfbf" points="562.07,-56.5 562.07,-75.5 618.07,-75.5 618.07,-56.5 562.07,-56.5"/>
<text text-anchor="middle" x="590.07" y="-63.5" font-family="Helvetica,sans-Serif" font-size="10.00">sstream</text>
</a>
</g>
</g>
<!-- Node1&#45;&gt;Node13 -->
<g id="edge24" class="edge">
<title>Node1&#45;&gt;Node13</title>
<path fill="none" stroke="midnightblue" d="M468.43,-168.37C490.79,-149.73 543.83,-105.53 571.91,-82.13"/>
<polygon fill="midnightblue" stroke="midnightblue" points="574.32,-84.68 579.76,-75.59 569.84,-79.3 574.32,-84.68"/>
</g>
<!-- Node3 -->
<g id="node3" class="node">
<title>Node3</title>
<g id="a_node3"><a xlink:title=" ">
<polygon fill="white" stroke="#bfbfbf" points="201.07,-0.5 201.07,-19.5 261.07,-19.5 261.07,-0.5 201.07,-0.5"/>
<text text-anchor="middle" x="231.07" y="-7.5" font-family="Helvetica,sans-Serif" font-size="10.00">iostream</text>
</a>
</g>
</g>
<!-- Node2&#45;&gt;Node3 -->
<g id="edge2" class="edge">
<title>Node2&#45;&gt;Node3</title>
<path fill="none" stroke="midnightblue" d="M141.25,-112.45C156.01,-104.5 177.19,-91.55 192.07,-76 205.39,-62.07 216.24,-42.81 223.08,-28.87"/>
<polygon fill="midnightblue" stroke="midnightblue" points="226.25,-30.36 227.33,-19.82 219.91,-27.38 226.25,-30.36"/>
</g>
<!-- Node4 -->
<g id="node4" class="node">
<title>Node4</title>
<g id="a_node4"><a xlink:title=" ">
<polygon fill="white" stroke="#bfbfbf" points="15.07,-0.5 15.07,-19.5 59.07,-19.5 59.07,-0.5 15.07,-0.5"/>
<text text-anchor="middle" x="37.07" y="-7.5" font-family="Helvetica,sans-Serif" font-size="10.00">string</text>
</a>
</g>
</g>
<!-- Node2&#45;&gt;Node4 -->
<g id="edge3" class="edge">
<title>Node2&#45;&gt;Node4</title>
<path fill="none" stroke="midnightblue" d="M88.03,-118.18C60,-113.88 22.83,-103.07 4.07,-76 -6.78,-60.35 6.53,-40.64 19.34,-27.05"/>
<polygon fill="midnightblue" stroke="midnightblue" points="21.99,-29.35 26.64,-19.83 17.07,-24.38 21.99,-29.35"/>
</g>
<!-- Node5 -->
<g id="node5" class="node">
<title>Node5</title>
<g id="a_node5"><a xlink:href="erros_8hpp.html" target="_top" xlink:title="Classes de tratamento de exceções.">
<polygon fill="white" stroke="black" points="84.57,-56.5 84.57,-75.5 183.57,-75.5 183.57,-56.5 84.57,-56.5"/>
<text text-anchor="middle" x="134.07" y="-63.5" font-family="Helvetica,sans-Serif" font-size="10.00">../erros/erros.hpp</text>
</a>
</g>
</g>
<!-- Node2&#45;&gt;Node5 -->
<g id="edge4" class="edge">
<title>Node2&#45;&gt;Node5</title>
<path fill="none" stroke="midnightblue" d="M125.72,-112.08C127.05,-104.93 128.95,-94.64 130.61,-85.69"/>
<polygon fill="midnightblue" stroke="midnightblue" points="134.07,-86.22 132.45,-75.75 127.19,-84.95 134.07,-86.22"/>
</g>
<!-- Node5&#45;&gt;Node3 -->
<g id="edge5" class="edge">
<title>Node5&#45;&gt;Node3</title>
<path fill="none" stroke="midnightblue" d="M149.65,-56.32C165.07,-47.74 188.88,-34.49 206.78,-24.52"/>
<polygon fill="midnightblue" stroke="midnightblue" points="208.49,-27.58 215.52,-19.65 205.08,-21.46 208.49,-27.58"/>
</g>
<!-- Node5&#45;&gt;Node4 -->
<g id="edge6" class="edge">
<title>Node5&#45;&gt;Node4</title>
<path fill="none" stroke="midnightblue" d="M118.48,-56.32C103.07,-47.74 79.26,-34.49 61.36,-24.52"/>
<polygon fill="midnightblue" stroke="midnightblue" points="63.06,-21.46 52.62,-19.65 59.65,-27.58 63.06,-21.46"/>
</g>
<!-- Node6 -->
<g id="node6" class="node">
<title>Node6</title>
<g id="a_node6"><a xlink:title=" ">
<polygon fill="white" stroke="#bfbfbf" points="109.07,-0.5 109.07,-19.5 159.07,-19.5 159.07,-0.5 109.07,-0.5"/>
<text text-anchor="middle" x="134.07" y="-7.5" font-family="Helvetica,sans-Serif" font-size="10.00">cstring</text>
</a>
</g>
</g>
<!-- Node5&#45;&gt;Node6 -->
<g id="edge7" class="edge">
<title>Node5&#45;&gt;Node6</title>
<path fill="none" stroke="midnightblue" d="M134.07,-56.08C134.07,-49.01 134.07,-38.86 134.07,-29.99"/>
<polygon fill="midnightblue" stroke="midnightblue" points="137.57,-29.75 134.07,-19.75 130.57,-29.75 137.57,-29.75"/>
</g>
<!-- Node7&#45;&gt;Node3 -->
<g id="edge9" class="edge">
<title>Node7&#45;&gt;Node3</title>
<path fill="none" stroke="midnightblue" d="M225.54,-112.37C226.51,-94.62 228.74,-53.67 230.06,-29.6"/>
<polygon fill="midnightblue" stroke="midnightblue" points="233.55,-29.77 230.6,-19.59 226.56,-29.39 233.55,-29.77"/>
</g>
<!-- Node7&#45;&gt;Node4 -->
<g id="edge11" class="edge">
<title>Node7&#45;&gt;Node4</title>
<path fill="none" stroke="midnightblue" d="M178.21,-112.42C126.99,-102.59 50.96,-86.48 42.07,-76 31.44,-63.47 31.26,-44.24 33.1,-29.95"/>
<polygon fill="midnightblue" stroke="midnightblue" points="36.6,-30.21 34.84,-19.76 29.7,-29.03 36.6,-30.21"/>
</g>
<!-- Node8 -->
<g id="node8" class="node">
<title>Node8</title>
<g id="a_node8"><a xlink:title=" ">
<polygon fill="white" stroke="#bfbfbf" points="278.57,-56.5 278.57,-75.5 325.57,-75.5 325.57,-56.5 278.57,-56.5"/>
<text text-anchor="middle" x="302.07" y="-63.5" font-family="Helvetica,sans-Serif" font-size="10.00">vector</text>
</a>
</g>
</g>
<!-- Node7&#45;&gt;Node8 -->
<g id="edge10" class="edge">
<title>Node7&#45;&gt;Node8</title>
<path fill="none" stroke="midnightblue" d="M237.44,-112.32C249.23,-104.06 267.2,-91.45 281.21,-81.63"/>
<polygon fill="midnightblue" stroke="midnightblue" points="283.55,-84.26 289.73,-75.65 279.53,-78.53 283.55,-84.26"/>
</g>
<!-- Node9&#45;&gt;Node3 -->
<g id="edge13" class="edge">
<title>Node9&#45;&gt;Node3</title>
<path fill="none" stroke="midnightblue" d="M358.75,-112.28C356.26,-98.61 349.63,-72.06 334.07,-56 317.07,-38.46 292.07,-27.31 270.96,-20.5"/>
<polygon fill="midnightblue" stroke="midnightblue" points="271.85,-17.12 261.26,-17.58 269.83,-23.82 271.85,-17.12"/>
</g>
<!-- Node9&#45;&gt;Node4 -->
<g id="edge14" class="edge">
<title>Node9&#45;&gt;Node4</title>
<path fill="none" stroke="midnightblue" d="M289.75,-113.08C211.15,-103.72 92.55,-87.94 75.07,-76 58.91,-64.97 48.66,-44.62 42.93,-29.61"/>
<polygon fill="midnightblue" stroke="midnightblue" points="46.12,-28.14 39.54,-19.85 39.51,-30.44 46.12,-28.14"/>
</g>
<!-- Node9&#45;&gt;Node5 -->
<g id="edge20" class="edge">
<title>Node9&#45;&gt;Node5</title>
<path fill="none" stroke="midnightblue" d="M324.26,-112.44C285.08,-103.08 222.19,-88.06 179.55,-77.87"/>
<polygon fill="midnightblue" stroke="midnightblue" points="180.25,-74.44 169.71,-75.52 178.63,-81.24 180.25,-74.44"/>
</g>
<!-- Node9&#45;&gt;Node8 -->
<g id="edge15" class="edge">
<title>Node9&#45;&gt;Node8</title>
<path fill="none" stroke="midnightblue" d="M350.75,-112.32C342.18,-104.34 329.26,-92.31 318.88,-82.65"/>
<polygon fill="midnightblue" stroke="midnightblue" points="321.26,-80.09 311.56,-75.83 316.49,-85.21 321.26,-80.09"/>
</g>
<!-- Node9&#45;&gt;Node10 -->
<g id="edge16" class="edge">
<title>Node9&#45;&gt;Node10</title>
<path fill="none" stroke="midnightblue" d="M366.34,-112.08C371.71,-104.46 379.59,-93.26 386.15,-83.94"/>
<polygon fill="midnightblue" stroke="midnightblue" points="389.02,-85.94 391.91,-75.75 383.29,-81.91 389.02,-85.94"/>
</g>
<!-- Node9&#45;&gt;Node11 -->
<g id="edge17" class="edge">
<title>Node9&#45;&gt;Node11</title>
<path fill="none" stroke="midnightblue" d="M374.69,-112.32C389.02,-103.82 411.08,-90.73 427.82,-80.8"/>
<polygon fill="midnightblue" stroke="midnightblue" points="429.67,-83.77 436.49,-75.65 426.1,-77.75 429.67,-83.77"/>
</g>
<!-- Node9&#45;&gt;Node12 -->
<g id="edge18" class="edge">
<title>Node9&#45;&gt;Node12</title>
<path fill="none" stroke="midnightblue" d="M384.79,-112.44C410.92,-103.4 452.33,-89.06 481.65,-78.92"/>
<polygon fill="midnightblue" stroke="midnightblue" points="483.16,-82.1 491.47,-75.52 480.87,-75.48 483.16,-82.1"/>
</g>
<!-- Node9&#45;&gt;Node13 -->
<g id="edge19" class="edge">
<title>Node9&#45;&gt;Node13</title>
<path fill="none" stroke="midnightblue" d="M397.09,-112.48C433.91,-103.98 492.28,-90.44 551.84,-76.28"/>
<polygon fill="midnightblue" stroke="midnightblue" points="552.88,-79.63 561.79,-73.91 551.26,-72.82 552.88,-79.63"/>
</g>
</g>
</svg>
